<svg width="73" height="15" viewBox="0 0 73 15" fill="none" xmlns="http://www.w3.org/2000/svg">
<path d="M5.08613 6.30282L7.99941 3.39073L10.9139 6.30519L12.6092 4.60983L7.99941 0L3.39077 4.60864L5.08613 6.30282ZM2.19418 5.80523L3.88836 7.49941L2.19418 9.19359L0.5 7.49941L2.19418 5.80523ZM5.08613 8.69718L7.99941 11.6105L10.9139 8.696L12.6092 10.389V10.3902L7.99941 15L3.39077 10.3925L3.3884 10.3902L5.08613 8.69718ZM15.5 7.49941L13.8058 9.19477L12.1105 7.50059L13.8046 5.80641L15.5 7.49941Z" fill="#F0B90B"/>
<path d="M9.71975 7.49942L7.9995 5.77917L6.72828 7.0504L6.58255 7.19612L6.28045 7.49705L6.27808 7.49942L6.28045 7.50297L7.9995 9.22085L9.71975 7.5006V7.49942Z" fill="#F0B90B"/>
<path d="M69.5592 12.1739C69.0232 12.1739 68.5072 12.1059 68.0112 11.9699C67.5232 11.8259 67.1352 11.6539 66.8472 11.4539L67.4232 10.3139C67.7112 10.4979 68.0552 10.6499 68.4552 10.7699C68.8552 10.8899 69.2552 10.9499 69.6552 10.9499C70.1272 10.9499 70.4672 10.8859 70.6752 10.7579C70.8912 10.6299 70.9992 10.4579 70.9992 10.2419C70.9992 10.0659 70.9272 9.93386 70.7832 9.84586C70.6392 9.74986 70.4512 9.67786 70.2192 9.62986C69.9872 9.58186 69.7272 9.53786 69.4392 9.49786C69.1592 9.45786 68.8752 9.40586 68.5872 9.34186C68.3072 9.26986 68.0512 9.16986 67.8192 9.04186C67.5872 8.90586 67.3992 8.72586 67.2552 8.50186C67.1112 8.27786 67.0392 7.98186 67.0392 7.61386C67.0392 7.20586 67.1552 6.85386 67.3872 6.55786C67.6192 6.25386 67.9432 6.02186 68.3592 5.86186C68.7832 5.69386 69.2832 5.60986 69.8592 5.60986C70.2912 5.60986 70.7272 5.65786 71.1672 5.75386C71.6072 5.84986 71.9712 5.98586 72.2592 6.16186L71.6832 7.30186C71.3792 7.11786 71.0712 6.99386 70.7592 6.92986C70.4552 6.85786 70.1512 6.82186 69.8472 6.82186C69.3912 6.82186 69.0512 6.88986 68.8272 7.02586C68.6112 7.16186 68.5032 7.33386 68.5032 7.54186C68.5032 7.73386 68.5752 7.87786 68.7192 7.97386C68.8632 8.06986 69.0512 8.14586 69.2832 8.20186C69.5152 8.25786 69.7712 8.30586 70.0512 8.34586C70.3392 8.37786 70.6232 8.42986 70.9032 8.50186C71.1832 8.57386 71.4392 8.67386 71.6712 8.80186C71.9112 8.92186 72.1032 9.09386 72.2472 9.31786C72.3912 9.54186 72.4632 9.83386 72.4632 10.1939C72.4632 10.5939 72.3432 10.9419 72.1032 11.2379C71.8712 11.5339 71.5392 11.7659 71.1072 11.9339C70.6752 12.0939 70.1592 12.1739 69.5592 12.1739Z" fill="#9C9C9C"/>
<path d="M63 5.60986C63.512 5.60986 63.968 5.70986 64.368 5.90986C64.776 6.10986 65.096 6.41786 65.328 6.83386C65.56 7.24186 65.676 7.76986 65.676 8.41786V12.0899H64.176V8.60986C64.176 8.04186 64.04 7.61786 63.768 7.33786C63.504 7.05786 63.132 6.91786 62.652 6.91786C62.3 6.91786 61.988 6.98986 61.716 7.13386C61.444 7.27786 61.232 7.49386 61.08 7.78186C60.936 8.06186 60.864 8.41786 60.864 8.84986V12.0899H59.364V5.68186H60.792V7.40986L60.54 6.88186C60.764 6.47386 61.088 6.16186 61.512 5.94586C61.944 5.72186 62.44 5.60986 63 5.60986Z" fill="#9C9C9C"/>
<path d="M55.8956 12.0899V5.68193H57.3956V12.0899H55.8956ZM56.6516 4.62593C56.3716 4.62593 56.1396 4.53793 55.9556 4.36193C55.7796 4.18593 55.6917 3.97393 55.6917 3.72593C55.6917 3.46993 55.7796 3.25793 55.9556 3.08993C56.1396 2.91393 56.3716 2.82593 56.6516 2.82593C56.9316 2.82593 57.1596 2.90993 57.3356 3.07793C57.5196 3.23793 57.6116 3.44193 57.6116 3.68993C57.6116 3.95393 57.5237 4.17793 57.3477 4.36193C57.1717 4.53793 56.9396 4.62593 56.6516 4.62593Z" fill="#9C9C9C"/>
<path d="M51.0415 12.1739C50.3855 12.1739 49.8015 12.0339 49.2895 11.7539C48.7775 11.4659 48.3735 11.0739 48.0775 10.5779C47.7815 10.0819 47.6335 9.51786 47.6335 8.88586C47.6335 8.24586 47.7815 7.68186 48.0775 7.19386C48.3735 6.69786 48.7775 6.30986 49.2895 6.02986C49.8015 5.74986 50.3855 5.60986 51.0415 5.60986C51.7055 5.60986 52.2935 5.74986 52.8055 6.02986C53.3255 6.30986 53.7295 6.69386 54.0175 7.18186C54.3135 7.66986 54.4615 8.23786 54.4615 8.88586C54.4615 9.51786 54.3135 10.0819 54.0175 10.5779C53.7295 11.0739 53.3255 11.4659 52.8055 11.7539C52.2935 12.0339 51.7055 12.1739 51.0415 12.1739ZM51.0415 10.8899C51.4095 10.8899 51.7375 10.8099 52.0255 10.6499C52.3135 10.4899 52.5375 10.2579 52.6975 9.95386C52.8655 9.64986 52.9495 9.29386 52.9495 8.88586C52.9495 8.46986 52.8655 8.11386 52.6975 7.81786C52.5375 7.51386 52.3135 7.28186 52.0255 7.12186C51.7375 6.96186 51.4135 6.88186 51.0535 6.88186C50.6855 6.88186 50.3575 6.96186 50.0695 7.12186C49.7895 7.28186 49.5655 7.51386 49.3975 7.81786C49.2295 8.11386 49.1455 8.46986 49.1455 8.88586C49.1455 9.29386 49.2295 9.64986 49.3975 9.95386C49.5655 10.2579 49.7895 10.4899 50.0695 10.6499C50.3575 10.8099 50.6815 10.8899 51.0415 10.8899Z" fill="#9C9C9C"/>
<path d="M44.2226 12.1739C43.5506 12.1739 42.9506 12.0339 42.4226 11.7539C41.9026 11.4659 41.4946 11.0739 41.1986 10.5779C40.9026 10.0819 40.7546 9.51786 40.7546 8.88586C40.7546 8.24586 40.9026 7.68186 41.1986 7.19386C41.4946 6.69786 41.9026 6.30986 42.4226 6.02986C42.9506 5.74986 43.5506 5.60986 44.2226 5.60986C44.8466 5.60986 45.3946 5.73786 45.8666 5.99386C46.3466 6.24186 46.7106 6.60986 46.9586 7.09786L45.8066 7.76986C45.6146 7.46586 45.3786 7.24186 45.0986 7.09786C44.8266 6.95386 44.5306 6.88186 44.2106 6.88186C43.8426 6.88186 43.5106 6.96186 43.2146 7.12186C42.9186 7.28186 42.6866 7.51386 42.5186 7.81786C42.3506 8.11386 42.2666 8.46986 42.2666 8.88586C42.2666 9.30186 42.3506 9.66186 42.5186 9.96586C42.6866 10.2619 42.9186 10.4899 43.2146 10.6499C43.5106 10.8099 43.8426 10.8899 44.2106 10.8899C44.5306 10.8899 44.8266 10.8179 45.0986 10.6739C45.3786 10.5299 45.6146 10.3059 45.8066 10.0019L46.9586 10.6739C46.7106 11.1539 46.3466 11.5259 45.8666 11.7899C45.3946 12.0459 44.8466 12.1739 44.2226 12.1739Z" fill="#9C9C9C"/>
<path d="M38.8192 12.1739C38.1152 12.1739 37.5712 11.9939 37.1872 11.6339C36.8032 11.2659 36.6112 10.7259 36.6112 10.0139V4.26587H38.1112V9.97787C38.1112 10.2819 38.1872 10.5179 38.3392 10.6859C38.4992 10.8539 38.7192 10.9379 38.9992 10.9379C39.3352 10.9379 39.6152 10.8499 39.8392 10.6739L40.2592 11.7419C40.0832 11.8859 39.8672 11.9939 39.6112 12.0659C39.3552 12.1379 39.0912 12.1739 38.8192 12.1739ZM35.5552 6.92987V5.72987H39.8272V6.92987H35.5552Z" fill="#9C9C9C"/>
<path d="M29.4263 12.0898V3.68982H30.9863V10.7698H35.3783V12.0898H29.4263Z" fill="#9C9C9C"/>
<path d="M19.25 12.0898L23.03 3.68982H24.566L28.358 12.0898H26.726L23.474 4.51782H24.098L20.858 12.0898H19.25ZM20.99 10.1458L21.41 8.92182H25.946L26.366 10.1458H20.99Z" fill="#9C9C9C"/>
</svg>
