<svg width="54" height="44" viewBox="0 0 54 44" fill="none" xmlns="http://www.w3.org/2000/svg">
<rect x="23.9968" y="16.4143" width="3.5" height="3.5" transform="rotate(-45 23.9968 16.4143)" fill="#F0B90B"/>
<path d="M21.3616 14.1734L26.6055 8.93168L31.8515 14.1777L34.9032 11.1261L26.6055 2.82837L18.3099 11.1239L21.3616 14.1734ZM16.1561 13.2778L19.2056 16.3273L16.1561 19.3768L13.1066 16.3273L16.1561 13.2778ZM21.3616 18.4833L26.6055 23.7272L31.8515 18.4812L34.9032 21.5286V21.5307L26.6055 29.8284L18.3099 21.5349L18.3057 21.5307L21.3616 18.4833ZM40.1066 16.3273L37.057 19.379L34.0054 16.3294L37.0549 13.2799L40.1066 16.3273Z" fill="#F0B90B"/>
<path d="M50.3092 43.1763C49.7732 43.1763 49.2572 43.1083 48.7612 42.9723C48.2732 42.8283 47.8852 42.6563 47.5972 42.4563L48.1732 41.3163C48.4612 41.5003 48.8052 41.6523 49.2052 41.7723C49.6052 41.8923 50.0052 41.9523 50.4052 41.9523C50.8772 41.9523 51.2172 41.8883 51.4252 41.7603C51.6412 41.6323 51.7492 41.4603 51.7492 41.2443C51.7492 41.0683 51.6772 40.9363 51.5332 40.8483C51.3892 40.7523 51.2012 40.6803 50.9692 40.6323C50.7372 40.5843 50.4772 40.5403 50.1892 40.5003C49.9092 40.4603 49.6252 40.4083 49.3372 40.3443C49.0572 40.2723 48.8012 40.1723 48.5692 40.0443C48.3372 39.9083 48.1492 39.7283 48.0052 39.5043C47.8612 39.2803 47.7892 38.9843 47.7892 38.6163C47.7892 38.2083 47.9052 37.8563 48.1372 37.5603C48.3692 37.2563 48.6932 37.0243 49.1092 36.8643C49.5332 36.6963 50.0332 36.6123 50.6092 36.6123C51.0412 36.6123 51.4772 36.6603 51.9172 36.7563C52.3572 36.8523 52.7212 36.9883 53.0092 37.1643L52.4332 38.3043C52.1292 38.1203 51.8212 37.9963 51.5092 37.9323C51.2052 37.8603 50.9012 37.8243 50.5972 37.8243C50.1412 37.8243 49.8012 37.8923 49.5772 38.0283C49.3612 38.1643 49.2532 38.3363 49.2532 38.5443C49.2532 38.7363 49.3252 38.8803 49.4692 38.9763C49.6132 39.0723 49.8012 39.1483 50.0332 39.2043C50.2652 39.2603 50.5212 39.3083 50.8012 39.3483C51.0892 39.3803 51.3732 39.4323 51.6532 39.5043C51.9332 39.5763 52.1892 39.6763 52.4212 39.8043C52.6612 39.9243 52.8532 40.0963 52.9972 40.3203C53.1412 40.5443 53.2132 40.8363 53.2132 41.1963C53.2132 41.5963 53.0932 41.9443 52.8532 42.2403C52.6212 42.5363 52.2892 42.7683 51.8572 42.9363C51.4252 43.0963 50.9092 43.1763 50.3092 43.1763Z" fill="white"/>
<path d="M43.75 36.6123C44.262 36.6123 44.718 36.7123 45.118 36.9123C45.526 37.1123 45.846 37.4203 46.078 37.8363C46.31 38.2443 46.426 38.7723 46.426 39.4203V43.0923H44.926V39.6123C44.926 39.0443 44.79 38.6203 44.518 38.3403C44.254 38.0603 43.882 37.9203 43.402 37.9203C43.05 37.9203 42.738 37.9923 42.466 38.1363C42.194 38.2803 41.982 38.4963 41.83 38.7843C41.686 39.0643 41.614 39.4203 41.614 39.8523V43.0923H40.114V36.6843H41.542V38.4123L41.29 37.8843C41.514 37.4763 41.838 37.1643 42.262 36.9483C42.694 36.7243 43.19 36.6123 43.75 36.6123Z" fill="white"/>
<path d="M36.6456 43.0921V36.6841H38.1456V43.0921H36.6456ZM37.4016 35.6281C37.1216 35.6281 36.8896 35.5401 36.7056 35.3641C36.5296 35.1881 36.4417 34.9761 36.4417 34.7281C36.4417 34.4721 36.5296 34.2601 36.7056 34.0921C36.8896 33.9161 37.1216 33.8281 37.4016 33.8281C37.6816 33.8281 37.9096 33.9121 38.0856 34.0801C38.2696 34.2401 38.3616 34.4441 38.3616 34.6921C38.3616 34.9561 38.2737 35.1801 38.0977 35.3641C37.9217 35.5401 37.6896 35.6281 37.4016 35.6281Z" fill="white"/>
<path d="M31.7915 43.1763C31.1355 43.1763 30.5515 43.0363 30.0395 42.7563C29.5275 42.4683 29.1235 42.0763 28.8275 41.5803C28.5315 41.0843 28.3835 40.5203 28.3835 39.8883C28.3835 39.2483 28.5315 38.6843 28.8275 38.1963C29.1235 37.7003 29.5275 37.3123 30.0395 37.0323C30.5515 36.7523 31.1355 36.6123 31.7915 36.6123C32.4555 36.6123 33.0435 36.7523 33.5555 37.0323C34.0755 37.3123 34.4795 37.6963 34.7675 38.1843C35.0635 38.6723 35.2115 39.2403 35.2115 39.8883C35.2115 40.5203 35.0635 41.0843 34.7675 41.5803C34.4795 42.0763 34.0755 42.4683 33.5555 42.7563C33.0435 43.0363 32.4555 43.1763 31.7915 43.1763ZM31.7915 41.8923C32.1595 41.8923 32.4875 41.8123 32.7755 41.6523C33.0635 41.4923 33.2875 41.2603 33.4475 40.9563C33.6155 40.6523 33.6995 40.2963 33.6995 39.8883C33.6995 39.4723 33.6155 39.1163 33.4475 38.8203C33.2875 38.5163 33.0635 38.2843 32.7755 38.1243C32.4875 37.9643 32.1635 37.8843 31.8035 37.8843C31.4355 37.8843 31.1075 37.9643 30.8195 38.1243C30.5395 38.2843 30.3155 38.5163 30.1475 38.8203C29.9795 39.1163 29.8955 39.4723 29.8955 39.8883C29.8955 40.2963 29.9795 40.6523 30.1475 40.9563C30.3155 41.2603 30.5395 41.4923 30.8195 41.6523C31.1075 41.8123 31.4315 41.8923 31.7915 41.8923Z" fill="white"/>
<path d="M24.9726 43.1763C24.3006 43.1763 23.7006 43.0363 23.1726 42.7563C22.6526 42.4683 22.2446 42.0763 21.9486 41.5803C21.6526 41.0843 21.5046 40.5203 21.5046 39.8883C21.5046 39.2483 21.6526 38.6843 21.9486 38.1963C22.2446 37.7003 22.6526 37.3123 23.1726 37.0323C23.7006 36.7523 24.3006 36.6123 24.9726 36.6123C25.5966 36.6123 26.1446 36.7403 26.6166 36.9963C27.0966 37.2443 27.4606 37.6123 27.7086 38.1003L26.5566 38.7723C26.3646 38.4683 26.1286 38.2443 25.8486 38.1003C25.5766 37.9563 25.2806 37.8843 24.9606 37.8843C24.5926 37.8843 24.2606 37.9643 23.9646 38.1243C23.6686 38.2843 23.4366 38.5163 23.2686 38.8203C23.1006 39.1163 23.0166 39.4723 23.0166 39.8883C23.0166 40.3043 23.1006 40.6643 23.2686 40.9683C23.4366 41.2643 23.6686 41.4923 23.9646 41.6523C24.2606 41.8123 24.5926 41.8923 24.9606 41.8923C25.2806 41.8923 25.5766 41.8203 25.8486 41.6763C26.1286 41.5323 26.3646 41.3083 26.5566 41.0043L27.7086 41.6763C27.4606 42.1563 27.0966 42.5283 26.6166 42.7923C26.1446 43.0483 25.5966 43.1763 24.9726 43.1763Z" fill="white"/>
<path d="M19.5692 43.1761C18.8652 43.1761 18.3212 42.9961 17.9372 42.6361C17.5532 42.2681 17.3612 41.7281 17.3612 41.0161V35.2681H18.8612V40.9801C18.8612 41.2841 18.9372 41.5201 19.0892 41.6881C19.2492 41.8561 19.4692 41.9401 19.7492 41.9401C20.0852 41.9401 20.3652 41.8521 20.5892 41.6761L21.0092 42.7441C20.8332 42.8881 20.6172 42.9961 20.3612 43.0681C20.1052 43.1401 19.8412 43.1761 19.5692 43.1761ZM16.3052 37.9321V36.7321H20.5772V37.9321H16.3052Z" fill="white"/>
<path d="M10.1763 43.0921V34.6921H11.7363V41.7721H16.1283V43.0921H10.1763Z" fill="white"/>
<path d="M0 43.0921L3.78 34.6921H5.316L9.108 43.0921H7.476L4.224 35.5201H4.848L1.608 43.0921H0ZM1.74 41.1481L2.16 39.9241H6.696L7.116 41.1481H1.74Z" fill="white"/>
</svg>
