<svg width="58" height="43" viewBox="0 0 58 43" fill="none" xmlns="http://www.w3.org/2000/svg">
<rect x="26.068" y="16.4143" width="3.5" height="3.5" transform="rotate(-45 26.068 16.4143)" fill="white"/>
<path d="M23.4329 14.1734L28.6768 8.93168L33.9228 14.1777L36.9744 11.1261L28.6768 2.82837L20.3812 11.1239L23.4329 14.1734ZM18.2273 13.2778L21.2769 16.3273L18.2273 19.3768L15.1778 16.3273L18.2273 13.2778ZM23.4329 18.4833L28.6768 23.7272L33.9228 18.4812L36.9744 21.5286V21.5307L28.6768 29.8284L20.3812 21.5349L20.3769 21.5307L23.4329 18.4833ZM42.1778 16.3273L39.1283 19.379L36.0766 16.3294L39.1262 13.2799L42.1778 16.3273Z" fill="white"/>
<path d="M0 33.9646H3.68691C4.60153 33.9646 5.29342 34.1992 5.76258 34.6683C5.9409 34.8448 6.08124 35.0558 6.17497 35.2885C6.26869 35.5212 6.31381 35.7706 6.30756 36.0213V36.045C6.30756 36.2701 6.27794 36.4715 6.22226 36.6457C6.1218 36.9731 5.92983 37.2649 5.66898 37.4868C5.54567 37.5923 5.41096 37.6837 5.26736 37.7593C5.72822 37.9335 6.08957 38.1704 6.35376 38.4702C6.61796 38.7699 6.74947 39.1846 6.74947 39.7142V39.7379C6.74947 40.1004 6.67957 40.4191 6.53977 40.6916C6.39928 40.9654 6.19285 41.1999 5.93911 41.374C5.65283 41.5668 5.33358 41.7053 4.99724 41.7827C4.62997 41.8739 4.2236 41.919 3.77695 41.919H0V33.9646ZM3.31727 37.18C3.70468 37.18 4.01153 37.1137 4.239 36.981C4.46529 36.8495 4.57902 36.635 4.57902 36.34V36.3163C4.57902 36.0521 4.48069 35.8495 4.28284 35.7086C4.08736 35.5688 3.80302 35.4989 3.43219 35.4989H1.70484V37.1812H3.31846L3.31727 37.18ZM3.78406 40.3847C4.17029 40.3847 4.47358 40.3148 4.69276 40.175C4.91312 40.034 5.02211 39.8172 5.02211 39.521V39.4985C5.02211 39.2332 4.92023 39.0235 4.71527 38.8683C4.51149 38.7131 4.18213 38.6349 3.72719 38.6349H1.70484V40.3847H3.78406ZM8.94598 33.9646H10.6958V41.919H8.94479V33.9646H8.94598ZM13.3461 33.9646H14.9597L18.6869 38.8623V33.9646H20.4143V41.919H18.9239L15.0735 36.8625V41.919H13.3461V33.9646ZM25.7124 33.9077H27.326L30.7345 41.919H28.9053L28.1779 40.1347H24.8144L24.087 41.919H22.3027L25.7124 33.9077ZM27.5535 38.5898L26.4943 36.0095L25.4387 38.5898H27.5523H27.5535ZM32.6242 33.9646H34.2378L37.965 38.8623V33.9646H39.6924V41.919H38.2031L34.3515 36.8625V41.919H32.6242V33.9646ZM45.9904 42.0552C45.4064 42.0552 44.8649 41.9486 44.365 41.7365C43.865 41.5244 43.4326 41.2354 43.07 40.8681C42.7023 40.4953 42.4124 40.0531 42.217 39.5673C42.0107 39.0582 41.9064 38.5136 41.9102 37.9643V37.9406C41.9034 36.8588 42.3196 35.8172 43.07 35.038C43.4326 34.6636 43.8686 34.3674 44.3756 34.1518C44.8827 33.9362 45.4443 33.8284 46.058 33.8284C46.4288 33.8284 46.7688 33.858 47.0745 33.9184C47.3825 33.98 47.6597 34.0629 47.9109 34.1684C48.1597 34.275 48.3907 34.4042 48.604 34.5558C48.814 34.706 49.0113 34.8733 49.194 35.0558L48.0803 36.3388C47.796 36.0769 47.4771 35.8553 47.1325 35.6801C46.7942 35.5176 46.4226 35.4361 46.0473 35.442C45.7352 35.4396 45.4261 35.5031 45.1403 35.6285C44.8544 35.7538 44.5983 35.9382 44.3887 36.1694C44.1815 36.4004 44.0191 36.668 43.91 36.9585C43.7956 37.2653 43.7382 37.5906 43.7406 37.9181V37.9418C43.7406 38.283 43.7963 38.6052 43.91 38.9074C44.0238 39.2106 44.1813 39.476 44.3816 39.7023C44.59 39.9374 44.8465 40.125 45.1336 40.2525C45.4208 40.38 45.7319 40.4445 46.0461 40.4416C46.5011 40.4416 46.8849 40.3587 47.2001 40.1916C47.514 40.0257 47.828 39.7983 48.1372 39.5092L49.2508 40.6347C49.0539 40.8474 48.8412 41.0451 48.6146 41.2259C48.1533 41.5912 47.6122 41.8425 47.0354 41.9592C46.725 42.0232 46.3767 42.0552 45.9904 42.0552ZM51.3111 33.9646H57.2976V35.5214H53.0373V37.135H56.787V38.6917H53.0373V40.3622H57.3557V41.919H51.3099V33.9646H51.3111Z" fill="white"/>
</svg>
