<svg width="41" height="41" viewBox="0 0 41 41" fill="none" xmlns="http://www.w3.org/2000/svg">
<path d="M27.4682 20.9175C27.5105 20.9776 27.5817 20.9955 27.6396 21.0266C28.2409 21.354 28.7998 21.737 29.2607 22.2492C29.8932 22.9506 30.2094 23.7768 30.2294 24.7187C30.2405 25.2264 30.1671 25.723 30.0468 26.2196C29.8776 26.921 29.6438 27.5957 29.3097 28.2348C28.5749 29.6444 27.4169 30.4973 25.8715 30.8357C25.0454 31.0161 24.2081 31.054 23.3664 31.0161C22.5202 30.976 21.6807 30.8781 20.8456 30.7355C20.6831 30.7088 20.6808 30.7088 20.6363 30.8692C20.28 32.154 19.9237 33.4389 19.5674 34.7215C19.4984 34.9709 19.4984 34.9754 19.2401 34.893C18.5275 34.6681 17.8149 34.441 17.1023 34.2116C16.9487 34.1626 16.9487 34.1582 16.991 33.9934C17.2137 33.1383 17.4386 32.2854 17.6613 31.4303C17.7748 30.9961 17.8862 30.5641 17.9997 30.1298C18.0376 29.9829 18.0376 29.9851 17.8995 29.9495C17.3807 29.8136 16.8596 29.6756 16.3296 29.5843C16.2472 29.5709 16.1649 29.5576 16.0825 29.5464C15.9778 29.5331 15.8865 29.5843 15.882 29.6867C15.8642 29.9695 15.7596 30.2301 15.6816 30.495C15.646 30.6175 15.646 30.7444 15.6037 30.8647C15.5413 31.0428 15.5013 31.2277 15.4389 31.4058C15.4055 31.5038 15.4144 31.604 15.3855 31.7042C15.3476 31.8289 15.3008 31.9536 15.2674 32.0805C15.2207 32.2631 15.1873 32.4502 15.1383 32.6328C15.096 32.7887 15.018 32.9401 14.998 33.0982C14.978 33.2652 14.9201 33.4211 14.8911 33.5836C14.8755 33.6705 14.8377 33.6994 14.7464 33.6749C13.9759 33.4523 13.2054 33.234 12.4372 33.0136C12.3169 32.9802 12.3169 32.9735 12.3525 32.831C12.5841 31.9247 12.8157 31.0206 13.0473 30.1143C13.1542 29.7001 13.2611 29.2859 13.3657 28.8717C13.4058 28.7114 13.4058 28.7091 13.2433 28.6602C12.7935 28.5265 12.3303 28.4531 11.8805 28.3306C10.7359 28.0188 9.59575 27.7004 8.4534 27.3842C8.31979 27.3463 8.31979 27.3419 8.37323 27.2194C8.64713 26.5914 8.92325 25.9635 9.19715 25.3377C9.30849 25.0861 9.41761 24.8323 9.52895 24.5806C9.58907 24.4448 9.5913 24.4426 9.74272 24.4804C10.2838 24.614 10.825 24.7499 11.3661 24.8857C11.5732 24.9369 11.7803 24.9659 11.9918 24.9013C12.3102 24.8033 12.5262 24.6029 12.6064 24.2756C12.8135 23.4383 13.0139 22.5988 13.2188 21.7593C13.4526 20.8017 13.6886 19.8442 13.9247 18.8889C14.2142 17.7087 14.5037 16.5285 14.7931 15.3483C14.9891 14.5466 15.1828 13.7472 15.3788 12.9455C15.5035 12.4378 15.234 11.8232 14.7686 11.5582C14.6395 11.4847 14.5014 11.4335 14.3589 11.3979C13.7688 11.2509 13.1765 11.1062 12.5864 10.9614C12.5619 10.9548 12.5374 10.9436 12.5129 10.9414C12.426 10.928 12.4171 10.8857 12.4394 10.8056C12.5107 10.5539 12.5752 10.2978 12.642 10.044C12.7957 9.46725 12.9516 8.89273 13.0985 8.31598C13.1208 8.23137 13.1631 8.22469 13.2188 8.23805C13.6909 8.33603 14.1674 8.4251 14.6194 8.60324C14.6773 8.62551 14.7441 8.63887 14.7976 8.64555C15.2452 8.699 15.666 8.85933 16.1025 8.95731C16.2584 8.99294 16.4031 9.06865 16.5635 9.09314C16.7015 9.11541 16.8396 9.13323 16.9732 9.16885C17.3673 9.27351 17.7637 9.35591 18.1623 9.43607C18.3115 9.46725 18.316 9.46057 18.3538 9.31137C18.503 8.74131 18.6477 8.17124 18.7969 7.60118C18.9306 7.08678 19.0686 6.57462 19.2045 6.06022C19.2624 5.83754 19.3225 5.61486 19.3781 5.39218C19.396 5.32092 19.4316 5.29197 19.5006 5.31424C19.73 5.38995 19.9749 5.40999 20.1954 5.52133C20.2689 5.55919 20.3579 5.53247 20.4381 5.55474C20.7031 5.63045 20.9703 5.69725 21.2375 5.76628C21.4045 5.81082 21.5604 5.89767 21.7408 5.89767C21.8321 5.89767 21.861 5.96002 21.8276 6.04463C21.7831 6.16266 21.7697 6.28958 21.7096 6.40538C21.6673 6.49 21.6829 6.60357 21.6517 6.70155C21.5025 7.18922 21.3956 7.6858 21.2598 8.17792C21.124 8.67227 20.997 9.16885 20.8612 9.66321C20.8434 9.73001 20.83 9.79682 20.7922 9.85917C20.732 9.95937 20.7677 10.0173 20.8835 10.0418C21.4914 10.1709 22.0993 10.3001 22.7072 10.4292C22.8587 10.4604 22.8587 10.4604 22.8965 10.3045C23.0546 9.65207 23.2149 8.99962 23.373 8.34716C23.5156 7.75706 23.6581 7.16695 23.8006 6.57462C23.8028 6.56126 23.8073 6.55012 23.8117 6.53899C23.8585 6.38311 23.8585 6.38088 24.0211 6.42765C24.7604 6.63697 25.4997 6.84851 26.239 7.06006C26.3993 7.10682 26.406 7.11128 26.357 7.27161C26.2902 7.48984 26.2456 7.71474 26.1677 7.93075C26.1187 8.06658 26.112 8.22914 26.0675 8.37611C25.9762 8.67896 25.925 8.99294 25.8292 9.29578C25.7246 9.62312 25.6733 9.96383 25.5687 10.2889C25.4774 10.5784 25.4262 10.8768 25.3371 11.1663C25.2992 11.2866 25.3171 11.3155 25.4351 11.3556C25.542 11.3934 25.6489 11.4313 25.758 11.458C26.2523 11.5783 26.7199 11.7765 27.1698 12.0036C27.5127 12.1751 27.8668 12.3242 28.1941 12.5247C28.7441 12.8609 29.2607 13.2372 29.6927 13.7182C30.0134 14.0745 30.2762 14.4664 30.4499 14.914C30.6926 15.5309 30.7728 16.1722 30.7015 16.8313C30.6414 17.388 30.5545 17.9403 30.3385 18.4591C30.1492 18.9134 29.9243 19.3476 29.5836 19.7128C29.0626 20.2695 28.4301 20.6347 27.6975 20.8329C27.624 20.8529 27.5506 20.8752 27.4771 20.8997C27.4726 20.8997 27.4682 20.9086 27.4615 20.9175H27.4682ZM21.38 27.6358C21.694 27.6514 22.008 27.6358 22.322 27.6002C22.725 27.5557 23.1147 27.4599 23.4888 27.2929C24.6267 26.7852 25.0432 25.4869 24.7604 24.4737C24.6312 24.0083 24.3462 23.6387 23.9921 23.3203C23.6269 22.9907 23.2105 22.7391 22.7696 22.5253C22.0459 22.1734 21.2843 21.9263 20.5094 21.7192C20.1085 21.6123 19.7033 21.5188 19.2958 21.4319C18.9706 21.3607 18.6455 21.2872 18.3249 21.2026C18.2536 21.1847 18.218 21.1981 18.2002 21.2694C18.1244 21.5767 18.0554 21.8884 17.9619 22.1913C17.924 22.316 17.904 22.4473 17.8817 22.5765C17.8082 22.9885 17.6568 23.3782 17.5856 23.7923C17.5188 24.1798 17.3918 24.5561 17.3094 24.9414C17.2404 25.2643 17.1536 25.5827 17.0645 25.9011C17.0155 26.077 16.9865 26.2596 16.9487 26.44C16.9287 26.5335 16.9042 26.6271 16.8797 26.7206C16.8641 26.7829 16.8863 26.8186 16.9509 26.8297C17.1447 26.8631 17.3339 26.9143 17.5165 26.9811C17.6724 27.0368 17.8327 27.0435 17.9908 27.0813C18.3271 27.1593 18.6633 27.2417 19.0018 27.3152C19.7857 27.4844 20.5784 27.6069 21.38 27.638V27.6358ZM22.7139 19.3254C23.1971 19.3231 23.6603 19.2764 24.1101 19.1338C25.709 18.6306 26.0363 16.7445 25.2057 15.689C25.0008 15.4307 24.7626 15.208 24.4954 15.0187C24.0812 14.7248 23.6225 14.511 23.1526 14.3217C22.2329 13.9543 21.2643 13.7561 20.3179 13.4889C20.2399 13.4666 20.2132 13.5 20.1976 13.5646C20.1353 13.8095 20.084 14.0589 19.9994 14.2972C19.9371 14.4687 19.9304 14.6513 19.8881 14.8272C19.7166 15.4997 19.5541 16.1744 19.3759 16.8447C19.3492 16.9493 19.347 17.054 19.318 17.1587C19.2 17.604 19.0953 18.0538 18.9862 18.5014C18.955 18.6328 18.9573 18.6373 19.0864 18.6707C19.5207 18.782 19.9549 18.8978 20.3891 19.0025C21.1574 19.1828 21.9345 19.312 22.7139 19.3254Z" fill="white"/>
<path d="M21.3841 27.636C20.5802 27.6049 19.7897 27.4824 19.0058 27.3131C18.6674 27.2397 18.3311 27.1573 17.9949 27.0793C17.8368 27.0437 17.6764 27.037 17.5206 26.9791C17.338 26.9123 17.1487 26.8611 16.9549 26.8277C16.8904 26.8166 16.8681 26.7809 16.8837 26.7186C16.9082 26.6251 16.9327 26.5315 16.9527 26.438C16.9928 26.2576 17.0195 26.0773 17.0685 25.8991C17.1576 25.5807 17.2422 25.2622 17.3135 24.9394C17.3958 24.5541 17.5228 24.1778 17.5896 23.7903C17.6608 23.3784 17.8123 22.9864 17.8857 22.5745C17.908 22.4453 17.9281 22.3139 17.9659 22.1892C18.0594 21.8842 18.1262 21.5746 18.2042 21.2673C18.222 21.1939 18.2576 21.1805 18.3289 21.2005C18.6495 21.2852 18.9747 21.3586 19.2998 21.4299C19.7073 21.519 20.1126 21.6103 20.5134 21.7172C21.2883 21.9243 22.0499 22.1692 22.7736 22.5233C23.2123 22.737 23.6309 22.9887 23.9961 23.3182C24.3502 23.6367 24.6352 24.0063 24.7644 24.4717C25.0472 25.4849 24.6308 26.7832 23.4929 27.2909C23.1188 27.4579 22.7291 27.5514 22.326 27.5982C22.0143 27.6338 21.7003 27.6494 21.3841 27.6338V27.636Z" fill="#FF9416"/>
<path d="M22.7169 19.3232C21.9376 19.3099 21.1604 19.1807 20.3922 19.0003C19.9557 18.8979 19.5215 18.7821 19.0895 18.6685C18.9603 18.6351 18.9581 18.6307 18.9893 18.4993C19.0984 18.0517 19.203 17.6019 19.3211 17.1565C19.3478 17.0519 19.35 16.9472 19.379 16.8426C19.5571 16.1723 19.7219 15.4976 19.8911 14.8251C19.9357 14.6491 19.9423 14.4665 20.0025 14.2951C20.0871 14.0568 20.1383 13.8074 20.2006 13.5625C20.2162 13.4979 20.243 13.4645 20.3209 13.4867C21.2695 13.754 22.2382 13.9522 23.1556 14.3196C23.6255 14.5066 24.082 14.7204 24.4984 15.0166C24.7656 15.2058 25.0039 15.4285 25.2087 15.6868C26.0394 16.7424 25.712 18.6285 24.1132 19.1317C23.6611 19.2742 23.1979 19.321 22.7169 19.3232Z" fill="#FF9416"/>
<path d="M19.8903 0.5C20.9568 0.504453 22.0167 0.589063 23.0699 0.762736C25.4835 1.15907 27.7613 1.9495 29.8765 3.18303C34.1849 5.69238 37.1775 9.30835 38.8674 13.9998C39.197 14.9104 39.4419 15.8478 39.6245 16.7986C39.905 18.257 40.0275 19.7287 39.9763 21.2139C39.8805 23.9615 39.246 26.5777 38.0659 29.0603C37.1686 30.944 36.0152 32.654 34.5813 34.1703C31.7624 37.1495 28.3513 39.1044 24.3524 40.0218C23.2725 40.2689 22.177 40.407 21.0682 40.4693C20.1107 40.5228 19.1578 40.5005 18.2048 40.4114C16.7642 40.2756 15.3548 39.9839 13.9743 39.5475C10.9172 38.5812 8.44791 36.9981 6.58426 35.3081C6.22133 34.9786 5.8673 34.6357 5.53109 34.2794C2.95939 31.5563 1.26496 28.3656 0.456714 24.7051C0.107141 23.1109 -0.0398131 21.4966 0.00917164 19.869C0.033664 19.0096 0.120501 18.1546 0.251869 17.304C0.48566 15.8011 0.890897 14.3449 1.46313 12.9377C2.31146 10.8491 3.48486 8.95878 4.9789 7.2688C5.17038 7.05282 5.36632 6.8413 5.56671 6.632C6.66887 5.47863 7.90017 4.48335 9.2428 3.62166C9.89741 3.20307 10.5787 2.83568 11.2757 2.49279C11.5963 2.3347 11.9214 2.18329 12.2509 2.04747C13.6893 1.45075 15.1722 1.00989 16.713 0.762736C17.7661 0.593516 18.8238 0.504453 19.8903 0.5ZM27.1044 20.9155C27.1044 20.9155 27.1156 20.8977 27.12 20.8977C27.1935 20.8754 27.267 20.8509 27.3404 20.8309C28.073 20.6327 28.7076 20.2676 29.2263 19.7109C29.567 19.3458 29.7919 18.9116 29.9812 18.4574C30.1971 17.9386 30.284 17.3864 30.3441 16.8297C30.4153 16.1684 30.333 15.5294 30.0925 14.9127C29.9166 14.4651 29.6561 14.0732 29.3354 13.717C28.9013 13.236 28.3869 12.8597 27.837 12.5235C27.5074 12.3231 27.1534 12.1762 26.8127 12.0025C26.363 11.7754 25.8954 11.575 25.4011 11.457C25.292 11.4303 25.1851 11.3924 25.0782 11.3546C24.9624 11.3123 24.9446 11.2856 24.9803 11.1653C25.0693 10.8759 25.1205 10.5775 25.2118 10.288C25.3165 9.96074 25.3677 9.6223 25.4723 9.29499C25.5681 8.9944 25.6215 8.68045 25.7106 8.37541C25.7529 8.22846 25.7618 8.06592 25.8108 7.9301C25.8887 7.71189 25.9332 7.48923 26 7.27103C26.049 7.11071 26.0423 7.10626 25.882 7.0595C25.1428 6.84798 24.4036 6.63868 23.6644 6.42716C23.5018 6.3804 23.5018 6.38262 23.4551 6.53848C23.4506 6.55184 23.4461 6.56298 23.4439 6.57411C23.3014 7.16415 23.1589 7.7542 23.0164 8.34647C22.8583 8.99885 22.698 9.65124 22.5399 10.3036C22.5021 10.4595 22.5021 10.4595 22.3507 10.4283C21.7428 10.2992 21.135 10.17 20.5271 10.0409C20.4113 10.0164 20.3757 9.95851 20.4358 9.85831C20.4737 9.79374 20.487 9.72695 20.5048 9.66238C20.6407 9.16807 20.7676 8.67155 20.9034 8.17725C21.0392 7.6874 21.1461 7.18865 21.2953 6.70102C21.3264 6.60306 21.3109 6.4895 21.3532 6.40489C21.4133 6.28688 21.4266 6.16219 21.4712 6.04418C21.5023 5.95957 21.4756 5.89723 21.3843 5.89723C21.204 5.89723 21.0481 5.81039 20.8811 5.76586C20.6139 5.69684 20.3468 5.63004 20.0818 5.55434C19.9994 5.53207 19.9126 5.55656 19.8391 5.52094C19.6187 5.40961 19.3737 5.38957 19.1444 5.31387C19.0754 5.2916 19.0397 5.31832 19.0219 5.3918C18.9663 5.61445 18.9084 5.83711 18.8483 6.05977C18.7124 6.57411 18.5744 7.08622 18.4408 7.60056C18.2916 8.17057 18.1469 8.74057 17.9977 9.31058C17.9576 9.45976 17.9554 9.46421 17.8062 9.43526C17.4077 9.35511 17.0091 9.27272 16.6172 9.16807C16.4836 9.13245 16.3434 9.11464 16.2075 9.09237C16.0472 9.06788 15.9025 8.99218 15.7466 8.95655C15.3102 8.85858 14.8894 8.70049 14.4419 8.64483C14.3884 8.63815 14.3216 8.62479 14.2637 8.60252C13.8117 8.4244 13.3352 8.33533 12.8632 8.23736C12.8076 8.22623 12.763 8.23291 12.743 8.31529C12.596 8.89198 12.4402 9.46866 12.2865 10.0431C12.2197 10.297 12.1552 10.553 12.0839 10.8046C12.0616 10.8825 12.0706 10.9271 12.1574 10.9404C12.1819 10.9449 12.2064 10.9538 12.2309 10.9605C12.8209 11.1052 13.4132 11.2499 14.0032 11.3969C14.1457 11.4325 14.2838 11.4837 14.4129 11.5572C14.8783 11.8222 15.1455 12.4367 15.023 12.9444C14.8271 13.7459 14.6333 14.5453 14.4374 15.3468C14.148 16.5269 13.8585 17.707 13.569 18.8871C13.3352 19.8445 13.097 20.7997 12.8632 21.7572C12.6584 22.5944 12.458 23.4338 12.2509 24.2732C12.1707 24.6005 11.9548 24.8009 11.6364 24.8989C11.4248 24.9634 11.2178 24.9345 11.0107 24.8833C10.4696 24.7475 9.92858 24.6116 9.38752 24.478C9.23612 24.4402 9.23389 24.4424 9.17377 24.5782C9.06244 24.8298 8.95334 25.0814 8.84201 25.3353C8.56814 25.9632 8.29205 26.5888 8.01818 27.2167C7.96474 27.3414 7.96474 27.3459 8.09834 27.3815C9.24057 27.6977 10.3828 28.0161 11.525 28.3278C11.977 28.4503 12.4402 28.5237 12.8877 28.6573C13.048 28.7041 13.0502 28.7085 13.0102 28.8689C12.9055 29.283 12.7986 29.6971 12.6918 30.1113C12.4602 31.0175 12.2286 31.9215 11.9971 32.8277C11.9615 32.9702 11.9614 32.9747 12.0817 33.0103C12.8521 33.2307 13.6225 33.4489 14.3906 33.6716C14.4819 33.6983 14.5198 33.6671 14.5354 33.5803C14.5643 33.4178 14.6222 33.2619 14.6423 33.0949C14.6623 32.9368 14.7402 32.7876 14.7825 32.6295C14.8315 32.447 14.8649 32.2599 14.9117 32.0774C14.9451 31.9504 14.9918 31.8258 15.0297 31.7011C15.0608 31.6031 15.0497 31.5007 15.0831 31.4027C15.1432 31.2246 15.1855 31.0398 15.2479 30.8616C15.2902 30.7414 15.2902 30.6145 15.3258 30.492C15.4037 30.2248 15.5084 29.9666 15.5262 29.6838C15.5329 29.5791 15.6242 29.5279 15.7266 29.5435C15.809 29.5546 15.8914 29.568 15.9737 29.5814C16.5037 29.6726 17.0225 29.8107 17.5435 29.9465C17.6793 29.9821 17.6815 29.9799 17.6437 30.1269C17.5324 30.561 17.4188 30.993 17.3052 31.4272C17.0826 32.2822 16.8577 33.135 16.635 33.99C16.5927 34.1548 16.5927 34.1592 16.7464 34.2082C17.4589 34.4375 18.1714 34.6646 18.8839 34.8895C19.1399 34.9697 19.1422 34.9674 19.2112 34.7181C19.5674 33.4333 19.9237 32.1486 20.28 30.8661C20.3245 30.7058 20.3267 30.7058 20.4893 30.7325C21.3242 30.8728 22.1636 30.973 23.0097 31.013C23.8514 31.0509 24.6886 31.013 25.5146 30.8327C27.0599 30.4943 28.2177 29.6415 28.9525 28.232C29.2842 27.593 29.5203 26.9184 29.6895 26.217C29.8097 25.7205 29.8832 25.2239 29.8721 24.7163C29.852 23.7767 29.5358 22.9484 28.9035 22.247C28.4426 21.7349 27.8837 21.3519 27.2825 21.0246C27.2224 20.9934 27.1534 20.9756 27.1111 20.9155H27.1044Z" fill="#FF9416"/>
</svg>
