<svg width="26" height="26" viewBox="0 0 26 26" fill="none" xmlns="http://www.w3.org/2000/svg">
<path fill-rule="evenodd" clip-rule="evenodd" d="M13 25.5C19.9036 25.5 25.5 19.9036 25.5 13C25.5 6.09644 19.9036 0.5 13 0.5C6.09644 0.5 0.5 6.09644 0.5 13C0.5 19.9036 6.09644 25.5 13 25.5ZM13.5224 3.8557H12.4619V5.16808H13.5224V3.8557ZM8.96065 4.98272L9.89071 4.47367L10.7434 6.03154L9.8133 6.54058L8.96065 4.98272ZM15.2396 6.0366L16.0923 4.47873L17.0224 4.98778L16.1697 6.54564L15.2396 6.0366ZM18.1178 7.06057L19.0457 6.13272L19.7954 6.8825L18.8676 7.81036L18.1178 7.06057ZM6.99858 6.13148L6.2488 6.88126L7.17666 7.80911L7.92644 7.05933L6.99858 6.13148ZM6.20481 11.0436H11.3306V12.3752H6.20481V11.0436ZM19.7794 11.0436H14.6535V12.3752H19.7794V11.0436ZM12.3911 11.0436H13.5931V12.3752H12.3911V11.0436ZM13.5931 13.4357H12.3911V21.9551H13.5931V13.4357ZM14.6535 13.4357H19.0699V21.9551H14.6535V13.4357ZM16.1697 8.83816C16.1697 9.2881 15.9824 9.69403 15.6819 9.98309H10.3067C10.0062 9.69611 9.81451 9.29238 9.8144 8.83816C9.81376 7.98664 10.5119 7.24951 11.4032 7.24933C12.2807 7.24933 12.992 7.96065 12.992 8.83816C12.992 7.96065 13.7034 7.24933 14.5809 7.24933C15.4324 7.24873 16.1696 7.94683 16.1697 8.83816ZM6.91429 13.4357H11.3306V21.9551H6.91429V13.4357Z" fill="url(#paint0_linear_146_2225)"/>
<defs>
<linearGradient id="paint0_linear_146_2225" x1="6.45588" y1="0.499997" x2="21.4222" y2="1.39201" gradientUnits="userSpaceOnUse">
<stop stop-color="#DDC081"/>
<stop offset="1" stop-color="#5F976E"/>
</linearGradient>
</defs>
</svg>
