<svg width="13" height="15" viewBox="0 0 13 15" fill="none" xmlns="http://www.w3.org/2000/svg">
<path d="M12.2433 5.625H11.2297V4.37499C11.2297 1.9626 9.10805 0 6.50003 0C3.892 0 1.77031 1.9626 1.77031 4.37499V5.625H0.756794C0.570054 5.625 0.418945 5.76478 0.418945 5.93751V13.75C0.418945 14.4394 1.02499 15 1.77031 15H11.2298C11.9751 15 12.5811 14.4394 12.5811 13.75V5.93751C12.5811 5.76478 12.43 5.625 12.2433 5.625ZM7.51158 12.153C7.52212 12.2412 7.49147 12.3297 7.42746 12.3959C7.36345 12.4622 7.27172 12.5 7.17572 12.5H5.82436C5.72836 12.5 5.63664 12.4622 5.57263 12.3959C5.50862 12.3297 5.47793 12.2412 5.48851 12.153L5.70163 10.3803C5.35555 10.1474 5.1487 9.77906 5.1487 9.375C5.1487 8.68562 5.75475 8.12499 6.50006 8.12499C7.24537 8.12499 7.85142 8.68559 7.85142 9.375C7.85142 9.77906 7.64457 10.1474 7.29849 10.3803L7.51158 12.153ZM9.20272 5.625H3.79733V4.37499C3.79733 2.99651 5.00978 1.875 6.50003 1.875C7.99027 1.875 9.20272 2.99651 9.20272 4.37499V5.625Z" fill="black"/>
</svg>
