<svg width="37" height="22" viewBox="0 0 37 22" fill="none" xmlns="http://www.w3.org/2000/svg">
<path d="M11.4414 0C10.8547 0.00244962 10.2729 0.0502171 9.69355 0.144527C8.84721 0.281706 8.03027 0.524218 7.23904 0.851242C7.05777 0.925955 6.88017 1.00924 6.70257 1.0962C6.31921 1.28482 5.94442 1.48692 5.58432 1.71718C4.84576 2.18996 4.16845 2.73867 3.56217 3.37312C3.45193 3.48825 3.34415 3.60461 3.23882 3.72342C2.4182 4.65305 1.7715 5.69291 1.30484 6.84178C0.990069 7.61586 0.767154 8.41688 0.638549 9.24363C0.565061 9.7115 0.518518 10.1818 0.505045 10.6546C0.478099 11.5512 0.558937 12.4379 0.751232 13.3137C1.19584 15.3272 2.12792 17.0812 3.54257 18.5803C3.72752 18.7763 3.92103 18.9649 4.1219 19.1462C5.14707 20.0758 6.50538 20.9467 8.18704 21.4782C8.94642 21.7183 9.72173 21.8787 10.5142 21.9535C11.0384 22.0025 11.5626 22.0147 12.0893 21.9853C12.698 21.9522 13.3006 21.8763 13.8959 21.7391C16.0956 21.2333 17.972 20.1591 19.5226 18.5203C20.3114 17.6862 20.9459 16.7456 21.4395 15.7094C22.0898 14.3437 22.4389 12.9046 22.4903 11.3932C22.5185 10.5762 22.4512 9.76662 22.2968 8.96437C22.1964 8.44138 22.0604 7.92573 21.8804 7.42479C20.9508 4.84412 19.3046 2.85503 16.9346 1.47467C15.7723 0.79735 14.5193 0.362543 13.1904 0.143303C12.611 0.0489923 12.028 0.00244962 11.4414 0Z" fill="black"/>
<path d="M15.4083 11.2303C15.4316 11.2633 15.4708 11.2731 15.5026 11.2903C15.8333 11.4703 16.1407 11.681 16.3943 11.9627C16.7421 12.3485 16.916 12.8029 16.9271 13.321C16.9332 13.6003 16.8928 13.8734 16.8266 14.1465C16.7335 14.5323 16.6049 14.9035 16.4212 15.255C16.017 16.0303 15.3801 16.4994 14.5301 16.6856C14.0757 16.7848 13.6152 16.8056 13.1522 16.7848C12.6868 16.7627 12.225 16.7088 11.7657 16.6304C11.6763 16.6157 11.6751 16.6157 11.6506 16.7039C11.4546 17.4106 11.2587 18.1174 11.0627 18.8228C11.0247 18.96 11.0247 18.9625 10.8826 18.9172C10.4907 18.7934 10.0988 18.6685 9.70682 18.5424C9.62231 18.5154 9.62231 18.513 9.64558 18.4223C9.76806 17.952 9.89177 17.4829 10.0142 17.0126C10.0767 16.7737 10.138 16.5361 10.2004 16.2973C10.2212 16.2164 10.2212 16.2177 10.1453 16.1981C9.85992 16.1234 9.57331 16.0474 9.28181 15.9972C9.23649 15.9899 9.19117 15.9825 9.14586 15.9764C9.08829 15.969 9.03807 15.9972 9.03562 16.0536C9.02583 16.2091 8.96826 16.3524 8.92539 16.4982C8.90579 16.5655 8.9058 16.6353 8.88252 16.7015C8.84823 16.7995 8.82618 16.9011 8.79189 16.9991C8.77351 17.053 8.77841 17.1081 8.76249 17.1632C8.74167 17.2318 8.71595 17.3004 8.69758 17.3702C8.67186 17.4707 8.65348 17.5735 8.62654 17.674C8.60327 17.7597 8.5604 17.843 8.54938 17.93C8.53835 18.0218 8.50651 18.1076 8.49058 18.197C8.48201 18.2447 8.46119 18.2607 8.41097 18.2472C7.98719 18.1247 7.56341 18.0047 7.14085 17.8834C7.07471 17.865 7.07471 17.8614 7.0943 17.783C7.22168 17.2845 7.34906 16.7872 7.47644 16.2887C7.53523 16.0609 7.59403 15.8331 7.65159 15.6053C7.67364 15.5171 7.67364 15.5159 7.58423 15.4889C7.33682 15.4154 7.08206 15.375 6.83464 15.3076C6.20509 15.1362 5.57799 14.961 4.94967 14.7871C4.87618 14.7663 4.87618 14.7638 4.90557 14.6965C5.05622 14.3511 5.2081 14.0057 5.35875 13.6615C5.41999 13.5231 5.48001 13.3835 5.54125 13.2451C5.57432 13.1704 5.57554 13.1691 5.65883 13.1899C5.95646 13.2634 6.25409 13.3382 6.55171 13.4129C6.66562 13.441 6.77953 13.457 6.89588 13.4214C7.07103 13.3675 7.18984 13.2573 7.23393 13.0773C7.34784 12.6167 7.45807 12.155 7.57075 11.6932C7.69936 11.1666 7.82919 10.6399 7.95902 10.1145C8.11824 9.46531 8.27747 8.81616 8.43669 8.16701C8.54448 7.72608 8.65103 7.28638 8.75882 6.84544C8.82741 6.56619 8.67921 6.22814 8.42322 6.08239C8.35218 6.04197 8.27624 6.0138 8.19786 5.9942C7.87328 5.91337 7.54748 5.83375 7.22291 5.75414C7.20944 5.75047 7.19596 5.74434 7.18249 5.74312C7.13472 5.73577 7.12982 5.7125 7.14207 5.6684C7.18126 5.53 7.21678 5.38915 7.25353 5.24952C7.33804 4.93229 7.42378 4.61629 7.50461 4.29907C7.51686 4.25253 7.54013 4.24885 7.57075 4.2562C7.83041 4.31009 8.09252 4.35908 8.34116 4.45707C8.373 4.46932 8.40975 4.47667 8.43914 4.48034C8.68533 4.50974 8.91682 4.59792 9.15688 4.65181C9.24262 4.67141 9.32223 4.71305 9.41042 4.72653C9.48635 4.73877 9.56229 4.74857 9.63578 4.76817C9.85257 4.82574 10.0706 4.87105 10.2898 4.91515C10.3719 4.93229 10.3743 4.92862 10.3952 4.84656C10.4772 4.53301 10.5568 4.21946 10.6389 3.90591C10.7124 3.62297 10.7883 3.34127 10.863 3.05834C10.8949 2.93586 10.928 2.81338 10.9586 2.6909C10.9684 2.6517 10.988 2.63578 11.0259 2.64803C11.1521 2.68967 11.2868 2.70069 11.4081 2.76193C11.4485 2.78276 11.4975 2.76806 11.5416 2.78031C11.6873 2.82195 11.8343 2.85869 11.9813 2.89666C12.0731 2.92116 12.1589 2.96893 12.2581 2.96893C12.3083 2.96893 12.3242 3.00322 12.3059 3.04976C12.2814 3.11468 12.274 3.18449 12.2409 3.24818C12.2177 3.29473 12.2262 3.35719 12.2091 3.41108C12.127 3.67932 12.0682 3.95245 11.9935 4.22313C11.9188 4.49504 11.849 4.76817 11.7743 5.04008C11.7645 5.07682 11.7571 5.11357 11.7363 5.14786C11.7033 5.20298 11.7229 5.23482 11.7865 5.24829C12.1209 5.31933 12.4553 5.39037 12.7897 5.46141C12.8729 5.47856 12.8729 5.47856 12.8938 5.39282C12.9807 5.03395 13.0689 4.67509 13.1559 4.31622C13.2343 3.99164 13.3127 3.66707 13.391 3.34127C13.3923 3.33392 13.3947 3.3278 13.3972 3.32167C13.4229 3.23594 13.4229 3.23471 13.5123 3.26043C13.9189 3.37556 14.3256 3.49192 14.7322 3.60828C14.8204 3.634 14.8241 3.63645 14.7971 3.72463C14.7604 3.84467 14.7359 3.96837 14.693 4.08718C14.6661 4.16189 14.6624 4.2513 14.6379 4.33214C14.5877 4.49871 14.5595 4.67141 14.5068 4.83798C14.4493 5.01803 14.4211 5.20543 14.3635 5.38425C14.3133 5.54347 14.2852 5.7076 14.2362 5.86682C14.2153 5.93296 14.2251 5.94888 14.2901 5.97093C14.3488 5.99175 14.4076 6.01257 14.4676 6.02727C14.7396 6.09341 14.9968 6.20242 15.2442 6.32735C15.4328 6.42166 15.6275 6.50372 15.8076 6.61396C16.1101 6.7989 16.3943 7.00589 16.6319 7.27045C16.8083 7.46642 16.9528 7.68199 17.0483 7.92818C17.1818 8.26745 17.2259 8.62019 17.1867 8.98273C17.1537 9.28894 17.1059 9.59269 16.9871 9.87807C16.883 10.1279 16.7593 10.3668 16.5719 10.5676C16.2853 10.8738 15.9374 11.0747 15.5345 11.1837C15.494 11.1947 15.4536 11.207 15.4132 11.2205C15.4108 11.2205 15.4083 11.2254 15.4046 11.2303H15.4083ZM12.0597 14.9255C12.2324 14.9341 12.4051 14.9255 12.5778 14.9059C12.7995 14.8814 13.0138 14.8287 13.2196 14.7369C13.8454 14.4576 14.0745 13.7436 13.9189 13.1863C13.8479 12.9303 13.6911 12.727 13.4964 12.5518C13.2955 12.3706 13.0665 12.2322 12.824 12.1146C12.4259 11.921 12.007 11.7851 11.5808 11.6712C11.3603 11.6124 11.1374 11.561 10.9133 11.5132C10.7344 11.474 10.5556 11.4336 10.3792 11.387C10.34 11.3772 10.3204 11.3846 10.3106 11.4238C10.269 11.5928 10.231 11.7643 10.1796 11.9308C10.1588 11.9994 10.1477 12.0717 10.1355 12.1427C10.0951 12.3693 10.0118 12.5837 9.9726 12.8115C9.93586 13.0246 9.86604 13.2316 9.82073 13.4435C9.78276 13.6211 9.73499 13.7962 9.686 13.9714C9.65905 14.0681 9.64313 14.1686 9.62231 14.2678C9.61128 14.3192 9.59781 14.3707 9.58434 14.4221C9.57576 14.4564 9.58801 14.476 9.62353 14.4821C9.73009 14.5005 9.8342 14.5287 9.93463 14.5654C10.0204 14.596 10.1086 14.5997 10.1955 14.6205C10.3805 14.6634 10.5654 14.7087 10.7516 14.7491C11.1827 14.8422 11.6187 14.9096 12.0597 14.9267V14.9255ZM12.7933 10.3545C13.0591 10.3533 13.3139 10.3276 13.5613 10.2492C14.4407 9.97238 14.6207 8.93497 14.1639 8.35441C14.0512 8.21233 13.9202 8.08985 13.7732 7.98574C13.5454 7.82407 13.2931 7.70648 13.0346 7.60238C12.5288 7.40028 11.996 7.29128 11.4754 7.1443C11.4326 7.13205 11.4179 7.15042 11.4093 7.18594C11.375 7.32067 11.3468 7.45785 11.3003 7.5889C11.266 7.68321 11.2623 7.78365 11.2391 7.88041C11.1447 8.2503 11.0553 8.62142 10.9573 8.99008C10.9427 9.04765 10.9414 9.10522 10.9255 9.16278C10.8606 9.40774 10.803 9.65515 10.743 9.90134C10.7259 9.9736 10.7271 9.97605 10.7981 9.99443C11.037 10.0557 11.2758 10.1194 11.5146 10.1769C11.9372 10.2761 12.3647 10.3472 12.7933 10.3545Z" fill="white"/>
<path d="M12.061 14.9255C11.6188 14.9083 11.184 14.841 10.7529 14.7479C10.5667 14.7075 10.3818 14.6621 10.1968 14.6193C10.1099 14.5997 10.0217 14.596 9.93593 14.5642C9.8355 14.5274 9.73139 14.4992 9.62483 14.4809C9.58931 14.4748 9.57706 14.4552 9.58563 14.4209C9.59911 14.3694 9.61258 14.318 9.6236 14.2665C9.64565 14.1673 9.66035 14.0681 9.68729 13.9701C9.73629 13.795 9.78283 13.6198 9.82202 13.4422C9.86734 13.2303 9.93715 13.0234 9.9739 12.8102C10.0131 12.5836 10.0964 12.3681 10.1368 12.1415C10.149 12.0705 10.1601 11.9982 10.1809 11.9296C10.2323 11.7618 10.2691 11.5916 10.3119 11.4225C10.3217 11.3821 10.3413 11.3748 10.3805 11.3858C10.5569 11.4323 10.7357 11.4727 10.9146 11.5119C11.1387 11.5609 11.3616 11.6112 11.5821 11.6699C12.0083 11.7838 12.4272 11.9186 12.8253 12.1133C13.0665 12.2309 13.2968 12.3693 13.4977 12.5506C13.6924 12.7257 13.8492 12.929 13.9202 13.185C14.0758 13.7423 13.8467 14.4564 13.2209 14.7356C13.0151 14.8275 12.8008 14.8789 12.5791 14.9047C12.4076 14.9243 12.2349 14.9328 12.061 14.9243V14.9255Z" fill="#FF9416"/>
<path d="M12.7948 10.3533C12.3661 10.3459 11.9387 10.2749 11.5161 10.1757C11.2761 10.1194 11.0372 10.0557 10.7996 9.9932C10.7286 9.97483 10.7273 9.97238 10.7445 9.90012C10.8045 9.65393 10.8621 9.40652 10.927 9.16156C10.9417 9.10399 10.9429 9.04642 10.9588 8.98886C11.0568 8.62019 11.1474 8.24907 11.2405 7.87918C11.265 7.78242 11.2687 7.68199 11.3018 7.58768C11.3483 7.45662 11.3765 7.31944 11.4108 7.18472C11.4194 7.1492 11.4341 7.13082 11.4769 7.14307C11.9987 7.29005 12.5315 7.39906 13.0361 7.60115C13.2945 7.70403 13.5456 7.82162 13.7747 7.98452C13.9216 8.08862 14.0527 8.2111 14.1654 8.35318C14.6222 8.93374 14.4422 9.97115 13.5628 10.248C13.3141 10.3263 13.0594 10.3521 12.7948 10.3533Z" fill="#FF9416"/>
<path d="M11.4414 0C12.028 0.00244962 12.611 0.0489923 13.1904 0.144527C14.5181 0.362543 15.7711 0.79735 16.9346 1.47589C19.3046 2.85625 20.9508 4.84534 21.8804 7.42601C22.0617 7.92696 22.1964 8.4426 22.2968 8.96559C22.4512 9.76784 22.5185 10.5774 22.4903 11.3944C22.4377 12.9058 22.0886 14.345 21.4395 15.7106C20.9459 16.7468 20.3114 17.6875 19.5226 18.5215C17.972 20.1603 16.0956 21.2357 13.8959 21.7403C13.3018 21.8763 12.6992 21.9522 12.0893 21.9865C11.5626 22.0159 11.0384 22.0037 10.5142 21.9547C9.72173 21.88 8.94642 21.7195 8.18704 21.4795C6.50538 20.9479 5.14707 20.0771 4.1219 19.1474C3.92226 18.9662 3.72752 18.7775 3.54257 18.5816C2.12792 17.0836 1.19584 15.3285 0.751232 13.3149C0.558937 12.4379 0.478099 11.5499 0.505045 10.6546C0.518518 10.1818 0.566286 9.7115 0.638549 9.24363C0.767154 8.41688 0.990069 7.61586 1.30484 6.84178C1.7715 5.69291 2.41697 4.65305 3.23882 3.72342C3.34415 3.60461 3.45193 3.48825 3.56217 3.37312C4.16845 2.73867 4.84576 2.19118 5.58432 1.71718C5.94442 1.48692 6.31921 1.28482 6.70257 1.0962C6.87895 1.00924 7.05777 0.925955 7.23904 0.851242C8.03027 0.522993 8.84599 0.280481 9.69355 0.144527C10.2729 0.0514419 10.8547 0.00244962 11.4414 0ZM15.4097 11.2303C15.4097 11.2303 15.4159 11.2205 15.4183 11.2205C15.4587 11.2082 15.4991 11.1947 15.5396 11.1837C15.9425 11.0747 16.2916 10.8738 16.577 10.5676C16.7644 10.3668 16.8881 10.1279 16.9922 9.87808C17.111 9.5927 17.1588 9.28894 17.1918 8.98274C17.231 8.61897 17.1857 8.26745 17.0534 7.92818C16.9567 7.682 16.8134 7.46643 16.637 7.27046C16.3982 7.0059 16.1152 6.79891 15.8127 6.61396C15.6314 6.50373 15.4367 6.42289 15.2493 6.32736C15.0019 6.20243 14.7447 6.09219 14.4728 6.02728C14.4127 6.01258 14.3539 5.99176 14.2952 5.97094C14.2315 5.94767 14.2217 5.93297 14.2413 5.86683C14.2903 5.70761 14.3184 5.54348 14.3686 5.38426C14.4262 5.20421 14.4544 5.01804 14.5119 4.83799C14.5646 4.67264 14.594 4.49994 14.643 4.33215C14.6663 4.25131 14.6712 4.1619 14.6981 4.08718C14.741 3.96715 14.7655 3.84467 14.8022 3.72464C14.8292 3.63645 14.8255 3.63401 14.7373 3.60828C14.3307 3.49193 13.924 3.3768 13.5174 3.26044C13.428 3.23472 13.428 3.23594 13.4023 3.32168C13.3998 3.32903 13.3974 3.33515 13.3961 3.34128C13.3178 3.66585 13.2394 3.99042 13.161 4.31622C13.074 4.67509 12.9858 5.03396 12.8989 5.39283C12.8781 5.47857 12.8781 5.47857 12.7948 5.46142C12.4604 5.39038 12.126 5.31934 11.7917 5.2483C11.728 5.23483 11.7084 5.20298 11.7414 5.14787C11.7623 5.11235 11.7696 5.0756 11.7794 5.04008C11.8541 4.76818 11.9239 4.49505 11.9986 4.22314C12.0734 3.95368 12.1321 3.67932 12.2142 3.41109C12.2314 3.3572 12.2228 3.29473 12.2461 3.24819C12.2791 3.18328 12.2865 3.11469 12.311 3.04977C12.3281 3.00323 12.3134 2.96893 12.2632 2.96893C12.164 2.96893 12.0783 2.92117 11.9864 2.89667C11.8394 2.8587 11.6924 2.82196 11.5467 2.78031C11.5014 2.76807 11.4536 2.78154 11.4132 2.76194C11.2919 2.7007 11.1572 2.68968 11.031 2.64803C10.9931 2.63579 10.9735 2.65048 10.9637 2.6909C10.9331 2.81338 10.9012 2.93586 10.8681 3.05835C10.7934 3.34128 10.7175 3.62298 10.644 3.90591C10.5619 4.21946 10.4823 4.53301 10.4003 4.84657C10.3782 4.92863 10.377 4.93108 10.2949 4.91515C10.0757 4.87106 9.85645 4.82574 9.64089 4.76818C9.5674 4.74858 9.49024 4.73878 9.41552 4.72653C9.32734 4.71306 9.24772 4.67142 9.16199 4.65182C8.92193 4.59793 8.69044 4.51097 8.44425 4.48035C8.41486 4.47667 8.37811 4.46932 8.34627 4.45708C8.09763 4.35909 7.83552 4.3101 7.57586 4.25621C7.54524 4.25008 7.52075 4.25376 7.50972 4.29908C7.42888 4.6163 7.34315 4.93353 7.25864 5.24953C7.22189 5.38915 7.18637 5.53001 7.14718 5.66841C7.13493 5.71128 7.13983 5.73578 7.1876 5.74312C7.20107 5.74557 7.21454 5.75047 7.22802 5.75415C7.55259 5.83376 7.87839 5.91337 8.20296 5.99421C8.28135 6.01381 8.35729 6.04198 8.42833 6.0824C8.68431 6.22815 8.83129 6.5662 8.76393 6.84545C8.65614 7.28638 8.54958 7.72609 8.4418 8.16702C8.28258 8.81617 8.12335 9.46532 7.96413 10.1145C7.83552 10.6411 7.70447 11.1666 7.57586 11.6932C7.46318 12.1538 7.35295 12.6155 7.23904 13.0773C7.19495 13.2573 7.07614 13.3676 6.90099 13.4214C6.78464 13.457 6.67073 13.441 6.55682 13.4129C6.25919 13.3382 5.96156 13.2634 5.66394 13.19C5.58065 13.1691 5.57942 13.1704 5.54635 13.2451C5.48511 13.3835 5.4251 13.5219 5.36386 13.6615C5.21321 14.0069 5.06133 14.3511 4.91068 14.6965C4.88128 14.7651 4.88128 14.7675 4.95477 14.7871C5.5831 14.961 6.21143 15.1362 6.83975 15.3077C7.08839 15.375 7.34315 15.4154 7.58933 15.4889C7.67752 15.5146 7.67875 15.5171 7.6567 15.6053C7.59913 15.8331 7.54034 16.0609 7.48155 16.2887C7.35417 16.7872 7.22679 17.2845 7.09941 17.783C7.07981 17.8614 7.07981 17.8638 7.14595 17.8834C7.56974 18.0047 7.99352 18.1247 8.41608 18.2472C8.4663 18.2619 8.48712 18.2447 8.49569 18.197C8.51161 18.1076 8.54346 18.0218 8.55448 17.93C8.56551 17.843 8.60837 17.7609 8.63165 17.674C8.65859 17.5735 8.67696 17.4707 8.70269 17.3702C8.72106 17.3004 8.74678 17.2318 8.7676 17.1632C8.78475 17.1093 8.77862 17.053 8.797 16.9991C8.83006 16.9011 8.85334 16.7995 8.88763 16.7015C8.9109 16.6353 8.9109 16.5655 8.9305 16.4982C8.97337 16.3512 9.03093 16.2091 9.04073 16.0536C9.04441 15.996 9.09462 15.9678 9.15096 15.9764C9.19628 15.9825 9.2416 15.9899 9.28692 15.9972C9.57842 16.0474 9.8638 16.1234 10.1504 16.1981C10.2251 16.2177 10.2263 16.2165 10.2055 16.2973C10.1443 16.5361 10.0818 16.7737 10.0194 17.0126C9.89687 17.4829 9.77317 17.952 9.65069 18.4223C9.62741 18.513 9.62741 18.5154 9.71193 18.5424C10.1039 18.6685 10.4958 18.7935 10.8877 18.9172C11.0286 18.9613 11.0298 18.96 11.0678 18.8228C11.2638 18.1161 11.4597 17.4094 11.6557 16.7039C11.6802 16.6157 11.6814 16.6157 11.7708 16.6304C12.2301 16.7076 12.6919 16.7627 13.1573 16.7848C13.6203 16.8056 14.0808 16.7848 14.5352 16.6856C15.3852 16.4994 16.0221 16.0303 16.4263 15.255C16.6088 14.9035 16.7386 14.5323 16.8317 14.1465C16.8979 13.8734 16.9383 13.6003 16.9322 13.321C16.9211 12.8041 16.7472 12.3485 16.3994 11.9627C16.1458 11.681 15.8384 11.4703 15.5077 11.2903C15.4746 11.2731 15.4367 11.2633 15.4134 11.2303H15.4097Z" fill="#FF9416"/>
<ellipse cx="25" cy="11.001" rx="11.5" ry="11" fill="white"/>
<path fill-rule="evenodd" clip-rule="evenodd" d="M36.6 11.001C36.6 17.0761 31.4289 22.001 25.05 22.001C18.6711 22.001 13.5 17.0761 13.5 11.001C13.5 4.92584 18.6711 0.000976562 25.05 0.000976562C31.4289 0.000976562 36.6 4.92584 36.6 11.001ZM26.4374 11.9504V11.9518C29.2383 11.8335 31.3281 11.3695 31.3281 10.8126C31.3281 10.2571 29.2383 9.79166 26.4374 9.67273V11.4898C26.3559 11.4967 25.9191 11.531 25.0478 11.531C24.3216 11.531 23.7961 11.5015 23.6127 11.4891V9.67135C20.8061 9.79098 18.7112 10.2564 18.7112 10.8126C18.7112 11.3695 20.8061 11.8349 23.6127 11.9525V11.9504C23.7932 11.9587 24.3065 11.9793 25.0356 11.9793C25.9487 11.9793 26.358 11.9559 26.4374 11.9504ZM26.4374 7.85704V9.48366C29.6086 9.62323 31.9916 10.222 31.9916 10.9391C31.9916 11.6562 29.6086 12.255 26.4374 12.3939V17.6079H23.6127V12.3952C20.4365 12.2557 18.0478 11.6569 18.0478 10.9391C18.0478 10.2214 20.4365 9.62185 23.6127 9.48298V7.85704H19.7045V5.37654H30.3457V7.85704H26.4374Z" fill="#4EB098"/>
</svg>
