<svg width="38" height="22" viewBox="0 0 38 22" fill="none" xmlns="http://www.w3.org/2000/svg">
<path d="M9.45858 0C9.03183 0.00200413 8.60865 0.0410847 8.18725 0.118244C7.57164 0.230475 6.9774 0.428884 6.40188 0.696436C6.27002 0.757562 6.14084 0.825702 6.01166 0.896849C5.7328 1.05117 5.46019 1.21651 5.19826 1.4049C4.66104 1.79169 4.16837 2.24062 3.72737 2.75969C3.64719 2.85388 3.56879 2.94908 3.49217 3.04628C2.89527 3.80685 2.42487 4.6576 2.08543 5.59754C1.85647 6.23085 1.69432 6.8862 1.60078 7.56259C1.54732 7.94538 1.51347 8.33018 1.50367 8.71697C1.48407 9.45049 1.54287 10.176 1.68274 10.8925C2.00614 12.5399 2.68412 13.9748 3.71312 15.2013C3.84765 15.3617 3.98841 15.516 4.13452 15.6643C4.88021 16.4249 5.86822 17.1373 7.09144 17.5722C7.6438 17.7686 8.20774 17.8999 8.78416 17.961C9.16547 18.0011 9.54678 18.0111 9.92987 17.9871C10.3726 17.96 10.811 17.8979 11.244 17.7857C12.844 17.3718 14.2089 16.493 15.3368 15.1522C15.9105 14.4698 16.372 13.7002 16.7311 12.8525C17.2041 11.7352 17.458 10.5578 17.4954 9.32122C17.5159 8.65284 17.4669 7.99048 17.3547 7.33412C17.2816 6.90624 17.1827 6.48437 17.0518 6.07452C16.3756 3.96317 15.1782 2.33582 13.4543 1.20649C12.6088 0.652345 11.6974 0.296612 10.7308 0.117242C10.3094 0.0400826 9.88532 0.00200413 9.45858 0Z" fill="white"/>
<path d="M13.0613 9.18834C13.0804 9.2154 13.1124 9.22342 13.1385 9.23745C13.4091 9.38476 13.6606 9.55712 13.868 9.78761C14.1526 10.1033 14.2949 10.4751 14.3039 10.899C14.309 11.1274 14.2759 11.3509 14.2218 11.5744C14.1456 11.89 14.0404 12.1937 13.8901 12.4813C13.5594 13.1156 13.0383 13.4994 12.3428 13.6518C11.971 13.7329 11.5942 13.75 11.2154 13.7329C10.8346 13.7149 10.4568 13.6708 10.081 13.6067C10.0079 13.5946 10.0069 13.5946 9.98683 13.6668C9.82649 14.245 9.66615 14.8232 9.50582 15.4005C9.47475 15.5127 9.47475 15.5147 9.35851 15.4776C9.03783 15.3764 8.71715 15.2742 8.39647 15.171C8.32733 15.1489 8.32733 15.1469 8.34637 15.0728C8.44658 14.688 8.54779 14.3041 8.64801 13.9193C8.69911 13.7239 8.74922 13.5295 8.80033 13.3341C8.81736 13.268 8.81736 13.269 8.75523 13.2529C8.52174 13.1918 8.28724 13.1297 8.04874 13.0886C8.01166 13.0826 7.97458 13.0766 7.93751 13.0715C7.89041 13.0655 7.84932 13.0886 7.84732 13.1347C7.8393 13.2619 7.7922 13.3792 7.75712 13.4984C7.74109 13.5536 7.74109 13.6107 7.72205 13.6648C7.69399 13.745 7.67595 13.8281 7.64789 13.9083C7.63286 13.9524 7.63687 13.9975 7.62384 14.0426C7.60681 14.0987 7.58576 14.1548 7.57073 14.2119C7.54969 14.2941 7.53466 14.3783 7.51261 14.4605C7.49357 14.5306 7.45849 14.5988 7.44948 14.6699C7.44046 14.7451 7.4144 14.8152 7.40137 14.8884C7.39436 14.9275 7.37732 14.9405 7.33624 14.9295C6.9895 14.8292 6.64277 14.731 6.29704 14.6318C6.24293 14.6168 6.24293 14.6138 6.25896 14.5497C6.36318 14.1418 6.4674 13.7349 6.57162 13.3271C6.61972 13.1407 6.66782 12.9543 6.71492 12.7679C6.73296 12.6957 6.73296 12.6947 6.65981 12.6727C6.45738 12.6126 6.24894 12.5795 6.04651 12.5244C5.53143 12.3841 5.01834 12.2408 4.50426 12.0985C4.44413 12.0814 4.44413 12.0794 4.46818 12.0243C4.59144 11.7417 4.7157 11.4591 4.83896 11.1775C4.88907 11.0643 4.93817 10.9501 4.98828 10.8368C5.01534 10.7757 5.01634 10.7747 5.08448 10.7917C5.328 10.8519 5.57151 10.913 5.81502 10.9741C5.90822 10.9972 6.00142 11.0102 6.09662 10.9811C6.23992 10.937 6.33713 10.8468 6.3732 10.6995C6.4664 10.3227 6.55659 9.94494 6.64878 9.56714C6.75401 9.13623 6.86023 8.70532 6.96646 8.27541C7.09673 7.74429 7.22701 7.21317 7.35728 6.68205C7.44547 6.32129 7.53265 5.96153 7.62084 5.60077C7.67696 5.37229 7.5557 5.0957 7.34626 4.97645C7.28814 4.94338 7.226 4.92033 7.16187 4.9043C6.89631 4.83816 6.62974 4.77302 6.36418 4.70788C6.35316 4.70488 6.34214 4.69987 6.33111 4.69886C6.29203 4.69285 6.28802 4.67381 6.29804 4.63773C6.33011 4.5245 6.35917 4.40925 6.38924 4.29501C6.45838 4.03546 6.52853 3.77692 6.59467 3.51737C6.60469 3.47929 6.62373 3.47628 6.64878 3.4823C6.86123 3.52639 7.07569 3.56647 7.27912 3.64664C7.30517 3.65666 7.33523 3.66268 7.35928 3.66568C7.56071 3.68973 7.75011 3.76189 7.94652 3.80598C8.01667 3.82201 8.08181 3.85608 8.15396 3.86711C8.21609 3.87713 8.27822 3.88515 8.33835 3.90118C8.51573 3.94828 8.6941 3.98536 8.87348 4.02143C8.94062 4.03546 8.94263 4.03246 8.95966 3.96532C9.02681 3.70877 9.09194 3.45223 9.15908 3.19569C9.21921 2.9642 9.28134 2.73372 9.34247 2.50223C9.36853 2.40202 9.39558 2.3018 9.42064 2.20159C9.42865 2.16952 9.44469 2.1565 9.47575 2.16652C9.57897 2.20059 9.6892 2.20961 9.78841 2.25971C9.82148 2.27675 9.86157 2.26473 9.89764 2.27475C10.0169 2.30882 10.1371 2.33888 10.2574 2.36995C10.3326 2.38999 10.4027 2.42907 10.4839 2.42907C10.525 2.42907 10.538 2.45713 10.523 2.49521C10.5029 2.54832 10.4969 2.60544 10.4699 2.65755C10.4508 2.69564 10.4578 2.74674 10.4438 2.79084C10.3767 3.0103 10.3286 3.23377 10.2674 3.45524C10.2063 3.67771 10.1492 3.90118 10.088 4.12365C10.08 4.15371 10.074 4.18378 10.057 4.21184C10.0299 4.25693 10.046 4.28299 10.0981 4.29401C10.3716 4.35213 10.6452 4.41025 10.9188 4.46838C10.9869 4.48241 10.9869 4.48241 11.004 4.41226C11.0751 4.11864 11.1473 3.82502 11.2184 3.5314C11.2826 3.26584 11.3467 3.00028 11.4108 2.73372C11.4118 2.7277 11.4138 2.72269 11.4158 2.71768C11.4369 2.64753 11.4369 2.64653 11.51 2.66758C11.8428 2.76177 12.1755 2.85698 12.5082 2.95218C12.5803 2.97322 12.5833 2.97523 12.5613 3.04738C12.5312 3.14559 12.5112 3.2468 12.4761 3.344C12.454 3.40513 12.451 3.47829 12.431 3.54443C12.3899 3.68071 12.3669 3.82201 12.3238 3.9583C12.2767 4.10561 12.2536 4.25894 12.2065 4.40524C12.1654 4.53552 12.1424 4.6698 12.1023 4.80008C12.0853 4.85419 12.0933 4.86722 12.1464 4.88526C12.1945 4.90229 12.2426 4.91933 12.2917 4.93135C12.5142 4.98547 12.7246 5.07466 12.927 5.17687C13.0814 5.25404 13.2407 5.32118 13.388 5.41137C13.6355 5.56269 13.868 5.73205 14.0624 5.9485C14.2067 6.10884 14.325 6.28521 14.4032 6.48664C14.5124 6.76422 14.5485 7.05283 14.5164 7.34946C14.4893 7.59999 14.4503 7.84851 14.3531 8.08201C14.2679 8.28644 14.1667 8.48185 14.0133 8.6462C13.7788 8.89673 13.4942 9.06107 13.1645 9.15026C13.1315 9.15928 13.0984 9.1693 13.0653 9.18033C13.0633 9.18033 13.0613 9.18433 13.0583 9.18834H13.0613ZM10.3215 12.2117C10.4628 12.2187 10.6041 12.2117 10.7454 12.1957C10.9268 12.1756 11.1022 12.1326 11.2705 12.0574C11.7826 11.8289 11.97 11.2447 11.8428 10.7887C11.7846 10.5793 11.6564 10.4129 11.497 10.2696C11.3327 10.1213 11.1453 10.0081 10.9469 9.91187C10.6212 9.75354 10.2784 9.6423 9.92971 9.5491C9.74933 9.501 9.56695 9.45891 9.38356 9.41983C9.23725 9.38776 9.09094 9.35469 8.94664 9.31661C8.91457 9.3086 8.89853 9.31461 8.89052 9.34668C8.85645 9.48497 8.82538 9.62526 8.78329 9.76155C8.76626 9.81767 8.75724 9.8768 8.74721 9.93492C8.71415 10.1203 8.646 10.2957 8.61393 10.4821C8.58387 10.6564 8.52675 10.8258 8.48967 10.9992C8.45861 11.1445 8.41952 11.2878 8.37944 11.4311C8.35739 11.5102 8.34436 11.5924 8.32733 11.6736C8.31831 11.7157 8.30729 11.7578 8.29626 11.7999C8.28925 11.8279 8.29927 11.8439 8.32833 11.849C8.41551 11.864 8.50069 11.887 8.58287 11.9171C8.65302 11.9422 8.72517 11.9452 8.79632 11.9622C8.94764 11.9973 9.09896 12.0343 9.25128 12.0674C9.60402 12.1436 9.96078 12.1987 10.3215 12.2127V12.2117ZM10.9218 8.47183C11.1393 8.47083 11.3477 8.44978 11.5501 8.38565C12.2697 8.15917 12.417 7.31038 12.0432 6.83537C11.951 6.71913 11.8438 6.61892 11.7235 6.53374C11.5371 6.40146 11.3307 6.30526 11.1192 6.22008C10.7053 6.05473 10.2694 5.96554 9.84353 5.84528C9.80846 5.83526 9.79643 5.85029 9.78942 5.87936C9.76136 5.98959 9.73831 6.10183 9.70023 6.20905C9.67217 6.28622 9.66916 6.36839 9.65012 6.44756C9.57296 6.75019 9.4998 7.05384 9.41963 7.35547C9.40761 7.40257 9.40661 7.44967 9.39358 7.49677C9.34047 7.69719 9.29337 7.89962 9.24426 8.10105C9.23023 8.16017 9.23124 8.16218 9.28936 8.17721C9.48477 8.22731 9.68018 8.27942 9.8756 8.32652C10.2213 8.40769 10.5711 8.46582 10.9218 8.47183Z" fill="white"/>
<path d="M10.3226 12.2118C9.96086 12.1978 9.60511 12.1426 9.25236 12.0665C9.10004 12.0334 8.94872 11.9963 8.7974 11.9613C8.72625 11.9452 8.6541 11.9422 8.58395 11.9162C8.50178 11.8861 8.4166 11.863 8.32941 11.848C8.30035 11.843 8.29033 11.827 8.29735 11.7989C8.30837 11.7568 8.31939 11.7147 8.32841 11.6726C8.34645 11.5915 8.35847 11.5103 8.38052 11.4301C8.42061 11.2868 8.45869 11.1435 8.49075 10.9982C8.52783 10.8249 8.58495 10.6555 8.61502 10.4811C8.64708 10.2957 8.71523 10.1194 8.7483 9.93398C8.75832 9.87585 8.76734 9.81673 8.78437 9.76061C8.82646 9.62332 8.85653 9.48403 8.8916 9.34573C8.89962 9.31266 8.91565 9.30665 8.94772 9.31567C9.09202 9.35375 9.23833 9.38682 9.38464 9.41889C9.56803 9.45897 9.75041 9.50006 9.93079 9.54816C10.2795 9.64136 10.6223 9.75159 10.9479 9.91093C11.1454 10.0071 11.3338 10.1204 11.4981 10.2687C11.6574 10.412 11.7857 10.5783 11.8438 10.7878C11.9711 11.2437 11.7837 11.828 11.2716 12.0565C11.1033 12.1316 10.9279 12.1737 10.7465 12.1947C10.6062 12.2108 10.4649 12.2178 10.3226 12.2108V12.2118Z" fill="#FF9416"/>
<path d="M10.923 8.47083C10.5723 8.46482 10.2225 8.4067 9.87681 8.32553C9.6804 8.27943 9.48498 8.22732 9.29057 8.17621C9.23245 8.16118 9.23145 8.15917 9.24548 8.10005C9.29458 7.89862 9.34168 7.6962 9.39479 7.49577C9.40682 7.44867 9.40782 7.40158 9.42085 7.35448C9.50102 7.05284 9.57517 6.7492 9.65134 6.44656C9.67138 6.36739 9.67438 6.28522 9.70144 6.20806C9.73952 6.10083 9.76257 5.98859 9.79063 5.87836C9.79764 5.8493 9.80967 5.83427 9.84474 5.84429C10.2716 5.96454 10.7076 6.05373 11.1204 6.21908C11.3319 6.30326 11.5373 6.39946 11.7247 6.53274C11.845 6.61792 11.9522 6.71813 12.0444 6.83438C12.4182 7.30938 12.2709 8.15817 11.5513 8.38465C11.3479 8.44879 11.1395 8.46983 10.923 8.47083Z" fill="#FF9416"/>
<path d="M9.45108 0C9.93104 0.00200402 10.408 0.0400804 10.8819 0.118237C11.9681 0.296595 12.9932 0.652309 13.9451 1.20742C15.884 2.33669 17.2307 3.96395 17.9912 6.07519C18.1395 6.48501 18.2497 6.90686 18.3319 7.33472C18.4581 7.99103 18.5133 8.65336 18.4902 9.3217C18.4471 10.5582 18.1616 11.7355 17.6305 12.8528C17.2267 13.7005 16.7076 14.47 16.0623 15.1524C14.7938 16.4931 13.2587 17.3729 11.4591 17.7857C10.9731 17.8969 10.4801 17.959 9.98114 17.9871C9.55028 18.0111 9.12142 18.0011 8.69256 17.961C8.04426 17.8999 7.40998 17.7686 6.78874 17.5723C5.41298 17.1374 4.30175 16.425 3.46306 15.6644C3.29974 15.5161 3.14042 15.3618 2.98911 15.2015C1.83179 13.976 1.06926 12.5402 0.705532 10.8929C0.548216 10.1754 0.482083 9.44896 0.504127 8.71649C0.51515 8.32971 0.554228 7.94494 0.613347 7.56217C0.718558 6.88582 0.900924 6.2305 1.15844 5.59723C1.54021 4.65734 2.06827 3.80664 2.74061 3.04611C2.82679 2.94892 2.91496 2.85373 3.00515 2.75954C3.50114 2.2405 4.05525 1.7926 4.65946 1.40482C4.95405 1.21644 5.26067 1.05111 5.5743 0.896799C5.71859 0.825656 5.86488 0.75752 6.01318 0.696397C6.66048 0.427858 7.32782 0.22946 8.02121 0.118237C8.49516 0.0420844 8.97112 0.00200402 9.45108 0ZM12.6976 9.18743C12.6976 9.18743 12.7026 9.17942 12.7046 9.17942C12.7377 9.1694 12.7707 9.15837 12.8038 9.14936C13.1335 9.06018 13.419 8.89585 13.6525 8.64534C13.8058 8.48102 13.907 8.28562 13.9922 8.08121C14.0894 7.84774 14.1285 7.59925 14.1555 7.34874C14.1876 7.05115 14.1505 6.76357 14.0423 6.48601C13.9631 6.28461 13.8459 6.10825 13.7016 5.94793C13.5062 5.7315 13.2747 5.56216 13.0273 5.41086C12.879 5.32067 12.7196 5.25454 12.5663 5.17639C12.3639 5.07418 12.1535 4.984 11.9311 4.93089C11.882 4.91887 11.8339 4.90183 11.7858 4.8848C11.7337 4.86576 11.7256 4.85374 11.7417 4.79963C11.7818 4.66937 11.8048 4.5351 11.8459 4.40484C11.893 4.25754 11.916 4.10524 11.9631 3.95794C12.0062 3.82267 12.0303 3.68139 12.0703 3.54411C12.0894 3.47798 12.0934 3.40483 12.1154 3.34371C12.1505 3.24551 12.1705 3.14531 12.2006 3.04711C12.2226 2.97497 12.2196 2.97296 12.1475 2.95192C11.8148 2.85673 11.4822 2.76254 11.1495 2.66735C11.0763 2.64631 11.0763 2.64731 11.0553 2.71745C11.0533 2.72346 11.0513 2.72847 11.0503 2.73348C10.9862 2.99902 10.922 3.26455 10.8579 3.53108C10.7868 3.82467 10.7146 4.11826 10.6435 4.41185C10.6264 4.48199 10.6264 4.48199 10.5583 4.46796C10.2847 4.40985 10.0112 4.35173 9.73765 4.29361C9.68555 4.28259 9.66952 4.25654 9.69657 4.21145C9.7136 4.18239 9.71962 4.15233 9.72763 4.12327C9.78875 3.90083 9.84587 3.67738 9.90699 3.45493C9.96811 3.23449 10.0162 3.01004 10.0833 2.7906C10.0974 2.74651 10.0904 2.69541 10.1094 2.65733C10.1365 2.60422 10.1425 2.54811 10.1625 2.49501C10.1765 2.45693 10.1645 2.42887 10.1234 2.42887C10.0423 2.42887 9.97212 2.38979 9.89697 2.36975C9.77673 2.33869 9.65649 2.30863 9.53725 2.27456C9.50018 2.26454 9.4611 2.27557 9.42803 2.25953C9.32883 2.20943 9.21861 2.20041 9.1154 2.16635C9.08434 2.15633 9.06831 2.16835 9.06029 2.20142C9.03524 2.30162 9.00919 2.40182 8.98214 2.50202C8.92101 2.73348 8.85889 2.96395 8.79877 3.19541C8.73163 3.45193 8.6665 3.70844 8.59937 3.96495C8.58133 4.03209 8.58033 4.03409 8.5132 4.02107C8.33384 3.985 8.15448 3.94792 7.97812 3.90083C7.918 3.88479 7.85488 3.87678 7.79375 3.86676C7.72161 3.85574 7.65648 3.82167 7.58634 3.80564C7.38994 3.76155 7.20056 3.6904 6.99916 3.66535C6.97511 3.66235 6.94505 3.65634 6.919 3.64632C6.71559 3.56615 6.50116 3.52607 6.28873 3.48199C6.26368 3.47698 6.24364 3.47998 6.23462 3.51706C6.16849 3.77658 6.09835 4.0361 6.02921 4.29462C5.99915 4.40885 5.97009 4.52408 5.93803 4.6373C5.92801 4.67237 5.93202 4.69241 5.9711 4.69843C5.98212 4.70043 5.99314 4.70444 6.00416 4.70744C6.26969 4.77258 6.53623 4.83771 6.80176 4.90384C6.86589 4.91987 6.92802 4.94292 6.98613 4.97598C7.19555 5.09522 7.31579 5.37178 7.26068 5.60024C7.17251 5.96096 7.08533 6.32068 6.99715 6.68141C6.86689 7.21247 6.73663 7.74354 6.60637 8.2746C6.50116 8.70547 6.39394 9.13533 6.28873 9.56619C6.19655 9.94295 6.10637 10.3207 6.01318 10.6985C5.97711 10.8458 5.87991 10.9359 5.73663 10.98C5.64143 11.0091 5.54825 10.9961 5.45506 10.973C5.21157 10.9119 4.96808 10.8508 4.72459 10.7906C4.65646 10.7736 4.65546 10.7746 4.6284 10.8357C4.5783 10.949 4.5292 11.0622 4.4791 11.1764C4.35585 11.459 4.23161 11.7406 4.10836 12.0231C4.08431 12.0792 4.08431 12.0812 4.14443 12.0973C4.65846 12.2396 5.17249 12.3828 5.68652 12.5231C5.88993 12.5782 6.09835 12.6113 6.29976 12.6714C6.3719 12.6925 6.3729 12.6945 6.35487 12.7666C6.30777 12.953 6.25967 13.1394 6.21158 13.3257C6.10737 13.7336 6.00316 14.1404 5.89895 14.5482C5.88292 14.6123 5.88292 14.6143 5.93703 14.6304C6.28372 14.7296 6.63042 14.8277 6.97611 14.9279C7.01719 14.94 7.03423 14.9259 7.04124 14.8869C7.05427 14.8137 7.08032 14.7436 7.08934 14.6684C7.09836 14.5973 7.13343 14.5302 7.15247 14.459C7.17451 14.3768 7.18954 14.2927 7.21058 14.2105C7.22561 14.1534 7.24665 14.0973 7.26369 14.0412C7.27772 13.9971 7.27271 13.951 7.28774 13.9069C7.31479 13.8267 7.33383 13.7436 7.36189 13.6634C7.38092 13.6093 7.38092 13.5522 7.39696 13.4971C7.43203 13.3768 7.47912 13.2606 7.48714 13.1334C7.49014 13.0863 7.53123 13.0632 7.57732 13.0702C7.61439 13.0752 7.65147 13.0812 7.68854 13.0873C7.92702 13.1283 8.16049 13.1905 8.39496 13.2516C8.45608 13.2676 8.45708 13.2666 8.44005 13.3327C8.38995 13.5281 8.33885 13.7225 8.28774 13.9179C8.18754 14.3027 8.08634 14.6865 7.98614 15.0712C7.9671 15.1454 7.9671 15.1474 8.03624 15.1694C8.35688 15.2726 8.67753 15.3748 8.99817 15.476C9.1134 15.5121 9.1144 15.5111 9.14546 15.3989C9.30579 14.8207 9.46611 14.2426 9.62643 13.6654C9.64647 13.5933 9.64747 13.5933 9.72062 13.6053C10.0964 13.6684 10.4741 13.7135 10.8549 13.7315C11.2337 13.7486 11.6104 13.7315 11.9822 13.6504C12.6776 13.4981 13.1986 13.1143 13.5293 12.48C13.6786 12.1925 13.7848 11.8889 13.8609 11.5732C13.915 11.3498 13.9481 11.1263 13.9431 10.8979C13.9341 10.475 13.7918 10.1023 13.5072 9.78663C13.2998 9.55617 13.0483 9.38383 12.7778 9.23653C12.7507 9.2225 12.7196 9.21449 12.7006 9.18743H12.6976Z" fill="#FF9416"/>
<g clip-path="url(#clip0_602_5492)">
<path d="M23.5 18C28.4706 18 32.5 13.9706 32.5 9C32.5 4.02944 28.4706 0 23.5 0C18.5294 0 14.5 4.02944 14.5 9C14.5 13.9706 18.5294 18 23.5 18Z" fill="#627EEA"/>
<path d="M23.7801 2.25V7.23938L27.9972 9.12375L23.7801 2.25Z" fill="white" fill-opacity="0.602"/>
<path d="M23.7801 2.25L19.5625 9.12375L23.7801 7.23938V2.25Z" fill="white"/>
<path d="M23.7801 12.3571V15.7472L28 9.90906L23.7801 12.3571Z" fill="white" fill-opacity="0.602"/>
<path d="M23.7801 15.7472V12.3565L19.5625 9.90906L23.7801 15.7472Z" fill="white"/>
<path d="M23.7801 11.5723L27.9972 9.12373L23.7801 7.24048V11.5723Z" fill="white" fill-opacity="0.2"/>
<path d="M19.5625 9.12373L23.7801 11.5723V7.24048L19.5625 9.12373Z" fill="white" fill-opacity="0.602"/>
</g>
<defs>
<clipPath id="clip0_602_5492">
<rect width="18" height="18" fill="white" transform="translate(14.5)"/>
</clipPath>
</defs>
</svg>
