<svg width="69" height="40" viewBox="0 0 69 40" fill="none" xmlns="http://www.w3.org/2000/svg">
<path d="M18.6486 0C17.7003 0.00445363 16.7599 0.0912993 15.8235 0.262764C14.4554 0.512167 13.1349 0.953076 11.8559 1.54764C11.5629 1.68347 11.2759 1.83489 10.9888 1.993C10.3691 2.33593 9.76331 2.70335 9.18125 3.12199C7.98743 3.98154 6.89261 4.97916 5.91261 6.13264C5.73443 6.34196 5.56021 6.55351 5.38994 6.76951C4.06348 8.45966 3.01815 10.3502 2.26385 12.439C1.75504 13.8463 1.39472 15.3027 1.18684 16.8058C1.06806 17.6564 0.992823 18.5115 0.971046 19.371C0.92749 21.0011 1.05816 22.6133 1.36898 24.2055C2.08765 27.8663 3.59427 31.0551 5.88093 33.7808C6.17988 34.1371 6.49269 34.48 6.81738 34.8095C8.47446 36.4997 10.6701 38.083 13.3883 39.0494C14.6158 39.4859 15.869 39.7776 17.1499 39.9134C17.9973 40.0025 18.8446 40.0247 19.6959 39.9713C20.6799 39.9112 21.6539 39.7731 22.6161 39.5237C26.1718 38.604 29.2049 36.6511 31.7113 33.6716C32.9863 32.1552 34.0118 30.445 34.8097 28.5611C35.8609 26.0782 36.4252 23.4617 36.5083 20.7138C36.5539 19.2285 36.445 17.7566 36.1955 16.298C36.0332 15.3472 35.8134 14.4097 35.5224 13.4989C34.0197 8.80705 31.3589 5.1907 27.528 2.68108C25.6492 1.44966 23.6238 0.659137 21.4758 0.260537C20.5393 0.0890725 19.5969 0.00445363 18.6486 0Z" fill="white"/>
<path d="M26.6547 20.4185C26.697 20.4787 26.7682 20.4965 26.8261 20.5277C27.4274 20.855 27.9864 21.238 28.4473 21.7502C29.0798 22.4517 29.396 23.2779 29.416 24.2199C29.4272 24.7276 29.3537 25.2242 29.2334 25.7208C29.0642 26.4223 28.8304 27.0971 28.4963 27.7362C27.7614 29.1459 26.6034 29.9988 25.0579 30.3373C24.2318 30.5176 23.3944 30.5555 22.5527 30.5176C21.7064 30.4775 20.8669 30.3796 20.0318 30.237C19.8692 30.2103 19.867 30.2103 19.8224 30.3707C19.4661 31.6556 19.1098 32.9405 18.7535 34.2232C18.6845 34.4726 18.6845 34.4771 18.4262 34.3947C17.7136 34.1698 17.0009 33.9426 16.2883 33.7133C16.1347 33.6643 16.1347 33.6598 16.177 33.495C16.3997 32.6399 16.6246 31.787 16.8473 30.9318C16.9609 30.4976 17.0722 30.0656 17.1858 29.6313C17.2236 29.4843 17.2236 29.4866 17.0856 29.4509C16.5667 29.3151 16.0456 29.177 15.5156 29.0857C15.4332 29.0724 15.3508 29.059 15.2684 29.0479C15.1637 29.0345 15.0724 29.0857 15.068 29.1882C15.0502 29.471 14.9455 29.7315 14.8675 29.9965C14.8319 30.119 14.8319 30.246 14.7896 30.3662C14.7272 30.5444 14.6872 30.7292 14.6248 30.9073C14.5914 31.0053 14.6003 31.1055 14.5714 31.2058C14.5335 31.3305 14.4867 31.4552 14.4533 31.5821C14.4066 31.7647 14.3732 31.9518 14.3242 32.1344C14.2819 32.2903 14.2039 32.4417 14.1839 32.5998C14.1638 32.7668 14.1059 32.9227 14.077 33.0853C14.0614 33.1721 14.0235 33.2011 13.9322 33.1766C13.1617 32.9539 12.3912 32.7356 11.6229 32.5152C11.5027 32.4818 11.5027 32.4751 11.5383 32.3326C11.7699 31.4262 12.0015 30.5221 12.2331 29.6157C12.34 29.2015 12.4469 28.7873 12.5515 28.3731C12.5916 28.2128 12.5916 28.2105 12.4291 28.1616C11.9792 28.0279 11.516 27.9544 11.0662 27.832C9.92155 27.5202 8.78136 27.2017 7.63895 26.8855C7.50534 26.8477 7.50534 26.8432 7.55878 26.7207C7.83269 26.0927 8.10883 25.4647 8.38274 24.839C8.49409 24.5873 8.60321 24.3335 8.71455 24.0818C8.77468 23.946 8.77691 23.9438 8.92834 23.9816C9.46948 24.1152 10.0106 24.2511 10.5518 24.3869C10.7589 24.4381 10.966 24.4671 11.1775 24.4025C11.496 24.3045 11.712 24.1041 11.7922 23.7767C11.9993 22.9394 12.1997 22.0999 12.4046 21.2603C12.6384 20.3027 12.8744 19.3452 13.1105 18.3898C13.4 17.2095 13.6895 16.0293 13.979 14.849C14.175 14.0473 14.3687 13.2478 14.5647 12.4462C14.6894 11.9384 14.4199 11.3238 13.9545 11.0588C13.8253 10.9853 13.6873 10.9341 13.5448 10.8984C12.9546 10.7515 12.3623 10.6067 11.7721 10.462C11.7476 10.4553 11.7231 10.4441 11.6986 10.4419C11.6118 10.4286 11.6029 10.3862 11.6251 10.3061C11.6964 10.0544 11.761 9.79834 11.8278 9.54447C11.9815 8.9677 12.1373 8.39315 12.2843 7.81638C12.3066 7.73175 12.3489 7.72507 12.4046 7.73844C12.8767 7.83642 13.3532 7.9255 13.8053 8.10365C13.8632 8.12592 13.93 8.13928 13.9835 8.14596C14.4311 8.19941 14.852 8.35975 15.2884 8.45773C15.4443 8.49336 15.5891 8.56908 15.7494 8.59357C15.8875 8.61584 16.0255 8.63366 16.1592 8.66929C16.5533 8.77395 16.9497 8.85635 17.3483 8.93652C17.4975 8.9677 17.502 8.96102 17.5399 8.81181C17.6891 8.24172 17.8338 7.67163 17.983 7.10154C18.1166 6.58712 18.2547 6.07492 18.3905 5.5605C18.4484 5.33781 18.5086 5.11512 18.5642 4.89243C18.5821 4.82117 18.6177 4.79222 18.6867 4.81448C18.9161 4.8902 19.1611 4.91024 19.3815 5.02159C19.455 5.05945 19.5441 5.03272 19.6243 5.05499C19.8893 5.13071 20.1565 5.19752 20.4237 5.26655C20.5907 5.31109 20.7466 5.39794 20.927 5.39794C21.0183 5.39794 21.0473 5.46029 21.0139 5.54492C20.9693 5.66294 20.956 5.78988 20.8958 5.90568C20.8535 5.9903 20.8691 6.10387 20.8379 6.20186C20.6887 6.68955 20.5818 7.18616 20.446 7.67831C20.3101 8.17269 20.1832 8.66929 20.0474 9.16367C20.0296 9.23047 20.0162 9.29728 19.9783 9.35963C19.9182 9.45985 19.9538 9.51775 20.0696 9.54224C20.6776 9.6714 21.2855 9.80057 21.8935 9.92973C22.0449 9.9609 22.0449 9.9609 22.0828 9.80502C22.2409 9.15253 22.4012 8.50004 22.5593 7.84755C22.7019 7.25742 22.8444 6.66729 22.9869 6.07492C22.9891 6.06156 22.9936 6.05043 22.998 6.03929C23.0448 5.88341 23.0448 5.88118 23.2074 5.92795C23.9467 6.13728 24.6861 6.34883 25.4254 6.56039C25.5857 6.60716 25.5924 6.61161 25.5434 6.77195C25.4766 6.99019 25.4321 7.21511 25.3541 7.43112C25.3051 7.56696 25.2985 7.72953 25.2539 7.8765C25.1626 8.17937 25.1114 8.49336 25.0156 8.79622C24.911 9.12358 24.8598 9.4643 24.7551 9.78943C24.6638 10.0789 24.6126 10.3773 24.5235 10.6668C24.4856 10.7871 24.5034 10.816 24.6215 10.8561C24.7284 10.894 24.8353 10.9318 24.9444 10.9586C25.4388 11.0788 25.9064 11.277 26.3562 11.5042C26.6992 11.6756 27.0533 11.8248 27.3806 12.0253C27.9307 12.3615 28.4473 12.7379 28.8794 13.2189C29.2 13.5752 29.4628 13.9671 29.6365 14.4148C29.8792 15.0316 29.9594 15.673 29.8881 16.3321C29.828 16.8889 29.7412 17.4411 29.5252 17.96C29.3359 18.4143 29.1109 18.8486 28.7702 19.2138C28.2491 19.7705 27.6167 20.1357 26.884 20.3339C26.8105 20.354 26.737 20.3762 26.6636 20.4007C26.6591 20.4007 26.6547 20.4096 26.648 20.4185H26.6547ZM20.5662 27.1372C20.8802 27.1528 21.1942 27.1372 21.5082 27.1015C21.9113 27.057 22.301 26.9612 22.6751 26.7942C23.8131 26.2865 24.2295 24.9882 23.9467 23.9749C23.8176 23.5095 23.5325 23.1398 23.1784 22.8214C22.8132 22.4918 22.3968 22.2402 21.9558 22.0264C21.2321 21.6745 20.4705 21.4273 19.6955 21.2202C19.2947 21.1133 18.8894 21.0198 18.4818 20.933C18.1567 20.8617 17.8316 20.7882 17.5109 20.7036C17.4396 20.6858 17.404 20.6991 17.3862 20.7704C17.3105 21.0777 17.2414 21.3895 17.1479 21.6923C17.1101 21.817 17.09 21.9484 17.0677 22.0776C16.9943 22.4896 16.8428 22.8793 16.7716 23.2935C16.7048 23.681 16.5778 24.0573 16.4954 24.4426C16.4264 24.7655 16.3395 25.0839 16.2505 25.4024C16.2015 25.5783 16.1725 25.7609 16.1347 25.9413C16.1146 26.0348 16.0901 26.1284 16.0656 26.2219C16.05 26.2843 16.0723 26.3199 16.1369 26.331C16.3306 26.3644 16.5199 26.4156 16.7025 26.4824C16.8584 26.5381 17.0188 26.5448 17.1769 26.5827C17.5131 26.6606 17.8494 26.743 18.1879 26.8165C18.9718 26.9857 19.7645 27.1082 20.5662 27.1394V27.1372ZM21.9002 18.8263C22.3834 18.8241 22.8466 18.7773 23.2965 18.6348C24.8954 18.1315 25.2227 16.2453 24.3921 15.1897C24.1872 14.9314 23.9489 14.7087 23.6817 14.5194C23.2675 14.2255 22.8088 14.0117 22.3389 13.8224C21.4192 13.4549 20.4504 13.2568 19.504 12.9895C19.4261 12.9673 19.3993 13.0007 19.3837 13.0652C19.3214 13.3102 19.2702 13.5596 19.1855 13.7979C19.1232 13.9694 19.1165 14.152 19.0742 14.3279C18.9027 15.0004 18.7402 15.6752 18.562 16.3455C18.5353 16.4502 18.5331 16.5548 18.5041 16.6595C18.3861 17.1049 18.2814 17.5547 18.1723 18.0023C18.1411 18.1337 18.1433 18.1382 18.2725 18.1716C18.7068 18.2829 19.141 18.3987 19.5753 18.5034C20.3435 18.6838 21.1207 18.8129 21.9002 18.8263Z" fill="white"/>
<path d="M20.5698 27.1372C19.7659 27.106 18.9754 26.9835 18.1915 26.8143C17.853 26.7408 17.5167 26.6584 17.1805 26.5805C17.0224 26.5448 16.862 26.5382 16.7061 26.4803C16.5235 26.4135 16.3342 26.3622 16.1405 26.3288C16.0759 26.3177 16.0536 26.2821 16.0692 26.2197C16.0937 26.1262 16.1182 26.0327 16.1383 25.9391C16.1783 25.7587 16.2051 25.5784 16.2541 25.4002C16.3431 25.0818 16.4278 24.7633 16.499 24.4404C16.5814 24.0551 16.7084 23.6788 16.7752 23.2913C16.8464 22.8793 16.9979 22.4874 17.0713 22.0754C17.0936 21.9462 17.1137 21.8149 17.1515 21.6902C17.245 21.3851 17.3119 21.0755 17.3898 20.7682C17.4076 20.6947 17.4432 20.6814 17.5145 20.7014C17.8352 20.786 18.1603 20.8595 18.4854 20.9308C18.893 21.0198 19.2983 21.1111 19.6991 21.218C20.4741 21.4251 21.2357 21.6701 21.9594 22.0242C22.3981 22.238 22.8168 22.4896 23.182 22.8192C23.5361 23.1377 23.8211 23.5073 23.9503 23.9727C24.2331 24.986 23.8167 26.2843 22.6787 26.792C22.3046 26.9591 21.9149 27.0526 21.5118 27.0993C21.2001 27.135 20.8861 27.1506 20.5698 27.135V27.1372Z" fill="#FF9416"/>
<path d="M21.9027 18.8241C21.1233 18.8108 20.3461 18.6816 19.5778 18.5012C19.1413 18.3988 18.707 18.283 18.275 18.1694C18.1459 18.136 18.1436 18.1316 18.1748 18.0002C18.2839 17.5526 18.3886 17.1027 18.5066 16.6573C18.5333 16.5527 18.5356 16.448 18.5645 16.3433C18.7427 15.673 18.9075 14.9983 19.0767 14.3257C19.1213 14.1498 19.1279 13.9672 19.1881 13.7957C19.2727 13.5575 19.3239 13.308 19.3863 13.0631C19.4018 12.9985 19.4286 12.9651 19.5065 12.9874C20.4552 13.2546 21.4239 13.4528 22.3414 13.8202C22.8113 14.0073 23.2678 14.2211 23.6842 14.5173C23.9514 14.7065 24.1897 14.9292 24.3946 15.1876C25.2252 16.2431 24.8979 18.1293 23.299 18.6326C22.8469 18.7751 22.3837 18.8219 21.9027 18.8241Z" fill="#FF9416"/>
<path d="M19.9401 0C21.0067 0.00445338 22.0666 0.0890676 23.1198 0.262749C25.5336 0.6591 27.8115 1.44957 29.9268 2.68316C34.2355 5.19264 37.2281 8.80878 38.9182 13.5004C39.2477 14.4111 39.4927 15.3486 39.6753 16.2994C39.9558 17.7578 40.0783 19.2297 40.0271 20.7149C39.9313 23.4626 39.2967 26.079 38.1166 28.5617C37.2192 30.4455 36.0658 32.1556 34.6318 33.672C31.8128 36.6513 28.4015 38.6063 24.4024 39.5237C23.3225 39.7709 22.2269 39.909 21.118 39.9713C20.1606 40.0247 19.2075 40.0025 18.2545 39.9134C16.8138 39.7776 15.4043 39.4859 14.0238 39.0495C10.9666 38.0831 8.49716 36.4999 6.63342 34.8098C6.27046 34.4803 5.91642 34.1374 5.58019 33.7811C3.00836 31.0579 1.31385 27.867 0.505565 24.2063C0.155975 22.612 0.00901304 20.9977 0.0580002 19.37C0.0824938 18.5105 0.169335 17.6554 0.300709 16.8048C0.534512 15.3018 0.939769 13.8456 1.51203 12.4383C2.3604 10.3497 3.53386 8.45919 5.02797 6.76914C5.21947 6.55315 5.41542 6.34161 5.61582 6.1323C6.71803 4.97888 7.94939 3.98355 9.29208 3.12182C9.94673 2.7032 10.6281 2.3358 11.3251 1.99289C11.6457 1.83479 11.9708 1.68338 12.3003 1.54755C13.7388 0.950796 15.2218 0.509912 16.7626 0.262749C17.8159 0.093521 18.8735 0.00445338 19.9401 0ZM27.1546 20.4165C27.1546 20.4165 27.1657 20.3987 27.1702 20.3987C27.2437 20.3764 27.3171 20.3519 27.3906 20.3319C28.1232 20.1337 28.7578 19.7686 29.2766 19.2119C29.6173 18.8467 29.8422 18.4125 30.0315 17.9583C30.2475 17.4394 30.3343 16.8872 30.3944 16.3305C30.4657 15.6692 30.3833 15.0302 30.1428 14.4134C29.9669 13.9658 29.7064 13.5739 29.3857 13.2176C28.9515 12.7367 28.4372 12.3604 27.8872 12.0241C27.5576 11.8237 27.2036 11.6768 26.8629 11.5031C26.4131 11.276 25.9455 11.0756 25.4512 10.9575C25.3421 10.9308 25.2352 10.893 25.1283 10.8551C25.0125 10.8128 24.9947 10.7861 25.0303 10.6658C25.1194 10.3764 25.1706 10.078 25.2619 9.78853C25.3666 9.4612 25.4178 9.12275 25.5224 8.79542C25.6182 8.49482 25.6716 8.18086 25.7607 7.8758C25.803 7.72884 25.8119 7.56629 25.8609 7.43046C25.9388 7.21225 25.9833 6.98958 26.0501 6.77136C26.0991 6.61104 26.0925 6.60659 25.9321 6.55983C25.1929 6.34829 24.4536 6.13898 23.7144 5.92745C23.5518 5.88069 23.5518 5.88291 23.505 6.03878C23.5006 6.05214 23.4961 6.06328 23.4939 6.07441C23.3514 6.66448 23.2089 7.25456 23.0664 7.84685C22.9083 8.49927 22.748 9.15169 22.5899 9.80411C22.552 9.95998 22.552 9.95998 22.4006 9.92881C21.7927 9.79966 21.1848 9.67051 20.5769 9.54136C20.4612 9.51687 20.4255 9.45898 20.4857 9.35878C20.5235 9.2942 20.5369 9.2274 20.5547 9.16283C20.6905 8.6685 20.8174 8.17195 20.9533 7.67763C21.0891 7.18775 21.196 6.68898 21.3452 6.20133C21.3763 6.10336 21.3607 5.9898 21.403 5.90518C21.4632 5.78717 21.4765 5.66247 21.5211 5.54446C21.5522 5.45984 21.5255 5.3975 21.4342 5.3975C21.2539 5.3975 21.098 5.31065 20.931 5.26612C20.6638 5.19709 20.3966 5.13029 20.1316 5.05459C20.0492 5.03232 19.9624 5.05681 19.8889 5.02118C19.6685 4.90985 19.4235 4.88981 19.1942 4.8141C19.1251 4.79184 19.0895 4.81856 19.0717 4.89204C19.016 5.11471 18.9581 5.33737 18.898 5.56004C18.7622 6.07441 18.6241 6.58655 18.4905 7.10091C18.3414 7.67095 18.1966 8.24098 18.0474 8.81101C18.0073 8.9602 18.0051 8.96465 17.8559 8.93571C17.4574 8.85555 17.0588 8.77316 16.6669 8.6685C16.5333 8.63288 16.393 8.61506 16.2572 8.5928C16.0968 8.5683 15.9521 8.49259 15.7962 8.45697C15.3598 8.35899 14.939 8.2009 14.4914 8.14523C14.438 8.13855 14.3712 8.12519 14.3133 8.10292C13.8612 7.92479 13.3847 7.83572 12.9127 7.73775C12.857 7.72661 12.8125 7.73329 12.7924 7.81568C12.6455 8.39239 12.4896 8.96911 12.336 9.54359C12.2692 9.79743 12.2046 10.0535 12.1333 10.3051C12.1111 10.3831 12.12 10.4276 12.2068 10.4409C12.2313 10.4454 12.2558 10.4543 12.2803 10.461C12.8704 10.6057 13.4627 10.7505 14.0527 10.8974C14.1953 10.933 14.3333 10.9843 14.4625 11.0577C14.9278 11.3227 15.195 11.9373 15.0726 12.445C14.8766 13.2466 14.6829 14.046 14.4869 14.8476C14.1975 16.0277 13.908 17.2079 13.6185 18.388C13.3847 19.3455 13.1465 20.3007 12.9127 21.2582C12.7078 22.0954 12.5074 22.9349 12.3003 23.7744C12.2202 24.1017 12.0042 24.3021 11.6858 24.4001C11.4742 24.4646 11.2672 24.4357 11.0601 24.3845C10.519 24.2486 9.9779 24.1128 9.43682 23.9792C9.2854 23.9414 9.28318 23.9436 9.22306 24.0794C9.11172 24.331 9.00261 24.5827 8.89128 24.8365C8.6174 25.4644 8.34129 26.0901 8.0674 26.718C8.01396 26.8427 8.01396 26.8472 8.14756 26.8828C9.28986 27.199 10.4321 27.5174 11.5744 27.8292C12.0265 27.9516 12.4896 28.0251 12.9372 28.1587C13.0975 28.2055 13.0997 28.2099 13.0596 28.3703C12.955 28.7844 12.8481 29.1986 12.7412 29.6127C12.5097 30.519 12.2781 31.423 12.0465 32.3293C12.0109 32.4718 12.0109 32.4763 12.1311 32.5119C12.9015 32.7323 13.672 32.9506 14.4402 33.1732C14.5315 33.1999 14.5693 33.1688 14.5849 33.0819C14.6139 32.9194 14.6718 32.7635 14.6918 32.5965C14.7118 32.4384 14.7898 32.2892 14.8321 32.1311C14.8811 31.9485 14.9145 31.7615 14.9612 31.5789C14.9946 31.452 15.0414 31.3273 15.0793 31.2026C15.1104 31.1046 15.0993 31.0022 15.1327 30.9042C15.1928 30.7261 15.2351 30.5413 15.2975 30.3631C15.3398 30.2429 15.3398 30.116 15.3754 29.9935C15.4533 29.7263 15.558 29.468 15.5758 29.1852C15.5825 29.0806 15.6738 29.0294 15.7762 29.0449C15.8586 29.0561 15.941 29.0694 16.0234 29.0828C16.5533 29.1741 17.0721 29.3121 17.5932 29.448C17.729 29.4836 17.7312 29.4814 17.6934 29.6283C17.582 30.0625 17.4685 30.4945 17.3549 30.9287C17.1323 31.7838 16.9074 32.6366 16.6847 33.4916C16.6424 33.6564 16.6424 33.6609 16.796 33.7099C17.5086 33.9392 18.2211 34.1663 18.9336 34.3912C19.1897 34.4714 19.1919 34.4692 19.261 34.2198C19.6172 32.935 19.9735 31.6502 20.3298 30.3676C20.3743 30.2073 20.3765 30.2073 20.5391 30.234C21.3741 30.3743 22.2136 30.4745 23.0597 30.5146C23.9014 30.5524 24.7386 30.5146 25.5647 30.3342C27.1101 29.9957 28.2679 29.1429 29.0027 27.7334C29.3345 27.0944 29.5705 26.4197 29.7398 25.7183C29.86 25.2217 29.9335 24.7252 29.9224 24.2175C29.9023 23.2778 29.5861 22.4495 28.9538 21.7481C28.4928 21.2359 27.9339 20.8529 27.3327 20.5256C27.2726 20.4945 27.2036 20.4766 27.1613 20.4165H27.1546Z" fill="#FF9416"/>
<g clip-path="url(#clip0_193_12262)">
<path d="M48.1855 40C59.2312 40 68.1855 31.0457 68.1855 20C68.1855 8.9543 59.2312 0 48.1855 0C37.1399 0 28.1855 8.9543 28.1855 20C28.1855 31.0457 37.1399 40 48.1855 40Z" fill="#627EEA"/>
<path d="M48.8086 5V16.0875L58.1798 20.275L48.8086 5Z" fill="white" fill-opacity="0.602"/>
<path d="M48.808 5L39.4355 20.275L48.808 16.0875V5Z" fill="white"/>
<path d="M48.8086 27.46V34.9938L58.1861 22.02L48.8086 27.46Z" fill="white" fill-opacity="0.602"/>
<path d="M48.808 34.9938V27.4588L39.4355 22.02L48.808 34.9938Z" fill="white"/>
<path d="M48.8086 25.7162L58.1798 20.275L48.8086 16.09V25.7162Z" fill="white" fill-opacity="0.2"/>
<path d="M39.4355 20.275L48.808 25.7162V16.09L39.4355 20.275Z" fill="white" fill-opacity="0.602"/>
</g>
<defs>
<clipPath id="clip0_193_12262">
<rect width="40" height="40" fill="white" transform="translate(28.1855)"/>
</clipPath>
</defs>
</svg>
