<svg width="77" height="46" viewBox="0 0 77 46" fill="none" xmlns="http://www.w3.org/2000/svg">
<path d="M53.1378 45.9952C65.9275 45.9952 76.2957 35.6988 76.2957 22.9976C76.2957 10.2964 65.9275 0 53.1378 0C40.348 0 29.9799 10.2964 29.9799 22.9976C29.9799 35.6988 40.348 45.9952 53.1378 45.9952Z" fill="#627EEA"/>
<path d="M53.8585 5.74939V18.4987L64.7094 23.3138L53.8585 5.74939Z" fill="white" fill-opacity="0.602"/>
<path d="M53.8585 5.74939L43.0062 23.3138L53.8585 18.4987V5.74939Z" fill="white"/>
<path d="M53.8585 31.5757V40.2386L64.7167 25.3203L53.8585 31.5757Z" fill="white" fill-opacity="0.602"/>
<path d="M53.8585 40.2386V31.5742L43.0062 25.3203L53.8585 40.2386Z" fill="white"/>
<path d="M53.8585 29.5706L64.7094 23.3138L53.8585 18.5016V29.5706Z" fill="white" fill-opacity="0.2"/>
<path d="M43.0062 23.3138L53.8585 29.5706V18.5016L43.0062 23.3138Z" fill="white" fill-opacity="0.602"/>
<path d="M23.5344 0C22.2993 0.00512139 21.0745 0.104988 19.8549 0.302162C18.0731 0.588959 16.3532 1.09598 14.6875 1.77968C14.3058 1.93588 13.9319 2.11001 13.558 2.29182C12.751 2.68617 11.9619 3.10868 11.2038 3.59009C9.64898 4.57852 8.22304 5.72571 6.94667 7.05215C6.7146 7.29285 6.48768 7.53612 6.26593 7.78451C4.53831 9.72807 3.17684 11.9021 2.19441 14.304C1.53172 15.9224 1.06243 17.5971 0.791683 19.3256C0.63697 20.3037 0.538985 21.287 0.510621 22.2755C0.453893 24.1499 0.624077 26.0038 1.02891 27.8347C1.96492 32.0445 3.92719 35.7114 6.90541 38.8457C7.29477 39.2554 7.70218 39.6498 8.12506 40.0288C10.2833 41.9723 13.1429 43.793 16.6832 44.9043C18.2819 45.4062 19.9142 45.7417 21.5825 45.8979C22.6861 46.0003 23.7897 46.0259 24.8985 45.9644C26.18 45.8953 27.4487 45.7365 28.7018 45.4497C33.3329 44.3922 37.2832 42.1465 40.5477 38.7202C42.2082 36.9764 43.5439 35.0098 44.5831 32.8434C45.9523 29.9883 46.6872 26.9795 46.7955 23.8196C46.8548 22.1116 46.713 20.419 46.3881 18.7417C46.1766 17.6483 45.8904 16.5702 45.5114 15.5229C43.5542 10.1275 40.0887 5.96898 35.0992 3.08307C32.6522 1.66701 30.0143 0.757965 27.2166 0.299601C25.9969 0.102428 24.7696 0.00512139 23.5344 0Z" fill="black"/>
<path d="M31.8859 23.4801C31.9349 23.5493 32.0174 23.5698 32.0844 23.6056C32.7806 23.982 33.4278 24.4225 33.9616 25.0114C34.6939 25.818 35.0601 26.7681 35.0833 27.8512C35.0962 28.4351 35.0111 29.0061 34.8718 29.5771C34.6759 30.3838 34.4051 31.1597 34.0183 31.8946C33.1674 33.5155 31.8266 34.4962 30.0371 34.8855C29.0804 35.0929 28.1109 35.1364 27.1362 35.0929C26.1564 35.0468 25.1842 34.9341 24.2173 34.7702C24.0291 34.7395 24.0265 34.7395 23.9749 34.9239C23.5623 36.4014 23.1498 37.8789 22.7372 39.3539C22.6573 39.6407 22.6573 39.6458 22.3582 39.551C21.533 39.2924 20.7079 39.0312 19.8828 38.7675C19.7048 38.7111 19.7048 38.706 19.7538 38.5165C20.0117 37.5332 20.2721 36.5525 20.53 35.5692C20.6615 35.0698 20.7904 34.5731 20.9219 34.0737C20.9657 33.9047 20.9657 33.9073 20.8059 33.8663C20.2051 33.7101 19.6017 33.5513 18.988 33.4464C18.8926 33.431 18.7972 33.4156 18.7018 33.4028C18.5806 33.3875 18.4749 33.4464 18.4697 33.5641C18.4491 33.8894 18.3279 34.189 18.2376 34.4937C18.1964 34.6345 18.1964 34.7805 18.1474 34.9188C18.0752 35.1236 18.0288 35.3361 17.9566 35.541C17.9179 35.6537 17.9282 35.7689 17.8947 35.8841C17.8509 36.0275 17.7967 36.1709 17.758 36.3169C17.7039 36.5269 17.6652 36.742 17.6085 36.9519C17.5595 37.1312 17.4692 37.3053 17.446 37.4871C17.4228 37.6792 17.3558 37.8584 17.3223 38.0454C17.3042 38.1452 17.2604 38.1785 17.1547 38.1503C16.2625 37.8943 15.3703 37.6433 14.4807 37.3898C14.3415 37.3514 14.3415 37.3437 14.3827 37.1798C14.6509 36.1376 14.9191 35.098 15.1872 34.0558C15.311 33.5795 15.4348 33.1032 15.556 32.6269C15.6024 32.4426 15.6024 32.44 15.4141 32.3837C14.8933 32.23 14.3569 32.1455 13.8361 32.0047C12.5107 31.6462 11.1905 31.28 9.8677 30.9164C9.71298 30.8729 9.71298 30.8677 9.77487 30.7269C10.092 30.0048 10.4118 29.2827 10.7289 28.5631C10.8579 28.2738 10.9842 27.9818 11.1131 27.6925C11.1828 27.5363 11.1853 27.5337 11.3607 27.5772C11.9873 27.7309 12.6138 27.8871 13.2404 28.0433C13.4802 28.1022 13.72 28.1355 13.965 28.0612C14.3337 27.9485 14.5839 27.7181 14.6767 27.3417C14.9165 26.3788 15.1486 25.4135 15.3858 24.4481C15.6565 23.347 15.9299 22.2459 16.2032 21.1473C16.5384 19.7902 16.8736 18.433 17.2088 17.0758C17.4357 16.154 17.6601 15.2347 17.887 14.3129C18.0314 13.729 17.7194 13.0223 17.1804 12.7175C17.0309 12.633 16.871 12.5741 16.706 12.5332C16.0227 12.3642 15.3368 12.1977 14.6535 12.0313C14.6251 12.0236 14.5967 12.0108 14.5684 12.0082C14.4678 11.9929 14.4575 11.9442 14.4833 11.852C14.5658 11.5627 14.6406 11.2682 14.7179 10.9763C14.8959 10.3131 15.0764 9.65239 15.2465 8.98917C15.2723 8.89187 15.3213 8.88418 15.3858 8.89955C15.9324 9.01222 16.4842 9.11465 17.0077 9.3195C17.0747 9.34511 17.1521 9.36047 17.214 9.36816C17.7323 9.42961 18.2196 9.61398 18.725 9.72665C18.9055 9.76762 19.0731 9.85469 19.2588 9.88285C19.4186 9.90846 19.5785 9.92895 19.7332 9.96992C20.1896 10.0903 20.6486 10.185 21.1101 10.2772C21.2829 10.3131 21.2881 10.3054 21.3319 10.1338C21.5047 9.47826 21.6723 8.82273 21.845 8.16719C21.9997 7.57567 22.1596 6.98671 22.3169 6.39519C22.3839 6.13912 22.4536 5.88305 22.518 5.62698C22.5387 5.54504 22.5799 5.51175 22.6599 5.53736C22.9254 5.62442 23.2091 5.64747 23.4644 5.7755C23.5494 5.81903 23.6526 5.78831 23.7454 5.81391C24.0523 5.90098 24.3617 5.9778 24.6711 6.05718C24.8645 6.10839 25.045 6.20826 25.2539 6.20826C25.3596 6.20826 25.3931 6.27996 25.3544 6.37727C25.3029 6.51298 25.2874 6.65894 25.2178 6.7921C25.1688 6.8894 25.1868 7.02 25.1507 7.13267C24.978 7.69346 24.8542 8.2645 24.6969 8.83041C24.5396 9.39888 24.3926 9.96992 24.2353 10.5384C24.2147 10.6152 24.1992 10.692 24.1554 10.7637C24.0858 10.879 24.127 10.9455 24.2611 10.9737C24.9651 11.1222 25.669 11.2708 26.373 11.4193C26.5483 11.4551 26.5483 11.4551 26.5921 11.2759C26.7752 10.5256 26.9609 9.77531 27.1439 9.02502C27.309 8.34644 27.474 7.66786 27.639 6.98671C27.6416 6.97135 27.6468 6.95854 27.6519 6.94574C27.7061 6.76649 27.7061 6.76393 27.8943 6.81771C28.7504 7.05841 29.6064 7.30168 30.4625 7.54494C30.6482 7.59872 30.6559 7.60384 30.5992 7.78821C30.5218 8.03916 30.4703 8.29779 30.38 8.54617C30.3233 8.70237 30.3155 8.88931 30.264 9.05831C30.1583 9.40657 30.0989 9.76762 29.9881 10.1159C29.8669 10.4923 29.8076 10.8841 29.6864 11.2579C29.5807 11.5908 29.5214 11.934 29.4182 12.2669C29.3744 12.4051 29.395 12.4384 29.5317 12.4845C29.6554 12.5281 29.7792 12.5716 29.9056 12.6023C30.478 12.7406 31.0195 12.9685 31.5404 13.2297C31.9374 13.4269 32.3474 13.5984 32.7265 13.8289C33.3634 14.2155 33.9616 14.6483 34.4618 15.2014C34.8332 15.6111 35.1374 16.0618 35.3385 16.5765C35.6196 17.2858 35.7124 18.0233 35.6299 18.7813C35.5603 19.4214 35.4597 20.0565 35.2096 20.6531C34.9904 21.1755 34.73 21.6748 34.3355 22.0948C33.7321 22.735 32.9998 23.1549 32.1515 23.3828C32.0664 23.4059 31.9813 23.4315 31.8962 23.4597C31.891 23.4597 31.8859 23.4699 31.8781 23.4801H31.8859ZM24.8361 31.2057C25.1997 31.2237 25.5633 31.2057 25.9269 31.1648C26.3936 31.1136 26.8448 31.0035 27.278 30.8114C28.5957 30.2276 29.0778 28.7347 28.7504 27.5696C28.6008 27.0344 28.2708 26.6093 27.8608 26.2431C27.4379 25.8641 26.9557 25.5748 26.4452 25.329C25.6071 24.9244 24.7253 24.6401 23.8279 24.402C23.3638 24.2791 22.8945 24.1715 22.4226 24.0717C22.0462 23.9897 21.6697 23.9052 21.2984 23.8079C21.2159 23.7874 21.1746 23.8028 21.154 23.8847C21.0663 24.2381 20.9864 24.5966 20.8781 24.9449C20.8342 25.0883 20.811 25.2393 20.7852 25.3879C20.7002 25.8616 20.5248 26.3097 20.4423 26.786C20.3649 27.2316 20.218 27.6643 20.1226 28.1073C20.0426 28.4786 19.9421 28.8448 19.8389 29.211C19.7822 29.4133 19.7487 29.6232 19.7048 29.8307C19.6816 29.9382 19.6533 30.0458 19.6249 30.1533C19.6069 30.225 19.6326 30.266 19.7074 30.2788C19.9318 30.3172 20.1509 30.3761 20.3624 30.4529C20.5429 30.5169 20.7285 30.5246 20.9116 30.5681C21.301 30.6578 21.6903 30.7525 22.0823 30.837C22.9899 31.0316 23.9079 31.1725 24.8361 31.2083V31.2057ZM26.3807 21.6492C26.9402 21.6467 27.4766 21.5929 27.9974 21.429C29.8488 20.8503 30.2279 18.6814 29.2661 17.4676C29.0289 17.1706 28.7529 16.9145 28.4435 16.6969C27.9639 16.3588 27.4327 16.113 26.8887 15.8954C25.8237 15.4728 24.7021 15.2449 23.6062 14.9377C23.5159 14.9121 23.485 14.9505 23.4669 15.0247C23.3947 15.3064 23.3354 15.5932 23.2374 15.8672C23.1652 16.0644 23.1575 16.2743 23.1085 16.4766C22.91 17.25 22.7217 18.0259 22.5155 18.7966C22.4845 18.917 22.4819 19.0373 22.4484 19.1577C22.3117 19.6698 22.1906 20.1871 22.0642 20.7018C22.0281 20.8529 22.0307 20.858 22.1802 20.8964C22.6831 21.0244 23.1859 21.1576 23.6887 21.2779C24.5783 21.4854 25.4782 21.6339 26.3807 21.6492Z" fill="white"/>
<path d="M24.8389 31.2039C23.908 31.1681 22.9927 31.0272 22.085 30.8326C21.6931 30.7481 21.3037 30.6534 20.9144 30.5637C20.7313 30.5228 20.5456 30.5151 20.3651 30.4485C20.1537 30.3717 19.9345 30.3128 19.7102 30.2744C19.6354 30.2616 19.6096 30.2206 19.6277 30.1489C19.656 30.0414 19.6844 29.9338 19.7076 29.8263C19.754 29.6189 19.785 29.4114 19.8417 29.2066C19.9448 28.8404 20.0428 28.4742 20.1253 28.1029C20.2207 27.6599 20.3677 27.2272 20.4451 26.7816C20.5276 26.3079 20.7029 25.8572 20.788 25.3835C20.8138 25.2349 20.837 25.0839 20.8808 24.9405C20.9891 24.5896 21.0665 24.2337 21.1567 23.8803C21.1774 23.7958 21.2186 23.7805 21.3011 23.8035C21.6724 23.9008 22.0489 23.9853 22.4254 24.0673C22.8973 24.1697 23.3665 24.2747 23.8307 24.3976C24.728 24.6357 25.6099 24.9174 26.4479 25.3246C26.9559 25.5704 27.4406 25.8598 27.8635 26.2387C28.2735 26.6049 28.6036 27.03 28.7531 27.5652C29.0806 28.7303 28.5984 30.2232 27.2808 30.807C26.8476 30.9991 26.3963 31.1066 25.9296 31.1604C25.5686 31.2014 25.205 31.2193 24.8389 31.2014V31.2039Z" fill="#FF9416"/>
<path d="M26.3838 21.6442C25.4813 21.6289 24.5814 21.4804 23.6918 21.2729C23.1864 21.1552 22.6836 21.022 22.1834 20.8914C22.0338 20.853 22.0312 20.8479 22.0673 20.6968C22.1937 20.1821 22.3149 19.6648 22.4515 19.1527C22.4825 19.0323 22.485 18.912 22.5186 18.7916C22.7249 18.0209 22.9157 17.245 23.1116 16.4716C23.1632 16.2693 23.1709 16.0594 23.2406 15.8622C23.3385 15.5882 23.3979 15.3014 23.47 15.0197C23.4881 14.9455 23.519 14.9071 23.6093 14.9327C24.7078 15.24 25.8294 15.4679 26.8918 15.8904C27.4358 16.1055 27.9644 16.3513 28.4466 16.6919C28.7561 16.9095 29.032 17.1656 29.2692 17.4626C30.231 18.6764 29.8519 20.8453 28.0006 21.424C27.4771 21.5879 26.9408 21.6417 26.3838 21.6442Z" fill="#FF9416"/>
<path d="M23.5344 0C24.7696 0.00512139 25.9969 0.102428 27.2166 0.302162C30.0117 0.757965 32.6496 1.66701 35.0992 3.08564C40.0887 5.97154 43.5542 10.1301 45.5114 15.5255C45.893 16.5728 46.1766 17.6509 46.3881 18.7443C46.713 20.4215 46.8548 22.1141 46.7955 23.8221C46.6846 26.982 45.9497 29.9908 44.5831 32.846C43.5439 35.0124 42.2082 36.979 40.5477 38.7228C37.2832 42.149 33.3329 44.3973 28.7018 45.4523C27.4512 45.7365 26.1826 45.8953 24.8985 45.967C23.7897 46.0285 22.6861 46.0028 21.5825 45.9004C19.9142 45.7442 18.2819 45.4088 16.6832 44.9069C13.1429 43.7955 10.2833 41.9749 8.12506 40.0313C7.70476 39.6523 7.29477 39.258 6.90541 38.8483C3.92719 35.7165 1.96492 32.0471 1.02891 27.8373C0.624077 26.0038 0.453893 24.1473 0.510621 22.2755C0.538985 21.287 0.639549 20.3037 0.791683 19.3256C1.06243 17.5971 1.53172 15.9224 2.19441 14.304C3.17684 11.9021 4.53573 9.72807 6.26593 7.78451C6.48768 7.53612 6.7146 7.29285 6.94667 7.05215C8.22304 5.72571 9.64898 4.58108 11.2038 3.59009C11.9619 3.10868 12.751 2.68617 13.558 2.29182C13.9294 2.11001 14.3058 1.93588 14.6875 1.77968C16.3532 1.09342 18.0705 0.586399 19.8549 0.302162C21.0745 0.107549 22.2993 0.00512139 23.5344 0ZM31.8889 23.479C31.8889 23.479 31.9018 23.4585 31.907 23.4585C31.9921 23.4329 32.0771 23.4047 32.1622 23.3817C33.0106 23.1538 33.7455 22.7338 34.3463 22.0937C34.7408 21.6737 35.0012 21.1744 35.2204 20.652C35.4705 20.0553 35.5711 19.4203 35.6407 18.7801C35.7232 18.0196 35.6278 17.2847 35.3493 16.5754C35.1456 16.0607 34.8439 15.61 34.4726 15.2003C33.9698 14.6472 33.3742 14.2144 32.7373 13.8277C32.3556 13.5973 31.9456 13.4283 31.5511 13.2285C31.0303 12.9673 30.4888 12.7369 29.9163 12.6012C29.79 12.5704 29.6662 12.5269 29.5424 12.4834C29.4084 12.4347 29.3877 12.404 29.429 12.2657C29.5321 11.9328 29.5914 11.5897 29.6972 11.2568C29.8183 10.8804 29.8776 10.4912 29.9988 10.1147C30.1097 9.76904 30.1716 9.40799 30.2747 9.05717C30.3237 8.88817 30.3341 8.70123 30.3908 8.54503C30.481 8.29408 30.5326 8.03802 30.61 7.78707C30.6667 7.6027 30.6589 7.59758 30.4733 7.5438C29.6172 7.30054 28.7611 7.05983 27.9051 6.81657C27.7168 6.76279 27.7168 6.76535 27.6627 6.9446C27.6575 6.95996 27.6524 6.97277 27.6498 6.98557C27.4848 7.66415 27.3197 8.34274 27.1547 9.02388C26.9716 9.77417 26.786 10.5244 26.6029 11.2747C26.5591 11.454 26.5591 11.454 26.3837 11.4181C25.6798 11.2696 24.9758 11.1211 24.2719 10.9726C24.1378 10.9444 24.0966 10.8778 24.1662 10.7626C24.21 10.6883 24.2255 10.6115 24.2461 10.5373C24.4034 9.96878 24.5504 9.39774 24.7077 8.82927C24.865 8.26592 24.9887 7.69232 25.1615 7.13153C25.1976 7.01886 25.1795 6.88826 25.2285 6.79096C25.2982 6.65524 25.3136 6.51184 25.3652 6.37613C25.4013 6.27882 25.3704 6.20712 25.2646 6.20712C25.0558 6.20712 24.8753 6.10725 24.6819 6.05604C24.3725 5.97666 24.063 5.89984 23.7562 5.81277C23.6608 5.78717 23.5602 5.81533 23.4751 5.77436C23.2199 5.64633 22.9362 5.62328 22.6706 5.53622C22.5907 5.51061 22.5494 5.54134 22.5288 5.62584C22.4643 5.88191 22.3973 6.13798 22.3277 6.39405C22.1704 6.98557 22.0105 7.57453 21.8558 8.16605C21.683 8.82159 21.5154 9.47713 21.3427 10.1327C21.2963 10.3042 21.2937 10.3094 21.1209 10.2761C20.6594 10.1839 20.1978 10.0891 19.744 9.96878C19.5893 9.92781 19.4268 9.90732 19.2695 9.88171C19.0839 9.85355 18.9163 9.76648 18.7358 9.72551C18.2304 9.61284 17.743 9.43103 17.2247 9.36702C17.1629 9.35933 17.0855 9.34397 17.0185 9.31836C16.495 9.11351 15.9432 9.01108 15.3966 8.89841C15.3321 8.8856 15.2805 8.89329 15.2573 8.98803C15.0871 9.65125 14.9066 10.3145 14.7287 10.9751C14.6514 11.267 14.5766 11.5615 14.4941 11.8509C14.4683 11.9405 14.4786 11.9917 14.5792 12.0071C14.6075 12.0122 14.6359 12.0225 14.6642 12.0301C15.3476 12.1966 16.0335 12.363 16.7168 12.532C16.8818 12.573 17.0417 12.6319 17.1912 12.7164C17.7301 13.0211 18.0396 13.7279 17.8977 14.3117C17.6708 15.2336 17.4465 16.1529 17.2196 17.0747C16.8844 18.4319 16.5492 19.789 16.2139 21.1462C15.9432 22.2473 15.6673 23.3458 15.3966 24.4469C15.1593 25.4098 14.9273 26.3751 14.6875 27.3405C14.5946 27.7169 14.3445 27.9474 13.9758 28.0601C13.7308 28.1343 13.491 28.101 13.2512 28.0422C12.6246 27.8859 11.998 27.7297 11.3714 27.5761C11.1961 27.5326 11.1935 27.5351 11.1239 27.6913C10.995 27.9807 10.8686 28.2701 10.7397 28.562C10.4225 29.2841 10.1028 30.0036 9.78564 30.7258C9.72375 30.8692 9.72376 30.8743 9.87847 30.9152C11.2013 31.2789 12.5241 31.645 13.8468 32.0035C14.3703 32.1444 14.9066 32.2289 15.4249 32.3825C15.6106 32.4363 15.6131 32.4414 15.5667 32.6258C15.4455 33.1021 15.3218 33.5784 15.198 34.0547C14.9298 35.0969 14.6617 36.1365 14.3935 37.1787C14.3522 37.3426 14.3522 37.3477 14.4915 37.3887C15.3837 37.6422 16.2758 37.8931 17.1654 38.1492C17.2712 38.1799 17.315 38.1441 17.333 38.0442C17.3666 37.8573 17.4336 37.678 17.4568 37.486C17.48 37.3042 17.5703 37.1326 17.6193 36.9508C17.676 36.7408 17.7147 36.5257 17.7688 36.3158C17.8075 36.1698 17.8616 36.0264 17.9055 35.883C17.9416 35.7703 17.9287 35.6525 17.9674 35.5399C18.037 35.335 18.086 35.1225 18.1582 34.9176C18.2072 34.7793 18.2072 34.6334 18.2484 34.4925C18.3387 34.1852 18.4599 33.8882 18.4805 33.563C18.4882 33.4427 18.5939 33.3838 18.7126 33.4017C18.808 33.4145 18.9034 33.4298 18.9988 33.4452C19.6125 33.5502 20.2133 33.709 20.8166 33.8652C20.9739 33.9061 20.9765 33.9036 20.9327 34.0726C20.8038 34.5719 20.6723 35.0687 20.5407 35.568C20.2829 36.5513 20.0225 37.5321 19.7646 38.5154C19.7156 38.7049 19.7156 38.71 19.8935 38.7663C20.7187 39.0301 21.5438 39.2913 22.3689 39.5499C22.6655 39.6421 22.668 39.6395 22.748 39.3527C23.1605 37.8752 23.5731 36.3977 23.9857 34.9227C24.0372 34.7384 24.0398 34.7384 24.2281 34.7691C25.195 34.9304 26.1671 35.0456 27.147 35.0917C28.1217 35.1353 29.0912 35.0917 30.0478 34.8843C31.8373 34.4951 33.1782 33.5144 34.0291 31.8934C34.4133 31.1585 34.6866 30.3826 34.8826 29.576C35.0218 29.005 35.1069 28.4339 35.094 27.8501C35.0708 26.7695 34.7047 25.8169 33.9724 25.0103C33.4386 24.4213 32.7914 23.9809 32.0952 23.6045C32.0256 23.5686 31.9456 23.5481 31.8966 23.479H31.8889Z" fill="#FF9416"/>
</svg>
