<svg width="46" height="25" viewBox="0 0 46 25" fill="none" xmlns="http://www.w3.org/2000/svg">
<path d="M12.6554 0C12.0627 0.00278352 11.475 0.0570621 10.8897 0.164227C10.0347 0.320104 9.20937 0.595673 8.41003 0.967272C8.2269 1.05217 8.04748 1.14681 7.86806 1.24562C7.48076 1.45995 7.10213 1.68959 6.73834 1.95125C5.99221 2.48846 5.30794 3.11197 4.69544 3.8329C4.58408 3.96373 4.47519 4.09595 4.36878 4.23095C3.53974 5.28729 2.88641 6.46889 2.41497 7.77436C2.09696 8.65395 1.87176 9.56416 1.74184 10.5036C1.6676 11.0353 1.62058 11.5697 1.60696 12.1069C1.57974 13.1257 1.66141 14.1333 1.85568 15.1284C2.30484 17.4165 3.24648 19.4095 4.67564 21.113C4.86249 21.3357 5.05799 21.55 5.26092 21.756C6.2966 22.8123 7.66884 23.8019 9.36775 24.4059C10.1349 24.6787 10.9182 24.861 11.7188 24.9459C12.2484 25.0016 12.7779 25.0155 13.31 24.9821C13.925 24.9445 14.5338 24.8582 15.1351 24.7023C17.3575 24.1275 19.2531 22.907 20.8196 21.0448C21.6165 20.097 22.2574 19.0281 22.7561 17.8507C23.4131 16.2989 23.7658 14.6636 23.8178 12.9461C23.8462 12.0178 23.7782 11.0979 23.6223 10.1863C23.5208 9.592 23.3835 9.00607 23.2016 8.43684C22.2624 5.5044 20.5994 3.24419 18.2051 1.67568C17.0308 0.906035 15.765 0.41196 14.4224 0.162836C13.8371 0.0556703 13.2481 0.00278352 12.6554 0Z" fill="white"/>
<path d="M17.6593 12.7618C17.6857 12.7993 17.7303 12.8105 17.7664 12.83C18.1422 13.0346 18.4916 13.274 18.7797 13.5941C19.175 14.0325 19.3726 14.5489 19.3851 15.1376C19.3921 15.455 19.3462 15.7653 19.271 16.0757C19.1652 16.5141 19.0191 16.9359 18.8103 17.3353C18.351 18.2163 17.6273 18.7494 16.6613 18.961C16.145 19.0737 15.6216 19.0974 15.0955 19.0737C14.5666 19.0487 14.0419 18.9874 13.52 18.8983C13.4184 18.8816 13.417 18.8816 13.3892 18.9818C13.1665 19.7849 12.9438 20.588 12.7211 21.3897C12.6779 21.5456 12.6779 21.5484 12.5165 21.4969C12.0711 21.3563 11.6257 21.2143 11.1803 21.071C11.0843 21.0404 11.0843 21.0376 11.1107 20.9346C11.2499 20.4001 11.3905 19.867 11.5297 19.3326C11.6007 19.0612 11.6702 18.7912 11.7412 18.5198C11.7649 18.4279 11.7649 18.4293 11.6786 18.407C11.3543 18.3221 11.0286 18.2358 10.6974 18.1788C10.6459 18.1704 10.5944 18.1621 10.5429 18.1551C10.4774 18.1467 10.4204 18.1788 10.4176 18.2428C10.4065 18.4195 10.3411 18.5824 10.2923 18.748C10.2701 18.8246 10.2701 18.9039 10.2436 18.9791C10.2047 19.0904 10.1796 19.2059 10.1406 19.3173C10.1198 19.3785 10.1253 19.4411 10.1072 19.5038C10.0836 19.5817 10.0543 19.6597 10.0335 19.739C10.0042 19.8531 9.98335 19.97 9.95273 20.0842C9.92629 20.1816 9.87757 20.2762 9.86505 20.3751C9.85252 20.4795 9.81633 20.5769 9.79824 20.6785C9.7885 20.7328 9.76483 20.7509 9.70777 20.7355C9.2262 20.5964 8.74463 20.46 8.26445 20.3222C8.18929 20.3013 8.18929 20.2971 8.21156 20.208C8.35631 19.6416 8.50106 19.0765 8.64581 18.51C8.71261 18.2511 8.77942 17.9923 8.84484 17.7334C8.86989 17.6332 8.86989 17.6318 8.76829 17.6012C8.48714 17.5176 8.19764 17.4717 7.91649 17.3952C7.20109 17.2003 6.48847 17.0013 5.77447 16.8036C5.69096 16.78 5.69096 16.7772 5.72436 16.7006C5.89556 16.3081 6.06814 15.9156 6.23934 15.5245C6.30893 15.3673 6.37713 15.2086 6.44672 15.0513C6.4843 14.9664 6.48569 14.965 6.58033 14.9887C6.91855 15.0722 7.25676 15.1571 7.59498 15.242C7.72442 15.274 7.85386 15.2921 7.98608 15.2517C8.18511 15.1905 8.32012 15.0652 8.37022 14.8606C8.49966 14.3373 8.62493 13.8126 8.75298 13.2879C8.89912 12.6894 9.04665 12.0909 9.19419 11.4938C9.37512 10.7561 9.55606 10.0185 9.737 9.28081C9.85948 8.77975 9.98057 8.28009 10.103 7.77903C10.181 7.46169 10.0126 7.07755 9.72169 6.91192C9.64096 6.86599 9.55467 6.83398 9.46559 6.81171C9.09676 6.71985 8.72653 6.62938 8.3577 6.53891C8.34239 6.53473 8.32708 6.52778 8.31177 6.52638C8.25749 6.51803 8.25192 6.49159 8.26584 6.44148C8.31038 6.28421 8.35074 6.12415 8.39249 5.96548C8.48853 5.60499 8.58596 5.2459 8.67782 4.88542C8.69174 4.83253 8.71818 4.82835 8.75298 4.83671C9.04804 4.89795 9.34589 4.95362 9.62844 5.06496C9.66462 5.07888 9.70638 5.08723 9.73978 5.09141C10.0195 5.12481 10.2826 5.22502 10.5554 5.28627C10.6528 5.30853 10.7433 5.35586 10.8435 5.37117C10.9298 5.38508 11.0161 5.39622 11.0996 5.41849C11.346 5.4839 11.5937 5.5354 11.8428 5.58551C11.9361 5.60499 11.9389 5.60082 11.9625 5.50757C12.0558 5.15126 12.1463 4.79495 12.2395 4.43864C12.323 4.11713 12.4093 3.79701 12.4942 3.4755C12.5304 3.33632 12.568 3.19713 12.6028 3.05795C12.6139 3.01341 12.6362 2.99532 12.6793 3.00924C12.8227 3.05656 12.9758 3.06908 13.1136 3.13868C13.1595 3.16234 13.2152 3.14564 13.2653 3.15955C13.4309 3.20688 13.5979 3.24863 13.7649 3.29178C13.8693 3.31961 13.9668 3.37389 14.0795 3.37389C14.1366 3.37389 14.1547 3.41287 14.1338 3.46576C14.1059 3.53952 14.0976 3.61886 14.06 3.69123C14.0336 3.74412 14.0433 3.8151 14.0238 3.87634C13.9306 4.18115 13.8638 4.49153 13.7789 4.79913C13.694 5.10811 13.6146 5.41849 13.5297 5.72747C13.5186 5.76923 13.5102 5.81098 13.4866 5.84996C13.449 5.91259 13.4713 5.94877 13.5436 5.96408C13.9236 6.04481 14.3036 6.12554 14.6836 6.20626C14.7782 6.22575 14.7782 6.22575 14.8019 6.12832C14.9007 5.72052 15.0009 5.31271 15.0997 4.9049C15.1888 4.53607 15.2779 4.16724 15.3669 3.79701C15.3683 3.78866 15.3711 3.7817 15.3739 3.77474C15.4031 3.67731 15.4031 3.67592 15.5047 3.70515C15.9668 3.83598 16.4289 3.9682 16.891 4.10043C16.9912 4.12966 16.9954 4.13244 16.9648 4.23265C16.923 4.36905 16.8952 4.50963 16.8465 4.64463C16.8158 4.72953 16.8117 4.83114 16.7838 4.923C16.7268 5.11229 16.6947 5.30853 16.6349 5.49782C16.5695 5.70242 16.5375 5.91537 16.4721 6.11858C16.415 6.29952 16.383 6.48602 16.3273 6.66696C16.3036 6.74212 16.3148 6.76021 16.3885 6.78526C16.4553 6.80892 16.5222 6.83259 16.5904 6.84929C16.8993 6.92445 17.1916 7.04832 17.4728 7.19028C17.6871 7.29746 17.9084 7.39071 18.113 7.51597C18.4568 7.72614 18.7797 7.96136 19.0497 8.26199C19.2501 8.48468 19.4144 8.72965 19.5229 9.0094C19.6746 9.39494 19.7248 9.79578 19.6802 10.2078C19.6426 10.5557 19.5884 10.9009 19.4533 11.2252C19.335 11.5091 19.1945 11.7805 18.9815 12.0088C18.6558 12.3567 18.2605 12.585 17.8026 12.7089C17.7567 12.7214 17.7108 12.7353 17.6648 12.7506C17.6621 12.7506 17.6593 12.7562 17.6551 12.7618H17.6593ZM13.854 16.9609C14.0503 16.9707 14.2465 16.9609 14.4428 16.9386C14.6947 16.9108 14.9383 16.851 15.1721 16.7466C15.8833 16.4292 16.1436 15.6178 15.9668 14.9845C15.8861 14.6936 15.7079 14.4626 15.4866 14.2636C15.2584 14.0576 14.9981 13.9003 14.7225 13.7667C14.2702 13.5468 13.7942 13.3923 13.3098 13.2628C13.0593 13.196 12.806 13.1376 12.5513 13.0833C12.3481 13.0387 12.1449 12.9928 11.9444 12.9399C11.8999 12.9288 11.8776 12.9371 11.8665 12.9817C11.8192 13.1737 11.776 13.3686 11.7176 13.5579C11.6939 13.6358 11.6814 13.718 11.6675 13.7987C11.6215 14.0562 11.5269 14.2997 11.4823 14.5586C11.4406 14.8008 11.3613 15.036 11.3098 15.2768C11.2666 15.4786 11.2123 15.6776 11.1567 15.8767C11.126 15.9866 11.1079 16.1008 11.0843 16.2135C11.0718 16.272 11.0565 16.3304 11.0411 16.3889C11.0314 16.4278 11.0453 16.4501 11.0857 16.4571C11.2068 16.4779 11.3251 16.51 11.4392 16.5517C11.5366 16.5865 11.6368 16.5907 11.7357 16.6143C11.9458 16.6631 12.156 16.7146 12.3676 16.7605C12.8575 16.8663 13.353 16.9428 13.854 16.9623V16.9609ZM14.6877 11.7666C14.9898 11.7652 15.2793 11.736 15.5604 11.6469C16.5597 11.3324 16.7643 10.1535 16.2452 9.49376C16.1171 9.33231 15.9682 9.19312 15.8012 9.07482C15.5423 8.8911 15.2556 8.75748 14.9619 8.63918C14.3871 8.40953 13.7816 8.28565 13.1901 8.11863C13.1414 8.10472 13.1247 8.12559 13.115 8.16596C13.076 8.31906 13.044 8.47494 12.9911 8.62387C12.9521 8.73104 12.9479 8.84517 12.9215 8.95512C12.8143 9.37545 12.7127 9.79718 12.6014 10.2161C12.5847 10.2815 12.5833 10.3469 12.5652 10.4124C12.4914 10.6907 12.426 10.9719 12.3578 11.2516C12.3383 11.3338 12.3397 11.3365 12.4204 11.3574C12.6918 11.427 12.9633 11.4994 13.2347 11.5648C13.7148 11.6775 14.2006 11.7583 14.6877 11.7666Z" fill="white"/>
<path d="M13.8555 16.9607C13.3531 16.9413 12.859 16.8647 12.3691 16.7589C12.1575 16.713 11.9473 16.6615 11.7372 16.6128C11.6384 16.5905 11.5381 16.5863 11.4407 16.5501C11.3266 16.5084 11.2083 16.4764 11.0872 16.4555C11.0468 16.4485 11.0329 16.4263 11.0427 16.3873C11.058 16.3288 11.0733 16.2704 11.0858 16.2119C11.1109 16.0992 11.1276 15.9865 11.1582 15.8751C11.2139 15.6761 11.2667 15.4771 11.3113 15.2752C11.3628 15.0344 11.4421 14.7992 11.4839 14.5571C11.5284 14.2996 11.623 14.0546 11.669 13.7971C11.6829 13.7164 11.6954 13.6343 11.7191 13.5563C11.7775 13.3656 11.8193 13.1722 11.868 12.9801C11.8791 12.9342 11.9014 12.9258 11.946 12.9384C12.1464 12.9912 12.3496 13.0372 12.5528 13.0817C12.8075 13.1374 13.0608 13.1945 13.3113 13.2613C13.7957 13.3907 14.2717 13.5438 14.724 13.7651C14.9982 13.8987 15.2599 14.056 15.4882 14.262C15.7095 14.461 15.8876 14.6921 15.9683 14.983C16.1451 15.6162 15.8848 16.4277 15.1736 16.745C14.9398 16.8494 14.6962 16.9078 14.4443 16.9371C14.2494 16.9593 14.0532 16.9691 13.8555 16.9593V16.9607Z" fill="#FF9416"/>
<path d="M14.6894 11.7651C14.2023 11.7567 13.7165 11.676 13.2364 11.5633C12.9636 11.4992 12.6921 11.4269 12.4221 11.3559C12.3414 11.335 12.34 11.3322 12.3595 11.2501C12.4277 10.9703 12.4931 10.6892 12.5669 10.4108C12.5836 10.3454 12.585 10.28 12.6031 10.2146C12.7144 9.79564 12.8174 9.37392 12.9232 8.95359C12.951 8.84363 12.9552 8.7295 12.9928 8.62233C13.0457 8.47341 13.0777 8.31752 13.1167 8.16442C13.1264 8.12406 13.1431 8.10318 13.1918 8.1171C13.7847 8.28412 14.3902 8.40799 14.9636 8.63764C15.2573 8.75456 15.5426 8.88817 15.8029 9.07329C15.9699 9.19159 16.1188 9.33077 16.2469 9.49222C16.766 10.152 16.5614 11.3308 15.5621 11.6454C15.2796 11.7345 14.9901 11.7637 14.6894 11.7651Z" fill="#FF9416"/>
<path d="M12.7866 0C13.4532 0.00278336 14.1157 0.0556672 14.7739 0.164218C16.2825 0.411938 17.7062 0.905984 19.0283 1.67698C21.7212 3.2454 23.5916 5.50549 24.6479 8.43776C24.8539 9.00696 25.007 9.59286 25.1211 10.1871C25.2964 11.0987 25.373 12.0186 25.341 12.9468C25.2811 14.6641 24.8845 16.2994 24.1469 17.8511C23.5861 19.0285 22.8652 20.0973 21.9689 21.045C20.2071 22.9071 18.075 24.129 15.5755 24.7023C14.9006 24.8568 14.2159 24.9431 13.5228 24.9821C12.9244 25.0155 12.3287 25.0015 11.7331 24.9459C10.8327 24.861 9.95175 24.6787 9.08891 24.4059C7.17813 23.8019 5.63476 22.8124 4.46992 21.7561C4.24308 21.5502 4.0218 21.3359 3.81166 21.1132C2.20426 19.4112 1.14519 17.4169 0.640014 15.129C0.42152 14.1325 0.329669 13.1236 0.360286 12.1062C0.375594 11.569 0.42987 11.0346 0.511979 10.503C0.658106 9.56363 0.911392 8.65347 1.26905 7.77393C1.79928 6.46853 2.5327 5.287 3.46652 4.23071C3.5862 4.09572 3.70867 3.96351 3.83392 3.83269C4.5228 3.1118 5.2924 2.48972 6.13159 1.95114C6.54074 1.6895 6.9666 1.45987 7.40219 1.24555C7.60259 1.14675 7.80578 1.05211 8.01175 0.967218C8.91077 0.594248 9.83763 0.318695 10.8007 0.164218C11.4589 0.0584506 12.12 0.00278336 12.7866 0ZM17.2957 12.7603C17.2957 12.7603 17.3026 12.7492 17.3054 12.7492C17.3513 12.7353 17.3972 12.72 17.4432 12.7074C17.901 12.5836 18.2977 12.3553 18.6219 12.0074C18.8349 11.7792 18.9754 11.5078 19.0937 11.2239C19.2287 10.8996 19.283 10.5545 19.3205 10.2066C19.3651 9.79326 19.3136 9.39385 19.1633 9.00835C19.0533 8.72862 18.8905 8.48369 18.6901 8.26102C18.4187 7.96042 18.0973 7.72522 17.7535 7.51508C17.5475 7.38983 17.3263 7.29798 17.1133 7.18942C16.8322 7.04747 16.54 6.92222 16.231 6.84846C16.1628 6.83176 16.096 6.8081 16.0292 6.78444C15.9569 6.758 15.9457 6.7413 15.968 6.66615C16.0237 6.48523 16.0557 6.29875 16.1127 6.11783C16.1781 5.91325 16.2101 5.70172 16.2756 5.49714C16.3354 5.30926 16.3688 5.11304 16.4245 4.92238C16.4509 4.83052 16.4565 4.72893 16.4871 4.64404C16.5358 4.50765 16.5636 4.36849 16.6054 4.2321C16.636 4.1319 16.6318 4.12912 16.5316 4.09989C16.0696 3.96768 15.6075 3.83686 15.1455 3.70465C15.0439 3.67543 15.0439 3.67682 15.0147 3.77424C15.0119 3.78259 15.0091 3.78955 15.0077 3.79651C14.9187 4.1653 14.8296 4.5341 14.7405 4.90428C14.6417 5.31205 14.5415 5.71981 14.4427 6.12757C14.419 6.22499 14.419 6.22499 14.3244 6.20551C13.9445 6.12479 13.5646 6.04407 13.1846 5.96335C13.1123 5.94804 13.09 5.91186 13.1276 5.84924C13.1512 5.80888 13.1596 5.76713 13.1707 5.72677C13.2556 5.41781 13.3349 5.10747 13.4198 4.79852C13.5047 4.49235 13.5715 4.18061 13.6648 3.87583C13.6842 3.8146 13.6745 3.74362 13.7009 3.69074C13.7385 3.61698 13.7469 3.53904 13.7747 3.46529C13.7942 3.4124 13.7775 3.37343 13.7204 3.37343C13.6077 3.37343 13.5103 3.31916 13.4059 3.29133C13.2389 3.24818 13.0719 3.20643 12.9063 3.15912C12.8548 3.1452 12.8005 3.16051 12.7546 3.13824C12.6168 3.06866 12.4637 3.05613 12.3204 3.00881C12.2773 2.9949 12.255 3.0116 12.2439 3.05752C12.2091 3.19669 12.1729 3.33586 12.1353 3.47503C12.0504 3.79651 11.9641 4.11659 11.8806 4.43807C11.7874 4.79434 11.6969 5.15061 11.6037 5.50688C11.5786 5.60012 11.5772 5.60291 11.484 5.58482C11.2349 5.53472 10.9858 5.48322 10.7408 5.41781C10.6573 5.39555 10.5697 5.38441 10.4848 5.3705C10.3846 5.35519 10.2941 5.30787 10.1967 5.2856C9.92392 5.22437 9.66089 5.12556 9.38116 5.09077C9.34776 5.08659 9.30601 5.07824 9.26983 5.06433C8.98732 4.95299 8.6895 4.89733 8.39446 4.83609C8.35967 4.82913 8.33184 4.83331 8.31931 4.8848C8.22746 5.24525 8.13004 5.60569 8.03402 5.96474C7.99226 6.1234 7.95191 6.28344 7.90737 6.4407C7.89346 6.48941 7.89902 6.51724 7.9533 6.52559C7.96861 6.52838 7.98391 6.53394 7.99922 6.53812C8.36802 6.62858 8.73821 6.71904 9.107 6.81089C9.19607 6.83315 9.28235 6.86516 9.36307 6.91109C9.65393 7.0767 9.82093 7.4608 9.74439 7.7781C9.62192 8.27911 9.50085 8.77872 9.37838 9.27973C9.19746 10.0173 9.01654 10.7549 8.83562 11.4925C8.6895 12.0909 8.54059 12.688 8.39446 13.2864C8.26643 13.8097 8.14117 14.3343 8.01175 14.859C7.96165 15.0636 7.82665 15.1888 7.62764 15.25C7.49543 15.2904 7.36601 15.2723 7.23658 15.2403C6.8984 15.1554 6.56023 15.0705 6.22205 14.987C6.12741 14.9634 6.12602 14.9647 6.08845 15.0496C6.01886 15.2069 5.95067 15.3642 5.88108 15.5228C5.70991 15.9153 5.53734 16.3063 5.36616 16.6988C5.33276 16.7767 5.33276 16.7795 5.41626 16.8018C6.1302 16.9994 6.84413 17.1984 7.55806 17.3932C7.84057 17.4698 8.13004 17.5157 8.40977 17.5992C8.50997 17.6284 8.51136 17.6312 8.48631 17.7314C8.4209 17.9903 8.3541 18.2491 8.2873 18.508C8.14257 19.0744 7.99783 19.6394 7.8531 20.2058C7.83083 20.2949 7.83083 20.2977 7.90598 20.3199C8.3875 20.4577 8.86902 20.5941 9.34915 20.7333C9.40621 20.75 9.42987 20.7305 9.43961 20.6762C9.4577 20.5746 9.49389 20.4772 9.50641 20.3728C9.51894 20.274 9.56765 20.1808 9.59409 20.082C9.62471 19.9678 9.64558 19.8509 9.67481 19.7368C9.69568 19.6575 9.72491 19.5796 9.74857 19.5016C9.76805 19.4404 9.76109 19.3764 9.78197 19.3151C9.81954 19.2038 9.84598 19.0883 9.88495 18.977C9.91139 18.9018 9.91139 18.8225 9.93366 18.7459C9.98237 18.5789 10.0478 18.4175 10.0589 18.2408C10.0631 18.1754 10.1201 18.1433 10.1842 18.1531C10.2357 18.16 10.2871 18.1684 10.3386 18.1767C10.6699 18.2338 10.9941 18.3201 11.3198 18.405C11.4047 18.4272 11.4061 18.4259 11.3824 18.5177C11.3128 18.7891 11.2418 19.0591 11.1709 19.3304C11.0317 19.8649 10.8911 20.3979 10.752 20.9323C10.7255 21.0353 10.7255 21.038 10.8216 21.0687C11.2669 21.212 11.7122 21.354 12.1576 21.4945C12.3176 21.5446 12.319 21.5432 12.3621 21.3874C12.5848 20.5844 12.8075 19.7814 13.0302 18.9797C13.058 18.8795 13.0594 18.8795 13.161 18.8962C13.6828 18.9839 14.2075 19.0465 14.7364 19.0716C15.2624 19.0953 15.7857 19.0716 16.302 18.9589C17.2678 18.7473 17.9915 18.2143 18.4507 17.3334C18.6581 16.934 18.8056 16.5123 18.9114 16.0739C18.9865 15.7636 19.0325 15.4532 19.0255 15.1359C19.013 14.5486 18.8154 14.0309 18.4201 13.5925C18.1321 13.2725 17.7827 13.0331 17.407 12.8285C17.3694 12.809 17.3263 12.7979 17.2998 12.7603H17.2957Z" fill="#FF9416"/>
<g clip-path="url(#clip0_104_954)">
<path d="M32.9908 25C39.8943 25 45.4908 19.4036 45.4908 12.5C45.4908 5.59644 39.8943 0 32.9908 0C26.0872 0 20.4908 5.59644 20.4908 12.5C20.4908 19.4036 26.0872 25 32.9908 25Z" fill="#627EEA"/>
<path d="M33.3798 3.125V10.0547L39.2369 12.6719L33.3798 3.125Z" fill="white" fill-opacity="0.602"/>
<path d="M33.3798 3.125L27.522 12.6719L33.3798 10.0547V3.125Z" fill="white"/>
<path d="M33.3798 17.1625V21.871L39.2408 13.7625L33.3798 17.1625Z" fill="white" fill-opacity="0.602"/>
<path d="M33.3798 21.871V17.1617L27.522 13.7625L33.3798 21.871Z" fill="white"/>
<path d="M33.3798 16.0726L39.2369 12.6718L33.3798 10.0562V16.0726Z" fill="white" fill-opacity="0.2"/>
<path d="M27.522 12.6718L33.3798 16.0726V10.0562L27.522 12.6718Z" fill="white" fill-opacity="0.602"/>
</g>
<defs>
<clipPath id="clip0_104_954">
<rect width="25" height="25" fill="white" transform="translate(20.4908)"/>
</clipPath>
</defs>
</svg>
