<svg width="16" height="17" viewBox="0 0 16 17" fill="none" xmlns="http://www.w3.org/2000/svg">
<path d="M0.5 6H15.5M3.83333 1V2.66667M12.1667 1V2.66667M3 8.5H4.66667M7.16667 8.5H8.83333M11.3333 8.5H13M3 11H4.66667M7.16667 11H8.83333M11.3333 11H13M3 13.5H4.66667M7.16667 13.5H8.83333M11.3333 13.5H13M3.16667 16H12.8333C13.7667 16 14.2335 16 14.59 15.8183C14.9036 15.6586 15.1586 15.4036 15.3183 15.09C15.5 14.7335 15.5 14.2667 15.5 13.3333V5.33333C15.5 4.39991 15.5 3.9332 15.3183 3.57668C15.1586 3.26307 14.9036 3.00811 14.59 2.84832C14.2335 2.66667 13.7667 2.66667 12.8333 2.66667H3.16667C2.23325 2.66667 1.76653 2.66667 1.41002 2.84832C1.09641 3.00811 0.841442 3.26307 0.681658 3.57668C0.5 3.9332 0.5 4.39991 0.5 5.33333V13.3333C0.5 14.2667 0.5 14.7335 0.681658 15.09C0.841442 15.4036 1.09641 15.6586 1.41002 15.8183C1.76653 16 2.23324 16 3.16667 16Z" stroke="#9C9C9C" stroke-linecap="round"/>
</svg>
