<svg width="41" height="41" viewBox="0 0 41 41" fill="none" xmlns="http://www.w3.org/2000/svg">
<path fill-rule="evenodd" clip-rule="evenodd" d="M40.8262 20.5C40.8262 31.5457 31.8719 40.5 20.8262 40.5C9.78048 40.5 0.826172 31.5457 0.826172 20.5C0.826172 9.4543 9.78048 0.5 20.8262 0.5C31.8719 0.5 40.8262 9.4543 40.8262 20.5ZM7.26526 19.0366H34.3872V24.5899C34.3873 25.8007 34.3873 26.8439 34.2759 27.6794C34.1563 28.5747 33.8868 29.433 33.1956 30.1291C32.5045 30.8252 31.6524 31.0966 30.7634 31.2171C29.9339 31.3294 28.8981 31.3294 27.6959 31.3292H13.9564C12.7543 31.3294 11.7185 31.3294 10.889 31.2171C10.0001 31.0966 9.148 30.8252 8.45685 30.1291C7.76569 29.433 7.49618 28.5747 7.37666 27.6794C7.26514 26.8439 7.26519 25.8007 7.26526 24.5899V19.0366ZM11.3336 23.1341C11.3336 22.3798 11.9407 21.7683 12.6896 21.7683H15.4018C16.1508 21.7683 16.7579 22.3798 16.7579 23.1341C16.7579 23.8885 16.1508 24.5 15.4018 24.5H12.6896C11.9407 24.5 11.3336 23.8885 11.3336 23.1341ZM18.114 23.1341C18.114 22.3798 18.7212 21.7683 19.4701 21.7683H22.1823C22.9313 21.7683 23.5384 22.3798 23.5384 23.1341C23.5384 23.8885 22.9313 24.5 22.1823 24.5H19.4701C18.7212 24.5 18.114 23.8885 18.114 23.1341ZM34.3871 16.2175V16.3049L7.2652 16.3049V16.2176C7.26513 15.0413 7.26508 14.0279 7.3766 13.2163C7.49612 12.3465 7.76563 11.5128 8.45679 10.8366C9.14794 10.1604 10 9.89667 10.889 9.77973C11.7185 9.67062 12.7543 9.67067 13.9564 9.67073H27.6959C28.8981 9.67067 29.9339 9.67062 30.7634 9.77973C31.6523 9.89667 32.5045 10.1604 33.1955 10.8366C33.8867 11.5128 34.1562 12.3465 34.2758 13.2163C34.3873 14.0279 34.3873 15.0413 34.3871 16.2175Z" fill="#5F976E"/>
</svg>
