<svg width="37" height="22" viewBox="0 0 37 22" fill="none" xmlns="http://www.w3.org/2000/svg">
<g clip-path="url(#clip0_601_4029)">
<path d="M11.5 22.001C17.5751 22.001 22.5 17.0761 22.5 11.001C22.5 4.92584 17.5751 0.000976562 11.5 0.000976562C5.42487 0.000976562 0.5 4.92584 0.5 11.001C0.5 17.0761 5.42487 22.001 11.5 22.001Z" fill="#627EEA"/>
<path d="M11.8423 2.75098V8.8491L16.9965 11.1522L11.8423 2.75098Z" fill="white" fill-opacity="0.602"/>
<path d="M11.8424 2.75098L6.6875 11.1522L11.8424 8.8491V2.75098Z" fill="white"/>
<path d="M11.8423 15.104V19.2475L16.9999 12.112L11.8423 15.104Z" fill="white" fill-opacity="0.602"/>
<path d="M11.8424 19.2475V15.1033L6.6875 12.112L11.8424 19.2475Z" fill="white"/>
<path d="M11.8423 14.1449L16.9965 11.1522L11.8423 8.85048V14.1449Z" fill="white" fill-opacity="0.2"/>
<path d="M6.6875 11.1522L11.8424 14.1449V8.85048L6.6875 11.1522Z" fill="white" fill-opacity="0.602"/>
</g>
<ellipse cx="25" cy="11.001" rx="11.5" ry="11" fill="white"/>
<path fill-rule="evenodd" clip-rule="evenodd" d="M36.6 11.001C36.6 17.0761 31.4289 22.001 25.05 22.001C18.6711 22.001 13.5 17.0761 13.5 11.001C13.5 4.92584 18.6711 0.000976562 25.05 0.000976562C31.4289 0.000976562 36.6 4.92584 36.6 11.001ZM26.4374 11.9504V11.9518C29.2383 11.8335 31.3281 11.3695 31.3281 10.8126C31.3281 10.2571 29.2383 9.79166 26.4374 9.67273V11.4898C26.3559 11.4967 25.9191 11.531 25.0478 11.531C24.3216 11.531 23.7961 11.5015 23.6127 11.4891V9.67135C20.8061 9.79098 18.7112 10.2564 18.7112 10.8126C18.7112 11.3695 20.8061 11.8349 23.6127 11.9525V11.9504C23.7932 11.9587 24.3065 11.9793 25.0356 11.9793C25.9487 11.9793 26.358 11.9559 26.4374 11.9504ZM26.4374 7.85704V9.48366C29.6086 9.62323 31.9916 10.222 31.9916 10.9391C31.9916 11.6562 29.6086 12.255 26.4374 12.3939V17.6079H23.6127V12.3952C20.4365 12.2557 18.0478 11.6569 18.0478 10.9391C18.0478 10.2214 20.4365 9.62185 23.6127 9.48298V7.85704H19.7045V5.37654H30.3457V7.85704H26.4374Z" fill="#4EB098"/>
<defs>
<clipPath id="clip0_601_4029">
<rect width="22" height="22" fill="white" transform="translate(0.5 0.000976562)"/>
</clipPath>
</defs>
</svg>
