<svg width="68" height="73" viewBox="0 0 68 73" fill="none" xmlns="http://www.w3.org/2000/svg">
<g filter="url(#filter0_d_637_2847)">
<path d="M39.922 17.478C39.9635 17.7753 35.1494 24.7343 31.0999 31.0719C28.3774 30.812 24.5613 30.7327 25.8836 28.8984C28.2213 25.6556 31.3112 22.4387 33.469 18.8575L39.6074 10.2622C39.6384 11.3363 39.8426 16.9097 39.922 17.478Z" fill="url(#paint0_linear_637_2847)"/>
<path d="M44.3682 66.5523C44.0726 66.5709 37.6087 61.1579 31.6957 56.5664C32.1653 53.8351 32.5433 49.9842 34.243 51.465C37.2476 54.0828 40.1676 57.4588 43.5192 59.9214L51.4878 66.8018C50.4293 66.7486 44.9332 66.5168 44.3682 66.5523Z" fill="url(#paint1_linear_637_2847)"/>
<path d="M26.5983 17.5986C26.5622 17.8966 31.502 24.7645 35.666 31.0254C38.3833 30.7147 42.1974 30.5641 40.8419 28.7548C38.4456 25.5562 35.2979 22.3976 33.0754 18.8573L26.7817 10.3782C26.7702 11.4526 26.6674 17.0289 26.5983 17.5986Z" fill="url(#paint2_linear_637_2847)"/>
<path d="M23.9272 66.9562C24.2226 66.9774 30.7336 61.6227 36.6865 57.0846C36.2408 54.3492 35.8965 50.495 34.1839 51.9605C31.1565 54.5512 28.2071 57.9008 24.8341 60.3332L16.8057 67.1416C17.8646 67.098 23.3625 66.9155 23.9272 66.9562Z" fill="url(#paint3_linear_637_2847)"/>
<path d="M23.1938 18.9902C23.2204 19.1984 29.2311 24.3638 34.3935 29.0511C36.8712 29.0041 40.407 29.14 38.7728 27.7758C35.8841 25.364 32.3007 22.9328 29.505 20.2907L21.9019 13.9011C22.1089 14.6594 23.1429 18.5921 23.1938 18.9902Z" fill="url(#paint4_linear_637_2847)"/>
<path d="M43.4599 18.7305C43.441 18.9396 37.6252 24.3295 32.6395 29.2094C30.1617 29.2565 26.6335 29.5265 28.2161 28.1012C31.0138 25.5815 34.5049 23.016 37.2011 20.2696L44.563 13.5959C44.3841 14.3616 43.4961 18.3308 43.4599 18.7305Z" fill="url(#paint5_linear_637_2847)"/>
<path d="M63.6027 25.6056C63.1904 26.0357 55.9186 35.6388 50.607 41.0121C48.6384 38.8635 45.778 36.215 47.4292 34.76C50.3481 32.188 53.8271 30.1511 56.7298 27.0276L64.4229 20.1716C63.9586 21.6347 63.8031 25.3966 63.6027 25.6056Z" fill="url(#paint6_linear_637_2847)"/>
<path d="M63.6027 20.1713C63.1904 20.6013 55.9186 30.2045 50.607 35.5778C48.6384 33.4292 45.778 30.7807 47.4292 29.3257C50.3481 26.7537 53.8271 24.7168 56.7298 21.5933L64.4229 14.7373C63.9586 16.2004 63.8031 19.9623 63.6027 20.1713Z" fill="url(#paint7_linear_637_2847)"/>
<path d="M61.1285 40.2367C60.7162 40.6668 53.4445 50.2699 48.1329 55.6432C46.1643 53.4946 43.3039 50.8461 44.955 49.3911C47.8739 46.8191 51.353 44.7822 54.2557 41.6587L61.9487 34.8027C61.4845 36.2658 61.329 40.0277 61.1285 40.2367Z" fill="url(#paint8_linear_637_2847)"/>
<path d="M62.778 32.2941C62.3657 32.7241 55.0939 42.3273 49.7823 47.7006C47.8137 45.552 44.9533 42.9035 46.6044 41.4485C49.5233 38.8765 53.0024 36.8396 55.9051 33.7161L63.5981 26.8601C63.1339 28.3232 62.9784 32.0851 62.778 32.2941Z" fill="url(#paint9_linear_637_2847)"/>
<path d="M5.26114 25.1877C5.67344 25.6177 12.3025 35.2208 17.6142 40.5941C19.5828 38.4455 22.4432 35.797 20.792 34.3421C17.8731 31.7701 14.3941 29.7331 11.4914 26.6096L3.79834 19.7537C4.26259 21.2168 5.06073 24.9787 5.26114 25.1877Z" fill="url(#paint10_linear_637_2847)"/>
<path d="M5.26163 20.1713C5.67393 20.6013 12.303 30.2045 17.6147 35.5778C19.5832 33.4292 22.4437 30.7807 20.7925 29.3257C17.8736 26.7537 14.3946 24.7168 11.4919 21.5933L3.79883 14.7373C4.26307 16.2004 5.06122 19.9623 5.26163 20.1713Z" fill="url(#paint11_linear_637_2847)"/>
<path d="M7.73526 38.5646C8.14756 38.9946 14.7767 48.5978 20.0883 53.9711C22.0569 51.8225 24.9173 49.174 23.2662 47.719C20.3473 45.147 16.8682 43.1101 13.9655 39.9866L6.27246 33.1306C6.73671 34.5937 7.53485 38.3556 7.73526 38.5646Z" fill="url(#paint12_linear_637_2847)"/>
<path d="M6.08585 31.4582C6.49815 31.8882 13.1272 41.4913 18.4389 46.8646C20.4075 44.716 23.2679 42.0675 21.6167 40.6126C18.6978 38.0406 15.2188 36.0037 12.3161 32.8801L4.62305 26.0242C5.08729 27.4873 5.88544 31.2492 6.08585 31.4582Z" fill="url(#paint13_linear_637_2847)"/>
<g filter="url(#filter1_d_637_2847)">
<path d="M54.1944 51.9563V32.0856L60.9234 23.0979L56.3872 24.561L51.9263 26.2331L37.1897 18.2135L36.6707 15.5491C36.4865 14.6034 36.0832 13.7156 35.4942 12.9589L33.2989 10.1389L31.5986 13.1155C31.2232 13.7728 30.9724 14.4956 30.8594 15.2465L30.4128 18.2135L15.025 26.2331L11.8582 24.979L7.60352 23.0979L12.9639 32.0856V51.9179C12.9639 54.609 14.7078 56.9803 17.2517 57.7483L26.9846 60.6863C28.3613 61.1019 29.4587 62.1604 29.9368 63.5337C30.2465 64.4233 30.8211 65.1933 31.5812 65.7373L33.9174 67.4093L36.0822 65.75C36.805 65.196 37.3533 64.441 37.6605 63.5768C38.1592 62.1736 39.2805 61.0905 40.6869 60.6532L49.9534 57.7724C52.4737 56.9888 54.1944 54.6291 54.1944 51.9563Z" fill="url(#paint14_linear_637_2847)"/>
</g>
<g filter="url(#filter2_i_637_2847)">
<path d="M30.5545 20.3285L17.0445 29.17C15.3325 30.2904 14.2983 32.2152 14.2983 34.2811V51.0549C14.2983 53.7873 16.0952 56.1845 18.6917 56.9161L32.2256 60.7296C33.2914 61.03 34.4184 61.0257 35.482 60.7173L48.5101 56.9396C51.0851 56.1929 52.8602 53.8063 52.8602 51.0908V34.2295C52.8602 32.1919 51.8541 30.2896 50.18 29.1622L37.1282 20.3722C35.1405 19.0336 32.5594 19.0164 30.5545 20.3285Z" fill="url(#paint15_linear_637_2847)"/>
</g>
<g filter="url(#filter3_d_637_2847)">
<path d="M28.9834 40.8964C28.9664 40.7404 28.9834 40.5728 28.9777 40.3994C28.9777 40.3128 28.9947 40.2145 29.023 40.1221C29.0457 40.0354 29.0457 39.943 29.0627 39.8621C29.0966 39.7061 29.1419 39.5558 29.1759 39.3998C29.2326 39.1456 29.3402 38.9087 29.4364 38.666C29.5327 38.4175 29.6686 38.1864 29.8046 37.9552C29.9348 37.7299 30.0934 37.5276 30.2633 37.3254C30.5012 37.0538 30.756 36.7938 30.9996 36.528C31.1695 36.3431 31.345 36.1698 31.5149 35.9906C31.8434 35.6555 32.1776 35.3203 32.4947 34.9737C32.8345 34.6096 33.18 34.2571 33.5255 33.8931C33.6784 33.7313 33.8483 33.5811 33.9955 33.4077C34.2391 33.1188 34.5166 32.8646 34.7771 32.593C34.9243 32.4428 35.0716 32.2925 35.2132 32.1365C35.553 31.7609 35.9268 31.42 36.2666 31.0386C36.5498 30.7208 36.8612 30.4262 37.1501 30.1141C37.371 29.8772 37.5918 29.6461 37.807 29.415C37.9939 29.2185 38.1978 29.0509 38.4017 28.8776C38.6056 28.7042 38.8265 28.5655 39.053 28.4269C39.2965 28.2824 39.5627 28.1668 39.8289 28.0686C39.9478 28.0282 40.0611 27.9704 40.18 27.9473C40.282 27.9299 40.3783 27.8953 40.4802 27.8837C40.6388 27.8664 40.7917 27.8317 40.9503 27.8086C41.1881 27.7739 41.4317 27.7739 41.6695 27.7739C41.9754 27.7739 42.2755 27.8202 42.57 27.8779C42.8985 27.9415 43.2156 28.0339 43.5158 28.1726C43.8103 28.3055 44.0991 28.4673 44.371 28.6522C44.6825 28.8718 44.9713 29.1203 45.2375 29.3976C45.4754 29.6403 45.6679 29.9177 45.8605 30.195C46.104 30.5591 46.2796 30.9635 46.4268 31.3796C46.5514 31.7378 46.6307 32.1019 46.676 32.4774C46.6987 32.6912 46.727 32.905 46.7213 33.1246C46.7157 33.35 46.7213 33.5753 46.6873 33.8007C46.6477 34.0607 46.6137 34.3265 46.5458 34.5807C46.4608 34.8928 46.3589 35.199 46.2229 35.4879C45.9907 36.008 45.6849 36.4702 45.3055 36.892C45.0449 37.1867 44.7674 37.4699 44.4956 37.7472C44.2181 38.0246 43.9519 38.3135 43.6914 38.6024C43.5781 38.7295 43.4648 38.8567 43.3346 38.9664C43.261 39.0358 43.193 39.1167 43.125 39.186C43.0741 39.238 43.0231 39.2842 42.9721 39.3362C42.6889 39.6367 42.4001 39.9256 42.1226 40.2319C41.9697 40.3994 41.8168 40.567 41.6639 40.7288C41.4033 41.0004 41.1428 41.272 40.8766 41.5435C40.6105 41.8151 40.3386 42.0809 40.0838 42.3641C39.7326 42.7512 39.3645 43.1268 39.0077 43.5139C38.7812 43.7566 38.5376 43.9878 38.3054 44.2247C38.0732 44.4616 37.841 44.6985 37.6088 44.9354C37.4786 45.0683 37.3256 45.1781 37.1841 45.2936C36.9858 45.4497 36.7763 45.5883 36.5554 45.7039C36.2099 45.883 35.8475 46.0275 35.4737 46.1373C35.2472 46.2008 35.0093 46.2355 34.7771 46.2817C34.7148 46.2933 34.6468 46.2933 34.5845 46.2991C34.2787 46.3222 33.9729 46.2933 33.6671 46.2933C33.5764 46.2933 33.4858 46.2644 33.3952 46.2528C33.2876 46.2355 33.18 46.2066 33.0724 46.1835C32.8855 46.143 32.7043 46.0853 32.523 46.0333C32.3078 45.9697 32.1039 45.8657 31.9001 45.7732C31.7641 45.7097 31.6452 45.6172 31.5149 45.5479C31.4073 45.4901 31.311 45.4208 31.2148 45.3514C31.0845 45.2474 30.9543 45.1434 30.8297 45.0394C30.6541 44.8892 30.4898 44.7216 30.3369 44.5482C30.2407 44.4327 30.1387 44.3229 30.0481 44.2016C29.8895 43.9878 29.7593 43.7566 29.6347 43.5255C29.5157 43.3001 29.3968 43.0748 29.3175 42.8321C29.2326 42.5894 29.1759 42.3409 29.1023 42.0983C29.074 42 29.074 41.8902 29.0513 41.7862C28.989 41.4915 28.972 41.2026 28.9834 40.8964ZM32.1719 44.7563C32.1889 44.7274 32.1832 44.7043 32.1832 44.6811C32.1832 44.4153 32.1832 44.1495 32.1832 43.8895C32.1832 42.5201 32.1832 41.1564 32.1832 39.787C32.1832 39.7407 32.1889 39.7118 32.2455 39.7118C32.659 39.7118 33.0724 39.7118 33.4858 39.7176C33.5425 39.7176 33.5651 39.7061 33.5594 39.6425C33.5594 39.1051 33.5594 38.562 33.5594 38.0246C33.5594 37.649 33.5594 37.2792 33.5594 36.9036C33.5594 36.8111 33.5594 36.8111 33.6557 36.8054C33.7067 36.8054 33.7633 36.8111 33.8143 36.7938C33.8426 36.788 33.8823 36.8054 33.8879 36.8516C33.8879 36.9094 33.8993 36.9614 33.8993 37.0134C33.8993 37.8859 33.8993 38.7584 33.8993 39.6367C33.8993 39.6945 33.9162 39.7118 33.9729 39.7061C34.3863 39.7061 34.7997 39.7061 35.2132 39.7003C35.2698 39.7003 35.2868 39.7118 35.2868 39.7696C35.2868 41.3355 35.2868 42.9014 35.2868 44.4616C35.2868 44.6523 35.2868 44.8487 35.2868 45.0394C35.2868 45.0856 35.2981 45.103 35.3491 45.0856C35.4171 45.0625 35.485 45.051 35.5473 45.0221C35.6663 44.9701 35.7908 44.9238 35.9098 44.8603C36.0457 44.7852 36.1873 44.7216 36.3232 44.6407C36.4875 44.5425 36.6347 44.4327 36.7876 44.3113C36.8782 44.242 36.9632 44.1727 36.9235 44.034C36.9235 44.0282 36.9235 44.0224 36.9235 44.0109C36.9235 41.7053 36.9292 39.394 36.9292 37.0885C36.9292 36.3662 36.9292 35.6439 36.9292 34.9216C36.9292 34.8292 36.9292 34.8292 37.0198 34.8292C37.4163 34.8292 37.8184 34.8292 38.2148 34.8292C38.2828 34.8292 38.3054 34.8061 38.3054 34.7367C38.2998 34.2629 38.3054 33.7833 38.3054 33.3095C38.3054 32.8761 38.3054 32.4428 38.3054 32.0094C38.3054 31.9401 38.3281 31.9227 38.3904 31.9227C38.4527 31.9285 38.515 31.9285 38.5716 31.9227C38.6226 31.9169 38.6339 31.9401 38.6339 31.9863C38.6339 32.8877 38.6339 33.7891 38.6339 34.6963C38.6339 34.7252 38.6396 34.7541 38.6282 34.7772C38.6056 34.8292 38.6339 34.8292 38.6679 34.8292C38.7698 34.8292 38.8774 34.8292 38.9794 34.8292C39.2965 34.8292 39.6137 34.8292 39.9252 34.8292C39.9818 34.8292 40.0045 34.8465 40.0045 34.9043C39.9988 34.9794 39.9988 35.0603 39.9988 35.1354C39.9988 37.0423 39.9988 38.9433 39.9988 40.8502C39.9988 40.8733 39.9988 40.8906 40.0045 40.9137C40.0215 40.9599 40.0328 40.9657 40.0668 40.931C40.1347 40.8559 40.2027 40.7866 40.2706 40.7173C40.6331 40.3359 41.0012 39.9545 41.3637 39.5732C41.8111 39.1051 42.2585 38.6371 42.7116 38.169C42.7456 38.1344 42.7569 38.0939 42.7569 38.0477C42.7569 37.3543 42.7569 36.6551 42.7569 35.9617C42.7569 35.904 42.7399 35.8866 42.6833 35.8866C42.2868 35.8924 41.8904 35.8866 41.494 35.8866C41.3863 35.8866 41.3807 35.9097 41.3807 35.7768C41.3807 33.7082 41.3807 31.6338 41.3807 29.5652C41.3807 29.5132 41.358 29.467 41.3637 29.415C41.392 29.2474 41.375 29.074 41.375 28.9065C41.375 28.7909 41.3694 28.7909 41.2618 28.7967C41.2448 28.7967 41.2221 28.7967 41.2051 28.7967C41.0862 28.8082 40.9673 28.8082 40.8483 28.8313C40.5878 28.8834 40.3273 28.9527 40.0724 29.0509C39.7779 29.1607 39.5004 29.3052 39.2456 29.4843C38.9284 29.7039 38.6509 29.9812 38.3791 30.2586C38.1468 30.4955 37.926 30.7324 37.6938 30.9693C37.5975 31.0675 37.5012 31.16 37.4106 31.2582C37.1274 31.5587 36.8443 31.8649 36.5611 32.1712C36.4931 32.2463 36.4252 32.333 36.3515 32.4023C36.1986 32.5526 36.057 32.7086 35.9041 32.8588C35.4907 33.2748 35.0773 33.6967 34.6865 34.1358C34.4543 34.3958 34.2107 34.6385 33.9672 34.887C33.5594 35.3088 33.1403 35.7248 32.7382 36.1524C32.3305 36.5858 31.9284 37.0192 31.5149 37.4468C31.2204 37.753 30.9203 38.0535 30.6937 38.4233C30.5295 38.6833 30.3822 38.9549 30.269 39.2438C30.1217 39.6194 30.0311 40.0065 29.9915 40.4052C29.9462 40.8502 29.9518 41.2951 30.0424 41.7342C30.1047 42.0347 30.1897 42.3294 30.2973 42.6183C30.3539 42.7743 30.4389 42.9188 30.5182 43.0632C30.9203 43.7913 31.464 44.3518 32.1719 44.7563ZM44.4503 30.0101C44.4446 30.0448 44.4446 30.0621 44.4446 30.0795C44.4446 31.004 44.4446 31.9227 44.4446 32.8472C44.4446 33.8353 44.4446 34.8234 44.4446 35.8173C44.4446 35.8808 44.4333 35.9097 44.3597 35.9097C43.9519 35.904 43.5498 35.9097 43.142 35.9097C43.0797 35.9097 43.0627 35.9328 43.0627 35.9906C43.0627 36.5569 43.0627 37.1289 43.0627 37.6952C43.0627 37.7241 43.0627 37.753 43.0627 37.7819C43.21 37.6374 43.3516 37.4988 43.4932 37.3543C43.7254 37.1116 43.9576 36.8689 44.1898 36.6262C44.4729 36.3315 44.7618 36.0426 44.9883 35.6959C45.4357 35.0141 45.6736 34.2571 45.7246 33.4424C45.7529 32.9744 45.7019 32.5121 45.5886 32.0556C45.4697 31.576 45.2771 31.1311 45.0053 30.7208C44.8524 30.4608 44.6598 30.247 44.4503 30.0101Z" fill="url(#paint16_linear_637_2847)"/>
</g>
<g filter="url(#filter4_d_637_2847)">
<path d="M28.1691 43.3308C28.107 43.3078 28.0731 43.2619 28.0449 43.2217C27.9432 43.084 27.819 42.9635 27.7061 42.8372C27.5706 42.6823 27.4294 42.5273 27.2826 42.3781C27.0003 42.0855 26.718 41.7928 26.4357 41.5001C26.272 41.3279 26.1082 41.1615 25.9445 40.9951C25.809 40.8574 25.6848 40.7081 25.5492 40.5762C25.4871 40.513 25.4307 40.4384 25.3516 40.3868C25.2839 40.3466 25.2613 40.2605 25.1992 40.2031C25.0185 40.0367 24.8604 39.8531 24.6797 39.6866C24.5386 39.5547 24.4257 39.3882 24.2845 39.2562C24.1942 39.1759 24.1151 39.0783 24.0191 39.0037C23.974 38.975 23.957 38.9119 23.9175 38.8717C23.7312 38.6881 23.5449 38.5102 23.3698 38.3151C23.1327 38.0454 22.873 37.7986 22.6358 37.5289C22.4608 37.3337 22.2688 37.1501 22.0882 36.9607C21.8228 36.6795 21.58 36.3754 21.3711 36.0483C21.2695 35.8876 21.1904 35.7154 21.1001 35.549C21.0154 35.394 20.9646 35.2276 20.8968 35.0727C20.8065 34.8776 20.7782 34.671 20.7161 34.4701C20.6766 34.3324 20.6597 34.1889 20.6314 34.0512C20.5637 33.6667 20.5806 33.2822 20.5693 32.8919C20.5693 32.7886 20.5806 32.6853 20.575 32.582C20.575 32.5017 20.6089 32.4156 20.6202 32.3295C20.6314 32.2779 20.6258 32.2205 20.6314 32.1689C20.6427 32.0828 20.671 32.0024 20.6936 31.9163C20.7613 31.6237 20.8516 31.3425 20.9589 31.0613C21.021 30.8948 21.0831 30.7227 21.1791 30.5735C21.3033 30.3784 21.4163 30.1718 21.5518 29.9881C21.6873 29.7987 21.8228 29.6094 21.9865 29.4429C22.1277 29.2937 22.2745 29.1503 22.4326 29.0125C22.6866 28.783 22.9633 28.5821 23.2626 28.4157C23.4432 28.3181 23.6296 28.2263 23.8159 28.1402C23.9514 28.0771 24.0869 28.0255 24.2337 27.991C24.3466 27.9623 24.4482 27.9107 24.5668 27.8992C24.7475 27.882 24.9169 27.8361 25.0919 27.8074C25.346 27.7729 25.6001 27.7729 25.8541 27.7729C25.9558 27.7729 26.0574 27.7729 26.1534 27.7787C26.255 27.7844 26.3566 27.8016 26.4583 27.8189C26.5994 27.8418 26.7406 27.8992 26.8874 27.9049C27.0172 27.9107 27.1245 27.9795 27.2431 28.0082C27.4689 28.0599 27.6722 28.1689 27.8811 28.2607C28.1352 28.3755 28.3667 28.519 28.5925 28.6797C28.7563 28.7945 28.9257 28.9092 29.0781 29.047C29.1854 29.1445 29.287 29.2478 29.383 29.3511C29.6992 29.6782 30.0154 30.0053 30.3315 30.3324C30.676 30.694 31.0204 31.0613 31.3704 31.4171C31.7995 31.8532 32.2117 32.3123 32.6465 32.7427C32.6634 32.7599 32.6803 32.7772 32.6973 32.7944C32.7199 32.8173 32.7142 32.8403 32.6916 32.8632C32.5335 33.0239 32.3811 33.1789 32.223 33.3396C32.1722 33.3969 32.1101 33.4486 32.0649 33.506C32.0254 33.5519 31.9972 33.5289 31.9689 33.506C31.8447 33.3797 31.7092 33.2592 31.6019 33.1157C31.489 32.9723 31.3422 32.869 31.2406 32.7198C31.1954 32.6566 31.1277 32.6107 31.0768 32.5534C30.8623 32.3295 30.6534 32.0942 30.4332 31.8819C30.2356 31.6868 30.0492 31.4745 29.8516 31.2736C29.7161 31.1359 29.5693 31.0096 29.4451 30.8604C29.2757 30.6538 29.0837 30.4759 28.9031 30.2808C28.7055 30.0685 28.5078 29.8561 28.2763 29.6782C28.1408 29.5749 27.9997 29.4716 27.8472 29.3855C27.723 29.3109 27.5932 29.2478 27.4689 29.1789C27.3504 29.1158 27.2262 29.0642 27.0963 29.024C26.989 28.9896 26.8761 28.9494 26.7632 28.9207C26.5881 28.8748 26.4131 28.8461 26.2381 28.8174C26.1477 28.8002 26.0574 28.8059 25.9671 28.8002C25.9106 28.7945 25.8993 28.8174 25.8993 28.8691C25.8993 29.047 25.8993 29.2249 25.8993 29.397C25.8993 29.9537 25.8993 30.5103 25.8993 31.067C25.8993 32.4041 25.905 33.747 25.8993 35.0841C25.8993 35.3137 25.9106 35.5433 25.905 35.7785C25.905 35.8245 25.8993 35.8531 25.8372 35.8531C25.4307 35.8531 25.0242 35.8531 24.6176 35.8531C24.5499 35.8531 24.5329 35.8761 24.5329 35.9622C24.5329 36.5762 24.5329 37.1845 24.5329 37.7986C24.5329 37.8732 24.5386 37.9478 24.5273 38.0224C24.5216 38.0511 24.5329 38.0683 24.5499 38.0913C24.9338 38.4872 25.3178 38.8832 25.7017 39.2849C26.1195 39.7211 26.5373 40.1572 26.9551 40.5934C27.0568 40.6967 27.164 40.7942 27.2713 40.8975C27.2713 40.7254 27.2713 40.5475 27.2713 40.3696C27.2713 38.5389 27.2713 36.714 27.2713 34.8833C27.2713 34.8202 27.2939 34.8029 27.3504 34.8029C27.7569 34.8029 28.1634 34.8029 28.5699 34.8029C28.6377 34.8029 28.649 34.78 28.649 34.7169C28.649 33.8159 28.649 32.9206 28.649 32.0196C28.649 31.9163 28.649 31.9163 28.7506 31.9163C28.7958 31.9163 28.8466 31.9221 28.8918 31.9163C28.9539 31.9106 28.9765 31.9336 28.9765 32.0024C28.9765 32.3295 28.9765 32.6566 28.9765 32.9838C28.9765 33.5691 28.9765 34.1487 28.9765 34.7341C28.9765 34.7972 28.9991 34.8202 29.0555 34.7972C29.095 34.78 29.1346 34.8029 29.1684 34.8029C29.5354 34.8029 29.8968 34.8029 30.2638 34.8029C30.3259 34.8029 30.3598 34.8202 30.3428 34.889C30.3203 35.021 30.3315 35.153 30.3315 35.2793C30.3315 35.3137 30.3203 35.3367 30.2977 35.3596C30.1678 35.4859 30.0549 35.6179 29.925 35.7441C29.7839 35.8876 29.6427 36.031 29.5016 36.1803C29.3435 36.3409 29.2023 36.5131 29.0668 36.691C28.9708 36.8173 28.8805 36.9435 28.7958 37.0755C28.649 37.2993 28.5078 37.5289 28.3949 37.7756C28.2876 38.0052 28.186 38.2405 28.1013 38.4815C28.0279 38.6938 27.9489 38.9004 27.9037 39.1185C27.8642 39.3136 27.8134 39.503 27.7851 39.6981C27.7682 39.8301 27.7569 39.9621 27.74 40.0941C27.7174 40.272 27.7117 40.4442 27.7004 40.6221C27.6891 40.7885 27.6835 40.9549 27.7061 41.1213C27.7174 41.2017 27.7117 41.2878 27.7174 41.3681C27.7343 41.5288 27.7512 41.6895 27.7738 41.8444C27.8134 42.1314 27.8868 42.4126 27.9602 42.688C27.9997 42.8372 28.0449 42.9807 28.107 43.1184C28.1239 43.1873 28.1578 43.2504 28.1691 43.3308ZM24.1772 37.6781C24.1772 37.6666 24.1829 37.6609 24.1829 37.6551C24.1829 37.0927 24.1829 36.5303 24.1829 35.9679C24.1829 35.8245 24.1829 35.8302 24.0474 35.8359C23.6578 35.8531 23.2738 35.8417 22.8843 35.8417C22.8334 35.8417 22.8109 35.8245 22.8109 35.7671C22.8109 33.8905 22.8109 32.0082 22.8109 30.1316C22.8109 30.0972 22.8278 30.0455 22.7996 30.034C22.7713 30.0225 22.7544 30.0742 22.7318 30.0972C22.4777 30.3439 22.2801 30.6366 22.1051 30.9408C21.868 31.3597 21.7155 31.8073 21.6195 32.2779C21.5292 32.7198 21.5235 33.1674 21.5574 33.615C21.5744 33.8331 21.6252 34.0454 21.6703 34.2578C21.7833 34.7341 21.9865 35.176 22.2519 35.5834C22.4721 35.9277 22.7488 36.2204 23.0367 36.5131C23.1948 36.6795 23.3529 36.846 23.511 37.0124C23.703 37.2075 23.8949 37.4026 24.0812 37.6035C24.1095 37.6322 24.1377 37.6609 24.1772 37.6781Z" fill="url(#paint17_linear_637_2847)"/>
</g>
<g filter="url(#filter5_d_637_2847)">
<path d="M12.9639 54.0559C12.9639 54.0559 22.2443 57.1184 33.5083 57.1184C44.7723 57.1184 54.1944 54.0559 54.1944 54.0559V43.4546C54.1944 43.4546 41.8156 47.5881 33.5083 47.5773C25.2548 47.5666 12.9639 43.4546 12.9639 43.4546V54.0559Z" fill="url(#paint18_linear_637_2847)"/>
</g>
<g filter="url(#filter6_d_637_2847)">
<path d="M34.4785 20.6272C34.1706 21.1679 33.4008 21.1679 33.0929 20.6272L31.4435 17.7306C31.1355 17.1898 31.5204 16.5139 32.1363 16.5139L35.4351 16.5139C36.051 16.5139 36.4359 17.1898 36.128 17.7306L34.4785 20.6272Z" fill="url(#paint19_linear_637_2847)"/>
</g>
<g filter="url(#filter7_d_637_2847)">
<path d="M54.9713 29.6212C55.3265 30.1313 55.0038 30.8399 54.3906 30.8967L51.1054 31.201C50.4921 31.2578 50.0481 30.6202 50.3063 30.0533L51.689 27.0166C51.9471 26.4497 52.7137 26.3787 53.0689 26.8888L54.9713 29.6212Z" fill="url(#paint20_linear_637_2847)"/>
</g>
<g filter="url(#filter8_d_637_2847)">
<path d="M54.9713 29.6212C55.3265 30.1313 55.0038 30.8399 54.3906 30.8967L51.1054 31.201C50.4921 31.2578 50.0481 30.6202 50.3063 30.0533L51.689 27.0166C51.9471 26.4497 52.7137 26.3787 53.0689 26.8888L54.9713 29.6212Z" fill="url(#paint21_linear_637_2847)"/>
</g>
<g filter="url(#filter9_d_637_2847)">
<path d="M17.6549 29.6212C18.0101 30.1313 17.6874 30.8399 17.0742 30.8967L13.789 31.201C13.1757 31.2578 12.7317 30.6202 12.9899 30.0533L14.3726 27.0166C14.6307 26.4497 15.3973 26.3787 15.7525 26.8888L17.6549 29.6212Z" fill="url(#paint22_linear_637_2847)"/>
</g>
</g>
<path d="M34.6663 53.841L34.0455 52.9195L33.3799 53.841H32.0615L33.3799 52.0825L32.0999 50.324H33.4695L34.0839 51.213L34.7239 50.324H36.0103L34.7303 52.037L36.0551 53.841H34.6663Z" fill="#FFB6B6"/>
<g filter="url(#filter10_d_637_2847)">
<path d="M34.6094 65.3567C34.3015 65.8974 33.5317 65.8974 33.2237 65.3567L31.5743 62.4601C31.2664 61.9193 31.6513 61.2434 32.2671 61.2434L35.566 61.2434C36.1818 61.2434 36.5667 61.9193 36.2588 62.4601L34.6094 65.3567Z" fill="url(#paint23_linear_637_2847)"/>
</g>
<defs>
<filter id="filter0_d_637_2847" x="-6.80166" y="-0.461084" width="81.8245" height="78.4703" filterUnits="userSpaceOnUse" color-interpolation-filters="sRGB">
<feFlood flood-opacity="0" result="BackgroundImageFix"/>
<feColorMatrix in="SourceAlpha" type="matrix" values="0 0 0 0 0 0 0 0 0 0 0 0 0 0 0 0 0 0 127 0" result="hardAlpha"/>
<feOffset/>
<feGaussianBlur stdDeviation="5.3"/>
<feComposite in2="hardAlpha" operator="out"/>
<feColorMatrix type="matrix" values="0 0 0 0 0.831373 0 0 0 0 0.14902 0 0 0 0 0.333333 0 0 0 0.3 0"/>
<feBlend mode="normal" in2="BackgroundImageFix" result="effect1_dropShadow_637_2847"/>
<feBlend mode="normal" in="SourceGraphic" in2="effect1_dropShadow_637_2847" result="shape"/>
</filter>
<filter id="filter1_d_637_2847" x="2.50352" y="1.03892" width="63.5198" height="67.4703" filterUnits="userSpaceOnUse" color-interpolation-filters="sRGB">
<feFlood flood-opacity="0" result="BackgroundImageFix"/>
<feColorMatrix in="SourceAlpha" type="matrix" values="0 0 0 0 0 0 0 0 0 0 0 0 0 0 0 0 0 0 127 0" result="hardAlpha"/>
<feOffset dy="-4"/>
<feGaussianBlur stdDeviation="2.55"/>
<feComposite in2="hardAlpha" operator="out"/>
<feColorMatrix type="matrix" values="0 0 0 0 0 0 0 0 0 0 0 0 0 0 0 0 0 0 0.25 0"/>
<feBlend mode="normal" in2="BackgroundImageFix" result="effect1_dropShadow_637_2847"/>
<feBlend mode="normal" in="SourceGraphic" in2="effect1_dropShadow_637_2847" result="shape"/>
</filter>
<filter id="filter2_i_637_2847" x="14.2983" y="19.3562" width="40.562" height="42.5957" filterUnits="userSpaceOnUse" color-interpolation-filters="sRGB">
<feFlood flood-opacity="0" result="BackgroundImageFix"/>
<feBlend mode="normal" in="SourceGraphic" in2="BackgroundImageFix" result="shape"/>
<feColorMatrix in="SourceAlpha" type="matrix" values="0 0 0 0 0 0 0 0 0 0 0 0 0 0 0 0 0 0 127 0" result="hardAlpha"/>
<feOffset dx="2" dy="1"/>
<feGaussianBlur stdDeviation="1"/>
<feComposite in2="hardAlpha" operator="arithmetic" k2="-1" k3="1"/>
<feColorMatrix type="matrix" values="0 0 0 0 0 0 0 0 0 0 0 0 0 0 0 0 0 0 0.25 0"/>
<feBlend mode="normal" in2="shape" result="effect1_innerShadow_637_2847"/>
</filter>
<filter id="filter3_d_637_2847" x="28.3756" y="27.7739" width="20.9466" height="22.1342" filterUnits="userSpaceOnUse" color-interpolation-filters="sRGB">
<feFlood flood-opacity="0" result="BackgroundImageFix"/>
<feColorMatrix in="SourceAlpha" type="matrix" values="0 0 0 0 0 0 0 0 0 0 0 0 0 0 0 0 0 0 127 0" result="hardAlpha"/>
<feOffset dx="1" dy="2"/>
<feGaussianBlur stdDeviation="0.8"/>
<feComposite in2="hardAlpha" operator="out"/>
<feColorMatrix type="matrix" values="0 0 0 0 0 0 0 0 0 0 0 0 0 0 0 0 0 0 0.25 0"/>
<feBlend mode="normal" in2="BackgroundImageFix" result="effect1_dropShadow_637_2847"/>
<feBlend mode="normal" in="SourceGraphic" in2="effect1_dropShadow_637_2847" result="shape"/>
</filter>
<filter id="filter4_d_637_2847" x="19.9693" y="27.7729" width="15.3421" height="19.1579" filterUnits="userSpaceOnUse" color-interpolation-filters="sRGB">
<feFlood flood-opacity="0" result="BackgroundImageFix"/>
<feColorMatrix in="SourceAlpha" type="matrix" values="0 0 0 0 0 0 0 0 0 0 0 0 0 0 0 0 0 0 127 0" result="hardAlpha"/>
<feOffset dx="1" dy="2"/>
<feGaussianBlur stdDeviation="0.8"/>
<feComposite in2="hardAlpha" operator="out"/>
<feColorMatrix type="matrix" values="0 0 0 0 0 0 0 0 0 0 0 0 0 0 0 0 0 0 0.25 0"/>
<feBlend mode="normal" in2="BackgroundImageFix" result="effect1_dropShadow_637_2847"/>
<feBlend mode="normal" in="SourceGraphic" in2="effect1_dropShadow_637_2847" result="shape"/>
</filter>
<filter id="filter5_d_637_2847" x="12.9639" y="43.1546" width="44.5305" height="16.2638" filterUnits="userSpaceOnUse" color-interpolation-filters="sRGB">
<feFlood flood-opacity="0" result="BackgroundImageFix"/>
<feColorMatrix in="SourceAlpha" type="matrix" values="0 0 0 0 0 0 0 0 0 0 0 0 0 0 0 0 0 0 127 0" result="hardAlpha"/>
<feOffset dx="2" dy="1"/>
<feGaussianBlur stdDeviation="0.65"/>
<feComposite in2="hardAlpha" operator="out"/>
<feColorMatrix type="matrix" values="0 0 0 0 0 0 0 0 0 0 0 0 0 0 0 0 0 0 0.25 0"/>
<feBlend mode="normal" in2="BackgroundImageFix" result="effect1_dropShadow_637_2847"/>
<feBlend mode="normal" in="SourceGraphic" in2="effect1_dropShadow_637_2847" result="shape"/>
</filter>
<filter id="filter6_d_637_2847" x="25.035" y="10.2139" width="17.5014" height="17.1188" filterUnits="userSpaceOnUse" color-interpolation-filters="sRGB">
<feFlood flood-opacity="0" result="BackgroundImageFix"/>
<feColorMatrix in="SourceAlpha" type="matrix" values="0 0 0 0 0 0 0 0 0 0 0 0 0 0 0 0 0 0 127 0" result="hardAlpha"/>
<feOffset/>
<feGaussianBlur stdDeviation="3.15"/>
<feComposite in2="hardAlpha" operator="out"/>
<feColorMatrix type="matrix" values="0 0 0 0 1 0 0 0 0 1 0 0 0 0 1 0 0 0 0.25 0"/>
<feBlend mode="normal" in2="BackgroundImageFix" result="effect1_dropShadow_637_2847"/>
<feBlend mode="normal" in="SourceGraphic" in2="effect1_dropShadow_637_2847" result="shape"/>
</filter>
<filter id="filter7_d_637_2847" x="43.9314" y="20.2454" width="17.4872" height="17.2592" filterUnits="userSpaceOnUse" color-interpolation-filters="sRGB">
<feFlood flood-opacity="0" result="BackgroundImageFix"/>
<feColorMatrix in="SourceAlpha" type="matrix" values="0 0 0 0 0 0 0 0 0 0 0 0 0 0 0 0 0 0 127 0" result="hardAlpha"/>
<feOffset/>
<feGaussianBlur stdDeviation="3.15"/>
<feComposite in2="hardAlpha" operator="out"/>
<feColorMatrix type="matrix" values="0 0 0 0 1 0 0 0 0 1 0 0 0 0 1 0 0 0 0.25 0"/>
<feBlend mode="normal" in2="BackgroundImageFix" result="effect1_dropShadow_637_2847"/>
<feBlend mode="normal" in="SourceGraphic" in2="effect1_dropShadow_637_2847" result="shape"/>
</filter>
<filter id="filter8_d_637_2847" x="43.9314" y="20.2454" width="17.4872" height="17.2592" filterUnits="userSpaceOnUse" color-interpolation-filters="sRGB">
<feFlood flood-opacity="0" result="BackgroundImageFix"/>
<feColorMatrix in="SourceAlpha" type="matrix" values="0 0 0 0 0 0 0 0 0 0 0 0 0 0 0 0 0 0 127 0" result="hardAlpha"/>
<feOffset/>
<feGaussianBlur stdDeviation="3.15"/>
<feComposite in2="hardAlpha" operator="out"/>
<feColorMatrix type="matrix" values="0 0 0 0 1 0 0 0 0 1 0 0 0 0 1 0 0 0 0.25 0"/>
<feBlend mode="normal" in2="BackgroundImageFix" result="effect1_dropShadow_637_2847"/>
<feBlend mode="normal" in="SourceGraphic" in2="effect1_dropShadow_637_2847" result="shape"/>
</filter>
<filter id="filter9_d_637_2847" x="6.61504" y="20.2454" width="17.4872" height="17.2592" filterUnits="userSpaceOnUse" color-interpolation-filters="sRGB">
<feFlood flood-opacity="0" result="BackgroundImageFix"/>
<feColorMatrix in="SourceAlpha" type="matrix" values="0 0 0 0 0 0 0 0 0 0 0 0 0 0 0 0 0 0 127 0" result="hardAlpha"/>
<feOffset/>
<feGaussianBlur stdDeviation="3.15"/>
<feComposite in2="hardAlpha" operator="out"/>
<feColorMatrix type="matrix" values="0 0 0 0 1 0 0 0 0 1 0 0 0 0 1 0 0 0 0.25 0"/>
<feBlend mode="normal" in2="BackgroundImageFix" result="effect1_dropShadow_637_2847"/>
<feBlend mode="normal" in="SourceGraphic" in2="effect1_dropShadow_637_2847" result="shape"/>
</filter>
<filter id="filter10_d_637_2847" x="25.1658" y="54.9434" width="17.5014" height="17.1188" filterUnits="userSpaceOnUse" color-interpolation-filters="sRGB">
<feFlood flood-opacity="0" result="BackgroundImageFix"/>
<feColorMatrix in="SourceAlpha" type="matrix" values="0 0 0 0 0 0 0 0 0 0 0 0 0 0 0 0 0 0 127 0" result="hardAlpha"/>
<feOffset/>
<feGaussianBlur stdDeviation="3.15"/>
<feComposite in2="hardAlpha" operator="out"/>
<feColorMatrix type="matrix" values="0 0 0 0 1 0 0 0 0 1 0 0 0 0 1 0 0 0 0.25 0"/>
<feBlend mode="normal" in2="BackgroundImageFix" result="effect1_dropShadow_637_2847"/>
<feBlend mode="normal" in="SourceGraphic" in2="effect1_dropShadow_637_2847" result="shape"/>
</filter>
<linearGradient id="paint0_linear_637_2847" x1="42.9426" y1="10.9753" x2="34.4634" y2="9.6901" gradientUnits="userSpaceOnUse">
<stop stop-color="#FA6868"/>
<stop offset="1" stop-color="#740A0A"/>
</linearGradient>
<linearGradient id="paint1_linear_637_2847" x1="50.5244" y1="70.1167" x2="52.5409" y2="61.668" gradientUnits="userSpaceOnUse">
<stop stop-color="#FA6868"/>
<stop offset="1" stop-color="#740A0A"/>
</linearGradient>
<linearGradient id="paint2_linear_637_2847" x1="30.1143" y1="12.0454" x2="26.8079" y2="24.0614" gradientUnits="userSpaceOnUse">
<stop stop-color="#FF8888"/>
<stop offset="1" stop-color="#AB0B0B"/>
</linearGradient>
<linearGradient id="paint3_linear_637_2847" x1="18.2766" y1="63.6816" x2="30.3154" y2="66.257" gradientUnits="userSpaceOnUse">
<stop stop-color="#FF8888"/>
<stop offset="1" stop-color="#AB0B0B"/>
</linearGradient>
<linearGradient id="paint4_linear_637_2847" x1="25.3557" y1="15.2905" x2="23.296" y2="23.2037" gradientUnits="userSpaceOnUse">
<stop stop-color="#FF8888"/>
<stop offset="1" stop-color="#AB0B0B"/>
</linearGradient>
<linearGradient id="paint5_linear_637_2847" x1="47.5221" y1="13.8206" x2="41.1495" y2="10.8971" gradientUnits="userSpaceOnUse">
<stop stop-color="#FA6868"/>
<stop offset="1" stop-color="#740A0A"/>
</linearGradient>
<linearGradient id="paint6_linear_637_2847" x1="66.6946" y1="23.3069" x2="59.0379" y2="20.2448" gradientUnits="userSpaceOnUse">
<stop stop-color="#FA6868"/>
<stop offset="1" stop-color="#740A0A"/>
</linearGradient>
<linearGradient id="paint7_linear_637_2847" x1="66.6946" y1="17.8725" x2="59.0379" y2="14.8105" gradientUnits="userSpaceOnUse">
<stop stop-color="#FA6868"/>
<stop offset="1" stop-color="#740A0A"/>
</linearGradient>
<linearGradient id="paint8_linear_637_2847" x1="64.2204" y1="37.938" x2="56.5638" y2="34.8759" gradientUnits="userSpaceOnUse">
<stop stop-color="#FA6868"/>
<stop offset="1" stop-color="#740A0A"/>
</linearGradient>
<linearGradient id="paint9_linear_637_2847" x1="65.8699" y1="29.9953" x2="58.2132" y2="26.9333" gradientUnits="userSpaceOnUse">
<stop stop-color="#FA6868"/>
<stop offset="1" stop-color="#740A0A"/>
</linearGradient>
<linearGradient id="paint10_linear_637_2847" x1="6.91036" y1="19.7533" x2="12.4049" y2="36.011" gradientUnits="userSpaceOnUse">
<stop stop-color="#FF8888"/>
<stop offset="1" stop-color="#AB0B0B"/>
</linearGradient>
<linearGradient id="paint11_linear_637_2847" x1="6.91085" y1="14.7369" x2="12.4054" y2="30.9947" gradientUnits="userSpaceOnUse">
<stop stop-color="#FF8888"/>
<stop offset="1" stop-color="#AB0B0B"/>
</linearGradient>
<linearGradient id="paint12_linear_637_2847" x1="9.38448" y1="33.1302" x2="14.879" y2="49.388" gradientUnits="userSpaceOnUse">
<stop stop-color="#FF8888"/>
<stop offset="1" stop-color="#AB0B0B"/>
</linearGradient>
<linearGradient id="paint13_linear_637_2847" x1="7.73507" y1="26.0238" x2="13.2296" y2="42.2815" gradientUnits="userSpaceOnUse">
<stop stop-color="#FF8888"/>
<stop offset="1" stop-color="#AB0B0B"/>
</linearGradient>
<linearGradient id="paint14_linear_637_2847" x1="1.12762" y1="19.1226" x2="23.1849" y2="8.96814" gradientUnits="userSpaceOnUse">
<stop stop-color="#FA6868"/>
<stop offset="1" stop-color="#740A0A"/>
</linearGradient>
<linearGradient id="paint15_linear_637_2847" x1="23.4851" y1="18.1682" x2="46.5863" y2="19.4023" gradientUnits="userSpaceOnUse">
<stop stop-color="#C86A6A"/>
<stop offset="1" stop-color="#9D0C0C"/>
</linearGradient>
<linearGradient id="paint16_linear_637_2847" x1="33.2034" y1="27.7739" x2="43.8305" y2="28.3804" gradientUnits="userSpaceOnUse">
<stop stop-color="#F2D2D2"/>
<stop offset="1" stop-color="#D85757"/>
</linearGradient>
<linearGradient id="paint17_linear_637_2847" x1="23.4621" y1="27.7729" x2="29.2191" y2="15.9934" gradientUnits="userSpaceOnUse">
<stop stop-color="#F2D2D2"/>
</linearGradient>
<linearGradient id="paint18_linear_637_2847" x1="33.7104" y1="58.0039" x2="34.1235" y2="48.1263" gradientUnits="userSpaceOnUse">
<stop stop-color="#DC2121"/>
<stop offset="0.994792" stop-color="#D15757"/>
</linearGradient>
<linearGradient id="paint19_linear_637_2847" x1="35.6205" y1="21.8438" x2="31.424" y2="21.5971" gradientUnits="userSpaceOnUse">
<stop offset="0.0001" stop-color="#C62C2C"/>
<stop offset="1" stop-color="#E4B8B8"/>
</linearGradient>
<linearGradient id="paint20_linear_637_2847" x1="54.774" y1="23.9448" x2="56.9732" y2="28.6739" gradientUnits="userSpaceOnUse">
<stop stop-color="#FF9FA7"/>
<stop offset="1" stop-color="#AA0D3C"/>
</linearGradient>
<linearGradient id="paint21_linear_637_2847" x1="54.774" y1="23.9448" x2="56.9732" y2="28.6739" gradientUnits="userSpaceOnUse">
<stop stop-color="#ECC8C8"/>
<stop offset="1" stop-color="#9B1E1E"/>
</linearGradient>
<linearGradient id="paint22_linear_637_2847" x1="17.4576" y1="23.9448" x2="19.6568" y2="28.6739" gradientUnits="userSpaceOnUse">
<stop stop-color="#F2D2D2"/>
<stop offset="1" stop-color="#9F2727"/>
</linearGradient>
<linearGradient id="paint23_linear_637_2847" x1="35.7513" y1="66.5733" x2="31.5549" y2="66.3266" gradientUnits="userSpaceOnUse">
<stop offset="0.0001" stop-color="#E3B7B7"/>
<stop offset="1" stop-color="#A63838"/>
</linearGradient>
</defs>
</svg>
