<svg width="55" height="59" viewBox="0 0 55 59" fill="none" xmlns="http://www.w3.org/2000/svg">
<path d="M47.8447 42.8608V23.0187L54.7106 13.981L45.5304 17.1337L30.494 9.06948L26.524 0.949951L23.5791 9.06948L7.87818 17.1337L4.09192 15.5574L0.305664 13.981L5.77512 23.0187V42.8209C5.77512 45.6103 7.6093 48.0682 10.2848 48.8641L20.41 51.8763C21.6512 52.2456 22.7487 52.9875 23.5534 54.0014L27.155 58.5388L30.552 54.0646C31.3521 53.0107 32.4637 52.235 33.7295 51.8472L43.3842 48.8891C46.035 48.077 47.8447 45.6311 47.8447 42.8608Z" fill="url(#paint0_linear_637_2988)"/>
<g filter="url(#filter0_i_637_2988)">
<path d="M23.6201 11.2631L10.0249 20.0314C8.22437 21.1927 7.13672 23.1877 7.13672 25.329V41.9506C7.13672 44.7828 9.02653 47.2674 11.7574 48.0258L25.3776 51.808C26.4986 52.1193 27.6839 52.1148 28.8025 51.7952L41.9081 48.0501C44.6164 47.2761 46.4833 44.8024 46.4833 41.9878V25.2755C46.4833 23.1636 45.4251 21.1918 43.6645 20.0233L30.5339 11.3085C28.4434 9.92098 25.7287 9.90317 23.6201 11.2631Z" fill="url(#paint1_linear_637_2988)"/>
</g>
<g filter="url(#filter1_d_637_2988)">
<path d="M22.1207 31.8783C22.1034 31.7214 22.1207 31.5529 22.115 31.3786C22.115 31.2914 22.1323 31.1927 22.1612 31.0997C22.1843 31.0125 22.1843 30.9196 22.2016 30.8382C22.2363 30.6814 22.2825 30.5303 22.3172 30.3734C22.375 30.1177 22.4848 29.8795 22.583 29.6355C22.6813 29.3856 22.82 29.1532 22.9586 28.9208C23.0916 28.6942 23.2534 28.4908 23.4267 28.2875C23.6694 28.0144 23.9295 27.7529 24.178 27.4856C24.3513 27.2997 24.5305 27.1254 24.7038 26.9453C25.039 26.6083 25.3799 26.2713 25.7035 25.9226C26.0503 25.5566 26.4028 25.2021 26.7553 24.8361C26.9113 24.6734 27.0846 24.5223 27.2349 24.348C27.4834 24.0575 27.7665 23.8018 28.0324 23.5287C28.1826 23.3777 28.3328 23.2266 28.4773 23.0697C28.824 22.692 29.2054 22.3492 29.5522 21.9657C29.8411 21.6462 30.1589 21.3498 30.4536 21.0361C30.679 20.7979 30.9044 20.5654 31.124 20.333C31.3147 20.1355 31.5227 19.967 31.7307 19.7926C31.9388 19.6183 32.1641 19.4789 32.3953 19.3394C32.6438 19.1942 32.9154 19.078 33.187 18.9792C33.3083 18.9385 33.4239 18.8804 33.5452 18.8572C33.6493 18.8397 33.7475 18.8049 33.8515 18.7933C34.0133 18.7758 34.1693 18.741 34.3311 18.7177C34.5739 18.6829 34.8223 18.6829 35.065 18.6829C35.3771 18.6829 35.6834 18.7293 35.9839 18.7874C36.319 18.8514 36.6426 18.9443 36.9489 19.0838C37.2494 19.2174 37.5441 19.3801 37.8215 19.566C38.1393 19.7868 38.434 20.0367 38.7056 20.3156C38.9483 20.5596 39.1448 20.8385 39.3413 21.1174C39.5898 21.4835 39.7689 21.8902 39.9192 22.3086C40.0463 22.6688 40.1272 23.0349 40.1734 23.4125C40.1965 23.6275 40.2254 23.8425 40.2197 24.0633C40.2139 24.2899 40.2197 24.5165 40.185 24.7431C40.1445 25.0046 40.1099 25.2719 40.0405 25.5275C39.9538 25.8413 39.8498 26.1492 39.7111 26.4398C39.4742 26.9627 39.1622 27.4275 38.775 27.8517C38.5092 28.148 38.226 28.4327 37.9486 28.7116C37.6655 28.9905 37.3939 29.281 37.128 29.5716C37.0125 29.6994 36.8969 29.8272 36.764 29.9376C36.6889 30.0073 36.6195 30.0887 36.5502 30.1584C36.4982 30.2107 36.4462 30.2572 36.3941 30.3095C36.1052 30.6116 35.8105 30.9022 35.5273 31.2101C35.3713 31.3786 35.2153 31.5471 35.0593 31.7098C34.7934 31.9829 34.5276 32.256 34.256 32.5291C33.9844 32.8022 33.707 33.0694 33.447 33.3541C33.0887 33.7434 32.7131 34.1211 32.3491 34.5104C32.1179 34.7544 31.8694 34.9869 31.6325 35.2251C31.3956 35.4633 31.1586 35.7015 30.9217 35.9398C30.7888 36.0734 30.6328 36.1838 30.4883 36.3C30.286 36.4569 30.0722 36.5963 29.8469 36.7126C29.4944 36.8927 29.1245 37.0379 28.7431 37.1483C28.512 37.2123 28.2693 37.2471 28.0324 37.2936C27.9688 37.3052 27.8994 37.3052 27.8359 37.311C27.5238 37.3343 27.2118 37.3052 26.8997 37.3052C26.8073 37.3052 26.7148 37.2762 26.6223 37.2645C26.5126 37.2471 26.4028 37.2181 26.293 37.1948C26.1023 37.1541 25.9173 37.096 25.7324 37.0438C25.5128 36.9798 25.3048 36.8752 25.0968 36.7823C24.9581 36.7184 24.8367 36.6254 24.7038 36.5557C24.594 36.4976 24.4958 36.4278 24.3975 36.3581C24.2646 36.2535 24.1317 36.1489 24.0046 36.0444C23.8255 35.8933 23.6579 35.7248 23.5018 35.5505C23.4036 35.4343 23.2996 35.3239 23.2071 35.2019C23.0453 34.9869 22.9124 34.7544 22.7853 34.522C22.6639 34.2954 22.5426 34.0688 22.4617 33.8248C22.375 33.5807 22.3172 33.3309 22.2421 33.0869C22.2132 32.9881 22.2132 32.8777 22.1901 32.7731C22.1265 32.4768 22.1092 32.1862 22.1207 31.8783ZM25.3741 35.7596C25.3915 35.7306 25.3857 35.7074 25.3857 35.6841C25.3857 35.4168 25.3857 35.1496 25.3857 34.8881C25.3857 33.511 25.3857 32.1398 25.3857 30.7627C25.3857 30.7162 25.3915 30.6872 25.4493 30.6872C25.8711 30.6872 26.293 30.6872 26.7148 30.693C26.7726 30.693 26.7957 30.6814 26.7899 30.6174C26.7899 30.0771 26.7899 29.5309 26.7899 28.9905C26.7899 28.6128 26.7899 28.241 26.7899 27.8633C26.7899 27.7703 26.7899 27.7703 26.8882 27.7645C26.9402 27.7645 26.998 27.7703 27.05 27.7529C27.0789 27.7471 27.1193 27.7645 27.1251 27.811C27.1251 27.8691 27.1367 27.9214 27.1367 27.9737C27.1367 28.8511 27.1367 29.7284 27.1367 30.6116C27.1367 30.6697 27.154 30.6872 27.2118 30.6814C27.6336 30.6814 28.0555 30.6814 28.4773 30.6755C28.5351 30.6755 28.5524 30.6872 28.5524 30.7453C28.5524 32.3199 28.5524 33.8945 28.5524 35.4633C28.5524 35.6551 28.5524 35.8526 28.5524 36.0444C28.5524 36.0908 28.564 36.1083 28.616 36.0908C28.6853 36.0676 28.7547 36.056 28.8183 36.0269C28.9396 35.9746 29.0667 35.9282 29.1881 35.8642C29.3268 35.7887 29.4713 35.7248 29.6099 35.6434C29.7775 35.5447 29.9278 35.4343 30.0838 35.3123C30.1763 35.2425 30.2629 35.1728 30.2225 35.0333C30.2225 35.0275 30.2225 35.0217 30.2225 35.0101C30.2225 32.6918 30.2283 30.3676 30.2283 28.0492C30.2283 27.3229 30.2283 26.5966 30.2283 25.8703C30.2283 25.7774 30.2283 25.7774 30.3207 25.7774C30.7252 25.7774 31.1355 25.7774 31.54 25.7774C31.6094 25.7774 31.6325 25.7541 31.6325 25.6844C31.6267 25.208 31.6325 24.7257 31.6325 24.2492C31.6325 23.8135 31.6325 23.3777 31.6325 22.9419C31.6325 22.8722 31.6556 22.8547 31.7192 22.8547C31.7827 22.8605 31.8463 22.8605 31.9041 22.8547C31.9561 22.8489 31.9677 22.8722 31.9677 22.9186C31.9677 23.8251 31.9677 24.7315 31.9677 25.6437C31.9677 25.6728 31.9734 25.7018 31.9619 25.7251C31.9388 25.7774 31.9677 25.7774 32.0023 25.7774C32.1063 25.7774 32.2161 25.7774 32.3202 25.7774C32.6438 25.7774 32.9674 25.7774 33.2852 25.7774C33.343 25.7774 33.3661 25.7948 33.3661 25.8529C33.3603 25.9284 33.3603 26.0098 33.3603 26.0853C33.3603 28.0028 33.3603 29.9144 33.3603 31.8318C33.3603 31.8551 33.3603 31.8725 33.3661 31.8957C33.3834 31.9422 33.395 31.948 33.4297 31.9132C33.499 31.8376 33.5684 31.7679 33.6377 31.6982C34.0075 31.3147 34.3832 30.9312 34.753 30.5477C35.2095 30.0771 35.666 29.6064 36.1283 29.1358C36.163 29.1009 36.1746 29.0603 36.1746 29.0138C36.1746 28.3165 36.1746 27.6135 36.1746 26.9162C36.1746 26.8581 36.1572 26.8407 36.0994 26.8407C35.6949 26.8465 35.2904 26.8407 34.8859 26.8407C34.7761 26.8407 34.7703 26.8639 34.7703 26.7303C34.7703 24.6502 34.7703 22.5642 34.7703 20.4841C34.7703 20.4318 34.7472 20.3853 34.753 20.333C34.7819 20.1645 34.7646 19.9902 34.7646 19.8217C34.7646 19.7055 34.7588 19.7055 34.649 19.7113C34.6316 19.7113 34.6085 19.7113 34.5912 19.7113C34.4698 19.7229 34.3485 19.7229 34.2271 19.7462C33.9613 19.7985 33.6955 19.8682 33.4354 19.967C33.135 20.0774 32.8518 20.2226 32.5918 20.4027C32.2681 20.6235 31.985 20.9024 31.7076 21.1813C31.4707 21.4196 31.2453 21.6578 31.0084 21.896C30.9102 21.9948 30.8119 22.0878 30.7195 22.1865C30.4305 22.4887 30.1416 22.7966 29.8526 23.1046C29.7833 23.1801 29.714 23.2673 29.6388 23.337C29.4828 23.4881 29.3383 23.645 29.1823 23.796C28.7605 24.2144 28.3386 24.6385 27.9399 25.0801C27.703 25.3416 27.4545 25.5856 27.206 25.8355C26.7899 26.2596 26.3623 26.678 25.952 27.108C25.536 27.5437 25.1257 27.9795 24.7038 28.4095C24.4033 28.7174 24.0971 29.0196 23.8659 29.3914C23.6983 29.6529 23.5481 29.926 23.4325 30.2165C23.2823 30.5942 23.1898 30.9835 23.1493 31.3844C23.1031 31.8318 23.1089 32.2792 23.2014 32.7208C23.2649 33.0229 23.3516 33.3193 23.4614 33.6098C23.5192 33.7667 23.6059 33.9119 23.6868 34.0572C24.0971 34.7893 24.6518 35.3529 25.3741 35.7596ZM37.9024 20.9315C37.8966 20.9664 37.8966 20.9838 37.8966 21.0012C37.8966 21.9309 37.8966 22.8547 37.8966 23.7844C37.8966 24.778 37.8966 25.7716 37.8966 26.7709C37.8966 26.8349 37.8851 26.8639 37.8099 26.8639C37.3939 26.8581 36.9836 26.8639 36.5675 26.8639C36.5039 26.8639 36.4866 26.8872 36.4866 26.9453C36.4866 27.5147 36.4866 28.0899 36.4866 28.6593C36.4866 28.6884 36.4866 28.7174 36.4866 28.7465C36.6369 28.6012 36.7813 28.4618 36.9258 28.3165C37.1627 28.0725 37.3996 27.8284 37.6366 27.5844C37.9255 27.2881 38.2202 26.9976 38.4514 26.6489C38.9079 25.9633 39.1506 25.2021 39.2026 24.3829C39.2315 23.9122 39.1795 23.4474 39.0639 22.9884C38.9426 22.5061 38.7461 22.0587 38.4687 21.6462C38.3127 21.3847 38.1162 21.1697 37.9024 20.9315Z" fill="url(#paint2_linear_637_2988)"/>
</g>
<g filter="url(#filter2_d_637_2988)">
<path d="M21.2895 34.3272C21.2262 34.3041 21.1916 34.258 21.1628 34.2176C21.0591 34.0791 20.9324 33.9579 20.8171 33.8309C20.6789 33.6751 20.5348 33.5193 20.3851 33.3693C20.097 33.075 19.8089 32.7807 19.5209 32.4864C19.3538 32.3132 19.1868 32.1459 19.0197 31.9785C18.8814 31.84 18.7547 31.69 18.6164 31.5573C18.553 31.4938 18.4954 31.4188 18.4148 31.3668C18.3456 31.3265 18.3226 31.2399 18.2592 31.1822C18.0749 31.0148 17.9136 30.8302 17.7292 30.6628C17.5852 30.5301 17.47 30.3627 17.3259 30.23C17.2338 30.1492 17.1531 30.0511 17.0552 29.9761C17.0091 29.9473 16.9918 29.8838 16.9515 29.8434C16.7613 29.6587 16.5712 29.4798 16.3926 29.2836C16.1507 29.0124 15.8857 28.7643 15.6437 28.493C15.4651 28.2968 15.2692 28.1122 15.0849 27.9217C14.8141 27.639 14.5664 27.3331 14.3532 27.0042C14.2495 26.8426 14.1689 26.6695 14.0767 26.5022C13.9903 26.3463 13.9384 26.179 13.8693 26.0232C13.7771 25.827 13.7483 25.6192 13.6849 25.4173C13.6446 25.2788 13.6273 25.1345 13.5985 24.996C13.5294 24.6094 13.5467 24.2227 13.5352 23.8303C13.5352 23.7264 13.5467 23.6226 13.5409 23.5187C13.5409 23.4379 13.5755 23.3514 13.587 23.2648C13.5985 23.2129 13.5928 23.1551 13.5985 23.1032C13.61 23.0167 13.6389 22.9359 13.6619 22.8493C13.731 22.555 13.8232 22.2722 13.9327 21.9895C13.996 21.8221 14.0594 21.649 14.1574 21.499C14.2841 21.3028 14.3993 21.095 14.5376 20.9103C14.6758 20.7199 14.8141 20.5295 14.9812 20.3621C15.1252 20.2121 15.275 20.0678 15.4363 19.9293C15.6956 19.6985 15.9778 19.4965 16.2832 19.3292C16.4675 19.2311 16.6576 19.1387 16.8478 19.0522C16.986 18.9887 17.1243 18.9368 17.2741 18.9021C17.3893 18.8733 17.493 18.8214 17.614 18.8098C17.7983 18.7925 17.9712 18.7463 18.1498 18.7175C18.409 18.6829 18.6683 18.6829 18.9275 18.6829C19.0312 18.6829 19.1349 18.6829 19.2328 18.6886C19.3365 18.6944 19.4402 18.7117 19.5439 18.729C19.688 18.7521 19.832 18.8098 19.9818 18.8156C20.1143 18.8214 20.2237 18.8906 20.3447 18.9195C20.5752 18.9714 20.7826 19.081 20.9957 19.1734C21.255 19.2888 21.4912 19.4331 21.7216 19.5946C21.8887 19.71 22.0615 19.8255 22.2171 19.964C22.3265 20.0621 22.4302 20.1659 22.5282 20.2698C22.8508 20.5987 23.1734 20.9277 23.496 21.2566C23.8474 21.6201 24.1989 21.9895 24.5561 22.3473C24.9939 22.7858 25.4145 23.2475 25.8581 23.6803C25.8753 23.6976 25.8926 23.7149 25.9099 23.7322C25.9329 23.7553 25.9272 23.7784 25.9041 23.8015C25.7428 23.963 25.5873 24.1189 25.426 24.2804C25.3741 24.3381 25.3108 24.3901 25.2647 24.4478C25.2243 24.4939 25.1955 24.4709 25.1667 24.4478C25.04 24.3208 24.9017 24.1996 24.7923 24.0554C24.677 23.9111 24.5272 23.8072 24.4235 23.6572C24.3775 23.5937 24.3083 23.5476 24.2565 23.4898C24.0376 23.2648 23.8244 23.0282 23.5997 22.8147C23.3981 22.6185 23.208 22.405 23.0063 22.203C22.8681 22.0645 22.7183 21.9375 22.5915 21.7875C22.4187 21.5798 22.2228 21.4009 22.0385 21.2047C21.8368 20.9911 21.6352 20.7776 21.399 20.5987C21.2607 20.4949 21.1167 20.391 20.9612 20.3044C20.8344 20.2294 20.7019 20.1659 20.5752 20.0967C20.4542 20.0332 20.3274 19.9813 20.1949 19.9409C20.0855 19.9062 19.9703 19.8659 19.855 19.837C19.6764 19.7908 19.4978 19.762 19.3193 19.7331C19.2271 19.7158 19.1349 19.7216 19.0427 19.7158C18.9851 19.71 18.9736 19.7331 18.9736 19.7851C18.9736 19.964 18.9736 20.1428 18.9736 20.316C18.9736 20.8757 18.9736 21.4355 18.9736 21.9952C18.9736 23.3398 18.9794 24.6902 18.9736 26.0347C18.9736 26.2656 18.9851 26.4964 18.9794 26.733C18.9794 26.7791 18.9736 26.808 18.9102 26.808C18.4954 26.808 18.0806 26.808 17.6658 26.808C17.5967 26.808 17.5794 26.8311 17.5794 26.9176C17.5794 27.5351 17.5794 28.1468 17.5794 28.7643C17.5794 28.8393 17.5852 28.9143 17.5737 28.9893C17.5679 29.0182 17.5794 29.0355 17.5967 29.0586C17.9885 29.4567 18.3802 29.8549 18.772 30.2589C19.1983 30.6974 19.6246 31.136 20.0509 31.5746C20.1546 31.6785 20.2641 31.7766 20.3735 31.8804C20.3735 31.7073 20.3735 31.5284 20.3735 31.3495C20.3735 29.5087 20.3735 27.6736 20.3735 25.8327C20.3735 25.7693 20.3966 25.752 20.4542 25.752C20.869 25.752 21.2838 25.752 21.6986 25.752C21.7677 25.752 21.7792 25.7289 21.7792 25.6654C21.7792 24.7594 21.7792 23.8592 21.7792 22.9532C21.7792 22.8493 21.7792 22.8493 21.8829 22.8493C21.929 22.8493 21.9809 22.8551 22.027 22.8493C22.0903 22.8435 22.1134 22.8666 22.1134 22.9359C22.1134 23.2648 22.1134 23.5937 22.1134 23.9227C22.1134 24.5113 22.1134 25.0941 22.1134 25.6827C22.1134 25.7462 22.1364 25.7693 22.194 25.7462C22.2344 25.7289 22.2747 25.752 22.3092 25.752C22.6837 25.752 23.0524 25.752 23.4269 25.752C23.4903 25.752 23.5248 25.7693 23.5075 25.8385C23.4845 25.9712 23.496 26.104 23.496 26.2309C23.496 26.2656 23.4845 26.2886 23.4615 26.3117C23.329 26.4387 23.2137 26.5714 23.0812 26.6984C22.9372 26.8426 22.7932 26.9869 22.6491 27.1369C22.4878 27.2985 22.3438 27.4716 22.2055 27.6505C22.1076 27.7775 22.0154 27.9044 21.929 28.0372C21.7792 28.2622 21.6352 28.493 21.52 28.7412C21.4105 28.972 21.3068 29.2086 21.2204 29.451C21.1455 29.6645 21.0649 29.8722 21.0188 30.0915C20.9784 30.2877 20.9266 30.4782 20.8978 30.6744C20.8805 30.8071 20.869 30.9398 20.8517 31.0725C20.8287 31.2514 20.8229 31.4246 20.8114 31.6034C20.7998 31.7708 20.7941 31.9381 20.8171 32.1055C20.8287 32.1863 20.8229 32.2728 20.8287 32.3536C20.8459 32.5152 20.8632 32.6768 20.8863 32.8326C20.9266 33.1211 21.0015 33.4039 21.0764 33.6809C21.1167 33.8309 21.1628 33.9752 21.2262 34.1137C21.2434 34.1829 21.278 34.2464 21.2895 34.3272ZM17.2165 28.6431C17.2165 28.6315 17.2222 28.6258 17.2222 28.62C17.2222 28.0545 17.2222 27.4889 17.2222 26.9234C17.2222 26.7791 17.2222 26.7849 17.084 26.7907C16.6865 26.808 16.2947 26.7965 15.8972 26.7965C15.8453 26.7965 15.8223 26.7791 15.8223 26.7214C15.8223 24.8344 15.8223 22.9416 15.8223 21.0546C15.8223 21.02 15.8396 20.9681 15.8108 20.9565C15.782 20.945 15.7647 20.9969 15.7416 21.02C15.4824 21.2681 15.2808 21.5624 15.1022 21.8683C14.8602 22.2895 14.7047 22.7397 14.6067 23.2129C14.5145 23.6572 14.5088 24.1073 14.5433 24.5574C14.5606 24.7767 14.6125 24.9902 14.6586 25.2037C14.7738 25.6827 14.9812 26.1271 15.252 26.5368C15.4766 26.883 15.7589 27.1773 16.0527 27.4716C16.214 27.639 16.3754 27.8063 16.5367 27.9737C16.7325 28.1699 16.9284 28.3661 17.1185 28.5681C17.1473 28.5969 17.1761 28.6258 17.2165 28.6431Z" fill="url(#paint3_linear_637_2988)"/>
</g>
<path d="M5.7749 45.1114C5.7749 45.1114 15.2442 48.1909 26.7374 48.1909C38.2306 48.1909 47.8445 45.1114 47.8445 45.1114V34.4511C47.8445 34.4511 35.2138 38.6076 26.7374 38.5968C18.3159 38.586 5.7749 34.4511 5.7749 34.4511V45.1114Z" fill="url(#paint4_linear_637_2988)"/>
<path d="M24 41.3042H25.1845V45.2493H24V41.3042Z" fill="#528DFF"/>
<path d="M27.6165 45.0356L25.8745 41.5046H26.6772L28.2313 44.6977H27.7702L29.3414 41.5046H30.0815L28.3452 45.0356H27.6165Z" fill="#528DFF"/>
<path fill-rule="evenodd" clip-rule="evenodd" d="M25.5361 41.2944H26.8086L28.0029 43.7481L29.2103 41.2944H30.419L28.476 45.2458H27.4855L25.5361 41.2944ZM27.7677 44.226L26.5454 41.7148H26.2125L27.6098 44.547L27.7677 44.226ZM28.3714 44.5053L28.236 44.227L29.4722 41.7148H29.7436L28.3714 44.5053Z" fill="#528DFF"/>
<g filter="url(#filter3_d_637_2988)">
<path d="M27.749 11.4588C27.4251 12.0193 26.6155 12.0193 26.2916 11.4588L24.6521 8.62138C24.3283 8.06091 24.7331 7.36031 25.3808 7.36031L28.6598 7.36031C29.3075 7.36031 29.7123 8.06091 29.3885 8.62138L27.749 11.4588Z" fill="url(#paint5_linear_637_2988)"/>
</g>
<g filter="url(#filter4_d_637_2988)">
<path d="M27.749 55.5962C27.4251 56.1567 26.6155 56.1567 26.2916 55.5962L24.6521 52.7588C24.3283 52.1984 24.7331 51.4978 25.3808 51.4978L28.6598 51.4978C29.3075 51.4978 29.7123 52.1984 29.3885 52.7588L27.749 55.5962Z" fill="url(#paint6_linear_637_2988)"/>
</g>
<defs>
<filter id="filter0_i_637_2988" x="7.13672" y="10.2554" width="41.3467" height="42.783" filterUnits="userSpaceOnUse" color-interpolation-filters="sRGB">
<feFlood flood-opacity="0" result="BackgroundImageFix"/>
<feBlend mode="normal" in="SourceGraphic" in2="BackgroundImageFix" result="shape"/>
<feColorMatrix in="SourceAlpha" type="matrix" values="0 0 0 0 0 0 0 0 0 0 0 0 0 0 0 0 0 0 127 0" result="hardAlpha"/>
<feOffset dx="2" dy="1"/>
<feGaussianBlur stdDeviation="1"/>
<feComposite in2="hardAlpha" operator="arithmetic" k2="-1" k3="1"/>
<feColorMatrix type="matrix" values="0 0 0 0 0 0 0 0 0 0 0 0 0 0 0 0 0 0 0.25 0"/>
<feBlend mode="normal" in2="shape" result="effect1_innerShadow_637_2988"/>
</filter>
<filter id="filter1_d_637_2988" x="21.5128" y="18.6829" width="21.3074" height="22.2372" filterUnits="userSpaceOnUse" color-interpolation-filters="sRGB">
<feFlood flood-opacity="0" result="BackgroundImageFix"/>
<feColorMatrix in="SourceAlpha" type="matrix" values="0 0 0 0 0 0 0 0 0 0 0 0 0 0 0 0 0 0 127 0" result="hardAlpha"/>
<feOffset dx="1" dy="2"/>
<feGaussianBlur stdDeviation="0.8"/>
<feComposite in2="hardAlpha" operator="out"/>
<feColorMatrix type="matrix" values="0 0 0 0 0 0 0 0 0 0 0 0 0 0 0 0 0 0 0.25 0"/>
<feBlend mode="normal" in2="BackgroundImageFix" result="effect1_dropShadow_637_2988"/>
<feBlend mode="normal" in="SourceGraphic" in2="effect1_dropShadow_637_2988" result="shape"/>
</filter>
<filter id="filter2_d_637_2988" x="12.9352" y="18.6829" width="15.5896" height="19.2443" filterUnits="userSpaceOnUse" color-interpolation-filters="sRGB">
<feFlood flood-opacity="0" result="BackgroundImageFix"/>
<feColorMatrix in="SourceAlpha" type="matrix" values="0 0 0 0 0 0 0 0 0 0 0 0 0 0 0 0 0 0 127 0" result="hardAlpha"/>
<feOffset dx="1" dy="2"/>
<feGaussianBlur stdDeviation="0.8"/>
<feComposite in2="hardAlpha" operator="out"/>
<feColorMatrix type="matrix" values="0 0 0 0 0 0 0 0 0 0 0 0 0 0 0 0 0 0 0.25 0"/>
<feBlend mode="normal" in2="BackgroundImageFix" result="effect1_dropShadow_637_2988"/>
<feBlend mode="normal" in="SourceGraphic" in2="effect1_dropShadow_637_2988" result="shape"/>
</filter>
<filter id="filter3_d_637_2988" x="18.2381" y="1.06035" width="17.5644" height="17.1188" filterUnits="userSpaceOnUse" color-interpolation-filters="sRGB">
<feFlood flood-opacity="0" result="BackgroundImageFix"/>
<feColorMatrix in="SourceAlpha" type="matrix" values="0 0 0 0 0 0 0 0 0 0 0 0 0 0 0 0 0 0 127 0" result="hardAlpha"/>
<feOffset/>
<feGaussianBlur stdDeviation="3.15"/>
<feComposite in2="hardAlpha" operator="out"/>
<feColorMatrix type="matrix" values="0 0 0 0 1 0 0 0 0 1 0 0 0 0 1 0 0 0 0.25 0"/>
<feBlend mode="normal" in2="BackgroundImageFix" result="effect1_dropShadow_637_2988"/>
<feBlend mode="normal" in="SourceGraphic" in2="effect1_dropShadow_637_2988" result="shape"/>
</filter>
<filter id="filter4_d_637_2988" x="22.2381" y="49.1978" width="9.56436" height="9.1188" filterUnits="userSpaceOnUse" color-interpolation-filters="sRGB">
<feFlood flood-opacity="0" result="BackgroundImageFix"/>
<feColorMatrix in="SourceAlpha" type="matrix" values="0 0 0 0 0 0 0 0 0 0 0 0 0 0 0 0 0 0 127 0" result="hardAlpha"/>
<feOffset/>
<feGaussianBlur stdDeviation="1.15"/>
<feComposite in2="hardAlpha" operator="out"/>
<feColorMatrix type="matrix" values="0 0 0 0 1 0 0 0 0 1 0 0 0 0 1 0 0 0 0.4 0"/>
<feBlend mode="normal" in2="BackgroundImageFix" result="effect1_dropShadow_637_2988"/>
<feBlend mode="normal" in="SourceGraphic" in2="effect1_dropShadow_637_2988" result="shape"/>
</filter>
<linearGradient id="paint0_linear_637_2988" x1="15.7976" y1="7.25524" x2="40.4377" y2="9.64346" gradientUnits="userSpaceOnUse">
<stop stop-color="#528DFF"/>
<stop offset="1" stop-color="#001D56"/>
</linearGradient>
<linearGradient id="paint1_linear_637_2988" x1="16.5105" y1="9.02396" x2="40.0798" y2="10.3016" gradientUnits="userSpaceOnUse">
<stop stop-color="#528DFF"/>
<stop offset="1" stop-color="#093996"/>
</linearGradient>
<linearGradient id="paint2_linear_637_2988" x1="26.4267" y1="18.6829" x2="37.269" y2="19.3107" gradientUnits="userSpaceOnUse">
<stop stop-color="#A2C0FC"/>
<stop offset="1" stop-color="#2752A6"/>
</linearGradient>
<linearGradient id="paint3_linear_637_2988" x1="16.4868" y1="18.6829" x2="22.2237" y2="6.77168" gradientUnits="userSpaceOnUse">
<stop stop-color="#98B7F4"/>
<stop offset="0.9999" stop-color="#1C6A8B"/>
<stop offset="1" stop-color="#1A6889"/>
<stop offset="1" stop-color="#216F91"/>
<stop offset="1" stop-color="#0A8593"/>
</linearGradient>
<linearGradient id="paint4_linear_637_2988" x1="32.2787" y1="53.2849" x2="29.3827" y2="31.586" gradientUnits="userSpaceOnUse">
<stop offset="0.297027" stop-color="#0E3E9B"/>
<stop offset="0.994792" stop-color="#528DFF"/>
</linearGradient>
<linearGradient id="paint5_linear_637_2988" x1="28.8924" y1="12.7199" x2="24.611" y2="12.4645" gradientUnits="userSpaceOnUse">
<stop offset="0.0001" stop-color="#0B3993"/>
<stop offset="1" stop-color="#A7C5FF"/>
</linearGradient>
<linearGradient id="paint6_linear_637_2988" x1="28.8924" y1="56.8573" x2="24.611" y2="56.6019" gradientUnits="userSpaceOnUse">
<stop stop-color="#19479F"/>
<stop offset="1" stop-color="#9CB2FF"/>
</linearGradient>
</defs>
</svg>
