<svg width="77" height="73" viewBox="0 0 77 73" fill="none" xmlns="http://www.w3.org/2000/svg">
<path d="M46.0033 10.334C46.0163 10.7008 39.1899 18.5329 33.3856 25.7092C30.0639 25.0389 25.371 24.4458 27.2362 22.3882C30.5335 18.7509 34.7544 15.243 37.8735 11.1708L46.542 1.52222C46.4423 2.8318 45.9784 9.6329 46.0033 10.334Z" fill="url(#paint0_linear_622_11199)"/>
<path d="M28.5954 10.334C28.5824 10.7008 35.4087 18.5329 41.213 25.7092C44.5348 25.0389 49.2276 24.4458 47.3624 22.3882C44.0651 18.7509 39.8442 15.243 36.7252 11.1708L28.0566 1.52222C28.1563 2.8318 28.6202 9.6329 28.5954 10.334Z" fill="url(#paint1_linear_622_11199)"/>
<path d="M74.8537 19.4053C74.3428 19.9309 65.3313 31.6685 58.7488 38.2362C56.3093 35.61 52.7645 32.3728 54.8107 30.5944C58.4279 27.4507 62.7393 24.9611 66.3365 21.1433L75.8701 12.7634C75.2948 14.5517 75.1021 19.1498 74.8537 19.4053Z" fill="url(#paint2_linear_622_11199)"/>
<path d="M2.55496 18.894C3.06591 19.4196 11.281 31.1573 17.8635 37.7249C20.303 35.0988 23.8478 31.8616 21.8016 30.0832C18.1844 26.9395 13.873 24.4498 10.2758 20.6321L0.742188 12.2522C1.3175 14.0405 2.3066 18.6386 2.55496 18.894Z" fill="url(#paint3_linear_622_11199)"/>
<path d="M63.1948 46.0196V27.3248L71.5336 16.3394L60.384 20.1715L42.1217 10.3694L37.3 0.5L33.7234 10.3694L14.6541 20.1715L10.0556 18.2555L5.45703 16.3394L12.0999 27.3248V45.9248C12.0999 52.5605 16.4598 58.4076 22.8195 60.3011L27.6575 61.7416C30.6079 62.62 33.2166 64.385 35.1296 66.797L38.0664 70.5L40.7615 66.9474C42.6635 64.4403 45.3058 62.5948 48.3145 61.6723L52.5922 60.3606C58.893 58.4285 63.1948 52.6101 63.1948 46.0196Z" fill="url(#paint4_linear_622_11199)"/>
<g filter="url(#filter0_i_622_11199)">
<path d="M29.7367 15.6407L20.6182 21.5265C16.3383 24.2891 13.7529 29.035 13.7529 34.1291V44.7617C13.7529 51.4991 18.245 57.4099 24.7364 59.2139L33.9143 61.7646C36.5789 62.5051 39.3964 62.4946 42.0554 61.7341L50.6653 59.2718C57.1029 57.4306 61.5407 51.5457 61.5407 44.85V34.0019C61.5407 28.9776 59.0253 24.287 54.8402 21.5071L46.1709 15.7486C41.2017 12.4479 34.7488 12.4055 29.7367 15.6407Z" fill="url(#paint5_linear_622_11199)"/>
</g>
<g filter="url(#filter1_d_622_11199)">
<path d="M31.952 38.0932C31.931 37.9025 31.952 37.6977 31.945 37.4858C31.945 37.3798 31.9661 37.2598 32.0012 37.1468C32.0292 37.0408 32.0292 36.9278 32.0503 36.829C32.0924 36.6383 32.1485 36.4546 32.1907 36.264C32.2608 35.9532 32.3942 35.6636 32.5135 35.367C32.6328 35.0633 32.8013 34.7808 32.9697 34.4983C33.1311 34.2229 33.3276 33.9757 33.5382 33.7285C33.833 33.3965 34.1488 33.0787 34.4506 32.7538C34.6611 32.5278 34.8787 32.3159 35.0893 32.097C35.4963 31.6874 35.9104 31.2777 36.3035 30.854C36.7246 30.409 37.1527 29.9782 37.5808 29.5333C37.7703 29.3355 37.9809 29.1519 38.1633 28.94C38.4651 28.5869 38.809 28.2761 39.1319 27.9442C39.3144 27.7606 39.4968 27.5769 39.6723 27.3862C40.0934 26.9272 40.5566 26.5105 40.9777 26.0443C41.3287 25.6559 41.7147 25.2957 42.0726 24.9143C42.3463 24.6247 42.62 24.3422 42.8868 24.0597C43.1184 23.8196 43.371 23.6148 43.6237 23.4029C43.8764 23.191 44.1501 23.0215 44.4308 22.852C44.7326 22.6755 45.0625 22.5342 45.3923 22.4141C45.5397 22.3647 45.6801 22.2941 45.8275 22.2658C45.9538 22.2446 46.0731 22.2023 46.1995 22.1881C46.396 22.167 46.5855 22.1246 46.782 22.0963C47.0768 22.054 47.3786 22.054 47.6733 22.054C48.0523 22.054 48.4243 22.1105 48.7893 22.1811C49.1963 22.2588 49.5894 22.3718 49.9613 22.5413C50.3263 22.7037 50.6842 22.9015 51.0211 23.1275C51.4071 23.3959 51.7651 23.6995 52.0949 24.0386C52.3897 24.3352 52.6283 24.6742 52.867 25.0132C53.1688 25.4581 53.3863 25.9525 53.5688 26.461C53.7232 26.8989 53.8215 27.3439 53.8776 27.8029C53.9057 28.0642 53.9408 28.3256 53.9338 28.5939C53.9268 28.8694 53.9338 29.1448 53.8917 29.4203C53.8425 29.7381 53.8004 30.063 53.7162 30.3737C53.6109 30.7551 53.4846 31.1294 53.3162 31.4826C53.0284 32.1182 52.6494 32.6832 52.1792 33.1988C51.8563 33.559 51.5124 33.905 51.1755 34.244C50.8316 34.583 50.5018 34.9362 50.1789 35.2893C50.0385 35.4447 49.8982 35.6001 49.7367 35.7343C49.6455 35.819 49.5613 35.9179 49.4771 36.0026C49.4139 36.0662 49.3507 36.1227 49.2876 36.1863C48.9366 36.5535 48.5787 36.9066 48.2348 37.281C48.0453 37.4858 47.8558 37.6906 47.6663 37.8884C47.3435 38.2203 47.0206 38.5522 46.6907 38.8842C46.3609 39.2161 46.024 39.541 45.7082 39.8871C45.273 40.3603 44.8168 40.8193 44.3747 41.2925C44.0939 41.5892 43.7921 41.8717 43.5044 42.1612C43.2166 42.4508 42.9289 42.7404 42.6411 43.0299C42.4797 43.1924 42.2902 43.3266 42.1147 43.4678C41.8691 43.6585 41.6094 43.828 41.3357 43.9693C40.9076 44.1882 40.4584 44.3648 39.9952 44.499C39.7144 44.5767 39.4196 44.619 39.1319 44.6755C39.0547 44.6897 38.9705 44.6897 38.8933 44.6967C38.5143 44.725 38.1353 44.6897 37.7563 44.6897C37.644 44.6897 37.5317 44.6543 37.4194 44.6402C37.286 44.619 37.1527 44.5837 37.0193 44.5555C36.7877 44.506 36.5631 44.4354 36.3385 44.3718C36.0718 44.2942 35.8192 44.167 35.5665 44.054C35.3981 43.9763 35.2507 43.8633 35.0893 43.7786C34.9559 43.708 34.8366 43.6232 34.7173 43.5385C34.5559 43.4113 34.3944 43.2842 34.24 43.1571C34.0225 42.9734 33.8189 42.7686 33.6294 42.5567C33.5101 42.4155 33.3838 42.2813 33.2715 42.133C33.075 41.8717 32.9136 41.5892 32.7591 41.3067C32.6118 41.0312 32.4644 40.7558 32.3661 40.4591C32.2608 40.1625 32.1907 39.8588 32.0994 39.5622C32.0643 39.4421 32.0643 39.3079 32.0362 39.1808C31.959 38.8206 31.938 38.4675 31.952 38.0932ZM35.9034 42.811C35.9245 42.7757 35.9174 42.7474 35.9174 42.7192C35.9174 42.3943 35.9174 42.0694 35.9174 41.7516C35.9174 40.0778 35.9174 38.411 35.9174 36.7371C35.9174 36.6806 35.9245 36.6453 35.9946 36.6453C36.507 36.6453 37.0193 36.6453 37.5317 36.6524C37.6019 36.6524 37.6299 36.6383 37.6229 36.5606C37.6229 35.9038 37.6229 35.2399 37.6229 34.583C37.6229 34.124 37.6229 33.672 37.6229 33.2129C37.6229 33.0999 37.6229 33.0999 37.7422 33.0928C37.8054 33.0928 37.8756 33.0999 37.9388 33.0787C37.9738 33.0716 38.023 33.0928 38.03 33.1493C38.03 33.22 38.044 33.2835 38.044 33.3471C38.044 34.4135 38.044 35.48 38.044 36.5535C38.044 36.6241 38.0651 36.6453 38.1353 36.6383C38.6476 36.6383 39.16 36.6383 39.6723 36.6312C39.7425 36.6312 39.7635 36.6453 39.7635 36.716C39.7635 38.6299 39.7635 40.5439 39.7635 42.4508C39.7635 42.6839 39.7635 42.924 39.7635 43.1571C39.7635 43.2136 39.7776 43.2348 39.8407 43.2136C39.925 43.1853 40.0092 43.1712 40.0864 43.1359C40.2338 43.0723 40.3882 43.0158 40.5356 42.9381C40.704 42.8463 40.8795 42.7686 41.0479 42.6697C41.2515 42.5497 41.4339 42.4155 41.6234 42.2672C41.7357 42.1824 41.841 42.0977 41.7919 41.9282C41.7919 41.9211 41.7919 41.914 41.7919 41.8999C41.7919 39.0819 41.7989 36.2569 41.7989 33.4389C41.7989 32.5561 41.7989 31.6732 41.7989 30.7904C41.7989 30.6774 41.7989 30.6774 41.9112 30.6774C42.4025 30.6774 42.9008 30.6774 43.3921 30.6774C43.4763 30.6774 43.5044 30.6492 43.5044 30.5644C43.4974 29.9853 43.5044 29.3991 43.5044 28.8199C43.5044 28.2902 43.5044 27.7606 43.5044 27.2309C43.5044 27.1461 43.5324 27.1249 43.6097 27.1249C43.6869 27.132 43.7641 27.132 43.8342 27.1249C43.8974 27.1179 43.9114 27.1461 43.9114 27.2026C43.9114 28.3044 43.9114 29.4061 43.9114 30.515C43.9114 30.5503 43.9185 30.5856 43.9044 30.6139C43.8764 30.6774 43.9114 30.6774 43.9536 30.6774C44.0799 30.6774 44.2132 30.6774 44.3396 30.6774C44.7326 30.6774 45.1256 30.6774 45.5116 30.6774C45.5818 30.6774 45.6099 30.6986 45.6099 30.7692C45.6029 30.861 45.6029 30.9599 45.6029 31.0517C45.6029 33.3824 45.6029 35.706 45.6029 38.0367C45.6029 38.0649 45.6029 38.0861 45.6099 38.1144C45.631 38.1709 45.645 38.1779 45.6871 38.1355C45.7713 38.0437 45.8555 37.959 45.9398 37.8742C46.389 37.4081 46.8452 36.942 47.2943 36.4758C47.8488 35.9038 48.4032 35.3317 48.9647 34.7596C49.0068 34.7172 49.0209 34.6678 49.0209 34.6113C49.0209 33.7638 49.0209 32.9092 49.0209 32.0617C49.0209 31.9911 48.9998 31.9699 48.9296 31.9699C48.4383 31.9769 47.947 31.9699 47.4558 31.9699C47.3224 31.9699 47.3154 31.9981 47.3154 31.8357C47.3154 29.3073 47.3154 26.7718 47.3154 24.2434C47.3154 24.1798 47.2873 24.1233 47.2943 24.0597C47.3294 23.8549 47.3084 23.643 47.3084 23.4382C47.3084 23.297 47.3013 23.297 47.168 23.304C47.1469 23.304 47.1189 23.304 47.0978 23.304C46.9504 23.3182 46.803 23.3182 46.6557 23.3464C46.3328 23.41 46.01 23.4947 45.6941 23.6148C45.3292 23.749 44.9853 23.9255 44.6694 24.1445C44.2764 24.4129 43.9325 24.7519 43.5956 25.0909C43.3079 25.3805 43.0341 25.67 42.7464 25.9596C42.6271 26.0796 42.5078 26.1927 42.3955 26.3127C42.0445 26.68 41.6936 27.0543 41.3427 27.4286C41.2585 27.5204 41.1743 27.6264 41.083 27.7111C40.8935 27.8947 40.7181 28.0854 40.5286 28.2691C40.0162 28.7776 39.5039 29.2931 39.0196 29.8299C38.7318 30.1477 38.43 30.4443 38.1283 30.748C37.6229 31.2636 37.1036 31.7721 36.6052 32.2948C36.0999 32.8245 35.6016 33.3542 35.0893 33.8768C34.7243 34.2511 34.3523 34.6184 34.0716 35.0704C33.8681 35.3882 33.6856 35.7201 33.5452 36.0733C33.3627 36.5323 33.2504 37.0055 33.2013 37.4928C33.1452 38.0367 33.1522 38.5805 33.2645 39.1173C33.3417 39.4845 33.447 39.8447 33.5803 40.1978C33.6505 40.3885 33.7558 40.5651 33.854 40.7417C34.3523 41.6315 35.0261 42.3166 35.9034 42.811ZM51.1194 24.7872C51.1124 24.8296 51.1124 24.8508 51.1124 24.8719C51.1124 26.002 51.1124 27.1249 51.1124 28.2549C51.1124 29.4626 51.1124 30.6704 51.1124 31.8851C51.1124 31.9628 51.0983 31.9981 51.0071 31.9981C50.5018 31.9911 50.0034 31.9981 49.4981 31.9981C49.4209 31.9981 49.3999 32.0264 49.3999 32.097C49.3999 32.7891 49.3999 33.4883 49.3999 34.1805C49.3999 34.2158 49.3999 34.2511 49.3999 34.2864C49.5823 34.1098 49.7578 33.9403 49.9333 33.7638C50.221 33.4672 50.5088 33.1705 50.7965 32.8739C51.1475 32.5137 51.5054 32.1606 51.7861 31.7368C52.3406 30.9034 52.6354 29.9782 52.6985 28.9824C52.7336 28.4103 52.6705 27.8453 52.5301 27.2874C52.3827 26.7012 52.1441 26.1573 51.8072 25.6559C51.6177 25.3381 51.3791 25.0768 51.1194 24.7872Z" fill="url(#paint6_linear_622_11199)"/>
</g>
<g filter="url(#filter2_d_622_11199)">
<path d="M30.9424 41.0699C30.8654 41.0418 30.8234 40.9857 30.7884 40.9366C30.6625 40.7682 30.5086 40.6209 30.3686 40.4666C30.2007 40.2772 30.0258 40.0878 29.8438 39.9055C29.494 39.5477 29.1441 39.19 28.7943 38.8323C28.5914 38.6218 28.3885 38.4184 28.1856 38.215C28.0176 38.0467 27.8637 37.8643 27.6958 37.703C27.6188 37.6258 27.5488 37.5346 27.4509 37.4715C27.3669 37.4224 27.3389 37.3172 27.262 37.247C27.038 37.0436 26.8421 36.8192 26.6182 36.6157C26.4433 36.4544 26.3034 36.251 26.1284 36.0897C26.0165 35.9915 25.9185 35.8722 25.7996 35.781C25.7436 35.746 25.7226 35.6688 25.6736 35.6197C25.4427 35.3952 25.2118 35.1778 24.9949 34.9393C24.701 34.6096 24.3792 34.308 24.0853 33.9783C23.8684 33.7399 23.6305 33.5154 23.4066 33.2839C23.0777 32.9402 22.7769 32.5685 22.518 32.1686C22.392 31.9722 22.2941 31.7618 22.1821 31.5584C22.0772 31.369 22.0142 31.1656 21.9302 30.9762C21.8183 30.7377 21.7833 30.4852 21.7063 30.2397C21.6574 30.0714 21.6364 29.896 21.6014 29.7277C21.5174 29.2577 21.5384 28.7877 21.5244 28.3108C21.5244 28.1845 21.5384 28.0582 21.5314 27.932C21.5314 27.8338 21.5734 27.7286 21.5874 27.6233C21.6014 27.5602 21.5944 27.4901 21.6014 27.4269C21.6154 27.3217 21.6504 27.2235 21.6783 27.1183C21.7623 26.7606 21.8743 26.4169 22.0072 26.0732C22.0842 25.8698 22.1611 25.6593 22.2801 25.477C22.434 25.2385 22.574 24.986 22.7419 24.7615C22.9098 24.53 23.0777 24.2985 23.2807 24.0951C23.4556 23.9128 23.6375 23.7374 23.8334 23.5691C24.1483 23.2885 24.4911 23.043 24.862 22.8396C25.0859 22.7203 25.3168 22.6081 25.5477 22.5029C25.7156 22.4257 25.8835 22.3626 26.0655 22.3205C26.2054 22.2854 26.3313 22.2223 26.4783 22.2083C26.7022 22.1872 26.9121 22.1311 27.129 22.096C27.4439 22.054 27.7587 22.054 28.0736 22.054C28.1995 22.054 28.3255 22.054 28.4444 22.061C28.5704 22.068 28.6963 22.089 28.8223 22.1101C28.9972 22.1381 29.1721 22.2083 29.3541 22.2153C29.515 22.2223 29.6479 22.3065 29.7949 22.3415C30.0747 22.4047 30.3266 22.5379 30.5855 22.6502C30.9004 22.7905 31.1873 22.9658 31.4671 23.1622C31.6701 23.3025 31.88 23.4428 32.0689 23.6111C32.2018 23.7304 32.3278 23.8566 32.4467 23.9829C32.8386 24.3827 33.2304 24.7825 33.6222 25.1824C34.049 25.6243 34.4759 26.0732 34.9097 26.5081C35.4414 27.0412 35.9522 27.6023 36.491 28.1284C36.512 28.1494 36.533 28.1705 36.554 28.1915C36.5819 28.2196 36.575 28.2476 36.547 28.2757C36.351 28.4721 36.1621 28.6615 35.9662 28.8579C35.9032 28.928 35.8263 28.9911 35.7703 29.0613C35.7213 29.1174 35.6863 29.0893 35.6513 29.0613C35.4974 28.907 35.3295 28.7597 35.1965 28.5843C35.0566 28.409 34.8747 28.2827 34.7487 28.1003C34.6928 28.0232 34.6088 27.9671 34.5458 27.8969C34.2799 27.6233 34.021 27.3358 33.7482 27.0762C33.5033 26.8377 33.2724 26.5782 33.0275 26.3327C32.8595 26.1644 32.6776 26.01 32.5237 25.8277C32.3138 25.5752 32.0759 25.3577 31.852 25.1192C31.6071 24.8597 31.3622 24.6002 31.0753 24.3827C30.9074 24.2565 30.7325 24.1302 30.5435 24.025C30.3896 23.9338 30.2287 23.8566 30.0747 23.7725C29.9278 23.6953 29.7739 23.6322 29.6129 23.5831C29.48 23.541 29.3401 23.4919 29.2001 23.4568C28.9832 23.4007 28.7663 23.3656 28.5494 23.3306C28.4374 23.3095 28.3255 23.3165 28.2135 23.3095C28.1436 23.3025 28.1296 23.3306 28.1296 23.3937C28.1296 23.6111 28.1296 23.8286 28.1296 24.039C28.1296 24.7194 28.1296 25.3998 28.1296 26.0802C28.1296 27.7145 28.1366 29.3559 28.1296 30.9902C28.1296 31.2708 28.1436 31.5514 28.1366 31.839C28.1366 31.8951 28.1296 31.9302 28.0526 31.9302C27.5488 31.9302 27.045 31.9302 26.5413 31.9302C26.4573 31.9302 26.4363 31.9582 26.4363 32.0634C26.4363 32.814 26.4363 33.5575 26.4363 34.308C26.4363 34.3992 26.4433 34.4904 26.4293 34.5816C26.4223 34.6167 26.4363 34.6377 26.4573 34.6658C26.9331 35.1497 27.4089 35.6337 27.8847 36.1247C28.4025 36.6578 28.9202 37.1909 29.438 37.724C29.564 37.8503 29.6969 37.9695 29.8298 38.0958C29.8298 37.8853 29.8298 37.6679 29.8298 37.4504C29.8298 35.2129 29.8298 32.9823 29.8298 30.7447C29.8298 30.6676 29.8578 30.6465 29.9278 30.6465C30.4316 30.6465 30.9354 30.6465 31.4392 30.6465C31.5231 30.6465 31.5371 30.6185 31.5371 30.5413C31.5371 29.4401 31.5371 28.3458 31.5371 27.2446C31.5371 27.1183 31.5371 27.1183 31.6631 27.1183C31.719 27.1183 31.782 27.1253 31.838 27.1183C31.915 27.1113 31.9429 27.1394 31.9429 27.2235C31.9429 27.6233 31.9429 28.0232 31.9429 28.423C31.9429 29.1384 31.9429 29.8469 31.9429 30.5624C31.9429 30.6395 31.9709 30.6676 32.0409 30.6395C32.0899 30.6185 32.1389 30.6465 32.1808 30.6465C32.6356 30.6465 33.0835 30.6465 33.5383 30.6465C33.6152 30.6465 33.6572 30.6676 33.6362 30.7517C33.6082 30.9131 33.6222 31.0744 33.6222 31.2287C33.6222 31.2708 33.6082 31.2989 33.5802 31.3269C33.4193 31.4812 33.2794 31.6426 33.1184 31.7969C32.9435 31.9722 32.7686 32.1476 32.5937 32.33C32.3977 32.5264 32.2228 32.7368 32.0549 32.9543C31.9359 33.1086 31.824 33.2629 31.719 33.4242C31.5371 33.6978 31.3622 33.9783 31.2222 34.28C31.0893 34.5605 30.9634 34.8481 30.8584 35.1427C30.7674 35.4023 30.6695 35.6548 30.6135 35.9213C30.5645 36.1598 30.5016 36.3913 30.4666 36.6298C30.4456 36.7911 30.4316 36.9524 30.4106 37.1138C30.3826 37.3312 30.3756 37.5416 30.3616 37.7591C30.3476 37.9625 30.3406 38.1659 30.3686 38.3693C30.3826 38.4675 30.3756 38.5727 30.3826 38.6709C30.4036 38.8673 30.4246 39.0637 30.4526 39.2531C30.5016 39.6039 30.5925 39.9476 30.6835 40.2842C30.7325 40.4666 30.7884 40.642 30.8654 40.8103C30.8864 40.8945 30.9284 40.9717 30.9424 41.0699ZM25.9955 34.1607C25.9955 34.1467 26.0025 34.1397 26.0025 34.1327C26.0025 33.4453 26.0025 32.7579 26.0025 32.0704C26.0025 31.8951 26.0025 31.9021 25.8346 31.9091C25.3518 31.9302 24.876 31.9161 24.3932 31.9161C24.3302 31.9161 24.3022 31.8951 24.3022 31.8249C24.3022 29.5313 24.3022 27.2305 24.3022 24.9369C24.3022 24.8948 24.3232 24.8316 24.2882 24.8176C24.2532 24.8036 24.2323 24.8667 24.2043 24.8948C23.8894 25.1964 23.6445 25.5541 23.4276 25.9259C23.1337 26.4379 22.9448 26.985 22.8259 27.5602C22.7139 28.1003 22.7069 28.6474 22.7489 29.1946C22.7699 29.4611 22.8329 29.7206 22.8888 29.9802C23.0288 30.5624 23.2807 31.1025 23.6095 31.6005C23.8824 32.0213 24.2253 32.3791 24.5821 32.7368C24.778 32.9402 24.9739 33.1436 25.1698 33.3471C25.4077 33.5855 25.6456 33.824 25.8765 34.0695C25.9115 34.1046 25.9465 34.1397 25.9955 34.1607Z" fill="url(#paint7_linear_622_11199)"/>
</g>
<path d="M12.0996 54.1779C12.0996 54.1779 23.6003 57.9211 37.5593 57.9211C51.5182 57.9211 63.1945 54.1779 63.1945 54.1779V41.2202C63.1945 41.2202 47.8541 46.2725 37.5593 46.2593C27.3311 46.2462 12.0996 41.2202 12.0996 41.2202V54.1779Z" fill="url(#paint8_linear_622_11199)"/>
<path d="M37.0932 54.0859L34.9775 49.7939H35.9524L37.84 53.6751H37.2799L39.1882 49.7939H40.087L37.9782 54.0859H37.0932Z" fill="#6AC2C8" stroke="#6AC2C8"/>
<g filter="url(#filter3_d_622_11199)">
<path d="M39.6341 11.8066C38.8643 13.14 36.9398 13.14 36.17 11.8066L35.8729 11.292C35.1031 9.95871 36.0653 8.29204 37.6049 8.29204L38.1992 8.29204C39.7388 8.29204 40.701 9.95871 39.9312 11.292L39.6341 11.8066Z" fill="url(#paint9_linear_622_11199)"/>
</g>
<g filter="url(#filter4_d_622_11199)">
<path d="M39.6341 64.9453C38.8643 66.2786 36.9398 66.2786 36.17 64.9453L35.8729 64.4307C35.1031 63.0974 36.0653 61.4307 37.6049 61.4307L38.1992 61.4307C39.7388 61.4307 40.701 63.0974 39.9312 64.4307L39.6341 64.9453Z" fill="url(#paint10_linear_622_11199)"/>
</g>
<g filter="url(#filter5_d_622_11199)">
<path d="M63.1496 22.8851C64.0375 24.1429 63.2309 25.8902 61.6977 26.0303L61.1059 26.0843C59.5727 26.2244 58.4628 24.6521 59.1081 23.2543L59.3572 22.7148C60.0025 21.317 61.919 21.1419 62.8069 22.3997L63.1496 22.8851Z" fill="url(#paint11_linear_622_11199)"/>
</g>
<g filter="url(#filter6_d_622_11199)">
<path d="M16.9055 22.8851C17.7934 24.1429 16.9867 25.8902 15.4535 26.0303L14.8618 26.0843C13.3286 26.2244 12.2187 24.6521 12.864 23.2543L13.1131 22.7148C13.7584 21.317 15.6749 21.1419 16.5628 22.3997L16.9055 22.8851Z" fill="url(#paint12_linear_622_11199)"/>
</g>
<defs>
<filter id="filter0_i_622_11199" x="13.7529" y="13.2434" width="49.7881" height="50.0688" filterUnits="userSpaceOnUse" color-interpolation-filters="sRGB">
<feFlood flood-opacity="0" result="BackgroundImageFix"/>
<feBlend mode="normal" in="SourceGraphic" in2="BackgroundImageFix" result="shape"/>
<feColorMatrix in="SourceAlpha" type="matrix" values="0 0 0 0 0 0 0 0 0 0 0 0 0 0 0 0 0 0 127 0" result="hardAlpha"/>
<feOffset dx="2" dy="1"/>
<feGaussianBlur stdDeviation="1"/>
<feComposite in2="hardAlpha" operator="arithmetic" k2="-1" k3="1"/>
<feColorMatrix type="matrix" values="0 0 0 0 0 0 0 0 0 0 0 0 0 0 0 0 0 0 0.25 0"/>
<feBlend mode="normal" in2="shape" result="effect1_innerShadow_622_11199"/>
</filter>
<filter id="filter1_d_622_11199" x="31.3424" y="22.054" width="25.1922" height="26.2538" filterUnits="userSpaceOnUse" color-interpolation-filters="sRGB">
<feFlood flood-opacity="0" result="BackgroundImageFix"/>
<feColorMatrix in="SourceAlpha" type="matrix" values="0 0 0 0 0 0 0 0 0 0 0 0 0 0 0 0 0 0 127 0" result="hardAlpha"/>
<feOffset dx="1" dy="2"/>
<feGaussianBlur stdDeviation="0.8"/>
<feComposite in2="hardAlpha" operator="out"/>
<feColorMatrix type="matrix" values="0 0 0 0 0 0 0 0 0 0 0 0 0 0 0 0 0 0 0.25 0"/>
<feBlend mode="normal" in2="BackgroundImageFix" result="effect1_dropShadow_622_11199"/>
<feBlend mode="normal" in="SourceGraphic" in2="effect1_dropShadow_622_11199" result="shape"/>
</filter>
<filter id="filter2_d_622_11199" x="20.9244" y="22.054" width="18.2469" height="22.6159" filterUnits="userSpaceOnUse" color-interpolation-filters="sRGB">
<feFlood flood-opacity="0" result="BackgroundImageFix"/>
<feColorMatrix in="SourceAlpha" type="matrix" values="0 0 0 0 0 0 0 0 0 0 0 0 0 0 0 0 0 0 127 0" result="hardAlpha"/>
<feOffset dx="1" dy="2"/>
<feGaussianBlur stdDeviation="0.8"/>
<feComposite in2="hardAlpha" operator="out"/>
<feColorMatrix type="matrix" values="0 0 0 0 0 0 0 0 0 0 0 0 0 0 0 0 0 0 0.25 0"/>
<feBlend mode="normal" in2="BackgroundImageFix" result="effect1_dropShadow_622_11199"/>
<feBlend mode="normal" in="SourceGraphic" in2="effect1_dropShadow_622_11199" result="shape"/>
</filter>
<filter id="filter3_d_622_11199" x="29.3016" y="1.99199" width="17.2006" height="17.1146" filterUnits="userSpaceOnUse" color-interpolation-filters="sRGB">
<feFlood flood-opacity="0" result="BackgroundImageFix"/>
<feColorMatrix in="SourceAlpha" type="matrix" values="0 0 0 0 0 0 0 0 0 0 0 0 0 0 0 0 0 0 127 0" result="hardAlpha"/>
<feOffset/>
<feGaussianBlur stdDeviation="3.15"/>
<feComposite in2="hardAlpha" operator="out"/>
<feColorMatrix type="matrix" values="0 0 0 0 1 0 0 0 0 1 0 0 0 0 1 0 0 0 0.25 0"/>
<feBlend mode="normal" in2="BackgroundImageFix" result="effect1_dropShadow_622_11199"/>
<feBlend mode="normal" in="SourceGraphic" in2="effect1_dropShadow_622_11199" result="shape"/>
</filter>
<filter id="filter4_d_622_11199" x="29.3016" y="55.1307" width="17.2006" height="17.1146" filterUnits="userSpaceOnUse" color-interpolation-filters="sRGB">
<feFlood flood-opacity="0" result="BackgroundImageFix"/>
<feColorMatrix in="SourceAlpha" type="matrix" values="0 0 0 0 0 0 0 0 0 0 0 0 0 0 0 0 0 0 127 0" result="hardAlpha"/>
<feOffset/>
<feGaussianBlur stdDeviation="3.15"/>
<feComposite in2="hardAlpha" operator="out"/>
<feColorMatrix type="matrix" values="0 0 0 0 1 0 0 0 0 1 0 0 0 0 1 0 0 0 0.25 0"/>
<feBlend mode="normal" in2="BackgroundImageFix" result="effect1_dropShadow_622_11199"/>
<feBlend mode="normal" in="SourceGraphic" in2="effect1_dropShadow_622_11199" result="shape"/>
</filter>
<filter id="filter5_d_622_11199" x="52.6209" y="15.253" width="17.1977" height="17.14" filterUnits="userSpaceOnUse" color-interpolation-filters="sRGB">
<feFlood flood-opacity="0" result="BackgroundImageFix"/>
<feColorMatrix in="SourceAlpha" type="matrix" values="0 0 0 0 0 0 0 0 0 0 0 0 0 0 0 0 0 0 127 0" result="hardAlpha"/>
<feOffset/>
<feGaussianBlur stdDeviation="3.15"/>
<feComposite in2="hardAlpha" operator="out"/>
<feColorMatrix type="matrix" values="0 0 0 0 1 0 0 0 0 1 0 0 0 0 1 0 0 0 0.25 0"/>
<feBlend mode="normal" in2="BackgroundImageFix" result="effect1_dropShadow_622_11199"/>
<feBlend mode="normal" in="SourceGraphic" in2="effect1_dropShadow_622_11199" result="shape"/>
</filter>
<filter id="filter6_d_622_11199" x="6.37676" y="15.253" width="17.1977" height="17.14" filterUnits="userSpaceOnUse" color-interpolation-filters="sRGB">
<feFlood flood-opacity="0" result="BackgroundImageFix"/>
<feColorMatrix in="SourceAlpha" type="matrix" values="0 0 0 0 0 0 0 0 0 0 0 0 0 0 0 0 0 0 127 0" result="hardAlpha"/>
<feOffset/>
<feGaussianBlur stdDeviation="3.15"/>
<feComposite in2="hardAlpha" operator="out"/>
<feColorMatrix type="matrix" values="0 0 0 0 1 0 0 0 0 1 0 0 0 0 1 0 0 0 0.25 0"/>
<feBlend mode="normal" in2="BackgroundImageFix" result="effect1_dropShadow_622_11199"/>
<feBlend mode="normal" in="SourceGraphic" in2="effect1_dropShadow_622_11199" result="shape"/>
</filter>
<linearGradient id="paint0_linear_622_11199" x1="45.4747" y1="1.52172" x2="41.3871" y2="14.8064" gradientUnits="userSpaceOnUse">
<stop stop-color="#0E9CCB"/>
<stop offset="1" stop-color="#033A4E"/>
</linearGradient>
<linearGradient id="paint1_linear_622_11199" x1="40.3417" y1="6.55766" x2="33.7462" y2="22.6486" gradientUnits="userSpaceOnUse">
<stop stop-color="#0D91BC"/>
<stop offset="1" stop-color="#074254"/>
</linearGradient>
<linearGradient id="paint2_linear_622_11199" x1="81.2406" y1="16.0841" x2="69.2333" y2="12.7629" gradientUnits="userSpaceOnUse">
<stop stop-color="#13718E"/>
<stop offset="1" stop-color="#073645"/>
</linearGradient>
<linearGradient id="paint3_linear_622_11199" x1="4.59875" y1="12.2517" x2="11.2411" y2="32.1787" gradientUnits="userSpaceOnUse">
<stop stop-color="#6ED4E0"/>
<stop offset="1" stop-color="#0D5C74"/>
</linearGradient>
<linearGradient id="paint4_linear_622_11199" x1="24.2725" y1="8.16415" x2="54.1992" y2="11.0624" gradientUnits="userSpaceOnUse">
<stop stop-color="#6ED4E0"/>
<stop offset="1" stop-color="#074254"/>
</linearGradient>
<linearGradient id="paint5_linear_622_11199" x1="25.1377" y1="10.314" x2="53.7635" y2="11.8645" gradientUnits="userSpaceOnUse">
<stop stop-color="#6ACEDB"/>
<stop offset="1" stop-color="#0D5C74"/>
</linearGradient>
<linearGradient id="paint6_linear_622_11199" x1="37.1817" y1="22.054" x2="50.3501" y2="22.8159" gradientUnits="userSpaceOnUse">
<stop stop-color="#B3E2EC"/>
<stop offset="1" stop-color="#1B6889"/>
</linearGradient>
<linearGradient id="paint7_linear_622_11199" x1="25.1092" y1="22.054" x2="32.0861" y2="7.58017" gradientUnits="userSpaceOnUse">
<stop stop-color="#C3EFF6"/>
<stop offset="0.9999" stop-color="#1C6A8B"/>
<stop offset="1" stop-color="#1A6889"/>
<stop offset="1" stop-color="#216F91"/>
<stop offset="1" stop-color="#0A8593"/>
</linearGradient>
<linearGradient id="paint8_linear_622_11199" x1="37.8097" y1="59.0034" x2="38.3078" y2="46.9298" gradientUnits="userSpaceOnUse">
<stop stop-color="#3386A0"/>
<stop offset="0.994792" stop-color="#6DC0CF"/>
</linearGradient>
<linearGradient id="paint9_linear_622_11199" x1="40.1758" y1="14.8066" x2="34.9758" y2="14.4967" gradientUnits="userSpaceOnUse">
<stop offset="0.0001" stop-color="#277187"/>
<stop offset="1" stop-color="#B1E0E9"/>
</linearGradient>
<linearGradient id="paint10_linear_622_11199" x1="40.1758" y1="67.9453" x2="34.9758" y2="67.6354" gradientUnits="userSpaceOnUse">
<stop offset="0.0001" stop-color="#277187"/>
<stop offset="1" stop-color="#B1E0E9"/>
</linearGradient>
<linearGradient id="paint11_linear_622_11199" x1="63.9125" y1="17.3742" x2="66.5766" y2="23.1825" gradientUnits="userSpaceOnUse">
<stop stop-color="#AADAE4"/>
<stop offset="1" stop-color="#30798D"/>
</linearGradient>
<linearGradient id="paint12_linear_622_11199" x1="17.6684" y1="17.3742" x2="20.3324" y2="23.1825" gradientUnits="userSpaceOnUse">
<stop stop-color="#AADAE4"/>
<stop offset="1" stop-color="#30798D"/>
</linearGradient>
</defs>
</svg>
