<svg width="57" height="62" viewBox="0 0 57 62" fill="none" xmlns="http://www.w3.org/2000/svg">
<path d="M34.9656 9.04021C34.9763 9.34197 29.3558 15.7854 24.5767 21.6893C21.8417 21.1379 17.9778 20.6499 19.5136 18.9572C22.2284 15.9648 25.7038 13.0788 28.2718 9.72863L35.4092 1.79077C35.3271 2.86816 34.9451 8.46342 34.9656 9.04021Z" fill="url(#paint0_linear_637_2971)"/>
<path d="M20.6325 9.04021C20.6218 9.34197 26.2424 15.7854 31.0214 21.6893C33.7564 21.1379 37.6203 20.6499 36.0846 18.9572C33.3697 15.9648 29.8944 13.0788 27.3263 9.72863L20.189 1.79077C20.271 2.86816 20.653 8.46342 20.6325 9.04021Z" fill="url(#paint1_linear_637_2971)"/>
<path d="M49.121 43.025V23.0187L55.9869 13.981L46.8068 17.1337L31.7703 9.06948L27.8003 0.949951L24.8555 9.06948L9.15455 17.1337L5.36829 15.5574L1.58203 13.981L7.05149 23.0187V42.9865C7.05149 45.6776 8.82108 48.049 11.4024 48.8169L21.7535 51.8963C22.951 52.2526 24.0098 52.9684 24.7863 53.9466L28.4314 58.5388L31.8717 54.0076C32.6436 52.9908 33.7161 52.2423 34.9373 51.8682L44.8176 48.841C47.3751 48.0574 49.121 45.6977 49.121 43.025Z" fill="url(#paint2_linear_637_2971)"/>
<g filter="url(#filter0_i_637_2971)">
<path d="M25.0187 11.1839L11.1996 20.0967C9.46244 21.2171 8.41309 23.1418 8.41309 25.2077V42.119C8.41309 44.8514 10.2364 47.2486 12.8711 47.9802L26.7143 51.8244C27.7959 52.1247 28.9394 52.1204 30.0187 51.812L43.3455 48.0037C45.9585 47.257 47.7597 44.8704 47.7597 42.1549V25.1561C47.7597 23.1185 46.7387 21.2162 45.0401 20.0888L31.6891 11.2277C29.6722 9.88906 27.0531 9.87187 25.0187 11.1839Z" fill="url(#paint3_linear_637_2971)"/>
</g>
<g filter="url(#filter1_d_637_2971)">
<path d="M23.3971 31.8783C23.3798 31.7214 23.3971 31.5529 23.3913 31.3786C23.3913 31.2914 23.4087 31.1927 23.4376 31.0997C23.4607 31.0125 23.4607 30.9196 23.478 30.8382C23.5127 30.6814 23.5589 30.5303 23.5936 30.3734C23.6514 30.1177 23.7612 29.8795 23.8594 29.6355C23.9576 29.3856 24.0963 29.1532 24.235 28.9208C24.3679 28.6942 24.5297 28.4908 24.7031 28.2875C24.9458 28.0144 25.2058 27.7529 25.4543 27.4856C25.6277 27.2997 25.8068 27.1254 25.9802 26.9453C26.3153 26.6083 26.6563 26.2713 26.9799 25.9226C27.3266 25.5566 27.6791 25.2021 28.0316 24.8361C28.1877 24.6734 28.361 24.5223 28.5113 24.348C28.7597 24.0575 29.0429 23.8018 29.3087 23.5287C29.459 23.3777 29.6092 23.2266 29.7537 23.0697C30.1004 22.692 30.4818 22.3492 30.8285 21.9657C31.1175 21.6462 31.4353 21.3498 31.73 21.0361C31.9554 20.7979 32.1807 20.5654 32.4003 20.333C32.591 20.1355 32.7991 19.967 33.0071 19.7926C33.2151 19.6183 33.4405 19.4789 33.6716 19.3394C33.9201 19.1942 34.1917 19.078 34.4633 18.9792C34.5847 18.9385 34.7003 18.8804 34.8216 18.8572C34.9256 18.8397 35.0239 18.8049 35.1279 18.7933C35.2897 18.7758 35.4457 18.741 35.6075 18.7177C35.8502 18.6829 36.0987 18.6829 36.3414 18.6829C36.6535 18.6829 36.9597 18.7293 37.2602 18.7874C37.5954 18.8514 37.919 18.9443 38.2253 19.0838C38.5258 19.2174 38.8205 19.3801 39.0979 19.566C39.4157 19.7868 39.7104 20.0367 39.982 20.3156C40.2247 20.5596 40.4212 20.8385 40.6177 21.1174C40.8661 21.4835 41.0453 21.8902 41.1955 22.3086C41.3227 22.6688 41.4036 23.0349 41.4498 23.4125C41.4729 23.6275 41.5018 23.8425 41.496 24.0633C41.4902 24.2899 41.496 24.5165 41.4613 24.7431C41.4209 25.0046 41.3862 25.2719 41.3169 25.5275C41.2302 25.8413 41.1262 26.1492 40.9875 26.4398C40.7506 26.9627 40.4385 27.4275 40.0513 27.8517C39.7855 28.148 39.5024 28.4327 39.225 28.7116C38.9418 28.9905 38.6702 29.281 38.4044 29.5716C38.2888 29.6994 38.1733 29.8272 38.0404 29.9376C37.9652 30.0073 37.8959 30.0887 37.8265 30.1584C37.7745 30.2107 37.7225 30.2572 37.6705 30.3095C37.3816 30.6116 37.0869 30.9021 36.8037 31.2101C36.6477 31.3786 36.4917 31.5471 36.3356 31.7098C36.0698 31.9829 35.804 32.256 35.5324 32.5291C35.2608 32.8022 34.9834 33.0694 34.7234 33.3541C34.3651 33.7434 33.9895 34.1211 33.6254 34.5104C33.3943 34.7544 33.1458 34.9869 32.9089 35.2251C32.6719 35.4633 32.435 35.7015 32.1981 35.9398C32.0652 36.0734 31.9091 36.1838 31.7647 36.3C31.5624 36.4569 31.3486 36.5963 31.1232 36.7126C30.7707 36.8927 30.4009 37.0379 30.0195 37.1483C29.7884 37.2123 29.5456 37.2471 29.3087 37.2936C29.2452 37.3052 29.1758 37.3052 29.1122 37.311C28.8002 37.3343 28.4881 37.3052 28.1761 37.3052C28.0836 37.3052 27.9912 37.2762 27.8987 37.2645C27.7889 37.2471 27.6791 37.2181 27.5693 37.1948C27.3786 37.1541 27.1937 37.096 27.0088 37.0438C26.7892 36.9798 26.5812 36.8752 26.3731 36.7823C26.2344 36.7184 26.1131 36.6254 25.9802 36.5557C25.8704 36.4976 25.7721 36.4279 25.6739 36.3581C25.541 36.2535 25.4081 36.1489 25.281 36.0444C25.1018 35.8933 24.9342 35.7248 24.7782 35.5505C24.68 35.4343 24.576 35.3239 24.4835 35.2019C24.3217 34.9869 24.1888 34.7544 24.0617 34.522C23.9403 34.2954 23.8189 34.0688 23.738 33.8248C23.6514 33.5807 23.5936 33.3309 23.5185 33.0869C23.4896 32.9881 23.4896 32.8777 23.4664 32.7731C23.4029 32.4768 23.3855 32.1862 23.3971 31.8783ZM26.6505 35.7596C26.6678 35.7306 26.6621 35.7074 26.6621 35.6841C26.6621 35.4168 26.6621 35.1496 26.6621 34.8881C26.6621 33.511 26.6621 32.1398 26.6621 30.7627C26.6621 30.7162 26.6679 30.6872 26.7256 30.6872C27.1475 30.6872 27.5693 30.6872 27.9912 30.693C28.049 30.693 28.0721 30.6814 28.0663 30.6174C28.0663 30.0771 28.0663 29.5309 28.0663 28.9905C28.0663 28.6128 28.0663 28.241 28.0663 27.8633C28.0663 27.7703 28.0663 27.7703 28.1645 27.7645C28.2165 27.7645 28.2743 27.7703 28.3263 27.7529C28.3552 27.7471 28.3957 27.7645 28.4015 27.811C28.4015 27.8691 28.413 27.9214 28.413 27.9737C28.413 28.8511 28.413 29.7284 28.413 30.6116C28.413 30.6697 28.4304 30.6872 28.4881 30.6814C28.91 30.6814 29.3318 30.6814 29.7537 30.6755C29.8115 30.6755 29.8288 30.6872 29.8288 30.7453C29.8288 32.3199 29.8288 33.8945 29.8288 35.4633C29.8288 35.6551 29.8288 35.8526 29.8288 36.0444C29.8288 36.0908 29.8404 36.1083 29.8924 36.0908C29.9617 36.0676 30.0311 36.056 30.0946 36.0269C30.216 35.9746 30.3431 35.9282 30.4645 35.8642C30.6032 35.7887 30.7476 35.7248 30.8863 35.6434C31.0539 35.5447 31.2041 35.4343 31.3602 35.3123C31.4526 35.2425 31.5393 35.1728 31.4989 35.0333C31.4989 35.0275 31.4989 35.0217 31.4989 35.0101C31.4989 32.6918 31.5046 30.3676 31.5046 28.0492C31.5046 27.3229 31.5046 26.5966 31.5046 25.8703C31.5046 25.7774 31.5046 25.7774 31.5971 25.7774C32.0016 25.7774 32.4119 25.7774 32.8164 25.7774C32.8857 25.7774 32.9089 25.7541 32.9089 25.6844C32.9031 25.208 32.9089 24.7257 32.9089 24.2492C32.9089 23.8135 32.9089 23.3777 32.9089 22.9419C32.9089 22.8722 32.932 22.8547 32.9955 22.8547C33.0591 22.8605 33.1227 22.8605 33.1805 22.8547C33.2325 22.8489 33.244 22.8722 33.244 22.9186C33.244 23.8251 33.244 24.7315 33.244 25.6437C33.244 25.6728 33.2498 25.7018 33.2382 25.7251C33.2151 25.7774 33.244 25.7774 33.2787 25.7774C33.3827 25.7774 33.4925 25.7774 33.5965 25.7774C33.9201 25.7774 34.2437 25.7774 34.5616 25.7774C34.6194 25.7774 34.6425 25.7948 34.6425 25.8529C34.6367 25.9284 34.6367 26.0098 34.6367 26.0853C34.6367 28.0028 34.6367 29.9144 34.6367 31.8318C34.6367 31.8551 34.6367 31.8725 34.6425 31.8957C34.6598 31.9422 34.6714 31.948 34.706 31.9132C34.7754 31.8376 34.8447 31.7679 34.9141 31.6982C35.2839 31.3147 35.6595 30.9312 36.0294 30.5477C36.4859 30.0771 36.9424 29.6064 37.4047 29.1358C37.4394 29.1009 37.4509 29.0603 37.4509 29.0138C37.4509 28.3165 37.4509 27.6135 37.4509 26.9162C37.4509 26.8581 37.4336 26.8407 37.3758 26.8407C36.9713 26.8465 36.5668 26.8407 36.1623 26.8407C36.0525 26.8407 36.0467 26.8639 36.0467 26.7303C36.0467 24.6502 36.0467 22.5642 36.0467 20.4841C36.0467 20.4318 36.0236 20.3853 36.0294 20.333C36.0583 20.1645 36.0409 19.9902 36.0409 19.8217C36.0409 19.7055 36.0351 19.7055 35.9253 19.7113C35.908 19.7113 35.8849 19.7113 35.8676 19.7113C35.7462 19.7229 35.6249 19.7229 35.5035 19.7462C35.2377 19.7985 34.9719 19.8682 34.7118 19.967C34.4113 20.0774 34.1282 20.2226 33.8681 20.4027C33.5445 20.6235 33.2614 20.9024 32.984 21.1813C32.7471 21.4196 32.5217 21.6578 32.2848 21.896C32.1865 21.9948 32.0883 22.0878 31.9958 22.1865C31.7069 22.4887 31.4179 22.7966 31.129 23.1046C31.0597 23.1801 30.9903 23.2673 30.9152 23.337C30.7592 23.4881 30.6147 23.645 30.4587 23.796C30.0368 24.2144 29.615 24.6385 29.2163 25.0801C28.9793 25.3416 28.7309 25.5856 28.4824 25.8355C28.0663 26.2596 27.6387 26.678 27.2284 27.108C26.8123 27.5437 26.402 27.9795 25.9802 28.4095C25.6797 28.7174 25.3734 29.0196 25.1423 29.3914C24.9747 29.6529 24.8244 29.926 24.7089 30.2165C24.5586 30.5942 24.4662 30.9835 24.4257 31.3844C24.3795 31.8318 24.3853 32.2792 24.4777 32.7208C24.5413 33.0229 24.628 33.3193 24.7378 33.6098C24.7955 33.7667 24.8822 33.9119 24.9631 34.0572C25.3734 34.7893 25.9282 35.3529 26.6505 35.7596ZM39.1788 20.9315C39.173 20.9664 39.173 20.9838 39.173 21.0012C39.173 21.9309 39.173 22.8547 39.173 23.7844C39.173 24.778 39.173 25.7716 39.173 26.7709C39.173 26.8349 39.1614 26.8639 39.0863 26.8639C38.6702 26.8581 38.2599 26.8639 37.8439 26.8639C37.7803 26.8639 37.763 26.8872 37.763 26.9453C37.763 27.5147 37.763 28.0899 37.763 28.6593C37.763 28.6884 37.763 28.7174 37.763 28.7465C37.9132 28.6012 38.0577 28.4618 38.2022 28.3165C38.4391 28.0725 38.676 27.8284 38.9129 27.5844C39.2019 27.2881 39.4966 26.9976 39.7277 26.6489C40.1843 25.9633 40.427 25.2021 40.479 24.3829C40.5079 23.9122 40.4559 23.4474 40.3403 22.9884C40.2189 22.5061 40.0224 22.0587 39.7451 21.6462C39.589 21.3847 39.3926 21.1697 39.1788 20.9315Z" fill="url(#paint4_linear_637_2971)"/>
</g>
<g filter="url(#filter2_d_637_2971)">
<path d="M22.5659 34.3272C22.5025 34.3041 22.468 34.258 22.4392 34.2176C22.3355 34.0791 22.2087 33.9579 22.0935 33.8309C21.9552 33.6751 21.8112 33.5193 21.6614 33.3693C21.3734 33.075 21.0853 32.7807 20.7973 32.4864C20.6302 32.3132 20.4631 32.1459 20.296 31.9785C20.1578 31.84 20.031 31.69 19.8928 31.5573C19.8294 31.4938 19.7718 31.4188 19.6911 31.3668C19.622 31.3265 19.599 31.2399 19.5356 31.1822C19.3512 31.0148 19.1899 30.8302 19.0056 30.6628C18.8615 30.5301 18.7463 30.3627 18.6023 30.23C18.5101 30.1492 18.4295 30.0511 18.3315 29.9761C18.2854 29.9473 18.2682 29.8838 18.2278 29.8434C18.0377 29.6587 17.8476 29.4798 17.669 29.2836C17.427 29.0124 17.162 28.7643 16.9201 28.493C16.7415 28.2968 16.5456 28.1122 16.3612 27.9217C16.0905 27.639 15.8428 27.3331 15.6296 27.0042C15.5259 26.8426 15.4452 26.6695 15.3531 26.5022C15.2666 26.3463 15.2148 26.179 15.1457 26.0232C15.0535 25.827 15.0247 25.6192 14.9613 25.4173C14.921 25.2788 14.9037 25.1345 14.8749 24.996C14.8058 24.6094 14.823 24.2227 14.8115 23.8303C14.8115 23.7264 14.823 23.6226 14.8173 23.5187C14.8173 23.4379 14.8519 23.3514 14.8634 23.2648C14.8749 23.2129 14.8691 23.1551 14.8749 23.1032C14.8864 23.0167 14.9152 22.9359 14.9383 22.8493C15.0074 22.555 15.0996 22.2722 15.209 21.9895C15.2724 21.8221 15.3358 21.649 15.4337 21.499C15.5605 21.3028 15.6757 21.095 15.8139 20.9103C15.9522 20.7199 16.0905 20.5295 16.2575 20.3621C16.4016 20.2121 16.5514 20.0678 16.7127 19.9293C16.9719 19.6985 17.2542 19.4965 17.5595 19.3292C17.7439 19.2311 17.934 19.1387 18.1241 19.0522C18.2624 18.9887 18.4007 18.9368 18.5504 18.9021C18.6657 18.8733 18.7694 18.8214 18.8904 18.8098C19.0747 18.7925 19.2475 18.7463 19.4261 18.7175C19.6854 18.6829 19.9446 18.6829 20.2039 18.6829C20.3076 18.6829 20.4113 18.6829 20.5092 18.6886C20.6129 18.6944 20.7166 18.7117 20.8203 18.729C20.9643 18.7521 21.1084 18.8098 21.2581 18.8156C21.3906 18.8214 21.5001 18.8906 21.6211 18.9195C21.8515 18.9714 22.0589 19.081 22.2721 19.1734C22.5313 19.2888 22.7675 19.4331 22.998 19.5946C23.1651 19.71 23.3379 19.8255 23.4934 19.964C23.6029 20.0621 23.7066 20.1659 23.8045 20.2698C24.1271 20.5987 24.4498 20.9277 24.7724 21.2566C25.1238 21.6201 25.4752 21.9895 25.8324 22.3473C26.2703 22.7858 26.6908 23.2475 27.1344 23.6803C27.1517 23.6976 27.169 23.7149 27.1863 23.7322C27.2093 23.7553 27.2036 23.7784 27.1805 23.8015C27.0192 23.963 26.8637 24.1189 26.7023 24.2804C26.6505 24.3381 26.5871 24.3901 26.541 24.4478C26.5007 24.4939 26.4719 24.4709 26.4431 24.4478C26.3164 24.3208 26.1781 24.1996 26.0686 24.0554C25.9534 23.9111 25.8036 23.8072 25.6999 23.6572C25.6538 23.5937 25.5847 23.5476 25.5328 23.4899C25.3139 23.2648 25.1008 23.0282 24.8761 22.8147C24.6744 22.6185 24.4843 22.405 24.2827 22.203C24.1444 22.0645 23.9946 21.9375 23.8679 21.7875C23.6951 21.5798 23.4992 21.4009 23.3148 21.2047C23.1132 20.9911 22.9116 20.7776 22.6754 20.5987C22.5371 20.4949 22.3931 20.391 22.2375 20.3044C22.1108 20.2294 21.9783 20.1659 21.8515 20.0967C21.7306 20.0332 21.6038 19.9813 21.4713 19.9409C21.3618 19.9062 21.2466 19.8659 21.1314 19.837C20.9528 19.7908 20.7742 19.762 20.5956 19.7331C20.5034 19.7158 20.4113 19.7216 20.3191 19.7158C20.2615 19.71 20.25 19.7331 20.25 19.7851C20.25 19.964 20.25 20.1428 20.25 20.316C20.25 20.8757 20.25 21.4355 20.25 21.9952C20.25 23.3398 20.2557 24.6902 20.25 26.0347C20.25 26.2656 20.2615 26.4964 20.2557 26.733C20.2557 26.7791 20.25 26.808 20.1866 26.808C19.7718 26.808 19.357 26.808 18.9422 26.808C18.8731 26.808 18.8558 26.8311 18.8558 26.9176C18.8558 27.5351 18.8558 28.1468 18.8558 28.7643C18.8558 28.8393 18.8615 28.9143 18.85 28.9893C18.8443 29.0182 18.8558 29.0355 18.8731 29.0586C19.2648 29.4567 19.6566 29.8549 20.0483 30.2589C20.4746 30.6974 20.901 31.136 21.3273 31.5746C21.431 31.6785 21.5404 31.7766 21.6499 31.8804C21.6499 31.7073 21.6499 31.5284 21.6499 31.3495C21.6499 29.5087 21.6499 27.6736 21.6499 25.8327C21.6499 25.7693 21.6729 25.752 21.7306 25.752C22.1453 25.752 22.5601 25.752 22.9749 25.752C23.0441 25.752 23.0556 25.7289 23.0556 25.6654C23.0556 24.7594 23.0556 23.8592 23.0556 22.9532C23.0556 22.8493 23.0556 22.8493 23.1593 22.8493C23.2054 22.8493 23.2572 22.8551 23.3033 22.8493C23.3667 22.8435 23.3897 22.8666 23.3897 22.9359C23.3897 23.2648 23.3897 23.5937 23.3897 23.9227C23.3897 24.5113 23.3897 25.0941 23.3897 25.6827C23.3897 25.7462 23.4128 25.7693 23.4704 25.7462C23.5107 25.7289 23.551 25.752 23.5856 25.752C23.9601 25.752 24.3288 25.752 24.7033 25.752C24.7666 25.752 24.8012 25.7693 24.7839 25.8385C24.7609 25.9712 24.7724 26.104 24.7724 26.2309C24.7724 26.2656 24.7609 26.2886 24.7378 26.3117C24.6053 26.4387 24.4901 26.5714 24.3576 26.6984C24.2136 26.8426 24.0695 26.9869 23.9255 27.1369C23.7642 27.2985 23.6202 27.4716 23.4819 27.6505C23.384 27.7775 23.2918 27.9044 23.2054 28.0372C23.0556 28.2622 22.9116 28.493 22.7963 28.7412C22.6869 28.972 22.5832 29.2086 22.4968 29.451C22.4219 29.6645 22.3412 29.8722 22.2951 30.0915C22.2548 30.2877 22.203 30.4782 22.1742 30.6744C22.1569 30.8071 22.1453 30.9398 22.1281 31.0725C22.105 31.2514 22.0993 31.4246 22.0877 31.6034C22.0762 31.7708 22.0705 31.9381 22.0935 32.1055C22.105 32.1863 22.0993 32.2728 22.105 32.3536C22.1223 32.5152 22.1396 32.6768 22.1626 32.8326C22.203 33.1211 22.2779 33.4039 22.3527 33.6809C22.3931 33.8309 22.4392 33.9752 22.5025 34.1137C22.5198 34.1829 22.5544 34.2464 22.5659 34.3272ZM18.4928 28.6431C18.4928 28.6315 18.4986 28.6258 18.4986 28.62C18.4986 28.0545 18.4986 27.4889 18.4986 26.9234C18.4986 26.7791 18.4986 26.7849 18.3603 26.7907C17.9628 26.808 17.5711 26.7965 17.1736 26.7965C17.1217 26.7965 17.0987 26.7791 17.0987 26.7214C17.0987 24.8344 17.0987 22.9416 17.0987 21.0546C17.0987 21.02 17.1159 20.9681 17.0871 20.9565C17.0583 20.945 17.0411 20.9969 17.018 21.02C16.7588 21.2681 16.5571 21.5624 16.3785 21.8683C16.1366 22.2895 15.981 22.7397 15.8831 23.2129C15.7909 23.6572 15.7851 24.1073 15.8197 24.5574C15.837 24.7767 15.8888 24.9902 15.9349 25.2037C16.0502 25.6827 16.2575 26.1271 16.5283 26.5368C16.753 26.883 17.0353 27.1773 17.3291 27.4716C17.4904 27.639 17.6517 27.8063 17.813 27.9737C18.0089 28.1699 18.2048 28.3661 18.3949 28.5681C18.4237 28.5969 18.4525 28.6258 18.4928 28.6431Z" fill="url(#paint5_linear_637_2971)"/>
</g>
<path d="M7.05127 45.1114C7.05127 45.1114 16.5205 48.1909 28.0138 48.1909C39.507 48.1909 49.1208 45.1114 49.1208 45.1114V34.4511C49.1208 34.4511 36.4901 38.6076 28.0138 38.5968C19.5923 38.586 7.05127 34.4511 7.05127 34.4511V45.1114Z" fill="url(#paint6_linear_637_2971)"/>
<path d="M27.6307 45.0356L25.8887 41.5046H26.6914L28.2455 44.6977H27.7844L29.3556 41.5046H30.0956L28.3593 45.0356H27.6307Z" fill="#6AC2C8"/>
<path fill-rule="evenodd" clip-rule="evenodd" d="M25.5625 41.3018H26.8184L28.0173 43.7649L29.2293 41.3018H30.4216L28.4859 45.2383H27.5046L25.5625 41.3018ZM27.7904 44.226L26.5645 41.7073H26.2151L27.6242 44.5636L27.7904 44.226ZM28.3858 44.522L28.2422 44.2269L29.4821 41.7073H29.7699L28.3858 44.522Z" fill="#6AC2C8"/>
<g filter="url(#filter3_d_637_2971)">
<path d="M28.9995 11.5034C28.6871 12.0441 27.9059 12.0441 27.5935 11.5034L25.9027 8.57716C25.5902 8.03642 25.9808 7.3605 26.6057 7.3605L29.9873 7.3605C30.6122 7.3605 31.0028 8.03642 30.6903 8.57716L28.9995 11.5034Z" fill="url(#paint7_linear_637_2971)"/>
</g>
<g filter="url(#filter4_d_637_2971)">
<path d="M28.9995 55.2204C28.6871 55.7612 27.9059 55.7612 27.5935 55.2204L25.9027 52.2942C25.5902 51.7535 25.9808 51.0775 26.6057 51.0775L29.9873 51.0775C30.6122 51.0775 31.0028 51.7535 30.6903 52.2942L28.9995 55.2204Z" fill="url(#paint8_linear_637_2971)"/>
</g>
<g filter="url(#filter5_d_637_2971)">
<path d="M49.9187 20.5469C50.2791 21.057 49.9517 21.7656 49.3294 21.8224L45.9618 22.1298C45.3395 22.1866 44.889 21.549 45.1509 20.9821L46.5683 17.9143C46.8302 17.3474 47.6081 17.2764 47.9685 17.7865L49.9187 20.5469Z" fill="url(#paint9_linear_637_2971)"/>
</g>
<g filter="url(#filter6_d_637_2971)">
<path d="M11.8425 20.5469C12.2029 21.057 11.8755 21.7656 11.2532 21.8224L7.88559 22.1298C7.26329 22.1866 6.81281 21.549 7.07473 20.9821L8.49212 17.9143C8.75405 17.3474 9.53193 17.2764 9.89231 17.7865L11.8425 20.5469Z" fill="url(#paint10_linear_637_2971)"/>
</g>
<defs>
<filter id="filter0_i_637_2971" x="8.41309" y="10.2117" width="41.3467" height="42.835" filterUnits="userSpaceOnUse" color-interpolation-filters="sRGB">
<feFlood flood-opacity="0" result="BackgroundImageFix"/>
<feBlend mode="normal" in="SourceGraphic" in2="BackgroundImageFix" result="shape"/>
<feColorMatrix in="SourceAlpha" type="matrix" values="0 0 0 0 0 0 0 0 0 0 0 0 0 0 0 0 0 0 127 0" result="hardAlpha"/>
<feOffset dx="2" dy="1"/>
<feGaussianBlur stdDeviation="1"/>
<feComposite in2="hardAlpha" operator="arithmetic" k2="-1" k3="1"/>
<feColorMatrix type="matrix" values="0 0 0 0 0 0 0 0 0 0 0 0 0 0 0 0 0 0 0.25 0"/>
<feBlend mode="normal" in2="shape" result="effect1_innerShadow_637_2971"/>
</filter>
<filter id="filter1_d_637_2971" x="22.7892" y="18.6829" width="21.3074" height="22.2372" filterUnits="userSpaceOnUse" color-interpolation-filters="sRGB">
<feFlood flood-opacity="0" result="BackgroundImageFix"/>
<feColorMatrix in="SourceAlpha" type="matrix" values="0 0 0 0 0 0 0 0 0 0 0 0 0 0 0 0 0 0 127 0" result="hardAlpha"/>
<feOffset dx="1" dy="2"/>
<feGaussianBlur stdDeviation="0.8"/>
<feComposite in2="hardAlpha" operator="out"/>
<feColorMatrix type="matrix" values="0 0 0 0 0 0 0 0 0 0 0 0 0 0 0 0 0 0 0.25 0"/>
<feBlend mode="normal" in2="BackgroundImageFix" result="effect1_dropShadow_637_2971"/>
<feBlend mode="normal" in="SourceGraphic" in2="effect1_dropShadow_637_2971" result="shape"/>
</filter>
<filter id="filter2_d_637_2971" x="14.2115" y="18.6829" width="15.5896" height="19.2443" filterUnits="userSpaceOnUse" color-interpolation-filters="sRGB">
<feFlood flood-opacity="0" result="BackgroundImageFix"/>
<feColorMatrix in="SourceAlpha" type="matrix" values="0 0 0 0 0 0 0 0 0 0 0 0 0 0 0 0 0 0 127 0" result="hardAlpha"/>
<feOffset dx="1" dy="2"/>
<feGaussianBlur stdDeviation="0.8"/>
<feComposite in2="hardAlpha" operator="out"/>
<feColorMatrix type="matrix" values="0 0 0 0 0 0 0 0 0 0 0 0 0 0 0 0 0 0 0.25 0"/>
<feBlend mode="normal" in2="BackgroundImageFix" result="effect1_dropShadow_637_2971"/>
<feBlend mode="normal" in="SourceGraphic" in2="effect1_dropShadow_637_2971" result="shape"/>
</filter>
<filter id="filter3_d_637_2971" x="19.4925" y="1.0606" width="17.6078" height="17.1483" filterUnits="userSpaceOnUse" color-interpolation-filters="sRGB">
<feFlood flood-opacity="0" result="BackgroundImageFix"/>
<feColorMatrix in="SourceAlpha" type="matrix" values="0 0 0 0 0 0 0 0 0 0 0 0 0 0 0 0 0 0 127 0" result="hardAlpha"/>
<feOffset/>
<feGaussianBlur stdDeviation="3.15"/>
<feComposite in2="hardAlpha" operator="out"/>
<feColorMatrix type="matrix" values="0 0 0 0 1 0 0 0 0 1 0 0 0 0 1 0 0 0 0.25 0"/>
<feBlend mode="normal" in2="BackgroundImageFix" result="effect1_dropShadow_637_2971"/>
<feBlend mode="normal" in="SourceGraphic" in2="effect1_dropShadow_637_2971" result="shape"/>
</filter>
<filter id="filter4_d_637_2971" x="19.4925" y="44.7776" width="17.6078" height="17.1483" filterUnits="userSpaceOnUse" color-interpolation-filters="sRGB">
<feFlood flood-opacity="0" result="BackgroundImageFix"/>
<feColorMatrix in="SourceAlpha" type="matrix" values="0 0 0 0 0 0 0 0 0 0 0 0 0 0 0 0 0 0 127 0" result="hardAlpha"/>
<feOffset/>
<feGaussianBlur stdDeviation="3.15"/>
<feComposite in2="hardAlpha" operator="out"/>
<feColorMatrix type="matrix" values="0 0 0 0 1 0 0 0 0 1 0 0 0 0 1 0 0 0 0.25 0"/>
<feBlend mode="normal" in2="BackgroundImageFix" result="effect1_dropShadow_637_2971"/>
<feBlend mode="normal" in="SourceGraphic" in2="effect1_dropShadow_637_2971" result="shape"/>
</filter>
<filter id="filter5_d_637_2971" x="38.7747" y="11.1431" width="17.5937" height="17.2902" filterUnits="userSpaceOnUse" color-interpolation-filters="sRGB">
<feFlood flood-opacity="0" result="BackgroundImageFix"/>
<feColorMatrix in="SourceAlpha" type="matrix" values="0 0 0 0 0 0 0 0 0 0 0 0 0 0 0 0 0 0 127 0" result="hardAlpha"/>
<feOffset/>
<feGaussianBlur stdDeviation="3.15"/>
<feComposite in2="hardAlpha" operator="out"/>
<feColorMatrix type="matrix" values="0 0 0 0 1 0 0 0 0 1 0 0 0 0 1 0 0 0 0.25 0"/>
<feBlend mode="normal" in2="BackgroundImageFix" result="effect1_dropShadow_637_2971"/>
<feBlend mode="normal" in="SourceGraphic" in2="effect1_dropShadow_637_2971" result="shape"/>
</filter>
<filter id="filter6_d_637_2971" x="0.698535" y="11.1431" width="17.5937" height="17.2902" filterUnits="userSpaceOnUse" color-interpolation-filters="sRGB">
<feFlood flood-opacity="0" result="BackgroundImageFix"/>
<feColorMatrix in="SourceAlpha" type="matrix" values="0 0 0 0 0 0 0 0 0 0 0 0 0 0 0 0 0 0 127 0" result="hardAlpha"/>
<feOffset/>
<feGaussianBlur stdDeviation="3.15"/>
<feComposite in2="hardAlpha" operator="out"/>
<feColorMatrix type="matrix" values="0 0 0 0 1 0 0 0 0 1 0 0 0 0 1 0 0 0 0.25 0"/>
<feBlend mode="normal" in2="BackgroundImageFix" result="effect1_dropShadow_637_2971"/>
<feBlend mode="normal" in="SourceGraphic" in2="effect1_dropShadow_637_2971" result="shape"/>
</filter>
<linearGradient id="paint0_linear_637_2971" x1="34.5304" y1="1.79036" x2="31.1698" y2="12.7212" gradientUnits="userSpaceOnUse">
<stop stop-color="#0E9CCB"/>
<stop offset="1" stop-color="#033A4E"/>
</linearGradient>
<linearGradient id="paint1_linear_637_2971" x1="30.304" y1="5.93342" x2="24.881" y2="19.1745" gradientUnits="userSpaceOnUse">
<stop stop-color="#0D91BC"/>
<stop offset="1" stop-color="#074254"/>
</linearGradient>
<linearGradient id="paint2_linear_637_2971" x1="17.0739" y1="7.25524" x2="41.714" y2="9.64346" gradientUnits="userSpaceOnUse">
<stop stop-color="#6ED4E0"/>
<stop offset="1" stop-color="#074254"/>
</linearGradient>
<linearGradient id="paint3_linear_637_2971" x1="17.7868" y1="9.02361" x2="41.3561" y2="10.3013" gradientUnits="userSpaceOnUse">
<stop stop-color="#6ACEDB"/>
<stop offset="1" stop-color="#0D5C74"/>
</linearGradient>
<linearGradient id="paint4_linear_637_2971" x1="27.703" y1="18.6829" x2="38.5453" y2="19.3107" gradientUnits="userSpaceOnUse">
<stop stop-color="#B3E2EC"/>
<stop offset="1" stop-color="#1B6889"/>
</linearGradient>
<linearGradient id="paint5_linear_637_2971" x1="17.7631" y1="18.6829" x2="23.5001" y2="6.77168" gradientUnits="userSpaceOnUse">
<stop stop-color="#C3EFF6"/>
<stop offset="0.9999" stop-color="#1C6A8B"/>
<stop offset="1" stop-color="#1A6889"/>
<stop offset="1" stop-color="#216F91"/>
<stop offset="1" stop-color="#0A8593"/>
</linearGradient>
<linearGradient id="paint6_linear_637_2971" x1="28.22" y1="49.0813" x2="28.6294" y2="39.1483" gradientUnits="userSpaceOnUse">
<stop stop-color="#3386A0"/>
<stop offset="0.994792" stop-color="#6DC0CF"/>
</linearGradient>
<linearGradient id="paint7_linear_637_2971" x1="30.1686" y1="12.72" x2="25.8872" y2="12.4647" gradientUnits="userSpaceOnUse">
<stop offset="0.0001" stop-color="#277187"/>
<stop offset="1" stop-color="#B1E0E9"/>
</linearGradient>
<linearGradient id="paint8_linear_637_2971" x1="30.1686" y1="56.4371" x2="25.8872" y2="56.1817" gradientUnits="userSpaceOnUse">
<stop offset="0.0001" stop-color="#277187"/>
<stop offset="1" stop-color="#B1E0E9"/>
</linearGradient>
<linearGradient id="paint9_linear_637_2971" x1="49.7128" y1="14.8325" x2="51.9034" y2="19.6124" gradientUnits="userSpaceOnUse">
<stop stop-color="#AADAE4"/>
<stop offset="1" stop-color="#30798D"/>
</linearGradient>
<linearGradient id="paint10_linear_637_2971" x1="11.6366" y1="14.8325" x2="13.8272" y2="19.6124" gradientUnits="userSpaceOnUse">
<stop stop-color="#AADAE4"/>
<stop offset="1" stop-color="#30798D"/>
</linearGradient>
</defs>
</svg>
