<svg width="69" height="73" viewBox="0 0 69 73" fill="none" xmlns="http://www.w3.org/2000/svg">
<g filter="url(#filter0_d_637_2792)">
<path d="M40.3107 17.9243C40.3531 18.2233 35.441 25.221 31.3091 31.5939C28.5312 31.3325 24.6374 31.2528 25.9867 29.4083C28.372 26.1475 31.5247 22.9127 33.7264 19.3115L39.9897 10.6685C40.0214 11.7485 40.2297 17.3529 40.3107 17.9243Z" fill="url(#paint0_linear_637_2792)"/>
<path d="M26.7162 18.0455C26.6793 18.3452 31.7196 25.2513 35.9684 31.547C38.741 31.2345 42.6327 31.0831 41.2496 29.2637C38.8046 26.0474 35.5927 22.8712 33.325 19.3112L26.9033 10.7849C26.8916 11.8654 26.7866 17.4726 26.7162 18.0455Z" fill="url(#paint1_linear_637_2792)"/>
<path d="M64.4732 26.0973C64.0525 26.5297 56.6328 36.1863 51.213 41.5894C49.2044 39.4289 46.2858 36.7656 47.9706 35.3026C50.9488 32.7163 54.4987 30.668 57.4605 27.5272L65.3101 20.6331C64.8364 22.1043 64.6777 25.8871 64.4732 26.0973Z" fill="url(#paint2_linear_637_2792)"/>
<path d="M61.9493 40.8097C61.5286 41.2421 54.1089 50.8987 48.6891 56.3018C46.6805 54.1413 43.7618 51.4781 45.4466 50.015C48.4249 47.4287 51.9747 45.3804 54.9365 42.2396L62.7861 35.3455C62.3124 36.8167 62.1537 40.5995 61.9493 40.8097Z" fill="url(#paint3_linear_637_2792)"/>
<path d="M63.6319 32.8229C63.2112 33.2553 55.7915 42.9118 50.3717 48.315C48.3631 46.1545 45.4445 43.4912 47.1292 42.0282C50.1075 39.4419 53.6574 37.3936 56.6191 34.2527L64.4688 27.3586C63.9951 28.8299 63.8364 32.6127 63.6319 32.8229Z" fill="url(#paint4_linear_637_2792)"/>
<path d="M4.94471 25.6769C5.36541 26.1093 12.1294 35.7658 17.5492 41.169C19.5578 39.0085 22.4764 36.3452 20.7917 34.8822C17.8134 32.2959 14.2635 30.2476 11.3018 27.1067L3.45215 20.2126C3.92584 21.6839 4.74023 25.4667 4.94471 25.6769Z" fill="url(#paint5_linear_637_2792)"/>
<path d="M7.46913 39.1283C7.88982 39.5607 14.6538 49.2173 20.0736 54.6204C22.0822 52.4599 25.0008 49.7967 23.3161 48.3336C20.3378 45.7473 16.7879 43.699 13.8262 40.5582L5.97656 33.6641C6.45026 35.1353 7.26464 38.9181 7.46913 39.1283Z" fill="url(#paint6_linear_637_2792)"/>
<path d="M5.78602 31.9823C6.20672 32.4147 12.9707 42.0713 18.3905 47.4744C20.3991 45.3139 23.3177 42.6507 21.633 41.1876C18.6547 38.6013 15.1048 36.5531 12.1431 33.4122L4.29346 26.5181C4.76715 27.9893 5.58154 31.7721 5.78602 31.9823Z" fill="url(#paint7_linear_637_2792)"/>
<g filter="url(#filter1_d_637_2792)">
<path d="M54.8735 52.6194V32.6132L61.7394 23.5755L57.1109 25.0467L52.5592 26.7282L37.5228 18.664L36.9916 15.9767C36.8046 15.031 36.3955 14.1432 35.7978 13.3865L33.5528 10.5444L31.8147 13.5431C31.4337 14.2004 31.1793 14.9232 31.0646 15.6741L30.6079 18.664L14.907 26.7282L11.6758 25.4671L7.33447 23.5755L12.8039 32.6132V52.581C12.8039 55.2721 14.5735 57.6434 17.1548 58.4114L27.11 61.373C28.5147 61.7909 29.6344 62.8552 30.1222 64.2362C30.4382 65.1307 31.0245 65.905 31.8001 66.452L34.1838 68.1333L36.3927 66.4648C37.1301 65.9078 37.6896 65.1485 38.0031 64.2795C38.512 62.8686 39.656 61.7794 41.0911 61.3397L50.5701 58.4355C53.1275 57.6519 54.8735 55.2922 54.8735 52.6194Z" fill="url(#paint8_linear_637_2792)"/>
</g>
<g filter="url(#filter2_i_637_2792)">
<path d="M30.7712 20.7784L16.952 29.6912C15.2149 30.8115 14.1655 32.7363 14.1655 34.8022V51.7135C14.1655 54.4459 15.9888 56.8431 18.6235 57.5747L32.4668 61.4189C33.5483 61.7192 34.6919 61.7149 35.7711 61.4065L49.098 57.5982C51.7109 56.8515 53.5121 54.4648 53.5121 51.7493V34.7506C53.5121 32.713 52.4912 30.8107 50.7925 29.6833L37.4415 20.8222C35.4246 19.4835 32.8055 19.4664 30.7712 20.7784Z" fill="url(#paint9_linear_637_2792)"/>
</g>
<g filter="url(#filter3_d_637_2792)">
<path d="M29.1495 41.4728C29.1322 41.3159 29.1495 41.1474 29.1438 40.9731C29.1438 40.8859 29.1611 40.7872 29.19 40.6942C29.2131 40.607 29.2131 40.5141 29.2304 40.4327C29.2651 40.2758 29.3113 40.1248 29.346 39.9679C29.4038 39.7122 29.5136 39.474 29.6118 39.23C29.7101 38.9801 29.8488 38.7477 29.9875 38.5153C30.1204 38.2887 30.2822 38.0853 30.4555 37.8819C30.6982 37.6089 30.9583 37.3474 31.2068 37.0801C31.3801 36.8942 31.5593 36.7199 31.7326 36.5397C32.0678 36.2027 32.4087 35.8657 32.7323 35.5171C33.0791 35.1511 33.4316 34.7966 33.7841 34.4306C33.9401 34.2679 34.1135 34.1168 34.2637 33.9425C34.5122 33.652 34.7953 33.3963 35.0612 33.1232C35.2114 32.9722 35.3617 32.8211 35.5061 32.6642C35.8528 32.2865 36.2342 31.9437 36.581 31.5602C36.8699 31.2407 37.1877 30.9443 37.4824 30.6306C37.7078 30.3923 37.9332 30.1599 38.1528 29.9275C38.3435 29.7299 38.5515 29.5614 38.7595 29.3871C38.9676 29.2128 39.1929 29.0734 39.4241 28.9339C39.6726 28.7887 39.9442 28.6725 40.2158 28.5737C40.3371 28.533 40.4527 28.4749 40.5741 28.4517C40.6781 28.4342 40.7763 28.3994 40.8803 28.3877C41.0421 28.3703 41.1982 28.3354 41.36 28.3122C41.6027 28.2773 41.8511 28.2773 42.0939 28.2773C42.4059 28.2773 42.7122 28.3238 43.0127 28.3819C43.3478 28.4458 43.6714 28.5388 43.9777 28.6783C44.2782 28.8119 44.5729 28.9746 44.8503 29.1605C45.1681 29.3813 45.4628 29.6312 45.7344 29.9101C45.9771 30.1541 46.1736 30.433 46.3701 30.7119C46.6186 31.078 46.7977 31.4847 46.948 31.903C47.0751 32.2633 47.156 32.6293 47.2022 33.007C47.2253 33.222 47.2542 33.437 47.2485 33.6578C47.2427 33.8844 47.2485 34.111 47.2138 34.3376C47.1733 34.5991 47.1387 34.8663 47.0693 35.122C46.9826 35.4358 46.8786 35.7437 46.7399 36.0342C46.503 36.5572 46.191 37.022 45.8038 37.4462C45.538 37.7425 45.2548 38.0272 44.9774 38.3061C44.6943 38.585 44.4227 38.8755 44.1569 39.166C44.0413 39.2939 43.9257 39.4217 43.7928 39.5321C43.7177 39.6018 43.6483 39.6832 43.579 39.7529C43.527 39.8052 43.475 39.8517 43.423 39.904C43.134 40.2061 42.8393 40.4966 42.5561 40.8046C42.4001 40.9731 42.2441 41.1416 42.0881 41.3043C41.8223 41.5774 41.5564 41.8505 41.2848 42.1235C41.0132 42.3966 40.7359 42.6639 40.4758 42.9486C40.1175 43.3379 39.7419 43.7156 39.3779 44.1049C39.1467 44.3489 38.8982 44.5814 38.6613 44.8196C38.4244 45.0578 38.1874 45.296 37.9505 45.5343C37.8176 45.6679 37.6616 45.7783 37.5171 45.8945C37.3149 46.0514 37.101 46.1908 36.8757 46.307C36.5232 46.4872 36.1533 46.6324 35.7719 46.7428C35.5408 46.8067 35.2981 46.8416 35.0612 46.8881C34.9976 46.8997 34.9283 46.8997 34.8647 46.9055C34.5526 46.9288 34.2406 46.8997 33.9285 46.8997C33.8361 46.8997 33.7436 46.8707 33.6512 46.859C33.5414 46.8416 33.4316 46.8125 33.3218 46.7893C33.1311 46.7486 32.9462 46.6905 32.7612 46.6382C32.5416 46.5743 32.3336 46.4697 32.1256 46.3768C31.9869 46.3129 31.8655 46.2199 31.7326 46.1502C31.6228 46.0921 31.5246 46.0223 31.4264 45.9526C31.2934 45.848 31.1605 45.7434 31.0334 45.6388C30.8543 45.4878 30.6867 45.3193 30.5307 45.145C30.4324 45.0288 30.3284 44.9184 30.2359 44.7963C30.0741 44.5813 29.9412 44.3489 29.8141 44.1165C29.6927 43.8899 29.5714 43.6633 29.4905 43.4193C29.4038 43.1752 29.346 42.9254 29.2709 42.6813C29.242 42.5826 29.242 42.4722 29.2189 42.3676C29.1553 42.0713 29.138 41.7807 29.1495 41.4728ZM32.403 45.3541C32.4203 45.3251 32.4145 45.3018 32.4145 45.2786C32.4145 45.0113 32.4145 44.744 32.4145 44.4826C32.4145 43.1055 32.4145 41.7343 32.4145 40.3572C32.4145 40.3107 32.4203 40.2816 32.4781 40.2816C32.8999 40.2816 33.3218 40.2816 33.7436 40.2875C33.8014 40.2875 33.8245 40.2758 33.8187 40.2119C33.8187 39.6716 33.8187 39.1254 33.8187 38.585C33.8187 38.2073 33.8187 37.8355 33.8187 37.4578C33.8187 37.3648 33.8187 37.3648 33.917 37.359C33.969 37.359 34.0268 37.3648 34.0788 37.3474C34.1077 37.3416 34.1481 37.359 34.1539 37.4055C34.1539 37.4636 34.1655 37.5159 34.1655 37.5682C34.1655 38.4456 34.1655 39.3229 34.1655 40.2061C34.1655 40.2642 34.1828 40.2816 34.2406 40.2758C34.6624 40.2758 35.0843 40.2758 35.5061 40.27C35.5639 40.27 35.5812 40.2816 35.5812 40.3398C35.5812 41.9144 35.5812 43.489 35.5812 45.0578C35.5812 45.2495 35.5812 45.4471 35.5812 45.6388C35.5812 45.6853 35.5928 45.7028 35.6448 45.6853C35.7142 45.6621 35.7835 45.6505 35.8471 45.6214C35.9684 45.5691 36.0956 45.5226 36.2169 45.4587C36.3556 45.3832 36.5001 45.3193 36.6387 45.2379C36.8063 45.1391 36.9566 45.0288 37.1126 44.9067C37.2051 44.837 37.2917 44.7673 37.2513 44.6278C37.2513 44.622 37.2513 44.6162 37.2513 44.6046C37.2513 42.2862 37.2571 39.9621 37.2571 37.6437C37.2571 36.9174 37.2571 36.1911 37.2571 35.4648C37.2571 35.3719 37.2571 35.3719 37.3495 35.3719C37.754 35.3719 38.1643 35.3719 38.5688 35.3719C38.6382 35.3719 38.6613 35.3486 38.6613 35.2789C38.6555 34.8024 38.6613 34.3202 38.6613 33.8437C38.6613 33.4079 38.6613 32.9722 38.6613 32.5364C38.6613 32.4666 38.6844 32.4492 38.748 32.4492C38.8115 32.455 38.8751 32.455 38.9329 32.4492C38.9849 32.4434 38.9965 32.4666 38.9965 32.5131C38.9965 33.4196 38.9965 34.326 38.9965 35.2382C38.9965 35.2673 39.0022 35.2963 38.9907 35.3196C38.9676 35.3719 38.9965 35.3719 39.0311 35.3719C39.1352 35.3719 39.2449 35.3719 39.349 35.3719C39.6726 35.3719 39.9962 35.3719 40.314 35.3719C40.3718 35.3719 40.3949 35.3893 40.3949 35.4474C40.3891 35.5229 40.3891 35.6043 40.3891 35.6798C40.3891 37.5972 40.3891 39.5089 40.3891 41.4263C40.3891 41.4495 40.3891 41.467 40.3949 41.4902C40.4122 41.5367 40.4238 41.5425 40.4585 41.5076C40.5278 41.4321 40.5972 41.3624 40.6665 41.2927C41.0363 40.9092 41.412 40.5257 41.7818 40.1422C42.2383 39.6716 42.6948 39.2009 43.1571 38.7303C43.1918 38.6954 43.2034 38.6547 43.2034 38.6082C43.2034 37.911 43.2034 37.2079 43.2034 36.5107C43.2034 36.4526 43.186 36.4352 43.1282 36.4352C42.7237 36.441 42.3192 36.4352 41.9147 36.4352C41.8049 36.4352 41.7991 36.4584 41.7991 36.3248C41.7991 34.2446 41.7991 32.1587 41.7991 30.0786C41.7991 30.0263 41.776 29.9798 41.7818 29.9275C41.8107 29.759 41.7934 29.5847 41.7934 29.4162C41.7934 29.3 41.7876 29.3 41.6778 29.3058C41.6604 29.3058 41.6373 29.3058 41.62 29.3058C41.4986 29.3174 41.3773 29.3174 41.2559 29.3406C40.9901 29.3929 40.7243 29.4627 40.4643 29.5614C40.1638 29.6718 39.8806 29.8171 39.6206 29.9972C39.297 30.218 39.0138 30.4969 38.7364 30.7758C38.4995 31.014 38.2741 31.2523 38.0372 31.4905C37.939 31.5893 37.8407 31.6822 37.7483 31.781C37.4593 32.0832 37.1704 32.3911 36.8815 32.6991C36.8121 32.7746 36.7428 32.8618 36.6676 32.9315C36.5116 33.0826 36.3672 33.2394 36.2111 33.3905C35.7893 33.8089 35.3674 34.233 34.9687 34.6746C34.7318 34.9361 34.4833 35.1801 34.2348 35.43C33.8187 35.8541 33.3911 36.2725 32.9808 36.7024C32.5648 37.1382 32.1545 37.574 31.7326 38.004C31.4321 38.3119 31.1259 38.6141 30.8947 38.9859C30.7271 39.2474 30.5769 39.5205 30.4613 39.811C30.3111 40.1887 30.2186 40.578 30.1782 40.9789C30.1319 41.4263 30.1377 41.8737 30.2302 42.3153C30.2937 42.6174 30.3804 42.9138 30.4902 43.2043C30.548 43.3612 30.6347 43.5064 30.7156 43.6517C31.1259 44.3838 31.6806 44.9474 32.403 45.3541ZM44.9312 30.526C44.9254 30.5608 44.9254 30.5783 44.9254 30.5957C44.9254 31.5254 44.9254 32.4492 44.9254 33.3789C44.9254 34.3725 44.9254 35.366 44.9254 36.3654C44.9254 36.4293 44.9139 36.4584 44.8387 36.4584C44.4227 36.4526 44.0124 36.4584 43.5963 36.4584C43.5328 36.4584 43.5154 36.4816 43.5154 36.5397C43.5154 37.1092 43.5154 37.6844 43.5154 38.2538C43.5154 38.2829 43.5154 38.3119 43.5154 38.341C43.6657 38.1957 43.8101 38.0563 43.9546 37.911C44.1915 37.667 44.4284 37.4229 44.6654 37.1789C44.9543 36.8826 45.249 36.592 45.4802 36.2434C45.9367 35.5578 46.1794 34.7966 46.2314 33.9774C46.2603 33.5067 46.2083 33.0419 46.0927 32.5829C45.9714 32.1006 45.7749 31.6532 45.4975 31.2407C45.3415 30.9792 45.145 30.7642 44.9312 30.526Z" fill="url(#paint10_linear_637_2792)"/>
</g>
<g filter="url(#filter4_d_637_2792)">
<path d="M28.3188 43.921C28.2555 43.8979 28.2209 43.8517 28.1921 43.8113C28.0884 43.6728 27.9616 43.5516 27.8464 43.4247C27.7082 43.2689 27.5641 43.1131 27.4143 42.963C27.1263 42.6687 26.8382 42.3744 26.5502 42.0801C26.3831 41.907 26.216 41.7396 26.049 41.5723C25.9107 41.4338 25.784 41.2838 25.6457 41.151C25.5823 41.0876 25.5247 41.0125 25.4441 40.9606C25.3749 40.9202 25.3519 40.8336 25.2885 40.7759C25.1042 40.6086 24.9429 40.4239 24.7585 40.2566C24.6145 40.1238 24.4993 39.9565 24.3552 39.8238C24.2631 39.743 24.1824 39.6449 24.0845 39.5699C24.0384 39.541 24.0211 39.4775 23.9808 39.4371C23.7906 39.2525 23.6005 39.0736 23.4219 38.8774C23.18 38.6062 22.915 38.358 22.673 38.0868C22.4944 37.8906 22.2985 37.7059 22.1142 37.5155C21.8434 37.2327 21.5957 36.9269 21.3825 36.598C21.2788 36.4364 21.1982 36.2633 21.106 36.0959C21.0196 35.9401 20.9677 35.7727 20.8986 35.6169C20.8064 35.4207 20.7776 35.213 20.7142 35.011C20.6739 34.8725 20.6566 34.7282 20.6278 34.5897C20.5587 34.2031 20.576 33.8165 20.5645 33.4241C20.5645 33.3202 20.576 33.2163 20.5702 33.1125C20.5702 33.0317 20.6048 32.9451 20.6163 32.8585C20.6278 32.8066 20.6221 32.7489 20.6278 32.697C20.6393 32.6104 20.6682 32.5296 20.6912 32.4431C20.7603 32.1487 20.8525 31.866 20.962 31.5832C21.0253 31.4159 21.0887 31.2427 21.1866 31.0927C21.3134 30.8965 21.4286 30.6888 21.5669 30.5041C21.7051 30.3137 21.8434 30.1232 22.0105 29.9559C22.1545 29.8058 22.3043 29.6616 22.4656 29.5231C22.7248 29.2923 23.0071 29.0903 23.3125 28.9229C23.4968 28.8248 23.6869 28.7325 23.8771 28.6459C24.0153 28.5825 24.1536 28.5305 24.3034 28.4959C24.4186 28.467 24.5223 28.4151 24.6433 28.4036C24.8276 28.3863 25.0005 28.3401 25.1791 28.3112C25.4383 28.2766 25.6976 28.2766 25.9568 28.2766C26.0605 28.2766 26.1642 28.2766 26.2621 28.2824C26.3658 28.2882 26.4695 28.3055 26.5732 28.3228C26.7173 28.3459 26.8613 28.4036 27.0111 28.4093C27.1436 28.4151 27.253 28.4844 27.374 28.5132C27.6045 28.5651 27.8119 28.6748 28.025 28.7671C28.2843 28.8825 28.5205 29.0268 28.7509 29.1884C28.918 29.3038 29.0908 29.4192 29.2464 29.5577C29.3558 29.6558 29.4595 29.7597 29.5575 29.8636C29.8801 30.1925 30.2027 30.5214 30.5253 30.8503C30.8767 31.2139 31.2282 31.5832 31.5854 31.941C32.0232 32.3796 32.4438 32.8412 32.8874 33.274C32.9046 33.2913 32.9219 33.3087 32.9392 33.326C32.9622 33.3491 32.9565 33.3721 32.9334 33.3952C32.7721 33.5568 32.6166 33.7126 32.4553 33.8742C32.4034 33.9319 32.34 33.9838 32.294 34.0415C32.2536 34.0877 32.2248 34.0646 32.196 34.0415C32.0693 33.9146 31.931 33.7934 31.8216 33.6491C31.7063 33.5049 31.5565 33.401 31.4528 33.2509C31.4068 33.1875 31.3376 33.1413 31.2858 33.0836C31.0669 32.8585 30.8537 32.6219 30.629 32.4084C30.4274 32.2122 30.2373 31.9987 30.0356 31.7967C29.8974 31.6582 29.7476 31.5313 29.6208 31.3812C29.448 31.1735 29.2521 30.9946 29.0678 30.7984C28.8661 30.5849 28.6645 30.3714 28.4283 30.1925C28.29 30.0886 28.146 29.9847 27.9905 29.8982C27.8637 29.8232 27.7312 29.7597 27.6045 29.6904C27.4835 29.627 27.3567 29.575 27.2242 29.5346C27.1148 29.5 26.9996 29.4596 26.8843 29.4308C26.7057 29.3846 26.5271 29.3557 26.3486 29.3269C26.2564 29.3096 26.1642 29.3153 26.072 29.3096C26.0144 29.3038 26.0029 29.3269 26.0029 29.3788C26.0029 29.5577 26.0029 29.7366 26.0029 29.9097C26.0029 30.4695 26.0029 31.0292 26.0029 31.589C26.0029 32.9336 26.0087 34.2839 26.0029 35.6285C26.0029 35.8593 26.0144 36.0901 26.0087 36.3267C26.0087 36.3729 26.0029 36.4017 25.9395 36.4017C25.5247 36.4017 25.1099 36.4017 24.6951 36.4017C24.626 36.4017 24.6087 36.4248 24.6087 36.5114C24.6087 37.1289 24.6087 37.7406 24.6087 38.358C24.6087 38.433 24.6145 38.5081 24.603 38.5831C24.5972 38.6119 24.6087 38.6292 24.626 38.6523C25.0177 39.0505 25.4095 39.4487 25.8013 39.8526C26.2276 40.2912 26.6539 40.7298 27.0802 41.1683C27.1839 41.2722 27.2934 41.3703 27.4028 41.4742C27.4028 41.3011 27.4028 41.1222 27.4028 40.9433C27.4028 39.1024 27.4028 37.2674 27.4028 35.4265C27.4028 35.363 27.4259 35.3457 27.4835 35.3457C27.8983 35.3457 28.3131 35.3457 28.7279 35.3457C28.797 35.3457 28.8085 35.3226 28.8085 35.2592C28.8085 34.3532 28.8085 33.4529 28.8085 32.5469C28.8085 32.4431 28.8085 32.4431 28.9122 32.4431C28.9583 32.4431 29.0102 32.4488 29.0562 32.4431C29.1196 32.4373 29.1427 32.4604 29.1427 32.5296C29.1427 32.8585 29.1427 33.1875 29.1427 33.5164C29.1427 34.105 29.1427 34.6879 29.1427 35.2765C29.1427 35.3399 29.1657 35.363 29.2233 35.3399C29.2636 35.3226 29.304 35.3457 29.3385 35.3457C29.713 35.3457 30.0817 35.3457 30.4562 35.3457C30.5196 35.3457 30.5541 35.363 30.5368 35.4323C30.5138 35.565 30.5253 35.6977 30.5253 35.8247C30.5253 35.8593 30.5138 35.8824 30.4908 35.9055C30.3582 36.0324 30.243 36.1651 30.1105 36.2921C29.9665 36.4364 29.8225 36.5806 29.6784 36.7307C29.5171 36.8923 29.3731 37.0654 29.2348 37.2443C29.1369 37.3712 29.0447 37.4982 28.9583 37.6309C28.8085 37.856 28.6645 38.0868 28.5493 38.3349C28.4398 38.5658 28.3361 38.8024 28.2497 39.0447C28.1748 39.2582 28.0942 39.466 28.0481 39.6853C28.0077 39.8815 27.9559 40.0719 27.9271 40.2681C27.9098 40.4008 27.8983 40.5336 27.881 40.6663C27.8579 40.8452 27.8522 41.0183 27.8407 41.1972C27.8291 41.3645 27.8234 41.5319 27.8464 41.6992C27.8579 41.78 27.8522 41.8666 27.8579 41.9474C27.8752 42.109 27.8925 42.2705 27.9156 42.4264C27.9559 42.7149 28.0308 42.9977 28.1057 43.2746C28.146 43.4247 28.1921 43.5689 28.2555 43.7074C28.2727 43.7767 28.3073 43.8402 28.3188 43.921ZM24.2458 38.2368C24.2458 38.2253 24.2515 38.2195 24.2515 38.2137C24.2515 37.6482 24.2515 37.0827 24.2515 36.5172C24.2515 36.3729 24.2515 36.3787 24.1133 36.3844C23.7157 36.4017 23.324 36.3902 22.9265 36.3902C22.8746 36.3902 22.8516 36.3729 22.8516 36.3152C22.8516 34.4282 22.8516 32.5354 22.8516 30.6484C22.8516 30.6137 22.8689 30.5618 22.8401 30.5503C22.8113 30.5387 22.794 30.5907 22.7709 30.6137C22.5117 30.8619 22.3101 31.1562 22.1315 31.462C21.8895 31.8833 21.7339 32.3334 21.636 32.8066C21.5438 33.2509 21.5381 33.7011 21.5726 34.1512C21.5899 34.3705 21.6418 34.584 21.6879 34.7975C21.8031 35.2765 22.0105 35.7208 22.2812 36.1305C22.5059 36.4768 22.7882 36.7711 23.082 37.0654C23.2433 37.2327 23.4047 37.4001 23.566 37.5674C23.7618 37.7636 23.9577 37.9598 24.1478 38.1618C24.1766 38.1907 24.2054 38.2195 24.2458 38.2368Z" fill="url(#paint11_linear_637_2792)"/>
</g>
<g filter="url(#filter5_d_637_2792)">
<path d="M12.8042 54.7059C12.8042 54.7059 22.2735 57.7854 33.7667 57.7854C45.2599 57.7854 54.8738 54.7059 54.8738 54.7059V44.0456C54.8738 44.0456 42.243 48.2021 33.7667 48.1913C25.3452 48.1805 12.8042 44.0456 12.8042 44.0456V54.7059Z" fill="url(#paint12_linear_637_2792)"/>
</g>
<g filter="url(#filter6_d_637_2792)">
<path d="M34.752 21.0979C34.4395 21.6386 33.6584 21.6386 33.3459 21.0979L31.6551 18.1716C31.3427 17.6309 31.7332 16.955 32.3581 16.955L35.7398 16.955C36.3647 16.955 36.7552 17.6309 36.4428 18.1716L34.752 21.0979Z" fill="url(#paint13_linear_637_2792)"/>
</g>
<g filter="url(#filter7_d_637_2792)">
<path d="M34.752 64.8149C34.4395 65.3556 33.6584 65.3556 33.3459 64.8149L31.6551 61.8887C31.3427 61.3479 31.7332 60.672 32.3581 60.672L35.7398 60.672C36.3647 60.672 36.7552 61.3479 36.4428 61.8887L34.752 64.8149Z" fill="url(#paint14_linear_637_2792)"/>
</g>
<g filter="url(#filter8_d_637_2792)">
<path d="M55.6711 30.1414C56.0315 30.6515 55.7041 31.3601 55.0818 31.4169L51.7142 31.7243C51.0919 31.7811 50.6414 31.1435 50.9033 30.5766L52.3207 27.5088C52.5827 26.9419 53.3605 26.8709 53.7209 27.381L55.6711 30.1414Z" fill="url(#paint15_linear_637_2792)"/>
</g>
<g filter="url(#filter9_d_637_2792)">
<path d="M17.595 30.1414C17.9553 30.6515 17.6279 31.3601 17.0056 31.4169L13.638 31.7243C13.0157 31.7811 12.5652 31.1435 12.8272 30.5766L14.2446 27.5088C14.5065 26.9419 15.2844 26.8709 15.6448 27.381L17.595 30.1414Z" fill="url(#paint16_linear_637_2792)"/>
</g>
</g>
<path d="M34.6226 50.8987H35.807V54.8438H34.6226V50.8987Z" fill="#FE9CA4"/>
<path d="M36.3052 50.8987H37.4897V54.8438H36.3052V50.8987Z" fill="#FE9CA4"/>
<path d="M37.9878 50.8987H39.1723V54.8438H37.9878V50.8987Z" fill="#FE9CA4"/>
<path d="M31.5081 54.6301L29.7661 51.0991H30.5688L32.1229 54.2922H31.6618L33.233 51.0991H33.9731L32.2368 54.6301H31.5081Z" fill="#FE9CA4"/>
<path fill-rule="evenodd" clip-rule="evenodd" d="M29.4395 50.8962H30.6954L31.8943 53.3593L33.1063 50.8962H34.2985L32.3628 54.8328H31.3815L29.4395 50.8962ZM31.6674 53.8205L30.4415 51.3018H30.092L31.5012 54.1581L31.6674 53.8205ZM32.2628 54.1165L32.1192 53.8214L33.359 51.3018H33.6469L32.2628 54.1165Z" fill="#FE9CA4"/>
<defs>
<filter id="filter0_d_637_2792" x="-7.14785" y="-0.0555668" width="83.0579" height="78.7889" filterUnits="userSpaceOnUse" color-interpolation-filters="sRGB">
<feFlood flood-opacity="0" result="BackgroundImageFix"/>
<feColorMatrix in="SourceAlpha" type="matrix" values="0 0 0 0 0 0 0 0 0 0 0 0 0 0 0 0 0 0 127 0" result="hardAlpha"/>
<feOffset/>
<feGaussianBlur stdDeviation="5.3"/>
<feComposite in2="hardAlpha" operator="out"/>
<feColorMatrix type="matrix" values="0 0 0 0 0.831373 0 0 0 0 0.14902 0 0 0 0 0.333333 0 0 0 0.3 0"/>
<feBlend mode="normal" in2="BackgroundImageFix" result="effect1_dropShadow_637_2792"/>
<feBlend mode="normal" in="SourceGraphic" in2="effect1_dropShadow_637_2792" result="shape"/>
</filter>
<filter id="filter1_d_637_2792" x="2.23447" y="1.44443" width="64.6048" height="67.7889" filterUnits="userSpaceOnUse" color-interpolation-filters="sRGB">
<feFlood flood-opacity="0" result="BackgroundImageFix"/>
<feColorMatrix in="SourceAlpha" type="matrix" values="0 0 0 0 0 0 0 0 0 0 0 0 0 0 0 0 0 0 127 0" result="hardAlpha"/>
<feOffset dy="-4"/>
<feGaussianBlur stdDeviation="2.55"/>
<feComposite in2="hardAlpha" operator="out"/>
<feColorMatrix type="matrix" values="0 0 0 0 0 0 0 0 0 0 0 0 0 0 0 0 0 0 0.25 0"/>
<feBlend mode="normal" in2="BackgroundImageFix" result="effect1_dropShadow_637_2792"/>
<feBlend mode="normal" in="SourceGraphic" in2="effect1_dropShadow_637_2792" result="shape"/>
</filter>
<filter id="filter2_i_637_2792" x="14.1655" y="19.8062" width="41.3467" height="42.835" filterUnits="userSpaceOnUse" color-interpolation-filters="sRGB">
<feFlood flood-opacity="0" result="BackgroundImageFix"/>
<feBlend mode="normal" in="SourceGraphic" in2="BackgroundImageFix" result="shape"/>
<feColorMatrix in="SourceAlpha" type="matrix" values="0 0 0 0 0 0 0 0 0 0 0 0 0 0 0 0 0 0 127 0" result="hardAlpha"/>
<feOffset dx="2" dy="1"/>
<feGaussianBlur stdDeviation="1"/>
<feComposite in2="hardAlpha" operator="arithmetic" k2="-1" k3="1"/>
<feColorMatrix type="matrix" values="0 0 0 0 0 0 0 0 0 0 0 0 0 0 0 0 0 0 0.25 0"/>
<feBlend mode="normal" in2="shape" result="effect1_innerShadow_637_2792"/>
</filter>
<filter id="filter3_d_637_2792" x="28.5416" y="28.2773" width="21.3074" height="22.2372" filterUnits="userSpaceOnUse" color-interpolation-filters="sRGB">
<feFlood flood-opacity="0" result="BackgroundImageFix"/>
<feColorMatrix in="SourceAlpha" type="matrix" values="0 0 0 0 0 0 0 0 0 0 0 0 0 0 0 0 0 0 127 0" result="hardAlpha"/>
<feOffset dx="1" dy="2"/>
<feGaussianBlur stdDeviation="0.8"/>
<feComposite in2="hardAlpha" operator="out"/>
<feColorMatrix type="matrix" values="0 0 0 0 0 0 0 0 0 0 0 0 0 0 0 0 0 0 0.25 0"/>
<feBlend mode="normal" in2="BackgroundImageFix" result="effect1_dropShadow_637_2792"/>
<feBlend mode="normal" in="SourceGraphic" in2="effect1_dropShadow_637_2792" result="shape"/>
</filter>
<filter id="filter4_d_637_2792" x="19.9645" y="28.2766" width="15.5896" height="19.2443" filterUnits="userSpaceOnUse" color-interpolation-filters="sRGB">
<feFlood flood-opacity="0" result="BackgroundImageFix"/>
<feColorMatrix in="SourceAlpha" type="matrix" values="0 0 0 0 0 0 0 0 0 0 0 0 0 0 0 0 0 0 127 0" result="hardAlpha"/>
<feOffset dx="1" dy="2"/>
<feGaussianBlur stdDeviation="0.8"/>
<feComposite in2="hardAlpha" operator="out"/>
<feColorMatrix type="matrix" values="0 0 0 0 0 0 0 0 0 0 0 0 0 0 0 0 0 0 0.25 0"/>
<feBlend mode="normal" in2="BackgroundImageFix" result="effect1_dropShadow_637_2792"/>
<feBlend mode="normal" in="SourceGraphic" in2="effect1_dropShadow_637_2792" result="shape"/>
</filter>
<filter id="filter5_d_637_2792" x="12.8042" y="43.7457" width="45.3693" height="16.3397" filterUnits="userSpaceOnUse" color-interpolation-filters="sRGB">
<feFlood flood-opacity="0" result="BackgroundImageFix"/>
<feColorMatrix in="SourceAlpha" type="matrix" values="0 0 0 0 0 0 0 0 0 0 0 0 0 0 0 0 0 0 127 0" result="hardAlpha"/>
<feOffset dx="2" dy="1"/>
<feGaussianBlur stdDeviation="0.65"/>
<feComposite in2="hardAlpha" operator="out"/>
<feColorMatrix type="matrix" values="0 0 0 0 0 0 0 0 0 0 0 0 0 0 0 0 0 0 0.25 0"/>
<feBlend mode="normal" in2="BackgroundImageFix" result="effect1_dropShadow_637_2792"/>
<feBlend mode="normal" in="SourceGraphic" in2="effect1_dropShadow_637_2792" result="shape"/>
</filter>
<filter id="filter6_d_637_2792" x="25.2449" y="10.6551" width="17.6078" height="17.1483" filterUnits="userSpaceOnUse" color-interpolation-filters="sRGB">
<feFlood flood-opacity="0" result="BackgroundImageFix"/>
<feColorMatrix in="SourceAlpha" type="matrix" values="0 0 0 0 0 0 0 0 0 0 0 0 0 0 0 0 0 0 127 0" result="hardAlpha"/>
<feOffset/>
<feGaussianBlur stdDeviation="3.15"/>
<feComposite in2="hardAlpha" operator="out"/>
<feColorMatrix type="matrix" values="0 0 0 0 1 0 0 0 0 1 0 0 0 0 1 0 0 0 0.25 0"/>
<feBlend mode="normal" in2="BackgroundImageFix" result="effect1_dropShadow_637_2792"/>
<feBlend mode="normal" in="SourceGraphic" in2="effect1_dropShadow_637_2792" result="shape"/>
</filter>
<filter id="filter7_d_637_2792" x="25.2449" y="54.3721" width="17.6078" height="17.1483" filterUnits="userSpaceOnUse" color-interpolation-filters="sRGB">
<feFlood flood-opacity="0" result="BackgroundImageFix"/>
<feColorMatrix in="SourceAlpha" type="matrix" values="0 0 0 0 0 0 0 0 0 0 0 0 0 0 0 0 0 0 127 0" result="hardAlpha"/>
<feOffset/>
<feGaussianBlur stdDeviation="3.15"/>
<feComposite in2="hardAlpha" operator="out"/>
<feColorMatrix type="matrix" values="0 0 0 0 1 0 0 0 0 1 0 0 0 0 1 0 0 0 0.25 0"/>
<feBlend mode="normal" in2="BackgroundImageFix" result="effect1_dropShadow_637_2792"/>
<feBlend mode="normal" in="SourceGraphic" in2="effect1_dropShadow_637_2792" result="shape"/>
</filter>
<filter id="filter8_d_637_2792" x="44.5271" y="20.7376" width="17.5937" height="17.2902" filterUnits="userSpaceOnUse" color-interpolation-filters="sRGB">
<feFlood flood-opacity="0" result="BackgroundImageFix"/>
<feColorMatrix in="SourceAlpha" type="matrix" values="0 0 0 0 0 0 0 0 0 0 0 0 0 0 0 0 0 0 127 0" result="hardAlpha"/>
<feOffset/>
<feGaussianBlur stdDeviation="3.15"/>
<feComposite in2="hardAlpha" operator="out"/>
<feColorMatrix type="matrix" values="0 0 0 0 1 0 0 0 0 1 0 0 0 0 1 0 0 0 0.25 0"/>
<feBlend mode="normal" in2="BackgroundImageFix" result="effect1_dropShadow_637_2792"/>
<feBlend mode="normal" in="SourceGraphic" in2="effect1_dropShadow_637_2792" result="shape"/>
</filter>
<filter id="filter9_d_637_2792" x="6.45098" y="20.7376" width="17.5937" height="17.2902" filterUnits="userSpaceOnUse" color-interpolation-filters="sRGB">
<feFlood flood-opacity="0" result="BackgroundImageFix"/>
<feColorMatrix in="SourceAlpha" type="matrix" values="0 0 0 0 0 0 0 0 0 0 0 0 0 0 0 0 0 0 127 0" result="hardAlpha"/>
<feOffset/>
<feGaussianBlur stdDeviation="3.15"/>
<feComposite in2="hardAlpha" operator="out"/>
<feColorMatrix type="matrix" values="0 0 0 0 1 0 0 0 0 1 0 0 0 0 1 0 0 0 0.25 0"/>
<feBlend mode="normal" in2="BackgroundImageFix" result="effect1_dropShadow_637_2792"/>
<feBlend mode="normal" in="SourceGraphic" in2="effect1_dropShadow_637_2792" result="shape"/>
</filter>
<linearGradient id="paint0_linear_637_2792" x1="39.1158" y1="10.7603" x2="36.9212" y2="21.983" gradientUnits="userSpaceOnUse">
<stop stop-color="#EC5871"/>
<stop offset="1" stop-color="#AA0D3C"/>
</linearGradient>
<linearGradient id="paint1_linear_637_2792" x1="36.6208" y1="15.7882" x2="30.0705" y2="28.5103" gradientUnits="userSpaceOnUse">
<stop stop-color="#FD7984"/>
<stop offset="1" stop-color="#CB144B"/>
</linearGradient>
<linearGradient id="paint2_linear_637_2792" x1="69.7319" y1="23.365" x2="59.8467" y2="20.6286" gradientUnits="userSpaceOnUse">
<stop stop-color="#B43250"/>
<stop offset="1" stop-color="#7A0729"/>
</linearGradient>
<linearGradient id="paint3_linear_637_2792" x1="67.208" y1="38.0774" x2="57.3227" y2="35.341" gradientUnits="userSpaceOnUse">
<stop stop-color="#B2314F"/>
<stop offset="1" stop-color="#730B2A"/>
</linearGradient>
<linearGradient id="paint4_linear_637_2792" x1="68.8906" y1="30.0906" x2="59.0054" y2="27.3541" gradientUnits="userSpaceOnUse">
<stop stop-color="#EF5C74"/>
<stop offset="1" stop-color="#7E0C2E"/>
</linearGradient>
<linearGradient id="paint5_linear_637_2792" x1="6.6275" y1="20.2122" x2="12.0886" y2="36.6088" gradientUnits="userSpaceOnUse">
<stop stop-color="#FF9FA7"/>
<stop offset="1" stop-color="#CA144B"/>
</linearGradient>
<linearGradient id="paint6_linear_637_2792" x1="9.15191" y1="33.6637" x2="14.613" y2="50.0602" gradientUnits="userSpaceOnUse">
<stop stop-color="#FD7984"/>
<stop offset="1" stop-color="#CB144B"/>
</linearGradient>
<linearGradient id="paint7_linear_637_2792" x1="7.4688" y1="26.5177" x2="12.9299" y2="42.9142" gradientUnits="userSpaceOnUse">
<stop stop-color="#F16277"/>
<stop offset="1" stop-color="#CB144B"/>
</linearGradient>
<linearGradient id="paint8_linear_637_2792" x1="22.8264" y1="16.8497" x2="47.4665" y2="19.2379" gradientUnits="userSpaceOnUse">
<stop stop-color="#FD7984"/>
<stop offset="1" stop-color="#AA0D3C"/>
</linearGradient>
<linearGradient id="paint9_linear_637_2792" x1="23.5393" y1="18.6181" x2="47.1086" y2="19.8958" gradientUnits="userSpaceOnUse">
<stop stop-color="#FD7984"/>
<stop offset="1" stop-color="#CB144B"/>
</linearGradient>
<linearGradient id="paint10_linear_637_2792" x1="33.4555" y1="28.2773" x2="44.2978" y2="28.9052" gradientUnits="userSpaceOnUse">
<stop stop-color="#FD94A1"/>
<stop offset="1" stop-color="#E9386D"/>
</linearGradient>
<linearGradient id="paint11_linear_637_2792" x1="23.516" y1="28.2766" x2="29.253" y2="16.3654" gradientUnits="userSpaceOnUse">
<stop stop-color="#FF9FA7"/>
<stop offset="0.9999" stop-color="#1C6A8B"/>
<stop offset="1" stop-color="#1A6889"/>
<stop offset="1" stop-color="#216F91"/>
<stop offset="1" stop-color="#0A8593"/>
</linearGradient>
<linearGradient id="paint12_linear_637_2792" x1="33.9729" y1="58.6758" x2="34.3823" y2="48.7428" gradientUnits="userSpaceOnUse">
<stop stop-color="#CC164C"/>
<stop offset="0.994792" stop-color="#E74D6B"/>
</linearGradient>
<linearGradient id="paint13_linear_637_2792" x1="35.921" y1="22.3145" x2="31.6396" y2="22.0591" gradientUnits="userSpaceOnUse">
<stop offset="0.0001" stop-color="#AA0D3C"/>
<stop offset="1" stop-color="#FF9FA7"/>
</linearGradient>
<linearGradient id="paint14_linear_637_2792" x1="35.921" y1="66.0316" x2="31.6396" y2="65.7762" gradientUnits="userSpaceOnUse">
<stop stop-color="#CB144B"/>
<stop offset="1" stop-color="#FF9FA7"/>
</linearGradient>
<linearGradient id="paint15_linear_637_2792" x1="55.4653" y1="24.427" x2="57.6558" y2="29.2068" gradientUnits="userSpaceOnUse">
<stop stop-color="#FF9FA7"/>
<stop offset="1" stop-color="#AA0D3C"/>
</linearGradient>
<linearGradient id="paint16_linear_637_2792" x1="17.3891" y1="24.427" x2="19.5796" y2="29.2068" gradientUnits="userSpaceOnUse">
<stop stop-color="#FF9FA7"/>
<stop offset="1" stop-color="#AA0D3C"/>
</linearGradient>
</defs>
</svg>
