<svg width="68" height="73" viewBox="0 0 68 73" fill="none" xmlns="http://www.w3.org/2000/svg">
<g filter="url(#filter0_d_637_2950)">
<path d="M40.5277 19.0402C40.5383 19.342 34.9992 25.7854 30.2894 31.6893C27.594 31.1379 23.7861 30.6499 25.2996 28.9572C27.9751 25.9648 31.4001 23.0788 33.9309 19.7286L40.9648 11.7908C40.884 12.8682 40.5075 18.4634 40.5277 19.0402Z" fill="url(#paint0_linear_637_2950)"/>
<path d="M26.4025 19.0402C26.3919 19.342 31.931 25.7854 36.6408 31.6893C39.3362 31.1379 43.1441 30.6499 41.6306 28.9572C38.9551 25.9648 35.5301 23.0788 32.9992 19.7286L25.9653 11.7908C26.0462 12.8682 26.4227 18.4634 26.4025 19.0402Z" fill="url(#paint1_linear_637_2950)"/>
<path d="M63.9384 26.5028C63.5238 26.9352 56.2117 36.5918 50.8705 41.9949C48.891 39.8344 46.0146 37.1712 47.675 35.7081C50.6101 33.1218 54.1085 31.0736 57.0273 27.9327L64.7632 21.0386C64.2964 22.5098 64.14 26.2926 63.9384 26.5028Z" fill="url(#paint2_linear_637_2950)"/>
<path d="M5.27269 26.0824C5.68729 26.5148 12.3533 36.1714 17.6945 41.5745C19.674 39.414 22.5503 36.7508 20.89 35.2877C17.9548 32.7014 14.4565 30.6531 11.5376 27.5123L3.80176 20.6182C4.26859 22.0894 5.07117 25.8722 5.27269 26.0824Z" fill="url(#paint3_linear_637_2950)"/>
<g filter="url(#filter1_d_637_2950)">
<path d="M54.478 53.025V33.0187L61.2443 23.981L56.683 25.4523L52.1973 27.1337L37.3787 19.0695L33.4662 10.95L30.5641 19.0695L15.0907 27.1337L11.9063 25.8726L7.62793 23.981L13.0181 33.0187V52.9865C13.0181 55.6776 14.7621 58.049 17.306 58.8169L27.1168 61.7785C28.5012 62.1964 29.6047 63.2608 30.0854 64.6417C30.3968 65.5362 30.9746 66.3105 31.739 66.8576L34.0881 68.5388L36.265 66.8703C36.9918 66.3133 37.5432 65.554 37.8521 64.685C38.3536 63.2741 39.4811 62.1849 40.8953 61.7452L50.2369 58.841C52.7573 58.0574 54.478 55.6977 54.478 53.025Z" fill="url(#paint4_linear_637_2950)"/>
</g>
<g filter="url(#filter2_i_637_2950)">
<path d="M30.7248 21.1839L17.106 30.0967C15.394 31.2171 14.3599 33.1418 14.3599 35.2077V52.119C14.3599 54.8514 16.1567 57.2486 18.7533 57.9802L32.3959 61.8244C33.4617 62.1247 34.5887 62.1204 35.6523 61.812L48.7861 58.0037C51.3611 57.257 53.1362 54.8704 53.1362 52.1549V35.1561C53.1362 33.1185 52.1301 31.2162 50.456 30.0888L37.2985 21.2277C35.3108 19.8891 32.7297 19.8719 30.7248 21.1839Z" fill="url(#paint5_linear_637_2950)"/>
</g>
<g filter="url(#filter3_d_637_2950)">
<path d="M29.127 41.8783C29.1099 41.7214 29.127 41.5529 29.1213 41.3786C29.1213 41.2914 29.1384 41.1927 29.1668 41.0997C29.1896 41.0125 29.1896 40.9196 29.2067 40.8382C29.2409 40.6814 29.2864 40.5303 29.3206 40.3734C29.3775 40.1177 29.4857 39.8795 29.5826 39.6355C29.6794 39.3856 29.8161 39.1532 29.9527 38.9208C30.0837 38.6942 30.2432 38.4908 30.414 38.2875C30.6532 38.0144 30.9095 37.7529 31.1544 37.4856C31.3252 37.2997 31.5018 37.1254 31.6726 36.9453C32.0029 36.6083 32.3389 36.2713 32.6578 35.9226C32.9995 35.5566 33.3469 35.2021 33.6943 34.8361C33.8481 34.6734 34.0189 34.5223 34.167 34.348C34.4119 34.0575 34.6909 33.8018 34.9529 33.5287C35.101 33.3777 35.249 33.2266 35.3914 33.0697C35.7331 32.692 36.109 32.3492 36.4507 31.9657C36.7354 31.6462 37.0487 31.3498 37.3391 31.0361C37.5612 30.7979 37.7833 30.5654 37.9997 30.333C38.1876 30.1355 38.3927 29.967 38.5977 29.7926C38.8027 29.6183 39.0248 29.4789 39.2526 29.3394C39.4975 29.1942 39.7652 29.078 40.0328 28.9792C40.1524 28.9385 40.2663 28.8804 40.3859 28.8572C40.4884 28.8397 40.5852 28.8049 40.6877 28.7933C40.8472 28.7758 41.001 28.741 41.1604 28.7177C41.3996 28.6829 41.6445 28.6829 41.8837 28.6829C42.1912 28.6829 42.493 28.7293 42.7892 28.7874C43.1195 28.8514 43.4384 28.9443 43.7402 29.0838C44.0364 29.2174 44.3268 29.3801 44.6002 29.566C44.9134 29.7868 45.2038 30.0367 45.4715 30.3156C45.7107 30.5596 45.9043 30.8385 46.0979 31.1174C46.3428 31.4835 46.5194 31.8902 46.6674 32.3086C46.7927 32.6688 46.8725 33.0349 46.918 33.4125C46.9408 33.6275 46.9693 33.8425 46.9636 34.0633C46.9579 34.2899 46.9636 34.5165 46.9294 34.7431C46.8895 35.0046 46.8554 35.2719 46.787 35.5275C46.7016 35.8413 46.5991 36.1492 46.4624 36.4398C46.2289 36.9627 45.9214 37.4275 45.5398 37.8517C45.2779 38.148 44.9988 38.4327 44.7255 38.7116C44.4464 38.9905 44.1787 39.281 43.9168 39.5716C43.8029 39.6994 43.689 39.8272 43.558 39.9376C43.484 40.0073 43.4156 40.0887 43.3473 40.1584C43.296 40.2107 43.2448 40.2572 43.1935 40.3095C42.9088 40.6116 42.6183 40.9021 42.3393 41.2101C42.1855 41.3786 42.0317 41.5471 41.878 41.7098C41.616 41.9829 41.354 42.256 41.0864 42.5291C40.8187 42.8022 40.5454 43.0694 40.2891 43.3541C39.936 43.7434 39.5658 44.1211 39.207 44.5104C38.9792 44.7544 38.7344 44.9869 38.5009 45.2251C38.2674 45.4633 38.0339 45.7015 37.8004 45.9398C37.6694 46.0734 37.5156 46.1838 37.3733 46.3C37.1739 46.4569 36.9632 46.5963 36.7411 46.7126C36.3937 46.8927 36.0293 47.0379 35.6534 47.1483C35.4256 47.2123 35.1864 47.2471 34.9529 47.2936C34.8903 47.3052 34.8219 47.3052 34.7593 47.311C34.4518 47.3343 34.1442 47.3052 33.8367 47.3052C33.7456 47.3052 33.6545 47.2762 33.5633 47.2645C33.4551 47.2471 33.3469 47.2181 33.2387 47.1948C33.0508 47.1541 32.8686 47.096 32.6863 47.0438C32.4699 46.9798 32.2649 46.8752 32.0599 46.7823C31.9232 46.7184 31.8036 46.6254 31.6726 46.5557C31.5644 46.4976 31.4676 46.4279 31.3708 46.3581C31.2398 46.2535 31.1088 46.1489 30.9835 46.0444C30.807 45.8933 30.6418 45.7248 30.4881 45.5505C30.3912 45.4343 30.2887 45.3239 30.1976 45.2019C30.0382 44.9869 29.9072 44.7544 29.7819 44.522C29.6623 44.2954 29.5427 44.0688 29.463 43.8248C29.3775 43.5807 29.3206 43.3309 29.2466 43.0869C29.2181 42.9881 29.2181 42.8777 29.1953 42.7731C29.1327 42.4768 29.1156 42.1862 29.127 41.8783ZM32.3332 45.7596C32.3503 45.7306 32.3446 45.7074 32.3446 45.6841C32.3446 45.4168 32.3446 45.1496 32.3446 44.8881C32.3446 43.511 32.3446 42.1398 32.3446 40.7627C32.3446 40.7162 32.3503 40.6872 32.4073 40.6872C32.823 40.6872 33.2387 40.6872 33.6545 40.693C33.7114 40.693 33.7342 40.6814 33.7285 40.6174C33.7285 40.0771 33.7285 39.5309 33.7285 38.9905C33.7285 38.6128 33.7285 38.241 33.7285 37.8633C33.7285 37.7703 33.7285 37.7703 33.8253 37.7645C33.8766 37.7645 33.9335 37.7703 33.9848 37.7529C34.0132 37.7471 34.0531 37.7645 34.0588 37.811C34.0588 37.8691 34.0702 37.9214 34.0702 37.9737C34.0702 38.8511 34.0702 39.7284 34.0702 40.6116C34.0702 40.6697 34.0873 40.6872 34.1442 40.6814C34.56 40.6814 34.9757 40.6814 35.3914 40.6755C35.4484 40.6755 35.4655 40.6872 35.4655 40.7453C35.4655 42.3199 35.4655 43.8945 35.4655 45.4633C35.4655 45.6551 35.4655 45.8526 35.4655 46.0444C35.4655 46.0908 35.4768 46.1083 35.5281 46.0908C35.5964 46.0676 35.6648 46.056 35.7274 46.0269C35.847 45.9746 35.9723 45.9282 36.0919 45.8642C36.2286 45.7887 36.371 45.7248 36.5076 45.6434C36.6728 45.5447 36.8209 45.4343 36.9746 45.3123C37.0657 45.2425 37.1512 45.1728 37.1113 45.0333C37.1113 45.0275 37.1113 45.0217 37.1113 45.0101C37.1113 42.6918 37.117 40.3676 37.117 38.0492C37.117 37.3229 37.117 36.5966 37.117 35.8703C37.117 35.7774 37.117 35.7774 37.2081 35.7774C37.6068 35.7774 38.0111 35.7774 38.4098 35.7774C38.4781 35.7774 38.5009 35.7541 38.5009 35.6844C38.4952 35.208 38.5009 34.7257 38.5009 34.2492C38.5009 33.8135 38.5009 33.3777 38.5009 32.9419C38.5009 32.8722 38.5237 32.8547 38.5863 32.8547C38.6489 32.8605 38.7116 32.8605 38.7685 32.8547C38.8198 32.8489 38.8312 32.8722 38.8312 32.9186C38.8312 33.8251 38.8312 34.7315 38.8312 35.6437C38.8312 35.6728 38.8369 35.7018 38.8255 35.7251C38.8027 35.7774 38.8312 35.7774 38.8653 35.7774C38.9679 35.7774 39.0761 35.7774 39.1786 35.7774C39.4975 35.7774 39.8164 35.7774 40.1296 35.7774C40.1866 35.7774 40.2094 35.7948 40.2094 35.8529C40.2037 35.9284 40.2037 36.0098 40.2037 36.0853C40.2037 38.0028 40.2037 39.9144 40.2037 41.8318C40.2037 41.8551 40.2037 41.8725 40.2094 41.8957C40.2264 41.9422 40.2378 41.948 40.272 41.9132C40.3403 41.8376 40.4087 41.7679 40.477 41.6982C40.8415 41.3147 41.2117 40.9312 41.5761 40.5477C42.0261 40.0771 42.476 39.6064 42.9315 39.1358C42.9657 39.1009 42.9771 39.0603 42.9771 39.0138C42.9771 38.3165 42.9771 37.6135 42.9771 36.9162C42.9771 36.8581 42.96 36.8407 42.9031 36.8407C42.5044 36.8465 42.1058 36.8407 41.7071 36.8407C41.5989 36.8407 41.5932 36.8639 41.5932 36.7303C41.5932 34.6502 41.5932 32.5642 41.5932 30.4841C41.5932 30.4318 41.5705 30.3853 41.5761 30.333C41.6046 30.1645 41.5875 29.9902 41.5875 29.8217C41.5875 29.7055 41.5818 29.7055 41.4736 29.7113C41.4566 29.7113 41.4338 29.7113 41.4167 29.7113C41.2971 29.7229 41.1775 29.7229 41.0579 29.7462C40.7959 29.7985 40.534 29.8682 40.2777 29.967C39.9816 30.0774 39.7025 30.2226 39.4462 30.4027C39.1273 30.6235 38.8483 30.9024 38.5749 31.1813C38.3414 31.4196 38.1193 31.6578 37.8858 31.896C37.789 31.9948 37.6922 32.0878 37.6011 32.1865C37.3163 32.4887 37.0316 32.7966 36.7468 33.1046C36.6785 33.1801 36.6101 33.2673 36.5361 33.337C36.3823 33.4881 36.24 33.645 36.0862 33.796C35.6705 34.2144 35.2547 34.6385 34.8618 35.0801C34.6283 35.3416 34.3834 35.5856 34.1385 35.8355C33.7285 36.2596 33.3071 36.678 32.9027 37.108C32.4927 37.5437 32.0883 37.9795 31.6726 38.4095C31.3765 38.7174 31.0746 39.0196 30.8468 39.3914C30.6817 39.6529 30.5336 39.926 30.4197 40.2165C30.2717 40.5942 30.1805 40.9835 30.1407 41.3844C30.0951 41.8318 30.1008 42.2792 30.1919 42.7208C30.2546 43.0229 30.34 43.3193 30.4482 43.6098C30.5051 43.7667 30.5906 43.9119 30.6703 44.0572C31.0746 44.7893 31.6214 45.3529 32.3332 45.7596ZM44.6799 30.9315C44.6742 30.9664 44.6742 30.9838 44.6742 31.0012C44.6742 31.9309 44.6742 32.8547 44.6742 33.7844C44.6742 34.778 44.6742 35.7716 44.6742 36.7709C44.6742 36.8349 44.6628 36.8639 44.5888 36.8639C44.1787 36.8581 43.7744 36.8639 43.3644 36.8639C43.3017 36.8639 43.2846 36.8872 43.2846 36.9453C43.2846 37.5147 43.2846 38.0899 43.2846 38.6593C43.2846 38.6884 43.2846 38.7174 43.2846 38.7465C43.4327 38.6012 43.5751 38.4618 43.7175 38.3165C43.9509 38.0725 44.1844 37.8284 44.4179 37.5844C44.7027 37.2881 44.9931 36.9976 45.2209 36.6489C45.6708 35.9633 45.91 35.2021 45.9613 34.3829C45.9897 33.9122 45.9385 33.4474 45.8246 32.9884C45.705 32.5061 45.5114 32.0587 45.238 31.6462C45.0842 31.3847 44.8906 31.1697 44.6799 30.9315Z" fill="url(#paint6_linear_637_2950)"/>
</g>
<g filter="url(#filter4_d_637_2950)">
<path d="M28.308 44.3272C28.2456 44.3041 28.2115 44.258 28.1831 44.2176C28.0809 44.0791 27.956 43.9579 27.8425 43.8309C27.7062 43.6751 27.5643 43.5193 27.4166 43.3693C27.1328 43.075 26.8489 42.7807 26.565 42.4864C26.4004 42.3132 26.2357 42.1459 26.0711 41.9785C25.9348 41.84 25.8099 41.69 25.6736 41.5573C25.6112 41.4938 25.5544 41.4188 25.4749 41.3668C25.4068 41.3265 25.3841 41.2399 25.3216 41.1822C25.1399 41.0148 24.981 40.8302 24.7993 40.6628C24.6573 40.5301 24.5438 40.3627 24.4019 40.23C24.311 40.1492 24.2315 40.0511 24.135 39.9761C24.0896 39.9473 24.0726 39.8838 24.0328 39.8434C23.8454 39.6587 23.6581 39.4798 23.4821 39.2836C23.2436 39.0124 22.9825 38.7643 22.744 38.493C22.568 38.2968 22.375 38.1122 22.1933 37.9217C21.9264 37.639 21.6823 37.3331 21.4722 37.0042C21.37 36.8426 21.2905 36.6695 21.1997 36.5022C21.1145 36.3463 21.0634 36.179 20.9953 36.0232C20.9045 35.827 20.8761 35.6192 20.8136 35.4173C20.7739 35.2788 20.7569 35.1345 20.7285 34.996C20.6603 34.6094 20.6774 34.2227 20.666 33.8303C20.666 33.7264 20.6774 33.6226 20.6717 33.5187C20.6717 33.4379 20.7058 33.3514 20.7171 33.2648C20.7285 33.2129 20.7228 33.1551 20.7285 33.1032C20.7398 33.0167 20.7682 32.9359 20.7909 32.8493C20.8591 32.555 20.9499 32.2722 21.0578 31.9895C21.1202 31.8221 21.1827 31.649 21.2792 31.499C21.4041 31.3028 21.5176 31.095 21.6539 30.9103C21.7902 30.7199 21.9264 30.5295 22.0911 30.3621C22.233 30.2121 22.3806 30.0678 22.5396 29.9293C22.7951 29.6985 23.0733 29.4965 23.3742 29.3292C23.5559 29.2311 23.7433 29.1387 23.9306 29.0522C24.0669 28.9887 24.2031 28.9368 24.3508 28.9021C24.4643 28.8733 24.5665 28.8214 24.6857 28.8098C24.8674 28.7925 25.0377 28.7463 25.2137 28.7175C25.4692 28.6829 25.7247 28.6829 25.9802 28.6829C26.0824 28.6829 26.1846 28.6829 26.2811 28.6886C26.3833 28.6944 26.4855 28.7117 26.5877 28.729C26.7297 28.7521 26.8716 28.8098 27.0192 28.8156C27.1498 28.8214 27.2577 28.8906 27.3769 28.9195C27.604 28.9714 27.8084 29.081 28.0185 29.1734C28.2739 29.2888 28.5067 29.4331 28.7338 29.5946C28.8985 29.71 29.0688 29.8255 29.2221 29.964C29.33 30.0621 29.4322 30.1659 29.5287 30.2698C29.8466 30.5987 30.1646 30.9277 30.4825 31.2566C30.8289 31.6201 31.1752 31.9895 31.5272 32.3473C31.9587 32.7858 32.3731 33.2475 32.8103 33.6803C32.8274 33.6976 32.8444 33.7149 32.8614 33.7322C32.8841 33.7553 32.8785 33.7784 32.8557 33.8015C32.6968 33.963 32.5435 34.1189 32.3845 34.2804C32.3334 34.3381 32.271 34.3901 32.2255 34.4478C32.1858 34.4939 32.1574 34.4709 32.129 34.4478C32.0041 34.3208 31.8678 34.1996 31.76 34.0554C31.6464 33.9111 31.4988 33.8072 31.3966 33.6572C31.3512 33.5937 31.2831 33.5476 31.232 33.4899C31.0162 33.2648 30.8061 33.0282 30.5847 32.8147C30.386 32.6185 30.1986 32.405 29.9999 32.203C29.8637 32.0645 29.716 31.9375 29.5911 31.7875C29.4208 31.5798 29.2278 31.4009 29.0461 31.2047C28.8474 30.9911 28.6487 30.7776 28.4159 30.5987C28.2796 30.4949 28.1377 30.391 27.9844 30.3044C27.8595 30.2294 27.7289 30.1659 27.604 30.0967C27.4848 30.0332 27.3599 29.9813 27.2293 29.9409C27.1214 29.9062 27.0079 29.8659 26.8943 29.837C26.7183 29.7908 26.5423 29.762 26.3663 29.7331C26.2754 29.7158 26.1846 29.7216 26.0938 29.7158C26.037 29.71 26.0256 29.7331 26.0256 29.7851C26.0256 29.964 26.0256 30.1428 26.0256 30.316C26.0256 30.8757 26.0256 31.4355 26.0256 31.9952C26.0256 33.3398 26.0313 34.6902 26.0256 36.0347C26.0256 36.2656 26.037 36.4964 26.0313 36.733C26.0313 36.7791 26.0256 36.808 25.9632 36.808C25.5544 36.808 25.1456 36.808 24.7368 36.808C24.6687 36.808 24.6517 36.8311 24.6517 36.9176C24.6517 37.5351 24.6517 38.1468 24.6517 38.7643C24.6517 38.8393 24.6573 38.9143 24.646 38.9893C24.6403 39.0182 24.6517 39.0355 24.6687 39.0586C25.0548 39.4567 25.4408 39.8549 25.8269 40.2589C26.2471 40.6974 26.6672 41.136 27.0873 41.5746C27.1895 41.6785 27.2974 41.7766 27.4053 41.8804C27.4053 41.7073 27.4053 41.5284 27.4053 41.3495C27.4053 39.5087 27.4053 37.6736 27.4053 35.8327C27.4053 35.7693 27.428 35.752 27.4848 35.752C27.8936 35.752 28.3023 35.752 28.7111 35.752C28.7793 35.752 28.7906 35.7289 28.7906 35.6654C28.7906 34.7594 28.7906 33.8592 28.7906 32.9532C28.7906 32.8493 28.7906 32.8493 28.8928 32.8493C28.9382 32.8493 28.9893 32.8551 29.0347 32.8493C29.0972 32.8435 29.1199 32.8666 29.1199 32.9359C29.1199 33.2648 29.1199 33.5937 29.1199 33.9227C29.1199 34.5113 29.1199 35.0941 29.1199 35.6827C29.1199 35.7462 29.1426 35.7693 29.1994 35.7462C29.2391 35.7289 29.2789 35.752 29.3129 35.752C29.682 35.752 30.0453 35.752 30.4144 35.752C30.4768 35.752 30.5109 35.7693 30.4939 35.8385C30.4712 35.9712 30.4825 36.104 30.4825 36.2309C30.4825 36.2656 30.4712 36.2886 30.4485 36.3117C30.3179 36.4387 30.2043 36.5714 30.0737 36.6984C29.9318 36.8426 29.7899 36.9869 29.6479 37.1369C29.4889 37.2985 29.347 37.4716 29.2107 37.6505C29.1142 37.7775 29.0234 37.9044 28.9382 38.0372C28.7906 38.2622 28.6487 38.493 28.5351 38.7412C28.4272 38.972 28.325 39.2086 28.2399 39.451C28.1661 39.6645 28.0866 39.8722 28.0412 40.0915C28.0014 40.2877 27.9503 40.4782 27.9219 40.6744C27.9049 40.8071 27.8936 40.9398 27.8765 41.0725C27.8538 41.2514 27.8481 41.4246 27.8368 41.6034C27.8254 41.7708 27.8197 41.9381 27.8425 42.1055C27.8538 42.1863 27.8481 42.2728 27.8538 42.3536C27.8708 42.5152 27.8879 42.6768 27.9106 42.8326C27.9503 43.1211 28.0241 43.4039 28.0979 43.6809C28.1377 43.8309 28.1831 43.9752 28.2456 44.1137C28.2626 44.1829 28.2967 44.2464 28.308 44.3272ZM24.294 38.6431C24.294 38.6315 24.2997 38.6258 24.2997 38.62C24.2997 38.0545 24.2997 37.4889 24.2997 36.9234C24.2997 36.7791 24.2997 36.7849 24.1634 36.7907C23.7716 36.808 23.3856 36.7965 22.9938 36.7965C22.9427 36.7965 22.92 36.7791 22.92 36.7214C22.92 34.8344 22.92 32.9416 22.92 31.0546C22.92 31.02 22.937 30.9681 22.9087 30.9565C22.8803 30.945 22.8632 30.9969 22.8405 31.02C22.585 31.2681 22.3863 31.5624 22.2103 31.8683C21.9719 32.2895 21.8186 32.7397 21.722 33.2129C21.6312 33.6572 21.6255 34.1073 21.6596 34.5574C21.6766 34.7767 21.7277 34.9902 21.7731 35.2037C21.8867 35.6827 22.0911 36.1271 22.3579 36.5368C22.5794 36.883 22.8576 37.1773 23.1471 37.4716C23.3061 37.639 23.4651 37.8063 23.624 37.9737C23.8171 38.1699 24.0101 38.3661 24.1975 38.5681C24.2258 38.5969 24.2542 38.6258 24.294 38.6431Z" fill="url(#paint7_linear_637_2950)"/>
</g>
<g filter="url(#filter5_d_637_2950)">
<path d="M13.0181 55.1114C13.0181 55.1114 22.3501 58.1909 33.6768 58.1909C45.0034 58.1909 54.4779 55.1114 54.4779 55.1114V44.4511C54.4779 44.4511 42.0303 48.6076 33.6768 48.5968C25.3773 48.586 13.0181 44.4511 13.0181 44.4511V55.1114Z" fill="url(#paint8_linear_637_2950)"/>
</g>
<g filter="url(#filter6_d_637_2950)">
<path d="M34.6482 21.5034C34.3403 22.0441 33.5704 22.0441 33.2625 21.5034L31.5962 18.5772C31.2883 18.0364 31.6732 17.3605 32.289 17.3605L35.6217 17.3605C36.2375 17.3605 36.6224 18.0364 36.3145 18.5772L34.6482 21.5034Z" fill="url(#paint9_linear_637_2950)"/>
</g>
<g filter="url(#filter7_d_637_2950)">
<path d="M34.6482 65.2204C34.3403 65.7612 33.5704 65.7612 33.2625 65.2204L31.5962 62.2942C31.2883 61.7535 31.6732 61.0775 32.289 61.0775L35.6217 61.0775C36.2375 61.0775 36.6224 61.7535 36.3145 62.2942L34.6482 65.2204Z" fill="url(#paint10_linear_637_2950)"/>
</g>
<g filter="url(#filter8_d_637_2950)">
<path d="M55.2641 30.5469C55.6192 31.057 55.2966 31.7656 54.6833 31.8224L51.3645 32.1298C50.7512 32.1866 50.3073 31.549 50.5654 30.9821L51.9622 27.9143C52.2204 27.3474 52.987 27.2764 53.3421 27.7865L55.2641 30.5469Z" fill="url(#paint11_linear_637_2950)"/>
</g>
<g filter="url(#filter9_d_637_2950)">
<path d="M17.7397 30.5469C18.0948 31.057 17.7722 31.7656 17.1589 31.8224L13.8401 32.1298C13.2268 32.1866 12.7828 31.549 13.041 30.9821L14.4378 27.9143C14.6959 27.3474 15.4626 27.2764 15.8177 27.7865L17.7397 30.5469Z" fill="url(#paint12_linear_637_2950)"/>
</g>
</g>
<path d="M36.1787 51.3042H37.346V55.2493H36.1787V51.3042Z" fill="#D2F0F2"/>
<path d="M33.1093 55.0356L31.3926 51.5046H32.1836L33.7152 54.6977H33.2608L34.8092 51.5046H35.5386L33.8274 55.0356H33.1093Z" fill="#D2F0F2"/>
<path fill-rule="evenodd" clip-rule="evenodd" d="M31.0708 51.3018H32.3085L33.49 53.7649L34.6845 51.3018H35.8595L33.9518 55.2383H32.9847L31.0708 51.3018ZM33.2664 54.226L32.0583 51.7073H31.7139L33.1027 54.5636L33.2664 54.226ZM33.8532 54.522L33.7117 54.2269L34.9336 51.7073H35.2173L33.8532 54.522Z" fill="#D2F0F2"/>
<defs>
<filter id="filter0_d_637_2950" x="-6.79824" y="0.349951" width="82.1614" height="78.7889" filterUnits="userSpaceOnUse" color-interpolation-filters="sRGB">
<feFlood flood-opacity="0" result="BackgroundImageFix"/>
<feColorMatrix in="SourceAlpha" type="matrix" values="0 0 0 0 0 0 0 0 0 0 0 0 0 0 0 0 0 0 127 0" result="hardAlpha"/>
<feOffset/>
<feGaussianBlur stdDeviation="5.3"/>
<feComposite in2="hardAlpha" operator="out"/>
<feColorMatrix type="matrix" values="0 0 0 0 0.231875 0 0 0 0 0.6625 0 0 0 0 0.347221 0 0 0 0.25 0"/>
<feBlend mode="normal" in2="BackgroundImageFix" result="effect1_dropShadow_637_2950"/>
<feBlend mode="normal" in="SourceGraphic" in2="effect1_dropShadow_637_2950" result="shape"/>
</filter>
<filter id="filter1_d_637_2950" x="2.52793" y="1.84995" width="63.8162" height="67.7889" filterUnits="userSpaceOnUse" color-interpolation-filters="sRGB">
<feFlood flood-opacity="0" result="BackgroundImageFix"/>
<feColorMatrix in="SourceAlpha" type="matrix" values="0 0 0 0 0 0 0 0 0 0 0 0 0 0 0 0 0 0 127 0" result="hardAlpha"/>
<feOffset dy="-4"/>
<feGaussianBlur stdDeviation="2.55"/>
<feComposite in2="hardAlpha" operator="out"/>
<feColorMatrix type="matrix" values="0 0 0 0 0 0 0 0 0 0 0 0 0 0 0 0 0 0 0.25 0"/>
<feBlend mode="normal" in2="BackgroundImageFix" result="effect1_dropShadow_637_2950"/>
<feBlend mode="normal" in="SourceGraphic" in2="effect1_dropShadow_637_2950" result="shape"/>
</filter>
<filter id="filter2_i_637_2950" x="14.3599" y="20.2117" width="40.7764" height="42.835" filterUnits="userSpaceOnUse" color-interpolation-filters="sRGB">
<feFlood flood-opacity="0" result="BackgroundImageFix"/>
<feBlend mode="normal" in="SourceGraphic" in2="BackgroundImageFix" result="shape"/>
<feColorMatrix in="SourceAlpha" type="matrix" values="0 0 0 0 0 0 0 0 0 0 0 0 0 0 0 0 0 0 127 0" result="hardAlpha"/>
<feOffset dx="2" dy="1"/>
<feGaussianBlur stdDeviation="1"/>
<feComposite in2="hardAlpha" operator="arithmetic" k2="-1" k3="1"/>
<feColorMatrix type="matrix" values="0 0 0 0 0 0 0 0 0 0 0 0 0 0 0 0 0 0 0.25 0"/>
<feBlend mode="normal" in2="shape" result="effect1_innerShadow_637_2950"/>
</filter>
<filter id="filter3_d_637_2950" x="28.5191" y="28.6829" width="21.0452" height="22.2372" filterUnits="userSpaceOnUse" color-interpolation-filters="sRGB">
<feFlood flood-opacity="0" result="BackgroundImageFix"/>
<feColorMatrix in="SourceAlpha" type="matrix" values="0 0 0 0 0 0 0 0 0 0 0 0 0 0 0 0 0 0 127 0" result="hardAlpha"/>
<feOffset dx="1" dy="2"/>
<feGaussianBlur stdDeviation="0.8"/>
<feComposite in2="hardAlpha" operator="out"/>
<feColorMatrix type="matrix" values="0 0 0 0 0 0 0 0 0 0 0 0 0 0 0 0 0 0 0.25 0"/>
<feBlend mode="normal" in2="BackgroundImageFix" result="effect1_dropShadow_637_2950"/>
<feBlend mode="normal" in="SourceGraphic" in2="effect1_dropShadow_637_2950" result="shape"/>
</filter>
<filter id="filter4_d_637_2950" x="20.066" y="28.6829" width="15.41" height="19.2443" filterUnits="userSpaceOnUse" color-interpolation-filters="sRGB">
<feFlood flood-opacity="0" result="BackgroundImageFix"/>
<feColorMatrix in="SourceAlpha" type="matrix" values="0 0 0 0 0 0 0 0 0 0 0 0 0 0 0 0 0 0 127 0" result="hardAlpha"/>
<feOffset dx="1" dy="2"/>
<feGaussianBlur stdDeviation="0.8"/>
<feComposite in2="hardAlpha" operator="out"/>
<feColorMatrix type="matrix" values="0 0 0 0 0 0 0 0 0 0 0 0 0 0 0 0 0 0 0.25 0"/>
<feBlend mode="normal" in2="BackgroundImageFix" result="effect1_dropShadow_637_2950"/>
<feBlend mode="normal" in="SourceGraphic" in2="effect1_dropShadow_637_2950" result="shape"/>
</filter>
<filter id="filter5_d_637_2950" x="13.0181" y="44.1512" width="44.76" height="16.3397" filterUnits="userSpaceOnUse" color-interpolation-filters="sRGB">
<feFlood flood-opacity="0" result="BackgroundImageFix"/>
<feColorMatrix in="SourceAlpha" type="matrix" values="0 0 0 0 0 0 0 0 0 0 0 0 0 0 0 0 0 0 127 0" result="hardAlpha"/>
<feOffset dx="2" dy="1"/>
<feGaussianBlur stdDeviation="0.65"/>
<feComposite in2="hardAlpha" operator="out"/>
<feColorMatrix type="matrix" values="0 0 0 0 0 0 0 0 0 0 0 0 0 0 0 0 0 0 0.25 0"/>
<feBlend mode="normal" in2="BackgroundImageFix" result="effect1_dropShadow_637_2950"/>
<feBlend mode="normal" in="SourceGraphic" in2="effect1_dropShadow_637_2950" result="shape"/>
</filter>
<filter id="filter6_d_637_2950" x="25.1878" y="11.0606" width="17.5351" height="17.1483" filterUnits="userSpaceOnUse" color-interpolation-filters="sRGB">
<feFlood flood-opacity="0" result="BackgroundImageFix"/>
<feColorMatrix in="SourceAlpha" type="matrix" values="0 0 0 0 0 0 0 0 0 0 0 0 0 0 0 0 0 0 127 0" result="hardAlpha"/>
<feOffset/>
<feGaussianBlur stdDeviation="3.15"/>
<feComposite in2="hardAlpha" operator="out"/>
<feColorMatrix type="matrix" values="0 0 0 0 1 0 0 0 0 1 0 0 0 0 1 0 0 0 0.25 0"/>
<feBlend mode="normal" in2="BackgroundImageFix" result="effect1_dropShadow_637_2950"/>
<feBlend mode="normal" in="SourceGraphic" in2="effect1_dropShadow_637_2950" result="shape"/>
</filter>
<filter id="filter7_d_637_2950" x="25.1878" y="54.7776" width="17.5351" height="17.1483" filterUnits="userSpaceOnUse" color-interpolation-filters="sRGB">
<feFlood flood-opacity="0" result="BackgroundImageFix"/>
<feColorMatrix in="SourceAlpha" type="matrix" values="0 0 0 0 0 0 0 0 0 0 0 0 0 0 0 0 0 0 127 0" result="hardAlpha"/>
<feOffset/>
<feGaussianBlur stdDeviation="3.15"/>
<feComposite in2="hardAlpha" operator="out"/>
<feColorMatrix type="matrix" values="0 0 0 0 1 0 0 0 0 1 0 0 0 0 1 0 0 0 0.25 0"/>
<feBlend mode="normal" in2="BackgroundImageFix" result="effect1_dropShadow_637_2950"/>
<feBlend mode="normal" in="SourceGraphic" in2="effect1_dropShadow_637_2950" result="shape"/>
</filter>
<filter id="filter8_d_637_2950" x="44.1907" y="21.1431" width="17.5209" height="17.2902" filterUnits="userSpaceOnUse" color-interpolation-filters="sRGB">
<feFlood flood-opacity="0" result="BackgroundImageFix"/>
<feColorMatrix in="SourceAlpha" type="matrix" values="0 0 0 0 0 0 0 0 0 0 0 0 0 0 0 0 0 0 127 0" result="hardAlpha"/>
<feOffset/>
<feGaussianBlur stdDeviation="3.15"/>
<feComposite in2="hardAlpha" operator="out"/>
<feColorMatrix type="matrix" values="0 0 0 0 1 0 0 0 0 1 0 0 0 0 1 0 0 0 0.25 0"/>
<feBlend mode="normal" in2="BackgroundImageFix" result="effect1_dropShadow_637_2950"/>
<feBlend mode="normal" in="SourceGraphic" in2="effect1_dropShadow_637_2950" result="shape"/>
</filter>
<filter id="filter9_d_637_2950" x="6.66631" y="21.1431" width="17.5209" height="17.2902" filterUnits="userSpaceOnUse" color-interpolation-filters="sRGB">
<feFlood flood-opacity="0" result="BackgroundImageFix"/>
<feColorMatrix in="SourceAlpha" type="matrix" values="0 0 0 0 0 0 0 0 0 0 0 0 0 0 0 0 0 0 127 0" result="hardAlpha"/>
<feOffset/>
<feGaussianBlur stdDeviation="3.15"/>
<feComposite in2="hardAlpha" operator="out"/>
<feColorMatrix type="matrix" values="0 0 0 0 1 0 0 0 0 1 0 0 0 0 1 0 0 0 0.25 0"/>
<feBlend mode="normal" in2="BackgroundImageFix" result="effect1_dropShadow_637_2950"/>
<feBlend mode="normal" in="SourceGraphic" in2="effect1_dropShadow_637_2950" result="shape"/>
</filter>
<linearGradient id="paint0_linear_637_2950" x1="40.0988" y1="11.7904" x2="36.6975" y2="22.6933" gradientUnits="userSpaceOnUse">
<stop stop-color="#08542B"/>
<stop offset="1" stop-color="#04340A"/>
</linearGradient>
<linearGradient id="paint1_linear_637_2950" x1="35.9338" y1="15.9334" x2="30.4544" y2="29.1184" gradientUnits="userSpaceOnUse">
<stop stop-color="#77C86A"/>
<stop offset="1" stop-color="#207316"/>
</linearGradient>
<linearGradient id="paint2_linear_637_2950" x1="69.1209" y1="23.7705" x2="59.359" y2="21.1074" gradientUnits="userSpaceOnUse">
<stop stop-color="#0D744F"/>
<stop offset="1" stop-color="#04370B"/>
</linearGradient>
<linearGradient id="paint3_linear_637_2950" x1="6.93109" y1="20.6178" x2="12.4562" y2="36.9659" gradientUnits="userSpaceOnUse">
<stop stop-color="#6AC879"/>
<stop offset="1" stop-color="#217616"/>
</linearGradient>
<linearGradient id="paint4_linear_637_2950" x1="22.8953" y1="17.2552" x2="47.1848" y2="19.5754" gradientUnits="userSpaceOnUse">
<stop stop-color="#77C86A"/>
<stop offset="1" stop-color="#07462F"/>
</linearGradient>
<linearGradient id="paint5_linear_637_2950" x1="23.5978" y1="19.0236" x2="46.8274" y2="20.2646" gradientUnits="userSpaceOnUse">
<stop stop-color="#71C86A"/>
<stop offset="1" stop-color="#0D6143"/>
</linearGradient>
<linearGradient id="paint6_linear_637_2950" x1="33.3705" y1="28.6829" x2="44.0567" y2="29.2927" gradientUnits="userSpaceOnUse">
<stop stop-color="#E0F2D2"/>
<stop offset="1" stop-color="#1B9A2E"/>
</linearGradient>
<linearGradient id="paint7_linear_637_2950" x1="23.5748" y1="28.6829" x2="29.3639" y2="16.8378" gradientUnits="userSpaceOnUse">
<stop stop-color="#D2F2DB"/>
<stop offset="0.9999" stop-color="#1C6A8B"/>
<stop offset="1" stop-color="#1A6889"/>
<stop offset="1" stop-color="#216F91"/>
<stop offset="1" stop-color="#0A8593"/>
</linearGradient>
<linearGradient id="paint8_linear_637_2950" x1="33.88" y1="59.0813" x2="34.2954" y2="49.1488" gradientUnits="userSpaceOnUse">
<stop stop-color="#299860"/>
<stop offset="0.994792" stop-color="#57BF6A"/>
</linearGradient>
<linearGradient id="paint9_linear_637_2950" x1="35.8003" y1="22.72" x2="31.5805" y2="22.472" gradientUnits="userSpaceOnUse">
<stop offset="0.0001" stop-color="#279F38"/>
<stop offset="1" stop-color="#C1E4B8"/>
</linearGradient>
<linearGradient id="paint10_linear_637_2950" x1="35.8003" y1="66.4371" x2="31.5805" y2="66.189" gradientUnits="userSpaceOnUse">
<stop offset="0.0001" stop-color="#C0E3B7"/>
<stop offset="1" stop-color="#38A646"/>
</linearGradient>
<linearGradient id="paint11_linear_637_2950" x1="55.0612" y1="24.8325" x2="57.2726" y2="29.5879" gradientUnits="userSpaceOnUse">
<stop stop-color="#D4ECC8"/>
<stop offset="1" stop-color="#1E9B31"/>
</linearGradient>
<linearGradient id="paint12_linear_637_2950" x1="17.5368" y1="24.8325" x2="19.7482" y2="29.5879" gradientUnits="userSpaceOnUse">
<stop stop-color="#E0F2D2"/>
<stop offset="1" stop-color="#279F38"/>
</linearGradient>
</defs>
</svg>
