<svg width="90" height="86" viewBox="0 0 90 86" fill="none" xmlns="http://www.w3.org/2000/svg">
<g filter="url(#filter0_d_622_5356)">
<path d="M51.4606 19.1726C51.5075 19.5036 46.0723 27.253 41.5002 34.3103C38.4264 34.0209 34.1179 33.9326 35.6109 31.8899C38.2502 28.2789 41.7387 24.6967 44.1749 20.7087L51.1055 11.1373C51.1405 12.3334 51.371 18.5397 51.4606 19.1726Z" fill="url(#paint0_linear_622_5356)"/>
<path d="M56.4813 73.8205C56.1475 73.8412 48.8496 67.8134 42.1736 62.7005C42.7038 59.6591 43.1306 55.3708 45.0496 57.0198C48.4419 59.9349 51.7387 63.6943 55.5228 66.4366L64.5195 74.0983C63.3244 74.0391 57.1192 73.7809 56.4813 73.8205Z" fill="url(#paint1_linear_622_5356)"/>
<path d="M36.4179 19.3066C36.3772 19.6385 41.9543 27.2864 46.6557 34.2583C49.7235 33.9123 54.0297 33.7446 52.4993 31.7298C49.7939 28.168 46.24 24.6507 43.7307 20.7083L36.625 11.2662C36.612 12.4627 36.4959 18.6723 36.4179 19.3066Z" fill="url(#paint2_linear_622_5356)"/>
<path d="M33.4037 74.2697C33.7372 74.2934 41.0883 68.3305 47.8094 63.2771C47.3062 60.231 46.9174 55.9391 44.9839 57.5711C41.5659 60.456 38.2359 64.186 34.4276 66.8946L25.3633 74.4762C26.5589 74.4277 32.7662 74.2245 33.4037 74.2697Z" fill="url(#paint3_linear_622_5356)"/>
<path d="M32.5738 20.8566C32.6039 21.0885 39.3902 26.8404 45.2187 32.06C48.0161 32.0078 52.0081 32.1591 50.1631 30.6399C46.9016 27.9543 42.8558 25.247 39.6995 22.3048L31.1152 15.1896C31.349 16.034 32.5164 20.4133 32.5738 20.8566Z" fill="url(#paint4_linear_622_5356)"/>
<path d="M55.4557 20.5673C55.4344 20.8002 48.8682 26.8022 43.2391 32.2363C40.4417 32.2888 36.4582 32.5895 38.245 31.0023C41.4037 28.1965 45.3453 25.3396 48.3893 22.2813L56.7012 14.8497C56.4992 15.7023 55.4966 20.1222 55.4557 20.5673Z" fill="url(#paint5_linear_622_5356)"/>
<path d="M78.197 28.2239C77.7315 28.7027 69.5215 39.3965 63.5245 45.38C61.3019 42.9874 58.0724 40.0381 59.9366 38.4179C63.2321 35.5538 67.1601 33.2855 70.4373 29.8073L79.123 22.1727C78.5989 23.802 78.4233 27.9911 78.197 28.2239Z" fill="url(#paint6_linear_622_5356)"/>
<path d="M78.197 22.1715C77.7315 22.6503 69.5215 33.3441 63.5245 39.3276C61.3019 36.935 58.0724 33.9857 59.9366 32.3655C63.2321 29.5014 67.1601 27.2332 70.4373 23.7549L79.123 16.1204C78.5989 17.7496 78.4233 21.9387 78.197 22.1715Z" fill="url(#paint7_linear_622_5356)"/>
<path d="M75.4041 44.516C74.9386 44.9948 66.7286 55.6886 60.7315 61.6721C58.509 59.2795 55.2794 56.3302 57.1436 54.71C60.4392 51.8459 64.3671 49.5777 67.6444 46.0994L76.3301 38.4648C75.8059 40.0941 75.6303 44.2832 75.4041 44.516Z" fill="url(#paint8_linear_622_5356)"/>
<path d="M77.2664 35.6714C76.8009 36.1502 68.5909 46.844 62.5938 52.8275C60.3713 50.4349 57.1417 47.4856 59.006 45.8654C62.3015 43.0013 66.2294 40.7331 69.5067 37.2548L78.1924 29.6202C77.6682 31.2495 77.4926 35.4386 77.2664 35.6714Z" fill="url(#paint9_linear_622_5356)"/>
<path d="M12.3273 27.7582C12.7928 28.237 20.2773 38.9308 26.2743 44.9143C28.4969 42.5217 31.7264 39.5724 29.8622 37.9522C26.5667 35.0881 22.6387 32.8198 19.3615 29.3416L10.6758 21.707C11.1999 23.3363 12.1011 27.5254 12.3273 27.7582Z" fill="url(#paint10_linear_622_5356)"/>
<path d="M12.3273 22.1715C12.7928 22.6503 20.2773 33.3441 26.2743 39.3276C28.4969 36.935 31.7264 33.9857 29.8622 32.3655C26.5667 29.5014 22.6387 27.2332 19.3615 23.7549L10.6758 16.1204C11.1999 17.7496 12.1011 21.9387 12.3273 22.1715Z" fill="url(#paint11_linear_622_5356)"/>
<path d="M15.1213 42.6539C15.5868 43.1328 23.0712 53.8265 29.0683 59.81C31.2908 57.4174 34.5204 54.4681 32.6562 52.8479C29.3606 49.9838 25.4327 47.7156 22.1554 44.2374L13.4697 36.6028C13.9939 38.2321 14.895 42.4212 15.1213 42.6539Z" fill="url(#paint12_linear_622_5356)"/>
<path d="M13.2599 34.7403C13.7255 35.2192 21.2099 45.9129 27.207 51.8964C29.4295 49.5038 32.6591 46.5546 30.7948 44.9344C27.4993 42.0703 23.5714 39.802 20.2941 36.3238L11.6084 28.6892C12.1325 30.3185 13.0337 34.5076 13.2599 34.7403Z" fill="url(#paint13_linear_622_5356)"/>
<g filter="url(#filter1_d_622_5356)">
<path d="M67.5753 51.4855V35.4391L75.1725 25.4307L70.051 27.06L65.0146 28.922L48.3765 19.9916L48.1747 18.9702C47.7142 16.6384 46.706 14.4493 45.2334 12.5835L43.9836 11L42.8429 12.9697C41.9042 14.5904 41.2774 16.3726 40.9948 18.2242L40.7251 19.9916L23.3518 28.922L19.7764 27.5255L14.9727 25.4307L21.0247 35.4391V51.3901C21.0247 58.0257 25.3846 63.8729 31.7443 65.7664L36.8546 67.2879C38.4089 67.7507 39.6479 68.9293 40.1877 70.4587C40.5373 71.4492 41.186 72.3067 42.0442 72.9125L44.6819 74.7743L47.126 72.9266C47.942 72.3097 48.5611 71.4689 48.9079 70.5066C49.471 68.9441 50.737 67.7379 52.3249 67.251L56.9732 65.8257C63.2738 63.8937 67.5753 58.0756 67.5753 51.4855Z" fill="url(#paint14_linear_622_5356)"/>
</g>
<g filter="url(#filter2_i_622_5356)">
<path d="M36.3585 25.2679L29.3956 29.7623C25.1156 32.5249 22.5303 37.2709 22.5303 42.365V50.3113C22.5303 57.0487 27.0224 62.9595 33.5138 64.7635L40.5361 66.7152C43.2007 67.4557 46.0182 67.4452 48.6772 66.6847L55.1925 64.8214C61.6301 62.9802 66.0679 57.0953 66.0679 50.3996V42.2377C66.0679 37.2135 63.5525 32.5229 59.3674 29.743L52.7927 25.3758C47.8235 22.0751 41.3707 22.0327 36.3585 25.2679Z" fill="url(#paint15_linear_622_5356)"/>
</g>
<g filter="url(#filter3_d_622_5356)">
<path d="M39.1113 45.2504C39.0921 45.0767 39.1113 44.8901 39.1049 44.6971C39.1049 44.6005 39.1241 44.4911 39.1561 44.3882C39.1817 44.2917 39.1817 44.1887 39.2008 44.0986C39.2392 43.9249 39.2904 43.7576 39.3287 43.5839C39.3927 43.3008 39.5142 43.037 39.6229 42.7667C39.7316 42.49 39.885 42.2326 40.0385 41.9753C40.1856 41.7243 40.3646 41.4991 40.5564 41.2739C40.825 40.9715 41.1127 40.6819 41.3877 40.3859C41.5795 40.18 41.7777 39.987 41.9695 39.7875C42.3404 39.4143 42.7177 39.0411 43.0757 38.6551C43.4594 38.2497 43.8495 37.8572 44.2395 37.4518C44.4121 37.2717 44.604 37.1044 44.7702 36.9113C45.0452 36.5896 45.3585 36.3065 45.6526 36.0041C45.8189 35.8368 45.9851 35.6695 46.145 35.4957C46.5286 35.0775 46.9507 34.6979 47.3343 34.2732C47.654 33.9193 48.0057 33.5911 48.3318 33.2437C48.5812 32.9798 48.8306 32.7225 49.0735 32.4651C49.2845 32.2463 49.5147 32.0597 49.7449 31.8667C49.9751 31.6736 50.2245 31.5192 50.4803 31.3648C50.7552 31.2039 51.0557 31.0752 51.3563 30.9659C51.4906 30.9208 51.6184 30.8565 51.7527 30.8307C51.8678 30.8114 51.9765 30.7728 52.0916 30.76C52.2707 30.7406 52.4433 30.702 52.6223 30.6763C52.8909 30.6377 53.1658 30.6377 53.4344 30.6377C53.7797 30.6377 54.1186 30.6892 54.4511 30.7535C54.822 30.8243 55.18 30.9272 55.5189 31.0817C55.8514 31.2297 56.1775 31.4098 56.4845 31.6157C56.8361 31.8602 57.1622 32.1369 57.4628 32.4458C57.7313 32.716 57.9487 33.0249 58.1661 33.3337C58.4411 33.7391 58.6393 34.1895 58.8056 34.6528C58.9462 35.0518 59.0358 35.4571 59.0869 35.8754C59.1125 36.1134 59.1445 36.3515 59.1381 36.596C59.1317 36.847 59.1381 37.0979 59.0997 37.3489C59.0549 37.6384 59.0166 37.9344 58.9398 38.2175C58.8439 38.565 58.7288 38.906 58.5754 39.2277C58.3132 39.8068 57.9679 40.3216 57.5395 40.7913C57.2454 41.1195 56.932 41.4348 56.6251 41.7436C56.3118 42.0525 56.0113 42.3742 55.7171 42.6959C55.5893 42.8375 55.4614 42.979 55.3143 43.1013C55.2312 43.1785 55.1545 43.2686 55.0777 43.3458C55.0202 43.4037 54.9626 43.4552 54.9051 43.5131C54.5854 43.8477 54.2593 44.1694 53.9459 44.5105C53.7733 44.6971 53.6007 44.8837 53.428 45.0638C53.1339 45.3662 52.8397 45.6687 52.5392 45.9711C52.2387 46.2735 51.9318 46.5695 51.644 46.8848C51.2476 47.3159 50.832 47.7341 50.4291 48.1652C50.1733 48.4355 49.8984 48.6929 49.6362 48.9567C49.3741 49.2205 49.1119 49.4843 48.8497 49.7481C48.7027 49.8961 48.53 50.0184 48.3702 50.1471C48.1464 50.3208 47.9098 50.4752 47.6604 50.6039C47.2704 50.8034 46.8611 50.9642 46.4391 51.0865C46.1833 51.1573 45.9148 51.1959 45.6526 51.2474C45.5823 51.2602 45.5056 51.2602 45.4352 51.2667C45.0899 51.2924 44.7446 51.2602 44.3994 51.2602C44.297 51.2602 44.1947 51.2281 44.0924 51.2152C43.9709 51.1959 43.8495 51.1637 43.728 51.138C43.517 51.0929 43.3123 51.0286 43.1077 50.9707C42.8647 50.8999 42.6345 50.7841 42.4044 50.6811C42.2509 50.6103 42.1166 50.5074 41.9695 50.4302C41.8481 50.3658 41.7394 50.2886 41.6307 50.2114C41.4836 50.0956 41.3365 49.9798 41.1958 49.8639C40.9976 49.6966 40.8122 49.51 40.6395 49.317C40.5308 49.1883 40.4157 49.0661 40.3134 48.9309C40.1344 48.6929 39.9873 48.4355 39.8467 48.1781C39.7124 47.9272 39.5781 47.6762 39.4886 47.406C39.3927 47.1357 39.3287 46.859 39.2456 46.5888C39.2136 46.4794 39.2136 46.3571 39.1881 46.2413C39.1177 45.9132 39.0985 45.5914 39.1113 45.2504ZM42.7113 49.5487C42.7305 49.5165 42.7241 49.4907 42.7241 49.465C42.7241 49.169 42.7241 48.873 42.7241 48.5835C42.7241 47.0585 42.7241 45.54 42.7241 44.015C42.7241 43.9635 42.7305 43.9313 42.7944 43.9313C43.2612 43.9313 43.728 43.9313 44.1947 43.9378C44.2587 43.9378 44.2843 43.9249 44.2779 43.8541C44.2779 43.2557 44.2779 42.6509 44.2779 42.0525C44.2779 41.6342 44.2779 41.2224 44.2779 40.8042C44.2779 40.7012 44.2779 40.7012 44.3866 40.6948C44.4441 40.6948 44.5081 40.7012 44.5656 40.6819C44.5976 40.6755 44.6423 40.6948 44.6487 40.7463C44.6487 40.8106 44.6615 40.8685 44.6615 40.9264C44.6615 41.898 44.6615 42.8697 44.6615 43.8477C44.6615 43.912 44.6807 43.9313 44.7446 43.9249C45.2114 43.9249 45.6782 43.9249 46.145 43.9185C46.2089 43.9185 46.2281 43.9313 46.2281 43.9957C46.2281 45.7394 46.2281 47.4832 46.2281 49.2205C46.2281 49.4328 46.2281 49.6516 46.2281 49.8639C46.2281 49.9154 46.2409 49.9347 46.2984 49.9154C46.3752 49.8897 46.4519 49.8768 46.5222 49.8446C46.6565 49.7867 46.7972 49.7353 46.9315 49.6645C47.0849 49.5808 47.2448 49.51 47.3982 49.42C47.5837 49.3106 47.7499 49.1883 47.9226 49.0532C48.0249 48.976 48.1208 48.8988 48.076 48.7443C48.076 48.7379 48.076 48.7315 48.076 48.7186C48.076 46.1512 48.0824 43.5774 48.0824 41.0101C48.0824 40.2058 48.0824 39.4015 48.0824 38.5972C48.0824 38.4942 48.0824 38.4942 48.1847 38.4942C48.6323 38.4942 49.0863 38.4942 49.5339 38.4942C49.6107 38.4942 49.6362 38.4685 49.6362 38.3913C49.6298 37.8636 49.6362 37.3296 49.6362 36.8019C49.6362 36.3193 49.6362 35.8368 49.6362 35.3542C49.6362 35.277 49.6618 35.2577 49.7321 35.2577C49.8025 35.2641 49.8728 35.2641 49.9368 35.2577C49.9943 35.2512 50.0071 35.277 50.0071 35.3284C50.0071 36.3322 50.0071 37.336 50.0071 38.3462C50.0071 38.3784 50.0135 38.4106 50.0007 38.4363C49.9751 38.4942 50.0071 38.4942 50.0455 38.4942C50.1606 38.4942 50.282 38.4942 50.3971 38.4942C50.7552 38.4942 51.1133 38.4942 51.465 38.4942C51.5289 38.4942 51.5545 38.5135 51.5545 38.5779C51.5481 38.6615 51.5481 38.7516 51.5481 38.8352C51.5481 40.9586 51.5481 43.0756 51.5481 45.1989C51.5481 45.2247 51.5481 45.244 51.5545 45.2697C51.5737 45.3212 51.5865 45.3276 51.6248 45.289C51.7016 45.2054 51.7783 45.1282 51.855 45.0509C52.2643 44.6263 52.6799 44.2016 53.0891 43.7769C53.5943 43.2557 54.0994 42.7345 54.6109 42.2133C54.6493 42.1747 54.6621 42.1297 54.6621 42.0782C54.6621 41.3061 54.6621 40.5275 54.6621 39.7554C54.6621 39.691 54.6429 39.6717 54.579 39.6717C54.1314 39.6782 53.6838 39.6717 53.2362 39.6717C53.1147 39.6717 53.1083 39.6975 53.1083 39.5495C53.1083 37.2459 53.1083 34.9359 53.1083 32.6324C53.1083 32.5745 53.0827 32.523 53.0891 32.4651C53.1211 32.2785 53.1019 32.0855 53.1019 31.8989C53.1019 31.7702 53.0955 31.7702 52.974 31.7766C52.9548 31.7766 52.9293 31.7766 52.9101 31.7766C52.7758 31.7895 52.6415 31.7895 52.5072 31.8152C52.2131 31.8731 51.919 31.9503 51.6312 32.0597C51.2987 32.182 50.9854 32.3428 50.6977 32.5423C50.3396 32.7868 50.0263 33.0957 49.7194 33.4045C49.4572 33.6683 49.2078 33.9322 48.9457 34.196C48.837 34.3054 48.7282 34.4083 48.6259 34.5177C48.3062 34.8523 47.9865 35.1933 47.6668 35.5343C47.5901 35.618 47.5133 35.7145 47.4302 35.7917C47.2576 35.959 47.0977 36.1327 46.9251 36.3C46.4583 36.7633 45.9915 37.233 45.5503 37.7221C45.2882 38.0116 45.0132 38.2819 44.7382 38.5585C44.2779 39.0283 43.8047 39.4916 43.3507 39.9677C42.8903 40.4503 42.4363 40.9329 41.9695 41.409C41.637 41.7501 41.2982 42.0846 41.0424 42.4965C40.8569 42.786 40.6907 43.0884 40.5628 43.4102C40.3966 43.8284 40.2943 44.2595 40.2495 44.7035C40.1983 45.1989 40.2047 45.6944 40.307 46.1834C40.3774 46.518 40.4733 46.8462 40.5948 47.1679C40.6587 47.3416 40.7546 47.5025 40.8442 47.6633C41.2982 48.4741 41.912 49.0982 42.7113 49.5487ZM56.574 33.1278C56.5676 33.1664 56.5676 33.1858 56.5676 33.2051C56.5676 34.2346 56.5676 35.2577 56.5676 36.2872C56.5676 37.3875 56.5676 38.4878 56.5676 39.5945C56.5676 39.6653 56.5548 39.6975 56.4717 39.6975C56.0113 39.691 55.5573 39.6975 55.0969 39.6975C55.0266 39.6975 55.0074 39.7232 55.0074 39.7875C55.0074 40.4181 55.0074 41.0551 55.0074 41.6857C55.0074 41.7179 55.0074 41.7501 55.0074 41.7822C55.1736 41.6214 55.3335 41.4669 55.4933 41.3061C55.7555 41.0358 56.0177 40.7656 56.2798 40.4953C56.5995 40.1672 56.9257 39.8454 57.1814 39.4594C57.6866 38.7001 57.9551 37.8572 58.0127 36.9499C58.0446 36.4287 57.9871 35.914 57.8592 35.4056C57.7249 34.8716 57.5075 34.3761 57.2006 33.9193C57.028 33.6297 56.8106 33.3917 56.574 33.1278Z" fill="url(#paint16_linear_622_5356)"/>
</g>
<g filter="url(#filter4_d_622_5356)">
<path d="M38.1917 47.9617C38.1215 47.9362 38.0833 47.8851 38.0514 47.8403C37.9367 47.687 37.7964 47.5528 37.6689 47.4122C37.516 47.2396 37.3566 47.0671 37.1908 46.9009C36.8721 46.575 36.5534 46.2491 36.2346 45.9232C36.0498 45.7315 35.8649 45.5461 35.68 45.3608C35.527 45.2074 35.3868 45.0413 35.2338 44.8943C35.1637 44.824 35.0999 44.7409 35.0107 44.6834C34.9342 44.6387 34.9087 44.5428 34.8386 44.4789C34.6346 44.2936 34.4561 44.0891 34.2521 43.9038C34.0927 43.7568 33.9652 43.5715 33.8059 43.4245C33.7039 43.335 33.6146 43.2264 33.5063 43.1433C33.4553 43.1114 33.4361 43.0411 33.3915 42.9963C33.1812 42.7918 32.9708 42.5937 32.7732 42.3764C32.5054 42.0761 32.2122 41.8013 31.9445 41.5009C31.7469 41.2837 31.5301 41.0792 31.3261 40.8683C31.0265 40.5552 30.7524 40.2165 30.5165 39.8522C30.4018 39.6733 30.3125 39.4815 30.2105 39.2962C30.1149 39.1237 30.0576 38.9384 29.9811 38.7658C29.8791 38.5485 29.8472 38.3185 29.7771 38.0948C29.7324 37.9414 29.7133 37.7817 29.6814 37.6283C29.605 37.2001 29.6241 36.772 29.6113 36.3374C29.6113 36.2224 29.6241 36.1074 29.6177 35.9923C29.6177 35.9029 29.656 35.807 29.6687 35.7111C29.6814 35.6536 29.6751 35.5897 29.6814 35.5322C29.6942 35.4364 29.7261 35.3469 29.7516 35.251C29.8281 34.9251 29.9301 34.612 30.0512 34.2988C30.1213 34.1135 30.1914 33.9218 30.2998 33.7557C30.44 33.5384 30.5675 33.3083 30.7205 33.1038C30.8735 32.8929 31.0265 32.682 31.2114 32.4967C31.3707 32.3306 31.5365 32.1708 31.715 32.0174C32.0018 31.7618 32.3142 31.5381 32.6521 31.3528C32.856 31.2442 33.0664 31.1419 33.2768 31.0461C33.4298 30.9758 33.5828 30.9183 33.7485 30.8799C33.876 30.848 33.9907 30.7905 34.1246 30.7777C34.3286 30.7585 34.5198 30.7074 34.7175 30.6754C35.0043 30.6371 35.2912 30.6371 35.578 30.6371C35.6928 30.6371 35.8075 30.6371 35.9159 30.6435C36.0306 30.6499 36.1454 30.669 36.2601 30.6882C36.4195 30.7138 36.5789 30.7777 36.7446 30.7841C36.8912 30.7905 37.0124 30.8671 37.1462 30.8991C37.4012 30.9566 37.6307 31.078 37.8666 31.1803C38.1534 31.3081 38.4148 31.4679 38.6698 31.6468C38.8546 31.7746 39.0459 31.9024 39.218 32.0558C39.3391 32.1644 39.4539 32.2794 39.5622 32.3945C39.9192 32.7587 40.2762 33.123 40.6332 33.4873C41.022 33.8899 41.4109 34.2988 41.8061 34.6951C42.2906 35.1807 42.756 35.692 43.2468 36.1713C43.2659 36.1904 43.2851 36.2096 43.3042 36.2288C43.3297 36.2543 43.3233 36.2799 43.2978 36.3055C43.1193 36.4844 42.9472 36.6569 42.7687 36.8359C42.7113 36.8998 42.6412 36.9573 42.5902 37.0212C42.5456 37.0723 42.5137 37.0468 42.4818 37.0212C42.3416 36.8806 42.1886 36.7464 42.0675 36.5866C41.94 36.4269 41.7742 36.3119 41.6595 36.1457C41.6085 36.0754 41.532 36.0243 41.4746 35.9604C41.2324 35.7111 40.9965 35.4491 40.7479 35.2127C40.5248 34.9954 40.3144 34.759 40.0913 34.5353C39.9383 34.3819 39.7726 34.2413 39.6324 34.0752C39.4411 33.8451 39.2244 33.647 39.0204 33.4297C38.7973 33.1933 38.5742 32.9568 38.3128 32.7587C38.1598 32.6437 38.0004 32.5287 37.8283 32.4328C37.6881 32.3497 37.5415 32.2794 37.4012 32.2028C37.2673 32.1325 37.1271 32.0749 36.9805 32.0302C36.8594 31.9919 36.7319 31.9471 36.6044 31.9152C36.4068 31.8641 36.2091 31.8321 36.0115 31.8002C35.9095 31.781 35.8075 31.7874 35.7055 31.781C35.6418 31.7746 35.629 31.8002 35.629 31.8577C35.629 32.0558 35.629 32.2539 35.629 32.4456C35.629 33.0655 35.629 33.6854 35.629 34.3052C35.629 35.7942 35.6354 37.2896 35.629 38.7786C35.629 39.0342 35.6418 39.2898 35.6354 39.5518C35.6354 39.603 35.629 39.6349 35.5589 39.6349C35.0999 39.6349 34.641 39.6349 34.182 39.6349C34.1055 39.6349 34.0864 39.6605 34.0864 39.7563C34.0864 40.4401 34.0864 41.1175 34.0864 41.8013C34.0864 41.8844 34.0927 41.9675 34.08 42.0505C34.0736 42.0825 34.0864 42.1017 34.1055 42.1272C34.539 42.5682 34.9724 43.0091 35.4059 43.4564C35.8777 43.9421 36.3494 44.4278 36.8211 44.9135C36.9359 45.0285 37.057 45.1371 37.1781 45.2522C37.1781 45.0605 37.1781 44.8624 37.1781 44.6642C37.1781 42.6257 37.1781 40.5935 37.1781 38.5549C37.1781 38.4846 37.2036 38.4655 37.2673 38.4655C37.7263 38.4655 38.1853 38.4655 38.6443 38.4655C38.7208 38.4655 38.7335 38.4399 38.7335 38.3696C38.7335 37.3663 38.7335 36.3694 38.7335 35.3661C38.7335 35.251 38.7335 35.251 38.8483 35.251C38.8993 35.251 38.9566 35.2574 39.0076 35.251C39.0778 35.2446 39.1033 35.2702 39.1033 35.3469C39.1033 35.7111 39.1033 36.0754 39.1033 36.4397C39.1033 37.0915 39.1033 37.7369 39.1033 38.3888C39.1033 38.4591 39.1288 38.4846 39.1925 38.4591C39.2371 38.4399 39.2817 38.4655 39.32 38.4655C39.7343 38.4655 40.1423 38.4655 40.5567 38.4655C40.6268 38.4655 40.6651 38.4846 40.6459 38.5613C40.6204 38.7083 40.6332 38.8553 40.6332 38.9959C40.6332 39.0342 40.6204 39.0598 40.5949 39.0853C40.4483 39.2259 40.3208 39.3729 40.1742 39.5135C40.0148 39.6733 39.8555 39.833 39.6961 39.9992C39.5176 40.1781 39.3582 40.3698 39.2052 40.5679C39.0969 40.7085 38.9949 40.8491 38.8993 40.9961C38.7335 41.2453 38.5742 41.5009 38.4467 41.7757C38.3255 42.0314 38.2108 42.2934 38.1152 42.5618C38.0323 42.7982 37.9431 43.0283 37.8921 43.2711C37.8474 43.4884 37.7901 43.6993 37.7582 43.9166C37.7391 44.0635 37.7263 44.2105 37.7072 44.3575C37.6817 44.5556 37.6753 44.7473 37.6626 44.9454C37.6498 45.1308 37.6434 45.3161 37.6689 45.5014C37.6817 45.5909 37.6753 45.6867 37.6817 45.7762C37.7008 45.9551 37.7199 46.1341 37.7454 46.3066C37.7901 46.6261 37.8729 46.9393 37.9558 47.246C38.0004 47.4122 38.0514 47.5719 38.1215 47.7253C38.1407 47.802 38.1789 47.8723 38.1917 47.9617ZM33.6848 41.6671C33.6848 41.6543 33.6911 41.6479 33.6911 41.6415C33.6911 41.0153 33.6911 40.389 33.6911 39.7627C33.6911 39.603 33.6911 39.6094 33.5381 39.6157C33.0983 39.6349 32.6648 39.6221 32.225 39.6221C32.1676 39.6221 32.1421 39.603 32.1421 39.5391C32.1421 37.4494 32.1421 35.3533 32.1421 33.2636C32.1421 33.2252 32.1612 33.1677 32.1293 33.1549C32.0975 33.1422 32.0783 33.1997 32.0528 33.2252C31.766 33.5 31.5429 33.8259 31.3452 34.1646C31.0775 34.6312 30.9054 35.1296 30.797 35.6536C30.695 36.1457 30.6887 36.6442 30.7269 37.1426C30.746 37.3855 30.8034 37.6219 30.8544 37.8584C30.9819 38.3888 31.2114 38.8808 31.511 39.3346C31.7596 39.718 32.072 40.0439 32.3971 40.3698C32.5756 40.5552 32.7541 40.7405 32.9325 40.9258C33.1493 41.1431 33.366 41.3604 33.5764 41.584C33.6083 41.616 33.6401 41.6479 33.6848 41.6671Z" fill="url(#paint17_linear_622_5356)"/>
</g>
<g filter="url(#filter5_d_622_5356)">
<path d="M21.0244 59.9043C21.0244 59.9043 31.5023 63.3146 44.2197 63.3146C56.9372 63.3146 67.575 59.9043 67.575 59.9043V48.099C67.575 48.099 53.5989 52.702 44.2197 52.6899C34.9013 52.678 21.0244 48.099 21.0244 48.099V59.9043Z" fill="url(#paint18_linear_622_5356)"/>
</g>
<g filter="url(#filter6_d_622_5356)">
<path d="M46.2468 21.0666C45.4853 22.3855 43.5816 22.3855 42.8201 21.0666C42.0586 19.7476 43.0105 18.099 44.5334 18.099C46.0564 18.099 47.0083 19.7476 46.2468 21.0666Z" fill="url(#paint19_linear_622_5356)"/>
</g>
<g filter="url(#filter7_d_622_5356)">
<path d="M67.379 31.1731C68.2573 32.4173 67.4594 34.1458 65.9427 34.2843C64.4261 34.4228 63.3282 32.8676 63.9665 31.4849C64.6049 30.1021 66.5007 29.929 67.379 31.1731Z" fill="url(#paint20_linear_622_5356)"/>
</g>
<g filter="url(#filter8_d_622_5356)">
<path d="M67.379 31.1731C68.2573 32.4173 67.4594 34.1458 65.9427 34.2843C64.4261 34.4228 63.3282 32.8676 63.9665 31.4849C64.6049 30.1021 66.5007 29.929 67.379 31.1731Z" fill="url(#paint21_linear_622_5356)"/>
</g>
<g filter="url(#filter9_d_622_5356)">
<path d="M25.2481 31.1731C26.1264 32.4173 25.3285 34.1458 23.8119 34.2843C22.2952 34.4228 21.1973 32.8676 21.8357 31.4849C22.474 30.1021 24.3698 29.929 25.2481 31.1731Z" fill="url(#paint22_linear_622_5356)"/>
</g>
</g>
<defs>
<filter id="filter0_d_622_5356" x="0.0757809" y="0.4" width="89.6473" height="84.9743" filterUnits="userSpaceOnUse" color-interpolation-filters="sRGB">
<feFlood flood-opacity="0" result="BackgroundImageFix"/>
<feColorMatrix in="SourceAlpha" type="matrix" values="0 0 0 0 0 0 0 0 0 0 0 0 0 0 0 0 0 0 127 0" result="hardAlpha"/>
<feOffset/>
<feGaussianBlur stdDeviation="5.3"/>
<feComposite in2="hardAlpha" operator="out"/>
<feColorMatrix type="matrix" values="0 0 0 0 0.831373 0 0 0 0 0.14902 0 0 0 0 0.333333 0 0 0 0.3 0"/>
<feBlend mode="normal" in2="BackgroundImageFix" result="effect1_dropShadow_622_5356"/>
<feBlend mode="normal" in="SourceGraphic" in2="effect1_dropShadow_622_5356" result="shape"/>
</filter>
<filter id="filter1_d_622_5356" x="9.87266" y="1.9" width="70.4002" height="73.9743" filterUnits="userSpaceOnUse" color-interpolation-filters="sRGB">
<feFlood flood-opacity="0" result="BackgroundImageFix"/>
<feColorMatrix in="SourceAlpha" type="matrix" values="0 0 0 0 0 0 0 0 0 0 0 0 0 0 0 0 0 0 127 0" result="hardAlpha"/>
<feOffset dy="-4"/>
<feGaussianBlur stdDeviation="2.55"/>
<feComposite in2="hardAlpha" operator="out"/>
<feColorMatrix type="matrix" values="0 0 0 0 0 0 0 0 0 0 0 0 0 0 0 0 0 0 0.25 0"/>
<feBlend mode="normal" in2="BackgroundImageFix" result="effect1_dropShadow_622_5356"/>
<feBlend mode="normal" in="SourceGraphic" in2="effect1_dropShadow_622_5356" result="shape"/>
</filter>
<filter id="filter2_i_622_5356" x="22.5303" y="22.8706" width="45.5381" height="45.3923" filterUnits="userSpaceOnUse" color-interpolation-filters="sRGB">
<feFlood flood-opacity="0" result="BackgroundImageFix"/>
<feBlend mode="normal" in="SourceGraphic" in2="BackgroundImageFix" result="shape"/>
<feColorMatrix in="SourceAlpha" type="matrix" values="0 0 0 0 0 0 0 0 0 0 0 0 0 0 0 0 0 0 127 0" result="hardAlpha"/>
<feOffset dx="2" dy="1"/>
<feGaussianBlur stdDeviation="1"/>
<feComposite in2="hardAlpha" operator="arithmetic" k2="-1" k3="1"/>
<feColorMatrix type="matrix" values="0 0 0 0 0 0 0 0 0 0 0 0 0 0 0 0 0 0 0.25 0"/>
<feBlend mode="normal" in2="shape" result="effect1_innerShadow_622_5356"/>
</filter>
<filter id="filter3_d_622_5356" x="38.5025" y="30.6377" width="23.2361" height="24.2389" filterUnits="userSpaceOnUse" color-interpolation-filters="sRGB">
<feFlood flood-opacity="0" result="BackgroundImageFix"/>
<feColorMatrix in="SourceAlpha" type="matrix" values="0 0 0 0 0 0 0 0 0 0 0 0 0 0 0 0 0 0 127 0" result="hardAlpha"/>
<feOffset dx="1" dy="2"/>
<feGaussianBlur stdDeviation="0.8"/>
<feComposite in2="hardAlpha" operator="out"/>
<feColorMatrix type="matrix" values="0 0 0 0 0 0 0 0 0 0 0 0 0 0 0 0 0 0 0.25 0"/>
<feBlend mode="normal" in2="BackgroundImageFix" result="effect1_dropShadow_622_5356"/>
<feBlend mode="normal" in="SourceGraphic" in2="effect1_dropShadow_622_5356" result="shape"/>
</filter>
<filter id="filter4_d_622_5356" x="29.0113" y="30.6371" width="16.909" height="20.9247" filterUnits="userSpaceOnUse" color-interpolation-filters="sRGB">
<feFlood flood-opacity="0" result="BackgroundImageFix"/>
<feColorMatrix in="SourceAlpha" type="matrix" values="0 0 0 0 0 0 0 0 0 0 0 0 0 0 0 0 0 0 127 0" result="hardAlpha"/>
<feOffset dx="1" dy="2"/>
<feGaussianBlur stdDeviation="0.8"/>
<feComposite in2="hardAlpha" operator="out"/>
<feColorMatrix type="matrix" values="0 0 0 0 0 0 0 0 0 0 0 0 0 0 0 0 0 0 0.25 0"/>
<feBlend mode="normal" in2="BackgroundImageFix" result="effect1_dropShadow_622_5356"/>
<feBlend mode="normal" in="SourceGraphic" in2="effect1_dropShadow_622_5356" result="shape"/>
</filter>
<filter id="filter5_d_622_5356" x="21.0244" y="47.799" width="49.8508" height="17.8156" filterUnits="userSpaceOnUse" color-interpolation-filters="sRGB">
<feFlood flood-opacity="0" result="BackgroundImageFix"/>
<feColorMatrix in="SourceAlpha" type="matrix" values="0 0 0 0 0 0 0 0 0 0 0 0 0 0 0 0 0 0 127 0" result="hardAlpha"/>
<feOffset dx="2" dy="1"/>
<feGaussianBlur stdDeviation="0.65"/>
<feComposite in2="hardAlpha" operator="out"/>
<feColorMatrix type="matrix" values="0 0 0 0 0 0 0 0 0 0 0 0 0 0 0 0 0 0 0.25 0"/>
<feBlend mode="normal" in2="BackgroundImageFix" result="effect1_dropShadow_622_5356"/>
<feBlend mode="normal" in="SourceGraphic" in2="effect1_dropShadow_622_5356" result="shape"/>
</filter>
<filter id="filter6_d_622_5356" x="36.2518" y="11.799" width="16.5629" height="16.5568" filterUnits="userSpaceOnUse" color-interpolation-filters="sRGB">
<feFlood flood-opacity="0" result="BackgroundImageFix"/>
<feColorMatrix in="SourceAlpha" type="matrix" values="0 0 0 0 0 0 0 0 0 0 0 0 0 0 0 0 0 0 127 0" result="hardAlpha"/>
<feOffset/>
<feGaussianBlur stdDeviation="3.15"/>
<feComposite in2="hardAlpha" operator="out"/>
<feColorMatrix type="matrix" values="0 0 0 0 1 0 0 0 0 1 0 0 0 0 1 0 0 0 0.25 0"/>
<feBlend mode="normal" in2="BackgroundImageFix" result="effect1_dropShadow_622_5356"/>
<feBlend mode="normal" in="SourceGraphic" in2="effect1_dropShadow_622_5356" result="shape"/>
</filter>
<filter id="filter7_d_622_5356" x="57.4812" y="24.0356" width="16.5629" height="16.5574" filterUnits="userSpaceOnUse" color-interpolation-filters="sRGB">
<feFlood flood-opacity="0" result="BackgroundImageFix"/>
<feColorMatrix in="SourceAlpha" type="matrix" values="0 0 0 0 0 0 0 0 0 0 0 0 0 0 0 0 0 0 127 0" result="hardAlpha"/>
<feOffset/>
<feGaussianBlur stdDeviation="3.15"/>
<feComposite in2="hardAlpha" operator="out"/>
<feColorMatrix type="matrix" values="0 0 0 0 1 0 0 0 0 1 0 0 0 0 1 0 0 0 0.25 0"/>
<feBlend mode="normal" in2="BackgroundImageFix" result="effect1_dropShadow_622_5356"/>
<feBlend mode="normal" in="SourceGraphic" in2="effect1_dropShadow_622_5356" result="shape"/>
</filter>
<filter id="filter8_d_622_5356" x="57.4812" y="24.0356" width="16.5629" height="16.5574" filterUnits="userSpaceOnUse" color-interpolation-filters="sRGB">
<feFlood flood-opacity="0" result="BackgroundImageFix"/>
<feColorMatrix in="SourceAlpha" type="matrix" values="0 0 0 0 0 0 0 0 0 0 0 0 0 0 0 0 0 0 127 0" result="hardAlpha"/>
<feOffset/>
<feGaussianBlur stdDeviation="3.15"/>
<feComposite in2="hardAlpha" operator="out"/>
<feColorMatrix type="matrix" values="0 0 0 0 1 0 0 0 0 1 0 0 0 0 1 0 0 0 0.25 0"/>
<feBlend mode="normal" in2="BackgroundImageFix" result="effect1_dropShadow_622_5356"/>
<feBlend mode="normal" in="SourceGraphic" in2="effect1_dropShadow_622_5356" result="shape"/>
</filter>
<filter id="filter9_d_622_5356" x="15.3504" y="24.0356" width="16.5629" height="16.5574" filterUnits="userSpaceOnUse" color-interpolation-filters="sRGB">
<feFlood flood-opacity="0" result="BackgroundImageFix"/>
<feColorMatrix in="SourceAlpha" type="matrix" values="0 0 0 0 0 0 0 0 0 0 0 0 0 0 0 0 0 0 127 0" result="hardAlpha"/>
<feOffset/>
<feGaussianBlur stdDeviation="3.15"/>
<feComposite in2="hardAlpha" operator="out"/>
<feColorMatrix type="matrix" values="0 0 0 0 1 0 0 0 0 1 0 0 0 0 1 0 0 0 0.25 0"/>
<feBlend mode="normal" in2="BackgroundImageFix" result="effect1_dropShadow_622_5356"/>
<feBlend mode="normal" in="SourceGraphic" in2="effect1_dropShadow_622_5356" result="shape"/>
</filter>
<linearGradient id="paint0_linear_622_5356" x1="54.871" y1="11.9314" x2="45.3037" y2="10.4611" gradientUnits="userSpaceOnUse">
<stop stop-color="#FA6868"/>
<stop offset="1" stop-color="#740A0A"/>
</linearGradient>
<linearGradient id="paint1_linear_622_5356" x1="63.4318" y1="77.7897" x2="65.6498" y2="68.3677" gradientUnits="userSpaceOnUse">
<stop stop-color="#FA6868"/>
<stop offset="1" stop-color="#740A0A"/>
</linearGradient>
<linearGradient id="paint2_linear_622_5356" x1="40.3875" y1="13.1228" x2="36.7491" y2="26.5291" gradientUnits="userSpaceOnUse">
<stop stop-color="#FF8888"/>
<stop offset="1" stop-color="#AB0B0B"/>
</linearGradient>
<linearGradient id="paint3_linear_622_5356" x1="27.024" y1="70.6232" x2="40.5995" y2="73.5678" gradientUnits="userSpaceOnUse">
<stop stop-color="#FF8888"/>
<stop offset="1" stop-color="#AB0B0B"/>
</linearGradient>
<linearGradient id="paint4_linear_622_5356" x1="35.0148" y1="16.7367" x2="32.7487" y2="25.5638" gradientUnits="userSpaceOnUse">
<stop stop-color="#FF8888"/>
<stop offset="1" stop-color="#AB0B0B"/>
</linearGradient>
<linearGradient id="paint5_linear_622_5356" x1="60.0421" y1="15.0998" x2="52.882" y2="11.7695" gradientUnits="userSpaceOnUse">
<stop stop-color="#FA6868"/>
<stop offset="1" stop-color="#740A0A"/>
</linearGradient>
<linearGradient id="paint6_linear_622_5356" x1="81.6879" y1="25.664" x2="73.0765" y2="22.1723" gradientUnits="userSpaceOnUse">
<stop stop-color="#FA6868"/>
<stop offset="1" stop-color="#740A0A"/>
</linearGradient>
<linearGradient id="paint7_linear_622_5356" x1="81.6879" y1="19.6117" x2="73.0765" y2="16.1199" gradientUnits="userSpaceOnUse">
<stop stop-color="#FA6868"/>
<stop offset="1" stop-color="#740A0A"/>
</linearGradient>
<linearGradient id="paint8_linear_622_5356" x1="78.8949" y1="41.9561" x2="70.2835" y2="38.4644" gradientUnits="userSpaceOnUse">
<stop stop-color="#FA6868"/>
<stop offset="1" stop-color="#740A0A"/>
</linearGradient>
<linearGradient id="paint9_linear_622_5356" x1="80.7572" y1="33.1115" x2="72.1458" y2="29.6198" gradientUnits="userSpaceOnUse">
<stop stop-color="#FA6868"/>
<stop offset="1" stop-color="#740A0A"/>
</linearGradient>
<linearGradient id="paint10_linear_622_5356" x1="14.1894" y1="21.7066" x2="20.2409" y2="39.8613" gradientUnits="userSpaceOnUse">
<stop stop-color="#FF8888"/>
<stop offset="1" stop-color="#AB0B0B"/>
</linearGradient>
<linearGradient id="paint11_linear_622_5356" x1="14.1894" y1="16.1199" x2="20.2409" y2="34.2746" gradientUnits="userSpaceOnUse">
<stop stop-color="#FF8888"/>
<stop offset="1" stop-color="#AB0B0B"/>
</linearGradient>
<linearGradient id="paint12_linear_622_5356" x1="16.9833" y1="36.6023" x2="23.0349" y2="54.7571" gradientUnits="userSpaceOnUse">
<stop stop-color="#FF8888"/>
<stop offset="1" stop-color="#AB0B0B"/>
</linearGradient>
<linearGradient id="paint13_linear_622_5356" x1="15.122" y1="28.6888" x2="21.1735" y2="46.8435" gradientUnits="userSpaceOnUse">
<stop stop-color="#FF8888"/>
<stop offset="1" stop-color="#AB0B0B"/>
</linearGradient>
<linearGradient id="paint14_linear_622_5356" x1="7.66116" y1="21.004" x2="32.4433" y2="9.43656" gradientUnits="userSpaceOnUse">
<stop stop-color="#FA6868"/>
<stop offset="1" stop-color="#740A0A"/>
</linearGradient>
<linearGradient id="paint15_linear_622_5356" x1="32.9025" y1="19.9412" x2="58.9824" y2="21.3538" gradientUnits="userSpaceOnUse">
<stop stop-color="#C86A6A"/>
<stop offset="1" stop-color="#9D0C0C"/>
</linearGradient>
<linearGradient id="paint16_linear_622_5356" x1="43.8759" y1="30.6377" x2="55.8731" y2="31.3319" gradientUnits="userSpaceOnUse">
<stop stop-color="#F2D2D2"/>
<stop offset="1" stop-color="#D85757"/>
</linearGradient>
<linearGradient id="paint17_linear_622_5356" x1="32.8773" y1="30.6371" x2="39.2337" y2="17.4506" gradientUnits="userSpaceOnUse">
<stop stop-color="#F2D2D2"/>
</linearGradient>
<linearGradient id="paint18_linear_622_5356" x1="44.4479" y1="64.3006" x2="44.9017" y2="53.3008" gradientUnits="userSpaceOnUse">
<stop stop-color="#DC2121"/>
<stop offset="0.994792" stop-color="#D15757"/>
</linearGradient>
<linearGradient id="paint19_linear_622_5356" x1="46.6049" y1="24.0342" x2="41.8674" y2="23.7518" gradientUnits="userSpaceOnUse">
<stop offset="0.0001" stop-color="#C62C2C"/>
<stop offset="1" stop-color="#E4B8B8"/>
</linearGradient>
<linearGradient id="paint20_linear_622_5356" x1="68.2302" y1="26.3734" x2="70.6573" y2="31.6652" gradientUnits="userSpaceOnUse">
<stop stop-color="#FF9FA7"/>
<stop offset="1" stop-color="#AA0D3C"/>
</linearGradient>
<linearGradient id="paint21_linear_622_5356" x1="68.2302" y1="26.3734" x2="70.6573" y2="31.6652" gradientUnits="userSpaceOnUse">
<stop stop-color="#ECC8C8"/>
<stop offset="1" stop-color="#9B1E1E"/>
</linearGradient>
<linearGradient id="paint22_linear_622_5356" x1="26.0993" y1="26.3734" x2="28.5264" y2="31.6652" gradientUnits="userSpaceOnUse">
<stop stop-color="#F2D2D2"/>
<stop offset="1" stop-color="#9F2727"/>
</linearGradient>
</defs>
</svg>
