<svg width="77" height="71" viewBox="0 0 77 71" fill="none" xmlns="http://www.w3.org/2000/svg">
<g clip-path="url(#clip0_4_81)">
<g clip-path="url(#clip1_4_81)">
<g clip-path="url(#clip2_4_81)" filter="url(#filter0_d_4_81)">
<path d="M45.5078 9.47031C45.5593 9.83371 39.5934 18.3395 34.575 26.0858C31.2012 25.7681 26.4721 25.6713 28.1108 23.4291C31.0078 19.4656 34.8369 15.5337 37.5109 11.1564L45.118 0.650688C45.1564 1.96349 45.4095 8.7757 45.5078 9.47031Z" fill="url(#paint0_linear_4_81)"/>
<path d="M28.9969 9.61771C28.9522 9.982 35.0738 18.3764 40.234 26.0289C43.6014 25.6492 48.328 25.4652 46.6482 23.2536C43.6787 19.3441 39.7778 15.4835 37.0236 11.1562L29.2242 0.7924C29.21 2.10569 29.0825 8.92141 28.9969 9.61771Z" fill="url(#paint1_linear_4_81)"/>
<path d="M74.8541 19.4051C74.3431 19.9307 65.3317 31.6684 58.7492 38.236C56.3097 35.6098 52.7649 32.3726 54.8111 30.5943C58.4283 27.4506 62.7397 24.9609 66.3369 21.1431L75.8705 12.7633C75.2952 14.5516 75.1024 19.1496 74.8541 19.4051Z" fill="url(#paint2_linear_4_81)"/>
<path d="M71.7884 37.2878C71.2774 37.8134 62.266 49.5511 55.6835 56.1187C53.244 53.4926 49.6992 50.2553 51.7454 48.477C55.3626 45.3333 59.674 42.8436 63.2712 39.0258L72.8048 30.646C72.2295 32.4343 72.0367 37.0323 71.7884 37.2878Z" fill="url(#paint3_linear_4_81)"/>
<path d="M73.8322 27.5798C73.3212 28.1054 64.3098 39.8431 57.7273 46.4107C55.2878 43.7845 51.743 40.5473 53.7892 38.769C57.4064 35.6253 61.7178 33.1356 65.315 29.3178L74.8486 20.938C74.2733 22.7263 74.0805 27.3243 73.8322 27.5798Z" fill="url(#paint4_linear_4_81)"/>
<path d="M2.55481 18.8942C3.06575 19.4198 11.2809 31.1574 17.8633 37.725C20.3029 35.0989 23.8477 31.8617 21.8014 30.0833C18.1842 26.9396 13.8728 24.45 10.2756 20.6322L0.742035 12.2523C1.31735 14.0406 2.30645 18.6387 2.55481 18.8942Z" fill="url(#paint5_linear_4_81)"/>
<path d="M5.62049 35.244C6.13144 35.7696 14.3465 47.5073 20.929 54.0749C23.3685 51.4488 26.9134 48.2116 24.8671 46.4332C21.2499 43.2895 16.9385 40.7998 13.3413 36.982L3.80772 28.6022C4.38304 30.3905 5.37214 34.9886 5.62049 35.244Z" fill="url(#paint6_linear_4_81)"/>
<path d="M3.5767 26.5579C4.08765 27.0835 12.3028 38.8212 18.8852 45.3888C21.3248 42.7626 24.8696 39.5254 22.8233 37.7471C19.2061 34.6034 14.8947 32.1137 11.2975 28.2959L1.76393 19.9161C2.33925 21.7044 3.32835 26.3024 3.5767 26.5579Z" fill="url(#paint7_linear_4_81)"/>
<g clip-path="url(#clip3_4_81)">
<g filter="url(#filter1_d_4_81)">
<path d="M63.1951 46.0196V27.3248L71.5339 16.3394L65.9125 18.1277L60.3843 20.1715L42.122 10.3694L41.8322 8.90192C41.3716 6.57006 40.3635 4.38103 38.8909 2.51524L37.3003 0.5L35.9096 2.90136C34.9709 4.52212 34.3441 6.30435 34.0615 8.15587L33.7237 10.3694L14.6544 20.1715L10.73 18.6387L5.45734 16.3394L12.1002 27.3248V45.9248C12.1002 52.5605 16.4601 58.4076 22.8198 60.3011L29.4753 62.2827C31.1814 62.7907 32.5414 64.0844 33.1338 65.763C33.5176 66.8503 34.2297 67.7915 35.1716 68.4564L38.0668 70.5L40.7495 68.4719C41.6452 67.7948 42.3247 66.8719 42.7054 65.8156C43.3234 64.1006 44.713 62.7767 46.4559 62.2423L52.5925 60.3606C58.8933 58.4285 63.1951 52.6101 63.1951 46.0196Z" fill="url(#paint8_linear_4_81)"/>
</g>
<g filter="url(#filter2_i_4_81)">
<path d="M29.7375 15.6407L20.6191 21.5264C16.3391 24.289 13.7538 29.035 13.7538 34.1291V44.7616C13.7538 51.499 18.2459 57.4098 24.7373 59.2139L33.9151 61.7646C36.5798 62.5051 39.3972 62.4946 42.0562 61.7341L50.6661 59.2717C57.1038 57.4306 61.5415 51.5457 61.5415 44.8499V34.0018C61.5415 28.9776 59.0261 24.287 54.841 21.5071L46.1717 15.7486C41.2025 12.4478 34.7497 12.4055 29.7375 15.6407Z" fill="url(#paint9_linear_4_81)"/>
</g>
<g filter="url(#filter3_d_4_81)">
<path d="M31.9525 38.0935C31.9314 37.9028 31.9525 37.698 31.9455 37.4861C31.9455 37.3802 31.9665 37.2601 32.0016 37.1471C32.0297 37.0412 32.0297 36.9282 32.0508 36.8293C32.0929 36.6386 32.149 36.455 32.1911 36.2643C32.2613 35.9535 32.3947 35.664 32.514 35.3673C32.6333 35.0636 32.8017 34.7811 32.9702 34.4986C33.1316 34.2232 33.3281 33.976 33.5387 33.7288C33.8334 33.3969 34.1493 33.079 34.4511 32.7542C34.6616 32.5282 34.8792 32.3163 35.0897 32.0973C35.4968 31.6877 35.9109 31.2781 36.3039 30.8543C36.725 30.4094 37.1532 29.9785 37.5813 29.5336C37.7708 29.3358 37.9813 29.1522 38.1638 28.9403C38.4656 28.5872 38.8095 28.2765 39.1324 27.9445C39.3148 27.7609 39.4973 27.5773 39.6728 27.3866C40.0939 26.9275 40.5571 26.5108 40.9782 26.0447C41.3291 25.6562 41.7151 25.296 42.0731 24.9146C42.3468 24.6251 42.6205 24.3426 42.8872 24.0601C43.1188 23.8199 43.3715 23.6151 43.6242 23.4032C43.8768 23.1914 44.1505 23.0219 44.4313 22.8524C44.7331 22.6758 45.0629 22.5345 45.3928 22.4145C45.5402 22.365 45.6806 22.2944 45.828 22.2662C45.9543 22.245 46.0736 22.2026 46.1999 22.1885C46.3964 22.1673 46.5859 22.1249 46.7825 22.0967C47.0772 22.0543 47.379 22.0543 47.6738 22.0543C48.0528 22.0543 48.4248 22.1108 48.7897 22.1814C49.1968 22.2591 49.5898 22.3721 49.9618 22.5416C50.3268 22.704 50.6847 22.9018 51.0216 23.1278C51.4076 23.3962 51.7655 23.6999 52.0954 24.0389C52.3902 24.3355 52.6288 24.6745 52.8674 25.0135C53.1692 25.4585 53.3868 25.9529 53.5693 26.4614C53.7237 26.8992 53.822 27.3442 53.8781 27.8033C53.9062 28.0646 53.9413 28.3259 53.9342 28.5943C53.9272 28.8697 53.9342 29.1452 53.8921 29.4206C53.843 29.7384 53.8009 30.0633 53.7167 30.3741C53.6114 30.7554 53.4851 31.1298 53.3166 31.4829C53.0289 32.1185 52.6499 32.6835 52.1796 33.1991C51.8568 33.5593 51.5129 33.9054 51.176 34.2444C50.8321 34.5834 50.5022 34.9365 50.1794 35.2896C50.039 35.445 49.8986 35.6004 49.7372 35.7346C49.646 35.8193 49.5618 35.9182 49.4775 36.003C49.4144 36.0665 49.3512 36.123 49.288 36.1866C48.9371 36.5538 48.5792 36.907 48.2353 37.2813C48.0458 37.4861 47.8563 37.6909 47.6668 37.8887C47.3439 38.2206 47.0211 38.5526 46.6912 38.8845C46.3614 39.2165 46.0245 39.5413 45.7086 39.8874C45.2735 40.3606 44.8173 40.8197 44.3751 41.2929C44.0944 41.5895 43.7926 41.872 43.5048 42.1616C43.2171 42.4511 42.9293 42.7407 42.6416 43.0303C42.4802 43.1927 42.2907 43.3269 42.1152 43.4682C41.8696 43.6589 41.6099 43.8284 41.3362 43.9696C40.908 44.1885 40.4588 44.3651 39.9956 44.4993C39.7149 44.577 39.4201 44.6194 39.1324 44.6759C39.0552 44.69 38.9709 44.69 38.8937 44.6971C38.5147 44.7253 38.1357 44.69 37.7567 44.69C37.6445 44.69 37.5322 44.6547 37.4199 44.6406C37.2865 44.6194 37.1532 44.5841 37.0198 44.5558C36.7882 44.5064 36.5636 44.4357 36.339 44.3722C36.0723 44.2945 35.8197 44.1674 35.567 44.0544C35.3986 43.9767 35.2512 43.8637 35.0897 43.7789C34.9564 43.7083 34.8371 43.6235 34.7178 43.5388C34.5563 43.4117 34.3949 43.2845 34.2405 43.1574C34.0229 42.9738 33.8194 42.769 33.6299 42.5571C33.5106 42.4158 33.3843 42.2816 33.272 42.1333C33.0754 41.872 32.914 41.5895 32.7596 41.307C32.6122 41.0316 32.4648 40.7561 32.3666 40.4595C32.2613 40.1628 32.1911 39.8592 32.0999 39.5625C32.0648 39.4425 32.0648 39.3083 32.0367 39.1811C31.9595 38.821 31.9385 38.4678 31.9525 38.0935ZM35.9039 42.8113C35.9249 42.776 35.9179 42.7478 35.9179 42.7195C35.9179 42.3946 35.9179 42.0698 35.9179 41.7519C35.9179 40.0781 35.9179 38.4113 35.9179 36.7375C35.9179 36.681 35.9249 36.6457 35.9951 36.6457C36.5075 36.6457 37.0198 36.6457 37.5322 36.6527C37.6023 36.6527 37.6304 36.6386 37.6234 36.5609C37.6234 35.9041 37.6234 35.2402 37.6234 34.5834C37.6234 34.1243 37.6234 33.6723 37.6234 33.2132C37.6234 33.1002 37.6234 33.1002 37.7427 33.0932C37.8059 33.0932 37.8761 33.1002 37.9392 33.079C37.9743 33.072 38.0234 33.0932 38.0305 33.1497C38.0305 33.2203 38.0445 33.2839 38.0445 33.3474C38.0445 34.4139 38.0445 35.4803 38.0445 36.5539C38.0445 36.6245 38.0656 36.6457 38.1357 36.6386C38.6481 36.6386 39.1604 36.6386 39.6728 36.6315C39.743 36.6315 39.764 36.6457 39.764 36.7163C39.764 38.6303 39.764 40.5442 39.764 42.4511C39.764 42.6842 39.764 42.9243 39.764 43.1574C39.764 43.2139 39.7781 43.2351 39.8412 43.2139C39.9254 43.1857 40.0097 43.1715 40.0869 43.1362C40.2343 43.0727 40.3887 43.0162 40.536 42.9385C40.7045 42.8466 40.88 42.769 41.0484 42.6701C41.2519 42.55 41.4344 42.4158 41.6239 42.2675C41.7362 42.1828 41.8415 42.098 41.7923 41.9285C41.7923 41.9214 41.7923 41.9144 41.7923 41.9003C41.7923 39.0823 41.7994 36.2572 41.7994 33.4392C41.7994 32.5564 41.7994 31.6736 41.7994 30.7907C41.7994 30.6777 41.7994 30.6777 41.9117 30.6777C42.403 30.6777 42.9013 30.6777 43.3926 30.6777C43.4768 30.6777 43.5048 30.6495 43.5048 30.5647C43.4978 29.9856 43.5048 29.3994 43.5048 28.8203C43.5048 28.2906 43.5048 27.7609 43.5048 27.2312C43.5048 27.1464 43.5329 27.1252 43.6101 27.1252C43.6873 27.1323 43.7645 27.1323 43.8347 27.1252C43.8979 27.1182 43.9119 27.1464 43.9119 27.2029C43.9119 28.3047 43.9119 29.4065 43.9119 30.5153C43.9119 30.5506 43.9189 30.5859 43.9049 30.6142C43.8768 30.6777 43.9119 30.6777 43.954 30.6777C44.0804 30.6777 44.2137 30.6777 44.34 30.6777C44.7331 30.6777 45.1261 30.6777 45.5121 30.6777C45.5823 30.6777 45.6104 30.6989 45.6104 30.7696C45.6034 30.8614 45.6034 30.9603 45.6034 31.0521C45.6034 33.3827 45.6034 35.7063 45.6034 38.037C45.6034 38.0653 45.6034 38.0864 45.6104 38.1147C45.6314 38.1712 45.6455 38.1783 45.6876 38.1359C45.7718 38.0441 45.856 37.9593 45.9402 37.8746C46.3894 37.4084 46.8456 36.9423 47.2948 36.4762C47.8493 35.9041 48.4037 35.332 48.9652 34.7599C49.0073 34.7176 49.0213 34.6681 49.0213 34.6116C49.0213 33.7641 49.0213 32.9095 49.0213 32.062C49.0213 31.9914 49.0003 31.9702 48.9301 31.9702C48.4388 31.9773 47.9475 31.9702 47.4562 31.9702C47.3229 31.9702 47.3159 31.9985 47.3159 31.836C47.3159 29.3076 47.3159 26.7721 47.3159 24.2437C47.3159 24.1801 47.2878 24.1236 47.2948 24.0601C47.3299 23.8553 47.3088 23.6434 47.3088 23.4386C47.3088 23.2973 47.3018 23.2973 47.1685 23.3044C47.1474 23.3044 47.1193 23.3044 47.0983 23.3044C46.9509 23.3185 46.8035 23.3185 46.6561 23.3467C46.3333 23.4103 46.0104 23.4951 45.6946 23.6151C45.3296 23.7493 44.9857 23.9259 44.6699 24.1448C44.2769 24.4132 43.933 24.7522 43.5961 25.0912C43.3083 25.3808 43.0346 25.6703 42.7469 25.9599C42.6275 26.08 42.5082 26.193 42.3959 26.313C42.045 26.6803 41.6941 27.0546 41.3432 27.4289C41.2589 27.5208 41.1747 27.6267 41.0835 27.7114C40.894 27.8951 40.7185 28.0858 40.529 28.2694C40.0167 28.7779 39.5043 29.2935 39.0201 29.8302C38.7323 30.148 38.4305 30.4447 38.1287 30.7484C37.6234 31.2639 37.104 31.7725 36.6057 32.2951C36.1004 32.8248 35.6021 33.3545 35.0897 33.8771C34.7248 34.2514 34.3528 34.6187 34.0721 35.0707C33.8685 35.3885 33.6861 35.7205 33.5457 36.0736C33.3632 36.5327 33.2509 37.0059 33.2018 37.4932C33.1456 38.037 33.1527 38.5808 33.2649 39.1176C33.3421 39.4848 33.4474 39.845 33.5808 40.1982C33.651 40.3889 33.7562 40.5654 33.8545 40.742C34.3528 41.6319 35.0266 42.3169 35.9039 42.8113ZM51.1199 24.7875C51.1128 24.8299 51.1128 24.8511 51.1128 24.8723C51.1128 26.0023 51.1128 27.1252 51.1128 28.2553C51.1128 29.463 51.1128 30.6707 51.1128 31.8855C51.1128 31.9631 51.0988 31.9985 51.0076 31.9985C50.5022 31.9914 50.0039 31.9985 49.4986 31.9985C49.4214 31.9985 49.4003 32.0267 49.4003 32.0973C49.4003 32.7895 49.4003 33.4887 49.4003 34.1808C49.4003 34.2161 49.4003 34.2514 49.4003 34.2867C49.5828 34.1102 49.7583 33.9407 49.9337 33.7641C50.2215 33.4675 50.5092 33.1709 50.797 32.8742C51.1479 32.514 51.5059 32.1609 51.7866 31.7371C52.3411 30.9038 52.6358 29.9785 52.699 28.9827C52.7341 28.4106 52.6709 27.8456 52.5306 27.2877C52.3832 26.7015 52.1445 26.1577 51.8077 25.6562C51.6182 25.3384 51.3795 25.0771 51.1199 24.7875Z" fill="url(#paint10_linear_4_81)"/>
</g>
<g filter="url(#filter4_d_4_81)">
<path d="M30.9433 41.0701C30.8663 41.042 30.8244 40.9859 30.7894 40.9368C30.6634 40.7684 30.5095 40.6211 30.3695 40.4668C30.2016 40.2774 30.0267 40.088 29.8448 39.9057C29.4949 39.5479 29.1451 39.1902 28.7952 38.8325C28.5923 38.622 28.3894 38.4186 28.1865 38.2152C28.0186 38.0469 27.8646 37.8645 27.6967 37.7032C27.6197 37.626 27.5498 37.5348 27.4518 37.4717C27.3678 37.4226 27.3398 37.3174 27.2629 37.2472C27.039 37.0438 26.8431 36.8194 26.6192 36.6159C26.4442 36.4546 26.3043 36.2512 26.1294 36.0899C26.0174 35.9917 25.9195 35.8724 25.8005 35.7812C25.7445 35.7462 25.7235 35.669 25.6746 35.6199C25.4437 35.3954 25.2128 35.178 24.9959 34.9395C24.702 34.6098 24.3801 34.3082 24.0862 33.9786C23.8693 33.7401 23.6314 33.5156 23.4075 33.2841C23.0787 32.9404 22.7778 32.5687 22.5189 32.1688C22.393 31.9724 22.295 31.762 22.1831 31.5586C22.0781 31.3692 22.0151 31.1658 21.9312 30.9764C21.8192 30.7379 21.7842 30.4854 21.7073 30.2399C21.6583 30.0716 21.6373 29.8962 21.6023 29.7279C21.5183 29.2579 21.5393 28.7879 21.5253 28.311C21.5253 28.1847 21.5393 28.0584 21.5323 27.9322C21.5323 27.834 21.5743 27.7288 21.5883 27.6236C21.6023 27.5604 21.5953 27.4903 21.6023 27.4271C21.6163 27.3219 21.6513 27.2237 21.6793 27.1185C21.7632 26.7608 21.8752 26.4171 22.0081 26.0734C22.0851 25.87 22.1621 25.6595 22.281 25.4772C22.435 25.2387 22.5749 24.9862 22.7428 24.7617C22.9107 24.5302 23.0787 24.2988 23.2816 24.0953C23.4565 23.913 23.6384 23.7376 23.8344 23.5693C24.1492 23.2887 24.4921 23.0432 24.8629 22.8398C25.0868 22.7205 25.3177 22.6083 25.5486 22.5031C25.7165 22.4259 25.8845 22.3628 26.0664 22.3207C26.2063 22.2856 26.3323 22.2225 26.4792 22.2085C26.7031 22.1874 26.913 22.1313 27.1299 22.0962C27.4448 22.0542 27.7597 22.0542 28.0745 22.0542C28.2005 22.0542 28.3264 22.0542 28.4454 22.0612C28.5713 22.0682 28.6973 22.0892 28.8232 22.1103C28.9981 22.1383 29.1731 22.2085 29.355 22.2155C29.5159 22.2225 29.6489 22.3067 29.7958 22.3417C30.0757 22.4049 30.3276 22.5381 30.5865 22.6504C30.9013 22.7907 31.1882 22.966 31.4681 23.1624C31.671 23.3027 31.8809 23.443 32.0698 23.6113C32.2028 23.7306 32.3287 23.8568 32.4477 23.9831C32.8395 24.3829 33.2313 24.7827 33.6231 25.1826C34.05 25.6245 34.4768 26.0734 34.9106 26.5083C35.4424 27.0414 35.9531 27.6025 36.4919 28.1286C36.5129 28.1496 36.5339 28.1707 36.5549 28.1917C36.5829 28.2198 36.5759 28.2478 36.5479 28.2759C36.352 28.4723 36.1631 28.6617 35.9671 28.8581C35.9042 28.9282 35.8272 28.9913 35.7712 29.0615C35.7222 29.1176 35.6873 29.0895 35.6523 29.0615C35.4983 28.9072 35.3304 28.7599 35.1975 28.5845C35.0575 28.4092 34.8756 28.2829 34.7497 28.1005C34.6937 28.0234 34.6097 27.9673 34.5468 27.8971C34.2809 27.6236 34.022 27.336 33.7491 27.0764C33.5042 26.8379 33.2733 26.5784 33.0284 26.3329C32.8605 26.1646 32.6786 26.0103 32.5246 25.8279C32.3147 25.5754 32.0768 25.3579 31.8529 25.1194C31.608 24.8599 31.3631 24.6004 31.0762 24.3829C30.9083 24.2567 30.7334 24.1304 30.5445 24.0252C30.3905 23.934 30.2296 23.8568 30.0757 23.7727C29.9287 23.6955 29.7748 23.6324 29.6139 23.5833C29.4809 23.5412 29.341 23.4921 29.201 23.457C28.9841 23.4009 28.7672 23.3658 28.5503 23.3308C28.4384 23.3097 28.3264 23.3167 28.2145 23.3097C28.1445 23.3027 28.1305 23.3308 28.1305 23.3939C28.1305 23.6113 28.1305 23.8288 28.1305 24.0392C28.1305 24.7196 28.1305 25.4 28.1305 26.0804C28.1305 27.7147 28.1375 29.3561 28.1305 30.9904C28.1305 31.271 28.1445 31.5516 28.1375 31.8392C28.1375 31.8953 28.1305 31.9304 28.0535 31.9304C27.5498 31.9304 27.046 31.9304 26.5422 31.9304C26.4582 31.9304 26.4372 31.9584 26.4372 32.0636C26.4372 32.8142 26.4372 33.5577 26.4372 34.3082C26.4372 34.3994 26.4442 34.4906 26.4302 34.5818C26.4232 34.6169 26.4372 34.6379 26.4582 34.666C26.934 35.1499 27.4098 35.6339 27.8856 36.1249C28.4034 36.658 28.9212 37.1911 29.4389 37.7242C29.5649 37.8505 29.6978 37.9697 29.8308 38.096C29.8308 37.8855 29.8308 37.6681 29.8308 37.4507C29.8308 35.2131 29.8308 32.9825 29.8308 30.7449C29.8308 30.6678 29.8588 30.6467 29.9287 30.6467C30.4325 30.6467 30.9363 30.6467 31.4401 30.6467C31.5241 30.6467 31.538 30.6187 31.538 30.5415C31.538 29.4403 31.538 28.346 31.538 27.2448C31.538 27.1185 31.538 27.1185 31.664 27.1185C31.72 27.1185 31.7829 27.1255 31.8389 27.1185C31.9159 27.1115 31.9439 27.1396 31.9439 27.2237C31.9439 27.6236 31.9439 28.0234 31.9439 28.4232C31.9439 29.1387 31.9439 29.8471 31.9439 30.5626C31.9439 30.6397 31.9719 30.6678 32.0418 30.6397C32.0908 30.6187 32.1398 30.6467 32.1818 30.6467C32.6366 30.6467 33.0844 30.6467 33.5392 30.6467C33.6162 30.6467 33.6581 30.6678 33.6371 30.752C33.6092 30.9133 33.6231 31.0746 33.6231 31.2289C33.6231 31.271 33.6092 31.2991 33.5812 31.3271C33.4202 31.4814 33.2803 31.6428 33.1194 31.7971C32.9444 31.9724 32.7695 32.1478 32.5946 32.3302C32.3987 32.5266 32.2238 32.737 32.0558 32.9545C31.9369 33.1088 31.8249 33.2631 31.72 33.4244C31.538 33.698 31.3631 33.9786 31.2232 34.2802C31.0902 34.5607 30.9643 34.8483 30.8593 35.1429C30.7684 35.4025 30.6704 35.655 30.6144 35.9215C30.5655 36.16 30.5025 36.3915 30.4675 36.63C30.4465 36.7913 30.4325 36.9526 30.4115 37.114C30.3835 37.3314 30.3765 37.5418 30.3626 37.7593C30.3486 37.9627 30.3416 38.1661 30.3695 38.3695C30.3835 38.4677 30.3765 38.5729 30.3835 38.6711C30.4045 38.8675 30.4255 39.064 30.4535 39.2533C30.5025 39.6041 30.5935 39.9478 30.6844 40.2844C30.7334 40.4668 30.7894 40.6422 30.8663 40.8105C30.8873 40.8947 30.9293 40.9719 30.9433 41.0701ZM25.9964 34.1609C25.9964 34.1469 26.0034 34.1399 26.0034 34.1329C26.0034 33.4455 26.0034 32.7581 26.0034 32.0706C26.0034 31.8953 26.0034 31.9023 25.8355 31.9093C25.3527 31.9304 24.8769 31.9163 24.3941 31.9163C24.3311 31.9163 24.3032 31.8953 24.3032 31.8251C24.3032 29.5315 24.3032 27.2307 24.3032 24.9371C24.3032 24.895 24.3241 24.8318 24.2892 24.8178C24.2542 24.8038 24.2332 24.8669 24.2052 24.895C23.8903 25.1966 23.6454 25.5543 23.4285 25.9261C23.1347 26.4381 22.9457 26.9852 22.8268 27.5604C22.7148 28.1005 22.7078 28.6476 22.7498 29.1948C22.7708 29.4613 22.8338 29.7208 22.8898 29.9804C23.0297 30.5626 23.2816 31.1027 23.6104 31.6007C23.8833 32.0215 24.2262 32.3793 24.583 32.737C24.7789 32.9404 24.9749 33.1438 25.1708 33.3473C25.4087 33.5857 25.6466 33.8242 25.8775 34.0697C25.9125 34.1048 25.9474 34.1399 25.9964 34.1609Z" fill="url(#paint11_linear_4_81)"/>
</g>
<g filter="url(#filter5_d_4_81)">
<path d="M12.1002 54.1782C12.1002 54.1782 23.601 57.9214 37.5599 57.9214C51.5188 57.9214 63.1951 54.1782 63.1951 54.1782V41.2205C63.1951 41.2205 47.8547 46.2728 37.5599 46.2596C27.3317 46.2465 12.1002 41.2205 12.1002 41.2205V54.1782Z" fill="url(#paint12_linear_4_81)"/>
</g>
<g filter="url(#filter6_d_4_81)">
<path d="M39.6352 11.8066C38.8654 13.1399 36.9409 13.1399 36.1711 11.8066L35.874 11.292C35.1042 9.95863 36.0664 8.29197 37.606 8.29197L38.2003 8.29197C39.7399 8.29197 40.7021 9.95864 39.9323 11.292L39.6352 11.8066Z" fill="url(#paint13_linear_4_81)"/>
</g>
<g filter="url(#filter7_d_4_81)">
<path d="M39.6352 64.9453C38.8654 66.2786 36.9409 66.2786 36.1711 64.9453L35.874 64.4307C35.1042 63.0973 36.0664 61.4307 37.606 61.4307L38.2003 61.4307C39.7399 61.4307 40.7021 63.0973 39.9323 64.4307L39.6352 64.9453Z" fill="url(#paint14_linear_4_81)"/>
</g>
<g filter="url(#filter8_d_4_81)">
<path d="M63.1507 22.8851C64.0386 24.1429 63.232 25.8902 61.6987 26.0303L61.107 26.0843C59.5738 26.2244 58.4639 24.6522 59.1092 23.2543L59.3583 22.7148C60.0036 21.317 61.9201 21.1419 62.808 22.3997L63.1507 22.8851Z" fill="url(#paint15_linear_4_81)"/>
</g>
<g filter="url(#filter9_d_4_81)">
<path d="M16.9061 22.8851C17.794 24.1429 16.9873 25.8902 15.4541 26.0303L14.8624 26.0843C13.3292 26.2244 12.2193 24.6522 12.8646 23.2543L13.1137 22.7148C13.759 21.317 15.6755 21.1419 16.5634 22.3997L16.9061 22.8851Z" fill="url(#paint16_linear_4_81)"/>
</g>
</g>
</g>
</g>
<rect x="38.5992" y="49.5511" width="1.43859" height="4.79531" fill="#FE9CA4"/>
<rect x="40.6429" y="49.5511" width="1.43859" height="4.79531" fill="#FE9CA4"/>
<rect x="42.6868" y="49.5511" width="1.43859" height="4.79531" fill="#FE9CA4"/>
<path d="M34.8165 54.0861L32.7008 49.7941H33.6757L35.5632 53.6753H35.0032L36.9115 49.7941H37.8103L35.7015 54.0861H34.8165Z" fill="#FE9CA4" stroke="#FE9CA4"/>
</g>
<defs>
<filter id="filter0_d_4_81" x="-10.6" y="-10.1" width="97.8126" height="91.2" filterUnits="userSpaceOnUse" color-interpolation-filters="sRGB">
<feFlood flood-opacity="0" result="BackgroundImageFix"/>
<feColorMatrix in="SourceAlpha" type="matrix" values="0 0 0 0 0 0 0 0 0 0 0 0 0 0 0 0 0 0 127 0" result="hardAlpha"/>
<feOffset/>
<feGaussianBlur stdDeviation="5.3"/>
<feColorMatrix type="matrix" values="0 0 0 0 0.831373 0 0 0 0 0.14902 0 0 0 0 0.333333 0 0 0 0.3 0"/>
<feBlend mode="normal" in2="BackgroundImageFix" result="effect1_dropShadow_4_81"/>
<feBlend mode="normal" in="SourceGraphic" in2="effect1_dropShadow_4_81" result="shape"/>
</filter>
<filter id="filter1_d_4_81" x="0.357337" y="-8.6" width="76.2766" height="80.2" filterUnits="userSpaceOnUse" color-interpolation-filters="sRGB">
<feFlood flood-opacity="0" result="BackgroundImageFix"/>
<feColorMatrix in="SourceAlpha" type="matrix" values="0 0 0 0 0 0 0 0 0 0 0 0 0 0 0 0 0 0 127 0" result="hardAlpha"/>
<feOffset dy="-4"/>
<feGaussianBlur stdDeviation="2.55"/>
<feComposite in2="hardAlpha" operator="out"/>
<feColorMatrix type="matrix" values="0 0 0 0 0 0 0 0 0 0 0 0 0 0 0 0 0 0 0.25 0"/>
<feBlend mode="normal" in2="BackgroundImageFix" result="effect1_dropShadow_4_81"/>
<feBlend mode="normal" in="SourceGraphic" in2="effect1_dropShadow_4_81" result="shape"/>
</filter>
<filter id="filter2_i_4_81" x="13.7538" y="13.2433" width="49.7878" height="50.069" filterUnits="userSpaceOnUse" color-interpolation-filters="sRGB">
<feFlood flood-opacity="0" result="BackgroundImageFix"/>
<feBlend mode="normal" in="SourceGraphic" in2="BackgroundImageFix" result="shape"/>
<feColorMatrix in="SourceAlpha" type="matrix" values="0 0 0 0 0 0 0 0 0 0 0 0 0 0 0 0 0 0 127 0" result="hardAlpha"/>
<feOffset dx="2" dy="1"/>
<feGaussianBlur stdDeviation="1"/>
<feComposite in2="hardAlpha" operator="arithmetic" k2="-1" k3="1"/>
<feColorMatrix type="matrix" values="0 0 0 0 0 0 0 0 0 0 0 0 0 0 0 0 0 0 0.25 0"/>
<feBlend mode="normal" in2="shape" result="effect1_innerShadow_4_81"/>
</filter>
<filter id="filter3_d_4_81" x="31.3429" y="22.0543" width="25.1923" height="26.2537" filterUnits="userSpaceOnUse" color-interpolation-filters="sRGB">
<feFlood flood-opacity="0" result="BackgroundImageFix"/>
<feColorMatrix in="SourceAlpha" type="matrix" values="0 0 0 0 0 0 0 0 0 0 0 0 0 0 0 0 0 0 127 0" result="hardAlpha"/>
<feOffset dx="1" dy="2"/>
<feGaussianBlur stdDeviation="0.8"/>
<feComposite in2="hardAlpha" operator="out"/>
<feColorMatrix type="matrix" values="0 0 0 0 0 0 0 0 0 0 0 0 0 0 0 0 0 0 0.25 0"/>
<feBlend mode="normal" in2="BackgroundImageFix" result="effect1_dropShadow_4_81"/>
<feBlend mode="normal" in="SourceGraphic" in2="effect1_dropShadow_4_81" result="shape"/>
</filter>
<filter id="filter4_d_4_81" x="20.9253" y="22.0542" width="18.2474" height="22.6159" filterUnits="userSpaceOnUse" color-interpolation-filters="sRGB">
<feFlood flood-opacity="0" result="BackgroundImageFix"/>
<feColorMatrix in="SourceAlpha" type="matrix" values="0 0 0 0 0 0 0 0 0 0 0 0 0 0 0 0 0 0 127 0" result="hardAlpha"/>
<feOffset dx="1" dy="2"/>
<feGaussianBlur stdDeviation="0.8"/>
<feComposite in2="hardAlpha" operator="out"/>
<feColorMatrix type="matrix" values="0 0 0 0 0 0 0 0 0 0 0 0 0 0 0 0 0 0 0.25 0"/>
<feBlend mode="normal" in2="BackgroundImageFix" result="effect1_dropShadow_4_81"/>
<feBlend mode="normal" in="SourceGraphic" in2="effect1_dropShadow_4_81" result="shape"/>
</filter>
<filter id="filter5_d_4_81" x="12.1002" y="40.9205" width="54.3949" height="19.3009" filterUnits="userSpaceOnUse" color-interpolation-filters="sRGB">
<feFlood flood-opacity="0" result="BackgroundImageFix"/>
<feColorMatrix in="SourceAlpha" type="matrix" values="0 0 0 0 0 0 0 0 0 0 0 0 0 0 0 0 0 0 127 0" result="hardAlpha"/>
<feOffset dx="2" dy="1"/>
<feGaussianBlur stdDeviation="0.65"/>
<feComposite in2="hardAlpha" operator="out"/>
<feColorMatrix type="matrix" values="0 0 0 0 0 0 0 0 0 0 0 0 0 0 0 0 0 0 0.25 0"/>
<feBlend mode="normal" in2="BackgroundImageFix" result="effect1_dropShadow_4_81"/>
<feBlend mode="normal" in="SourceGraphic" in2="effect1_dropShadow_4_81" result="shape"/>
</filter>
<filter id="filter6_d_4_81" x="29.3031" y="1.99197" width="17.2002" height="17.1146" filterUnits="userSpaceOnUse" color-interpolation-filters="sRGB">
<feFlood flood-opacity="0" result="BackgroundImageFix"/>
<feColorMatrix in="SourceAlpha" type="matrix" values="0 0 0 0 0 0 0 0 0 0 0 0 0 0 0 0 0 0 127 0" result="hardAlpha"/>
<feOffset/>
<feGaussianBlur stdDeviation="3.15"/>
<feComposite in2="hardAlpha" operator="out"/>
<feColorMatrix type="matrix" values="0 0 0 0 1 0 0 0 0 1 0 0 0 0 1 0 0 0 0.25 0"/>
<feBlend mode="normal" in2="BackgroundImageFix" result="effect1_dropShadow_4_81"/>
<feBlend mode="normal" in="SourceGraphic" in2="effect1_dropShadow_4_81" result="shape"/>
</filter>
<filter id="filter7_d_4_81" x="29.3031" y="55.1307" width="17.2002" height="17.1146" filterUnits="userSpaceOnUse" color-interpolation-filters="sRGB">
<feFlood flood-opacity="0" result="BackgroundImageFix"/>
<feColorMatrix in="SourceAlpha" type="matrix" values="0 0 0 0 0 0 0 0 0 0 0 0 0 0 0 0 0 0 127 0" result="hardAlpha"/>
<feOffset/>
<feGaussianBlur stdDeviation="3.15"/>
<feComposite in2="hardAlpha" operator="out"/>
<feColorMatrix type="matrix" values="0 0 0 0 1 0 0 0 0 1 0 0 0 0 1 0 0 0 0.25 0"/>
<feBlend mode="normal" in2="BackgroundImageFix" result="effect1_dropShadow_4_81"/>
<feBlend mode="normal" in="SourceGraphic" in2="effect1_dropShadow_4_81" result="shape"/>
</filter>
<filter id="filter8_d_4_81" x="52.622" y="15.253" width="17.1974" height="17.1401" filterUnits="userSpaceOnUse" color-interpolation-filters="sRGB">
<feFlood flood-opacity="0" result="BackgroundImageFix"/>
<feColorMatrix in="SourceAlpha" type="matrix" values="0 0 0 0 0 0 0 0 0 0 0 0 0 0 0 0 0 0 127 0" result="hardAlpha"/>
<feOffset/>
<feGaussianBlur stdDeviation="3.15"/>
<feComposite in2="hardAlpha" operator="out"/>
<feColorMatrix type="matrix" values="0 0 0 0 1 0 0 0 0 1 0 0 0 0 1 0 0 0 0.25 0"/>
<feBlend mode="normal" in2="BackgroundImageFix" result="effect1_dropShadow_4_81"/>
<feBlend mode="normal" in="SourceGraphic" in2="effect1_dropShadow_4_81" result="shape"/>
</filter>
<filter id="filter9_d_4_81" x="6.37738" y="15.253" width="17.1974" height="17.1401" filterUnits="userSpaceOnUse" color-interpolation-filters="sRGB">
<feFlood flood-opacity="0" result="BackgroundImageFix"/>
<feColorMatrix in="SourceAlpha" type="matrix" values="0 0 0 0 0 0 0 0 0 0 0 0 0 0 0 0 0 0 127 0" result="hardAlpha"/>
<feOffset/>
<feGaussianBlur stdDeviation="3.15"/>
<feComposite in2="hardAlpha" operator="out"/>
<feColorMatrix type="matrix" values="0 0 0 0 1 0 0 0 0 1 0 0 0 0 1 0 0 0 0.25 0"/>
<feBlend mode="normal" in2="BackgroundImageFix" result="effect1_dropShadow_4_81"/>
<feBlend mode="normal" in="SourceGraphic" in2="effect1_dropShadow_4_81" result="shape"/>
</filter>
<linearGradient id="paint0_linear_4_81" x1="44.0565" y1="0.762303" x2="41.387" y2="14.4028" gradientUnits="userSpaceOnUse">
<stop stop-color="#EC5871"/>
<stop offset="1" stop-color="#AA0D3C"/>
</linearGradient>
<linearGradient id="paint1_linear_4_81" x1="41.0264" y1="6.87398" x2="33.0607" y2="22.3326" gradientUnits="userSpaceOnUse">
<stop stop-color="#FD7984"/>
<stop offset="1" stop-color="#CB144B"/>
</linearGradient>
<linearGradient id="paint2_linear_4_81" x1="81.2409" y1="16.0839" x2="69.2336" y2="12.7628" gradientUnits="userSpaceOnUse">
<stop stop-color="#B43250"/>
<stop offset="1" stop-color="#7A0729"/>
</linearGradient>
<linearGradient id="paint3_linear_4_81" x1="78.1752" y1="33.9667" x2="66.1679" y2="30.6455" gradientUnits="userSpaceOnUse">
<stop stop-color="#B2314F"/>
<stop offset="1" stop-color="#730B2A"/>
</linearGradient>
<linearGradient id="paint4_linear_4_81" x1="80.219" y1="24.2586" x2="68.2117" y2="20.9375" gradientUnits="userSpaceOnUse">
<stop stop-color="#EF5C74"/>
<stop offset="1" stop-color="#7E0C2E"/>
</linearGradient>
<linearGradient id="paint5_linear_4_81" x1="4.5986" y1="12.2518" x2="11.2409" y2="32.1788" gradientUnits="userSpaceOnUse">
<stop stop-color="#FF9FA7"/>
<stop offset="1" stop-color="#CA144B"/>
</linearGradient>
<linearGradient id="paint6_linear_4_81" x1="7.66429" y1="28.6017" x2="14.3066" y2="48.5287" gradientUnits="userSpaceOnUse">
<stop stop-color="#FD7984"/>
<stop offset="1" stop-color="#CB144B"/>
</linearGradient>
<linearGradient id="paint7_linear_4_81" x1="5.6205" y1="19.9156" x2="12.2628" y2="39.8426" gradientUnits="userSpaceOnUse">
<stop stop-color="#F16277"/>
<stop offset="1" stop-color="#CB144B"/>
</linearGradient>
<linearGradient id="paint8_linear_4_81" x1="24.2728" y1="8.16415" x2="54.1995" y2="11.0624" gradientUnits="userSpaceOnUse">
<stop stop-color="#FD7984"/>
<stop offset="1" stop-color="#AA0D3C"/>
</linearGradient>
<linearGradient id="paint9_linear_4_81" x1="25.1385" y1="10.3139" x2="53.7644" y2="11.8645" gradientUnits="userSpaceOnUse">
<stop stop-color="#FD7984"/>
<stop offset="1" stop-color="#CB144B"/>
</linearGradient>
<linearGradient id="paint10_linear_4_81" x1="37.1822" y1="22.0543" x2="50.3506" y2="22.8162" gradientUnits="userSpaceOnUse">
<stop stop-color="#FD94A1"/>
<stop offset="1" stop-color="#E9386D"/>
</linearGradient>
<linearGradient id="paint11_linear_4_81" x1="25.1102" y1="22.0542" x2="32.087" y2="7.58037" gradientUnits="userSpaceOnUse">
<stop stop-color="#FF9FA7"/>
<stop offset="0.9999" stop-color="#1C6A8B"/>
<stop offset="1" stop-color="#1A6889"/>
<stop offset="1" stop-color="#216F91"/>
<stop offset="1" stop-color="#0A8593"/>
</linearGradient>
<linearGradient id="paint12_linear_4_81" x1="37.8103" y1="59.0036" x2="38.3084" y2="46.93" gradientUnits="userSpaceOnUse">
<stop stop-color="#CC164C"/>
<stop offset="0.994792" stop-color="#E74D6B"/>
</linearGradient>
<linearGradient id="paint13_linear_4_81" x1="40.1769" y1="14.8066" x2="34.9769" y2="14.4966" gradientUnits="userSpaceOnUse">
<stop offset="0.0001" stop-color="#AA0D3C"/>
<stop offset="1" stop-color="#FF9FA7"/>
</linearGradient>
<linearGradient id="paint14_linear_4_81" x1="40.1769" y1="67.9453" x2="34.9769" y2="67.6353" gradientUnits="userSpaceOnUse">
<stop stop-color="#CB144B"/>
<stop offset="1" stop-color="#FF9FA7"/>
</linearGradient>
<linearGradient id="paint15_linear_4_81" x1="63.9136" y1="17.3742" x2="66.5777" y2="23.1825" gradientUnits="userSpaceOnUse">
<stop stop-color="#FF9FA7"/>
<stop offset="1" stop-color="#AA0D3C"/>
</linearGradient>
<linearGradient id="paint16_linear_4_81" x1="17.669" y1="17.3742" x2="20.3331" y2="23.1825" gradientUnits="userSpaceOnUse">
<stop stop-color="#FF9FA7"/>
<stop offset="1" stop-color="#AA0D3C"/>
</linearGradient>
<clipPath id="clip0_4_81">
<rect width="76.6126" height="70" fill="white" transform="translate(0 0.5)"/>
</clipPath>
<clipPath id="clip1_4_81">
<rect width="76.6126" height="70" fill="white" transform="translate(0 0.5)"/>
</clipPath>
<clipPath id="clip2_4_81">
<rect width="76.6126" height="70" fill="white" transform="translate(0 0.5)"/>
</clipPath>
<clipPath id="clip3_4_81">
<rect width="66.0766" height="70" fill="white" transform="translate(5.45734 0.5)"/>
</clipPath>
</defs>
</svg>
