<svg width="41" height="46" viewBox="0 0 41 46" fill="none" xmlns="http://www.w3.org/2000/svg">
<path d="M17.445 2.5935L2.99613 11.8981C1.25692 13.0181 0.206055 14.9441 0.206055 17.0115V34.9237C0.206055 37.5324 1.87063 39.8507 4.3438 40.6864L18.8121 45.5756C20.0946 46.009 21.4851 46.0029 22.7638 45.5583L36.7072 40.7095C39.1543 39.8585 40.7943 37.5531 40.7943 34.9641V16.9599C40.7943 14.9208 39.7718 13.0173 38.0711 11.8902L24.1082 2.63719C22.0929 1.30168 19.4777 1.28453 17.445 2.5935Z" fill="url(#paint0_linear_637_3016)"/>
<g filter="url(#filter0_i_637_3016)">
<path d="M17.4225 4.30527L4.30603 12.7648C2.56888 13.8852 1.51953 15.81 1.51953 17.8759V33.9123C1.51953 36.6446 3.3428 39.0418 5.97754 39.7734L19.1181 43.4225C20.1997 43.7228 21.3432 43.7185 22.4225 43.4101L35.0665 39.7969C37.6795 39.0502 39.4807 36.6636 39.4807 33.9481V17.8243C39.4807 15.7867 38.4597 13.8844 36.7611 12.757L24.0929 4.34903C22.076 3.01039 19.4569 2.99321 17.4225 4.30527Z" fill="url(#paint1_linear_637_3016)"/>
</g>
<g filter="url(#filter1_d_637_3016)">
<path d="M15.9759 24.1947C15.9592 24.0433 15.9759 23.8808 15.9703 23.7126C15.9703 23.6285 15.9871 23.5332 16.0149 23.4435C16.0372 23.3594 16.0372 23.2697 16.054 23.1912C16.0874 23.0399 16.132 22.8941 16.1655 22.7428C16.2212 22.4961 16.3272 22.2663 16.4219 22.0308C16.5167 21.7898 16.6505 21.5655 16.7843 21.3413C16.9126 21.1227 17.0687 20.9265 17.2359 20.7303C17.4701 20.4668 17.721 20.2145 17.9607 19.9567C18.128 19.7773 18.3008 19.6091 18.4681 19.4353C18.7914 19.1102 19.1204 18.7851 19.4326 18.4487C19.7671 18.0955 20.1072 17.7536 20.4473 17.4004C20.5978 17.2435 20.765 17.0977 20.91 16.9295C21.1497 16.6492 21.4229 16.4026 21.6794 16.1391C21.8243 15.9934 21.9693 15.8476 22.1087 15.6963C22.4432 15.3319 22.8112 15.0011 23.1457 14.6312C23.4244 14.3228 23.7311 14.0369 24.0154 13.7342C24.2328 13.5044 24.4503 13.2802 24.6621 13.0559C24.8461 12.8653 25.0468 12.7028 25.2475 12.5346C25.4482 12.3664 25.6657 12.2319 25.8887 12.0973C26.1284 11.9572 26.3905 11.8451 26.6525 11.7498C26.7696 11.7105 26.8811 11.6545 26.9982 11.632C27.0985 11.6152 27.1933 11.5816 27.2936 11.5704C27.4498 11.5536 27.6003 11.5199 27.7564 11.4975C27.9906 11.4639 28.2303 11.4639 28.4644 11.4639C28.7655 11.4639 29.061 11.5087 29.3509 11.5648C29.6743 11.6264 29.9865 11.7161 30.282 11.8507C30.5719 11.9796 30.8562 12.1366 31.1238 12.316C31.4305 12.529 31.7148 12.77 31.9768 13.0391C32.211 13.2745 32.4006 13.5436 32.5901 13.8127C32.8299 14.1659 33.0027 14.5583 33.1476 14.9619C33.2703 15.3095 33.3484 15.6626 33.393 16.027C33.4153 16.2344 33.4431 16.4418 33.4376 16.6549C33.432 16.8735 33.4376 17.0921 33.4041 17.3107C33.3651 17.563 33.3316 17.8209 33.2647 18.0675C33.1811 18.3702 33.0807 18.6673 32.9469 18.9476C32.7184 19.4522 32.4173 19.9006 32.0437 20.3098C31.7873 20.5957 31.5141 20.8704 31.2465 21.1395C30.9733 21.4086 30.7113 21.6889 30.4548 21.9692C30.3433 22.0925 30.2318 22.2158 30.1036 22.3223C30.0311 22.3896 29.9642 22.4681 29.8973 22.5354C29.8471 22.5858 29.7969 22.6307 29.7468 22.6811C29.468 22.9726 29.1837 23.2529 28.9105 23.55C28.7599 23.7126 28.6094 23.8751 28.4589 24.0321C28.2024 24.2956 27.946 24.5591 27.6839 24.8225C27.4219 25.086 27.1543 25.3439 26.9034 25.6186C26.5577 25.9941 26.1953 26.3585 25.8441 26.7341C25.6211 26.9696 25.3813 27.1938 25.1528 27.4236C24.9242 27.6535 24.6956 27.8833 24.467 28.1131C24.3388 28.2421 24.1882 28.3486 24.0489 28.4607C23.8537 28.6121 23.6474 28.7466 23.43 28.8587C23.0899 29.0325 22.7331 29.1726 22.3651 29.2792C22.1421 29.3408 21.908 29.3745 21.6794 29.4193C21.6181 29.4305 21.5512 29.4305 21.4898 29.4361C21.1888 29.4585 20.8877 29.4305 20.5866 29.4305C20.4974 29.4305 20.4082 29.4025 20.319 29.3913C20.2131 29.3745 20.1072 29.3464 20.0012 29.324C19.8173 29.2848 19.6389 29.2287 19.4604 29.1782C19.2486 29.1166 19.0479 29.0157 18.8472 28.926C18.7134 28.8643 18.5963 28.7746 18.4681 28.7074C18.3621 28.6513 18.2673 28.584 18.1726 28.5168C18.0443 28.4159 17.9161 28.315 17.7934 28.214C17.6206 28.0683 17.4589 27.9057 17.3084 27.7376C17.2136 27.6254 17.1133 27.5189 17.0241 27.4012C16.868 27.1938 16.7397 26.9696 16.6171 26.7453C16.5 26.5267 16.3829 26.3081 16.3049 26.0726C16.2212 25.8372 16.1655 25.5961 16.093 25.3607C16.0651 25.2654 16.0651 25.1589 16.0428 25.058C15.9815 24.7721 15.9648 24.4918 15.9759 24.1947ZM19.1148 27.9394C19.1315 27.9113 19.1259 27.8889 19.1259 27.8665C19.1259 27.6086 19.1259 27.3508 19.1259 27.0985C19.1259 25.7699 19.1259 24.4469 19.1259 23.1184C19.1259 23.0735 19.1315 23.0455 19.1873 23.0455C19.5942 23.0455 20.0012 23.0455 20.4082 23.0511C20.464 23.0511 20.4863 23.0399 20.4807 22.9782C20.4807 22.4569 20.4807 21.9299 20.4807 21.4086C20.4807 21.0442 20.4807 20.6854 20.4807 20.3211C20.4807 20.2314 20.4807 20.2314 20.5755 20.2258C20.6257 20.2258 20.6814 20.2314 20.7316 20.2145C20.7595 20.2089 20.7985 20.2258 20.8041 20.2706C20.8041 20.3267 20.8152 20.3771 20.8152 20.4276C20.8152 21.274 20.8152 22.1205 20.8152 22.9726C20.8152 23.0287 20.832 23.0455 20.8877 23.0399C21.2947 23.0399 21.7017 23.0399 22.1087 23.0343C22.1644 23.0343 22.1812 23.0455 22.1812 23.1015C22.1812 24.6207 22.1812 26.1399 22.1812 27.6535C22.1812 27.8385 22.1812 28.0291 22.1812 28.214C22.1812 28.2589 22.1923 28.2757 22.2425 28.2589C22.3094 28.2365 22.3763 28.2253 22.4376 28.1972C22.5547 28.1468 22.6774 28.1019 22.7944 28.0403C22.9282 27.9674 23.0676 27.9057 23.2014 27.8272C23.3631 27.7319 23.5081 27.6254 23.6586 27.5077C23.7478 27.4404 23.8314 27.3732 23.7924 27.2386C23.7924 27.233 23.7924 27.2274 23.7924 27.2162C23.7924 24.9795 23.798 22.7372 23.798 20.5004C23.798 19.7997 23.798 19.099 23.798 18.3983C23.798 18.3086 23.798 18.3086 23.8872 18.3086C24.2774 18.3086 24.6733 18.3086 25.0636 18.3086C25.1305 18.3086 25.1528 18.2861 25.1528 18.2189C25.1472 17.7592 25.1528 17.2939 25.1528 16.8342C25.1528 16.4138 25.1528 15.9934 25.1528 15.5729C25.1528 15.5057 25.1751 15.4888 25.2364 15.4888C25.2977 15.4944 25.359 15.4944 25.4148 15.4888C25.465 15.4832 25.4761 15.5057 25.4761 15.5505C25.4761 16.425 25.4761 17.2995 25.4761 18.1796C25.4761 18.2077 25.4817 18.2357 25.4705 18.2581C25.4482 18.3086 25.4761 18.3086 25.5096 18.3086C25.6099 18.3086 25.7159 18.3086 25.8162 18.3086C26.1284 18.3086 26.4406 18.3086 26.7473 18.3086C26.803 18.3086 26.8253 18.3254 26.8253 18.3814C26.8198 18.4543 26.8198 18.5328 26.8198 18.6057C26.8198 20.4556 26.8198 22.2999 26.8198 24.1498C26.8198 24.1723 26.8198 24.1891 26.8253 24.2115C26.8421 24.2563 26.8532 24.2619 26.8867 24.2283C26.9536 24.1554 27.0205 24.0882 27.0874 24.0209C27.4442 23.6509 27.8066 23.2809 28.1634 22.9109C28.6038 22.4569 29.0443 22.0028 29.4903 21.5487C29.5237 21.5151 29.5349 21.4759 29.5349 21.431C29.5349 20.7583 29.5349 20.08 29.5349 19.4073C29.5349 19.3513 29.5182 19.3344 29.4624 19.3344C29.0721 19.34 28.6819 19.3344 28.2916 19.3344C28.1857 19.3344 28.1801 19.3569 28.1801 19.2279C28.1801 17.221 28.1801 15.2086 28.1801 13.2017C28.1801 13.1512 28.1578 13.1064 28.1634 13.0559C28.1913 12.8934 28.1745 12.7252 28.1745 12.5626C28.1745 12.4505 28.169 12.4505 28.063 12.4561C28.0463 12.4561 28.024 12.4561 28.0073 12.4561C27.8902 12.4673 27.7731 12.4673 27.656 12.4897C27.3996 12.5402 27.1431 12.6075 26.8922 12.7028C26.6023 12.8093 26.3291 12.9494 26.0782 13.1232C25.766 13.3362 25.4928 13.6053 25.2252 13.8744C24.9967 14.1042 24.7792 14.334 24.5506 14.5639C24.4559 14.6592 24.3611 14.7489 24.2719 14.8442C23.9931 15.1357 23.7143 15.4328 23.4356 15.7299C23.3687 15.8028 23.3018 15.8869 23.2293 15.9541C23.0788 16.0999 22.9394 16.2512 22.7889 16.397C22.3819 16.8006 21.9749 17.2098 21.5902 17.6359C21.3616 17.8881 21.1219 18.1236 20.8821 18.3646C20.4807 18.7739 20.0681 19.1775 19.6723 19.5923C19.2709 20.0127 18.875 20.4332 18.4681 20.848C18.1781 21.1451 17.8827 21.4366 17.6596 21.7954C17.498 22.0476 17.353 22.3111 17.2415 22.5914C17.0965 22.9558 17.0073 23.3314 16.9683 23.7182C16.9237 24.1498 16.9293 24.5815 17.0185 25.0075C17.0798 25.299 17.1634 25.5849 17.2694 25.8652C17.3251 26.0166 17.4088 26.1567 17.4868 26.2969C17.8827 27.0032 18.4179 27.547 19.1148 27.9394ZM31.2019 13.6333C31.1963 13.667 31.1963 13.6838 31.1963 13.7006C31.1963 14.5975 31.1963 15.4888 31.1963 16.3858C31.1963 17.3444 31.1963 18.303 31.1963 19.2672C31.1963 19.3288 31.1852 19.3569 31.1127 19.3569C30.7113 19.3513 30.3154 19.3569 29.914 19.3569C29.8527 19.3569 29.836 19.3793 29.836 19.4353C29.836 19.9847 29.836 20.5397 29.836 21.0891C29.836 21.1171 29.836 21.1451 29.836 21.1731C29.9809 21.033 30.1203 20.8985 30.2597 20.7583C30.4883 20.5229 30.7168 20.2874 30.9454 20.052C31.2242 19.7661 31.5085 19.4858 31.7315 19.1494C32.172 18.488 32.4061 17.7536 32.4563 16.9632C32.4842 16.5091 32.434 16.0606 32.3225 15.6178C32.2054 15.1525 32.0159 14.7208 31.7483 14.3228C31.5977 14.0706 31.4082 13.8632 31.2019 13.6333Z" fill="url(#paint2_linear_637_3016)"/>
</g>
<g filter="url(#filter2_d_637_3016)">
<path d="M15.1747 26.5574C15.1136 26.5351 15.0802 26.4905 15.0524 26.4516C14.9524 26.318 14.8301 26.201 14.7189 26.0786C14.5855 25.9282 14.4466 25.7779 14.3021 25.6332C14.0242 25.3492 13.7462 25.0653 13.4683 24.7813C13.3071 24.6143 13.146 24.4528 12.9848 24.2914C12.8514 24.1578 12.7291 24.013 12.5957 23.885C12.5346 23.8237 12.479 23.7513 12.4012 23.7012C12.3345 23.6623 12.3122 23.5787 12.2511 23.5231C12.0732 23.3616 11.9176 23.1835 11.7397 23.022C11.6008 22.8939 11.4896 22.7325 11.3507 22.6044C11.2617 22.5265 11.1839 22.4318 11.0894 22.3595C11.045 22.3316 11.0283 22.2704 10.9894 22.2314C10.806 22.0533 10.6225 21.8807 10.4502 21.6914C10.2168 21.4297 9.96111 21.1903 9.72766 20.9286C9.55536 20.7393 9.36638 20.5612 9.18852 20.3774C8.92728 20.1046 8.68828 19.8096 8.48262 19.4922C8.38258 19.3363 8.30476 19.1693 8.21583 19.0078C8.13246 18.8575 8.08243 18.696 8.01573 18.5457C7.9268 18.3564 7.89901 18.156 7.83787 17.9611C7.79897 17.8275 7.78229 17.6883 7.7545 17.5547C7.6878 17.1817 7.70448 16.8087 7.69336 16.4301C7.69336 16.3299 7.70448 16.2296 7.69892 16.1294C7.69892 16.0515 7.73227 15.968 7.74338 15.8845C7.7545 15.8344 7.74894 15.7787 7.7545 15.7286C7.76562 15.6451 7.79341 15.5671 7.81564 15.4836C7.88234 15.1997 7.97127 14.9269 8.07687 14.654C8.13802 14.4926 8.19916 14.3256 8.29364 14.1808C8.41593 13.9915 8.52709 13.7911 8.66049 13.6129C8.79388 13.4292 8.92728 13.2455 9.08847 13.084C9.22742 12.9393 9.37194 12.8001 9.52757 12.6664C9.77768 12.4437 10.05 12.2489 10.3446 12.0874C10.5225 11.9928 10.7059 11.9037 10.8893 11.8202C11.0227 11.7589 11.1561 11.7088 11.3006 11.6754C11.4118 11.6476 11.5118 11.5975 11.6286 11.5864C11.8064 11.5697 11.9732 11.5251 12.1455 11.4973C12.3956 11.4639 12.6457 11.4639 12.8958 11.4639C12.9959 11.4639 13.0959 11.4639 13.1904 11.4694C13.2905 11.475 13.3905 11.4917 13.4906 11.5084C13.6295 11.5307 13.7685 11.5864 13.913 11.5919C14.0408 11.5975 14.1464 11.6643 14.2632 11.6921C14.4855 11.7422 14.6856 11.848 14.8912 11.9371C15.1413 12.0485 15.3692 12.1876 15.5916 12.3435C15.7528 12.4549 15.9195 12.5662 16.0696 12.6999C16.1752 12.7945 16.2752 12.8947 16.3697 12.9949C16.681 13.3123 16.9922 13.6296 17.3035 13.947C17.6425 14.2977 17.9816 14.654 18.3262 14.9992C18.7486 15.4224 19.1544 15.8678 19.5824 16.2853C19.599 16.302 19.6157 16.3187 19.6324 16.3354C19.6546 16.3577 19.6491 16.38 19.6268 16.4022C19.4712 16.5581 19.3211 16.7085 19.1655 16.8643C19.1155 16.92 19.0543 16.9701 19.0099 17.0258C18.9709 17.0703 18.9432 17.0481 18.9154 17.0258C18.7931 16.9033 18.6597 16.7864 18.5541 16.6472C18.4429 16.508 18.2984 16.4078 18.1984 16.2631C18.1539 16.2018 18.0872 16.1573 18.0372 16.1016C17.826 15.8845 17.6203 15.6562 17.4035 15.4502C17.209 15.2609 17.0256 15.0549 16.831 14.86C16.6976 14.7264 16.5531 14.6039 16.4309 14.4592C16.2641 14.2588 16.0751 14.0862 15.8973 13.8969C15.7027 13.6909 15.5082 13.4849 15.2803 13.3123C15.1469 13.2121 15.008 13.1118 14.8579 13.0283C14.7356 12.956 14.6078 12.8947 14.4855 12.8279C14.3688 12.7667 14.2465 12.7166 14.1186 12.6776C14.013 12.6442 13.9019 12.6052 13.7907 12.5774C13.6184 12.5328 13.4461 12.505 13.2738 12.4772C13.1849 12.4605 13.0959 12.466 13.007 12.4604C12.9514 12.4549 12.9403 12.4772 12.9403 12.5273C12.9403 12.6999 12.9403 12.8724 12.9403 13.0395C12.9403 13.5795 12.9403 14.1196 12.9403 14.6596C12.9403 15.9568 12.9459 17.2596 12.9403 18.5569C12.9403 18.7796 12.9514 19.0023 12.9459 19.2305C12.9459 19.2751 12.9403 19.3029 12.8792 19.3029C12.479 19.3029 12.0788 19.3029 11.6786 19.3029C11.6119 19.3029 11.5952 19.3252 11.5952 19.4087C11.5952 20.0044 11.5952 20.5946 11.5952 21.1903C11.5952 21.2627 11.6008 21.335 11.5897 21.4074C11.5841 21.4353 11.5952 21.452 11.6119 21.4742C11.9898 21.8584 12.3678 22.2425 12.7458 22.6323C13.1571 23.0554 13.5684 23.4785 13.9797 23.9017C14.0797 24.0019 14.1853 24.0965 14.2909 24.1967C14.2909 24.0297 14.2909 23.8571 14.2909 23.6845C14.2909 21.9085 14.2909 20.138 14.2909 18.362C14.2909 18.3008 14.3132 18.2841 14.3688 18.2841C14.7689 18.2841 15.1691 18.2841 15.5693 18.2841C15.636 18.2841 15.6471 18.2618 15.6471 18.2005C15.6471 17.3264 15.6471 16.4579 15.6471 15.5838C15.6471 15.4836 15.6471 15.4836 15.7472 15.4836C15.7917 15.4836 15.8417 15.4892 15.8861 15.4836C15.9473 15.478 15.9695 15.5003 15.9695 15.5671C15.9695 15.8845 15.9695 16.2018 15.9695 16.5192C15.9695 17.087 15.9695 17.6494 15.9695 18.2172C15.9695 18.2785 15.9918 18.3008 16.0473 18.2785C16.0862 18.2618 16.1252 18.2841 16.1585 18.2841C16.5198 18.2841 16.8755 18.2841 17.2368 18.2841C17.2979 18.2841 17.3313 18.3008 17.3146 18.3676C17.2924 18.4956 17.3035 18.6237 17.3035 18.7462C17.3035 18.7796 17.2924 18.8018 17.2701 18.8241C17.1423 18.9466 17.0311 19.0746 16.9033 19.1971C16.7643 19.3363 16.6254 19.4755 16.4864 19.6203C16.3308 19.7761 16.1918 19.9432 16.0585 20.1158C15.964 20.2382 15.875 20.3607 15.7917 20.4888C15.6471 20.7059 15.5082 20.9286 15.397 21.168C15.2914 21.3907 15.1914 21.619 15.108 21.8528C15.0357 22.0588 14.9579 22.2592 14.9135 22.4708C14.8746 22.6601 14.8245 22.8438 14.7967 23.0331C14.7801 23.1612 14.7689 23.2892 14.7523 23.4173C14.73 23.5899 14.7245 23.7569 14.7134 23.9295C14.7023 24.091 14.6967 24.2524 14.7189 24.4139C14.73 24.4918 14.7245 24.5753 14.73 24.6533C14.7467 24.8092 14.7634 24.9651 14.7856 25.1154C14.8245 25.3938 14.8968 25.6666 14.969 25.9338C15.008 26.0786 15.0524 26.2177 15.1136 26.3514C15.1302 26.4182 15.1636 26.4794 15.1747 26.5574ZM11.245 21.0734C11.245 21.0622 11.2506 21.0567 11.2506 21.0511C11.2506 20.5055 11.2506 19.9599 11.2506 19.4143C11.2506 19.2751 11.2506 19.2806 11.1172 19.2862C10.7337 19.3029 10.3557 19.2918 9.97222 19.2918C9.9222 19.2918 9.89997 19.2751 9.89997 19.2194C9.89997 17.3988 9.89997 15.5727 9.89997 13.7521C9.89997 13.7187 9.91664 13.6686 9.88885 13.6575C9.86106 13.6463 9.84438 13.6964 9.82215 13.7187C9.57203 13.9581 9.37749 14.2421 9.20519 14.5371C8.97175 14.9436 8.82167 15.3778 8.72718 15.8344C8.63825 16.2631 8.6327 16.6973 8.66604 17.1316C8.68272 17.3431 8.73274 17.5491 8.77721 17.7551C8.88837 18.2172 9.08847 18.6459 9.3497 19.0412C9.56647 19.3753 9.83882 19.6592 10.1223 19.9432C10.2779 20.1046 10.4336 20.2661 10.5892 20.4275C10.7782 20.6168 10.9671 20.8061 11.1506 21.001C11.1784 21.0288 11.2061 21.0567 11.245 21.0734Z" fill="url(#paint3_linear_637_3016)"/>
</g>
<path d="M0.206055 36.9615C0.206055 36.9615 9.34189 39.9326 20.4304 39.9326C31.519 39.9326 40.7943 36.9615 40.7943 36.9615V26.6766C40.7943 26.6766 28.6083 30.6868 20.4304 30.6763C12.3055 30.6659 0.206055 26.6766 0.206055 26.6766V36.9615Z" fill="url(#paint4_linear_637_3016)"/>
<path d="M19.0972 33.907H20.2399V37.7132H19.0972V33.907Z" fill="#E6FEFF"/>
<path d="M21.312 33.907H22.4548V37.7132H21.312V33.907Z" fill="#E6FEFF"/>
<g filter="url(#filter3_d_637_3016)">
<path d="M21.0548 5.10289C20.8985 5.37326 20.508 5.37326 20.3518 5.10289L18.067 1.14872C17.9108 0.878348 18.106 0.540386 18.4185 0.540386L22.988 0.540386C23.3005 0.540386 23.4958 0.878349 23.3395 1.14872L21.0548 5.10289Z" fill="url(#paint5_linear_637_3016)"/>
</g>
<defs>
<filter id="filter0_i_637_3016" x="1.51953" y="3.33301" width="39.9609" height="41.3115" filterUnits="userSpaceOnUse" color-interpolation-filters="sRGB">
<feFlood flood-opacity="0" result="BackgroundImageFix"/>
<feBlend mode="normal" in="SourceGraphic" in2="BackgroundImageFix" result="shape"/>
<feColorMatrix in="SourceAlpha" type="matrix" values="0 0 0 0 0 0 0 0 0 0 0 0 0 0 0 0 0 0 127 0" result="hardAlpha"/>
<feOffset dx="2" dy="1"/>
<feGaussianBlur stdDeviation="1"/>
<feComposite in2="hardAlpha" operator="arithmetic" k2="-1" k3="1"/>
<feColorMatrix type="matrix" values="0 0 0 0 0 0 0 0 0 0 0 0 0 0 0 0 0 0 0.25 0"/>
<feBlend mode="normal" in2="shape" result="effect1_innerShadow_637_3016"/>
</filter>
<filter id="filter1_d_637_3016" x="15.3683" y="11.4639" width="20.6702" height="21.581" filterUnits="userSpaceOnUse" color-interpolation-filters="sRGB">
<feFlood flood-opacity="0" result="BackgroundImageFix"/>
<feColorMatrix in="SourceAlpha" type="matrix" values="0 0 0 0 0 0 0 0 0 0 0 0 0 0 0 0 0 0 127 0" result="hardAlpha"/>
<feOffset dx="1" dy="2"/>
<feGaussianBlur stdDeviation="0.8"/>
<feComposite in2="hardAlpha" operator="out"/>
<feColorMatrix type="matrix" values="0 0 0 0 0 0 0 0 0 0 0 0 0 0 0 0 0 0 0.25 0"/>
<feBlend mode="normal" in2="BackgroundImageFix" result="effect1_dropShadow_637_3016"/>
<feBlend mode="normal" in="SourceGraphic" in2="effect1_dropShadow_637_3016" result="shape"/>
</filter>
<filter id="filter2_d_637_3016" x="7.09336" y="11.4639" width="15.1531" height="18.6935" filterUnits="userSpaceOnUse" color-interpolation-filters="sRGB">
<feFlood flood-opacity="0" result="BackgroundImageFix"/>
<feColorMatrix in="SourceAlpha" type="matrix" values="0 0 0 0 0 0 0 0 0 0 0 0 0 0 0 0 0 0 127 0" result="hardAlpha"/>
<feOffset dx="1" dy="2"/>
<feGaussianBlur stdDeviation="0.8"/>
<feComposite in2="hardAlpha" operator="out"/>
<feColorMatrix type="matrix" values="0 0 0 0 0 0 0 0 0 0 0 0 0 0 0 0 0 0 0.25 0"/>
<feBlend mode="normal" in2="BackgroundImageFix" result="effect1_dropShadow_637_3016"/>
<feBlend mode="normal" in="SourceGraphic" in2="effect1_dropShadow_637_3016" result="shape"/>
</filter>
<filter id="filter3_d_637_3016" x="17.7122" y="0.240283" width="7.98232" height="7.36538" filterUnits="userSpaceOnUse" color-interpolation-filters="sRGB">
<feFlood flood-opacity="0" result="BackgroundImageFix"/>
<feColorMatrix in="SourceAlpha" type="matrix" values="0 0 0 0 0 0 0 0 0 0 0 0 0 0 0 0 0 0 127 0" result="hardAlpha"/>
<feOffset dx="1" dy="1"/>
<feGaussianBlur stdDeviation="0.65"/>
<feComposite in2="hardAlpha" operator="out"/>
<feColorMatrix type="matrix" values="0 0 0 0 0 0 0 0 0 0 0 0 0 0 0 0 0 0 0.25 0"/>
<feBlend mode="normal" in2="BackgroundImageFix" result="effect1_dropShadow_637_3016"/>
<feBlend mode="normal" in="SourceGraphic" in2="effect1_dropShadow_637_3016" result="shape"/>
</filter>
<linearGradient id="paint0_linear_637_3016" x1="10.4403" y1="8.70745" x2="37.2513" y2="41.5836" gradientUnits="userSpaceOnUse">
<stop offset="0.207595" stop-color="#A1BABC"/>
<stop offset="0.961067" stop-color="#90A4A5"/>
</linearGradient>
<linearGradient id="paint1_linear_637_3016" x1="11.0914" y1="9.89026" x2="25.4283" y2="24.3182" gradientUnits="userSpaceOnUse">
<stop stop-color="#9DB8C6"/>
<stop offset="1" stop-color="#70828B"/>
<stop offset="1" stop-color="#545E60"/>
</linearGradient>
<linearGradient id="paint2_linear_637_3016" x1="24.7033" y1="11.4639" x2="24.7033" y2="29.4448" gradientUnits="userSpaceOnUse">
<stop stop-color="#E6FEFF"/>
<stop offset="1" stop-color="#6A8B9C"/>
</linearGradient>
<linearGradient id="paint3_linear_637_3016" x1="13.6699" y1="11.4639" x2="13.6699" y2="26.5574" gradientUnits="userSpaceOnUse">
<stop stop-color="#E6FEFF"/>
<stop offset="1" stop-color="#6A8B9C"/>
</linearGradient>
<linearGradient id="paint4_linear_637_3016" x1="25.6755" y1="29.564" x2="25.6755" y2="39.9326" gradientUnits="userSpaceOnUse">
<stop stop-color="#6A8B9C"/>
<stop offset="1" stop-color="#4C6D72"/>
</linearGradient>
<linearGradient id="paint5_linear_637_3016" x1="20.7033" y1="5.71122" x2="20.7033" y2="-1.18323" gradientUnits="userSpaceOnUse">
<stop stop-color="#52737A"/>
<stop offset="1" stop-color="#E0F8FA"/>
</linearGradient>
</defs>
</svg>
