<svg width="69" height="72" viewBox="0 0 69 72" fill="none" xmlns="http://www.w3.org/2000/svg">
<g clip-path="url(#clip0_7_38)">
<g clip-path="url(#clip1_7_38)">
<g clip-path="url(#clip2_7_38)">
<g clip-path="url(#clip3_7_38)">
<path d="M60.2922 52.3987V27.5912L69 16.292L57.3571 20.2336L38.2869 10.1514L33.2518 0L29.5169 10.1514L9.60399 20.2336L4.80199 18.2628L0 16.292L6.93673 27.5912V52.3488C6.93673 55.8362 9.26297 58.9091 12.6562 59.9043L25.4976 63.6703C27.0719 64.1319 28.4638 65.0595 29.4844 66.3271L34.0522 72L38.3604 66.4062C39.3752 65.0885 40.785 64.1187 42.3903 63.6338L54.6352 59.9355C57.997 58.9201 60.2922 55.8623 60.2922 52.3987Z" fill="url(#paint0_linear_7_38)"/>
<g filter="url(#filter0_i_7_38)">
<path d="M29.5688 12.8938L12.3265 23.8563C10.0429 25.3082 8.66348 27.8024 8.66348 30.4796V51.2606C8.66348 54.8015 11.0603 57.9079 14.5238 58.856L31.7978 63.5847C33.2195 63.9739 34.7228 63.9683 36.1415 63.5687L52.7629 58.8864C56.1977 57.9188 58.5655 54.826 58.5655 51.307V30.4127C58.5655 27.7723 57.2234 25.3071 54.9905 23.8462L38.3374 12.9505C35.686 11.2158 32.2431 11.1936 29.5688 12.8938Z" fill="url(#paint1_linear_7_38)"/>
</g>
<g filter="url(#filter1_d_7_38)">
<path d="M27.6674 38.668C27.6454 38.4718 27.6674 38.2612 27.66 38.0432C27.66 37.9343 27.682 37.8108 27.7187 37.6945C27.748 37.5856 27.748 37.4693 27.77 37.3676C27.8139 37.1715 27.8726 36.9826 27.9165 36.7865C27.9898 36.4669 28.1291 36.169 28.2537 35.8639C28.3783 35.5515 28.5542 35.261 28.7301 34.9704C28.8986 34.6871 29.1038 34.4328 29.3237 34.1786C29.6315 33.8371 29.9613 33.5102 30.2765 33.1761C30.4963 32.9436 30.7235 32.7257 30.9434 32.5005C31.3685 32.0792 31.8009 31.6578 32.2113 31.222C32.651 30.7643 33.0981 30.3212 33.5452 29.8635C33.7431 29.6601 33.9629 29.4712 34.1535 29.2533C34.4686 28.8901 34.8277 28.5704 35.1649 28.229C35.3554 28.0401 35.546 27.8513 35.7292 27.6551C36.1689 27.1829 36.6527 26.7543 37.0924 26.2749C37.4588 25.8754 37.8619 25.5049 38.2357 25.1126C38.5215 24.8147 38.8074 24.5242 39.0859 24.2336C39.3277 23.9866 39.5916 23.7759 39.8554 23.558C40.1192 23.3401 40.4051 23.1657 40.6982 22.9914C41.0134 22.8098 41.3578 22.6645 41.7023 22.541C41.8562 22.4901 42.0028 22.4175 42.1567 22.3884C42.2886 22.3666 42.4132 22.3231 42.5451 22.3085C42.7503 22.2867 42.9482 22.2431 43.1534 22.2141C43.4613 22.1705 43.7764 22.1705 44.0842 22.1705C44.48 22.1705 44.8684 22.2286 45.2495 22.3013C45.6746 22.3812 46.085 22.4974 46.4735 22.6717C46.8546 22.8388 47.2283 23.0422 47.5801 23.2747C47.9832 23.5507 48.357 23.8631 48.7015 24.2118C49.0093 24.5169 49.2585 24.8656 49.5076 25.2143C49.8228 25.6719 50.05 26.1805 50.2405 26.7035C50.4018 27.1539 50.5044 27.6115 50.563 28.0837C50.5923 28.3525 50.629 28.6213 50.6216 28.8973C50.6143 29.1807 50.6216 29.464 50.5777 29.7473C50.5264 30.0742 50.4824 30.4083 50.3944 30.728C50.2845 31.1203 50.1526 31.5053 49.9767 31.8685C49.6762 32.5223 49.2804 33.1034 48.7894 33.6337C48.4523 34.0042 48.0932 34.3602 47.7414 34.7089C47.3822 35.0576 47.0378 35.4208 46.7007 35.784C46.5541 35.9438 46.4075 36.1036 46.2389 36.2417C46.1436 36.3288 46.0557 36.4305 45.9678 36.5177C45.9018 36.5831 45.8358 36.6412 45.7699 36.7066C45.4034 37.0843 45.0296 37.4476 44.6705 37.8326C44.4726 38.0432 44.2748 38.2539 44.0769 38.4573C43.7398 38.7987 43.4026 39.1402 43.0582 39.4816C42.7137 39.823 42.3619 40.1572 42.0321 40.5131C41.5777 40.9999 41.1013 41.472 40.6396 41.9588C40.3464 42.2639 40.0313 42.5544 39.7308 42.8523C39.4303 43.1501 39.1298 43.448 38.8294 43.7458C38.6608 43.9129 38.4629 44.0509 38.2797 44.1962C38.0232 44.3923 37.752 44.5667 37.4662 44.712C37.0191 44.9372 36.5501 45.1188 36.0663 45.2568C35.7732 45.3367 35.4654 45.3803 35.1649 45.4384C35.0843 45.4529 34.9963 45.4529 34.9157 45.4602C34.5199 45.4893 34.1242 45.4529 33.7284 45.4529C33.6111 45.4529 33.4939 45.4166 33.3766 45.4021C33.2374 45.3803 33.0981 45.344 32.9589 45.3149C32.717 45.2641 32.4825 45.1914 32.248 45.126C31.9695 45.0461 31.7056 44.9154 31.4418 44.7991C31.2659 44.7192 31.112 44.603 30.9434 44.5158C30.8042 44.4432 30.6796 44.356 30.555 44.2688C30.3864 44.1381 30.2178 44.0073 30.0566 43.8766C29.8294 43.6877 29.6169 43.477 29.419 43.2591C29.2944 43.1138 29.1625 42.9758 29.0452 42.8232C28.84 42.5544 28.6714 42.2639 28.5102 41.9733C28.3563 41.69 28.2024 41.4067 28.0998 41.1016C27.9898 40.7964 27.9165 40.4841 27.8213 40.179C27.7846 40.0555 27.7846 39.9175 27.7553 39.7867C27.6747 39.4162 27.6527 39.053 27.6674 38.668ZM31.7936 43.5206C31.8155 43.4843 31.8082 43.4552 31.8082 43.4262C31.8082 43.092 31.8082 42.7578 31.8082 42.4309C31.8082 40.7093 31.8082 38.9949 31.8082 37.2732C31.8082 37.2151 31.8155 37.1788 31.8888 37.1788C32.4238 37.1788 32.9589 37.1788 33.4939 37.186C33.5672 37.186 33.5965 37.1715 33.5892 37.0916C33.5892 36.416 33.5892 35.7332 33.5892 35.0576C33.5892 34.5854 33.5892 34.1205 33.5892 33.6483C33.5892 33.532 33.5892 33.532 33.7137 33.5248C33.7797 33.5248 33.853 33.532 33.919 33.5102C33.9556 33.503 34.0069 33.5248 34.0142 33.5829C34.0142 33.6555 34.0289 33.7209 34.0289 33.7863C34.0289 34.8832 34.0289 35.9801 34.0289 37.0843C34.0289 37.157 34.0509 37.1788 34.1242 37.1715C34.6592 37.1715 35.1942 37.1715 35.7292 37.1642C35.8025 37.1642 35.8245 37.1788 35.8245 37.2514C35.8245 39.2201 35.8245 41.1887 35.8245 43.1501C35.8245 43.3898 35.8245 43.6368 35.8245 43.8766C35.8245 43.9347 35.8391 43.9565 35.9051 43.9347C35.993 43.9056 36.081 43.8911 36.1616 43.8548C36.3155 43.7894 36.4768 43.7313 36.6307 43.6514C36.8066 43.5569 36.9898 43.477 37.1657 43.3753C37.3782 43.2518 37.5688 43.1138 37.7667 42.9612C37.8839 42.8741 37.9939 42.7869 37.9426 42.6126C37.9426 42.6053 37.9426 42.598 37.9426 42.5835C37.9426 39.685 37.9499 36.7792 37.9499 33.8807C37.9499 32.9727 37.9499 32.0646 37.9499 31.1566C37.9499 31.0403 37.9499 31.0403 38.0671 31.0403C38.5802 31.0403 39.1005 31.0403 39.6136 31.0403C39.7015 31.0403 39.7308 31.0113 39.7308 30.9241C39.7235 30.3284 39.7308 29.7255 39.7308 29.1298C39.7308 28.585 39.7308 28.0401 39.7308 27.4953C39.7308 27.4081 39.7601 27.3863 39.8408 27.3863C39.9214 27.3936 40.002 27.3936 40.0753 27.3863C40.1412 27.3791 40.1559 27.4081 40.1559 27.4663C40.1559 28.5995 40.1559 29.7328 40.1559 30.8733C40.1559 30.9096 40.1632 30.9459 40.1486 30.975C40.1193 31.0403 40.1559 31.0403 40.1999 31.0403C40.3318 31.0403 40.471 31.0403 40.603 31.0403C41.0134 31.0403 41.4238 31.0403 41.8269 31.0403C41.9002 31.0403 41.9295 31.0621 41.9295 31.1348C41.9222 31.2292 41.9222 31.3309 41.9222 31.4254C41.9222 33.8226 41.9222 36.2126 41.9222 38.6099C41.9222 38.6389 41.9222 38.6607 41.9295 38.6898C41.9515 38.7479 41.9661 38.7552 42.0101 38.7116C42.0981 38.6171 42.186 38.53 42.274 38.4428C42.743 37.9633 43.2194 37.4839 43.6885 37.0044C44.2674 36.416 44.8464 35.8276 45.4327 35.2392C45.4767 35.1956 45.4914 35.1447 45.4914 35.0866C45.4914 34.2149 45.4914 33.3359 45.4914 32.4642C45.4914 32.3915 45.4694 32.3697 45.3961 32.3697C44.8831 32.377 44.37 32.3697 43.857 32.3697C43.7178 32.3697 43.7104 32.3988 43.7104 32.2317C43.7104 29.6311 43.7104 27.0231 43.7104 24.4225C43.7104 24.3571 43.6811 24.299 43.6885 24.2336C43.7251 24.0229 43.7031 23.805 43.7031 23.5943C43.7031 23.449 43.6958 23.449 43.5565 23.4563C43.5345 23.4563 43.5052 23.4563 43.4832 23.4563C43.3293 23.4708 43.1754 23.4708 43.0215 23.4999C42.6844 23.5653 42.3473 23.6524 42.0174 23.7759C41.6363 23.914 41.2772 24.0956 40.9474 24.3208C40.537 24.5968 40.1779 24.9455 39.8261 25.2942C39.5256 25.592 39.2398 25.8899 38.9393 26.1877C38.8147 26.3112 38.6901 26.4274 38.5728 26.5509C38.2064 26.9287 37.8399 27.3137 37.4735 27.6987C37.3855 27.7932 37.2976 27.9021 37.2023 27.9893C37.0044 28.1782 36.8212 28.3743 36.6233 28.5632C36.0883 29.0862 35.5533 29.6165 35.0476 30.1686C34.7471 30.4955 34.432 30.8006 34.1168 31.113C33.5892 31.6433 33.0468 32.1663 32.5265 32.7039C31.9988 33.2487 31.4784 33.7936 30.9434 34.3311C30.5623 34.7161 30.1739 35.0939 29.8807 35.5588C29.6682 35.8857 29.4776 36.2271 29.331 36.5904C29.1405 37.0625 29.0232 37.5493 28.9719 38.0505C28.9133 38.6099 28.9206 39.1692 29.0379 39.7213C29.1185 40.0991 29.2284 40.4696 29.3677 40.8328C29.441 41.0289 29.5509 41.2105 29.6535 41.3921C30.1739 42.3074 30.8774 43.0121 31.7936 43.5206ZM47.6827 24.9818C47.6754 25.0254 47.6754 25.0472 47.6754 25.069C47.6754 26.2313 47.6754 27.3863 47.6754 28.5487C47.6754 29.7909 47.6754 31.0331 47.6754 32.2826C47.6754 32.3625 47.6607 32.3988 47.5655 32.3988C47.0378 32.3915 46.5174 32.3988 45.9897 32.3988C45.9091 32.3988 45.8871 32.4278 45.8871 32.5005C45.8871 33.2124 45.8871 33.9316 45.8871 34.6435C45.8871 34.6798 45.8871 34.7161 45.8871 34.7525C46.0777 34.5708 46.2609 34.3965 46.4441 34.2149C46.7446 33.9098 47.0451 33.6047 47.3456 33.2996C47.712 32.9291 48.0858 32.5659 48.379 32.13C48.958 31.2728 49.2658 30.3212 49.3317 29.2969C49.3684 28.7085 49.3024 28.1273 49.1559 27.5534C49.0019 26.9505 48.7528 26.3911 48.401 25.8754C48.2031 25.5485 47.9539 25.2797 47.6827 24.9818Z" fill="url(#paint2_linear_7_38)"/>
</g>
<g filter="url(#filter2_d_7_38)">
<path d="M26.6135 41.7297C26.5331 41.7009 26.4893 41.6431 26.4527 41.5926C26.3212 41.4195 26.1605 41.268 26.0143 41.1092C25.839 40.9144 25.6563 40.7196 25.4663 40.5321C25.101 40.1641 24.7357 39.7962 24.3704 39.4282C24.1585 39.2118 23.9466 39.0025 23.7347 38.7933C23.5593 38.6201 23.3986 38.4326 23.2232 38.2666C23.1429 38.1873 23.0698 38.0935 22.9675 38.0285C22.8798 37.978 22.8506 37.8698 22.7702 37.7977C22.5364 37.5884 22.3318 37.3576 22.098 37.1483C21.9154 36.9824 21.7692 36.7732 21.5866 36.6072C21.4697 36.5062 21.3674 36.3836 21.2431 36.2898C21.1847 36.2537 21.1628 36.1743 21.1116 36.1238C20.8705 35.893 20.6294 35.6693 20.4029 35.424C20.096 35.0849 19.7599 34.7747 19.453 34.4356C19.2265 34.1903 18.9781 33.9594 18.7443 33.7213C18.4009 33.3678 18.0867 32.9854 17.8164 32.5742C17.6849 32.3722 17.5826 32.1557 17.4657 31.9465C17.3561 31.7517 17.2903 31.5425 17.2026 31.3477C17.0857 31.1024 17.0492 30.8426 16.9688 30.5901C16.9177 30.417 16.8957 30.2366 16.8592 30.0634C16.7715 29.5801 16.7935 29.0967 16.7788 28.6061C16.7788 28.4762 16.7935 28.3463 16.7861 28.2165C16.7861 28.1155 16.83 28.0072 16.8446 27.899C16.8592 27.8341 16.8519 27.7619 16.8592 27.697C16.8738 27.5888 16.9104 27.4878 16.9396 27.3796C17.0273 27.0116 17.1442 26.6581 17.283 26.3046C17.3634 26.0953 17.4437 25.8789 17.5679 25.6913C17.7287 25.446 17.8748 25.1863 18.0502 24.9554C18.2255 24.7173 18.4009 24.4792 18.6128 24.27C18.7955 24.0824 18.9854 23.902 19.19 23.7289C19.5188 23.4403 19.8768 23.1878 20.2641 22.9786C20.4979 22.8559 20.739 22.7405 20.9801 22.6322C21.1555 22.5529 21.3308 22.488 21.5208 22.4447C21.6669 22.4086 21.7984 22.3437 21.9519 22.3292C22.1857 22.3076 22.4049 22.2499 22.6314 22.2138C22.9602 22.1705 23.289 22.1705 23.6178 22.1705C23.7493 22.1705 23.8808 22.1705 24.005 22.1777C24.1365 22.1849 24.2681 22.2066 24.3996 22.2282C24.5822 22.2571 24.7649 22.3292 24.9549 22.3364C25.1229 22.3437 25.2618 22.4302 25.4152 22.4663C25.7075 22.5312 25.9705 22.6683 26.2408 22.7838C26.5696 22.9281 26.8692 23.1084 27.1615 23.3104C27.3734 23.4547 27.5926 23.599 27.7898 23.7722C27.9287 23.8948 28.0602 24.0247 28.1844 24.1546C28.5936 24.5658 29.0027 24.977 29.4119 25.3883C29.8576 25.8428 30.3033 26.3046 30.7563 26.7519C31.3116 27.3002 31.845 27.8774 32.4076 28.4185C32.4295 28.4401 32.4514 28.4618 32.4733 28.4834C32.5026 28.5123 32.4953 28.5411 32.466 28.57C32.2614 28.772 32.0642 28.9668 31.8596 29.1688C31.7938 29.241 31.7135 29.3059 31.655 29.378C31.6039 29.4358 31.5673 29.4069 31.5308 29.378C31.37 29.2193 31.1947 29.0678 31.0559 28.8874C30.9097 28.7071 30.7198 28.5772 30.5882 28.3896C30.5298 28.3103 30.4421 28.2525 30.3764 28.1804C30.0987 27.899 29.8284 27.6032 29.5434 27.3363C29.2877 27.091 29.0466 26.824 28.7908 26.5715C28.6155 26.3983 28.4255 26.2396 28.2648 26.052C28.0456 25.7923 27.7971 25.5687 27.5633 25.3234C27.3076 25.0564 27.0519 24.7895 26.7523 24.5658C26.5769 24.4359 26.3943 24.3061 26.197 24.1978C26.0363 24.1041 25.8682 24.0247 25.7075 23.9381C25.554 23.8588 25.3933 23.7938 25.2252 23.7433C25.0864 23.7 24.9403 23.6495 24.7941 23.6135C24.5676 23.5557 24.3411 23.5197 24.1146 23.4836C23.9977 23.4619 23.8808 23.4692 23.7639 23.4619C23.6908 23.4547 23.6762 23.4836 23.6762 23.5485C23.6762 23.7722 23.6762 23.9958 23.6762 24.2123C23.6762 24.9121 23.6762 25.6119 23.6762 26.3118C23.6762 27.9928 23.6835 29.6811 23.6762 31.3621C23.6762 31.6507 23.6908 31.9393 23.6835 32.2351C23.6835 32.2928 23.6762 32.3289 23.5959 32.3289C23.0698 32.3289 22.5437 32.3289 22.0176 32.3289C21.93 32.3289 21.908 32.3577 21.908 32.466C21.908 33.2379 21.908 34.0027 21.908 34.7747C21.908 34.8685 21.9154 34.9623 21.9007 35.0561C21.8934 35.0921 21.908 35.1138 21.93 35.1426C22.4268 35.6405 22.9237 36.1383 23.4205 36.6433C23.9612 37.1916 24.5019 37.7399 25.0426 38.2883C25.1741 38.4181 25.3129 38.5408 25.4517 38.6707C25.4517 38.4542 25.4517 38.2306 25.4517 38.0069C25.4517 35.7054 25.4517 33.4111 25.4517 31.1096C25.4517 31.0302 25.481 31.0086 25.554 31.0086C26.0801 31.0086 26.6062 31.0086 27.1322 31.0086C27.2199 31.0086 27.2345 30.9797 27.2345 30.9004C27.2345 29.7676 27.2345 28.6421 27.2345 27.5094C27.2345 27.3796 27.2345 27.3796 27.366 27.3796C27.4245 27.3796 27.4903 27.3868 27.5487 27.3796C27.6291 27.3723 27.6583 27.4012 27.6583 27.4878C27.6583 27.899 27.6583 28.3103 27.6583 28.7215C27.6583 29.4574 27.6583 30.1861 27.6583 30.922C27.6583 31.0014 27.6875 31.0302 27.7606 31.0014C27.8118 30.9797 27.8629 31.0086 27.9067 31.0086C28.3817 31.0086 28.8493 31.0086 29.3242 31.0086C29.4046 31.0086 29.4484 31.0302 29.4265 31.1168C29.3973 31.2827 29.4119 31.4487 29.4119 31.6074C29.4119 31.6507 29.3973 31.6796 29.368 31.7084C29.2 31.8671 29.0539 32.0331 28.8858 32.1918C28.7032 32.3722 28.5205 32.5525 28.3378 32.7401C28.1332 32.9421 27.9506 33.1586 27.7752 33.3822C27.651 33.541 27.5341 33.6997 27.4245 33.8656C27.2345 34.147 27.0519 34.4356 26.9057 34.7458C26.7669 35.0344 26.6354 35.3302 26.5258 35.6332C26.4308 35.9002 26.3285 36.1599 26.2701 36.4341C26.2189 36.6794 26.1532 36.9175 26.1166 37.1628C26.0947 37.3287 26.0801 37.4946 26.0582 37.6606C26.0289 37.8842 26.0216 38.1007 26.007 38.3243C25.9924 38.5336 25.9851 38.7428 26.0143 38.952C26.0289 39.053 26.0216 39.1613 26.0289 39.2623C26.0509 39.4643 26.0728 39.6663 26.102 39.8611C26.1532 40.2218 26.2481 40.5753 26.3431 40.9217C26.3943 41.1092 26.4527 41.2896 26.5331 41.4628C26.555 41.5493 26.5989 41.6287 26.6135 41.7297ZM21.4477 34.6232C21.4477 34.6087 21.455 34.6015 21.455 34.5943C21.455 33.8873 21.455 33.1802 21.455 32.4732C21.455 32.2928 21.455 32.3 21.2797 32.3072C20.7755 32.3289 20.2787 32.3145 19.7745 32.3145C19.7088 32.3145 19.6795 32.2928 19.6795 32.2207C19.6795 29.8614 19.6795 27.495 19.6795 25.1358C19.6795 25.0925 19.7015 25.0275 19.6649 25.0131C19.6284 24.9987 19.6065 25.0636 19.5773 25.0925C19.2485 25.4027 18.9927 25.7707 18.7662 26.153C18.4593 26.6797 18.2621 27.2425 18.1379 27.8341C18.021 28.3896 18.0136 28.9524 18.0575 29.5151C18.0794 29.7893 18.1452 30.0562 18.2036 30.3232C18.3498 30.922 18.6128 31.4775 18.9562 31.9898C19.2412 32.4227 19.5992 32.7906 19.9718 33.1586C20.1764 33.3678 20.381 33.577 20.5856 33.7863C20.834 34.0316 21.0824 34.2769 21.3235 34.5294C21.3601 34.5655 21.3966 34.6015 21.4477 34.6232Z" fill="url(#paint3_linear_7_38)"/>
</g>
<path d="M6.93674 55.2124C6.93674 55.2124 18.9463 59.0625 33.5228 59.0625C48.0993 59.0625 60.2922 55.2124 60.2922 55.2124V41.8844C60.2922 41.8844 44.2731 47.0811 33.5228 47.0675C22.8421 47.054 6.93674 41.8844 6.93674 41.8844V55.2124Z" fill="url(#paint4_linear_7_38)"/>
<path d="M30.0505 50.4525H31.5527V55.3849H30.0505V50.4525Z" fill="#528DFF"/>
<path d="M34.6373 55.1176L32.428 50.703H33.4461L35.4171 54.6951H34.8323L36.825 50.703H37.7636L35.5615 55.1176H34.6373Z" fill="#528DFF"/>
<path fill-rule="evenodd" clip-rule="evenodd" d="M31.9992 50.4402H33.6131L35.1277 53.5079L36.659 50.4402H38.192L35.7278 55.3804H34.4716L31.9992 50.4402ZM34.8295 54.1055L33.2793 50.9658H32.8571L34.6292 54.5067L34.8295 54.1055ZM35.5951 54.4546L35.4234 54.1067L36.9912 50.9658H37.3354L35.5951 54.4546Z" fill="#528DFF"/>
</g>
<g filter="url(#filter3_d_7_38)">
<path d="M34.8053 13.1387C34.3946 13.8394 33.3677 13.8394 32.957 13.1387L30.8777 9.59122C30.467 8.89049 30.9804 8.01458 31.8018 8.01458L35.9605 8.01458C36.7819 8.01458 37.2953 8.89049 36.8846 9.59122L34.8053 13.1387Z" fill="url(#paint5_linear_7_38)"/>
</g>
<g filter="url(#filter4_d_7_38)">
<path d="M34.8053 68.3212C34.3946 69.0219 33.3677 69.0219 32.957 68.3212L30.8777 64.7737C30.467 64.073 30.9804 63.1971 31.8018 63.1971L35.9605 63.1971C36.7819 63.1971 37.2953 64.073 36.8846 64.7737L34.8053 68.3212Z" fill="url(#paint6_linear_7_38)"/>
</g>
</g>
</g>
</g>
<defs>
<filter id="filter0_i_7_38" x="8.66348" y="11.6339" width="51.902" height="53.2386" filterUnits="userSpaceOnUse" color-interpolation-filters="sRGB">
<feFlood flood-opacity="0" result="BackgroundImageFix"/>
<feBlend mode="normal" in="SourceGraphic" in2="BackgroundImageFix" result="shape"/>
<feColorMatrix in="SourceAlpha" type="matrix" values="0 0 0 0 0 0 0 0 0 0 0 0 0 0 0 0 0 0 127 0" result="hardAlpha"/>
<feOffset dx="2" dy="1"/>
<feGaussianBlur stdDeviation="1"/>
<feComposite in2="hardAlpha" operator="arithmetic" k2="-1" k3="1"/>
<feColorMatrix type="matrix" values="0 0 0 0 0 0 0 0 0 0 0 0 0 0 0 0 0 0 0.25 0"/>
<feBlend mode="normal" in2="shape" result="effect1_innerShadow_7_38"/>
</filter>
<filter id="filter1_d_7_38" x="27.0573" y="22.1705" width="26.1653" height="26.901" filterUnits="userSpaceOnUse" color-interpolation-filters="sRGB">
<feFlood flood-opacity="0" result="BackgroundImageFix"/>
<feColorMatrix in="SourceAlpha" type="matrix" values="0 0 0 0 0 0 0 0 0 0 0 0 0 0 0 0 0 0 127 0" result="hardAlpha"/>
<feOffset dx="1" dy="2"/>
<feGaussianBlur stdDeviation="0.8"/>
<feComposite in2="hardAlpha" operator="out"/>
<feColorMatrix type="matrix" values="0 0 0 0 0 0 0 0 0 0 0 0 0 0 0 0 0 0 0.25 0"/>
<feBlend mode="normal" in2="BackgroundImageFix" result="effect1_dropShadow_7_38"/>
<feBlend mode="normal" in="SourceGraphic" in2="effect1_dropShadow_7_38" result="shape"/>
</filter>
<filter id="filter2_d_7_38" x="16.1788" y="22.1705" width="18.9131" height="23.1592" filterUnits="userSpaceOnUse" color-interpolation-filters="sRGB">
<feFlood flood-opacity="0" result="BackgroundImageFix"/>
<feColorMatrix in="SourceAlpha" type="matrix" values="0 0 0 0 0 0 0 0 0 0 0 0 0 0 0 0 0 0 127 0" result="hardAlpha"/>
<feOffset dx="1" dy="2"/>
<feGaussianBlur stdDeviation="0.8"/>
<feComposite in2="hardAlpha" operator="out"/>
<feColorMatrix type="matrix" values="0 0 0 0 0 0 0 0 0 0 0 0 0 0 0 0 0 0 0.25 0"/>
<feBlend mode="normal" in2="BackgroundImageFix" result="effect1_dropShadow_7_38"/>
<feBlend mode="normal" in="SourceGraphic" in2="effect1_dropShadow_7_38" result="shape"/>
</filter>
<filter id="filter3_d_7_38" x="24.4331" y="1.71459" width="18.8961" height="18.2496" filterUnits="userSpaceOnUse" color-interpolation-filters="sRGB">
<feFlood flood-opacity="0" result="BackgroundImageFix"/>
<feColorMatrix in="SourceAlpha" type="matrix" values="0 0 0 0 0 0 0 0 0 0 0 0 0 0 0 0 0 0 127 0" result="hardAlpha"/>
<feOffset/>
<feGaussianBlur stdDeviation="3.15"/>
<feComposite in2="hardAlpha" operator="out"/>
<feColorMatrix type="matrix" values="0 0 0 0 1 0 0 0 0 1 0 0 0 0 1 0 0 0 0.25 0"/>
<feBlend mode="normal" in2="BackgroundImageFix" result="effect1_dropShadow_7_38"/>
<feBlend mode="normal" in="SourceGraphic" in2="effect1_dropShadow_7_38" result="shape"/>
</filter>
<filter id="filter4_d_7_38" x="28.4331" y="60.8971" width="10.8961" height="10.2496" filterUnits="userSpaceOnUse" color-interpolation-filters="sRGB">
<feFlood flood-opacity="0" result="BackgroundImageFix"/>
<feColorMatrix in="SourceAlpha" type="matrix" values="0 0 0 0 0 0 0 0 0 0 0 0 0 0 0 0 0 0 127 0" result="hardAlpha"/>
<feOffset/>
<feGaussianBlur stdDeviation="1.15"/>
<feComposite in2="hardAlpha" operator="out"/>
<feColorMatrix type="matrix" values="0 0 0 0 1 0 0 0 0 1 0 0 0 0 1 0 0 0 0.4 0"/>
<feBlend mode="normal" in2="BackgroundImageFix" result="effect1_dropShadow_7_38"/>
<feBlend mode="normal" in="SourceGraphic" in2="effect1_dropShadow_7_38" result="shape"/>
</filter>
<linearGradient id="paint0_linear_7_38" x1="19.6479" y1="7.88313" x2="50.8897" y2="10.9549" gradientUnits="userSpaceOnUse">
<stop stop-color="#528DFF"/>
<stop offset="1" stop-color="#001D56"/>
</linearGradient>
<linearGradient id="paint1_linear_7_38" x1="20.5519" y1="10.0943" x2="50.4416" y2="11.738" gradientUnits="userSpaceOnUse">
<stop stop-color="#528DFF"/>
<stop offset="1" stop-color="#093996"/>
</linearGradient>
<linearGradient id="paint2_linear_7_38" x1="33.1284" y1="22.1705" x2="46.878" y2="22.9782" gradientUnits="userSpaceOnUse">
<stop stop-color="#A2C0FC"/>
<stop offset="1" stop-color="#2752A6"/>
</linearGradient>
<linearGradient id="paint3_linear_7_38" x1="20.5223" y1="22.1705" x2="27.6307" y2="7.19908" gradientUnits="userSpaceOnUse">
<stop stop-color="#98B7F4"/>
<stop offset="0.9999" stop-color="#1C6A8B"/>
<stop offset="1" stop-color="#1A6889"/>
<stop offset="1" stop-color="#216F91"/>
<stop offset="1" stop-color="#0A8593"/>
</linearGradient>
<linearGradient id="paint4_linear_7_38" x1="40.5507" y1="65.4312" x2="36.9797" y2="38.2889" gradientUnits="userSpaceOnUse">
<stop offset="0.297027" stop-color="#0E3E9B"/>
<stop offset="0.994792" stop-color="#528DFF"/>
</linearGradient>
<linearGradient id="paint5_linear_7_38" x1="36.2555" y1="14.7153" x2="30.826" y2="14.3868" gradientUnits="userSpaceOnUse">
<stop offset="0.0001" stop-color="#0B3993"/>
<stop offset="1" stop-color="#A7C5FF"/>
</linearGradient>
<linearGradient id="paint6_linear_7_38" x1="36.2555" y1="69.8978" x2="30.826" y2="69.5693" gradientUnits="userSpaceOnUse">
<stop stop-color="#19479F"/>
<stop offset="1" stop-color="#9CB2FF"/>
</linearGradient>
<clipPath id="clip0_7_38">
<rect width="69" height="72" fill="white"/>
</clipPath>
<clipPath id="clip1_7_38">
<rect width="69" height="72" fill="white"/>
</clipPath>
<clipPath id="clip2_7_38">
<rect width="69" height="72" fill="white"/>
</clipPath>
<clipPath id="clip3_7_38">
<rect width="69" height="72" fill="white"/>
</clipPath>
</defs>
</svg>
