<svg width="51" height="53" viewBox="0 0 51 53" fill="none" xmlns="http://www.w3.org/2000/svg">
<path d="M15.5554 5.31284L6.87409 10.9078C2.5891 13.6695 0 18.4183 0 23.5162V34.1896C0 40.622 4.10112 46.3383 10.1944 48.399L18.9236 51.3512C22.0834 52.4198 25.5092 52.4048 28.6595 51.3084L36.8559 48.4558C42.885 46.3575 46.9255 40.6731 46.9255 34.2892V23.3889C46.9255 18.3609 44.4064 13.6674 40.2162 10.8883L31.972 5.42058C27.0068 2.12755 20.5634 2.08526 15.5554 5.31284Z" fill="url(#paint0_linear_869_95)"/>
<g filter="url(#filter0_i_869_95)">
<path d="M15.5246 7.30087L8.38385 11.9101C4.10391 14.6727 1.51855 19.4186 1.51855 24.5127V32.6806C1.51855 39.418 6.01067 45.3288 12.502 47.1329L19.7022 49.1339C22.3668 49.8745 25.1843 49.8639 27.8433 49.1035L34.5314 47.1907C40.969 45.3496 45.4068 39.4647 45.4068 32.7689V24.3855C45.4068 19.3612 42.8914 14.6706 38.7063 11.8907L31.9588 7.40878C26.9896 4.10802 20.5368 4.06565 15.5246 7.30087Z" fill="url(#paint1_linear_869_95)"/>
</g>
<g filter="url(#filter1_d_869_95)">
<path d="M18.233 27.487C18.2136 27.3119 18.233 27.1238 18.2265 26.9292C18.2265 26.8319 18.2459 26.7216 18.2781 26.6178C18.3039 26.5205 18.3039 26.4167 18.3232 26.3259C18.3619 26.1508 18.4135 25.9822 18.4521 25.807C18.5166 25.5216 18.6391 25.2557 18.7486 24.9833C18.8582 24.7044 19.0129 24.4449 19.1676 24.1855C19.3159 23.9325 19.4963 23.7055 19.6897 23.4785C19.9604 23.1736 20.2505 22.8817 20.5277 22.5833C20.721 22.3758 20.9208 22.1812 21.1142 21.9801C21.4881 21.6039 21.8684 21.2277 22.2293 20.8385C22.6161 20.4299 23.0093 20.0342 23.4025 19.6256C23.5765 19.444 23.7699 19.2753 23.9374 19.0807C24.2146 18.7564 24.5305 18.471 24.827 18.1662C24.9945 17.9975 25.1621 17.8289 25.3233 17.6538C25.71 17.2321 26.1354 16.8495 26.5222 16.4214C26.8445 16.0646 27.199 15.7338 27.5277 15.3835C27.7791 15.1176 28.0305 14.8582 28.2754 14.5987C28.4881 14.3782 28.7202 14.1901 28.9522 13.9955C29.1843 13.8009 29.4357 13.6452 29.6935 13.4895C29.9706 13.3274 30.2736 13.1977 30.5765 13.0874C30.7119 13.042 30.8408 12.9771 30.9762 12.9512C31.0922 12.9317 31.2018 12.8928 31.3178 12.8798C31.4983 12.8604 31.6723 12.8215 31.8528 12.7955C32.1235 12.7566 32.4007 12.7566 32.6714 12.7566C33.0195 12.7566 33.3611 12.8085 33.6963 12.8733C34.0701 12.9447 34.4311 13.0485 34.7727 13.2041C35.1079 13.3533 35.4366 13.5349 35.746 13.7425C36.1005 13.989 36.4293 14.2679 36.7322 14.5792C37.0029 14.8517 37.2221 15.163 37.4412 15.4744C37.7184 15.883 37.9182 16.337 38.0858 16.804C38.2276 17.2062 38.3179 17.6148 38.3694 18.0364C38.3952 18.2764 38.4274 18.5164 38.421 18.7629C38.4146 19.0159 38.421 19.2688 38.3823 19.5218C38.3372 19.8137 38.2985 20.1121 38.2212 20.3975C38.1245 20.7477 38.0085 21.0915 37.8538 21.4158C37.5895 21.9996 37.2414 22.5185 36.8096 22.992C36.5131 23.3228 36.1972 23.6406 35.8878 23.952C35.572 24.2633 35.269 24.5876 34.9725 24.9119C34.8436 25.0546 34.7147 25.1973 34.5665 25.3206C34.4827 25.3984 34.4053 25.4892 34.328 25.567C34.2699 25.6254 34.2119 25.6773 34.1539 25.7357C33.8316 26.073 33.5029 26.3973 33.1871 26.7411C33.013 26.9292 32.839 27.1173 32.665 27.2989C32.3685 27.6037 32.072 27.9086 31.769 28.2135C31.4661 28.5183 31.1567 28.8167 30.8666 29.1345C30.467 29.5691 30.048 29.9907 29.6419 30.4253C29.3841 30.6977 29.1069 30.9572 28.8426 31.2231C28.5784 31.489 28.3141 31.755 28.0498 32.0209C27.9016 32.1701 27.7275 32.2933 27.5664 32.4231C27.3408 32.5982 27.1023 32.7539 26.8509 32.8836C26.4577 33.0847 26.0452 33.2468 25.6198 33.3701C25.362 33.4414 25.0912 33.4803 24.827 33.5322C24.7561 33.5452 24.6787 33.5452 24.6078 33.5517C24.2597 33.5776 23.9117 33.5452 23.5636 33.5452C23.4605 33.5452 23.3573 33.5128 23.2542 33.4998C23.1317 33.4803 23.0093 33.4479 22.8868 33.422C22.6741 33.3766 22.4678 33.3117 22.2616 33.2533C22.0166 33.182 21.7846 33.0652 21.5525 32.9614C21.3978 32.8901 21.2625 32.7863 21.1142 32.7085C20.9917 32.6436 20.8822 32.5658 20.7726 32.4879C20.6243 32.3712 20.4761 32.2544 20.3343 32.1377C20.1345 31.969 19.9475 31.7809 19.7735 31.5863C19.6639 31.4566 19.5479 31.3334 19.4448 31.1972C19.2643 30.9572 19.116 30.6977 18.9742 30.4383C18.8389 30.1853 18.7035 29.9323 18.6133 29.6599C18.5166 29.3875 18.4521 29.1086 18.3683 28.8361C18.3361 28.7259 18.3361 28.6026 18.3103 28.4859C18.2394 28.1551 18.2201 27.8308 18.233 27.487ZM21.8619 31.8198C21.8813 31.7874 21.8748 31.7615 21.8748 31.7355C21.8748 31.4372 21.8748 31.1388 21.8748 30.8469C21.8748 29.3096 21.8748 27.7789 21.8748 26.2416C21.8748 26.1897 21.8813 26.1573 21.9457 26.1573C22.4163 26.1573 22.8868 26.1573 23.3573 26.1638C23.4218 26.1638 23.4476 26.1508 23.4411 26.0795C23.4411 25.4762 23.4411 24.8665 23.4411 24.2633C23.4411 23.8417 23.4411 23.4266 23.4411 23.005C23.4411 22.9012 23.4411 22.9012 23.5507 22.8947C23.6087 22.8947 23.6732 22.9012 23.7312 22.8817C23.7634 22.8752 23.8085 22.8947 23.815 22.9466C23.815 23.0114 23.8279 23.0698 23.8279 23.1282C23.8279 24.1076 23.8279 25.0871 23.8279 26.073C23.8279 26.1378 23.8472 26.1573 23.9117 26.1508C24.3822 26.1508 24.8527 26.1508 25.3233 26.1443C25.3877 26.1443 25.4071 26.1573 25.4071 26.2222C25.4071 27.9799 25.4071 29.7377 25.4071 31.489C25.4071 31.7031 25.4071 31.9236 25.4071 32.1377C25.4071 32.1896 25.42 32.209 25.478 32.1896C25.5553 32.1636 25.6327 32.1506 25.7036 32.1182C25.8389 32.0598 25.9807 32.0079 26.1161 31.9366C26.2708 31.8523 26.4319 31.7809 26.5866 31.6901C26.7736 31.5798 26.9412 31.4566 27.1152 31.3204C27.2183 31.2426 27.315 31.1647 27.2699 31.0091C27.2699 31.0026 27.2699 30.9961 27.2699 30.9831C27.2699 28.3951 27.2763 25.8006 27.2763 23.2125C27.2763 22.4017 27.2763 21.5909 27.2763 20.7802C27.2763 20.6764 27.2763 20.6764 27.3795 20.6764C27.8307 20.6764 28.2883 20.6764 28.7395 20.6764C28.8169 20.6764 28.8426 20.6504 28.8426 20.5726C28.8362 20.0407 28.8426 19.5023 28.8426 18.9705C28.8426 18.484 28.8426 17.9975 28.8426 17.5111C28.8426 17.4332 28.8684 17.4138 28.9393 17.4138C29.0102 17.4202 29.0811 17.4202 29.1456 17.4138C29.2036 17.4073 29.2165 17.4332 29.2165 17.4851C29.2165 18.497 29.2165 19.5088 29.2165 20.5272C29.2165 20.5596 29.2229 20.592 29.21 20.618C29.1843 20.6764 29.2165 20.6764 29.2552 20.6764C29.3712 20.6764 29.4937 20.6764 29.6097 20.6764C29.9706 20.6764 30.3316 20.6764 30.6861 20.6764C30.7506 20.6764 30.7764 20.6958 30.7764 20.7607C30.7699 20.845 30.7699 20.9358 30.7699 21.0201C30.7699 23.1606 30.7699 25.2946 30.7699 27.4351C30.7699 27.461 30.7699 27.4805 30.7764 27.5065C30.7957 27.5583 30.8086 27.5648 30.8473 27.5259C30.9246 27.4416 31.002 27.3638 31.0793 27.2859C31.4918 26.8578 31.9108 26.4297 32.3233 26.0016C32.8326 25.4762 33.3418 24.9508 33.8574 24.4255C33.8961 24.3865 33.909 24.3411 33.909 24.2892C33.909 23.5109 33.909 22.726 33.909 21.9477C33.909 21.8828 33.8896 21.8634 33.8252 21.8634C33.374 21.8699 32.9228 21.8634 32.4716 21.8634C32.3491 21.8634 32.3427 21.8893 32.3427 21.7401C32.3427 19.418 32.3427 17.0894 32.3427 14.7673C32.3427 14.709 32.3169 14.6571 32.3233 14.5987C32.3556 14.4106 32.3362 14.216 32.3362 14.0279C32.3362 13.8982 32.3298 13.8982 32.2073 13.9047C32.188 13.9047 32.1622 13.9047 32.1429 13.9047C32.0075 13.9176 31.8721 13.9176 31.7368 13.9436C31.4403 14.002 31.1438 14.0798 30.8537 14.1901C30.5185 14.3133 30.2027 14.4755 29.9126 14.6765C29.5517 14.923 29.2358 15.2344 28.9264 15.5457C28.6622 15.8116 28.4108 16.0776 28.1465 16.3435C28.0369 16.4538 27.9274 16.5576 27.8242 16.6678C27.5019 17.0051 27.1796 17.3489 26.8574 17.6927C26.78 17.777 26.7027 17.8743 26.6189 17.9521C26.4448 18.1208 26.2837 18.2959 26.1097 18.4645C25.6391 18.9316 25.1686 19.4051 24.7238 19.898C24.4596 20.1899 24.1824 20.4623 23.9052 20.7412C23.4411 21.2147 22.9641 21.6817 22.5065 22.1617C22.0424 22.6482 21.5848 23.1347 21.1142 23.6147C20.779 23.9584 20.4374 24.2957 20.1796 24.7109C19.9927 25.0027 19.8251 25.3076 19.6962 25.6319C19.5286 26.0535 19.4254 26.4881 19.3803 26.9357C19.3288 27.4351 19.3352 27.9345 19.4383 28.4275C19.5092 28.7648 19.6059 29.0956 19.7284 29.4199C19.7928 29.595 19.8895 29.7572 19.9798 29.9194C20.4374 30.7366 21.0562 31.3658 21.8619 31.8198ZM35.8363 15.2668C35.8298 15.3057 35.8298 15.3252 35.8298 15.3446C35.8298 16.3824 35.8298 17.4138 35.8298 18.4516C35.8298 19.5607 35.8298 20.6699 35.8298 21.7855C35.8298 21.8569 35.8169 21.8893 35.7331 21.8893C35.269 21.8828 34.8114 21.8893 34.3473 21.8893C34.2764 21.8893 34.2571 21.9153 34.2571 21.9801C34.2571 22.6158 34.2571 23.2579 34.2571 23.8936C34.2571 23.926 34.2571 23.9584 34.2571 23.9909C34.4246 23.8287 34.5858 23.673 34.7469 23.5109C35.0112 23.2385 35.2755 22.966 35.5398 22.6936C35.862 22.3628 36.1908 22.0385 36.4486 21.6493C36.9578 20.8839 37.2285 20.0342 37.2865 19.1197C37.3188 18.5943 37.2608 18.0754 37.1319 17.5629C36.9965 17.0246 36.7773 16.5251 36.4679 16.0646C36.2939 15.7727 36.0748 15.5327 35.8363 15.2668Z" fill="url(#paint2_linear_869_95)"/>
</g>
<g filter="url(#filter2_d_869_95)">
<path d="M17.3057 30.2208C17.235 30.195 17.1964 30.1435 17.1643 30.0984C17.0486 29.9438 16.9073 29.8085 16.7788 29.6668C16.6245 29.4928 16.4639 29.3189 16.2968 29.1514C15.9755 28.8229 15.6542 28.4943 15.3329 28.1658C15.1465 27.9725 14.9602 27.7857 14.7738 27.5989C14.6196 27.4443 14.4782 27.2768 14.324 27.1286C14.2533 27.0578 14.1891 26.974 14.0991 26.916C14.022 26.8709 13.9963 26.7743 13.9256 26.7099C13.72 26.5231 13.54 26.3169 13.3344 26.1301C13.1738 25.982 13.0452 25.7951 12.8846 25.647C12.7818 25.5568 12.6918 25.4473 12.5826 25.3635C12.5311 25.3313 12.5119 25.2605 12.4669 25.2154C12.2548 25.0092 12.0428 24.8095 11.8436 24.5905C11.5737 24.2877 11.2781 24.0107 11.0082 23.7079C10.809 23.4889 10.5905 23.2828 10.3849 23.0702C10.0828 22.7545 9.80651 22.4131 9.56875 22.0459C9.45308 21.8655 9.36311 21.6723 9.2603 21.4855C9.16391 21.3115 9.10607 21.1247 9.02896 20.9508C8.92614 20.7318 8.89401 20.4998 8.82333 20.2744C8.77834 20.1198 8.75907 19.9587 8.72694 19.8041C8.64982 19.3725 8.6691 18.9409 8.65625 18.5028C8.65625 18.3869 8.6691 18.2709 8.66268 18.155C8.66268 18.0648 8.70123 17.9681 8.71408 17.8715C8.72694 17.8135 8.72051 17.7491 8.72694 17.6911C8.73979 17.5945 8.77192 17.5043 8.79762 17.4077C8.87473 17.0792 8.97755 16.7635 9.09965 16.4478C9.17033 16.261 9.24102 16.0678 9.35026 15.9003C9.49163 15.6812 9.62015 15.4493 9.77438 15.2432C9.9286 15.0306 10.0828 14.818 10.2692 14.6312C10.4298 14.4637 10.5969 14.3027 10.7768 14.1481C11.066 13.8904 11.3809 13.6649 11.7215 13.4781C11.9271 13.3686 12.1392 13.2655 12.3512 13.1689C12.5054 13.098 12.6597 13.04 12.8267 13.0014C12.9553 12.9692 13.0709 12.9112 13.2059 12.8983C13.4115 12.879 13.6043 12.8275 13.8035 12.7952C14.0927 12.7566 14.3818 12.7566 14.671 12.7566C14.7867 12.7566 14.9024 12.7566 15.0116 12.763C15.1273 12.7695 15.2429 12.7888 15.3586 12.8081C15.5193 12.8339 15.6799 12.8983 15.847 12.9048C15.9948 12.9112 16.1169 12.9885 16.2518 13.0207C16.5089 13.0787 16.7402 13.2011 16.978 13.3042C17.2671 13.433 17.5306 13.594 17.7876 13.7744C17.974 13.9033 18.1668 14.0321 18.3403 14.1867C18.4624 14.2962 18.578 14.4122 18.6873 14.5281C19.0471 14.8953 19.407 15.2625 19.7669 15.6297C20.1588 16.0356 20.5508 16.4478 20.9493 16.8472C21.4376 17.3368 21.9067 17.8522 22.4015 18.3353C22.4208 18.3547 22.4401 18.374 22.4594 18.3933C22.4851 18.4191 22.4786 18.4449 22.4529 18.4706C22.273 18.651 22.0995 18.8249 21.9196 19.0053C21.8617 19.0697 21.7911 19.1277 21.7397 19.1921C21.6947 19.2437 21.6625 19.2179 21.6304 19.1921C21.489 19.0504 21.3348 18.9151 21.2127 18.7541C21.0842 18.593 20.9171 18.4771 20.8015 18.3096C20.75 18.2387 20.6729 18.1872 20.6151 18.1228C20.3709 17.8715 20.1331 17.6074 19.8825 17.369C19.6576 17.15 19.4456 16.9117 19.2206 16.6862C19.0664 16.5316 18.8993 16.3899 18.758 16.2224C18.5652 15.9905 18.3467 15.7908 18.1411 15.5717C17.9162 15.3334 17.6913 15.095 17.4278 14.8953C17.2736 14.7794 17.1129 14.6634 16.9394 14.5668C16.798 14.483 16.6502 14.4122 16.5089 14.3349C16.3739 14.264 16.2325 14.206 16.0847 14.1609C15.9626 14.1223 15.8341 14.0772 15.7056 14.045C15.5064 13.9935 15.3072 13.9612 15.108 13.929C15.0052 13.9097 14.9024 13.9161 14.7995 13.9097C14.7353 13.9033 14.7224 13.929 14.7224 13.987C14.7224 14.1867 14.7224 14.3864 14.7224 14.5797C14.7224 15.2045 14.7224 15.8294 14.7224 16.4543C14.7224 17.9553 14.7289 19.4627 14.7224 20.9637C14.7224 21.2213 14.7353 21.479 14.7289 21.7431C14.7289 21.7947 14.7224 21.8269 14.6517 21.8269C14.1891 21.8269 13.7264 21.8269 13.2637 21.8269C13.1866 21.8269 13.1673 21.8527 13.1673 21.9493C13.1673 22.6386 13.1673 23.3214 13.1673 24.0107C13.1673 24.0945 13.1738 24.1782 13.1609 24.262C13.1545 24.2942 13.1673 24.3135 13.1866 24.3393C13.6236 24.7838 14.0605 25.2282 14.4975 25.6792C14.973 26.1688 15.4486 26.6584 15.9241 27.148C16.0398 27.2639 16.1619 27.3734 16.284 27.4894C16.284 27.2961 16.284 27.0964 16.284 26.8967C16.284 24.8417 16.284 22.7932 16.284 20.7382C16.284 20.6673 16.3097 20.648 16.3739 20.648C16.8366 20.648 17.2993 20.648 17.7619 20.648C17.8391 20.648 17.8519 20.6222 17.8519 20.5514C17.8519 19.54 17.8519 18.535 17.8519 17.5236C17.8519 17.4077 17.8519 17.4077 17.9676 17.4077C18.019 17.4077 18.0768 17.4141 18.1282 17.4077C18.1989 17.4013 18.2246 17.427 18.2246 17.5043C18.2246 17.8715 18.2246 18.2387 18.2246 18.6059C18.2246 19.263 18.2246 19.9136 18.2246 20.5707C18.2246 20.6416 18.2503 20.6673 18.3146 20.6416C18.3596 20.6222 18.4045 20.648 18.4431 20.648C18.8608 20.648 19.2721 20.648 19.6897 20.648C19.7604 20.648 19.799 20.6673 19.7797 20.7446C19.754 20.8928 19.7669 21.041 19.7669 21.1827C19.7669 21.2213 19.754 21.2471 19.7283 21.2729C19.5805 21.4146 19.452 21.5628 19.3042 21.7045C19.1435 21.8655 18.9829 22.0266 18.8222 22.1941C18.6423 22.3745 18.4817 22.5677 18.3274 22.7674C18.2182 22.9091 18.1154 23.0509 18.019 23.199C17.8519 23.4503 17.6913 23.7079 17.5627 23.9849C17.4406 24.2426 17.325 24.5067 17.2286 24.7773C17.145 25.0157 17.0551 25.2476 17.0037 25.4924C16.9587 25.7114 16.9009 25.924 16.8687 26.143C16.8494 26.2912 16.8366 26.4393 16.8173 26.5875C16.7916 26.7872 16.7852 26.9805 16.7723 27.1802C16.7595 27.367 16.7531 27.5538 16.7788 27.7406C16.7916 27.8308 16.7852 27.9274 16.7916 28.0176C16.8109 28.198 16.8302 28.3784 16.8559 28.5523C16.9009 28.8744 16.9844 29.1901 17.0679 29.4993C17.1129 29.6668 17.1643 29.8278 17.235 29.9824C17.2543 30.0597 17.2928 30.1306 17.3057 30.2208ZM12.7625 23.8754C12.7625 23.8625 12.7689 23.8561 12.7689 23.8497C12.7689 23.2184 12.7689 22.587 12.7689 21.9557C12.7689 21.7947 12.7689 21.8011 12.6147 21.8076C12.1713 21.8269 11.7343 21.814 11.2909 21.814C11.2331 21.814 11.2074 21.7947 11.2074 21.7303C11.2074 19.6237 11.2074 17.5108 11.2074 15.4042C11.2074 15.3656 11.2267 15.3076 11.1945 15.2947C11.1624 15.2818 11.1431 15.3398 11.1174 15.3656C10.8282 15.6426 10.6033 15.9711 10.4041 16.3126C10.1342 16.7828 9.96073 17.2853 9.85149 17.8135C9.74868 18.3096 9.74225 18.812 9.78081 19.3145C9.80008 19.5593 9.85792 19.7977 9.90933 20.036C10.0378 20.5707 10.2692 21.0667 10.5712 21.5241C10.8218 21.9106 11.1367 22.2392 11.4644 22.5677C11.6444 22.7545 11.8243 22.9413 12.0042 23.1282C12.2227 23.3472 12.4412 23.5662 12.6532 23.7917C12.6854 23.8239 12.7175 23.8561 12.7625 23.8754Z" fill="url(#paint3_linear_869_95)"/>
</g>
<g filter="url(#filter3_d_869_95)">
<path d="M0 42.2595C0 42.2595 10.5623 45.6973 23.3821 45.6973C36.202 45.6973 46.9255 42.2595 46.9255 42.2595V30.3592C46.9255 30.3592 32.8369 34.9992 23.3821 34.9871C13.9886 34.975 0 30.3592 0 30.3592V42.2595Z" fill="url(#paint4_linear_869_95)"/>
</g>
<rect x="22.7793" y="38.7249" width="1.3212" height="4.40401" fill="#F2BEA2"/>
<defs>
<filter id="filter0_i_869_95" x="1.51855" y="4.90356" width="45.8882" height="45.7781" filterUnits="userSpaceOnUse" color-interpolation-filters="sRGB">
<feFlood flood-opacity="0" result="BackgroundImageFix"/>
<feBlend mode="normal" in="SourceGraphic" in2="BackgroundImageFix" result="shape"/>
<feColorMatrix in="SourceAlpha" type="matrix" values="0 0 0 0 0 0 0 0 0 0 0 0 0 0 0 0 0 0 127 0" result="hardAlpha"/>
<feOffset dx="2" dy="1"/>
<feGaussianBlur stdDeviation="1"/>
<feComposite in2="hardAlpha" operator="arithmetic" k2="-1" k3="1"/>
<feColorMatrix type="matrix" values="0 0 0 0 0 0 0 0 0 0 0 0 0 0 0 0 0 0 0.25 0"/>
<feBlend mode="normal" in2="shape" result="effect1_innerShadow_869_95"/>
</filter>
<filter id="filter1_d_869_95" x="17.6241" y="12.7566" width="23.3978" height="24.4052" filterUnits="userSpaceOnUse" color-interpolation-filters="sRGB">
<feFlood flood-opacity="0" result="BackgroundImageFix"/>
<feColorMatrix in="SourceAlpha" type="matrix" values="0 0 0 0 0 0 0 0 0 0 0 0 0 0 0 0 0 0 127 0" result="hardAlpha"/>
<feOffset dx="1" dy="2"/>
<feGaussianBlur stdDeviation="0.8"/>
<feComposite in2="hardAlpha" operator="out"/>
<feColorMatrix type="matrix" values="0 0 0 0 0 0 0 0 0 0 0 0 0 0 0 0 0 0 0.25 0"/>
<feBlend mode="normal" in2="BackgroundImageFix" result="effect1_dropShadow_869_95"/>
<feBlend mode="normal" in="SourceGraphic" in2="effect1_dropShadow_869_95" result="shape"/>
</filter>
<filter id="filter2_d_869_95" x="8.05625" y="12.7566" width="17.0193" height="21.0641" filterUnits="userSpaceOnUse" color-interpolation-filters="sRGB">
<feFlood flood-opacity="0" result="BackgroundImageFix"/>
<feColorMatrix in="SourceAlpha" type="matrix" values="0 0 0 0 0 0 0 0 0 0 0 0 0 0 0 0 0 0 127 0" result="hardAlpha"/>
<feOffset dx="1" dy="2"/>
<feGaussianBlur stdDeviation="0.8"/>
<feComposite in2="hardAlpha" operator="out"/>
<feColorMatrix type="matrix" values="0 0 0 0 0 0 0 0 0 0 0 0 0 0 0 0 0 0 0.25 0"/>
<feBlend mode="normal" in2="BackgroundImageFix" result="effect1_dropShadow_869_95"/>
<feBlend mode="normal" in="SourceGraphic" in2="effect1_dropShadow_869_95" result="shape"/>
</filter>
<filter id="filter3_d_869_95" x="0" y="30.0591" width="50.2253" height="17.9381" filterUnits="userSpaceOnUse" color-interpolation-filters="sRGB">
<feFlood flood-opacity="0" result="BackgroundImageFix"/>
<feColorMatrix in="SourceAlpha" type="matrix" values="0 0 0 0 0 0 0 0 0 0 0 0 0 0 0 0 0 0 127 0" result="hardAlpha"/>
<feOffset dx="2" dy="1"/>
<feGaussianBlur stdDeviation="0.65"/>
<feComposite in2="hardAlpha" operator="out"/>
<feColorMatrix type="matrix" values="0 0 0 0 0 0 0 0 0 0 0 0 0 0 0 0 0 0 0.25 0"/>
<feBlend mode="normal" in2="BackgroundImageFix" result="effect1_dropShadow_869_95"/>
<feBlend mode="normal" in="SourceGraphic" in2="effect1_dropShadow_869_95" result="shape"/>
</filter>
<linearGradient id="paint0_linear_869_95" x1="11.8322" y1="9.56734" x2="42.8593" y2="47.5827" gradientUnits="userSpaceOnUse">
<stop offset="0.207595" stop-color="#F3A66F"/>
<stop offset="0.961067" stop-color="#815246"/>
</linearGradient>
<linearGradient id="paint1_linear_869_95" x1="12.5849" y1="10.9359" x2="41.6572" y2="46.5017" gradientUnits="userSpaceOnUse">
<stop offset="0.126308" stop-color="#B47556"/>
<stop offset="0.890017" stop-color="#9A5D4B"/>
</linearGradient>
<linearGradient id="paint2_linear_869_95" x1="28.323" y1="12.7566" x2="28.323" y2="33.5617" gradientUnits="userSpaceOnUse">
<stop stop-color="#FFD6C2"/>
<stop offset="1" stop-color="#E5A480"/>
</linearGradient>
<linearGradient id="paint3_linear_869_95" x1="15.566" y1="12.7566" x2="15.566" y2="30.2208" gradientUnits="userSpaceOnUse">
<stop stop-color="#FFD6C2"/>
<stop offset="1" stop-color="#E5A480"/>
</linearGradient>
<linearGradient id="paint4_linear_869_95" x1="29.4461" y1="33.7001" x2="29.4461" y2="45.6973" gradientUnits="userSpaceOnUse">
<stop stop-color="#BA7154"/>
<stop offset="1" stop-color="#6B4539"/>
</linearGradient>
</defs>
</svg>
