<svg width="68" height="73" viewBox="0 0 68 73" fill="none" xmlns="http://www.w3.org/2000/svg">
<path d="M40.007 17.6888C40.0511 18.0003 34.9375 25.291 30.636 31.9307C27.7442 31.6584 23.6906 31.5754 25.0953 29.6535C27.5784 26.2562 30.8605 22.886 33.1525 19.1341L39.6729 10.1292C39.7058 11.2544 39.9227 17.0934 40.007 17.6888Z" fill="url(#paint0_linear_622_4174)"/>
<path d="M25.855 17.8152C25.8166 18.1274 31.0637 25.3226 35.4868 31.8819C38.3731 31.5564 42.4245 31.3987 40.9847 29.5031C38.4394 26.1521 35.0958 22.843 32.735 19.1339L26.0498 10.2506C26.0376 11.3763 25.9283 17.2183 25.855 17.8152Z" fill="url(#paint1_linear_622_4174)"/>
<path d="M22.2375 19.2731C22.2658 19.4913 28.6505 24.9029 34.134 29.8136C36.7659 29.7644 40.5216 29.9067 38.7858 28.4775C35.7173 25.9508 31.911 23.4037 28.9414 20.6356L20.8652 13.9415C21.0851 14.736 22.1834 18.8561 22.2375 19.2731Z" fill="url(#paint2_linear_622_4174)"/>
<path d="M43.7648 19.0014C43.7447 19.2205 37.5671 24.8673 32.2712 29.9798C29.6393 30.0292 25.8916 30.312 27.5727 28.8188C30.5444 26.179 34.2527 23.4912 37.1166 20.6139L44.9365 13.6222C44.7465 14.4243 43.8032 18.5827 43.7648 19.0014Z" fill="url(#paint3_linear_622_4174)"/>
<path d="M65.16 26.2045C64.7221 26.655 56.998 36.7159 51.3559 42.3452C49.2648 40.0942 46.2264 37.3195 47.9803 35.7952C51.0808 33.1006 54.7763 30.9666 57.8596 27.6942L66.0312 20.5115C65.5381 22.0443 65.3729 25.9855 65.16 26.2045Z" fill="url(#paint4_linear_622_4174)"/>
<path d="M62.5331 41.5324C62.0951 41.9829 54.371 52.0437 48.7289 57.6731C46.6379 55.4221 43.5995 52.6474 45.3534 51.1231C48.4539 48.4285 52.1493 46.2945 55.2326 43.0221L63.4043 35.8394C62.9112 37.3722 62.746 41.3134 62.5331 41.5324Z" fill="url(#paint5_linear_622_4174)"/>
<path d="M64.285 33.2112C63.8471 33.6617 56.123 43.7226 50.4809 49.352C48.3898 47.101 45.3514 44.3262 47.1053 42.8019C50.2058 40.1073 53.9013 37.9733 56.9846 34.7009L65.1562 27.5182C64.6631 29.051 64.4979 32.9922 64.285 33.2112Z" fill="url(#paint6_linear_622_4174)"/>
<path d="M3.18955 25.7664C3.6275 26.2169 10.669 36.2777 16.3111 41.9071C18.4022 39.6561 21.4406 36.8814 19.6867 35.3571C16.5862 32.6625 12.8907 30.5285 9.80741 27.2561L1.63574 20.0734C2.12887 21.6062 2.97667 25.5474 3.18955 25.7664Z" fill="url(#paint7_linear_622_4174)"/>
<path d="M5.81845 39.7806C6.25641 40.2312 13.2979 50.292 18.94 55.9214C21.0311 53.6704 24.0695 50.8957 22.3156 49.3714C19.2151 46.6768 15.5196 44.5428 12.4363 41.2704L4.26465 34.0876C4.75778 35.6205 5.60558 39.5617 5.81845 39.7806Z" fill="url(#paint8_linear_622_4174)"/>
<path d="M4.06552 32.3352C4.50348 32.7857 11.545 42.8466 17.1871 48.476C19.2781 46.225 22.3165 43.4502 20.5626 41.9259C17.4622 39.2313 13.7667 37.0973 10.6834 33.8249L2.51172 26.6422C3.00485 28.1751 3.85265 32.1162 4.06552 32.3352Z" fill="url(#paint9_linear_622_4174)"/>
<g filter="url(#filter0_d_622_4174)">
<path d="M55.1672 48.0894V32.9927L62.3148 23.5766L57.4964 25.1095L52.758 26.8613L37.1046 18.4595L36.9563 17.7085C36.4957 15.3766 35.4876 13.1876 34.015 11.3218L32.9717 10L31.9826 11.7079C31.0439 13.3287 30.4171 15.1109 30.1345 16.9624L29.906 18.4595L13.5609 26.8613L10.1972 25.5474L5.67773 23.5766L11.3716 32.9927V47.8467C11.3716 54.1804 15.5331 59.7615 21.6034 61.5688L26.2646 62.9566C27.7269 63.392 28.8926 64.5009 29.4004 65.9397C29.7294 66.8717 30.3397 67.6784 31.1471 68.2483L33.6287 70L35.9282 68.2616C36.6959 67.6813 37.2783 66.8902 37.6046 65.9848C38.1344 64.5148 39.3254 63.38 40.8193 62.922L45.1926 61.581C51.1203 59.7633 55.1672 54.2895 55.1672 48.0894Z" fill="url(#paint10_linear_622_4174)"/>
</g>
<g filter="url(#filter1_i_622_4174)">
<path d="M25.3105 23.7387L19.6544 27.3897C15.3744 30.1523 12.7891 34.8982 12.7891 39.9923V46.31C12.7891 53.0475 17.2812 58.9582 23.7726 60.7623L29.4881 62.3507C32.1527 63.0913 34.9702 63.0807 37.6292 62.3203L42.8746 60.8201C49.3122 58.979 53.75 53.0941 53.75 46.3984V39.865C53.75 34.8408 51.2346 30.1502 47.0495 27.3703L41.7447 23.8466C36.7755 20.5459 30.3227 20.5035 25.3105 23.7387Z" fill="url(#paint11_linear_622_4174)"/>
</g>
<g filter="url(#filter2_d_622_4174)">
<path d="M28.3872 42.223C28.3691 42.0595 28.3872 41.884 28.3812 41.7024C28.3812 41.6116 28.3992 41.5087 28.4293 41.4118C28.4533 41.321 28.4533 41.2241 28.4714 41.1394C28.5075 40.9759 28.5556 40.8185 28.5917 40.6551C28.6519 40.3887 28.7662 40.1405 28.8684 39.8863C28.9707 39.626 29.1151 39.3838 29.2595 39.1417C29.3978 38.9056 29.5663 38.6937 29.7467 38.4818C29.9994 38.1973 30.2701 37.9249 30.5288 37.6464C30.7093 37.4527 30.8958 37.2711 31.0762 37.0834C31.4252 36.7323 31.7801 36.3812 32.117 36.018C32.4779 35.6366 32.8449 35.2673 33.2118 34.8859C33.3743 34.7164 33.5547 34.559 33.7112 34.3774C33.9698 34.0747 34.2646 33.8084 34.5413 33.5239C34.6978 33.3665 34.8542 33.2091 35.0046 33.0456C35.3655 32.6521 35.7625 32.295 36.1235 31.8954C36.4243 31.5625 36.7552 31.2537 37.062 30.9268C37.2966 30.6786 37.5312 30.4365 37.7598 30.1943C37.9583 29.9885 38.1749 29.813 38.3915 29.6313C38.608 29.4497 38.8426 29.3045 39.0833 29.1592C39.342 29.0078 39.6247 28.8867 39.9074 28.7838C40.0338 28.7415 40.1541 28.6809 40.2804 28.6567C40.3887 28.6385 40.491 28.6022 40.5993 28.5901C40.7677 28.572 40.9301 28.5356 41.0986 28.5114C41.3512 28.4751 41.6099 28.4751 41.8626 28.4751C42.1874 28.4751 42.5063 28.5235 42.8191 28.5841C43.168 28.6507 43.5049 28.7475 43.8237 28.8928C44.1365 29.032 44.4434 29.2015 44.7321 29.3953C45.063 29.6253 45.3698 29.8856 45.6525 30.1762C45.9052 30.4304 46.1097 30.721 46.3143 31.0116C46.573 31.393 46.7594 31.8167 46.9158 32.2526C47.0482 32.6279 47.1324 33.0093 47.1805 33.4028C47.2046 33.6268 47.2347 33.8508 47.2287 34.0808C47.2227 34.3169 47.2287 34.553 47.1926 34.7891C47.1505 35.0615 47.1144 35.34 47.0422 35.6063C46.9519 35.9332 46.8437 36.2541 46.6993 36.5568C46.4526 37.1016 46.1278 37.5859 45.7247 38.0278C45.448 38.3365 45.1532 38.6332 44.8645 38.9237C44.5697 39.2143 44.2869 39.517 44.0102 39.8197C43.8899 39.9529 43.7696 40.086 43.6312 40.2011C43.553 40.2737 43.4808 40.3585 43.4086 40.4311C43.3545 40.4856 43.3004 40.534 43.2462 40.5885C42.9454 40.9033 42.6386 41.206 42.3438 41.5268C42.1814 41.7024 42.019 41.8779 41.8566 42.0474C41.5798 42.332 41.3031 42.6165 41.0204 42.901C40.7376 43.1855 40.4489 43.464 40.1781 43.7606C39.8052 44.1662 39.4141 44.5597 39.0351 44.9653C38.7945 45.2196 38.5358 45.4617 38.2892 45.7099C38.0425 45.9581 37.7959 46.2063 37.5492 46.4545C37.4109 46.5938 37.2485 46.7088 37.0981 46.8298C36.8875 46.9933 36.6649 47.1386 36.4303 47.2597C36.0633 47.4473 35.6783 47.5987 35.2813 47.7137C35.0407 47.7803 34.788 47.8166 34.5413 47.865C34.4752 47.8771 34.403 47.8771 34.3368 47.8832C34.0119 47.9074 33.6871 47.8771 33.3622 47.8771C33.266 47.8771 33.1697 47.8469 33.0735 47.8348C32.9592 47.8166 32.8449 47.7863 32.7306 47.7621C32.5321 47.7197 32.3396 47.6592 32.147 47.6047C31.9184 47.5381 31.7019 47.4292 31.4853 47.3323C31.3409 47.2657 31.2146 47.1688 31.0762 47.0962C30.9619 47.0357 30.8597 46.963 30.7574 46.8904C30.619 46.7814 30.4807 46.6724 30.3483 46.5635C30.1618 46.4061 29.9874 46.2305 29.8249 46.0489C29.7227 45.9278 29.6144 45.8128 29.5181 45.6857C29.3497 45.4617 29.2113 45.2196 29.079 44.9774C28.9527 44.7413 28.8263 44.5052 28.7421 44.251C28.6519 43.9967 28.5917 43.7364 28.5135 43.4822C28.4834 43.3792 28.4834 43.2642 28.4594 43.1553C28.3932 42.8465 28.3751 42.5438 28.3872 42.223ZM31.7741 46.2669C31.7921 46.2366 31.7861 46.2124 31.7861 46.1882C31.7861 45.9097 31.7861 45.6312 31.7861 45.3588C31.7861 43.9241 31.7861 42.4954 31.7861 41.0607C31.7861 41.0123 31.7921 40.982 31.8523 40.982C32.2914 40.982 32.7306 40.982 33.1697 40.988C33.2299 40.988 33.254 40.9759 33.2479 40.9093C33.2479 40.3464 33.2479 39.7773 33.2479 39.2143C33.2479 38.8208 33.2479 38.4334 33.2479 38.0399C33.2479 37.943 33.2479 37.943 33.3502 37.937C33.4044 37.937 33.4645 37.943 33.5187 37.9249C33.5487 37.9188 33.5908 37.937 33.5969 37.9854C33.5969 38.046 33.6089 38.1004 33.6089 38.1549C33.6089 39.069 33.6089 39.9831 33.6089 40.9033C33.6089 40.9638 33.6269 40.982 33.6871 40.9759C34.1262 40.9759 34.5654 40.9759 35.0046 40.9699C35.0647 40.9699 35.0828 40.982 35.0828 41.0425C35.0828 42.6831 35.0828 44.3236 35.0828 45.9581C35.0828 46.1579 35.0828 46.3637 35.0828 46.5635C35.0828 46.6119 35.0948 46.6301 35.1489 46.6119C35.2211 46.5877 35.2933 46.5756 35.3595 46.5453C35.4858 46.4908 35.6182 46.4424 35.7445 46.3758C35.8889 46.2971 36.0393 46.2305 36.1837 46.1458C36.3581 46.0429 36.5145 45.9278 36.677 45.8007C36.7732 45.7281 36.8634 45.6554 36.8213 45.5101C36.8213 45.5041 36.8213 45.498 36.8213 45.4859C36.8213 43.0705 36.8273 40.649 36.8273 38.2336C36.8273 37.4769 36.8273 36.7202 36.8273 35.9635C36.8273 35.8666 36.8273 35.8666 36.9236 35.8666C37.3447 35.8666 37.7718 35.8666 38.1929 35.8666C38.2651 35.8666 38.2892 35.8424 38.2892 35.7698C38.2832 35.2734 38.2892 34.7709 38.2892 34.2745C38.2892 33.8205 38.2892 33.3665 38.2892 32.9124C38.2892 32.8398 38.3132 32.8216 38.3794 32.8216C38.4456 32.8277 38.5118 32.8277 38.5719 32.8216C38.6261 32.8156 38.6381 32.8398 38.6381 32.8882C38.6381 33.8326 38.6381 34.777 38.6381 35.7274C38.6381 35.7577 38.6441 35.7879 38.6321 35.8122C38.608 35.8666 38.6381 35.8666 38.6742 35.8666C38.7825 35.8666 38.8968 35.8666 39.0051 35.8666C39.342 35.8666 39.6788 35.8666 40.0097 35.8666C40.0699 35.8666 40.0939 35.8848 40.0939 35.9453C40.0879 36.024 40.0879 36.1088 40.0879 36.1875C40.0879 38.1852 40.0879 40.1769 40.0879 42.1746C40.0879 42.1988 40.0879 42.2169 40.0939 42.2412C40.112 42.2896 40.124 42.2956 40.1601 42.2593C40.2323 42.1806 40.3045 42.108 40.3767 42.0353C40.7617 41.6358 41.1527 41.2362 41.5377 40.8367C42.013 40.3464 42.4882 39.856 42.9695 39.3657C43.0056 39.3293 43.0176 39.287 43.0176 39.2385C43.0176 38.5121 43.0176 37.7796 43.0176 37.0532C43.0176 36.9926 42.9996 36.9745 42.9394 36.9745C42.5183 36.9805 42.0972 36.9745 41.6761 36.9745C41.5618 36.9745 41.5558 36.9987 41.5558 36.8594C41.5558 34.6922 41.5558 32.519 41.5558 30.3517C41.5558 30.2973 41.5317 30.2488 41.5377 30.1943C41.5678 30.0188 41.5498 29.8372 41.5498 29.6616C41.5498 29.5405 41.5437 29.5405 41.4294 29.5466C41.4114 29.5466 41.3873 29.5466 41.3693 29.5466C41.2429 29.5587 41.1166 29.5587 40.9903 29.5829C40.7136 29.6374 40.4368 29.71 40.1661 29.813C39.8533 29.928 39.5585 30.0793 39.2878 30.267C38.9509 30.497 38.6561 30.7876 38.3674 31.0782C38.1207 31.3264 37.8861 31.5746 37.6395 31.8228C37.5372 31.9257 37.4349 32.0226 37.3387 32.1255C37.0379 32.4403 36.7371 32.7611 36.4363 33.0819C36.3641 33.1606 36.2919 33.2514 36.2137 33.3241C36.0513 33.4815 35.9009 33.6449 35.7385 33.8023C35.2993 34.2382 34.8602 34.6801 34.4451 35.1402C34.1984 35.4126 33.9398 35.6669 33.6811 35.9272C33.2479 36.3691 32.8028 36.805 32.3756 37.2529C31.9425 37.707 31.5154 38.161 31.0762 38.609C30.7634 38.9298 30.4446 39.2446 30.2039 39.632C30.0295 39.9044 29.8731 40.189 29.7528 40.4916C29.5963 40.8851 29.5001 41.2907 29.458 41.7084C29.4099 42.1746 29.4159 42.6407 29.5121 43.1008C29.5783 43.4156 29.6685 43.7243 29.7828 44.027C29.843 44.1904 29.9332 44.3418 30.0175 44.4931C30.4446 45.2559 31.0221 45.8431 31.7741 46.2669ZM44.8163 30.8179C44.8103 30.8542 44.8103 30.8724 44.8103 30.8905C44.8103 31.8591 44.8103 32.8216 44.8103 33.7902C44.8103 34.8254 44.8103 35.8606 44.8103 36.9018C44.8103 36.9684 44.7983 36.9987 44.7201 36.9987C44.2869 36.9926 43.8598 36.9987 43.4267 36.9987C43.3605 36.9987 43.3425 37.0229 43.3425 37.0834C43.3425 37.6767 43.3425 38.276 43.3425 38.8693C43.3425 38.8995 43.3425 38.9298 43.3425 38.9601C43.4989 38.8087 43.6493 38.6634 43.7997 38.5121C44.0463 38.2578 44.293 38.0036 44.5396 37.7493C44.8404 37.4406 45.1472 37.1379 45.3878 36.7747C45.8631 36.0604 46.1157 35.2673 46.1699 34.4138C46.2 33.9234 46.1458 33.4391 46.0255 32.9609C45.8992 32.4584 45.6946 31.9923 45.4059 31.5625C45.2435 31.2901 45.0389 31.0661 44.8163 30.8179Z" fill="url(#paint12_linear_622_4174)"/>
</g>
<g filter="url(#filter3_d_622_4174)">
<path d="M27.5227 44.7744C27.4568 44.7504 27.4208 44.7023 27.3908 44.6602C27.2828 44.5159 27.1509 44.3897 27.0309 44.2574C26.887 44.095 26.7371 43.9327 26.5811 43.7764C26.2813 43.4698 25.9814 43.1631 25.6815 42.8565C25.5076 42.6761 25.3337 42.5018 25.1597 42.3274C25.0158 42.1831 24.8839 42.0268 24.7399 41.8885C24.674 41.8224 24.614 41.7442 24.53 41.6901C24.458 41.648 24.4341 41.5579 24.3681 41.4977C24.1762 41.3234 24.0082 41.131 23.8163 40.9566C23.6664 40.8183 23.5464 40.644 23.3965 40.5057C23.3005 40.4215 23.2166 40.3193 23.1146 40.2412C23.0666 40.2111 23.0487 40.145 23.0067 40.1029C22.8088 39.9105 22.6108 39.7241 22.4249 39.5197C22.173 39.2371 21.8971 38.9786 21.6453 38.696C21.4593 38.4916 21.2554 38.2992 21.0635 38.1008C20.7816 37.8062 20.5237 37.4875 20.3018 37.1448C20.1939 36.9765 20.1099 36.7961 20.014 36.6218C19.924 36.4594 19.87 36.2851 19.798 36.1227C19.7021 35.9183 19.6721 35.7019 19.6061 35.4914C19.5641 35.3472 19.5462 35.1968 19.5162 35.0526C19.4442 34.6497 19.4622 34.2469 19.4502 33.8381C19.4502 33.7298 19.4622 33.6216 19.4562 33.5134C19.4562 33.4292 19.4922 33.339 19.5042 33.2489C19.5162 33.1948 19.5102 33.1346 19.5162 33.0805C19.5282 32.9903 19.5581 32.9062 19.5821 32.816C19.6541 32.5094 19.7501 32.2147 19.864 31.9201C19.93 31.7458 19.996 31.5654 20.0979 31.4091C20.2299 31.2047 20.3498 30.9882 20.4937 30.7958C20.6377 30.5974 20.7816 30.399 20.9555 30.2247C21.1055 30.0684 21.2614 29.918 21.4293 29.7738C21.6992 29.5333 21.9931 29.3228 22.311 29.1485C22.5029 29.0463 22.7008 28.9501 22.8987 28.8599C23.0427 28.7937 23.1866 28.7396 23.3425 28.7036C23.4625 28.6735 23.5704 28.6194 23.6964 28.6074C23.8883 28.5893 24.0682 28.5412 24.2541 28.5112C24.524 28.4751 24.7939 28.4751 25.0638 28.4751C25.1717 28.4751 25.2797 28.4751 25.3816 28.4811C25.4896 28.4871 25.5976 28.5052 25.7055 28.5232C25.8554 28.5472 26.0054 28.6074 26.1613 28.6134C26.2993 28.6194 26.4132 28.6915 26.5392 28.7216C26.779 28.7757 26.995 28.8899 27.2169 28.9861C27.4867 29.1064 27.7326 29.2567 27.9725 29.425C28.1465 29.5453 28.3264 29.6655 28.4883 29.8098C28.6023 29.912 28.7102 30.0203 28.8122 30.1285C29.148 30.4712 29.4839 30.8139 29.8197 31.1566C30.1856 31.5354 30.5514 31.9201 30.9233 32.2929C31.3791 32.7498 31.8169 33.2308 32.2787 33.6817C32.2967 33.6998 32.3147 33.7178 32.3327 33.7359C32.3567 33.7599 32.3507 33.784 32.3267 33.808C32.1587 33.9764 31.9968 34.1387 31.8289 34.307C31.7749 34.3671 31.7089 34.4213 31.661 34.4814C31.619 34.5295 31.589 34.5054 31.559 34.4814C31.4271 34.3491 31.2831 34.2229 31.1692 34.0725C31.0492 33.9222 30.8933 33.814 30.7853 33.6577C30.7373 33.5916 30.6654 33.5435 30.6114 33.4833C30.3835 33.2489 30.1616 33.0024 29.9277 32.7799C29.7178 32.5755 29.5199 32.353 29.31 32.1426C29.166 31.9983 29.0101 31.866 28.8781 31.7097C28.6982 31.4933 28.4943 31.3069 28.3024 31.1025C28.0925 30.88 27.8826 30.6576 27.6367 30.4712C27.4927 30.363 27.3428 30.2547 27.1809 30.1646C27.0489 30.0864 26.911 30.0203 26.779 29.9481C26.6531 29.882 26.5212 29.8279 26.3832 29.7858C26.2693 29.7497 26.1493 29.7076 26.0294 29.6776C25.8435 29.6295 25.6575 29.5994 25.4716 29.5693C25.3757 29.5513 25.2797 29.5573 25.1837 29.5513C25.1238 29.5453 25.1118 29.5693 25.1118 29.6234C25.1118 29.8098 25.1118 29.9962 25.1118 30.1766C25.1118 30.7598 25.1118 31.343 25.1118 31.9262C25.1118 33.327 25.1178 34.7339 25.1118 36.1348C25.1118 36.3753 25.1238 36.6157 25.1178 36.8623C25.1178 36.9104 25.1118 36.9404 25.0458 36.9404C24.614 36.9404 24.1822 36.9404 23.7503 36.9404C23.6784 36.9404 23.6604 36.9645 23.6604 37.0546C23.6604 37.698 23.6604 38.3353 23.6604 38.9786C23.6604 39.0567 23.6664 39.1349 23.6544 39.2131C23.6484 39.2431 23.6604 39.2612 23.6784 39.2852C24.0862 39.7001 24.494 40.1149 24.9019 40.5358C25.3457 40.9927 25.7895 41.4496 26.2333 41.9066C26.3412 42.0148 26.4552 42.117 26.5691 42.2252C26.5691 42.0449 26.5691 41.8585 26.5691 41.6721C26.5691 39.7542 26.5691 37.8423 26.5691 35.9243C26.5691 35.8582 26.5931 35.8402 26.6531 35.8402C27.0849 35.8402 27.5167 35.8402 27.9485 35.8402C28.0205 35.8402 28.0325 35.8161 28.0325 35.75C28.0325 34.806 28.0325 33.8681 28.0325 32.9242C28.0325 32.816 28.0325 32.816 28.1405 32.816C28.1884 32.816 28.2424 32.822 28.2904 32.816C28.3564 32.81 28.3804 32.834 28.3804 32.9062C28.3804 33.2489 28.3804 33.5916 28.3804 33.9343C28.3804 34.5475 28.3804 35.1548 28.3804 35.768C28.3804 35.8342 28.4044 35.8582 28.4643 35.8341C28.5063 35.8161 28.5483 35.8402 28.5843 35.8402C28.9741 35.8402 29.3579 35.8402 29.7478 35.8402C29.8137 35.8402 29.8497 35.8582 29.8317 35.9303C29.8077 36.0686 29.8197 36.2069 29.8197 36.3392C29.8197 36.3753 29.8077 36.3993 29.7838 36.4234C29.6458 36.5556 29.5259 36.6939 29.3879 36.8262C29.238 36.9765 29.0881 37.1268 28.9381 37.2831C28.7702 37.4515 28.6203 37.6318 28.4763 37.8182C28.3744 37.9505 28.2784 38.0828 28.1884 38.221C28.0325 38.4555 27.8826 38.696 27.7626 38.9545C27.6487 39.195 27.5407 39.4415 27.4508 39.694C27.3728 39.9165 27.2888 40.1329 27.2409 40.3614C27.1989 40.5658 27.1449 40.7642 27.1149 40.9687C27.0969 41.1069 27.0849 41.2452 27.0669 41.3835C27.0429 41.5699 27.0369 41.7503 27.0249 41.9366C27.0129 42.111 27.007 42.2853 27.0309 42.4597C27.0429 42.5439 27.0369 42.6341 27.0429 42.7182C27.0609 42.8866 27.0789 43.0549 27.1029 43.2173C27.1449 43.5179 27.2229 43.8125 27.3008 44.1011C27.3428 44.2574 27.3908 44.4077 27.4568 44.552C27.4748 44.6241 27.5107 44.6903 27.5227 44.7744ZM23.2825 38.8523C23.2825 38.8403 23.2885 38.8343 23.2885 38.8283C23.2885 38.2391 23.2885 37.6499 23.2885 37.0607C23.2885 36.9104 23.2885 36.9164 23.1446 36.9224C22.7308 36.9404 22.323 36.9284 21.9091 36.9284C21.8552 36.9284 21.8312 36.9104 21.8312 36.8502C21.8312 34.8842 21.8312 32.9122 21.8312 30.9462C21.8312 30.9101 21.8492 30.856 21.8192 30.8439C21.7892 30.8319 21.7712 30.886 21.7472 30.9101C21.4773 31.1686 21.2674 31.4752 21.0815 31.7939C20.8296 32.2328 20.6677 32.7017 20.5657 33.1948C20.4698 33.6577 20.4638 34.1267 20.4997 34.5956C20.5177 34.8241 20.5717 35.0465 20.6197 35.269C20.7396 35.768 20.9555 36.231 21.2374 36.6578C21.4713 37.0186 21.7652 37.3252 22.0711 37.6318C22.239 37.8062 22.4069 37.9805 22.5749 38.1549C22.7788 38.3593 22.9827 38.5637 23.1806 38.7742C23.2106 38.8042 23.2406 38.8343 23.2825 38.8523Z" fill="url(#paint13_linear_622_4174)"/>
</g>
<g filter="url(#filter4_d_622_4174)">
<path d="M11.3711 56.0098C11.3711 56.0098 21.2289 59.2183 33.1937 59.2183C45.1584 59.2183 55.1667 56.0098 55.1667 56.0098V44.9032C55.1667 44.9032 42.0178 49.2337 33.1937 49.2224C24.4267 49.2112 11.3711 44.9032 11.3711 44.9032V56.0098Z" fill="url(#paint14_linear_622_4174)"/>
</g>
<g filter="url(#filter5_d_622_4174)">
<path d="M35.1003 19.4708C34.3838 20.7117 32.5928 20.7117 31.8764 19.4708C31.1599 18.23 32.0555 16.6789 33.4883 16.6789C34.9212 16.6789 35.8167 18.23 35.1003 19.4708Z" fill="url(#paint15_linear_622_4174)"/>
</g>
<g filter="url(#filter6_d_622_4174)">
<path d="M35.1003 65.0182C34.3838 66.2591 32.5928 66.2591 31.8764 65.0182C31.1599 63.7773 32.0555 62.2262 33.4883 62.2262C34.9212 62.2262 35.8167 63.7773 35.1003 65.0182Z" fill="url(#paint16_linear_622_4174)"/>
</g>
<g filter="url(#filter7_d_622_4174)">
<path d="M54.9818 28.9791C55.8081 30.1497 55.0574 31.7758 53.6305 31.9062C52.2036 32.0365 51.1707 30.5733 51.7713 29.2724C52.3718 27.9715 54.1555 27.8086 54.9818 28.9791Z" fill="url(#paint17_linear_622_4174)"/>
</g>
<g filter="url(#filter8_d_622_4174)">
<path d="M15.3441 28.9791C16.1704 30.1497 15.4197 31.7758 13.9928 31.9062C12.5659 32.0365 11.533 30.5733 12.1336 29.2724C12.7342 27.9715 14.5178 27.8086 15.3441 28.9791Z" fill="url(#paint18_linear_622_4174)"/>
</g>
<defs>
<filter id="filter0_d_622_4174" x="0.577734" y="0.9" width="66.8367" height="70.2" filterUnits="userSpaceOnUse" color-interpolation-filters="sRGB">
<feFlood flood-opacity="0" result="BackgroundImageFix"/>
<feColorMatrix in="SourceAlpha" type="matrix" values="0 0 0 0 0 0 0 0 0 0 0 0 0 0 0 0 0 0 127 0" result="hardAlpha"/>
<feOffset dy="-4"/>
<feGaussianBlur stdDeviation="2.55"/>
<feComposite in2="hardAlpha" operator="out"/>
<feColorMatrix type="matrix" values="0 0 0 0 0 0 0 0 0 0 0 0 0 0 0 0 0 0 0.25 0"/>
<feBlend mode="normal" in2="BackgroundImageFix" result="effect1_dropShadow_622_4174"/>
<feBlend mode="normal" in="SourceGraphic" in2="effect1_dropShadow_622_4174" result="shape"/>
</filter>
<filter id="filter1_i_622_4174" x="12.7891" y="21.3414" width="42.9609" height="42.557" filterUnits="userSpaceOnUse" color-interpolation-filters="sRGB">
<feFlood flood-opacity="0" result="BackgroundImageFix"/>
<feBlend mode="normal" in="SourceGraphic" in2="BackgroundImageFix" result="shape"/>
<feColorMatrix in="SourceAlpha" type="matrix" values="0 0 0 0 0 0 0 0 0 0 0 0 0 0 0 0 0 0 127 0" result="hardAlpha"/>
<feOffset dx="2" dy="1"/>
<feGaussianBlur stdDeviation="1"/>
<feComposite in2="hardAlpha" operator="arithmetic" k2="-1" k3="1"/>
<feColorMatrix type="matrix" values="0 0 0 0 0 0 0 0 0 0 0 0 0 0 0 0 0 0 0.25 0"/>
<feBlend mode="normal" in2="shape" result="effect1_innerShadow_622_4174"/>
</filter>
<filter id="filter2_d_622_4174" x="27.7789" y="28.4751" width="22.0506" height="23.0175" filterUnits="userSpaceOnUse" color-interpolation-filters="sRGB">
<feFlood flood-opacity="0" result="BackgroundImageFix"/>
<feColorMatrix in="SourceAlpha" type="matrix" values="0 0 0 0 0 0 0 0 0 0 0 0 0 0 0 0 0 0 127 0" result="hardAlpha"/>
<feOffset dx="1" dy="2"/>
<feGaussianBlur stdDeviation="0.8"/>
<feComposite in2="hardAlpha" operator="out"/>
<feColorMatrix type="matrix" values="0 0 0 0 0 0 0 0 0 0 0 0 0 0 0 0 0 0 0.25 0"/>
<feBlend mode="normal" in2="BackgroundImageFix" result="effect1_dropShadow_622_4174"/>
<feBlend mode="normal" in="SourceGraphic" in2="effect1_dropShadow_622_4174" result="shape"/>
</filter>
<filter id="filter3_d_622_4174" x="18.8502" y="28.4751" width="16.0975" height="19.8993" filterUnits="userSpaceOnUse" color-interpolation-filters="sRGB">
<feFlood flood-opacity="0" result="BackgroundImageFix"/>
<feColorMatrix in="SourceAlpha" type="matrix" values="0 0 0 0 0 0 0 0 0 0 0 0 0 0 0 0 0 0 127 0" result="hardAlpha"/>
<feOffset dx="1" dy="2"/>
<feGaussianBlur stdDeviation="0.8"/>
<feComposite in2="hardAlpha" operator="out"/>
<feColorMatrix type="matrix" values="0 0 0 0 0 0 0 0 0 0 0 0 0 0 0 0 0 0 0.25 0"/>
<feBlend mode="normal" in2="BackgroundImageFix" result="effect1_dropShadow_622_4174"/>
<feBlend mode="normal" in="SourceGraphic" in2="effect1_dropShadow_622_4174" result="shape"/>
</filter>
<filter id="filter4_d_622_4174" x="11.3711" y="44.6032" width="47.0959" height="16.9151" filterUnits="userSpaceOnUse" color-interpolation-filters="sRGB">
<feFlood flood-opacity="0" result="BackgroundImageFix"/>
<feColorMatrix in="SourceAlpha" type="matrix" values="0 0 0 0 0 0 0 0 0 0 0 0 0 0 0 0 0 0 127 0" result="hardAlpha"/>
<feOffset dx="2" dy="1"/>
<feGaussianBlur stdDeviation="0.65"/>
<feComposite in2="hardAlpha" operator="out"/>
<feColorMatrix type="matrix" values="0 0 0 0 0 0 0 0 0 0 0 0 0 0 0 0 0 0 0.25 0"/>
<feBlend mode="normal" in2="BackgroundImageFix" result="effect1_dropShadow_622_4174"/>
<feBlend mode="normal" in="SourceGraphic" in2="effect1_dropShadow_622_4174" result="shape"/>
</filter>
<filter id="filter5_d_622_4174" x="25.324" y="10.3788" width="16.3285" height="16.3227" filterUnits="userSpaceOnUse" color-interpolation-filters="sRGB">
<feFlood flood-opacity="0" result="BackgroundImageFix"/>
<feColorMatrix in="SourceAlpha" type="matrix" values="0 0 0 0 0 0 0 0 0 0 0 0 0 0 0 0 0 0 127 0" result="hardAlpha"/>
<feOffset/>
<feGaussianBlur stdDeviation="3.15"/>
<feComposite in2="hardAlpha" operator="out"/>
<feColorMatrix type="matrix" values="0 0 0 0 1 0 0 0 0 1 0 0 0 0 1 0 0 0 0.25 0"/>
<feBlend mode="normal" in2="BackgroundImageFix" result="effect1_dropShadow_622_4174"/>
<feBlend mode="normal" in="SourceGraphic" in2="effect1_dropShadow_622_4174" result="shape"/>
</filter>
<filter id="filter6_d_622_4174" x="25.324" y="55.9262" width="16.3285" height="16.3227" filterUnits="userSpaceOnUse" color-interpolation-filters="sRGB">
<feFlood flood-opacity="0" result="BackgroundImageFix"/>
<feColorMatrix in="SourceAlpha" type="matrix" values="0 0 0 0 0 0 0 0 0 0 0 0 0 0 0 0 0 0 127 0" result="hardAlpha"/>
<feOffset/>
<feGaussianBlur stdDeviation="3.15"/>
<feComposite in2="hardAlpha" operator="out"/>
<feColorMatrix type="matrix" values="0 0 0 0 1 0 0 0 0 1 0 0 0 0 1 0 0 0 0.25 0"/>
<feBlend mode="normal" in2="BackgroundImageFix" result="effect1_dropShadow_622_4174"/>
<feBlend mode="normal" in="SourceGraphic" in2="effect1_dropShadow_622_4174" result="shape"/>
</filter>
<filter id="filter7_d_622_4174" x="45.2967" y="21.891" width="16.3285" height="16.3233" filterUnits="userSpaceOnUse" color-interpolation-filters="sRGB">
<feFlood flood-opacity="0" result="BackgroundImageFix"/>
<feColorMatrix in="SourceAlpha" type="matrix" values="0 0 0 0 0 0 0 0 0 0 0 0 0 0 0 0 0 0 127 0" result="hardAlpha"/>
<feOffset/>
<feGaussianBlur stdDeviation="3.15"/>
<feComposite in2="hardAlpha" operator="out"/>
<feColorMatrix type="matrix" values="0 0 0 0 1 0 0 0 0 1 0 0 0 0 1 0 0 0 0.25 0"/>
<feBlend mode="normal" in2="BackgroundImageFix" result="effect1_dropShadow_622_4174"/>
<feBlend mode="normal" in="SourceGraphic" in2="effect1_dropShadow_622_4174" result="shape"/>
</filter>
<filter id="filter8_d_622_4174" x="5.65898" y="21.891" width="16.3285" height="16.3233" filterUnits="userSpaceOnUse" color-interpolation-filters="sRGB">
<feFlood flood-opacity="0" result="BackgroundImageFix"/>
<feColorMatrix in="SourceAlpha" type="matrix" values="0 0 0 0 0 0 0 0 0 0 0 0 0 0 0 0 0 0 127 0" result="hardAlpha"/>
<feOffset/>
<feGaussianBlur stdDeviation="3.15"/>
<feComposite in2="hardAlpha" operator="out"/>
<feColorMatrix type="matrix" values="0 0 0 0 1 0 0 0 0 1 0 0 0 0 1 0 0 0 0.25 0"/>
<feBlend mode="normal" in2="BackgroundImageFix" result="effect1_dropShadow_622_4174"/>
<feBlend mode="normal" in="SourceGraphic" in2="effect1_dropShadow_622_4174" result="shape"/>
</filter>
<linearGradient id="paint0_linear_622_4174" x1="45.408" y1="9.39957" x2="33.61" y2="9.48621" gradientUnits="userSpaceOnUse">
<stop stop-color="#F19F63"/>
<stop offset="1" stop-color="#AC4E0A"/>
</linearGradient>
<linearGradient id="paint1_linear_622_4174" x1="36.166" y1="15.4634" x2="29.3382" y2="28.7136" gradientUnits="userSpaceOnUse">
<stop stop-color="#F8A65B"/>
<stop offset="1" stop-color="#B65A17"/>
</linearGradient>
<linearGradient id="paint2_linear_622_4174" x1="31.3953" y1="18.2576" x2="27.7339" y2="27.1902" gradientUnits="userSpaceOnUse">
<stop stop-color="#F8A65B"/>
<stop offset="1" stop-color="#B65A17"/>
</linearGradient>
<linearGradient id="paint3_linear_622_4174" x1="50.405" y1="12.6161" x2="40.4133" y2="9.97067" gradientUnits="userSpaceOnUse">
<stop stop-color="#F19F63"/>
<stop offset="1" stop-color="#AC4E0A"/>
</linearGradient>
<linearGradient id="paint4_linear_622_4174" x1="70.6345" y1="23.3578" x2="60.3425" y2="20.511" gradientUnits="userSpaceOnUse">
<stop stop-color="#F19F63"/>
<stop offset="1" stop-color="#AC4E0A"/>
</linearGradient>
<linearGradient id="paint5_linear_622_4174" x1="68.0075" y1="38.6856" x2="57.7156" y2="35.8389" gradientUnits="userSpaceOnUse">
<stop stop-color="#F19F63"/>
<stop offset="1" stop-color="#AC4E0A"/>
</linearGradient>
<linearGradient id="paint6_linear_622_4174" x1="69.7595" y1="30.3645" x2="59.4675" y2="27.5178" gradientUnits="userSpaceOnUse">
<stop stop-color="#F19F63"/>
<stop offset="1" stop-color="#AC4E0A"/>
</linearGradient>
<linearGradient id="paint7_linear_622_4174" x1="11.159" y1="20.3567" x2="10.5229" y2="41.7349" gradientUnits="userSpaceOnUse">
<stop stop-color="#F8A65B"/>
<stop offset="1" stop-color="#B65A17"/>
</linearGradient>
<linearGradient id="paint8_linear_622_4174" x1="13.7879" y1="34.371" x2="13.1518" y2="55.7492" gradientUnits="userSpaceOnUse">
<stop stop-color="#F8A65B"/>
<stop offset="1" stop-color="#B65A17"/>
</linearGradient>
<linearGradient id="paint9_linear_622_4174" x1="12.035" y1="26.9255" x2="11.3989" y2="48.3038" gradientUnits="userSpaceOnUse">
<stop stop-color="#F8A65B"/>
<stop offset="1" stop-color="#B65A17"/>
</linearGradient>
<linearGradient id="paint10_linear_622_4174" x1="21.8053" y1="16.5693" x2="47.4567" y2="19.0535" gradientUnits="userSpaceOnUse">
<stop stop-color="#F2B072"/>
<stop offset="1" stop-color="#C75C0F"/>
</linearGradient>
<linearGradient id="paint11_linear_622_4174" x1="22.5474" y1="18.412" x2="47.0839" y2="19.741" gradientUnits="userSpaceOnUse">
<stop stop-color="#F89E4B"/>
<stop offset="1" stop-color="#DB7124"/>
</linearGradient>
<linearGradient id="paint12_linear_622_4174" x1="32.8698" y1="28.4751" x2="44.157" y2="29.1282" gradientUnits="userSpaceOnUse">
<stop stop-color="#F2DFD2"/>
<stop offset="1" stop-color="#EA9558"/>
</linearGradient>
<linearGradient id="paint13_linear_622_4174" x1="22.5229" y1="28.4751" x2="28.5031" y2="16.069" gradientUnits="userSpaceOnUse">
<stop stop-color="#F2DFD2"/>
</linearGradient>
<linearGradient id="paint14_linear_622_4174" x1="33.4083" y1="60.1459" x2="33.8352" y2="49.7971" gradientUnits="userSpaceOnUse">
<stop stop-color="#D1741D"/>
<stop offset="0.994792" stop-color="#F8A264"/>
</linearGradient>
<linearGradient id="paint15_linear_622_4174" x1="39.5357" y1="18.3052" x2="35.9727" y2="22.4651" gradientUnits="userSpaceOnUse">
<stop stop-color="#ECD5C8"/>
<stop offset="1" stop-color="#FF7A00"/>
</linearGradient>
<linearGradient id="paint16_linear_622_4174" x1="39.5357" y1="63.8526" x2="35.9727" y2="68.0125" gradientUnits="userSpaceOnUse">
<stop stop-color="#ECD5C8"/>
<stop offset="1" stop-color="#FF7A00"/>
</linearGradient>
<linearGradient id="paint17_linear_622_4174" x1="55.7826" y1="24.4635" x2="58.0661" y2="29.442" gradientUnits="userSpaceOnUse">
<stop stop-color="#ECD5C8"/>
<stop offset="1" stop-color="#FF7A00"/>
</linearGradient>
<linearGradient id="paint18_linear_622_4174" x1="16.1449" y1="24.4635" x2="18.4284" y2="29.442" gradientUnits="userSpaceOnUse">
<stop stop-color="#ECD5C8"/>
<stop offset="1" stop-color="#FF7A00"/>
</linearGradient>
</defs>
</svg>
