<svg width="64" height="62" viewBox="0 0 64 62" fill="none" xmlns="http://www.w3.org/2000/svg">
<path d="M38.3107 7.92435C38.3531 8.22332 33.441 15.221 29.3091 21.5939C26.5312 21.3325 22.6374 21.2528 23.9867 19.4083C26.372 16.1475 29.5247 12.9127 31.7264 9.31151L37.9897 0.668457C38.0214 1.7485 38.2297 7.35289 38.3107 7.92435Z" fill="url(#paint0_linear_637_2792)"/>
<path d="M24.7162 8.04548C24.6793 8.34518 29.7196 15.2513 33.9684 21.547C36.741 21.2345 40.6327 21.0831 39.2496 19.2637C36.8046 16.0474 33.5927 12.8712 31.325 9.31118L24.9033 0.784912C24.8916 1.86535 24.7866 7.47263 24.7162 8.04548Z" fill="url(#paint1_linear_637_2792)"/>
<path d="M62.4732 16.0973C62.0525 16.5297 54.6328 26.1863 49.213 31.5894C47.2044 29.4289 44.2858 26.7656 45.9706 25.3026C48.9488 22.7163 52.4987 20.668 55.4605 17.5272L63.3101 10.6331C62.8364 12.1043 62.6777 15.8871 62.4732 16.0973Z" fill="url(#paint2_linear_637_2792)"/>
<path d="M59.9493 30.8097C59.5286 31.2421 52.1089 40.8987 46.6891 46.3018C44.6805 44.1413 41.7618 41.4781 43.4466 40.015C46.4249 37.4287 49.9747 35.3804 52.9365 32.2396L60.7861 25.3455C60.3124 26.8167 60.1537 30.5995 59.9493 30.8097Z" fill="url(#paint3_linear_637_2792)"/>
<path d="M61.6319 22.8229C61.2112 23.2553 53.7915 32.9118 48.3717 38.315C46.3631 36.1545 43.4445 33.4912 45.1292 32.0282C48.1075 29.4419 51.6574 27.3936 54.6191 24.2527L62.4688 17.3586C61.9951 18.8299 61.8364 22.6127 61.6319 22.8229Z" fill="url(#paint4_linear_637_2792)"/>
<path d="M2.94471 15.6769C3.36541 16.1093 10.1294 25.7658 15.5492 31.169C17.5578 29.0085 20.4764 26.3452 18.7917 24.8822C15.8134 22.2959 12.2635 20.2476 9.30176 17.1067L1.45215 10.2126C1.92584 11.6839 2.74023 15.4667 2.94471 15.6769Z" fill="url(#paint5_linear_637_2792)"/>
<path d="M5.46913 29.1283C5.88982 29.5607 12.6538 39.2173 18.0736 44.6204C20.0822 42.4599 23.0008 39.7967 21.3161 38.3336C18.3378 35.7473 14.7879 33.699 11.8262 30.5582L3.97656 23.6641C4.45026 25.1353 5.26464 28.9181 5.46913 29.1283Z" fill="url(#paint6_linear_637_2792)"/>
<path d="M3.78602 21.9823C4.20672 22.4147 10.9707 32.0713 16.3905 37.4744C18.3991 35.3139 21.3177 32.6507 19.633 31.1876C16.6547 28.6013 13.1048 26.5531 10.1431 23.4122L2.29346 16.5181C2.76715 17.9893 3.58154 21.7721 3.78602 21.9823Z" fill="url(#paint7_linear_637_2792)"/>
<path d="M52.8735 42.6194V22.6132L59.7394 13.5755L55.1109 15.0467L50.5592 16.7282L35.5228 8.66396L34.9916 5.9767C34.8046 5.031 34.3955 4.14322 33.7978 3.38655L31.5528 0.544434L29.8147 3.54314C29.4337 4.20045 29.1793 4.92324 29.0646 5.67413L28.6079 8.66396L12.907 16.7282L9.67577 15.4671L5.33447 13.5755L10.8039 22.6132V42.581C10.8039 45.2721 12.5735 47.6434 15.1548 48.4114L25.11 51.373C26.5147 51.7909 27.6344 52.8552 28.1222 54.2362C28.4382 55.1307 29.0245 55.905 29.8001 56.452L32.1838 58.1333L34.3927 56.4648C35.1301 55.9078 35.6896 55.1485 36.0031 54.2795C36.512 52.8686 37.656 51.7794 39.0911 51.3397L48.5701 48.4355C51.1275 47.6519 52.8735 45.2922 52.8735 42.6194Z" fill="url(#paint8_linear_637_2792)"/>
<g filter="url(#filter0_i_637_2792)">
<path d="M28.7712 10.7784L14.952 19.6912C13.2149 20.8115 12.1655 22.7363 12.1655 24.8022V41.7135C12.1655 44.4459 13.9888 46.8431 16.6235 47.5747L30.4668 51.4189C31.5483 51.7192 32.6919 51.7149 33.7711 51.4065L47.098 47.5982C49.7109 46.8515 51.5121 44.4648 51.5121 41.7493V24.7506C51.5121 22.713 50.4912 20.8107 48.7925 19.6833L35.4415 10.8222C33.4246 9.48354 30.8055 9.46635 28.7712 10.7784Z" fill="url(#paint9_linear_637_2792)"/>
</g>
<g filter="url(#filter1_d_637_2792)">
<path d="M27.1495 31.4728C27.1322 31.3159 27.1495 31.1474 27.1438 30.9731C27.1438 30.8859 27.1611 30.7872 27.19 30.6942C27.2131 30.607 27.2131 30.5141 27.2304 30.4327C27.2651 30.2758 27.3113 30.1248 27.346 29.9679C27.4038 29.7122 27.5136 29.474 27.6118 29.23C27.7101 28.9801 27.8488 28.7477 27.9875 28.5153C28.1204 28.2887 28.2822 28.0853 28.4555 27.8819C28.6982 27.6089 28.9583 27.3474 29.2068 27.0801C29.3801 26.8942 29.5593 26.7199 29.7326 26.5397C30.0678 26.2027 30.4087 25.8657 30.7323 25.5171C31.0791 25.1511 31.4316 24.7966 31.7841 24.4306C31.9401 24.2679 32.1135 24.1168 32.2637 23.9425C32.5122 23.652 32.7953 23.3963 33.0612 23.1232C33.2114 22.9722 33.3617 22.8211 33.5061 22.6642C33.8528 22.2865 34.2342 21.9437 34.581 21.5602C34.8699 21.2407 35.1877 20.9443 35.4824 20.6306C35.7078 20.3923 35.9332 20.1599 36.1528 19.9275C36.3435 19.7299 36.5515 19.5614 36.7595 19.3871C36.9676 19.2128 37.1929 19.0734 37.4241 18.9339C37.6726 18.7887 37.9442 18.6725 38.2158 18.5737C38.3371 18.533 38.4527 18.4749 38.5741 18.4517C38.6781 18.4342 38.7763 18.3994 38.8803 18.3877C39.0421 18.3703 39.1982 18.3354 39.36 18.3122C39.6027 18.2773 39.8511 18.2773 40.0939 18.2773C40.4059 18.2773 40.7122 18.3238 41.0127 18.3819C41.3478 18.4458 41.6714 18.5388 41.9777 18.6783C42.2782 18.8119 42.5729 18.9746 42.8503 19.1605C43.1681 19.3813 43.4628 19.6312 43.7344 19.9101C43.9771 20.1541 44.1736 20.433 44.3701 20.7119C44.6186 21.078 44.7977 21.4847 44.948 21.903C45.0751 22.2633 45.156 22.6293 45.2022 23.007C45.2253 23.222 45.2542 23.437 45.2485 23.6578C45.2427 23.8844 45.2485 24.111 45.2138 24.3376C45.1733 24.5991 45.1387 24.8663 45.0693 25.122C44.9826 25.4358 44.8786 25.7437 44.7399 26.0342C44.503 26.5572 44.191 27.022 43.8038 27.4462C43.538 27.7425 43.2548 28.0272 42.9774 28.3061C42.6943 28.585 42.4227 28.8755 42.1569 29.166C42.0413 29.2939 41.9257 29.4217 41.7928 29.5321C41.7177 29.6018 41.6483 29.6832 41.579 29.7529C41.527 29.8052 41.475 29.8517 41.423 29.904C41.134 30.2061 40.8393 30.4966 40.5561 30.8046C40.4001 30.9731 40.2441 31.1416 40.0881 31.3043C39.8223 31.5774 39.5564 31.8505 39.2848 32.1235C39.0132 32.3966 38.7359 32.6639 38.4758 32.9486C38.1175 33.3379 37.7419 33.7156 37.3779 34.1049C37.1467 34.3489 36.8982 34.5814 36.6613 34.8196C36.4244 35.0578 36.1874 35.296 35.9505 35.5343C35.8176 35.6679 35.6616 35.7783 35.5171 35.8945C35.3149 36.0514 35.101 36.1908 34.8757 36.307C34.5232 36.4872 34.1533 36.6324 33.7719 36.7428C33.5408 36.8067 33.2981 36.8416 33.0612 36.8881C32.9976 36.8997 32.9283 36.8997 32.8647 36.9055C32.5526 36.9288 32.2406 36.8997 31.9285 36.8997C31.8361 36.8997 31.7436 36.8707 31.6512 36.859C31.5414 36.8416 31.4316 36.8125 31.3218 36.7893C31.1311 36.7486 30.9462 36.6905 30.7612 36.6382C30.5416 36.5743 30.3336 36.4697 30.1256 36.3768C29.9869 36.3129 29.8655 36.2199 29.7326 36.1502C29.6228 36.0921 29.5246 36.0223 29.4264 35.9526C29.2934 35.848 29.1605 35.7434 29.0334 35.6388C28.8543 35.4878 28.6867 35.3193 28.5307 35.145C28.4324 35.0288 28.3284 34.9184 28.2359 34.7963C28.0741 34.5813 27.9412 34.3489 27.8141 34.1165C27.6927 33.8899 27.5714 33.6633 27.4905 33.4193C27.4038 33.1752 27.346 32.9254 27.2709 32.6813C27.242 32.5826 27.242 32.4722 27.2189 32.3676C27.1553 32.0713 27.138 31.7807 27.1495 31.4728ZM30.403 35.3541C30.4203 35.3251 30.4145 35.3018 30.4145 35.2786C30.4145 35.0113 30.4145 34.744 30.4145 34.4826C30.4145 33.1055 30.4145 31.7343 30.4145 30.3572C30.4145 30.3107 30.4203 30.2816 30.4781 30.2816C30.8999 30.2816 31.3218 30.2816 31.7436 30.2875C31.8014 30.2875 31.8245 30.2758 31.8187 30.2119C31.8187 29.6716 31.8187 29.1254 31.8187 28.585C31.8187 28.2073 31.8187 27.8355 31.8187 27.4578C31.8187 27.3648 31.8187 27.3648 31.917 27.359C31.969 27.359 32.0268 27.3648 32.0788 27.3474C32.1077 27.3416 32.1481 27.359 32.1539 27.4055C32.1539 27.4636 32.1655 27.5159 32.1655 27.5682C32.1655 28.4456 32.1655 29.3229 32.1655 30.2061C32.1655 30.2642 32.1828 30.2816 32.2406 30.2758C32.6624 30.2758 33.0843 30.2758 33.5061 30.27C33.5639 30.27 33.5812 30.2816 33.5812 30.3398C33.5812 31.9144 33.5812 33.489 33.5812 35.0578C33.5812 35.2495 33.5812 35.4471 33.5812 35.6388C33.5812 35.6853 33.5928 35.7028 33.6448 35.6853C33.7142 35.6621 33.7835 35.6505 33.8471 35.6214C33.9684 35.5691 34.0956 35.5226 34.2169 35.4587C34.3556 35.3832 34.5001 35.3193 34.6387 35.2379C34.8063 35.1391 34.9566 35.0288 35.1126 34.9067C35.2051 34.837 35.2917 34.7673 35.2513 34.6278C35.2513 34.622 35.2513 34.6162 35.2513 34.6046C35.2513 32.2862 35.2571 29.9621 35.2571 27.6437C35.2571 26.9174 35.2571 26.1911 35.2571 25.4648C35.2571 25.3719 35.2571 25.3719 35.3495 25.3719C35.754 25.3719 36.1643 25.3719 36.5688 25.3719C36.6382 25.3719 36.6613 25.3486 36.6613 25.2789C36.6555 24.8024 36.6613 24.3202 36.6613 23.8437C36.6613 23.4079 36.6613 22.9722 36.6613 22.5364C36.6613 22.4666 36.6844 22.4492 36.748 22.4492C36.8115 22.455 36.8751 22.455 36.9329 22.4492C36.9849 22.4434 36.9965 22.4666 36.9965 22.5131C36.9965 23.4196 36.9965 24.326 36.9965 25.2382C36.9965 25.2673 37.0022 25.2963 36.9907 25.3196C36.9676 25.3719 36.9965 25.3719 37.0311 25.3719C37.1352 25.3719 37.2449 25.3719 37.349 25.3719C37.6726 25.3719 37.9962 25.3719 38.314 25.3719C38.3718 25.3719 38.3949 25.3893 38.3949 25.4474C38.3891 25.5229 38.3891 25.6043 38.3891 25.6798C38.3891 27.5972 38.3891 29.5089 38.3891 31.4263C38.3891 31.4495 38.3891 31.467 38.3949 31.4902C38.4122 31.5367 38.4238 31.5425 38.4585 31.5076C38.5278 31.4321 38.5972 31.3624 38.6665 31.2927C39.0363 30.9092 39.412 30.5257 39.7818 30.1422C40.2383 29.6716 40.6948 29.2009 41.1571 28.7303C41.1918 28.6954 41.2034 28.6547 41.2034 28.6082C41.2034 27.911 41.2034 27.2079 41.2034 26.5107C41.2034 26.4526 41.186 26.4352 41.1282 26.4352C40.7237 26.441 40.3192 26.4352 39.9147 26.4352C39.8049 26.4352 39.7991 26.4584 39.7991 26.3248C39.7991 24.2446 39.7991 22.1587 39.7991 20.0786C39.7991 20.0263 39.776 19.9798 39.7818 19.9275C39.8107 19.759 39.7934 19.5847 39.7934 19.4162C39.7934 19.3 39.7876 19.3 39.6778 19.3058C39.6604 19.3058 39.6373 19.3058 39.62 19.3058C39.4986 19.3174 39.3773 19.3174 39.2559 19.3406C38.9901 19.3929 38.7243 19.4627 38.4643 19.5614C38.1638 19.6718 37.8806 19.8171 37.6206 19.9972C37.297 20.218 37.0138 20.4969 36.7364 20.7758C36.4995 21.014 36.2741 21.2523 36.0372 21.4905C35.939 21.5893 35.8407 21.6822 35.7483 21.781C35.4593 22.0832 35.1704 22.3911 34.8815 22.6991C34.8121 22.7746 34.7428 22.8618 34.6676 22.9315C34.5116 23.0826 34.3672 23.2394 34.2111 23.3905C33.7893 23.8089 33.3674 24.233 32.9687 24.6746C32.7318 24.9361 32.4833 25.1801 32.2348 25.43C31.8187 25.8541 31.3911 26.2725 30.9808 26.7024C30.5648 27.1382 30.1545 27.574 29.7326 28.004C29.4321 28.3119 29.1259 28.6141 28.8947 28.9859C28.7271 29.2474 28.5769 29.5205 28.4613 29.811C28.3111 30.1887 28.2186 30.578 28.1782 30.9789C28.1319 31.4263 28.1377 31.8737 28.2302 32.3153C28.2937 32.6174 28.3804 32.9138 28.4902 33.2043C28.548 33.3612 28.6347 33.5064 28.7156 33.6517C29.1259 34.3838 29.6806 34.9474 30.403 35.3541ZM42.9312 20.526C42.9254 20.5608 42.9254 20.5783 42.9254 20.5957C42.9254 21.5254 42.9254 22.4492 42.9254 23.3789C42.9254 24.3725 42.9254 25.366 42.9254 26.3654C42.9254 26.4293 42.9139 26.4584 42.8387 26.4584C42.4227 26.4526 42.0124 26.4584 41.5963 26.4584C41.5328 26.4584 41.5154 26.4816 41.5154 26.5397C41.5154 27.1092 41.5154 27.6844 41.5154 28.2538C41.5154 28.2829 41.5154 28.3119 41.5154 28.341C41.6657 28.1957 41.8101 28.0563 41.9546 27.911C42.1915 27.667 42.4284 27.4229 42.6654 27.1789C42.9543 26.8826 43.249 26.592 43.4802 26.2434C43.9367 25.5578 44.1794 24.7966 44.2314 23.9774C44.2603 23.5067 44.2083 23.0419 44.0927 22.5829C43.9714 22.1006 43.7749 21.6532 43.4975 21.2407C43.3415 20.9792 43.145 20.7642 42.9312 20.526Z" fill="url(#paint10_linear_637_2792)"/>
</g>
<g filter="url(#filter2_d_637_2792)">
<path d="M26.3188 33.921C26.2555 33.8979 26.2209 33.8517 26.1921 33.8113C26.0884 33.6728 25.9616 33.5516 25.8464 33.4247C25.7082 33.2689 25.5641 33.1131 25.4143 32.963C25.1263 32.6687 24.8382 32.3744 24.5502 32.0801C24.3831 31.907 24.216 31.7396 24.049 31.5723C23.9107 31.4338 23.784 31.2838 23.6457 31.151C23.5823 31.0876 23.5247 31.0125 23.4441 30.9606C23.3749 30.9202 23.3519 30.8336 23.2885 30.7759C23.1042 30.6086 22.9429 30.4239 22.7585 30.2566C22.6145 30.1238 22.4993 29.9565 22.3552 29.8238C22.2631 29.743 22.1824 29.6449 22.0845 29.5699C22.0384 29.541 22.0211 29.4775 21.9808 29.4371C21.7906 29.2525 21.6005 29.0736 21.4219 28.8774C21.18 28.6062 20.915 28.358 20.673 28.0868C20.4944 27.8906 20.2985 27.7059 20.1142 27.5155C19.8434 27.2327 19.5957 26.9269 19.3825 26.598C19.2788 26.4364 19.1982 26.2633 19.106 26.0959C19.0196 25.9401 18.9677 25.7727 18.8986 25.6169C18.8064 25.4207 18.7776 25.213 18.7142 25.011C18.6739 24.8725 18.6566 24.7282 18.6278 24.5897C18.5587 24.2031 18.576 23.8165 18.5645 23.4241C18.5645 23.3202 18.576 23.2163 18.5702 23.1125C18.5702 23.0317 18.6048 22.9451 18.6163 22.8585C18.6278 22.8066 18.6221 22.7489 18.6278 22.697C18.6393 22.6104 18.6682 22.5296 18.6912 22.4431C18.7603 22.1487 18.8525 21.866 18.962 21.5832C19.0253 21.4159 19.0887 21.2427 19.1866 21.0927C19.3134 20.8965 19.4286 20.6888 19.5669 20.5041C19.7051 20.3137 19.8434 20.1232 20.0105 19.9559C20.1545 19.8058 20.3043 19.6616 20.4656 19.5231C20.7248 19.2923 21.0071 19.0903 21.3125 18.9229C21.4968 18.8248 21.6869 18.7325 21.8771 18.6459C22.0153 18.5825 22.1536 18.5305 22.3034 18.4959C22.4186 18.467 22.5223 18.4151 22.6433 18.4036C22.8276 18.3863 23.0005 18.3401 23.1791 18.3112C23.4383 18.2766 23.6976 18.2766 23.9568 18.2766C24.0605 18.2766 24.1642 18.2766 24.2621 18.2824C24.3658 18.2882 24.4695 18.3055 24.5732 18.3228C24.7173 18.3459 24.8613 18.4036 25.0111 18.4093C25.1436 18.4151 25.253 18.4844 25.374 18.5132C25.6045 18.5651 25.8119 18.6748 26.025 18.7671C26.2843 18.8825 26.5205 19.0268 26.7509 19.1884C26.918 19.3038 27.0908 19.4192 27.2464 19.5577C27.3558 19.6558 27.4595 19.7597 27.5575 19.8636C27.8801 20.1925 28.2027 20.5214 28.5253 20.8503C28.8767 21.2139 29.2282 21.5832 29.5854 21.941C30.0232 22.3796 30.4438 22.8412 30.8874 23.274C30.9046 23.2913 30.9219 23.3087 30.9392 23.326C30.9622 23.3491 30.9565 23.3721 30.9334 23.3952C30.7721 23.5568 30.6166 23.7126 30.4553 23.8742C30.4034 23.9319 30.34 23.9838 30.294 24.0415C30.2536 24.0877 30.2248 24.0646 30.196 24.0415C30.0693 23.9146 29.931 23.7934 29.8216 23.6491C29.7063 23.5049 29.5565 23.401 29.4528 23.2509C29.4068 23.1875 29.3376 23.1413 29.2858 23.0836C29.0669 22.8585 28.8537 22.6219 28.629 22.4084C28.4274 22.2122 28.2373 21.9987 28.0356 21.7967C27.8974 21.6582 27.7476 21.5313 27.6208 21.3812C27.448 21.1735 27.2521 20.9946 27.0678 20.7984C26.8661 20.5849 26.6645 20.3714 26.4283 20.1925C26.29 20.0886 26.146 19.9847 25.9905 19.8982C25.8637 19.8232 25.7312 19.7597 25.6045 19.6904C25.4835 19.627 25.3567 19.575 25.2242 19.5346C25.1148 19.5 24.9996 19.4596 24.8843 19.4308C24.7057 19.3846 24.5271 19.3557 24.3486 19.3269C24.2564 19.3096 24.1642 19.3153 24.072 19.3096C24.0144 19.3038 24.0029 19.3269 24.0029 19.3788C24.0029 19.5577 24.0029 19.7366 24.0029 19.9097C24.0029 20.4695 24.0029 21.0292 24.0029 21.589C24.0029 22.9336 24.0087 24.2839 24.0029 25.6285C24.0029 25.8593 24.0144 26.0901 24.0087 26.3267C24.0087 26.3729 24.0029 26.4017 23.9395 26.4017C23.5247 26.4017 23.1099 26.4017 22.6951 26.4017C22.626 26.4017 22.6087 26.4248 22.6087 26.5114C22.6087 27.1289 22.6087 27.7406 22.6087 28.358C22.6087 28.433 22.6145 28.5081 22.603 28.5831C22.5972 28.6119 22.6087 28.6292 22.626 28.6523C23.0177 29.0505 23.4095 29.4487 23.8013 29.8526C24.2276 30.2912 24.6539 30.7298 25.0802 31.1683C25.1839 31.2722 25.2934 31.3703 25.4028 31.4742C25.4028 31.3011 25.4028 31.1222 25.4028 30.9433C25.4028 29.1024 25.4028 27.2674 25.4028 25.4265C25.4028 25.363 25.4259 25.3457 25.4835 25.3457C25.8983 25.3457 26.3131 25.3457 26.7279 25.3457C26.797 25.3457 26.8085 25.3226 26.8085 25.2592C26.8085 24.3532 26.8085 23.4529 26.8085 22.5469C26.8085 22.4431 26.8085 22.4431 26.9122 22.4431C26.9583 22.4431 27.0102 22.4488 27.0562 22.4431C27.1196 22.4373 27.1427 22.4604 27.1427 22.5296C27.1427 22.8585 27.1427 23.1875 27.1427 23.5164C27.1427 24.105 27.1427 24.6879 27.1427 25.2765C27.1427 25.3399 27.1657 25.363 27.2233 25.3399C27.2636 25.3226 27.304 25.3457 27.3385 25.3457C27.713 25.3457 28.0817 25.3457 28.4562 25.3457C28.5196 25.3457 28.5541 25.363 28.5368 25.4323C28.5138 25.565 28.5253 25.6977 28.5253 25.8247C28.5253 25.8593 28.5138 25.8824 28.4908 25.9055C28.3582 26.0324 28.243 26.1651 28.1105 26.2921C27.9665 26.4364 27.8225 26.5806 27.6784 26.7307C27.5171 26.8923 27.3731 27.0654 27.2348 27.2443C27.1369 27.3712 27.0447 27.4982 26.9583 27.6309C26.8085 27.856 26.6645 28.0868 26.5493 28.3349C26.4398 28.5658 26.3361 28.8024 26.2497 29.0447C26.1748 29.2582 26.0942 29.466 26.0481 29.6853C26.0077 29.8815 25.9559 30.0719 25.9271 30.2681C25.9098 30.4008 25.8983 30.5336 25.881 30.6663C25.8579 30.8452 25.8522 31.0183 25.8407 31.1972C25.8291 31.3645 25.8234 31.5319 25.8464 31.6992C25.8579 31.78 25.8522 31.8666 25.8579 31.9474C25.8752 32.109 25.8925 32.2705 25.9156 32.4264C25.9559 32.7149 26.0308 32.9977 26.1057 33.2746C26.146 33.4247 26.1921 33.5689 26.2555 33.7074C26.2727 33.7767 26.3073 33.8402 26.3188 33.921ZM22.2458 28.2368C22.2458 28.2253 22.2515 28.2195 22.2515 28.2137C22.2515 27.6482 22.2515 27.0827 22.2515 26.5172C22.2515 26.3729 22.2515 26.3787 22.1133 26.3844C21.7157 26.4017 21.324 26.3902 20.9265 26.3902C20.8746 26.3902 20.8516 26.3729 20.8516 26.3152C20.8516 24.4282 20.8516 22.5354 20.8516 20.6484C20.8516 20.6137 20.8689 20.5618 20.8401 20.5503C20.8113 20.5387 20.794 20.5907 20.7709 20.6137C20.5117 20.8619 20.3101 21.1562 20.1315 21.462C19.8895 21.8833 19.7339 22.3334 19.636 22.8066C19.5438 23.2509 19.5381 23.7011 19.5726 24.1512C19.5899 24.3705 19.6418 24.584 19.6879 24.7975C19.8031 25.2765 20.0105 25.7208 20.2812 26.1305C20.5059 26.4768 20.7882 26.7711 21.082 27.0654C21.2433 27.2327 21.4047 27.4001 21.566 27.5674C21.7618 27.7636 21.9577 27.9598 22.1478 28.1618C22.1766 28.1907 22.2054 28.2195 22.2458 28.2368Z" fill="url(#paint11_linear_637_2792)"/>
</g>
<path d="M10.8042 44.7059C10.8042 44.7059 20.2735 47.7854 31.7667 47.7854C43.2599 47.7854 52.8738 44.7059 52.8738 44.7059V34.0456C52.8738 34.0456 40.243 38.2021 31.7667 38.1913C23.3452 38.1805 10.8042 34.0456 10.8042 34.0456V44.7059Z" fill="url(#paint12_linear_637_2792)"/>
<g filter="url(#filter3_d_637_2792)">
<path d="M32.752 11.0979C32.4395 11.6386 31.6584 11.6386 31.3459 11.0979L29.6551 8.17165C29.3427 7.63091 29.7332 6.95498 30.3581 6.95498L33.7398 6.95498C34.3647 6.95498 34.7552 7.63091 34.4428 8.17165L32.752 11.0979Z" fill="url(#paint13_linear_637_2792)"/>
</g>
<g filter="url(#filter4_d_637_2792)">
<path d="M32.752 54.8149C32.4395 55.3556 31.6584 55.3556 31.3459 54.8149L29.6551 51.8887C29.3427 51.3479 29.7332 50.672 30.3581 50.672L33.7398 50.672C34.3647 50.672 34.7552 51.3479 34.4428 51.8887L32.752 54.8149Z" fill="url(#paint14_linear_637_2792)"/>
</g>
<g filter="url(#filter5_d_637_2792)">
<path d="M53.6711 20.1414C54.0315 20.6515 53.7041 21.3601 53.0818 21.4169L49.7142 21.7243C49.0919 21.7811 48.6414 21.1435 48.9033 20.5766L50.3207 17.5088C50.5827 16.9419 51.3605 16.8709 51.7209 17.381L53.6711 20.1414Z" fill="url(#paint15_linear_637_2792)"/>
</g>
<g filter="url(#filter6_d_637_2792)">
<path d="M15.595 20.1414C15.9553 20.6515 15.6279 21.3601 15.0056 21.4169L11.638 21.7243C11.0157 21.7811 10.5652 21.1435 10.8272 20.5766L12.2446 17.5088C12.5065 16.9419 13.2844 16.8709 13.6448 17.381L15.595 20.1414Z" fill="url(#paint16_linear_637_2792)"/>
</g>
<path d="M32.6226 40.8987H33.807V44.8438H32.6226V40.8987Z" fill="#FE9CA4"/>
<path d="M34.3052 40.8987H35.4897V44.8438H34.3052V40.8987Z" fill="#FE9CA4"/>
<path d="M35.9878 40.8987H37.1723V44.8438H35.9878V40.8987Z" fill="#FE9CA4"/>
<path d="M29.5081 44.6301L27.7661 41.0991H28.5688L30.1229 44.2922H29.6618L31.233 41.0991H31.9731L30.2368 44.6301H29.5081Z" fill="#FE9CA4"/>
<path fill-rule="evenodd" clip-rule="evenodd" d="M27.4395 40.8962H28.6954L29.8943 43.3593L31.1063 40.8962H32.2985L30.3628 44.8328H29.3815L27.4395 40.8962ZM29.6674 43.8205L28.4415 41.3018H28.092L29.5012 44.1581L29.6674 43.8205ZM30.2628 44.1165L30.1192 43.8214L31.359 41.3018H31.6469L30.2628 44.1165Z" fill="#FE9CA4"/>
<defs>
<filter id="filter0_i_637_2792" x="12.1655" y="9.80615" width="41.3467" height="42.835" filterUnits="userSpaceOnUse" color-interpolation-filters="sRGB">
<feFlood flood-opacity="0" result="BackgroundImageFix"/>
<feBlend mode="normal" in="SourceGraphic" in2="BackgroundImageFix" result="shape"/>
<feColorMatrix in="SourceAlpha" type="matrix" values="0 0 0 0 0 0 0 0 0 0 0 0 0 0 0 0 0 0 127 0" result="hardAlpha"/>
<feOffset dx="2" dy="1"/>
<feGaussianBlur stdDeviation="1"/>
<feComposite in2="hardAlpha" operator="arithmetic" k2="-1" k3="1"/>
<feColorMatrix type="matrix" values="0 0 0 0 0 0 0 0 0 0 0 0 0 0 0 0 0 0 0.25 0"/>
<feBlend mode="normal" in2="shape" result="effect1_innerShadow_637_2792"/>
</filter>
<filter id="filter1_d_637_2792" x="26.5416" y="18.2773" width="21.3074" height="22.2372" filterUnits="userSpaceOnUse" color-interpolation-filters="sRGB">
<feFlood flood-opacity="0" result="BackgroundImageFix"/>
<feColorMatrix in="SourceAlpha" type="matrix" values="0 0 0 0 0 0 0 0 0 0 0 0 0 0 0 0 0 0 127 0" result="hardAlpha"/>
<feOffset dx="1" dy="2"/>
<feGaussianBlur stdDeviation="0.8"/>
<feComposite in2="hardAlpha" operator="out"/>
<feColorMatrix type="matrix" values="0 0 0 0 0 0 0 0 0 0 0 0 0 0 0 0 0 0 0.25 0"/>
<feBlend mode="normal" in2="BackgroundImageFix" result="effect1_dropShadow_637_2792"/>
<feBlend mode="normal" in="SourceGraphic" in2="effect1_dropShadow_637_2792" result="shape"/>
</filter>
<filter id="filter2_d_637_2792" x="17.9645" y="18.2766" width="15.5896" height="19.2443" filterUnits="userSpaceOnUse" color-interpolation-filters="sRGB">
<feFlood flood-opacity="0" result="BackgroundImageFix"/>
<feColorMatrix in="SourceAlpha" type="matrix" values="0 0 0 0 0 0 0 0 0 0 0 0 0 0 0 0 0 0 127 0" result="hardAlpha"/>
<feOffset dx="1" dy="2"/>
<feGaussianBlur stdDeviation="0.8"/>
<feComposite in2="hardAlpha" operator="out"/>
<feColorMatrix type="matrix" values="0 0 0 0 0 0 0 0 0 0 0 0 0 0 0 0 0 0 0.25 0"/>
<feBlend mode="normal" in2="BackgroundImageFix" result="effect1_dropShadow_637_2792"/>
<feBlend mode="normal" in="SourceGraphic" in2="effect1_dropShadow_637_2792" result="shape"/>
</filter>
<filter id="filter3_d_637_2792" x="23.2449" y="0.655078" width="17.6078" height="17.1483" filterUnits="userSpaceOnUse" color-interpolation-filters="sRGB">
<feFlood flood-opacity="0" result="BackgroundImageFix"/>
<feColorMatrix in="SourceAlpha" type="matrix" values="0 0 0 0 0 0 0 0 0 0 0 0 0 0 0 0 0 0 127 0" result="hardAlpha"/>
<feOffset/>
<feGaussianBlur stdDeviation="3.15"/>
<feComposite in2="hardAlpha" operator="out"/>
<feColorMatrix type="matrix" values="0 0 0 0 1 0 0 0 0 1 0 0 0 0 1 0 0 0 0.25 0"/>
<feBlend mode="normal" in2="BackgroundImageFix" result="effect1_dropShadow_637_2792"/>
<feBlend mode="normal" in="SourceGraphic" in2="effect1_dropShadow_637_2792" result="shape"/>
</filter>
<filter id="filter4_d_637_2792" x="23.2449" y="44.3721" width="17.6078" height="17.1483" filterUnits="userSpaceOnUse" color-interpolation-filters="sRGB">
<feFlood flood-opacity="0" result="BackgroundImageFix"/>
<feColorMatrix in="SourceAlpha" type="matrix" values="0 0 0 0 0 0 0 0 0 0 0 0 0 0 0 0 0 0 127 0" result="hardAlpha"/>
<feOffset/>
<feGaussianBlur stdDeviation="3.15"/>
<feComposite in2="hardAlpha" operator="out"/>
<feColorMatrix type="matrix" values="0 0 0 0 1 0 0 0 0 1 0 0 0 0 1 0 0 0 0.25 0"/>
<feBlend mode="normal" in2="BackgroundImageFix" result="effect1_dropShadow_637_2792"/>
<feBlend mode="normal" in="SourceGraphic" in2="effect1_dropShadow_637_2792" result="shape"/>
</filter>
<filter id="filter5_d_637_2792" x="42.5271" y="10.7376" width="17.5937" height="17.2902" filterUnits="userSpaceOnUse" color-interpolation-filters="sRGB">
<feFlood flood-opacity="0" result="BackgroundImageFix"/>
<feColorMatrix in="SourceAlpha" type="matrix" values="0 0 0 0 0 0 0 0 0 0 0 0 0 0 0 0 0 0 127 0" result="hardAlpha"/>
<feOffset/>
<feGaussianBlur stdDeviation="3.15"/>
<feComposite in2="hardAlpha" operator="out"/>
<feColorMatrix type="matrix" values="0 0 0 0 1 0 0 0 0 1 0 0 0 0 1 0 0 0 0.25 0"/>
<feBlend mode="normal" in2="BackgroundImageFix" result="effect1_dropShadow_637_2792"/>
<feBlend mode="normal" in="SourceGraphic" in2="effect1_dropShadow_637_2792" result="shape"/>
</filter>
<filter id="filter6_d_637_2792" x="4.45098" y="10.7376" width="17.5937" height="17.2902" filterUnits="userSpaceOnUse" color-interpolation-filters="sRGB">
<feFlood flood-opacity="0" result="BackgroundImageFix"/>
<feColorMatrix in="SourceAlpha" type="matrix" values="0 0 0 0 0 0 0 0 0 0 0 0 0 0 0 0 0 0 127 0" result="hardAlpha"/>
<feOffset/>
<feGaussianBlur stdDeviation="3.15"/>
<feComposite in2="hardAlpha" operator="out"/>
<feColorMatrix type="matrix" values="0 0 0 0 1 0 0 0 0 1 0 0 0 0 1 0 0 0 0.25 0"/>
<feBlend mode="normal" in2="BackgroundImageFix" result="effect1_dropShadow_637_2792"/>
<feBlend mode="normal" in="SourceGraphic" in2="effect1_dropShadow_637_2792" result="shape"/>
</filter>
<linearGradient id="paint0_linear_637_2792" x1="37.1158" y1="0.760282" x2="34.9212" y2="11.983" gradientUnits="userSpaceOnUse">
<stop stop-color="#EC5871"/>
<stop offset="1" stop-color="#AA0D3C"/>
</linearGradient>
<linearGradient id="paint1_linear_637_2792" x1="34.6208" y1="5.78822" x2="28.0705" y2="18.5103" gradientUnits="userSpaceOnUse">
<stop stop-color="#FD7984"/>
<stop offset="1" stop-color="#CB144B"/>
</linearGradient>
<linearGradient id="paint2_linear_637_2792" x1="67.7319" y1="13.365" x2="57.8467" y2="10.6286" gradientUnits="userSpaceOnUse">
<stop stop-color="#B43250"/>
<stop offset="1" stop-color="#7A0729"/>
</linearGradient>
<linearGradient id="paint3_linear_637_2792" x1="65.208" y1="28.0774" x2="55.3227" y2="25.341" gradientUnits="userSpaceOnUse">
<stop stop-color="#B2314F"/>
<stop offset="1" stop-color="#730B2A"/>
</linearGradient>
<linearGradient id="paint4_linear_637_2792" x1="66.8906" y1="20.0906" x2="57.0054" y2="17.3541" gradientUnits="userSpaceOnUse">
<stop stop-color="#EF5C74"/>
<stop offset="1" stop-color="#7E0C2E"/>
</linearGradient>
<linearGradient id="paint5_linear_637_2792" x1="4.6275" y1="10.2122" x2="10.0886" y2="26.6088" gradientUnits="userSpaceOnUse">
<stop stop-color="#FF9FA7"/>
<stop offset="1" stop-color="#CA144B"/>
</linearGradient>
<linearGradient id="paint6_linear_637_2792" x1="7.15191" y1="23.6637" x2="12.613" y2="40.0602" gradientUnits="userSpaceOnUse">
<stop stop-color="#FD7984"/>
<stop offset="1" stop-color="#CB144B"/>
</linearGradient>
<linearGradient id="paint7_linear_637_2792" x1="5.4688" y1="16.5177" x2="10.9299" y2="32.9142" gradientUnits="userSpaceOnUse">
<stop stop-color="#F16277"/>
<stop offset="1" stop-color="#CB144B"/>
</linearGradient>
<linearGradient id="paint8_linear_637_2792" x1="20.8264" y1="6.84972" x2="45.4665" y2="9.23794" gradientUnits="userSpaceOnUse">
<stop stop-color="#FD7984"/>
<stop offset="1" stop-color="#AA0D3C"/>
</linearGradient>
<linearGradient id="paint9_linear_637_2792" x1="21.5393" y1="8.61809" x2="45.1086" y2="9.89578" gradientUnits="userSpaceOnUse">
<stop stop-color="#FD7984"/>
<stop offset="1" stop-color="#CB144B"/>
</linearGradient>
<linearGradient id="paint10_linear_637_2792" x1="31.4555" y1="18.2773" x2="42.2978" y2="18.9052" gradientUnits="userSpaceOnUse">
<stop stop-color="#FD94A1"/>
<stop offset="1" stop-color="#E9386D"/>
</linearGradient>
<linearGradient id="paint11_linear_637_2792" x1="21.516" y1="18.2766" x2="27.253" y2="6.36543" gradientUnits="userSpaceOnUse">
<stop stop-color="#FF9FA7"/>
<stop offset="0.9999" stop-color="#1C6A8B"/>
<stop offset="1" stop-color="#1A6889"/>
<stop offset="1" stop-color="#216F91"/>
<stop offset="1" stop-color="#0A8593"/>
</linearGradient>
<linearGradient id="paint12_linear_637_2792" x1="31.9729" y1="48.6758" x2="32.3823" y2="38.7428" gradientUnits="userSpaceOnUse">
<stop stop-color="#CC164C"/>
<stop offset="0.994792" stop-color="#E74D6B"/>
</linearGradient>
<linearGradient id="paint13_linear_637_2792" x1="33.921" y1="12.3145" x2="29.6396" y2="12.0591" gradientUnits="userSpaceOnUse">
<stop offset="0.0001" stop-color="#AA0D3C"/>
<stop offset="1" stop-color="#FF9FA7"/>
</linearGradient>
<linearGradient id="paint14_linear_637_2792" x1="33.921" y1="56.0316" x2="29.6396" y2="55.7762" gradientUnits="userSpaceOnUse">
<stop stop-color="#CB144B"/>
<stop offset="1" stop-color="#FF9FA7"/>
</linearGradient>
<linearGradient id="paint15_linear_637_2792" x1="53.4653" y1="14.427" x2="55.6558" y2="19.2068" gradientUnits="userSpaceOnUse">
<stop stop-color="#FF9FA7"/>
<stop offset="1" stop-color="#AA0D3C"/>
</linearGradient>
<linearGradient id="paint16_linear_637_2792" x1="15.3891" y1="14.427" x2="17.5796" y2="19.2068" gradientUnits="userSpaceOnUse">
<stop stop-color="#FF9FA7"/>
<stop offset="1" stop-color="#AA0D3C"/>
</linearGradient>
</defs>
</svg>
