<svg width="87" height="82" viewBox="0 0 87 82" fill="none" xmlns="http://www.w3.org/2000/svg">
<g filter="url(#filter0_d_622_4035)">
<path d="M49.9308 19.4292C49.942 19.7436 44.0908 26.4568 39.1157 32.6079C36.2685 32.0334 32.246 31.525 33.8448 29.7614C36.671 26.6437 40.2889 23.6369 42.9624 20.1464L50.3926 11.8762C50.3071 12.9987 49.9095 18.8282 49.9308 19.4292Z" fill="url(#paint0_linear_622_4035)"/>
<path d="M35.0096 19.4292C34.9985 19.7436 40.8496 26.4568 45.8247 32.6079C48.672 32.0334 52.6944 31.525 51.0956 29.7614C48.2694 26.6437 44.6515 23.6369 41.978 20.1464L34.5479 11.8762C34.6333 12.9987 35.0309 18.8282 35.0096 19.4292Z" fill="url(#paint1_linear_622_4035)"/>
<path d="M74.6605 27.2045C74.2226 27.655 66.4985 37.7159 60.8563 43.3452C58.7653 41.0942 55.7269 38.3195 57.4808 36.7952C60.5813 34.1006 64.2768 31.9666 67.3601 28.6942L75.5317 21.5115C75.0386 23.0443 74.8734 26.9855 74.6605 27.2045Z" fill="url(#paint2_linear_622_4035)"/>
<path d="M12.69 26.7664C13.128 27.2169 20.1695 37.2777 25.8116 42.9071C27.9026 40.6561 30.9411 37.8814 29.1872 36.3571C26.0867 33.6625 22.3912 31.5285 19.3079 28.2561L11.1362 21.0734C11.6294 22.6062 12.4772 26.5474 12.69 26.7664Z" fill="url(#paint3_linear_622_4035)"/>
<g filter="url(#filter1_d_622_4035)">
<path d="M64.6672 49.0894V33.9927L71.8148 24.5766L66.9964 26.1095L62.258 27.8613L46.6046 19.4595L42.4717 11L39.406 19.4595L23.0609 27.8613L19.6972 26.5474L15.1777 24.5766L20.8716 33.9927V48.8467C20.8716 55.1804 25.0331 60.7615 31.1034 62.5688L35.7646 63.9566C37.2269 64.392 38.3926 65.5009 38.9004 66.9397C39.2294 67.8717 39.8397 68.6784 40.6471 69.2483L43.1287 71L45.4282 69.2616C46.1959 68.6813 46.7783 67.8902 47.1046 66.9848C47.6344 65.5148 48.8254 64.38 50.3193 63.922L54.6926 62.581C60.6203 60.7633 64.6672 55.2895 64.6672 49.0894Z" fill="url(#paint4_linear_622_4035)"/>
</g>
<g filter="url(#filter2_i_622_4035)">
<path d="M34.8105 24.7387L29.1544 28.3897C24.8744 31.1523 22.2891 35.8982 22.2891 40.9923V47.31C22.2891 54.0475 26.7812 59.9582 33.2726 61.7623L38.9881 63.3507C41.6527 64.0913 44.4702 64.0807 47.1292 63.3203L52.3746 61.8201C58.8122 59.979 63.25 54.0941 63.25 47.3984V40.865C63.25 35.8408 60.7346 31.1502 56.5495 28.3703L51.2447 24.8466C46.2755 21.5459 39.8227 21.5035 34.8105 24.7387Z" fill="url(#paint5_linear_622_4035)"/>
</g>
<g filter="url(#filter3_d_622_4035)">
<path d="M37.8877 43.223C37.8696 43.0595 37.8877 42.884 37.8816 42.7024C37.8816 42.6116 37.8997 42.5087 37.9298 42.4118C37.9538 42.321 37.9538 42.2241 37.9719 42.1394C38.008 41.9759 38.0561 41.8185 38.0922 41.6551C38.1524 41.3887 38.2667 41.1405 38.3689 40.8863C38.4712 40.626 38.6156 40.3838 38.76 40.1417C38.8983 39.9056 39.0668 39.6937 39.2472 39.4818C39.4999 39.1973 39.7706 38.9249 40.0293 38.6464C40.2098 38.4527 40.3963 38.2711 40.5767 38.0834C40.9256 37.7323 41.2806 37.3812 41.6175 37.018C41.9784 36.6366 42.3454 36.2673 42.7123 35.8859C42.8748 35.7164 43.0552 35.559 43.2116 35.3774C43.4703 35.0747 43.7651 34.8084 44.0418 34.5239C44.1982 34.3665 44.3547 34.2091 44.505 34.0456C44.866 33.6521 45.263 33.295 45.624 32.8954C45.9248 32.5625 46.2556 32.2537 46.5625 31.9268C46.7971 31.6786 47.0317 31.4365 47.2603 31.1943C47.4588 30.9885 47.6754 30.813 47.8919 30.6313C48.1085 30.4497 48.3431 30.3045 48.5838 30.1592C48.8424 30.0078 49.1252 29.8867 49.4079 29.7838C49.5343 29.7415 49.6546 29.6809 49.7809 29.6567C49.8892 29.6385 49.9915 29.6022 50.0997 29.5901C50.2682 29.572 50.4306 29.5356 50.5991 29.5114C50.8517 29.4751 51.1104 29.4751 51.3631 29.4751C51.6879 29.4751 52.0068 29.5235 52.3196 29.5841C52.6685 29.6507 53.0054 29.7475 53.3242 29.8928C53.637 30.032 53.9438 30.2015 54.2326 30.3953C54.5635 30.6253 54.8703 30.8856 55.153 31.1762C55.4057 31.4304 55.6102 31.721 55.8148 32.0116C56.0734 32.393 56.2599 32.8167 56.4163 33.2526C56.5487 33.6279 56.6329 34.0093 56.681 34.4028C56.7051 34.6268 56.7352 34.8508 56.7292 35.0808C56.7231 35.3169 56.7292 35.553 56.6931 35.7891C56.651 36.0615 56.6149 36.34 56.5427 36.6063C56.4524 36.9332 56.3442 37.2541 56.1998 37.5568C55.9531 38.1016 55.6283 38.5859 55.2252 39.0278C54.9485 39.3365 54.6537 39.6332 54.3649 39.9237C54.0702 40.2143 53.7874 40.517 53.5107 40.8197C53.3904 40.9529 53.2701 41.086 53.1317 41.2011C53.0535 41.2737 52.9813 41.3585 52.9091 41.4311C52.855 41.4856 52.8008 41.534 52.7467 41.5885C52.4459 41.9033 52.1391 42.206 51.8443 42.5268C51.6819 42.7024 51.5195 42.8779 51.357 43.0474C51.0803 43.332 50.8036 43.6165 50.5209 43.901C50.2381 44.1855 49.9493 44.464 49.6786 44.7606C49.3057 45.1662 48.9146 45.5597 48.5356 45.9653C48.295 46.2196 48.0363 46.4617 47.7897 46.7099C47.543 46.9581 47.2964 47.2063 47.0497 47.4545C46.9114 47.5938 46.7489 47.7088 46.5985 47.8298C46.388 47.9933 46.1654 48.1386 45.9308 48.2597C45.5638 48.4473 45.1788 48.5987 44.7818 48.7137C44.5411 48.7803 44.2885 48.8166 44.0418 48.865C43.9757 48.8771 43.9035 48.8771 43.8373 48.8832C43.5124 48.9074 43.1876 48.8771 42.8627 48.8771C42.7665 48.8771 42.6702 48.8469 42.574 48.8348C42.4597 48.8166 42.3454 48.7863 42.2311 48.7621C42.0326 48.7197 41.84 48.6592 41.6475 48.6047C41.4189 48.5381 41.2024 48.4292 40.9858 48.3323C40.8414 48.2657 40.7151 48.1688 40.5767 48.0962C40.4624 48.0357 40.3602 47.963 40.2579 47.8904C40.1195 47.7814 39.9812 47.6724 39.8488 47.5635C39.6623 47.4061 39.4879 47.2305 39.3254 47.0489C39.2232 46.9278 39.1149 46.8128 39.0186 46.6857C38.8502 46.4617 38.7118 46.2196 38.5795 45.9774C38.4531 45.7413 38.3268 45.5052 38.2426 45.251C38.1524 44.9967 38.0922 44.7364 38.014 44.4822C37.9839 44.3792 37.9839 44.2642 37.9598 44.1553C37.8937 43.8465 37.8756 43.5438 37.8877 43.223ZM41.2746 47.2669C41.2926 47.2366 41.2866 47.2124 41.2866 47.1882C41.2866 46.9097 41.2866 46.6312 41.2866 46.3588C41.2866 44.9241 41.2866 43.4954 41.2866 42.0607C41.2866 42.0123 41.2926 41.982 41.3528 41.982C41.7919 41.982 42.2311 41.982 42.6702 41.988C42.7304 41.988 42.7544 41.9759 42.7484 41.9093C42.7484 41.3464 42.7484 40.7773 42.7484 40.2143C42.7484 39.8208 42.7484 39.4334 42.7484 39.0399C42.7484 38.943 42.7484 38.943 42.8507 38.937C42.9048 38.937 42.965 38.943 43.0191 38.9249C43.0492 38.9188 43.0913 38.937 43.0973 38.9854C43.0973 39.046 43.1094 39.1004 43.1094 39.1549C43.1094 40.069 43.1094 40.9831 43.1094 41.9033C43.1094 41.9638 43.1274 41.982 43.1876 41.9759C43.6267 41.9759 44.0659 41.9759 44.505 41.9699C44.5652 41.9699 44.5833 41.982 44.5833 42.0425C44.5833 43.6831 44.5833 45.3236 44.5833 46.9581C44.5833 47.1579 44.5833 47.3637 44.5833 47.5635C44.5833 47.6119 44.5953 47.6301 44.6494 47.6119C44.7216 47.5877 44.7938 47.5756 44.86 47.5453C44.9863 47.4908 45.1187 47.4424 45.245 47.3758C45.3894 47.2971 45.5398 47.2305 45.6841 47.1458C45.8586 47.0429 46.015 46.9278 46.1774 46.8007C46.2737 46.7281 46.3639 46.6554 46.3218 46.5101C46.3218 46.5041 46.3218 46.498 46.3218 46.4859C46.3218 44.0705 46.3278 41.649 46.3278 39.2336C46.3278 38.4769 46.3278 37.7202 46.3278 36.9635C46.3278 36.8666 46.3278 36.8666 46.4241 36.8666C46.8452 36.8666 47.2723 36.8666 47.6934 36.8666C47.7656 36.8666 47.7897 36.8424 47.7897 36.7698C47.7837 36.2734 47.7897 35.7709 47.7897 35.2745C47.7897 34.8205 47.7897 34.3665 47.7897 33.9124C47.7897 33.8398 47.8137 33.8216 47.8799 33.8216C47.9461 33.8277 48.0123 33.8277 48.0724 33.8216C48.1266 33.8156 48.1386 33.8398 48.1386 33.8882C48.1386 34.8326 48.1386 35.777 48.1386 36.7274C48.1386 36.7577 48.1446 36.7879 48.1326 36.8122C48.1085 36.8666 48.1386 36.8666 48.1747 36.8666C48.283 36.8666 48.3973 36.8666 48.5056 36.8666C48.8424 36.8666 49.1793 36.8666 49.5102 36.8666C49.5704 36.8666 49.5944 36.8848 49.5944 36.9453C49.5884 37.024 49.5884 37.1088 49.5884 37.1875C49.5884 39.1852 49.5884 41.1769 49.5884 43.1746C49.5884 43.1988 49.5884 43.2169 49.5944 43.2412C49.6125 43.2896 49.6245 43.2956 49.6606 43.2593C49.7328 43.1806 49.805 43.108 49.8772 43.0353C50.2622 42.6358 50.6532 42.2362 51.0382 41.8367C51.5135 41.3464 51.9887 40.856 52.47 40.3657C52.5061 40.3293 52.5181 40.287 52.5181 40.2385C52.5181 39.5121 52.5181 38.7796 52.5181 38.0532C52.5181 37.9926 52.5 37.9745 52.4399 37.9745C52.0188 37.9805 51.5977 37.9745 51.1766 37.9745C51.0623 37.9745 51.0563 37.9987 51.0563 37.8594C51.0563 35.6922 51.0563 33.519 51.0563 31.3517C51.0563 31.2973 51.0322 31.2488 51.0382 31.1943C51.0683 31.0188 51.0502 30.8372 51.0502 30.6616C51.0502 30.5405 51.0442 30.5405 50.9299 30.5466C50.9119 30.5466 50.8878 30.5466 50.8698 30.5466C50.7434 30.5587 50.6171 30.5587 50.4908 30.5829C50.214 30.6374 49.9373 30.71 49.6666 30.813C49.3538 30.928 49.059 31.0793 48.7883 31.267C48.4514 31.497 48.1566 31.7876 47.8679 32.0782C47.6212 32.3264 47.3866 32.5746 47.14 32.8228C47.0377 32.9257 46.9354 33.0226 46.8392 33.1255C46.5384 33.4403 46.2376 33.7611 45.9368 34.0819C45.8646 34.1606 45.7924 34.2514 45.7142 34.3241C45.5518 34.4815 45.4014 34.6449 45.239 34.8023C44.7998 35.2382 44.3607 35.6801 43.9456 36.1402C43.6989 36.4126 43.4402 36.6669 43.1816 36.9272C42.7484 37.3691 42.3033 37.805 41.8761 38.2529C41.443 38.707 41.0159 39.161 40.5767 39.609C40.2639 39.9298 39.9451 40.2446 39.7044 40.632C39.53 40.9044 39.3736 41.189 39.2532 41.4916C39.0968 41.8851 39.0006 42.2907 38.9585 42.7084C38.9103 43.1746 38.9164 43.6407 39.0126 44.1008C39.0788 44.4156 39.169 44.7243 39.2833 45.027C39.3435 45.1904 39.4337 45.3418 39.5179 45.4931C39.9451 46.2559 40.5226 46.8431 41.2746 47.2669ZM54.3168 31.8179C54.3108 31.8542 54.3108 31.8724 54.3108 31.8905C54.3108 32.8591 54.3108 33.8216 54.3108 34.7902C54.3108 35.8254 54.3108 36.8606 54.3108 37.9018C54.3108 37.9684 54.2988 37.9987 54.2206 37.9987C53.7874 37.9926 53.3603 37.9987 52.9272 37.9987C52.861 37.9987 52.843 38.0229 52.843 38.0834C52.843 38.6767 52.843 39.276 52.843 39.8693C52.843 39.8995 52.843 39.9298 52.843 39.9601C52.9994 39.8087 53.1498 39.6634 53.3002 39.5121C53.5468 39.2578 53.7934 39.0036 54.0401 38.7493C54.3409 38.4406 54.6477 38.1379 54.8883 37.7747C55.3636 37.0604 55.6162 36.2673 55.6704 35.4138C55.7005 34.9234 55.6463 34.4391 55.526 33.9609C55.3997 33.4584 55.1951 32.9923 54.9064 32.5625C54.7439 32.2901 54.5394 32.0661 54.3168 31.8179Z" fill="url(#paint6_linear_622_4035)"/>
</g>
<g filter="url(#filter4_d_622_4035)">
<path d="M37.0232 45.7744C36.9572 45.7504 36.9213 45.7023 36.8913 45.6602C36.7833 45.5159 36.6514 45.3897 36.5314 45.2574C36.3875 45.095 36.2376 44.9327 36.0816 44.7764C35.7818 44.4698 35.4819 44.1631 35.182 43.8565C35.0081 43.6761 34.8342 43.5018 34.6602 43.3274C34.5163 43.1831 34.3844 43.0268 34.2404 42.8885C34.1744 42.8224 34.1145 42.7442 34.0305 42.6901C33.9585 42.648 33.9345 42.5579 33.8686 42.4977C33.6767 42.3234 33.5087 42.131 33.3168 41.9566C33.1669 41.8183 33.0469 41.644 32.897 41.5057C32.801 41.4215 32.7171 41.3193 32.6151 41.2412C32.5671 41.2111 32.5491 41.145 32.5072 41.1029C32.3092 40.9105 32.1113 40.7241 31.9254 40.5197C31.6735 40.2371 31.3976 39.9786 31.1457 39.696C30.9598 39.4916 30.7559 39.2992 30.564 39.1008C30.2821 38.8062 30.0242 38.4875 29.8023 38.1448C29.6944 37.9765 29.6104 37.7961 29.5144 37.6218C29.4245 37.4594 29.3705 37.2851 29.2985 37.1227C29.2026 36.9183 29.1726 36.7019 29.1066 36.4914C29.0646 36.3472 29.0466 36.1968 29.0167 36.0526C28.9447 35.6497 28.9627 35.2469 28.9507 34.8381C28.9507 34.7298 28.9627 34.6216 28.9567 34.5134C28.9567 34.4292 28.9927 34.339 29.0047 34.2489C29.0167 34.1948 29.0107 34.1346 29.0167 34.0805C29.0287 33.9903 29.0586 33.9062 29.0826 33.816C29.1546 33.5094 29.2506 33.2147 29.3645 32.9201C29.4305 32.7458 29.4964 32.5654 29.5984 32.4091C29.7303 32.2047 29.8503 31.9882 29.9942 31.7958C30.1382 31.5974 30.2821 31.399 30.456 31.2247C30.606 31.0684 30.7619 30.918 30.9298 30.7738C31.1997 30.5333 31.4936 30.3228 31.8115 30.1485C32.0034 30.0463 32.2013 29.9501 32.3992 29.8599C32.5431 29.7937 32.6871 29.7396 32.843 29.7036C32.963 29.6735 33.0709 29.6194 33.1969 29.6074C33.3888 29.5893 33.5687 29.5412 33.7546 29.5112C34.0245 29.4751 34.2944 29.4751 34.5643 29.4751C34.6722 29.4751 34.7802 29.4751 34.8821 29.4811C34.9901 29.4871 35.098 29.5052 35.206 29.5232C35.3559 29.5472 35.5059 29.6074 35.6618 29.6134C35.7997 29.6194 35.9137 29.6915 36.0396 29.7216C36.2795 29.7757 36.4954 29.8899 36.7173 29.9861C36.9872 30.1064 37.2331 30.2567 37.473 30.425C37.6469 30.5453 37.8269 30.6655 37.9888 30.8098C38.1028 30.912 38.2107 31.0203 38.3127 31.1285C38.6485 31.4712 38.9844 31.8139 39.3202 32.1566C39.6861 32.5354 40.0519 32.9201 40.4238 33.2929C40.8796 33.7498 41.3174 34.2308 41.7792 34.6817C41.7972 34.6998 41.8152 34.7178 41.8332 34.7359C41.8571 34.7599 41.8511 34.784 41.8272 34.808C41.6592 34.9764 41.4973 35.1387 41.3294 35.307C41.2754 35.3671 41.2094 35.4213 41.1614 35.4814C41.1195 35.5295 41.0895 35.5054 41.0595 35.4814C40.9275 35.3491 40.7836 35.2229 40.6697 35.0725C40.5497 34.9222 40.3938 34.814 40.2858 34.6577C40.2378 34.5916 40.1659 34.5435 40.1119 34.4833C39.884 34.2489 39.6621 34.0024 39.4282 33.7799C39.2183 33.5755 39.0204 33.353 38.8105 33.1426C38.6665 32.9983 38.5106 32.866 38.3786 32.7097C38.1987 32.4933 37.9948 32.3069 37.8029 32.1025C37.593 31.88 37.3831 31.6576 37.1372 31.4712C36.9932 31.363 36.8433 31.2547 36.6814 31.1646C36.5494 31.0864 36.4115 31.0203 36.2795 30.9481C36.1536 30.882 36.0216 30.8279 35.8837 30.7858C35.7698 30.7497 35.6498 30.7076 35.5299 30.6776C35.3439 30.6295 35.158 30.5994 34.9721 30.5693C34.8761 30.5513 34.7802 30.5573 34.6842 30.5513C34.6242 30.5453 34.6123 30.5693 34.6123 30.6234C34.6123 30.8098 34.6123 30.9962 34.6123 31.1766C34.6123 31.7598 34.6123 32.343 34.6123 32.9262C34.6123 34.327 34.6183 35.7339 34.6123 37.1348C34.6123 37.3753 34.6242 37.6157 34.6183 37.8623C34.6183 37.9104 34.6123 37.9404 34.5463 37.9404C34.1145 37.9404 33.6827 37.9404 33.2508 37.9404C33.1789 37.9404 33.1609 37.9645 33.1609 38.0546C33.1609 38.698 33.1609 39.3353 33.1609 39.9786C33.1609 40.0567 33.1669 40.1349 33.1549 40.2131C33.1489 40.2431 33.1609 40.2612 33.1789 40.2852C33.5867 40.7001 33.9945 41.1149 34.4023 41.5358C34.8462 41.9927 35.29 42.4496 35.7338 42.9066C35.8417 43.0148 35.9557 43.117 36.0696 43.2252C36.0696 43.0449 36.0696 42.8585 36.0696 42.6721C36.0696 40.7542 36.0696 38.8423 36.0696 36.9243C36.0696 36.8582 36.0936 36.8402 36.1536 36.8402C36.5854 36.8402 37.0172 36.8402 37.449 36.8402C37.521 36.8402 37.533 36.8161 37.533 36.75C37.533 35.806 37.533 34.8681 37.533 33.9242C37.533 33.816 37.533 33.816 37.641 33.816C37.6889 33.816 37.7429 33.822 37.7909 33.816C37.8569 33.81 37.8808 33.834 37.8808 33.9062C37.8808 34.2489 37.8808 34.5916 37.8808 34.9343C37.8808 35.5475 37.8808 36.1548 37.8808 36.768C37.8808 36.8342 37.9048 36.8582 37.9648 36.8341C38.0068 36.8161 38.0488 36.8402 38.0848 36.8402C38.4746 36.8402 38.8584 36.8402 39.2483 36.8402C39.3142 36.8402 39.3502 36.8582 39.3322 36.9303C39.3082 37.0686 39.3202 37.2069 39.3202 37.3392C39.3202 37.3753 39.3082 37.3993 39.2842 37.4234C39.1463 37.5556 39.0264 37.6939 38.8884 37.8262C38.7385 37.9765 38.5885 38.1268 38.4386 38.2831C38.2707 38.4515 38.1207 38.6318 37.9768 38.8182C37.8749 38.9505 37.7789 39.0828 37.6889 39.221C37.533 39.4555 37.3831 39.696 37.2631 39.9545C37.1492 40.195 37.0412 40.4415 36.9512 40.694C36.8733 40.9165 36.7893 41.1329 36.7413 41.3614C36.6994 41.5658 36.6454 41.7642 36.6154 41.9687C36.5974 42.1069 36.5854 42.2452 36.5674 42.3835C36.5434 42.5699 36.5374 42.7503 36.5254 42.9366C36.5134 43.111 36.5074 43.2853 36.5314 43.4597C36.5434 43.5439 36.5374 43.6341 36.5434 43.7182C36.5614 43.8866 36.5794 44.0549 36.6034 44.2173C36.6454 44.5179 36.7233 44.8125 36.8013 45.1011C36.8433 45.2574 36.8913 45.4077 36.9572 45.552C36.9752 45.6241 37.0112 45.6903 37.0232 45.7744ZM32.783 39.8523C32.783 39.8403 32.789 39.8343 32.789 39.8283C32.789 39.2391 32.789 38.6499 32.789 38.0607C32.789 37.9104 32.789 37.9164 32.6451 37.9224C32.2313 37.9404 31.8235 37.9284 31.4096 37.9284C31.3557 37.9284 31.3317 37.9104 31.3317 37.8502C31.3317 35.8842 31.3317 33.9122 31.3317 31.9462C31.3317 31.9101 31.3497 31.856 31.3197 31.8439C31.2897 31.8319 31.2717 31.886 31.2477 31.9101C30.9778 32.1686 30.7679 32.4752 30.582 32.7939C30.3301 33.2328 30.1682 33.7017 30.0662 34.1948C29.9702 34.6577 29.9642 35.1267 30.0002 35.5956C30.0182 35.8241 30.0722 36.0465 30.1202 36.269C30.2401 36.768 30.456 37.231 30.7379 37.6578C30.9718 38.0186 31.2657 38.3252 31.5716 38.6318C31.7395 38.8062 31.9074 38.9805 32.0753 39.1549C32.2793 39.3593 32.4832 39.5637 32.6811 39.7742C32.7111 39.8042 32.7411 39.8343 32.783 39.8523Z" fill="url(#paint7_linear_622_4035)"/>
</g>
<g filter="url(#filter5_d_622_4035)">
<path d="M20.8711 57.0098C20.8711 57.0098 30.7289 60.2183 42.6937 60.2183C54.6584 60.2183 64.6667 57.0098 64.6667 57.0098V45.9032C64.6667 45.9032 51.5178 50.2337 42.6937 50.2224C33.9267 50.2112 20.8711 45.9032 20.8711 45.9032V57.0098Z" fill="url(#paint8_linear_622_4035)"/>
</g>
<g filter="url(#filter6_d_622_4035)">
<path d="M44.6003 20.4708C43.8838 21.7117 42.0928 21.7117 41.3764 20.4708C40.6599 19.23 41.5555 17.6789 42.9883 17.6789C44.4212 17.6789 45.3167 19.23 44.6003 20.4708Z" fill="url(#paint9_linear_622_4035)"/>
</g>
<g filter="url(#filter7_d_622_4035)">
<path d="M44.6003 66.0182C43.8838 67.2591 42.0928 67.2591 41.3764 66.0182C40.6599 64.7773 41.5555 63.2262 42.9883 63.2262C44.4212 63.2262 45.3167 64.7773 44.6003 66.0182Z" fill="url(#paint10_linear_622_4035)"/>
</g>
<g filter="url(#filter8_d_622_4035)">
<path d="M64.4823 29.9791C65.3086 31.1497 64.5579 32.7758 63.131 32.9062C61.7041 33.0365 60.6712 31.5733 61.2718 30.2724C61.8723 28.9715 63.656 28.8086 64.4823 29.9791Z" fill="url(#paint11_linear_622_4035)"/>
</g>
<g filter="url(#filter9_d_622_4035)">
<path d="M24.8441 29.9791C25.6704 31.1497 24.9197 32.7758 23.4928 32.9062C22.0659 33.0365 21.033 31.5733 21.6336 30.2724C22.2342 28.9715 24.0178 28.8086 24.8441 29.9791Z" fill="url(#paint12_linear_622_4035)"/>
</g>
</g>
<rect x="45.3364" y="53.0437" width="1.23308" height="4.11027" fill="#D2F0F2"/>
<path d="M42.0942 56.9308L40.2808 53.252H41.1164L42.7343 56.5787H42.2542L43.8899 53.252H44.6603L42.8528 56.9308H42.0942Z" fill="#D2F0F2" stroke="#D2F0F2"/>
<defs>
<filter id="filter0_d_622_4035" x="0.53623" y="0.4" width="85.5955" height="81.2" filterUnits="userSpaceOnUse" color-interpolation-filters="sRGB">
<feFlood flood-opacity="0" result="BackgroundImageFix"/>
<feColorMatrix in="SourceAlpha" type="matrix" values="0 0 0 0 0 0 0 0 0 0 0 0 0 0 0 0 0 0 127 0" result="hardAlpha"/>
<feOffset/>
<feGaussianBlur stdDeviation="5.3"/>
<feComposite in2="hardAlpha" operator="out"/>
<feColorMatrix type="matrix" values="0 0 0 0 0.231875 0 0 0 0 0.6625 0 0 0 0 0.347221 0 0 0 0.25 0"/>
<feBlend mode="normal" in2="BackgroundImageFix" result="effect1_dropShadow_622_4035"/>
<feBlend mode="normal" in="SourceGraphic" in2="effect1_dropShadow_622_4035" result="shape"/>
</filter>
<filter id="filter1_d_622_4035" x="10.0777" y="1.9" width="66.8372" height="70.2" filterUnits="userSpaceOnUse" color-interpolation-filters="sRGB">
<feFlood flood-opacity="0" result="BackgroundImageFix"/>
<feColorMatrix in="SourceAlpha" type="matrix" values="0 0 0 0 0 0 0 0 0 0 0 0 0 0 0 0 0 0 127 0" result="hardAlpha"/>
<feOffset dy="-4"/>
<feGaussianBlur stdDeviation="2.55"/>
<feComposite in2="hardAlpha" operator="out"/>
<feColorMatrix type="matrix" values="0 0 0 0 0 0 0 0 0 0 0 0 0 0 0 0 0 0 0.25 0"/>
<feBlend mode="normal" in2="BackgroundImageFix" result="effect1_dropShadow_622_4035"/>
<feBlend mode="normal" in="SourceGraphic" in2="effect1_dropShadow_622_4035" result="shape"/>
</filter>
<filter id="filter2_i_622_4035" x="22.2891" y="22.3414" width="42.9609" height="42.557" filterUnits="userSpaceOnUse" color-interpolation-filters="sRGB">
<feFlood flood-opacity="0" result="BackgroundImageFix"/>
<feBlend mode="normal" in="SourceGraphic" in2="BackgroundImageFix" result="shape"/>
<feColorMatrix in="SourceAlpha" type="matrix" values="0 0 0 0 0 0 0 0 0 0 0 0 0 0 0 0 0 0 127 0" result="hardAlpha"/>
<feOffset dx="2" dy="1"/>
<feGaussianBlur stdDeviation="1"/>
<feComposite in2="hardAlpha" operator="arithmetic" k2="-1" k3="1"/>
<feColorMatrix type="matrix" values="0 0 0 0 0 0 0 0 0 0 0 0 0 0 0 0 0 0 0.25 0"/>
<feBlend mode="normal" in2="shape" result="effect1_innerShadow_622_4035"/>
</filter>
<filter id="filter3_d_622_4035" x="37.2794" y="29.4751" width="22.0506" height="23.0175" filterUnits="userSpaceOnUse" color-interpolation-filters="sRGB">
<feFlood flood-opacity="0" result="BackgroundImageFix"/>
<feColorMatrix in="SourceAlpha" type="matrix" values="0 0 0 0 0 0 0 0 0 0 0 0 0 0 0 0 0 0 127 0" result="hardAlpha"/>
<feOffset dx="1" dy="2"/>
<feGaussianBlur stdDeviation="0.8"/>
<feComposite in2="hardAlpha" operator="out"/>
<feColorMatrix type="matrix" values="0 0 0 0 0 0 0 0 0 0 0 0 0 0 0 0 0 0 0.25 0"/>
<feBlend mode="normal" in2="BackgroundImageFix" result="effect1_dropShadow_622_4035"/>
<feBlend mode="normal" in="SourceGraphic" in2="effect1_dropShadow_622_4035" result="shape"/>
</filter>
<filter id="filter4_d_622_4035" x="28.3507" y="29.4751" width="16.0979" height="19.8993" filterUnits="userSpaceOnUse" color-interpolation-filters="sRGB">
<feFlood flood-opacity="0" result="BackgroundImageFix"/>
<feColorMatrix in="SourceAlpha" type="matrix" values="0 0 0 0 0 0 0 0 0 0 0 0 0 0 0 0 0 0 127 0" result="hardAlpha"/>
<feOffset dx="1" dy="2"/>
<feGaussianBlur stdDeviation="0.8"/>
<feComposite in2="hardAlpha" operator="out"/>
<feColorMatrix type="matrix" values="0 0 0 0 0 0 0 0 0 0 0 0 0 0 0 0 0 0 0.25 0"/>
<feBlend mode="normal" in2="BackgroundImageFix" result="effect1_dropShadow_622_4035"/>
<feBlend mode="normal" in="SourceGraphic" in2="effect1_dropShadow_622_4035" result="shape"/>
</filter>
<filter id="filter5_d_622_4035" x="20.8711" y="45.6032" width="47.0954" height="16.9151" filterUnits="userSpaceOnUse" color-interpolation-filters="sRGB">
<feFlood flood-opacity="0" result="BackgroundImageFix"/>
<feColorMatrix in="SourceAlpha" type="matrix" values="0 0 0 0 0 0 0 0 0 0 0 0 0 0 0 0 0 0 127 0" result="hardAlpha"/>
<feOffset dx="2" dy="1"/>
<feGaussianBlur stdDeviation="0.65"/>
<feComposite in2="hardAlpha" operator="out"/>
<feColorMatrix type="matrix" values="0 0 0 0 0 0 0 0 0 0 0 0 0 0 0 0 0 0 0.25 0"/>
<feBlend mode="normal" in2="BackgroundImageFix" result="effect1_dropShadow_622_4035"/>
<feBlend mode="normal" in="SourceGraphic" in2="effect1_dropShadow_622_4035" result="shape"/>
</filter>
<filter id="filter6_d_622_4035" x="34.824" y="11.3788" width="16.3285" height="16.3227" filterUnits="userSpaceOnUse" color-interpolation-filters="sRGB">
<feFlood flood-opacity="0" result="BackgroundImageFix"/>
<feColorMatrix in="SourceAlpha" type="matrix" values="0 0 0 0 0 0 0 0 0 0 0 0 0 0 0 0 0 0 127 0" result="hardAlpha"/>
<feOffset/>
<feGaussianBlur stdDeviation="3.15"/>
<feComposite in2="hardAlpha" operator="out"/>
<feColorMatrix type="matrix" values="0 0 0 0 1 0 0 0 0 1 0 0 0 0 1 0 0 0 0.25 0"/>
<feBlend mode="normal" in2="BackgroundImageFix" result="effect1_dropShadow_622_4035"/>
<feBlend mode="normal" in="SourceGraphic" in2="effect1_dropShadow_622_4035" result="shape"/>
</filter>
<filter id="filter7_d_622_4035" x="34.824" y="56.9262" width="16.3285" height="16.3227" filterUnits="userSpaceOnUse" color-interpolation-filters="sRGB">
<feFlood flood-opacity="0" result="BackgroundImageFix"/>
<feColorMatrix in="SourceAlpha" type="matrix" values="0 0 0 0 0 0 0 0 0 0 0 0 0 0 0 0 0 0 127 0" result="hardAlpha"/>
<feOffset/>
<feGaussianBlur stdDeviation="3.15"/>
<feComposite in2="hardAlpha" operator="out"/>
<feColorMatrix type="matrix" values="0 0 0 0 1 0 0 0 0 1 0 0 0 0 1 0 0 0 0.25 0"/>
<feBlend mode="normal" in2="BackgroundImageFix" result="effect1_dropShadow_622_4035"/>
<feBlend mode="normal" in="SourceGraphic" in2="effect1_dropShadow_622_4035" result="shape"/>
</filter>
<filter id="filter8_d_622_4035" x="54.7977" y="22.891" width="16.3275" height="16.3233" filterUnits="userSpaceOnUse" color-interpolation-filters="sRGB">
<feFlood flood-opacity="0" result="BackgroundImageFix"/>
<feColorMatrix in="SourceAlpha" type="matrix" values="0 0 0 0 0 0 0 0 0 0 0 0 0 0 0 0 0 0 127 0" result="hardAlpha"/>
<feOffset/>
<feGaussianBlur stdDeviation="3.15"/>
<feComposite in2="hardAlpha" operator="out"/>
<feColorMatrix type="matrix" values="0 0 0 0 1 0 0 0 0 1 0 0 0 0 1 0 0 0 0.25 0"/>
<feBlend mode="normal" in2="BackgroundImageFix" result="effect1_dropShadow_622_4035"/>
<feBlend mode="normal" in="SourceGraphic" in2="effect1_dropShadow_622_4035" result="shape"/>
</filter>
<filter id="filter9_d_622_4035" x="15.1595" y="22.891" width="16.3275" height="16.3233" filterUnits="userSpaceOnUse" color-interpolation-filters="sRGB">
<feFlood flood-opacity="0" result="BackgroundImageFix"/>
<feColorMatrix in="SourceAlpha" type="matrix" values="0 0 0 0 0 0 0 0 0 0 0 0 0 0 0 0 0 0 127 0" result="hardAlpha"/>
<feOffset/>
<feGaussianBlur stdDeviation="3.15"/>
<feComposite in2="hardAlpha" operator="out"/>
<feColorMatrix type="matrix" values="0 0 0 0 1 0 0 0 0 1 0 0 0 0 1 0 0 0 0.25 0"/>
<feBlend mode="normal" in2="BackgroundImageFix" result="effect1_dropShadow_622_4035"/>
<feBlend mode="normal" in="SourceGraphic" in2="effect1_dropShadow_622_4035" result="shape"/>
</filter>
<linearGradient id="paint0_linear_622_4035" x1="49.4777" y1="11.8758" x2="45.9741" y2="23.2627" gradientUnits="userSpaceOnUse">
<stop stop-color="#08542B"/>
<stop offset="1" stop-color="#04340A"/>
</linearGradient>
<linearGradient id="paint1_linear_622_4035" x1="45.0779" y1="16.1923" x2="39.4246" y2="29.9846" gradientUnits="userSpaceOnUse">
<stop stop-color="#77C86A"/>
<stop offset="1" stop-color="#207316"/>
</linearGradient>
<linearGradient id="paint2_linear_622_4035" x1="80.135" y1="24.3578" x2="69.843" y2="21.511" gradientUnits="userSpaceOnUse">
<stop stop-color="#0D744F"/>
<stop offset="1" stop-color="#04370B"/>
</linearGradient>
<linearGradient id="paint3_linear_622_4035" x1="14.4419" y1="21.0729" x2="20.1353" y2="38.1532" gradientUnits="userSpaceOnUse">
<stop stop-color="#6AC879"/>
<stop offset="1" stop-color="#217616"/>
</linearGradient>
<linearGradient id="paint4_linear_622_4035" x1="31.3053" y1="17.5693" x2="56.9567" y2="20.0535" gradientUnits="userSpaceOnUse">
<stop stop-color="#77C86A"/>
<stop offset="1" stop-color="#07462F"/>
</linearGradient>
<linearGradient id="paint5_linear_622_4035" x1="32.0474" y1="19.412" x2="56.5839" y2="20.741" gradientUnits="userSpaceOnUse">
<stop stop-color="#71C86A"/>
<stop offset="1" stop-color="#0D6143"/>
</linearGradient>
<linearGradient id="paint6_linear_622_4035" x1="42.3703" y1="29.4751" x2="53.6575" y2="30.1282" gradientUnits="userSpaceOnUse">
<stop stop-color="#E0F2D2"/>
<stop offset="1" stop-color="#1B9A2E"/>
</linearGradient>
<linearGradient id="paint7_linear_622_4035" x1="32.0234" y1="29.4751" x2="38.0036" y2="17.069" gradientUnits="userSpaceOnUse">
<stop stop-color="#D2F2DB"/>
<stop offset="0.9999" stop-color="#1C6A8B"/>
<stop offset="1" stop-color="#1A6889"/>
<stop offset="1" stop-color="#216F91"/>
<stop offset="1" stop-color="#0A8593"/>
</linearGradient>
<linearGradient id="paint8_linear_622_4035" x1="42.9083" y1="61.1459" x2="43.3352" y2="50.7971" gradientUnits="userSpaceOnUse">
<stop stop-color="#299860"/>
<stop offset="0.994792" stop-color="#57BF6A"/>
</linearGradient>
<linearGradient id="paint9_linear_622_4035" x1="44.9372" y1="23.2628" x2="40.4801" y2="22.9972" gradientUnits="userSpaceOnUse">
<stop offset="0.0001" stop-color="#279F38"/>
<stop offset="1" stop-color="#C1E4B8"/>
</linearGradient>
<linearGradient id="paint10_linear_622_4035" x1="44.9372" y1="68.8102" x2="40.4801" y2="68.5445" gradientUnits="userSpaceOnUse">
<stop offset="0.0001" stop-color="#C0E3B7"/>
<stop offset="1" stop-color="#38A646"/>
</linearGradient>
<linearGradient id="paint11_linear_622_4035" x1="65.2831" y1="25.4635" x2="67.5665" y2="30.442" gradientUnits="userSpaceOnUse">
<stop stop-color="#D4ECC8"/>
<stop offset="1" stop-color="#1E9B31"/>
</linearGradient>
<linearGradient id="paint12_linear_622_4035" x1="25.6449" y1="25.4635" x2="27.9284" y2="30.442" gradientUnits="userSpaceOnUse">
<stop stop-color="#E0F2D2"/>
<stop offset="1" stop-color="#279F38"/>
</linearGradient>
</defs>
</svg>
