<svg width="64" height="62" viewBox="0 0 64 62" fill="none" xmlns="http://www.w3.org/2000/svg">
<path d="M38.3107 7.51883C38.3531 7.8178 33.441 14.8155 29.3091 21.1884C26.5312 20.927 22.6374 20.8473 23.9867 19.0027C26.372 15.7419 29.5247 12.5072 31.7264 8.90599L37.9897 0.262939C38.0214 1.34298 38.2297 6.94738 38.3107 7.51883Z" fill="url(#paint0_linear_637_2925)"/>
<path d="M24.7162 7.63996C24.6793 7.93966 29.7196 14.8458 33.9684 21.1414C36.741 20.829 40.6327 20.6776 39.2496 18.8582C36.8046 15.6419 33.5927 12.4657 31.325 8.90567L24.9033 0.379395C24.8916 1.45984 24.7866 7.06711 24.7162 7.63996Z" fill="url(#paint1_linear_637_2925)"/>
<path d="M62.4732 15.6918C62.0525 16.1242 54.6328 25.7807 49.213 31.1839C47.2044 29.0234 44.2858 26.3601 45.9706 24.8971C48.9488 22.3108 52.4987 20.2625 55.4605 17.1216L63.3101 10.2275C62.8364 11.6988 62.6777 15.4816 62.4732 15.6918Z" fill="url(#paint2_linear_637_2925)"/>
<path d="M59.9493 30.4042C59.5286 30.8366 52.1089 40.4931 46.6891 45.8963C44.6805 43.7358 41.7618 41.0725 43.4466 39.6095C46.4249 37.0232 49.9747 34.9749 52.9365 31.834L60.7861 24.9399C60.3124 26.4112 60.1537 30.194 59.9493 30.4042Z" fill="url(#paint3_linear_637_2925)"/>
<path d="M2.94471 15.2714C3.36541 15.7038 10.1294 25.3603 15.5492 30.7635C17.5578 28.603 20.4764 25.9397 18.7917 24.4767C15.8134 21.8904 12.2635 19.8421 9.30176 16.7012L1.45215 9.80713C1.92584 11.2784 2.74023 15.0612 2.94471 15.2714Z" fill="url(#paint4_linear_637_2925)"/>
<path d="M5.46913 28.7228C5.88982 29.1552 12.6538 38.8117 18.0736 44.2149C20.0822 42.0544 23.0008 39.3911 21.3161 37.9281C18.3378 35.3418 14.788 33.2935 11.8262 30.1526L3.97656 23.2585C4.45026 24.7298 5.26464 28.5126 5.46913 28.7228Z" fill="url(#paint5_linear_637_2925)"/>
<path d="M52.8735 42.2139V22.2077L59.7394 13.17L55.1109 14.6412L50.5592 16.3227L35.5228 8.25844L34.9916 5.57118C34.8046 4.62548 34.3955 3.73771 33.7978 2.98103L31.5528 0.138916L29.8147 3.13762C29.4337 3.79493 29.1793 4.51772 29.0646 5.26861L28.6079 8.25844L12.907 16.3227L9.67577 15.0616L5.33447 13.17L10.8039 22.2077V42.1755C10.8039 44.8666 12.5735 47.2379 15.1548 48.0059L25.11 50.9675C26.5147 51.3854 27.6344 52.4497 28.1222 53.8307C28.4382 54.7252 29.0245 55.4995 29.8001 56.0465L32.1838 57.7278L34.3927 56.0593C35.1301 55.5022 35.6896 54.743 36.0031 53.874C36.512 52.463 37.656 51.3739 39.0911 50.9342L48.5701 48.03C51.1275 47.2464 52.8735 44.8867 52.8735 42.2139Z" fill="url(#paint6_linear_637_2925)"/>
<g filter="url(#filter0_i_637_2925)">
<path d="M28.7712 10.3729L14.952 19.2856C13.2149 20.406 12.1655 22.3308 12.1655 24.3967V41.308C12.1655 44.0404 13.9888 46.4375 16.6235 47.1692L30.4668 51.0134C31.5483 51.3137 32.6919 51.3094 33.7711 51.001L47.098 47.1926C49.7109 46.446 51.5121 44.0593 51.5121 41.3438V24.3451C51.5121 22.3075 50.4912 20.4052 48.7925 19.2778L35.4415 10.4167C33.4246 9.07802 30.8055 9.06084 28.7712 10.3729Z" fill="url(#paint7_linear_637_2925)"/>
</g>
<g filter="url(#filter1_d_637_2925)">
<path d="M27.1495 31.0673C27.1322 30.9104 27.1495 30.7419 27.1438 30.5676C27.1438 30.4804 27.1611 30.3816 27.19 30.2887C27.2131 30.2015 27.2131 30.1085 27.2304 30.0272C27.2651 29.8703 27.3113 29.7192 27.346 29.5624C27.4038 29.3067 27.5136 29.0685 27.6118 28.8244C27.7101 28.5746 27.8488 28.3422 27.9875 28.1098C28.1204 27.8832 28.2822 27.6798 28.4555 27.4764C28.6982 27.2033 28.9583 26.9419 29.2068 26.6746C29.3801 26.4887 29.5593 26.3143 29.7326 26.1342C30.0678 25.7972 30.4087 25.4602 30.7323 25.1116C31.0791 24.7455 31.4316 24.3911 31.7841 24.025C31.9401 23.8624 32.1135 23.7113 32.2637 23.537C32.5122 23.2465 32.7953 22.9908 33.0612 22.7177C33.2114 22.5666 33.3617 22.4156 33.5061 22.2587C33.8528 21.881 34.2342 21.5382 34.581 21.1547C34.8699 20.8351 35.1877 20.5388 35.4824 20.225C35.7078 19.9868 35.9332 19.7544 36.1528 19.522C36.3435 19.3244 36.5515 19.1559 36.7595 18.9816C36.9676 18.8073 37.1929 18.6679 37.4241 18.5284C37.6726 18.3831 37.9442 18.2669 38.2158 18.1682C38.3371 18.1275 38.4527 18.0694 38.5741 18.0461C38.6781 18.0287 38.7763 17.9938 38.8803 17.9822C39.0421 17.9648 39.1982 17.9299 39.36 17.9067C39.6027 17.8718 39.8511 17.8718 40.0939 17.8718C40.4059 17.8718 40.7122 17.9183 41.0127 17.9764C41.3478 18.0403 41.6714 18.1333 41.9777 18.2727C42.2782 18.4064 42.5729 18.5691 42.8503 18.755C43.1681 18.9758 43.4628 19.2256 43.7344 19.5045C43.9771 19.7486 44.1736 20.0275 44.3701 20.3064C44.6186 20.6724 44.7977 21.0792 44.948 21.4975C45.0751 21.8578 45.156 22.2238 45.2022 22.6015C45.2253 22.8165 45.2542 23.0315 45.2485 23.2523C45.2427 23.4789 45.2485 23.7055 45.2138 23.9321C45.1733 24.1936 45.1387 24.4608 45.0693 24.7165C44.9826 25.0302 44.8786 25.3382 44.7399 25.6287C44.503 26.1517 44.191 26.6165 43.8038 27.0406C43.538 27.337 43.2548 27.6217 42.9774 27.9006C42.6943 28.1795 42.4227 28.47 42.1569 28.7605C42.0413 28.8884 41.9257 29.0162 41.7928 29.1266C41.7177 29.1963 41.6483 29.2777 41.579 29.3474C41.527 29.3997 41.475 29.4462 41.423 29.4985C41.134 29.8006 40.8393 30.0911 40.5561 30.3991C40.4001 30.5676 40.2441 30.7361 40.0881 30.8988C39.8223 31.1719 39.5564 31.4449 39.2848 31.718C39.0132 31.9911 38.7359 32.2584 38.4758 32.5431C38.1175 32.9324 37.7419 33.3101 37.3779 33.6994C37.1467 33.9434 36.8982 34.1758 36.6613 34.4141C36.4244 34.6523 36.1874 34.8905 35.9505 35.1287C35.8176 35.2624 35.6616 35.3728 35.5171 35.489C35.3149 35.6459 35.101 35.7853 34.8757 35.9015C34.5232 36.0816 34.1533 36.2269 33.7719 36.3373C33.5408 36.4012 33.2981 36.4361 33.0612 36.4826C32.9976 36.4942 32.9283 36.4942 32.8647 36.5C32.5526 36.5232 32.2406 36.4942 31.9285 36.4942C31.8361 36.4942 31.7436 36.4651 31.6512 36.4535C31.5414 36.4361 31.4316 36.407 31.3218 36.3838C31.1311 36.3431 30.9462 36.285 30.7612 36.2327C30.5416 36.1688 30.3336 36.0642 30.1256 35.9712C29.9869 35.9073 29.8655 35.8144 29.7326 35.7446C29.6228 35.6865 29.5246 35.6168 29.4264 35.5471C29.2934 35.4425 29.1605 35.3379 29.0334 35.2333C28.8543 35.0823 28.6867 34.9138 28.5307 34.7394C28.4324 34.6232 28.3284 34.5128 28.2359 34.3908C28.0741 34.1758 27.9412 33.9434 27.8141 33.711C27.6927 33.4844 27.5714 33.2578 27.4905 33.0137C27.4038 32.7697 27.346 32.5199 27.2709 32.2758C27.242 32.1771 27.242 32.0667 27.2189 31.9621C27.1553 31.6657 27.138 31.3752 27.1495 31.0673ZM30.403 34.9486C30.4203 34.9196 30.4145 34.8963 30.4145 34.8731C30.4145 34.6058 30.4145 34.3385 30.4145 34.0771C30.4145 32.7 30.4145 31.3287 30.4145 29.9517C30.4145 29.9052 30.4203 29.8761 30.4781 29.8761C30.8999 29.8761 31.3218 29.8761 31.7436 29.8819C31.8014 29.8819 31.8245 29.8703 31.8187 29.8064C31.8187 29.266 31.8187 28.7199 31.8187 28.1795C31.8187 27.8018 31.8187 27.4299 31.8187 27.0523C31.8187 26.9593 31.8187 26.9593 31.917 26.9535C31.969 26.9535 32.0268 26.9593 32.0788 26.9419C32.1077 26.9361 32.1481 26.9535 32.1539 27C32.1539 27.0581 32.1655 27.1104 32.1655 27.1627C32.1655 28.04 32.1655 28.9174 32.1655 29.8006C32.1655 29.8587 32.1828 29.8761 32.2406 29.8703C32.6624 29.8703 33.0843 29.8703 33.5061 29.8645C33.5639 29.8645 33.5812 29.8761 33.5812 29.9342C33.5812 31.5089 33.5812 33.0835 33.5812 34.6523C33.5812 34.844 33.5812 35.0416 33.5812 35.2333C33.5812 35.2798 33.5928 35.2972 33.6448 35.2798C33.7142 35.2566 33.7835 35.2449 33.8471 35.2159C33.9684 35.1636 34.0956 35.1171 34.2169 35.0532C34.3556 34.9777 34.5001 34.9138 34.6387 34.8324C34.8063 34.7336 34.9566 34.6232 35.1126 34.5012C35.2051 34.4315 35.2917 34.3618 35.2513 34.2223C35.2513 34.2165 35.2513 34.2107 35.2513 34.1991C35.2513 31.8807 35.2571 29.5566 35.2571 27.2382C35.2571 26.5119 35.2571 25.7856 35.2571 25.0593C35.2571 24.9663 35.2571 24.9663 35.3495 24.9663C35.754 24.9663 36.1643 24.9663 36.5688 24.9663C36.6382 24.9663 36.6613 24.9431 36.6613 24.8734C36.6555 24.3969 36.6613 23.9147 36.6613 23.4382C36.6613 23.0024 36.6613 22.5666 36.6613 22.1309C36.6613 22.0611 36.6844 22.0437 36.748 22.0437C36.8115 22.0495 36.8751 22.0495 36.9329 22.0437C36.9849 22.0379 36.9965 22.0611 36.9965 22.1076C36.9965 23.014 36.9965 23.9205 36.9965 24.8327C36.9965 24.8617 37.0022 24.8908 36.9907 24.914C36.9676 24.9663 36.9965 24.9663 37.0311 24.9663C37.1352 24.9663 37.2449 24.9663 37.349 24.9663C37.6726 24.9663 37.9962 24.9663 38.314 24.9663C38.3718 24.9663 38.3949 24.9838 38.3949 25.0419C38.3891 25.1174 38.3891 25.1988 38.3891 25.2743C38.3891 27.1917 38.3891 29.1033 38.3891 31.0208C38.3891 31.044 38.3891 31.0615 38.3949 31.0847C38.4122 31.1312 38.4238 31.137 38.4585 31.1021C38.5278 31.0266 38.5972 30.9569 38.6665 30.8871C39.0363 30.5037 39.412 30.1202 39.7818 29.7367C40.2383 29.266 40.6948 28.7954 41.1571 28.3248C41.1918 28.2899 41.2034 28.2492 41.2034 28.2027C41.2034 27.5055 41.2034 26.8024 41.2034 26.1052C41.2034 26.0471 41.186 26.0296 41.1282 26.0296C40.7237 26.0354 40.3192 26.0296 39.9147 26.0296C39.8049 26.0296 39.7991 26.0529 39.7991 25.9192C39.7991 23.8391 39.7991 21.7532 39.7991 19.6731C39.7991 19.6208 39.776 19.5743 39.7818 19.522C39.8107 19.3535 39.7934 19.1792 39.7934 19.0107C39.7934 18.8945 39.7876 18.8945 39.6778 18.9003C39.6604 18.9003 39.6373 18.9003 39.62 18.9003C39.4986 18.9119 39.3773 18.9119 39.2559 18.9351C38.9901 18.9874 38.7243 19.0571 38.4643 19.1559C38.1638 19.2663 37.8806 19.4116 37.6206 19.5917C37.297 19.8125 37.0138 20.0914 36.7364 20.3703C36.4995 20.6085 36.2741 20.8468 36.0372 21.085C35.939 21.1838 35.8407 21.2767 35.7483 21.3755C35.4593 21.6776 35.1704 21.9856 34.8815 22.2935C34.8121 22.3691 34.7428 22.4562 34.6676 22.526C34.5116 22.677 34.3672 22.8339 34.2111 22.985C33.7893 23.4033 33.3674 23.8275 32.9687 24.2691C32.7318 24.5306 32.4833 24.7746 32.2348 25.0244C31.8187 25.4486 31.3911 25.8669 30.9808 26.2969C30.5648 26.7327 30.1545 27.1685 29.7326 27.5984C29.4321 27.9064 29.1259 28.2085 28.8947 28.5804C28.7271 28.8419 28.5769 29.115 28.4613 29.4055C28.3111 29.7832 28.2186 30.1725 28.1782 30.5734C28.1319 31.0208 28.1377 31.4682 28.2302 31.9098C28.2937 32.2119 28.3804 32.5082 28.4902 32.7988C28.548 32.9556 28.6347 33.1009 28.7156 33.2462C29.1259 33.9783 29.6806 34.5419 30.403 34.9486ZM42.9312 20.1205C42.9254 20.1553 42.9254 20.1727 42.9254 20.1902C42.9254 21.1198 42.9254 22.0437 42.9254 22.9734C42.9254 23.9669 42.9254 24.9605 42.9254 25.9599C42.9254 26.0238 42.9139 26.0529 42.8387 26.0529C42.4227 26.0471 42.0124 26.0529 41.5963 26.0529C41.5328 26.0529 41.5154 26.0761 41.5154 26.1342C41.5154 26.7036 41.5154 27.2789 41.5154 27.8483C41.5154 27.8773 41.5154 27.9064 41.5154 27.9355C41.6657 27.7902 41.8101 27.6507 41.9546 27.5055C42.1915 27.2614 42.4284 27.0174 42.6654 26.7734C42.9543 26.477 43.249 26.1865 43.4802 25.8379C43.9367 25.1523 44.1794 24.3911 44.2314 23.5718C44.2603 23.1012 44.2083 22.6364 44.0927 22.1773C43.9714 21.6951 43.7749 21.2477 43.4975 20.8351C43.3415 20.5737 43.145 20.3587 42.9312 20.1205Z" fill="url(#paint8_linear_637_2925)"/>
</g>
<g filter="url(#filter2_d_637_2925)">
<path d="M26.3188 33.5162C26.2555 33.4931 26.2209 33.4469 26.1921 33.4065C26.0884 33.268 25.9616 33.1469 25.8464 33.0199C25.7082 32.8641 25.5641 32.7083 25.4143 32.5582C25.1263 32.2639 24.8382 31.9696 24.5502 31.6753C24.3831 31.5022 24.216 31.3349 24.049 31.1675C23.9107 31.029 23.784 30.879 23.6457 30.7462C23.5823 30.6828 23.5247 30.6077 23.4441 30.5558C23.3749 30.5154 23.3519 30.4289 23.2885 30.3711C23.1042 30.2038 22.9429 30.0191 22.7585 29.8518C22.6145 29.7191 22.4993 29.5517 22.3552 29.419C22.2631 29.3382 22.1824 29.2401 22.0845 29.1651C22.0384 29.1362 22.0211 29.0727 21.9808 29.0323C21.7906 28.8477 21.6005 28.6688 21.4219 28.4726C21.18 28.2014 20.915 27.9532 20.673 27.682C20.4944 27.4858 20.2985 27.3011 20.1142 27.1107C19.8434 26.8279 19.5957 26.5221 19.3825 26.1932C19.2788 26.0316 19.1982 25.8585 19.106 25.6911C19.0196 25.5353 18.9677 25.368 18.8986 25.2121C18.8064 25.0159 18.7776 24.8082 18.7142 24.6062C18.6739 24.4677 18.6566 24.3235 18.6278 24.185C18.5587 23.7983 18.576 23.4117 18.5645 23.0193C18.5645 22.9154 18.576 22.8115 18.5702 22.7077C18.5702 22.6269 18.6048 22.5403 18.6163 22.4538C18.6278 22.4018 18.6221 22.3441 18.6278 22.2922C18.6393 22.2056 18.6682 22.1248 18.6912 22.0383C18.7603 21.744 18.8525 21.4612 18.962 21.1784C19.0253 21.0111 19.0887 20.838 19.1866 20.6879C19.3134 20.4917 19.4286 20.284 19.5669 20.0993C19.7051 19.9089 19.8434 19.7184 20.0105 19.5511C20.1545 19.4011 20.3043 19.2568 20.4656 19.1183C20.7248 18.8875 21.0071 18.6855 21.3125 18.5181C21.4968 18.42 21.6869 18.3277 21.8771 18.2412C22.0153 18.1777 22.1536 18.1257 22.3034 18.0911C22.4186 18.0623 22.5223 18.0103 22.6433 17.9988C22.8276 17.9815 23.0005 17.9353 23.1791 17.9065C23.4383 17.8718 23.6976 17.8718 23.9568 17.8718C24.0605 17.8718 24.1642 17.8718 24.2621 17.8776C24.3658 17.8834 24.4695 17.9007 24.5732 17.918C24.7173 17.9411 24.8613 17.9988 25.0111 18.0046C25.1436 18.0103 25.253 18.0796 25.374 18.1084C25.6045 18.1604 25.8119 18.27 26.025 18.3623C26.2843 18.4777 26.5205 18.622 26.7509 18.7836C26.918 18.899 27.0908 19.0144 27.2464 19.1529C27.3558 19.251 27.4595 19.3549 27.5575 19.4588C27.8801 19.7877 28.2027 20.1166 28.5253 20.4456C28.8767 20.8091 29.2282 21.1784 29.5854 21.5362C30.0232 21.9748 30.4438 22.4364 30.8874 22.8692C30.9046 22.8866 30.9219 22.9039 30.9392 22.9212C30.9622 22.9443 30.9565 22.9673 30.9334 22.9904C30.7721 23.152 30.6166 23.3078 30.4553 23.4694C30.4034 23.5271 30.34 23.579 30.294 23.6367C30.2536 23.6829 30.2248 23.6598 30.196 23.6367C30.0693 23.5098 29.931 23.3886 29.8216 23.2443C29.7063 23.1001 29.5565 22.9962 29.4528 22.8462C29.4068 22.7827 29.3376 22.7365 29.2858 22.6788C29.0669 22.4538 28.8537 22.2172 28.629 22.0036C28.4274 21.8074 28.2373 21.5939 28.0356 21.3919C27.8974 21.2535 27.7476 21.1265 27.6208 20.9765C27.448 20.7687 27.2521 20.5898 27.0678 20.3936C26.8661 20.1801 26.6645 19.9666 26.4283 19.7877C26.29 19.6838 26.146 19.58 25.9905 19.4934C25.8637 19.4184 25.7312 19.3549 25.6045 19.2856C25.4835 19.2222 25.3567 19.1702 25.2242 19.1298C25.1148 19.0952 24.9996 19.0548 24.8843 19.026C24.7057 18.9798 24.5271 18.9509 24.3486 18.9221C24.2564 18.9048 24.1642 18.9106 24.072 18.9048C24.0144 18.899 24.0029 18.9221 24.0029 18.974C24.0029 19.1529 24.0029 19.3318 24.0029 19.5049C24.0029 20.0647 24.0029 20.6244 24.0029 21.1842C24.0029 22.5288 24.0087 23.8791 24.0029 25.2237C24.0029 25.4545 24.0144 25.6853 24.0087 25.9219C24.0087 25.9681 24.0029 25.997 23.9395 25.997C23.5247 25.997 23.1099 25.997 22.6951 25.997C22.626 25.997 22.6087 26.02 22.6087 26.1066C22.6087 26.7241 22.6087 27.3358 22.6087 27.9532C22.6087 28.0282 22.6145 28.1033 22.603 28.1783C22.5972 28.2071 22.6087 28.2245 22.626 28.2475C23.0177 28.6457 23.4095 29.0439 23.8013 29.4478C24.2276 29.8864 24.6539 30.325 25.0802 30.7636C25.1839 30.8674 25.2934 30.9655 25.4028 31.0694C25.4028 30.8963 25.4028 30.7174 25.4028 30.5385C25.4028 28.6976 25.4028 26.8626 25.4028 25.0217C25.4028 24.9582 25.4259 24.9409 25.4835 24.9409C25.8983 24.9409 26.3131 24.9409 26.7279 24.9409C26.797 24.9409 26.8085 24.9178 26.8085 24.8544C26.8085 23.9484 26.8085 23.0481 26.8085 22.1421C26.8085 22.0383 26.8085 22.0383 26.9122 22.0383C26.9583 22.0383 27.0102 22.044 27.0562 22.0383C27.1196 22.0325 27.1427 22.0556 27.1427 22.1248C27.1427 22.4538 27.1427 22.7827 27.1427 23.1116C27.1427 23.7002 27.1427 24.2831 27.1427 24.8717C27.1427 24.9352 27.1657 24.9582 27.2233 24.9352C27.2636 24.9178 27.304 24.9409 27.3385 24.9409C27.713 24.9409 28.0817 24.9409 28.4562 24.9409C28.5196 24.9409 28.5541 24.9582 28.5368 25.0275C28.5138 25.1602 28.5253 25.2929 28.5253 25.4199C28.5253 25.4545 28.5138 25.4776 28.4908 25.5007C28.3582 25.6276 28.243 25.7604 28.1105 25.8873C27.9665 26.0316 27.8225 26.1759 27.6784 26.3259C27.5171 26.4875 27.3731 26.6606 27.2348 26.8395C27.1369 26.9664 27.0447 27.0934 26.9583 27.2261C26.8085 27.4512 26.6645 27.682 26.5493 27.9301C26.4398 28.161 26.3361 28.3976 26.2497 28.6399C26.1748 28.8535 26.0942 29.0612 26.0481 29.2805C26.0077 29.4767 25.9559 29.6671 25.9271 29.8633C25.9098 29.9961 25.8983 30.1288 25.881 30.2615C25.8579 30.4404 25.8522 30.6135 25.8407 30.7924C25.8291 30.9598 25.8234 31.1271 25.8464 31.2945C25.8579 31.3752 25.8522 31.4618 25.8579 31.5426C25.8752 31.7042 25.8925 31.8658 25.9156 32.0216C25.9559 32.3101 26.0308 32.5929 26.1057 32.8699C26.146 33.0199 26.1921 33.1642 26.2555 33.3027C26.2727 33.3719 26.3073 33.4354 26.3188 33.5162ZM22.2458 27.832C22.2458 27.8205 22.2515 27.8147 22.2515 27.809C22.2515 27.2434 22.2515 26.6779 22.2515 26.1124C22.2515 25.9681 22.2515 25.9739 22.1133 25.9797C21.7157 25.997 21.324 25.9854 20.9265 25.9854C20.8746 25.9854 20.8516 25.9681 20.8516 25.9104C20.8516 24.0234 20.8516 22.1306 20.8516 20.2436C20.8516 20.209 20.8689 20.157 20.8401 20.1455C20.8113 20.1339 20.794 20.1859 20.7709 20.209C20.5117 20.4571 20.3101 20.7514 20.1315 21.0572C19.8895 21.4785 19.7339 21.9286 19.636 22.4018C19.5438 22.8462 19.5381 23.2963 19.5726 23.7464C19.5899 23.9657 19.6418 24.1792 19.6879 24.3927C19.8031 24.8717 20.0105 25.316 20.2812 25.7257C20.5059 26.072 20.7882 26.3663 21.082 26.6606C21.2433 26.8279 21.4047 26.9953 21.566 27.1626C21.7618 27.3588 21.9577 27.5551 22.1478 27.757C22.1766 27.7859 22.2054 27.8147 22.2458 27.832Z" fill="url(#paint9_linear_637_2925)"/>
</g>
<path d="M10.8042 44.3004C10.8042 44.3004 20.2735 47.3799 31.7667 47.3799C43.2599 47.3799 52.8738 44.3004 52.8738 44.3004V33.6401C52.8738 33.6401 40.243 37.7966 31.7667 37.7857C23.3452 37.775 10.8042 33.6401 10.8042 33.6401V44.3004Z" fill="url(#paint10_linear_637_2925)"/>
<g filter="url(#filter3_d_637_2925)">
<path d="M32.752 10.6923C32.4395 11.2331 31.6584 11.2331 31.3459 10.6923L29.6551 7.76613C29.3427 7.22539 29.7332 6.54946 30.3581 6.54946L33.7398 6.54946C34.3647 6.54946 34.7552 7.22539 34.4428 7.76613L32.752 10.6923Z" fill="url(#paint11_linear_637_2925)"/>
</g>
<g filter="url(#filter4_d_637_2925)">
<path d="M32.752 54.4094C32.4395 54.9501 31.6584 54.9501 31.3459 54.4094L29.6551 51.4832C29.3427 50.9424 29.7332 50.2665 30.3581 50.2665L33.7398 50.2665C34.3647 50.2665 34.7552 50.9424 34.4428 51.4832L32.752 54.4094Z" fill="url(#paint12_linear_637_2925)"/>
</g>
<g filter="url(#filter5_d_637_2925)">
<path d="M53.6711 19.7359C54.0315 20.246 53.7041 20.9546 53.0818 21.0114L49.7142 21.3188C49.0919 21.3756 48.6414 20.738 48.9033 20.1711L50.3207 17.1033C50.5827 16.5364 51.3605 16.4654 51.7209 16.9755L53.6711 19.7359Z" fill="url(#paint13_linear_637_2925)"/>
</g>
<g filter="url(#filter6_d_637_2925)">
<path d="M15.595 19.7359C15.9553 20.246 15.6279 20.9546 15.0056 21.0114L11.638 21.3188C11.0157 21.3756 10.5652 20.738 10.8272 20.1711L12.2446 17.1033C12.5065 16.5364 13.2844 16.4654 13.6448 16.9755L15.595 19.7359Z" fill="url(#paint14_linear_637_2925)"/>
</g>
<path d="M33.043 40.4932H34.2275V44.4383H33.043V40.4932Z" fill="#E789F9"/>
<path d="M35.1465 40.4932H36.331V44.4383H35.1465V40.4932Z" fill="#E789F9"/>
<path d="M29.9285 44.2246L28.1865 40.6936H28.9892L30.5433 43.8866H30.0822L31.6534 40.6936H32.3935L30.6572 44.2246H29.9285Z" fill="#E789F9"/>
<path fill-rule="evenodd" clip-rule="evenodd" d="M27.8604 40.4907H29.1163L30.3152 42.9538L31.5272 40.4907H32.7194L30.7837 44.4273H29.8024L27.8604 40.4907ZM30.0883 43.4149L28.8624 40.8963H28.5129L29.9221 43.7526L30.0883 43.4149ZM30.6837 43.711L30.5401 43.4159L31.7799 40.8963H32.0678L30.6837 43.711Z" fill="#E789F9"/>
<defs>
<filter id="filter0_i_637_2925" x="12.1655" y="9.40063" width="41.3467" height="42.835" filterUnits="userSpaceOnUse" color-interpolation-filters="sRGB">
<feFlood flood-opacity="0" result="BackgroundImageFix"/>
<feBlend mode="normal" in="SourceGraphic" in2="BackgroundImageFix" result="shape"/>
<feColorMatrix in="SourceAlpha" type="matrix" values="0 0 0 0 0 0 0 0 0 0 0 0 0 0 0 0 0 0 127 0" result="hardAlpha"/>
<feOffset dx="2" dy="1"/>
<feGaussianBlur stdDeviation="1"/>
<feComposite in2="hardAlpha" operator="arithmetic" k2="-1" k3="1"/>
<feColorMatrix type="matrix" values="0 0 0 0 0 0 0 0 0 0 0 0 0 0 0 0 0 0 0.25 0"/>
<feBlend mode="normal" in2="shape" result="effect1_innerShadow_637_2925"/>
</filter>
<filter id="filter1_d_637_2925" x="26.5416" y="17.8718" width="21.3074" height="22.2372" filterUnits="userSpaceOnUse" color-interpolation-filters="sRGB">
<feFlood flood-opacity="0" result="BackgroundImageFix"/>
<feColorMatrix in="SourceAlpha" type="matrix" values="0 0 0 0 0 0 0 0 0 0 0 0 0 0 0 0 0 0 127 0" result="hardAlpha"/>
<feOffset dx="1" dy="2"/>
<feGaussianBlur stdDeviation="0.8"/>
<feComposite in2="hardAlpha" operator="out"/>
<feColorMatrix type="matrix" values="0 0 0 0 0 0 0 0 0 0 0 0 0 0 0 0 0 0 0.25 0"/>
<feBlend mode="normal" in2="BackgroundImageFix" result="effect1_dropShadow_637_2925"/>
<feBlend mode="normal" in="SourceGraphic" in2="effect1_dropShadow_637_2925" result="shape"/>
</filter>
<filter id="filter2_d_637_2925" x="17.9645" y="17.8718" width="15.5896" height="19.2443" filterUnits="userSpaceOnUse" color-interpolation-filters="sRGB">
<feFlood flood-opacity="0" result="BackgroundImageFix"/>
<feColorMatrix in="SourceAlpha" type="matrix" values="0 0 0 0 0 0 0 0 0 0 0 0 0 0 0 0 0 0 127 0" result="hardAlpha"/>
<feOffset dx="1" dy="2"/>
<feGaussianBlur stdDeviation="0.8"/>
<feComposite in2="hardAlpha" operator="out"/>
<feColorMatrix type="matrix" values="0 0 0 0 0 0 0 0 0 0 0 0 0 0 0 0 0 0 0.25 0"/>
<feBlend mode="normal" in2="BackgroundImageFix" result="effect1_dropShadow_637_2925"/>
<feBlend mode="normal" in="SourceGraphic" in2="effect1_dropShadow_637_2925" result="shape"/>
</filter>
<filter id="filter3_d_637_2925" x="23.2449" y="0.24956" width="17.6078" height="17.1483" filterUnits="userSpaceOnUse" color-interpolation-filters="sRGB">
<feFlood flood-opacity="0" result="BackgroundImageFix"/>
<feColorMatrix in="SourceAlpha" type="matrix" values="0 0 0 0 0 0 0 0 0 0 0 0 0 0 0 0 0 0 127 0" result="hardAlpha"/>
<feOffset/>
<feGaussianBlur stdDeviation="3.15"/>
<feComposite in2="hardAlpha" operator="out"/>
<feColorMatrix type="matrix" values="0 0 0 0 1 0 0 0 0 1 0 0 0 0 1 0 0 0 0.25 0"/>
<feBlend mode="normal" in2="BackgroundImageFix" result="effect1_dropShadow_637_2925"/>
<feBlend mode="normal" in="SourceGraphic" in2="effect1_dropShadow_637_2925" result="shape"/>
</filter>
<filter id="filter4_d_637_2925" x="23.2449" y="43.9666" width="17.6078" height="17.1483" filterUnits="userSpaceOnUse" color-interpolation-filters="sRGB">
<feFlood flood-opacity="0" result="BackgroundImageFix"/>
<feColorMatrix in="SourceAlpha" type="matrix" values="0 0 0 0 0 0 0 0 0 0 0 0 0 0 0 0 0 0 127 0" result="hardAlpha"/>
<feOffset/>
<feGaussianBlur stdDeviation="3.15"/>
<feComposite in2="hardAlpha" operator="out"/>
<feColorMatrix type="matrix" values="0 0 0 0 1 0 0 0 0 1 0 0 0 0 1 0 0 0 0.25 0"/>
<feBlend mode="normal" in2="BackgroundImageFix" result="effect1_dropShadow_637_2925"/>
<feBlend mode="normal" in="SourceGraphic" in2="effect1_dropShadow_637_2925" result="shape"/>
</filter>
<filter id="filter5_d_637_2925" x="42.5271" y="10.3321" width="17.5937" height="17.2902" filterUnits="userSpaceOnUse" color-interpolation-filters="sRGB">
<feFlood flood-opacity="0" result="BackgroundImageFix"/>
<feColorMatrix in="SourceAlpha" type="matrix" values="0 0 0 0 0 0 0 0 0 0 0 0 0 0 0 0 0 0 127 0" result="hardAlpha"/>
<feOffset/>
<feGaussianBlur stdDeviation="3.15"/>
<feComposite in2="hardAlpha" operator="out"/>
<feColorMatrix type="matrix" values="0 0 0 0 1 0 0 0 0 1 0 0 0 0 1 0 0 0 0.25 0"/>
<feBlend mode="normal" in2="BackgroundImageFix" result="effect1_dropShadow_637_2925"/>
<feBlend mode="normal" in="SourceGraphic" in2="effect1_dropShadow_637_2925" result="shape"/>
</filter>
<filter id="filter6_d_637_2925" x="4.45098" y="10.3321" width="17.5937" height="17.2902" filterUnits="userSpaceOnUse" color-interpolation-filters="sRGB">
<feFlood flood-opacity="0" result="BackgroundImageFix"/>
<feColorMatrix in="SourceAlpha" type="matrix" values="0 0 0 0 0 0 0 0 0 0 0 0 0 0 0 0 0 0 127 0" result="hardAlpha"/>
<feOffset/>
<feGaussianBlur stdDeviation="3.15"/>
<feComposite in2="hardAlpha" operator="out"/>
<feColorMatrix type="matrix" values="0 0 0 0 1 0 0 0 0 1 0 0 0 0 1 0 0 0 0.25 0"/>
<feBlend mode="normal" in2="BackgroundImageFix" result="effect1_dropShadow_637_2925"/>
<feBlend mode="normal" in="SourceGraphic" in2="effect1_dropShadow_637_2925" result="shape"/>
</filter>
<linearGradient id="paint0_linear_637_2925" x1="37.1158" y1="0.354765" x2="34.9212" y2="11.5775" gradientUnits="userSpaceOnUse">
<stop stop-color="#B965D7"/>
<stop offset="1" stop-color="#7E4DAF"/>
</linearGradient>
<linearGradient id="paint1_linear_637_2925" x1="34.6208" y1="5.3827" x2="28.0705" y2="18.1047" gradientUnits="userSpaceOnUse">
<stop stop-color="#C068DC"/>
<stop offset="1" stop-color="#804BB2"/>
</linearGradient>
<linearGradient id="paint2_linear_637_2925" x1="67.7319" y1="12.9594" x2="57.8467" y2="10.223" gradientUnits="userSpaceOnUse">
<stop stop-color="#8427AC"/>
<stop offset="1" stop-color="#461C88"/>
</linearGradient>
<linearGradient id="paint3_linear_637_2925" x1="65.208" y1="27.6719" x2="55.3227" y2="24.9354" gradientUnits="userSpaceOnUse">
<stop stop-color="#B251D2"/>
<stop offset="1" stop-color="#431A80"/>
</linearGradient>
<linearGradient id="paint4_linear_637_2925" x1="4.6275" y1="9.80672" x2="10.0886" y2="26.2033" gradientUnits="userSpaceOnUse">
<stop stop-color="#C66BE0"/>
<stop offset="1" stop-color="#6440A2"/>
</linearGradient>
<linearGradient id="paint5_linear_637_2925" x1="7.15191" y1="23.2581" x2="12.613" y2="39.6547" gradientUnits="userSpaceOnUse">
<stop stop-color="#C068DC"/>
<stop offset="1" stop-color="#7746A9"/>
</linearGradient>
<linearGradient id="paint6_linear_637_2925" x1="20.8264" y1="6.4442" x2="45.4665" y2="8.83243" gradientUnits="userSpaceOnUse">
<stop stop-color="#8176FF"/>
<stop offset="1" stop-color="#300A6D"/>
</linearGradient>
<linearGradient id="paint7_linear_637_2925" x1="21.5393" y1="8.21258" x2="45.1086" y2="9.49026" gradientUnits="userSpaceOnUse">
<stop stop-color="#8973FC"/>
<stop offset="1" stop-color="#39009F"/>
</linearGradient>
<linearGradient id="paint8_linear_637_2925" x1="31.4555" y1="17.8718" x2="42.2978" y2="18.4997" gradientUnits="userSpaceOnUse">
<stop stop-color="#E37BEE"/>
<stop offset="1" stop-color="#6938C5"/>
</linearGradient>
<linearGradient id="paint9_linear_637_2925" x1="21.516" y1="17.8718" x2="27.253" y2="5.96065" gradientUnits="userSpaceOnUse">
<stop stop-color="#CC6EE6"/>
<stop offset="0.9999" stop-color="#1C6A8B"/>
<stop offset="1" stop-color="#1A6889"/>
<stop offset="1" stop-color="#216F91"/>
<stop offset="1" stop-color="#0A8593"/>
</linearGradient>
<linearGradient id="paint10_linear_637_2925" x1="31.9729" y1="48.2703" x2="32.3823" y2="38.3373" gradientUnits="userSpaceOnUse">
<stop stop-color="#30019F"/>
<stop offset="0.994792" stop-color="#6F43D6"/>
</linearGradient>
<linearGradient id="paint11_linear_637_2925" x1="33.921" y1="11.909" x2="29.6396" y2="11.6536" gradientUnits="userSpaceOnUse">
<stop offset="0.0001" stop-color="#B66FF9"/>
<stop offset="1" stop-color="#D9C9FD"/>
</linearGradient>
<linearGradient id="paint12_linear_637_2925" x1="33.921" y1="55.6261" x2="29.6396" y2="55.3707" gradientUnits="userSpaceOnUse">
<stop stop-color="#B876F9"/>
<stop offset="1" stop-color="#D9C9FD"/>
</linearGradient>
<linearGradient id="paint13_linear_637_2925" x1="53.4653" y1="14.0215" x2="55.6558" y2="18.8013" gradientUnits="userSpaceOnUse">
<stop stop-color="#D6C2FC"/>
<stop offset="1" stop-color="#B874F9"/>
</linearGradient>
<linearGradient id="paint14_linear_637_2925" x1="15.3891" y1="14.0215" x2="17.5796" y2="18.8013" gradientUnits="userSpaceOnUse">
<stop stop-color="#D6C3FC"/>
<stop offset="1" stop-color="#B877F9"/>
</linearGradient>
</defs>
</svg>
