<svg width="77" height="71" viewBox="0 0 77 71" fill="none" xmlns="http://www.w3.org/2000/svg">
<g clip-path="url(#clip0_4_28)">
<g clip-path="url(#clip1_4_28)">
<path d="M45.5078 9.47031C45.5593 9.83371 39.5934 18.3395 34.575 26.0858C31.2012 25.7681 26.4721 25.6713 28.1108 23.4291C31.0078 19.4656 34.8369 15.5337 37.5109 11.1564L45.118 0.65069C45.1564 1.96349 45.4095 8.77571 45.5078 9.47031Z" fill="url(#paint0_linear_4_28)"/>
<path d="M28.997 9.61771C28.9522 9.98199 35.0738 18.3764 40.2341 26.0289C43.6015 25.6492 48.3281 25.4652 46.6482 23.2536C43.6787 19.3441 39.7779 15.4835 37.0236 11.1562L29.2243 0.792398C29.21 2.10569 29.0826 8.9214 28.997 9.61771Z" fill="url(#paint1_linear_4_28)"/>
<path d="M24.7776 11.3187C24.8106 11.5733 32.2593 17.8868 38.6568 23.6159C41.7274 23.5585 46.109 23.7246 44.0839 22.0571C40.504 19.1094 36.0633 16.1377 32.5988 12.9083L23.1766 5.09854C23.4331 6.02539 24.7145 10.8322 24.7776 11.3187Z" fill="url(#paint2_linear_4_28)"/>
<path d="M49.8925 11.0016C49.8691 11.2572 42.6619 17.8451 36.4833 23.8097C33.4128 23.8673 29.0404 24.1973 31.0017 22.4552C34.4688 19.3754 38.7951 16.2397 42.1363 12.8828L51.2596 4.72581C51.0379 5.66161 49.9374 10.513 49.8925 11.0016Z" fill="url(#paint3_linear_4_28)"/>
<path d="M74.854 19.4051C74.3431 19.9307 65.3316 31.6684 58.7491 38.236C56.3096 35.6098 52.7648 32.3726 54.811 30.5943C58.4282 27.4506 62.7396 24.9609 66.3368 21.1431L75.8704 12.7633C75.2951 14.5516 75.1024 19.1496 74.854 19.4051Z" fill="url(#paint4_linear_4_28)"/>
<path d="M71.7883 37.2878C71.2774 37.8134 62.2659 49.5511 55.6834 56.1187C53.2439 53.4926 49.6991 50.2553 51.7453 48.477C55.3625 45.3333 59.6739 42.8436 63.2711 39.0258L72.8047 30.646C72.2294 32.4343 72.0367 37.0323 71.7883 37.2878Z" fill="url(#paint5_linear_4_28)"/>
<path d="M73.8321 27.5798C73.3212 28.1054 64.3097 39.8431 57.7272 46.4107C55.2877 43.7845 51.7429 40.5473 53.7891 38.769C57.4063 35.6253 61.7177 33.1356 65.3149 29.3178L74.8485 20.938C74.2732 22.7263 74.0805 27.3243 73.8321 27.5798Z" fill="url(#paint6_linear_4_28)"/>
<path d="M2.55481 18.8942C3.06575 19.4198 11.2809 31.1574 17.8633 37.725C20.3029 35.0989 23.8477 31.8617 21.8014 30.0833C18.1842 26.9396 13.8728 24.45 10.2756 20.6322L0.742035 12.2523C1.31735 14.0406 2.30645 18.6387 2.55481 18.8942Z" fill="url(#paint7_linear_4_28)"/>
<path d="M5.62043 35.244C6.13138 35.7696 14.3465 47.5073 20.929 54.0749C23.3685 51.4488 26.9133 48.2116 24.8671 46.4332C21.2498 43.2895 16.9385 40.7998 13.3413 36.982L3.80766 28.6022C4.38298 30.3905 5.37208 34.9886 5.62043 35.244Z" fill="url(#paint8_linear_4_28)"/>
<path d="M3.57664 26.5579C4.08759 27.0835 12.3027 38.8212 18.8852 45.3888C21.3247 42.7626 24.8695 39.5254 22.8233 37.7471C19.206 34.6034 14.8947 32.1137 11.2975 28.2959L1.76387 19.9161C2.33919 21.7044 3.32829 26.3024 3.57664 26.5579Z" fill="url(#paint9_linear_4_28)"/>
<g clip-path="url(#clip2_4_28)">
<g clip-path="url(#clip3_4_28)">
<g filter="url(#filter0_d_4_28)">
<path d="M63.195 46.0196V27.3248L71.5338 16.3394L65.9124 18.1277L60.3843 20.1715L42.122 10.3694L41.8321 8.90192C41.3716 6.57006 40.3634 4.38103 38.8908 2.51524L37.3003 0.5L35.9095 2.90136C34.9708 4.52212 34.344 6.30435 34.0614 8.15587L33.7236 10.3694L14.6544 20.1715L10.7299 18.6387L5.45728 16.3394L12.1001 27.3248V45.9248C12.1001 52.5605 16.46 58.4076 22.8197 60.3011L29.4753 62.2827C31.1814 62.7907 32.5413 64.0844 33.1338 65.763C33.5175 66.8503 34.2296 67.7915 35.1716 68.4564L38.0667 70.5L40.7495 68.4719C41.6451 67.7948 42.3246 66.8719 42.7053 65.8156C43.3234 64.1006 44.7129 62.7767 46.4558 62.2423L52.5924 60.3606C58.8933 58.4285 63.195 52.6101 63.195 46.0196Z" fill="url(#paint10_linear_4_28)"/>
</g>
<g filter="url(#filter1_i_4_28)">
<path d="M29.7375 15.6407L20.619 21.5265C16.3391 24.2891 13.7537 29.035 13.7537 34.1291V44.7616C13.7537 51.499 18.2458 57.4098 24.7372 59.2139L33.9151 61.7646C36.5797 62.5051 39.3972 62.4946 42.0562 61.7341L50.666 59.2717C57.1037 57.4306 61.5415 51.5457 61.5415 44.8499V34.0018C61.5415 28.9776 59.0261 24.287 54.841 21.5071L46.1717 15.7486C41.2025 12.4478 34.7496 12.4055 29.7375 15.6407Z" fill="url(#paint11_linear_4_28)"/>
</g>
<g filter="url(#filter2_d_4_28)">
<path d="M31.9524 38.0935C31.9313 37.9028 31.9524 37.698 31.9453 37.4861C31.9453 37.3802 31.9664 37.2601 32.0015 37.1471C32.0296 37.0412 32.0296 36.9282 32.0506 36.8293C32.0927 36.6386 32.1489 36.455 32.191 36.2643C32.2612 35.9535 32.3945 35.664 32.5138 35.3673C32.6332 35.0636 32.8016 34.7811 32.97 34.4986C33.1315 34.2232 33.328 33.976 33.5385 33.7288C33.8333 33.3969 34.1491 33.079 34.4509 32.7542C34.6615 32.5282 34.8791 32.3163 35.0896 32.0973C35.4967 31.6877 35.9108 31.2781 36.3038 30.8543C36.7249 30.4094 37.153 29.9785 37.5811 29.5336C37.7706 29.3358 37.9812 29.1522 38.1637 28.9403C38.4655 28.5872 38.8094 28.2765 39.1322 27.9445C39.3147 27.7609 39.4972 27.5773 39.6726 27.3866C40.0937 26.9275 40.557 26.5108 40.9781 26.0447C41.329 25.6562 41.715 25.296 42.0729 24.9146C42.3467 24.6251 42.6204 24.3426 42.8871 24.0601C43.1187 23.8199 43.3714 23.6151 43.624 23.4032C43.8767 23.1914 44.1504 23.0219 44.4311 22.8524C44.7329 22.6758 45.0628 22.5345 45.3927 22.4145C45.5401 22.365 45.6804 22.2944 45.8278 22.2662C45.9541 22.245 46.0735 22.2026 46.1998 22.1885C46.3963 22.1673 46.5858 22.1249 46.7823 22.0967C47.0771 22.0543 47.3789 22.0543 47.6737 22.0543C48.0527 22.0543 48.4246 22.1108 48.7896 22.1814C49.1967 22.2591 49.5897 22.3721 49.9617 22.5416C50.3266 22.704 50.6846 22.9018 51.0215 23.1278C51.4075 23.3962 51.7654 23.6999 52.0953 24.0389C52.3901 24.3355 52.6287 24.6745 52.8673 25.0135C53.1691 25.4585 53.3867 25.9529 53.5691 26.4614C53.7236 26.8992 53.8218 27.3442 53.878 27.8033C53.906 28.0646 53.9411 28.3259 53.9341 28.5943C53.9271 28.8697 53.9341 29.1452 53.892 29.4206C53.8429 29.7384 53.8008 30.0633 53.7165 30.3741C53.6113 30.7554 53.4849 31.1298 53.3165 31.4829C53.0287 32.1185 52.6497 32.6835 52.1795 33.1991C51.8567 33.5593 51.5127 33.9054 51.1759 34.2444C50.832 34.5834 50.5021 34.9365 50.1792 35.2896C50.0389 35.445 49.8985 35.6004 49.7371 35.7346C49.6458 35.8193 49.5616 35.9182 49.4774 36.003C49.4142 36.0665 49.3511 36.123 49.2879 36.1866C48.937 36.5538 48.579 36.907 48.2351 37.2813C48.0456 37.4861 47.8561 37.6909 47.6666 37.8887C47.3438 38.2206 47.0209 38.5526 46.6911 38.8845C46.3612 39.2165 46.0243 39.5413 45.7085 39.8874C45.2734 40.3606 44.8172 40.8197 44.375 41.2929C44.0943 41.5895 43.7925 41.872 43.5047 42.1616C43.217 42.4511 42.9292 42.7407 42.6414 43.0303C42.48 43.1927 42.2905 43.3269 42.1151 43.4682C41.8694 43.6589 41.6097 43.8284 41.336 43.9696C40.9079 44.1885 40.4587 44.3651 39.9955 44.4993C39.7148 44.577 39.42 44.6194 39.1322 44.6759C39.055 44.69 38.9708 44.69 38.8936 44.6971C38.5146 44.7253 38.1356 44.69 37.7566 44.69C37.6443 44.69 37.532 44.6547 37.4197 44.6406C37.2864 44.6194 37.153 44.5841 37.0197 44.5558C36.7881 44.5064 36.5635 44.4357 36.3389 44.3722C36.0722 44.2945 35.8195 44.1674 35.5669 44.0544C35.3984 43.9767 35.251 43.8637 35.0896 43.7789C34.9563 43.7083 34.8369 43.6235 34.7176 43.5388C34.5562 43.4117 34.3948 43.2845 34.2404 43.1574C34.0228 42.9738 33.8193 42.769 33.6298 42.5571C33.5105 42.4158 33.3841 42.2816 33.2718 42.1333C33.0753 41.872 32.9139 41.5895 32.7595 41.307C32.6121 41.0316 32.4647 40.7561 32.3664 40.4595C32.2612 40.1628 32.191 39.8592 32.0997 39.5625C32.0647 39.4425 32.0647 39.3083 32.0366 39.1811C31.9594 38.821 31.9383 38.4678 31.9524 38.0935ZM35.9037 42.8113C35.9248 42.776 35.9178 42.7478 35.9178 42.7195C35.9178 42.3946 35.9178 42.0698 35.9178 41.7519C35.9178 40.0781 35.9178 38.4113 35.9178 36.7375C35.9178 36.681 35.9248 36.6457 35.995 36.6457C36.5073 36.6457 37.0197 36.6457 37.532 36.6527C37.6022 36.6527 37.6303 36.6386 37.6233 36.5609C37.6233 35.9041 37.6233 35.2402 37.6233 34.5834C37.6233 34.1243 37.6233 33.6723 37.6233 33.2132C37.6233 33.1002 37.6233 33.1002 37.7426 33.0932C37.8057 33.0932 37.8759 33.1002 37.9391 33.079C37.9742 33.072 38.0233 33.0932 38.0303 33.1497C38.0303 33.2203 38.0444 33.2839 38.0444 33.3474C38.0444 34.4139 38.0444 35.4803 38.0444 36.5539C38.0444 36.6245 38.0654 36.6457 38.1356 36.6386C38.648 36.6386 39.1603 36.6386 39.6726 36.6315C39.7428 36.6315 39.7639 36.6457 39.7639 36.7163C39.7639 38.6303 39.7639 40.5442 39.7639 42.4511C39.7639 42.6842 39.7639 42.9243 39.7639 43.1574C39.7639 43.2139 39.7779 43.2351 39.8411 43.2139C39.9253 43.1857 40.0095 43.1715 40.0867 43.1362C40.2341 43.0727 40.3885 43.0162 40.5359 42.9385C40.7044 42.8466 40.8798 42.769 41.0483 42.6701C41.2518 42.55 41.4343 42.4158 41.6238 42.2675C41.7361 42.1828 41.8413 42.098 41.7922 41.9285C41.7922 41.9214 41.7922 41.9144 41.7922 41.9003C41.7922 39.0823 41.7992 36.2572 41.7992 33.4392C41.7992 32.5564 41.7992 31.6736 41.7992 30.7907C41.7992 30.6777 41.7992 30.6777 41.9115 30.6777C42.4028 30.6777 42.9011 30.6777 43.3924 30.6777C43.4766 30.6777 43.5047 30.6495 43.5047 30.5647C43.4977 29.9856 43.5047 29.3994 43.5047 28.8203C43.5047 28.2906 43.5047 27.7609 43.5047 27.2312C43.5047 27.1464 43.5328 27.1252 43.61 27.1252C43.6872 27.1323 43.7644 27.1323 43.8346 27.1252C43.8977 27.1182 43.9118 27.1464 43.9118 27.2029C43.9118 28.3047 43.9118 29.4065 43.9118 30.5153C43.9118 30.5506 43.9188 30.5859 43.9048 30.6142C43.8767 30.6777 43.9118 30.6777 43.9539 30.6777C44.0802 30.6777 44.2136 30.6777 44.3399 30.6777C44.7329 30.6777 45.126 30.6777 45.512 30.6777C45.5822 30.6777 45.6102 30.6989 45.6102 30.7696C45.6032 30.8614 45.6032 30.9603 45.6032 31.0521C45.6032 33.3827 45.6032 35.7063 45.6032 38.037C45.6032 38.0653 45.6032 38.0864 45.6102 38.1147C45.6313 38.1712 45.6453 38.1783 45.6874 38.1359C45.7717 38.0441 45.8559 37.9593 45.9401 37.8746C46.3893 37.4084 46.8455 36.9423 47.2947 36.4762C47.8491 35.9041 48.4036 35.332 48.9651 34.7599C49.0072 34.7176 49.0212 34.6681 49.0212 34.6116C49.0212 33.7641 49.0212 32.9095 49.0212 32.062C49.0212 31.9914 49.0001 31.9702 48.93 31.9702C48.4387 31.9773 47.9474 31.9702 47.4561 31.9702C47.3227 31.9702 47.3157 31.9985 47.3157 31.836C47.3157 29.3076 47.3157 26.7721 47.3157 24.2437C47.3157 24.1801 47.2876 24.1236 47.2947 24.0601C47.3298 23.8553 47.3087 23.6434 47.3087 23.4386C47.3087 23.2973 47.3017 23.2973 47.1683 23.3044C47.1473 23.3044 47.1192 23.3044 47.0981 23.3044C46.9508 23.3185 46.8034 23.3185 46.656 23.3467C46.3331 23.4103 46.0103 23.4951 45.6945 23.6151C45.3295 23.7493 44.9856 23.9259 44.6698 24.1448C44.2767 24.4132 43.9328 24.7522 43.5959 25.0912C43.3082 25.3808 43.0345 25.6703 42.7467 25.9599C42.6274 26.08 42.5081 26.193 42.3958 26.313C42.0449 26.6803 41.694 27.0546 41.343 27.4289C41.2588 27.5208 41.1746 27.6267 41.0833 27.7114C40.8939 27.8951 40.7184 28.0858 40.5289 28.2694C40.0165 28.7779 39.5042 29.2935 39.0199 29.8302C38.7322 30.148 38.4304 30.4447 38.1286 30.7484C37.6233 31.2639 37.1039 31.7725 36.6056 32.2951C36.1003 32.8248 35.6019 33.3545 35.0896 33.8771C34.7246 34.2514 34.3527 34.6187 34.0719 35.0707C33.8684 35.3885 33.6859 35.7205 33.5455 36.0736C33.3631 36.5327 33.2508 37.0059 33.2016 37.4932C33.1455 38.037 33.1525 38.5808 33.2648 39.1176C33.342 39.4848 33.4473 39.845 33.5806 40.1982C33.6508 40.3889 33.7561 40.5654 33.8544 40.742C34.3527 41.6319 35.0264 42.3169 35.9037 42.8113ZM51.1197 24.7875C51.1127 24.8299 51.1127 24.8511 51.1127 24.8723C51.1127 26.0023 51.1127 27.1252 51.1127 28.2553C51.1127 29.463 51.1127 30.6707 51.1127 31.8855C51.1127 31.9631 51.0987 31.9985 51.0074 31.9985C50.5021 31.9914 50.0038 31.9985 49.4985 31.9985C49.4213 31.9985 49.4002 32.0267 49.4002 32.0973C49.4002 32.7895 49.4002 33.4887 49.4002 34.1808C49.4002 34.2161 49.4002 34.2514 49.4002 34.2867C49.5827 34.1102 49.7581 33.9407 49.9336 33.7641C50.2214 33.4675 50.5091 33.1709 50.7969 32.8742C51.1478 32.514 51.5057 32.1609 51.7865 31.7371C52.3409 30.9038 52.6357 29.9785 52.6989 28.9827C52.734 28.4106 52.6708 27.8456 52.5304 27.2877C52.383 26.7015 52.1444 26.1577 51.8075 25.6562C51.618 25.3384 51.3794 25.0771 51.1197 24.7875Z" fill="url(#paint12_linear_4_28)"/>
</g>
<g filter="url(#filter3_d_4_28)">
<path d="M30.9433 41.0702C30.8663 41.0421 30.8244 40.986 30.7894 40.9369C30.6634 40.7686 30.5095 40.6213 30.3695 40.4669C30.2016 40.2776 30.0267 40.0882 29.8448 39.9058C29.4949 39.5481 29.1451 39.1903 28.7952 38.8326C28.5923 38.6222 28.3894 38.4188 28.1865 38.2153C28.0186 38.047 27.8646 37.8646 27.6967 37.7033C27.6197 37.6261 27.5498 37.535 27.4518 37.4718C27.3678 37.4227 27.3398 37.3175 27.2629 37.2474C27.039 37.0439 26.8431 36.8195 26.6192 36.6161C26.4442 36.4547 26.3043 36.2513 26.1294 36.09C26.0174 35.9918 25.9195 35.8726 25.8005 35.7814C25.7445 35.7463 25.7235 35.6691 25.6746 35.62C25.4437 35.3956 25.2128 35.1781 24.9959 34.9396C24.702 34.61 24.3801 34.3084 24.0862 33.9787C23.8693 33.7402 23.6314 33.5157 23.4075 33.2843C23.0787 32.9406 22.7778 32.5688 22.5189 32.169C22.393 31.9726 22.295 31.7621 22.1831 31.5587C22.0781 31.3693 22.0151 31.1659 21.9312 30.9765C21.8192 30.738 21.7842 30.4855 21.7073 30.24C21.6583 30.0717 21.6373 29.8963 21.6023 29.728C21.5183 29.258 21.5393 28.7881 21.5253 28.3111C21.5253 28.1848 21.5393 28.0586 21.5323 27.9323C21.5323 27.8341 21.5743 27.7289 21.5883 27.6237C21.6023 27.5605 21.5953 27.4904 21.6023 27.4273C21.6163 27.3221 21.6513 27.2239 21.6793 27.1186C21.7632 26.7609 21.8752 26.4172 22.0081 26.0735C22.0851 25.8701 22.1621 25.6597 22.281 25.4773C22.435 25.2388 22.5749 24.9863 22.7428 24.7618C22.9107 24.5304 23.0787 24.2989 23.2816 24.0955C23.4565 23.9131 23.6384 23.7377 23.8344 23.5694C24.1492 23.2888 24.4921 23.0433 24.8629 22.8399C25.0868 22.7206 25.3177 22.6084 25.5486 22.5032C25.7165 22.426 25.8845 22.3629 26.0664 22.3208C26.2063 22.2858 26.3323 22.2226 26.4792 22.2086C26.7031 22.1876 26.913 22.1314 27.1299 22.0964C27.4448 22.0543 27.7597 22.0543 28.0745 22.0543C28.2005 22.0543 28.3264 22.0543 28.4454 22.0613C28.5713 22.0683 28.6973 22.0894 28.8232 22.1104C28.9981 22.1385 29.1731 22.2086 29.355 22.2156C29.5159 22.2226 29.6489 22.3068 29.7958 22.3419C30.0757 22.405 30.3276 22.5383 30.5865 22.6505C30.9013 22.7908 31.1882 22.9662 31.4681 23.1626C31.671 23.3028 31.8809 23.4431 32.0698 23.6115C32.2028 23.7307 32.3287 23.857 32.4477 23.9832C32.8395 24.383 33.2313 24.7829 33.6231 25.1827C34.05 25.6246 34.4768 26.0735 34.9106 26.5084C35.4424 27.0415 35.9531 27.6026 36.4919 28.1287C36.5129 28.1498 36.5339 28.1708 36.5549 28.1918C36.5829 28.2199 36.5759 28.248 36.5479 28.276C36.352 28.4724 36.1631 28.6618 35.9671 28.8582C35.9042 28.9283 35.8272 28.9915 35.7712 29.0616C35.7222 29.1177 35.6873 29.0897 35.6523 29.0616C35.4983 28.9073 35.3304 28.76 35.1975 28.5846C35.0575 28.4093 34.8756 28.283 34.7497 28.1007C34.6937 28.0235 34.6097 27.9674 34.5468 27.8972C34.2809 27.6237 34.022 27.3361 33.7491 27.0766C33.5042 26.8381 33.2733 26.5785 33.0284 26.333C32.8605 26.1647 32.6786 26.0104 32.5246 25.828C32.3147 25.5755 32.0768 25.358 31.8529 25.1196C31.608 24.86 31.3631 24.6005 31.0762 24.383C30.9083 24.2568 30.7334 24.1305 30.5445 24.0253C30.3905 23.9341 30.2296 23.857 30.0757 23.7728C29.9287 23.6956 29.7748 23.6325 29.6139 23.5834C29.4809 23.5413 29.341 23.4922 29.201 23.4572C28.9841 23.401 28.7672 23.366 28.5503 23.3309C28.4384 23.3099 28.3264 23.3169 28.2145 23.3099C28.1445 23.3028 28.1305 23.3309 28.1305 23.394C28.1305 23.6115 28.1305 23.8289 28.1305 24.0393C28.1305 24.7197 28.1305 25.4001 28.1305 26.0805C28.1305 27.7149 28.1375 29.3562 28.1305 30.9906C28.1305 31.2711 28.1445 31.5517 28.1375 31.8393C28.1375 31.8954 28.1305 31.9305 28.0535 31.9305C27.5498 31.9305 27.046 31.9305 26.5422 31.9305C26.4582 31.9305 26.4372 31.9585 26.4372 32.0638C26.4372 32.8143 26.4372 33.5578 26.4372 34.3084C26.4372 34.3995 26.4442 34.4907 26.4302 34.5819C26.4232 34.617 26.4372 34.638 26.4582 34.6661C26.934 35.1501 27.4098 35.6341 27.8856 36.1251C28.4034 36.6582 28.9212 37.1912 29.4389 37.7243C29.5649 37.8506 29.6978 37.9698 29.8308 38.0961C29.8308 37.8857 29.8308 37.6682 29.8308 37.4508C29.8308 35.2132 29.8308 32.9826 29.8308 30.7451C29.8308 30.6679 29.8588 30.6469 29.9287 30.6469C30.4325 30.6469 30.9363 30.6469 31.4401 30.6469C31.5241 30.6469 31.538 30.6188 31.538 30.5416C31.538 29.4404 31.538 28.3462 31.538 27.2449C31.538 27.1186 31.538 27.1186 31.664 27.1186C31.72 27.1186 31.7829 27.1257 31.8389 27.1186C31.9159 27.1116 31.9439 27.1397 31.9439 27.2239C31.9439 27.6237 31.9439 28.0235 31.9439 28.4233C31.9439 29.1388 31.9439 29.8472 31.9439 30.5627C31.9439 30.6398 31.9719 30.6679 32.0418 30.6398C32.0908 30.6188 32.1398 30.6469 32.1818 30.6469C32.6366 30.6469 33.0844 30.6469 33.5392 30.6469C33.6162 30.6469 33.6581 30.6679 33.6371 30.7521C33.6092 30.9134 33.6231 31.0747 33.6231 31.2291C33.6231 31.2711 33.6092 31.2992 33.5812 31.3273C33.4202 31.4816 33.2803 31.6429 33.1194 31.7972C32.9444 31.9726 32.7695 32.1479 32.5946 32.3303C32.3987 32.5267 32.2238 32.7371 32.0558 32.9546C31.9369 33.1089 31.8249 33.2632 31.72 33.4245C31.538 33.6981 31.3631 33.9787 31.2232 34.2803C31.0902 34.5609 30.9643 34.8485 30.8593 35.1431C30.7684 35.4026 30.6704 35.6551 30.6144 35.9217C30.5655 36.1601 30.5025 36.3916 30.4675 36.6301C30.4465 36.7914 30.4325 36.9528 30.4115 37.1141C30.3835 37.3315 30.3765 37.542 30.3626 37.7594C30.3486 37.9628 30.3416 38.1662 30.3695 38.3697C30.3835 38.4679 30.3765 38.5731 30.3835 38.6713C30.4045 38.8677 30.4255 39.0641 30.4535 39.2535C30.5025 39.6042 30.5935 39.9479 30.6844 40.2846C30.7334 40.4669 30.7894 40.6423 30.8663 40.8107C30.8873 40.8948 30.9293 40.972 30.9433 41.0702ZM25.9964 34.161C25.9964 34.147 26.0034 34.14 26.0034 34.133C26.0034 33.4456 26.0034 32.7582 26.0034 32.0708C26.0034 31.8954 26.0034 31.9024 25.8355 31.9094C25.3527 31.9305 24.8769 31.9165 24.3941 31.9165C24.3311 31.9165 24.3032 31.8954 24.3032 31.8253C24.3032 29.5316 24.3032 27.2309 24.3032 24.9372C24.3032 24.8951 24.3241 24.832 24.2892 24.8179C24.2542 24.8039 24.2332 24.867 24.2052 24.8951C23.8903 25.1967 23.6454 25.5544 23.4285 25.9262C23.1347 26.4383 22.9457 26.9854 22.8268 27.5605C22.7148 28.1007 22.7078 28.6478 22.7498 29.1949C22.7708 29.4614 22.8338 29.721 22.8898 29.9805C23.0297 30.5627 23.2816 31.1028 23.6104 31.6008C23.8833 32.0217 24.2262 32.3794 24.583 32.7371C24.7789 32.9406 24.9749 33.144 25.1708 33.3474C25.4087 33.5859 25.6466 33.8244 25.8775 34.0699C25.9125 34.1049 25.9474 34.14 25.9964 34.161Z" fill="url(#paint13_linear_4_28)"/>
</g>
<g filter="url(#filter4_d_4_28)">
<path d="M12.1001 54.1782C12.1001 54.1782 23.6009 57.9214 37.5598 57.9214C51.5187 57.9214 63.195 54.1782 63.195 54.1782V41.2205C63.195 41.2205 47.8546 46.2728 37.5598 46.2596C27.3316 46.2465 12.1001 41.2205 12.1001 41.2205V54.1782Z" fill="url(#paint14_linear_4_28)"/>
</g>
</g>
<g filter="url(#filter5_d_4_28)">
<path d="M39.6351 11.8066C38.8653 13.1399 36.9408 13.1399 36.171 11.8066L35.8739 11.292C35.1041 9.95863 36.0663 8.29197 37.6059 8.29197L38.2001 8.29197C39.7397 8.29197 40.702 9.95864 39.9322 11.292L39.6351 11.8066Z" fill="url(#paint15_linear_4_28)"/>
</g>
<g filter="url(#filter6_d_4_28)">
<path d="M39.6351 64.9453C38.8653 66.2786 36.9408 66.2786 36.171 64.9453L35.8739 64.4307C35.1041 63.0973 36.0663 61.4307 37.6059 61.4307L38.2001 61.4307C39.7397 61.4307 40.702 63.0973 39.9322 64.4307L39.6351 64.9453Z" fill="url(#paint16_linear_4_28)"/>
</g>
<g filter="url(#filter7_d_4_28)">
<path d="M63.1506 22.8851C64.0385 24.1429 63.2318 25.8902 61.6986 26.0303L61.1069 26.0843C59.5737 26.2244 58.4638 24.6522 59.1091 23.2543L59.3582 22.7148C60.0035 21.317 61.92 21.1419 62.8079 22.3997L63.1506 22.8851Z" fill="url(#paint17_linear_4_28)"/>
</g>
<g filter="url(#filter8_d_4_28)">
<path d="M16.906 22.8851C17.7939 24.1429 16.9872 25.8902 15.454 26.0303L14.8623 26.0843C13.329 26.2244 12.2192 24.6522 12.8645 23.2543L13.1135 22.7148C13.7589 21.317 15.6754 21.1419 16.5633 22.3997L16.906 22.8851Z" fill="url(#paint18_linear_4_28)"/>
</g>
</g>
</g>
<rect x="34.7445" y="49.0401" width="1.43859" height="4.79531" fill="#F2DFD2"/>
<path d="M40.5323 53.6532L39.7393 52.4923L38.889 53.6532H37.205L38.889 51.4377L37.254 49.2223H39.0035L39.7883 50.3423L40.6058 49.2223H42.249L40.614 51.3805L42.3063 53.6532H40.5323Z" fill="#F2DFD2"/>
</g>
<defs>
<filter id="filter0_d_4_28" x="0.357275" y="-8.6" width="76.2766" height="80.2" filterUnits="userSpaceOnUse" color-interpolation-filters="sRGB">
<feFlood flood-opacity="0" result="BackgroundImageFix"/>
<feColorMatrix in="SourceAlpha" type="matrix" values="0 0 0 0 0 0 0 0 0 0 0 0 0 0 0 0 0 0 127 0" result="hardAlpha"/>
<feOffset dy="-4"/>
<feGaussianBlur stdDeviation="2.55"/>
<feComposite in2="hardAlpha" operator="out"/>
<feColorMatrix type="matrix" values="0 0 0 0 0 0 0 0 0 0 0 0 0 0 0 0 0 0 0.25 0"/>
<feBlend mode="normal" in2="BackgroundImageFix" result="effect1_dropShadow_4_28"/>
<feBlend mode="normal" in="SourceGraphic" in2="effect1_dropShadow_4_28" result="shape"/>
</filter>
<filter id="filter1_i_4_28" x="13.7537" y="13.2433" width="49.7878" height="50.069" filterUnits="userSpaceOnUse" color-interpolation-filters="sRGB">
<feFlood flood-opacity="0" result="BackgroundImageFix"/>
<feBlend mode="normal" in="SourceGraphic" in2="BackgroundImageFix" result="shape"/>
<feColorMatrix in="SourceAlpha" type="matrix" values="0 0 0 0 0 0 0 0 0 0 0 0 0 0 0 0 0 0 127 0" result="hardAlpha"/>
<feOffset dx="2" dy="1"/>
<feGaussianBlur stdDeviation="1"/>
<feComposite in2="hardAlpha" operator="arithmetic" k2="-1" k3="1"/>
<feColorMatrix type="matrix" values="0 0 0 0 0 0 0 0 0 0 0 0 0 0 0 0 0 0 0.25 0"/>
<feBlend mode="normal" in2="shape" result="effect1_innerShadow_4_28"/>
</filter>
<filter id="filter2_d_4_28" x="31.3427" y="22.0543" width="25.1923" height="26.2537" filterUnits="userSpaceOnUse" color-interpolation-filters="sRGB">
<feFlood flood-opacity="0" result="BackgroundImageFix"/>
<feColorMatrix in="SourceAlpha" type="matrix" values="0 0 0 0 0 0 0 0 0 0 0 0 0 0 0 0 0 0 127 0" result="hardAlpha"/>
<feOffset dx="1" dy="2"/>
<feGaussianBlur stdDeviation="0.8"/>
<feComposite in2="hardAlpha" operator="out"/>
<feColorMatrix type="matrix" values="0 0 0 0 0 0 0 0 0 0 0 0 0 0 0 0 0 0 0.25 0"/>
<feBlend mode="normal" in2="BackgroundImageFix" result="effect1_dropShadow_4_28"/>
<feBlend mode="normal" in="SourceGraphic" in2="effect1_dropShadow_4_28" result="shape"/>
</filter>
<filter id="filter3_d_4_28" x="20.9253" y="22.0543" width="18.2474" height="22.6159" filterUnits="userSpaceOnUse" color-interpolation-filters="sRGB">
<feFlood flood-opacity="0" result="BackgroundImageFix"/>
<feColorMatrix in="SourceAlpha" type="matrix" values="0 0 0 0 0 0 0 0 0 0 0 0 0 0 0 0 0 0 127 0" result="hardAlpha"/>
<feOffset dx="1" dy="2"/>
<feGaussianBlur stdDeviation="0.8"/>
<feComposite in2="hardAlpha" operator="out"/>
<feColorMatrix type="matrix" values="0 0 0 0 0 0 0 0 0 0 0 0 0 0 0 0 0 0 0.25 0"/>
<feBlend mode="normal" in2="BackgroundImageFix" result="effect1_dropShadow_4_28"/>
<feBlend mode="normal" in="SourceGraphic" in2="effect1_dropShadow_4_28" result="shape"/>
</filter>
<filter id="filter4_d_4_28" x="12.1001" y="40.9205" width="54.3949" height="19.3009" filterUnits="userSpaceOnUse" color-interpolation-filters="sRGB">
<feFlood flood-opacity="0" result="BackgroundImageFix"/>
<feColorMatrix in="SourceAlpha" type="matrix" values="0 0 0 0 0 0 0 0 0 0 0 0 0 0 0 0 0 0 127 0" result="hardAlpha"/>
<feOffset dx="2" dy="1"/>
<feGaussianBlur stdDeviation="0.65"/>
<feComposite in2="hardAlpha" operator="out"/>
<feColorMatrix type="matrix" values="0 0 0 0 0 0 0 0 0 0 0 0 0 0 0 0 0 0 0.25 0"/>
<feBlend mode="normal" in2="BackgroundImageFix" result="effect1_dropShadow_4_28"/>
<feBlend mode="normal" in="SourceGraphic" in2="effect1_dropShadow_4_28" result="shape"/>
</filter>
<filter id="filter5_d_4_28" x="29.3029" y="1.99197" width="17.2002" height="17.1146" filterUnits="userSpaceOnUse" color-interpolation-filters="sRGB">
<feFlood flood-opacity="0" result="BackgroundImageFix"/>
<feColorMatrix in="SourceAlpha" type="matrix" values="0 0 0 0 0 0 0 0 0 0 0 0 0 0 0 0 0 0 127 0" result="hardAlpha"/>
<feOffset/>
<feGaussianBlur stdDeviation="3.15"/>
<feComposite in2="hardAlpha" operator="out"/>
<feColorMatrix type="matrix" values="0 0 0 0 1 0 0 0 0 1 0 0 0 0 1 0 0 0 0.25 0"/>
<feBlend mode="normal" in2="BackgroundImageFix" result="effect1_dropShadow_4_28"/>
<feBlend mode="normal" in="SourceGraphic" in2="effect1_dropShadow_4_28" result="shape"/>
</filter>
<filter id="filter6_d_4_28" x="29.3029" y="55.1307" width="17.2002" height="17.1146" filterUnits="userSpaceOnUse" color-interpolation-filters="sRGB">
<feFlood flood-opacity="0" result="BackgroundImageFix"/>
<feColorMatrix in="SourceAlpha" type="matrix" values="0 0 0 0 0 0 0 0 0 0 0 0 0 0 0 0 0 0 127 0" result="hardAlpha"/>
<feOffset/>
<feGaussianBlur stdDeviation="3.15"/>
<feComposite in2="hardAlpha" operator="out"/>
<feColorMatrix type="matrix" values="0 0 0 0 1 0 0 0 0 1 0 0 0 0 1 0 0 0 0.25 0"/>
<feBlend mode="normal" in2="BackgroundImageFix" result="effect1_dropShadow_4_28"/>
<feBlend mode="normal" in="SourceGraphic" in2="effect1_dropShadow_4_28" result="shape"/>
</filter>
<filter id="filter7_d_4_28" x="52.6219" y="15.253" width="17.1974" height="17.1401" filterUnits="userSpaceOnUse" color-interpolation-filters="sRGB">
<feFlood flood-opacity="0" result="BackgroundImageFix"/>
<feColorMatrix in="SourceAlpha" type="matrix" values="0 0 0 0 0 0 0 0 0 0 0 0 0 0 0 0 0 0 127 0" result="hardAlpha"/>
<feOffset/>
<feGaussianBlur stdDeviation="3.15"/>
<feComposite in2="hardAlpha" operator="out"/>
<feColorMatrix type="matrix" values="0 0 0 0 1 0 0 0 0 1 0 0 0 0 1 0 0 0 0.25 0"/>
<feBlend mode="normal" in2="BackgroundImageFix" result="effect1_dropShadow_4_28"/>
<feBlend mode="normal" in="SourceGraphic" in2="effect1_dropShadow_4_28" result="shape"/>
</filter>
<filter id="filter8_d_4_28" x="6.37726" y="15.253" width="17.1974" height="17.1401" filterUnits="userSpaceOnUse" color-interpolation-filters="sRGB">
<feFlood flood-opacity="0" result="BackgroundImageFix"/>
<feColorMatrix in="SourceAlpha" type="matrix" values="0 0 0 0 0 0 0 0 0 0 0 0 0 0 0 0 0 0 127 0" result="hardAlpha"/>
<feOffset/>
<feGaussianBlur stdDeviation="3.15"/>
<feComposite in2="hardAlpha" operator="out"/>
<feColorMatrix type="matrix" values="0 0 0 0 1 0 0 0 0 1 0 0 0 0 1 0 0 0 0.25 0"/>
<feBlend mode="normal" in2="BackgroundImageFix" result="effect1_dropShadow_4_28"/>
<feBlend mode="normal" in="SourceGraphic" in2="effect1_dropShadow_4_28" result="shape"/>
</filter>
<linearGradient id="paint0_linear_4_28" x1="51.809" y1="-0.200491" x2="38.0446" y2="-0.0994032" gradientUnits="userSpaceOnUse">
<stop stop-color="#F19F63"/>
<stop offset="1" stop-color="#AC4E0A"/>
</linearGradient>
<linearGradient id="paint1_linear_4_28" x1="41.0265" y1="6.87398" x2="33.0608" y2="22.3326" gradientUnits="userSpaceOnUse">
<stop stop-color="#F8A65B"/>
<stop offset="1" stop-color="#B65A17"/>
</linearGradient>
<linearGradient id="paint2_linear_4_28" x1="35.4616" y1="10.134" x2="31.19" y2="20.5554" gradientUnits="userSpaceOnUse">
<stop stop-color="#F8A65B"/>
<stop offset="1" stop-color="#B65A17"/>
</linearGradient>
<linearGradient id="paint3_linear_4_28" x1="57.6395" y1="3.55204" x2="45.9825" y2="0.465693" gradientUnits="userSpaceOnUse">
<stop stop-color="#F19F63"/>
<stop offset="1" stop-color="#AC4E0A"/>
</linearGradient>
<linearGradient id="paint4_linear_4_28" x1="81.2409" y1="16.0839" x2="69.2336" y2="12.7628" gradientUnits="userSpaceOnUse">
<stop stop-color="#F19F63"/>
<stop offset="1" stop-color="#AC4E0A"/>
</linearGradient>
<linearGradient id="paint5_linear_4_28" x1="78.1752" y1="33.9667" x2="66.1679" y2="30.6455" gradientUnits="userSpaceOnUse">
<stop stop-color="#F19F63"/>
<stop offset="1" stop-color="#AC4E0A"/>
</linearGradient>
<linearGradient id="paint6_linear_4_28" x1="80.219" y1="24.2586" x2="68.2117" y2="20.9375" gradientUnits="userSpaceOnUse">
<stop stop-color="#F19F63"/>
<stop offset="1" stop-color="#AC4E0A"/>
</linearGradient>
<linearGradient id="paint7_linear_4_28" x1="11.8525" y1="12.5829" x2="11.1104" y2="37.5241" gradientUnits="userSpaceOnUse">
<stop stop-color="#F8A65B"/>
<stop offset="1" stop-color="#B65A17"/>
</linearGradient>
<linearGradient id="paint8_linear_4_28" x1="14.9181" y1="28.9327" x2="14.1761" y2="53.874" gradientUnits="userSpaceOnUse">
<stop stop-color="#F8A65B"/>
<stop offset="1" stop-color="#B65A17"/>
</linearGradient>
<linearGradient id="paint9_linear_4_28" x1="12.8743" y1="20.2466" x2="12.1323" y2="45.1879" gradientUnits="userSpaceOnUse">
<stop stop-color="#F8A65B"/>
<stop offset="1" stop-color="#B65A17"/>
</linearGradient>
<linearGradient id="paint10_linear_4_28" x1="24.2727" y1="8.16415" x2="54.1994" y2="11.0624" gradientUnits="userSpaceOnUse">
<stop stop-color="#F2B072"/>
<stop offset="1" stop-color="#C75C0F"/>
</linearGradient>
<linearGradient id="paint11_linear_4_28" x1="25.1384" y1="10.3139" x2="53.7643" y2="11.8645" gradientUnits="userSpaceOnUse">
<stop stop-color="#F89E4B"/>
<stop offset="1" stop-color="#DB7124"/>
</linearGradient>
<linearGradient id="paint12_linear_4_28" x1="37.1821" y1="22.0543" x2="50.3505" y2="22.8162" gradientUnits="userSpaceOnUse">
<stop stop-color="#F2DFD2"/>
<stop offset="1" stop-color="#EA9558"/>
</linearGradient>
<linearGradient id="paint13_linear_4_28" x1="25.1102" y1="22.0543" x2="32.087" y2="7.5805" gradientUnits="userSpaceOnUse">
<stop stop-color="#F2DFD2"/>
</linearGradient>
<linearGradient id="paint14_linear_4_28" x1="37.8102" y1="59.0036" x2="38.3083" y2="46.93" gradientUnits="userSpaceOnUse">
<stop stop-color="#D1741D"/>
<stop offset="0.994792" stop-color="#F8A264"/>
</linearGradient>
<linearGradient id="paint15_linear_4_28" x1="44.9584" y1="10.1893" x2="40.8015" y2="15.0426" gradientUnits="userSpaceOnUse">
<stop stop-color="#ECD5C8"/>
<stop offset="1" stop-color="#FF7A00"/>
</linearGradient>
<linearGradient id="paint16_linear_4_28" x1="44.9584" y1="63.328" x2="40.8015" y2="68.1813" gradientUnits="userSpaceOnUse">
<stop stop-color="#ECD5C8"/>
<stop offset="1" stop-color="#FF7A00"/>
</linearGradient>
<linearGradient id="paint17_linear_4_28" x1="63.9135" y1="17.3742" x2="66.5775" y2="23.1825" gradientUnits="userSpaceOnUse">
<stop stop-color="#ECD5C8"/>
<stop offset="1" stop-color="#FF7A00"/>
</linearGradient>
<linearGradient id="paint18_linear_4_28" x1="17.6689" y1="17.3742" x2="20.3329" y2="23.1825" gradientUnits="userSpaceOnUse">
<stop stop-color="#ECD5C8"/>
<stop offset="1" stop-color="#FF7A00"/>
</linearGradient>
<clipPath id="clip0_4_28">
<rect width="76.6125" height="70" fill="white" transform="translate(0 0.5)"/>
</clipPath>
<clipPath id="clip1_4_28">
<rect width="76.6125" height="70" fill="white" transform="translate(0 0.5)"/>
</clipPath>
<clipPath id="clip2_4_28">
<rect width="66.0766" height="70" fill="white" transform="translate(5.45728 0.5)"/>
</clipPath>
<clipPath id="clip3_4_28">
<rect width="66.0766" height="70" fill="white" transform="translate(5.45728 0.5)"/>
</clipPath>
</defs>
</svg>
