<svg width="48" height="53" viewBox="0 0 48 53" fill="none" xmlns="http://www.w3.org/2000/svg">
<path d="M16.0554 5.31284L7.37409 10.9078C3.0891 13.6695 0.5 18.4183 0.5 23.5162V34.1896C0.5 40.622 4.60112 46.3383 10.6944 48.399L19.4236 51.3512C22.5834 52.4198 26.0092 52.4048 29.1595 51.3084L37.3559 48.4558C43.385 46.3575 47.4255 40.6731 47.4255 34.2892V23.3889C47.4255 18.3609 44.9064 13.6674 40.7162 10.8883L32.472 5.42058C27.5068 2.12755 21.0634 2.08526 16.0554 5.31284Z" fill="url(#paint0_linear_143_12797)"/>
<g filter="url(#filter0_i_143_12797)">
<path d="M16.0246 7.30087L8.88385 11.9101C4.60391 14.6727 2.01855 19.4186 2.01855 24.5127V32.6806C2.01855 39.418 6.51067 45.3288 13.002 47.1329L20.2022 49.1339C22.8668 49.8745 25.6843 49.8639 28.3433 49.1035L35.0314 47.1907C41.469 45.3496 45.9068 39.4647 45.9068 32.7689V24.3855C45.9068 19.3612 43.3914 14.6706 39.2063 11.8907L32.4588 7.40878C27.4896 4.10803 21.0368 4.06565 16.0246 7.30087Z" fill="url(#paint1_linear_143_12797)"/>
</g>
<g filter="url(#filter1_d_143_12797)">
<path d="M18.7325 27.4865C18.7132 27.3114 18.7325 27.1233 18.726 26.9287C18.726 26.8314 18.7454 26.7211 18.7776 26.6173C18.8034 26.52 18.8034 26.4163 18.8227 26.3255C18.8614 26.1503 18.913 25.9817 18.9516 25.8065C19.0161 25.5212 19.1386 25.2552 19.2481 24.9828C19.3577 24.7039 19.5124 24.4444 19.6671 24.185C19.8154 23.932 19.9959 23.705 20.1892 23.478C20.4599 23.1731 20.75 22.8812 21.0272 22.5829C21.2205 22.3753 21.4204 22.1807 21.6137 21.9796C21.9876 21.6034 22.3679 21.2272 22.7288 20.838C23.1156 20.4294 23.5088 20.0337 23.902 19.6251C24.076 19.4435 24.2694 19.2748 24.437 19.0803C24.7141 18.7559 25.03 18.4705 25.3265 18.1657C25.4941 17.997 25.6616 17.8284 25.8228 17.6533C26.2095 17.2317 26.635 16.849 27.0217 16.4209C27.344 16.0641 27.6985 15.7333 28.0272 15.3831C28.2786 15.1171 28.53 14.8577 28.7749 14.5982C28.9876 14.3777 29.2197 14.1896 29.4517 13.995C29.6838 13.8004 29.9352 13.6447 30.193 13.4891C30.4702 13.3269 30.7731 13.1972 31.0761 13.0869C31.2114 13.0415 31.3403 12.9766 31.4757 12.9507C31.5917 12.9312 31.7013 12.8923 31.8173 12.8793C31.9978 12.8599 32.1718 12.821 32.3523 12.795C32.623 12.7561 32.9002 12.7561 33.1709 12.7561C33.519 12.7561 33.8606 12.808 34.1958 12.8729C34.5696 12.9442 34.9306 13.048 35.2722 13.2037C35.6074 13.3528 35.9361 13.5345 36.2455 13.742C36.6 13.9885 36.9288 14.2674 37.2317 14.5788C37.5024 14.8512 37.7216 15.1625 37.9408 15.4739C38.2179 15.8825 38.4177 16.3365 38.5853 16.8036C38.7271 17.2057 38.8174 17.6143 38.8689 18.036C38.8947 18.2759 38.927 18.5159 38.9205 18.7624C38.9141 19.0154 38.9205 19.2684 38.8818 19.5213C38.8367 19.8132 38.798 20.1116 38.7207 20.397C38.624 20.7472 38.508 21.091 38.3533 21.4153C38.089 21.9991 37.7409 22.518 37.3091 22.9915C37.0126 23.3223 36.6967 23.6401 36.3873 23.9515C36.0715 24.2628 35.7685 24.5871 35.472 24.9114C35.3431 25.0541 35.2142 25.1968 35.066 25.3201C34.9822 25.3979 34.9048 25.4887 34.8275 25.5666C34.7695 25.6249 34.7114 25.6768 34.6534 25.7352C34.3311 26.0725 34.0024 26.3968 33.6866 26.7406C33.5125 26.9287 33.3385 27.1168 33.1645 27.2984C32.868 27.6033 32.5715 27.9081 32.2685 28.213C31.9656 28.5178 31.6562 28.8162 31.3661 29.134C30.9665 29.5686 30.5475 29.9902 30.1414 30.4248C29.8836 30.6972 29.6064 30.9567 29.3422 31.2226C29.0779 31.4886 28.8136 31.7545 28.5493 32.0204C28.4011 32.1696 28.227 32.2929 28.0659 32.4226C27.8403 32.5977 27.6018 32.7534 27.3504 32.8831C26.9572 33.0842 26.5447 33.2463 26.1193 33.3696C25.8615 33.4409 25.5907 33.4798 25.3265 33.5317C25.2556 33.5447 25.1782 33.5447 25.1073 33.5512C24.7592 33.5771 24.4112 33.5447 24.0631 33.5447C23.96 33.5447 23.8568 33.5123 23.7537 33.4993C23.6312 33.4798 23.5088 33.4474 23.3863 33.4215C23.1736 33.3761 22.9673 33.3112 22.7611 33.2528C22.5161 33.1815 22.2841 33.0647 22.052 32.9609C21.8973 32.8896 21.762 32.7858 21.6137 32.708C21.4913 32.6431 21.3817 32.5653 21.2721 32.4874C21.1239 32.3707 20.9756 32.2539 20.8338 32.1372C20.634 31.9685 20.4471 31.7804 20.273 31.5858C20.1634 31.4561 20.0474 31.3329 19.9443 31.1967C19.7638 30.9567 19.6156 30.6972 19.4737 30.4378C19.3384 30.1848 19.203 29.9318 19.1128 29.6594C19.0161 29.387 18.9516 29.1081 18.8678 28.8357C18.8356 28.7254 18.8356 28.6021 18.8098 28.4854C18.7389 28.1546 18.7196 27.8303 18.7325 27.4865ZM22.3614 31.8194C22.3808 31.7869 22.3743 31.761 22.3743 31.735C22.3743 31.4367 22.3743 31.1383 22.3743 30.8464C22.3743 29.3092 22.3743 27.7784 22.3743 26.2411C22.3743 26.1892 22.3808 26.1568 22.4452 26.1568C22.9158 26.1568 23.3863 26.1568 23.8568 26.1633C23.9213 26.1633 23.9471 26.1503 23.9406 26.079C23.9406 25.4757 23.9406 24.866 23.9406 24.2628C23.9406 23.8412 23.9406 23.4261 23.9406 23.0045C23.9406 22.9007 23.9406 22.9007 24.0502 22.8942C24.1082 22.8942 24.1727 22.9007 24.2307 22.8812C24.2629 22.8747 24.308 22.8942 24.3145 22.9461C24.3145 23.011 24.3274 23.0693 24.3274 23.1277C24.3274 24.1071 24.3274 25.0866 24.3274 26.0725C24.3274 26.1374 24.3467 26.1568 24.4112 26.1503C24.8817 26.1503 25.3523 26.1503 25.8228 26.1438C25.8872 26.1438 25.9066 26.1568 25.9066 26.2217C25.9066 27.9795 25.9066 29.7373 25.9066 31.4886C25.9066 31.7026 25.9066 31.9231 25.9066 32.1372C25.9066 32.1891 25.9195 32.2085 25.9775 32.1891C26.0548 32.1631 26.1322 32.1502 26.2031 32.1177C26.3384 32.0593 26.4803 32.0075 26.6156 31.9361C26.7703 31.8518 26.9315 31.7804 27.0862 31.6896C27.2731 31.5794 27.4407 31.4561 27.6147 31.3199C27.7178 31.2421 27.8145 31.1642 27.7694 31.0086C27.7694 31.0021 27.7694 30.9956 27.7694 30.9826C27.7694 28.3946 27.7758 25.8001 27.7758 23.212C27.7758 22.4012 27.7758 21.5905 27.7758 20.7797C27.7758 20.6759 27.7758 20.6759 27.879 20.6759C28.3302 20.6759 28.7878 20.6759 29.239 20.6759C29.3164 20.6759 29.3422 20.6499 29.3422 20.5721C29.3357 20.0402 29.3422 19.5019 29.3422 18.97C29.3422 18.4835 29.3422 17.997 29.3422 17.5106C29.3422 17.4327 29.3679 17.4133 29.4388 17.4133C29.5097 17.4198 29.5806 17.4198 29.6451 17.4133C29.7031 17.4068 29.716 17.4327 29.716 17.4846C29.716 18.4965 29.716 19.5083 29.716 20.5267C29.716 20.5591 29.7225 20.5916 29.7096 20.6175C29.6838 20.6759 29.716 20.6759 29.7547 20.6759C29.8707 20.6759 29.9932 20.6759 30.1092 20.6759C30.4702 20.6759 30.8311 20.6759 31.1856 20.6759C31.2501 20.6759 31.2759 20.6953 31.2759 20.7602C31.2694 20.8445 31.2694 20.9353 31.2694 21.0197C31.2694 23.1601 31.2694 25.2941 31.2694 27.4346C31.2694 27.4606 31.2694 27.48 31.2759 27.506C31.2952 27.5579 31.3081 27.5643 31.3468 27.5254C31.4241 27.4411 31.5015 27.3633 31.5788 27.2854C31.9913 26.8573 32.4103 26.4292 32.8228 26.0011C33.3321 25.4757 33.8413 24.9504 34.3569 24.425C34.3956 24.386 34.4085 24.3406 34.4085 24.2888C34.4085 23.5104 34.4085 22.7256 34.4085 21.9472C34.4085 21.8823 34.3892 21.8629 34.3247 21.8629C33.8735 21.8694 33.4223 21.8629 32.9711 21.8629C32.8486 21.8629 32.8422 21.8888 32.8422 21.7396C32.8422 19.4175 32.8422 17.089 32.8422 14.7669C32.8422 14.7085 32.8164 14.6566 32.8228 14.5982C32.8551 14.4101 32.8357 14.2155 32.8357 14.0274C32.8357 13.8977 32.8293 13.8977 32.7068 13.9042C32.6875 13.9042 32.6617 13.9042 32.6424 13.9042C32.507 13.9172 32.3716 13.9172 32.2363 13.9431C31.9398 14.0015 31.6433 14.0793 31.3532 14.1896C31.018 14.3128 30.7022 14.475 30.4121 14.676C30.0512 14.9225 29.7353 15.2339 29.4259 15.5452C29.1617 15.8112 28.9103 16.0771 28.646 16.343C28.5364 16.4533 28.4269 16.5571 28.3237 16.6673C28.0014 17.0046 27.6792 17.3484 27.3569 17.6922C27.2795 17.7765 27.2022 17.8738 27.1184 17.9516C26.9443 18.1203 26.7832 18.2954 26.6092 18.4641C26.1386 18.9311 25.6681 19.4046 25.2233 19.8975C24.9591 20.1894 24.6819 20.4618 24.4047 20.7407C23.9406 21.2142 23.4637 21.6813 23.006 22.1612C22.5419 22.6477 22.0843 23.1342 21.6137 23.6142C21.2786 23.958 20.9369 24.2952 20.6791 24.7104C20.4922 25.0022 20.3246 25.3071 20.1957 25.6314C20.0281 26.053 19.9249 26.4876 19.8798 26.9352C19.8283 27.4346 19.8347 27.9341 19.9378 28.427C20.0087 28.7643 20.1054 29.0951 20.2279 29.4194C20.2924 29.5946 20.389 29.7567 20.4793 29.9189C20.9369 30.7361 21.5557 31.3653 22.3614 31.8194ZM36.3358 15.2663C36.3293 15.3052 36.3293 15.3247 36.3293 15.3441C36.3293 16.3819 36.3293 17.4133 36.3293 18.4511C36.3293 19.5602 36.3293 20.6694 36.3293 21.785C36.3293 21.8564 36.3164 21.8888 36.2326 21.8888C35.7685 21.8823 35.3109 21.8888 34.8468 21.8888C34.7759 21.8888 34.7566 21.9148 34.7566 21.9796C34.7566 22.6153 34.7566 23.2574 34.7566 23.8931C34.7566 23.9255 34.7566 23.958 34.7566 23.9904C34.9242 23.8282 35.0853 23.6726 35.2464 23.5104C35.5107 23.238 35.775 22.9655 36.0393 22.6931C36.3616 22.3623 36.6903 22.038 36.9481 21.6488C37.4573 20.8834 37.728 20.0337 37.7861 19.1192C37.8183 18.5938 37.7603 18.0749 37.6314 17.5625C37.496 17.0241 37.2768 16.5246 36.9674 16.0641C36.7934 15.7722 36.5743 15.5322 36.3358 15.2663Z" fill="url(#paint2_linear_143_12797)"/>
</g>
<g filter="url(#filter2_d_143_12797)">
<path d="M17.8057 30.2203C17.735 30.1945 17.6964 30.143 17.6643 30.0979C17.5486 29.9433 17.4073 29.808 17.2788 29.6663C17.1245 29.4923 16.9639 29.3184 16.7968 29.1509C16.4755 28.8224 16.1542 28.4938 15.8329 28.1653C15.6465 27.972 15.4602 27.7852 15.2738 27.5984C15.1196 27.4438 14.9782 27.2763 14.824 27.1281C14.7533 27.0573 14.6891 26.9735 14.5991 26.9156C14.522 26.8705 14.4963 26.7738 14.4256 26.7094C14.22 26.5226 14.04 26.3165 13.8344 26.1296C13.6738 25.9815 13.5452 25.7947 13.3846 25.6465C13.2818 25.5563 13.1918 25.4468 13.0826 25.363C13.0311 25.3308 13.0119 25.26 12.9669 25.2149C12.7548 25.0087 12.5428 24.809 12.3436 24.59C12.0737 24.2872 11.7781 24.0102 11.5082 23.7075C11.309 23.4884 11.0905 23.2823 10.8849 23.0697C10.5828 22.754 10.3065 22.4126 10.0687 22.0454C9.95308 21.8651 9.86311 21.6718 9.7603 21.485C9.66391 21.311 9.60607 21.1242 9.52896 20.9503C9.42614 20.7313 9.39401 20.4994 9.32333 20.2739C9.27834 20.1193 9.25907 19.9582 9.22694 19.8036C9.14982 19.372 9.1691 18.9404 9.15625 18.5023C9.15625 18.3864 9.1691 18.2704 9.16268 18.1545C9.16268 18.0643 9.20123 17.9677 9.21408 17.871C9.22694 17.8131 9.22051 17.7486 9.22694 17.6907C9.23979 17.594 9.27192 17.5038 9.29762 17.4072C9.37473 17.0787 9.47755 16.763 9.59965 16.4474C9.67033 16.2605 9.74102 16.0673 9.85026 15.8998C9.99163 15.6808 10.1202 15.4488 10.2744 15.2427C10.4286 15.0301 10.5828 14.8175 10.7692 14.6307C10.9298 14.4632 11.0969 14.3022 11.2768 14.1476C11.566 13.8899 11.8809 13.6644 12.2215 13.4776C12.4271 13.3681 12.6392 13.265 12.8512 13.1684C13.0054 13.0975 13.1597 13.0396 13.3267 13.0009C13.4553 12.9687 13.5709 12.9107 13.7059 12.8978C13.9115 12.8785 14.1043 12.827 14.3035 12.7948C14.5927 12.7561 14.8818 12.7561 15.171 12.7561C15.2867 12.7561 15.4024 12.7561 15.5116 12.7625C15.6273 12.769 15.7429 12.7883 15.8586 12.8076C16.0193 12.8334 16.1799 12.8978 16.347 12.9043C16.4948 12.9107 16.6169 12.988 16.7518 13.0202C17.0089 13.0782 17.2402 13.2006 17.478 13.3037C17.7671 13.4325 18.0306 13.5936 18.2876 13.7739C18.474 13.9028 18.6668 14.0316 18.8403 14.1862C18.9624 14.2957 19.078 14.4117 19.1873 14.5276C19.5471 14.8948 19.907 15.262 20.2669 15.6292C20.6589 16.0351 21.0508 16.4474 21.4493 16.8468C21.9376 17.3363 22.4067 17.8517 22.9015 18.3349C22.9208 18.3542 22.9401 18.3735 22.9594 18.3928C22.9851 18.4186 22.9786 18.4444 22.9529 18.4701C22.773 18.6505 22.5995 18.8244 22.4196 19.0048C22.3618 19.0692 22.2911 19.1272 22.2397 19.1916C22.1947 19.2432 22.1625 19.2174 22.1304 19.1916C21.989 19.0499 21.8348 18.9146 21.7127 18.7536C21.5842 18.5925 21.4171 18.4766 21.3015 18.3091C21.25 18.2382 21.1729 18.1867 21.1151 18.1223C20.8709 17.871 20.6331 17.6069 20.3825 17.3686C20.1576 17.1495 19.9456 16.9112 19.7206 16.6857C19.5664 16.5311 19.3993 16.3894 19.258 16.2219C19.0652 15.99 18.8467 15.7903 18.6411 15.5712C18.4162 15.3329 18.1913 15.0945 17.9278 14.8948C17.7736 14.7789 17.6129 14.6629 17.4394 14.5663C17.298 14.4826 17.1502 14.4117 17.0089 14.3344C16.8739 14.2635 16.7325 14.2055 16.5847 14.1605C16.4627 14.1218 16.3341 14.0767 16.2056 14.0445C16.0064 13.993 15.8072 13.9608 15.608 13.9285C15.5052 13.9092 15.4024 13.9157 15.2995 13.9092C15.2353 13.9028 15.2224 13.9285 15.2224 13.9865C15.2224 14.1862 15.2224 14.3859 15.2224 14.5792C15.2224 15.2041 15.2224 15.8289 15.2224 16.4538C15.2224 17.9548 15.2289 19.4622 15.2224 20.9632C15.2224 21.2209 15.2353 21.4785 15.2289 21.7427C15.2289 21.7942 15.2224 21.8264 15.1517 21.8264C14.6891 21.8264 14.2264 21.8264 13.7637 21.8264C13.6866 21.8264 13.6673 21.8522 13.6673 21.9488C13.6673 22.6381 13.6673 23.3209 13.6673 24.0102C13.6673 24.094 13.6738 24.1777 13.6609 24.2615C13.6545 24.2937 13.6673 24.313 13.6866 24.3388C14.1236 24.7833 14.5605 25.2278 14.9975 25.6787C15.473 26.1683 15.9486 26.6579 16.4241 27.1475C16.5398 27.2634 16.6619 27.3729 16.784 27.4889C16.784 27.2956 16.784 27.0959 16.784 26.8962C16.784 24.8412 16.784 22.7927 16.784 20.7377C16.784 20.6668 16.8097 20.6475 16.8739 20.6475C17.3366 20.6475 17.7993 20.6475 18.2619 20.6475C18.3391 20.6475 18.3519 20.6217 18.3519 20.5509C18.3519 19.5395 18.3519 18.5346 18.3519 17.5232C18.3519 17.4072 18.3519 17.4072 18.4676 17.4072C18.519 17.4072 18.5768 17.4136 18.6282 17.4072C18.6989 17.4008 18.7246 17.4265 18.7246 17.5038C18.7246 17.871 18.7246 18.2382 18.7246 18.6054C18.7246 19.2625 18.7246 19.9131 18.7246 20.5702C18.7246 20.6411 18.7503 20.6668 18.8146 20.6411C18.8596 20.6217 18.9045 20.6475 18.9431 20.6475C19.3608 20.6475 19.7721 20.6475 20.1898 20.6475C20.2604 20.6475 20.299 20.6668 20.2797 20.7441C20.254 20.8923 20.2669 21.0405 20.2669 21.1822C20.2669 21.2209 20.254 21.2466 20.2283 21.2724C20.0805 21.4141 19.952 21.5623 19.8042 21.704C19.6435 21.8651 19.4829 22.0261 19.3222 22.1936C19.1423 22.374 18.9817 22.5672 18.8274 22.7669C18.7182 22.9086 18.6154 23.0504 18.519 23.1985C18.3519 23.4498 18.1913 23.7075 18.0627 23.9845C17.9406 24.2421 17.825 24.5063 17.7286 24.7768C17.645 25.0152 17.5551 25.2471 17.5037 25.4919C17.4587 25.7109 17.4009 25.9235 17.3687 26.1425C17.3494 26.2907 17.3366 26.4389 17.3173 26.587C17.2916 26.7867 17.2852 26.98 17.2723 27.1797C17.2595 27.3665 17.2531 27.5533 17.2788 27.7401C17.2916 27.8303 17.2852 27.9269 17.2916 28.0171C17.3109 28.1975 17.3302 28.3779 17.3559 28.5518C17.4009 28.8739 17.4844 29.1896 17.5679 29.4988C17.6129 29.6663 17.6643 29.8273 17.735 29.9819C17.7543 30.0592 17.7928 30.1301 17.8057 30.2203ZM13.2625 23.8749C13.2625 23.8621 13.2689 23.8556 13.2689 23.8492C13.2689 23.2179 13.2689 22.5866 13.2689 21.9552C13.2689 21.7942 13.2689 21.8006 13.1147 21.8071C12.6713 21.8264 12.2343 21.8135 11.7909 21.8135C11.7331 21.8135 11.7074 21.7942 11.7074 21.7298C11.7074 19.6232 11.7074 17.5103 11.7074 15.4038C11.7074 15.3651 11.7267 15.3071 11.6945 15.2942C11.6624 15.2814 11.6431 15.3393 11.6174 15.3651C11.3282 15.6421 11.1033 15.9706 10.9041 16.3121C10.6342 16.7823 10.4607 17.2848 10.3515 17.8131C10.2487 18.3091 10.2422 18.8116 10.2808 19.314C10.3001 19.5588 10.3579 19.7972 10.4093 20.0355C10.5378 20.5702 10.7692 21.0662 11.0712 21.5236C11.3218 21.9101 11.6367 22.2387 11.9644 22.5672C12.1444 22.754 12.3243 22.9409 12.5042 23.1277C12.7227 23.3467 12.9412 23.5657 13.1532 23.7912C13.1854 23.8234 13.2175 23.8556 13.2625 23.8749Z" fill="url(#paint3_linear_143_12797)"/>
</g>
<path d="M0.5 42.259C0.5 42.259 11.0623 45.6968 23.8821 45.6968C36.702 45.6968 47.4255 42.259 47.4255 42.259V30.3587C47.4255 30.3587 33.3369 34.9987 23.8821 34.9866C14.4886 34.9745 0.5 30.3587 0.5 30.3587V42.259Z" fill="url(#paint4_linear_143_12797)"/>
<rect x="22.3408" y="38.7246" width="1.3212" height="4.40401" fill="#E6FEFF"/>
<rect x="24.9009" y="38.7246" width="1.3212" height="4.40401" fill="#E6FEFF"/>
<defs>
<filter id="filter0_i_143_12797" x="2.01855" y="4.90356" width="44.8882" height="45.7781" filterUnits="userSpaceOnUse" color-interpolation-filters="sRGB">
<feFlood flood-opacity="0" result="BackgroundImageFix"/>
<feBlend mode="normal" in="SourceGraphic" in2="BackgroundImageFix" result="shape"/>
<feColorMatrix in="SourceAlpha" type="matrix" values="0 0 0 0 0 0 0 0 0 0 0 0 0 0 0 0 0 0 127 0" result="hardAlpha"/>
<feOffset dx="1" dy="1"/>
<feGaussianBlur stdDeviation="0.5"/>
<feComposite in2="hardAlpha" operator="arithmetic" k2="-1" k3="1"/>
<feColorMatrix type="matrix" values="0 0 0 0 0 0 0 0 0 0 0 0 0 0 0 0 0 0 0.25 0"/>
<feBlend mode="normal" in2="shape" result="effect1_innerShadow_143_12797"/>
</filter>
<filter id="filter1_d_143_12797" x="18.1236" y="12.7561" width="23.3978" height="24.4052" filterUnits="userSpaceOnUse" color-interpolation-filters="sRGB">
<feFlood flood-opacity="0" result="BackgroundImageFix"/>
<feColorMatrix in="SourceAlpha" type="matrix" values="0 0 0 0 0 0 0 0 0 0 0 0 0 0 0 0 0 0 127 0" result="hardAlpha"/>
<feOffset dx="1" dy="2"/>
<feGaussianBlur stdDeviation="0.8"/>
<feComposite in2="hardAlpha" operator="out"/>
<feColorMatrix type="matrix" values="0 0 0 0 0 0 0 0 0 0 0 0 0 0 0 0 0 0 0.25 0"/>
<feBlend mode="normal" in2="BackgroundImageFix" result="effect1_dropShadow_143_12797"/>
<feBlend mode="normal" in="SourceGraphic" in2="effect1_dropShadow_143_12797" result="shape"/>
</filter>
<filter id="filter2_d_143_12797" x="8.55625" y="12.7561" width="17.0193" height="21.0641" filterUnits="userSpaceOnUse" color-interpolation-filters="sRGB">
<feFlood flood-opacity="0" result="BackgroundImageFix"/>
<feColorMatrix in="SourceAlpha" type="matrix" values="0 0 0 0 0 0 0 0 0 0 0 0 0 0 0 0 0 0 127 0" result="hardAlpha"/>
<feOffset dx="1" dy="2"/>
<feGaussianBlur stdDeviation="0.8"/>
<feComposite in2="hardAlpha" operator="out"/>
<feColorMatrix type="matrix" values="0 0 0 0 0 0 0 0 0 0 0 0 0 0 0 0 0 0 0.25 0"/>
<feBlend mode="normal" in2="BackgroundImageFix" result="effect1_dropShadow_143_12797"/>
<feBlend mode="normal" in="SourceGraphic" in2="effect1_dropShadow_143_12797" result="shape"/>
</filter>
<linearGradient id="paint0_linear_143_12797" x1="12.3322" y1="9.56734" x2="43.3593" y2="47.5827" gradientUnits="userSpaceOnUse">
<stop offset="0.207595" stop-color="#A1BABC"/>
<stop offset="0.961067" stop-color="#90A4A5"/>
</linearGradient>
<linearGradient id="paint1_linear_143_12797" x1="13.0849" y1="10.9359" x2="29.6738" y2="27.6167" gradientUnits="userSpaceOnUse">
<stop stop-color="#9DB8C6"/>
<stop offset="1" stop-color="#70828B"/>
<stop offset="1" stop-color="#545E60"/>
</linearGradient>
<linearGradient id="paint2_linear_143_12797" x1="28.8225" y1="12.7561" x2="28.8225" y2="33.5613" gradientUnits="userSpaceOnUse">
<stop stop-color="#E6FEFF"/>
<stop offset="1" stop-color="#6A8B9C"/>
</linearGradient>
<linearGradient id="paint3_linear_143_12797" x1="16.066" y1="12.7561" x2="16.066" y2="30.2203" gradientUnits="userSpaceOnUse">
<stop stop-color="#E6FEFF"/>
<stop offset="1" stop-color="#6A8B9C"/>
</linearGradient>
<linearGradient id="paint4_linear_143_12797" x1="29.9461" y1="33.6996" x2="29.9461" y2="45.6968" gradientUnits="userSpaceOnUse">
<stop stop-color="#6A8B9C"/>
<stop offset="1" stop-color="#4C6D72"/>
</linearGradient>
</defs>
</svg>
