<svg width="86" height="82" viewBox="0 0 86 82" fill="none" xmlns="http://www.w3.org/2000/svg">
<g filter="url(#filter0_d_622_4147)">
<path d="M49.007 18.6888C49.0511 19.0003 43.9375 26.291 39.636 32.9307C36.7442 32.6584 32.6906 32.5754 34.0953 30.6535C36.5784 27.2562 39.8605 23.886 42.1525 20.1341L48.6729 11.1292C48.7058 12.2544 48.9227 18.0934 49.007 18.6888Z" fill="url(#paint0_linear_622_4147)"/>
<path d="M34.8545 18.8152C34.8161 19.1274 40.0632 26.3226 44.4863 32.8819C47.3726 32.5564 51.424 32.3987 49.9842 30.5031C47.4389 27.1521 44.0953 23.843 41.7345 20.1339L35.0493 11.2506C35.0371 12.3763 34.9279 18.2183 34.8545 18.8152Z" fill="url(#paint1_linear_622_4147)"/>
<path d="M74.16 27.2045C73.7221 27.655 65.998 37.7159 60.3559 43.3452C58.2648 41.0942 55.2264 38.3195 56.9803 36.7952C60.0808 34.1006 63.7763 31.9666 66.8596 28.6942L75.0312 21.5115C74.5381 23.0443 74.3729 26.9855 74.16 27.2045Z" fill="url(#paint2_linear_622_4147)"/>
<path d="M71.5331 42.5324C71.0951 42.9829 63.371 53.0437 57.7289 58.6731C55.6379 56.4221 52.5995 53.6474 54.3534 52.1231C57.4539 49.4285 61.1493 47.2945 64.2326 44.0221L72.4043 36.8394C71.9112 38.3722 71.746 42.3134 71.5331 42.5324Z" fill="url(#paint3_linear_622_4147)"/>
<path d="M73.285 34.2112C72.8471 34.6617 65.123 44.7226 59.4809 50.352C57.3898 48.101 54.3514 45.3262 56.1053 43.8019C59.2058 41.1073 62.9013 38.9733 65.9846 35.7009L74.1562 28.5182C73.6631 30.051 73.4979 33.9922 73.285 34.2112Z" fill="url(#paint4_linear_622_4147)"/>
<path d="M12.19 26.7664C12.628 27.2169 19.6695 37.2777 25.3116 42.9071C27.4026 40.6561 30.4411 37.8814 28.6872 36.3571C25.5867 33.6625 21.8912 31.5285 18.8079 28.2561L10.6362 21.0734C11.1294 22.6062 11.9772 26.5474 12.19 26.7664Z" fill="url(#paint5_linear_622_4147)"/>
<path d="M14.818 40.7806C15.2559 41.2312 22.2974 51.292 27.9396 56.9214C30.0306 54.6704 33.069 51.8957 31.3151 50.3714C28.2146 47.6768 24.5191 45.5428 21.4358 42.2704L13.2642 35.0876C13.7573 36.6205 14.6051 40.5617 14.818 40.7806Z" fill="url(#paint6_linear_622_4147)"/>
<path d="M13.0655 33.3352C13.5035 33.7857 20.545 43.8466 26.1871 49.476C28.2781 47.225 31.3165 44.4502 29.5626 42.9259C26.4622 40.2313 22.7667 38.0973 19.6834 34.8249L11.5117 27.6422C12.0048 29.1751 12.8526 33.1162 13.0655 33.3352Z" fill="url(#paint7_linear_622_4147)"/>
<g filter="url(#filter1_d_622_4147)">
<path d="M64.1672 49.0894V33.9927L71.3148 24.5766L66.4964 26.1095L61.758 27.8613L46.1046 19.4595L45.9563 18.7085C45.4957 16.3766 44.4876 14.1876 43.015 12.3218L41.9717 11L40.9826 12.7079C40.0439 14.3287 39.4171 16.1109 39.1345 17.9624L38.906 19.4595L22.5609 27.8613L19.1972 26.5474L14.6777 24.5766L20.3716 33.9927V48.8467C20.3716 55.1804 24.5331 60.7615 30.6034 62.5688L35.2646 63.9566C36.7269 64.392 37.8926 65.5009 38.4004 66.9397C38.7294 67.8717 39.3397 68.6784 40.1471 69.2483L42.6287 71L44.9282 69.2616C45.6959 68.6813 46.2783 67.8902 46.6046 66.9848C47.1344 65.5148 48.3254 64.38 49.8193 63.922L54.1926 62.581C60.1203 60.7633 64.1672 55.2895 64.1672 49.0894Z" fill="url(#paint8_linear_622_4147)"/>
</g>
<g filter="url(#filter2_i_622_4147)">
<path d="M34.3105 24.7387L28.6544 28.3897C24.3744 31.1523 21.7891 35.8982 21.7891 40.9923V47.31C21.7891 54.0475 26.2812 59.9582 32.7726 61.7623L38.4881 63.3507C41.1527 64.0913 43.9702 64.0807 46.6292 63.3203L51.8746 61.8201C58.3122 59.979 62.75 54.0941 62.75 47.3984V40.865C62.75 35.8408 60.2346 31.1502 56.0495 28.3703L50.7447 24.8467C45.7755 21.5459 39.3227 21.5035 34.3105 24.7387Z" fill="url(#paint9_linear_622_4147)"/>
</g>
<g filter="url(#filter3_d_622_4147)">
<path d="M37.3877 43.223C37.3696 43.0595 37.3877 42.884 37.3816 42.7024C37.3816 42.6116 37.3997 42.5087 37.4298 42.4118C37.4538 42.321 37.4538 42.2241 37.4719 42.1394C37.508 41.9759 37.5561 41.8185 37.5922 41.6551C37.6524 41.3887 37.7667 41.1405 37.8689 40.8863C37.9712 40.626 38.1156 40.3838 38.26 40.1417C38.3983 39.9056 38.5668 39.6937 38.7472 39.4818C38.9999 39.1973 39.2706 38.9249 39.5293 38.6464C39.7098 38.4527 39.8963 38.2711 40.0767 38.0834C40.4256 37.7323 40.7806 37.3812 41.1175 37.018C41.4784 36.6366 41.8454 36.2673 42.2123 35.8859C42.3748 35.7164 42.5552 35.559 42.7116 35.3774C42.9703 35.0747 43.2651 34.8084 43.5418 34.5239C43.6982 34.3665 43.8547 34.2091 44.005 34.0456C44.366 33.6521 44.763 33.295 45.124 32.8954C45.4248 32.5625 45.7556 32.2537 46.0625 31.9268C46.2971 31.6786 46.5317 31.4365 46.7603 31.1943C46.9588 30.9885 47.1754 30.813 47.3919 30.6313C47.6085 30.4497 47.8431 30.3045 48.0838 30.1592C48.3424 30.0078 48.6252 29.8867 48.9079 29.7838C49.0343 29.7415 49.1546 29.6809 49.2809 29.6567C49.3892 29.6385 49.4915 29.6022 49.5997 29.5901C49.7682 29.572 49.9306 29.5356 50.0991 29.5114C50.3517 29.4751 50.6104 29.4751 50.8631 29.4751C51.1879 29.4751 51.5068 29.5235 51.8196 29.5841C52.1685 29.6507 52.5054 29.7475 52.8242 29.8928C53.137 30.032 53.4438 30.2015 53.7326 30.3953C54.0635 30.6253 54.3703 30.8856 54.653 31.1762C54.9057 31.4304 55.1102 31.721 55.3148 32.0116C55.5734 32.393 55.7599 32.8167 55.9163 33.2526C56.0487 33.6279 56.1329 34.0093 56.181 34.4028C56.2051 34.6268 56.2352 34.8508 56.2292 35.0808C56.2231 35.3169 56.2292 35.553 56.1931 35.7891C56.151 36.0615 56.1149 36.34 56.0427 36.6063C55.9524 36.9332 55.8441 37.2541 55.6998 37.5568C55.4531 38.1016 55.1283 38.5859 54.7252 39.0278C54.4485 39.3365 54.1537 39.6332 53.8649 39.9237C53.5702 40.2143 53.2874 40.517 53.0107 40.8197C52.8904 40.9529 52.7701 41.086 52.6317 41.2011C52.5535 41.2737 52.4813 41.3585 52.4091 41.4311C52.355 41.4856 52.3008 41.534 52.2467 41.5885C51.9459 41.9033 51.6391 42.206 51.3443 42.5268C51.1819 42.7024 51.0195 42.8779 50.857 43.0474C50.5803 43.332 50.3036 43.6165 50.0208 43.901C49.7381 44.1855 49.4493 44.464 49.1786 44.7606C48.8057 45.1662 48.4146 45.5597 48.0356 45.9653C47.795 46.2196 47.5363 46.4617 47.2897 46.7099C47.043 46.9581 46.7964 47.2063 46.5497 47.4545C46.4114 47.5938 46.2489 47.7088 46.0985 47.8298C45.888 47.9933 45.6654 48.1386 45.4308 48.2597C45.0638 48.4473 44.6788 48.5987 44.2818 48.7137C44.0411 48.7803 43.7885 48.8166 43.5418 48.865C43.4757 48.8771 43.4035 48.8771 43.3373 48.8832C43.0124 48.9074 42.6876 48.8771 42.3627 48.8771C42.2665 48.8771 42.1702 48.8469 42.074 48.8348C41.9597 48.8166 41.8454 48.7863 41.7311 48.7621C41.5326 48.7197 41.34 48.6592 41.1475 48.6047C40.9189 48.5381 40.7024 48.4292 40.4858 48.3323C40.3414 48.2657 40.2151 48.1688 40.0767 48.0962C39.9624 48.0357 39.8602 47.963 39.7579 47.8904C39.6195 47.7814 39.4812 47.6724 39.3488 47.5635C39.1623 47.4061 38.9879 47.2305 38.8254 47.0489C38.7232 46.9278 38.6149 46.8128 38.5186 46.6857C38.3502 46.4617 38.2118 46.2196 38.0795 45.9774C37.9531 45.7413 37.8268 45.5052 37.7426 45.251C37.6524 44.9967 37.5922 44.7364 37.514 44.4822C37.4839 44.3792 37.4839 44.2642 37.4598 44.1553C37.3937 43.8465 37.3756 43.5438 37.3877 43.223ZM40.7746 47.2669C40.7926 47.2366 40.7866 47.2124 40.7866 47.1882C40.7866 46.9097 40.7866 46.6312 40.7866 46.3588C40.7866 44.9241 40.7866 43.4954 40.7866 42.0607C40.7866 42.0123 40.7926 41.982 40.8528 41.982C41.2919 41.982 41.7311 41.982 42.1702 41.988C42.2304 41.988 42.2544 41.9759 42.2484 41.9093C42.2484 41.3464 42.2484 40.7773 42.2484 40.2143C42.2484 39.8208 42.2484 39.4334 42.2484 39.0399C42.2484 38.943 42.2484 38.943 42.3507 38.937C42.4048 38.937 42.465 38.943 42.5191 38.9249C42.5492 38.9188 42.5913 38.937 42.5973 38.9854C42.5973 39.046 42.6094 39.1004 42.6094 39.1549C42.6094 40.069 42.6094 40.9831 42.6094 41.9033C42.6094 41.9638 42.6274 41.982 42.6876 41.9759C43.1267 41.9759 43.5659 41.9759 44.005 41.9699C44.0652 41.9699 44.0832 41.982 44.0832 42.0425C44.0832 43.6831 44.0832 45.3236 44.0832 46.9581C44.0832 47.1579 44.0832 47.3637 44.0832 47.5635C44.0832 47.6119 44.0953 47.6301 44.1494 47.6119C44.2216 47.5877 44.2938 47.5756 44.36 47.5453C44.4863 47.4908 44.6187 47.4424 44.745 47.3758C44.8894 47.2971 45.0398 47.2305 45.1841 47.1458C45.3586 47.0429 45.515 46.9278 45.6774 46.8007C45.7737 46.7281 45.8639 46.6554 45.8218 46.5101C45.8218 46.5041 45.8218 46.498 45.8218 46.4859C45.8218 44.0705 45.8278 41.649 45.8278 39.2336C45.8278 38.4769 45.8278 37.7202 45.8278 36.9635C45.8278 36.8666 45.8278 36.8666 45.9241 36.8666C46.3452 36.8666 46.7723 36.8666 47.1934 36.8666C47.2656 36.8666 47.2897 36.8424 47.2897 36.7698C47.2837 36.2734 47.2897 35.7709 47.2897 35.2745C47.2897 34.8205 47.2897 34.3665 47.2897 33.9124C47.2897 33.8398 47.3137 33.8216 47.3799 33.8216C47.4461 33.8277 47.5123 33.8277 47.5724 33.8216C47.6266 33.8156 47.6386 33.8398 47.6386 33.8882C47.6386 34.8326 47.6386 35.777 47.6386 36.7274C47.6386 36.7577 47.6446 36.7879 47.6326 36.8122C47.6085 36.8666 47.6386 36.8666 47.6747 36.8666C47.783 36.8666 47.8973 36.8666 48.0056 36.8666C48.3424 36.8666 48.6793 36.8666 49.0102 36.8666C49.0704 36.8666 49.0944 36.8848 49.0944 36.9453C49.0884 37.024 49.0884 37.1088 49.0884 37.1875C49.0884 39.1852 49.0884 41.1769 49.0884 43.1746C49.0884 43.1988 49.0884 43.2169 49.0944 43.2412C49.1125 43.2896 49.1245 43.2956 49.1606 43.2593C49.2328 43.1806 49.305 43.108 49.3772 43.0353C49.7622 42.6358 50.1532 42.2362 50.5382 41.8367C51.0135 41.3464 51.4887 40.856 51.97 40.3657C52.0061 40.3293 52.0181 40.287 52.0181 40.2385C52.0181 39.5121 52.0181 38.7796 52.0181 38.0532C52.0181 37.9926 52 37.9745 51.9399 37.9745C51.5188 37.9805 51.0977 37.9745 50.6766 37.9745C50.5623 37.9745 50.5563 37.9987 50.5563 37.8594C50.5563 35.6922 50.5563 33.519 50.5563 31.3517C50.5563 31.2973 50.5322 31.2488 50.5382 31.1943C50.5683 31.0188 50.5502 30.8372 50.5502 30.6616C50.5502 30.5405 50.5442 30.5405 50.4299 30.5466C50.4119 30.5466 50.3878 30.5466 50.3698 30.5466C50.2434 30.5587 50.1171 30.5587 49.9908 30.5829C49.714 30.6374 49.4373 30.71 49.1666 30.813C48.8538 30.928 48.559 31.0793 48.2883 31.267C47.9514 31.497 47.6566 31.7876 47.3679 32.0782C47.1212 32.3264 46.8866 32.5746 46.64 32.8228C46.5377 32.9257 46.4354 33.0226 46.3392 33.1255C46.0384 33.4403 45.7376 33.7611 45.4368 34.0819C45.3646 34.1606 45.2924 34.2514 45.2142 34.3241C45.0518 34.4815 44.9014 34.6449 44.739 34.8023C44.2998 35.2382 43.8607 35.6801 43.4456 36.1402C43.1989 36.4126 42.9402 36.6669 42.6816 36.9272C42.2484 37.3691 41.8033 37.805 41.3761 38.2529C40.943 38.707 40.5159 39.161 40.0767 39.609C39.7639 39.9298 39.4451 40.2446 39.2044 40.632C39.03 40.9044 38.8736 41.189 38.7532 41.4916C38.5968 41.8851 38.5006 42.2907 38.4585 42.7084C38.4103 43.1746 38.4164 43.6407 38.5126 44.1008C38.5788 44.4156 38.669 44.7243 38.7833 45.027C38.8435 45.1904 38.9337 45.3418 39.0179 45.4931C39.4451 46.2559 40.0226 46.8431 40.7746 47.2669ZM53.8168 31.8179C53.8108 31.8542 53.8108 31.8724 53.8108 31.8905C53.8108 32.8591 53.8108 33.8216 53.8108 34.7902C53.8108 35.8254 53.8108 36.8606 53.8108 37.9018C53.8108 37.9684 53.7988 37.9987 53.7206 37.9987C53.2874 37.9926 52.8603 37.9987 52.4272 37.9987C52.361 37.9987 52.3429 38.0229 52.3429 38.0834C52.3429 38.6767 52.3429 39.276 52.3429 39.8693C52.3429 39.8995 52.3429 39.9298 52.3429 39.9601C52.4994 39.8087 52.6498 39.6634 52.8002 39.5121C53.0468 39.2578 53.2934 39.0036 53.5401 38.7493C53.8409 38.4406 54.1477 38.1379 54.3883 37.7747C54.8636 37.0604 55.1162 36.2673 55.1704 35.4138C55.2005 34.9234 55.1463 34.4391 55.026 33.9609C54.8997 33.4584 54.6951 32.9923 54.4064 32.5625C54.2439 32.2901 54.0394 32.0661 53.8168 31.8179Z" fill="url(#paint10_linear_622_4147)"/>
</g>
<g filter="url(#filter4_d_622_4147)">
<path d="M36.5232 45.7742C36.4572 45.7501 36.4213 45.702 36.3913 45.66C36.2833 45.5157 36.1514 45.3894 36.0314 45.2571C35.8875 45.0948 35.7376 44.9325 35.5816 44.7762C35.2818 44.4695 34.9819 44.1629 34.682 43.8563C34.5081 43.6759 34.3342 43.5015 34.1602 43.3272C34.0163 43.1829 33.8844 43.0266 33.7404 42.8883C33.6744 42.8222 33.6145 42.744 33.5305 42.6899C33.4585 42.6478 33.4345 42.5576 33.3686 42.4975C33.1767 42.3231 33.0087 42.1307 32.8168 41.9564C32.6669 41.8181 32.5469 41.6437 32.397 41.5055C32.301 41.4213 32.2171 41.3191 32.1151 41.2409C32.0671 41.2109 32.0491 41.1447 32.0072 41.1026C31.8092 40.9102 31.6113 40.7239 31.4254 40.5194C31.1735 40.2369 30.8976 39.9783 30.6457 39.6958C30.4598 39.4913 30.2559 39.2989 30.064 39.1005C29.7821 38.8059 29.5242 38.4873 29.3023 38.1446C29.1944 37.9762 29.1104 37.7959 29.0144 37.6215C28.9245 37.4592 28.8705 37.2848 28.7985 37.1225C28.7026 36.9181 28.6726 36.7016 28.6066 36.4912C28.5646 36.3469 28.5466 36.1966 28.5167 36.0523C28.4447 35.6495 28.4627 35.2467 28.4507 34.8378C28.4507 34.7296 28.4627 34.6214 28.4567 34.5132C28.4567 34.429 28.4927 34.3388 28.5047 34.2486C28.5167 34.1945 28.5107 34.1344 28.5167 34.0803C28.5287 33.9901 28.5586 33.9059 28.5826 33.8157C28.6546 33.5091 28.7506 33.2145 28.8645 32.9199C28.9305 32.7455 28.9964 32.5652 29.0984 32.4089C29.2303 32.2044 29.3503 31.988 29.4942 31.7956C29.6382 31.5972 29.7821 31.3988 29.956 31.2244C30.106 31.0681 30.2619 30.9178 30.4298 30.7735C30.6997 30.533 30.9936 30.3226 31.3115 30.1482C31.5034 30.046 31.7013 29.9498 31.8992 29.8596C32.0431 29.7935 32.1871 29.7394 32.343 29.7033C32.463 29.6733 32.5709 29.6191 32.6969 29.6071C32.8888 29.5891 33.0687 29.541 33.2546 29.5109C33.5245 29.4749 33.7944 29.4749 34.0643 29.4749C34.1722 29.4749 34.2802 29.4749 34.3821 29.4809C34.4901 29.4869 34.598 29.5049 34.706 29.523C34.8559 29.547 35.0059 29.6071 35.1618 29.6131C35.2997 29.6191 35.4137 29.6913 35.5396 29.7214C35.7795 29.7755 35.9954 29.8897 36.2173 29.9859C36.4872 30.1061 36.7331 30.2565 36.973 30.4248C37.1469 30.545 37.3269 30.6653 37.4888 30.8096C37.6028 30.9118 37.7107 31.02 37.8127 31.1282C38.1485 31.4709 38.4844 31.8136 38.8202 32.1563C39.1861 32.5351 39.5519 32.9199 39.9238 33.2927C40.3796 33.7496 40.8174 34.2306 41.2792 34.6815C41.2972 34.6995 41.3152 34.7176 41.3332 34.7356C41.3571 34.7597 41.3511 34.7837 41.3272 34.8078C41.1592 34.9761 40.9973 35.1384 40.8294 35.3068C40.7754 35.3669 40.7094 35.421 40.6614 35.4811C40.6195 35.5292 40.5895 35.5052 40.5595 35.4811C40.4275 35.3489 40.2836 35.2226 40.1697 35.0723C40.0497 34.922 39.8938 34.8138 39.7858 34.6575C39.7378 34.5913 39.6659 34.5432 39.6119 34.4831C39.384 34.2486 39.1621 34.0021 38.9282 33.7797C38.7183 33.5752 38.5204 33.3528 38.3104 33.1424C38.1665 32.9981 38.0106 32.8658 37.8786 32.7095C37.6987 32.493 37.4948 32.3066 37.3029 32.1022C37.093 31.8798 36.8831 31.6573 36.6372 31.4709C36.4932 31.3627 36.3433 31.2545 36.1814 31.1643C36.0494 31.0861 35.9115 31.02 35.7795 30.9479C35.6536 30.8817 35.5216 30.8276 35.3837 30.7855C35.2698 30.7495 35.1498 30.7074 35.0299 30.6773C34.8439 30.6292 34.658 30.5992 34.4721 30.5691C34.3761 30.5511 34.2802 30.5571 34.1842 30.5511C34.1242 30.545 34.1123 30.5691 34.1123 30.6232C34.1123 30.8096 34.1123 30.996 34.1123 31.1763C34.1123 31.7595 34.1123 32.3427 34.1123 32.9259C34.1123 34.3268 34.1182 35.7337 34.1123 37.1345C34.1123 37.375 34.1242 37.6155 34.1183 37.862C34.1183 37.9101 34.1123 37.9402 34.0463 37.9402C33.6145 37.9402 33.1827 37.9402 32.7508 37.9402C32.6789 37.9402 32.6609 37.9642 32.6609 38.0544C32.6609 38.6977 32.6609 39.335 32.6609 39.9783C32.6609 40.0565 32.6669 40.1347 32.6549 40.2128C32.6489 40.2429 32.6609 40.2609 32.6789 40.285C33.0867 40.6998 33.4945 41.1147 33.9023 41.5355C34.3462 41.9925 34.79 42.4494 35.2338 42.9063C35.3417 43.0145 35.4557 43.1168 35.5696 43.225C35.5696 43.0446 35.5696 42.8582 35.5696 42.6718C35.5696 40.7539 35.5696 38.842 35.5696 36.9241C35.5696 36.858 35.5936 36.8399 35.6536 36.8399C36.0854 36.8399 36.5172 36.8399 36.949 36.8399C37.021 36.8399 37.033 36.8159 37.033 36.7497C37.033 35.8058 37.033 34.8679 37.033 33.924C37.033 33.8157 37.033 33.8157 37.141 33.8157C37.1889 33.8157 37.2429 33.8217 37.2909 33.8157C37.3569 33.8097 37.3808 33.8338 37.3808 33.9059C37.3808 34.2486 37.3808 34.5913 37.3808 34.934C37.3808 35.5473 37.3808 36.1545 37.3808 36.7678C37.3808 36.8339 37.4048 36.858 37.4648 36.8339C37.5068 36.8159 37.5488 36.8399 37.5848 36.8399C37.9746 36.8399 38.3584 36.8399 38.7483 36.8399C38.8142 36.8399 38.8502 36.858 38.8322 36.9301C38.8082 37.0684 38.8202 37.2067 38.8202 37.3389C38.8202 37.375 38.8082 37.3991 38.7842 37.4231C38.6463 37.5554 38.5264 37.6937 38.3884 37.8259C38.2385 37.9762 38.0885 38.1265 37.9386 38.2829C37.7707 38.4512 37.6207 38.6316 37.4768 38.818C37.3749 38.9502 37.2789 39.0825 37.1889 39.2208C37.033 39.4553 36.8831 39.6958 36.7631 39.9543C36.6492 40.1948 36.5412 40.4413 36.4512 40.6938C36.3733 40.9163 36.2893 41.1327 36.2413 41.3612C36.1994 41.5656 36.1454 41.764 36.1154 41.9684C36.0974 42.1067 36.0854 42.245 36.0674 42.3833C36.0434 42.5696 36.0374 42.75 36.0254 42.9364C36.0134 43.1107 36.0074 43.2851 36.0314 43.4595C36.0434 43.5436 36.0374 43.6338 36.0434 43.718C36.0614 43.8863 36.0794 44.0547 36.1034 44.217C36.1454 44.5176 36.2233 44.8122 36.3013 45.1008C36.3433 45.2571 36.3913 45.4074 36.4572 45.5517C36.4752 45.6239 36.5112 45.69 36.5232 45.7742ZM32.283 39.8521C32.283 39.8401 32.289 39.834 32.289 39.828C32.289 39.2388 32.289 38.6496 32.289 38.0604C32.289 37.9101 32.289 37.9161 32.1451 37.9221C31.7313 37.9402 31.3235 37.9281 30.9096 37.9281C30.8557 37.9281 30.8317 37.9101 30.8317 37.85C30.8317 35.884 30.8317 33.9119 30.8317 31.9459C30.8317 31.9098 30.8497 31.8557 30.8197 31.8437C30.7897 31.8317 30.7717 31.8858 30.7477 31.9098C30.4778 32.1684 30.2679 32.475 30.082 32.7936C29.8301 33.2325 29.6682 33.7015 29.5662 34.1945C29.4702 34.6575 29.4642 35.1264 29.5002 35.5954C29.5182 35.8238 29.5722 36.0463 29.6202 36.2688C29.7401 36.7678 29.956 37.2307 30.2379 37.6576C30.4718 38.0183 30.7657 38.325 31.0716 38.6316C31.2395 38.8059 31.4074 38.9803 31.5753 39.1547C31.7793 39.3591 31.9832 39.5635 32.1811 39.7739C32.2111 39.804 32.2411 39.834 32.283 39.8521Z" fill="url(#paint11_linear_622_4147)"/>
</g>
<g filter="url(#filter5_d_622_4147)">
<path d="M20.3711 57.0098C20.3711 57.0098 30.2289 60.2183 42.1937 60.2183C54.1584 60.2183 64.1667 57.0098 64.1667 57.0098V45.9032C64.1667 45.9032 51.0178 50.2337 42.1937 50.2224C33.4267 50.2112 20.3711 45.9032 20.3711 45.9032V57.0098Z" fill="url(#paint12_linear_622_4147)"/>
</g>
<g filter="url(#filter6_d_622_4147)">
<path d="M44.1003 20.4708C43.3838 21.7117 41.5928 21.7117 40.8764 20.4708C40.1599 19.23 41.0555 17.6789 42.4883 17.6789C43.9212 17.6789 44.8167 19.23 44.1003 20.4708Z" fill="url(#paint13_linear_622_4147)"/>
</g>
<g filter="url(#filter7_d_622_4147)">
<path d="M44.1003 66.0182C43.3838 67.2591 41.5928 67.2591 40.8764 66.0182C40.1599 64.7773 41.0555 63.2262 42.4883 63.2262C43.9212 63.2262 44.8167 64.7773 44.1003 66.0182Z" fill="url(#paint14_linear_622_4147)"/>
</g>
<g filter="url(#filter8_d_622_4147)">
<path d="M63.9818 29.9791C64.8081 31.1497 64.0574 32.7758 62.6305 32.9062C61.2036 33.0365 60.1707 31.5733 60.7713 30.2724C61.3718 28.9715 63.1555 28.8086 63.9818 29.9791Z" fill="url(#paint15_linear_622_4147)"/>
</g>
<g filter="url(#filter9_d_622_4147)">
<path d="M24.3441 29.9791C25.1704 31.1497 24.4197 32.7758 22.9928 32.9062C21.5659 33.0365 20.533 31.5733 21.1336 30.2724C21.7342 28.9715 23.5178 28.8086 24.3441 29.9791Z" fill="url(#paint16_linear_622_4147)"/>
</g>
</g>
<defs>
<filter id="filter0_d_622_4147" x="0.0362301" y="0.4" width="85.595" height="81.2" filterUnits="userSpaceOnUse" color-interpolation-filters="sRGB">
<feFlood flood-opacity="0" result="BackgroundImageFix"/>
<feColorMatrix in="SourceAlpha" type="matrix" values="0 0 0 0 0 0 0 0 0 0 0 0 0 0 0 0 0 0 127 0" result="hardAlpha"/>
<feOffset/>
<feGaussianBlur stdDeviation="5.3"/>
<feComposite in2="hardAlpha" operator="out"/>
<feColorMatrix type="matrix" values="0 0 0 0 0.831373 0 0 0 0 0.14902 0 0 0 0 0.333333 0 0 0 0.3 0"/>
<feBlend mode="normal" in2="BackgroundImageFix" result="effect1_dropShadow_622_4147"/>
<feBlend mode="normal" in="SourceGraphic" in2="effect1_dropShadow_622_4147" result="shape"/>
</filter>
<filter id="filter1_d_622_4147" x="9.57773" y="1.9" width="66.8367" height="70.2" filterUnits="userSpaceOnUse" color-interpolation-filters="sRGB">
<feFlood flood-opacity="0" result="BackgroundImageFix"/>
<feColorMatrix in="SourceAlpha" type="matrix" values="0 0 0 0 0 0 0 0 0 0 0 0 0 0 0 0 0 0 127 0" result="hardAlpha"/>
<feOffset dy="-4"/>
<feGaussianBlur stdDeviation="2.55"/>
<feComposite in2="hardAlpha" operator="out"/>
<feColorMatrix type="matrix" values="0 0 0 0 0 0 0 0 0 0 0 0 0 0 0 0 0 0 0.25 0"/>
<feBlend mode="normal" in2="BackgroundImageFix" result="effect1_dropShadow_622_4147"/>
<feBlend mode="normal" in="SourceGraphic" in2="effect1_dropShadow_622_4147" result="shape"/>
</filter>
<filter id="filter2_i_622_4147" x="21.7891" y="22.3414" width="42.9609" height="42.557" filterUnits="userSpaceOnUse" color-interpolation-filters="sRGB">
<feFlood flood-opacity="0" result="BackgroundImageFix"/>
<feBlend mode="normal" in="SourceGraphic" in2="BackgroundImageFix" result="shape"/>
<feColorMatrix in="SourceAlpha" type="matrix" values="0 0 0 0 0 0 0 0 0 0 0 0 0 0 0 0 0 0 127 0" result="hardAlpha"/>
<feOffset dx="2" dy="1"/>
<feGaussianBlur stdDeviation="1"/>
<feComposite in2="hardAlpha" operator="arithmetic" k2="-1" k3="1"/>
<feColorMatrix type="matrix" values="0 0 0 0 0 0 0 0 0 0 0 0 0 0 0 0 0 0 0.25 0"/>
<feBlend mode="normal" in2="shape" result="effect1_innerShadow_622_4147"/>
</filter>
<filter id="filter3_d_622_4147" x="36.7794" y="29.4751" width="22.0501" height="23.0175" filterUnits="userSpaceOnUse" color-interpolation-filters="sRGB">
<feFlood flood-opacity="0" result="BackgroundImageFix"/>
<feColorMatrix in="SourceAlpha" type="matrix" values="0 0 0 0 0 0 0 0 0 0 0 0 0 0 0 0 0 0 127 0" result="hardAlpha"/>
<feOffset dx="1" dy="2"/>
<feGaussianBlur stdDeviation="0.8"/>
<feComposite in2="hardAlpha" operator="out"/>
<feColorMatrix type="matrix" values="0 0 0 0 0 0 0 0 0 0 0 0 0 0 0 0 0 0 0.25 0"/>
<feBlend mode="normal" in2="BackgroundImageFix" result="effect1_dropShadow_622_4147"/>
<feBlend mode="normal" in="SourceGraphic" in2="effect1_dropShadow_622_4147" result="shape"/>
</filter>
<filter id="filter4_d_622_4147" x="27.8507" y="29.4749" width="16.0979" height="19.8993" filterUnits="userSpaceOnUse" color-interpolation-filters="sRGB">
<feFlood flood-opacity="0" result="BackgroundImageFix"/>
<feColorMatrix in="SourceAlpha" type="matrix" values="0 0 0 0 0 0 0 0 0 0 0 0 0 0 0 0 0 0 127 0" result="hardAlpha"/>
<feOffset dx="1" dy="2"/>
<feGaussianBlur stdDeviation="0.8"/>
<feComposite in2="hardAlpha" operator="out"/>
<feColorMatrix type="matrix" values="0 0 0 0 0 0 0 0 0 0 0 0 0 0 0 0 0 0 0.25 0"/>
<feBlend mode="normal" in2="BackgroundImageFix" result="effect1_dropShadow_622_4147"/>
<feBlend mode="normal" in="SourceGraphic" in2="effect1_dropShadow_622_4147" result="shape"/>
</filter>
<filter id="filter5_d_622_4147" x="20.3711" y="45.6032" width="47.0959" height="16.9151" filterUnits="userSpaceOnUse" color-interpolation-filters="sRGB">
<feFlood flood-opacity="0" result="BackgroundImageFix"/>
<feColorMatrix in="SourceAlpha" type="matrix" values="0 0 0 0 0 0 0 0 0 0 0 0 0 0 0 0 0 0 127 0" result="hardAlpha"/>
<feOffset dx="2" dy="1"/>
<feGaussianBlur stdDeviation="0.65"/>
<feComposite in2="hardAlpha" operator="out"/>
<feColorMatrix type="matrix" values="0 0 0 0 0 0 0 0 0 0 0 0 0 0 0 0 0 0 0.25 0"/>
<feBlend mode="normal" in2="BackgroundImageFix" result="effect1_dropShadow_622_4147"/>
<feBlend mode="normal" in="SourceGraphic" in2="effect1_dropShadow_622_4147" result="shape"/>
</filter>
<filter id="filter6_d_622_4147" x="34.324" y="11.3788" width="16.3285" height="16.3227" filterUnits="userSpaceOnUse" color-interpolation-filters="sRGB">
<feFlood flood-opacity="0" result="BackgroundImageFix"/>
<feColorMatrix in="SourceAlpha" type="matrix" values="0 0 0 0 0 0 0 0 0 0 0 0 0 0 0 0 0 0 127 0" result="hardAlpha"/>
<feOffset/>
<feGaussianBlur stdDeviation="3.15"/>
<feComposite in2="hardAlpha" operator="out"/>
<feColorMatrix type="matrix" values="0 0 0 0 1 0 0 0 0 1 0 0 0 0 1 0 0 0 0.25 0"/>
<feBlend mode="normal" in2="BackgroundImageFix" result="effect1_dropShadow_622_4147"/>
<feBlend mode="normal" in="SourceGraphic" in2="effect1_dropShadow_622_4147" result="shape"/>
</filter>
<filter id="filter7_d_622_4147" x="34.324" y="56.9262" width="16.3285" height="16.3227" filterUnits="userSpaceOnUse" color-interpolation-filters="sRGB">
<feFlood flood-opacity="0" result="BackgroundImageFix"/>
<feColorMatrix in="SourceAlpha" type="matrix" values="0 0 0 0 0 0 0 0 0 0 0 0 0 0 0 0 0 0 127 0" result="hardAlpha"/>
<feOffset/>
<feGaussianBlur stdDeviation="3.15"/>
<feComposite in2="hardAlpha" operator="out"/>
<feColorMatrix type="matrix" values="0 0 0 0 1 0 0 0 0 1 0 0 0 0 1 0 0 0 0.25 0"/>
<feBlend mode="normal" in2="BackgroundImageFix" result="effect1_dropShadow_622_4147"/>
<feBlend mode="normal" in="SourceGraphic" in2="effect1_dropShadow_622_4147" result="shape"/>
</filter>
<filter id="filter8_d_622_4147" x="54.2967" y="22.891" width="16.3285" height="16.3233" filterUnits="userSpaceOnUse" color-interpolation-filters="sRGB">
<feFlood flood-opacity="0" result="BackgroundImageFix"/>
<feColorMatrix in="SourceAlpha" type="matrix" values="0 0 0 0 0 0 0 0 0 0 0 0 0 0 0 0 0 0 127 0" result="hardAlpha"/>
<feOffset/>
<feGaussianBlur stdDeviation="3.15"/>
<feComposite in2="hardAlpha" operator="out"/>
<feColorMatrix type="matrix" values="0 0 0 0 1 0 0 0 0 1 0 0 0 0 1 0 0 0 0.25 0"/>
<feBlend mode="normal" in2="BackgroundImageFix" result="effect1_dropShadow_622_4147"/>
<feBlend mode="normal" in="SourceGraphic" in2="effect1_dropShadow_622_4147" result="shape"/>
</filter>
<filter id="filter9_d_622_4147" x="14.6595" y="22.891" width="16.3275" height="16.3233" filterUnits="userSpaceOnUse" color-interpolation-filters="sRGB">
<feFlood flood-opacity="0" result="BackgroundImageFix"/>
<feColorMatrix in="SourceAlpha" type="matrix" values="0 0 0 0 0 0 0 0 0 0 0 0 0 0 0 0 0 0 127 0" result="hardAlpha"/>
<feOffset/>
<feGaussianBlur stdDeviation="3.15"/>
<feComposite in2="hardAlpha" operator="out"/>
<feColorMatrix type="matrix" values="0 0 0 0 1 0 0 0 0 1 0 0 0 0 1 0 0 0 0.25 0"/>
<feBlend mode="normal" in2="BackgroundImageFix" result="effect1_dropShadow_622_4147"/>
<feBlend mode="normal" in="SourceGraphic" in2="effect1_dropShadow_622_4147" result="shape"/>
</filter>
<linearGradient id="paint0_linear_622_4147" x1="47.763" y1="11.2248" x2="45.4749" y2="22.9167" gradientUnits="userSpaceOnUse">
<stop stop-color="#EC5871"/>
<stop offset="1" stop-color="#AA0D3C"/>
</linearGradient>
<linearGradient id="paint1_linear_622_4147" x1="45.1655" y1="16.4634" x2="38.3378" y2="29.7136" gradientUnits="userSpaceOnUse">
<stop stop-color="#FD7984"/>
<stop offset="1" stop-color="#CB144B"/>
</linearGradient>
<linearGradient id="paint2_linear_622_4147" x1="79.6345" y1="24.3578" x2="69.3425" y2="21.511" gradientUnits="userSpaceOnUse">
<stop stop-color="#B43250"/>
<stop offset="1" stop-color="#7A0729"/>
</linearGradient>
<linearGradient id="paint3_linear_622_4147" x1="77.0075" y1="39.6856" x2="66.7156" y2="36.8389" gradientUnits="userSpaceOnUse">
<stop stop-color="#B2314F"/>
<stop offset="1" stop-color="#730B2A"/>
</linearGradient>
<linearGradient id="paint4_linear_622_4147" x1="78.7595" y1="31.3645" x2="68.4675" y2="28.5178" gradientUnits="userSpaceOnUse">
<stop stop-color="#EF5C74"/>
<stop offset="1" stop-color="#7E0C2E"/>
</linearGradient>
<linearGradient id="paint5_linear_622_4147" x1="13.9419" y1="21.0729" x2="19.6353" y2="38.1532" gradientUnits="userSpaceOnUse">
<stop stop-color="#FF9FA7"/>
<stop offset="1" stop-color="#CA144B"/>
</linearGradient>
<linearGradient id="paint6_linear_622_4147" x1="16.5698" y1="35.0872" x2="22.2632" y2="52.1675" gradientUnits="userSpaceOnUse">
<stop stop-color="#FD7984"/>
<stop offset="1" stop-color="#CB144B"/>
</linearGradient>
<linearGradient id="paint7_linear_622_4147" x1="14.8173" y1="27.6418" x2="20.5108" y2="44.7221" gradientUnits="userSpaceOnUse">
<stop stop-color="#F16277"/>
<stop offset="1" stop-color="#CB144B"/>
</linearGradient>
<linearGradient id="paint8_linear_622_4147" x1="30.8053" y1="17.5693" x2="56.4567" y2="20.0535" gradientUnits="userSpaceOnUse">
<stop stop-color="#FD7984"/>
<stop offset="1" stop-color="#AA0D3C"/>
</linearGradient>
<linearGradient id="paint9_linear_622_4147" x1="31.5474" y1="19.412" x2="56.0839" y2="20.741" gradientUnits="userSpaceOnUse">
<stop stop-color="#FD7984"/>
<stop offset="1" stop-color="#CB144B"/>
</linearGradient>
<linearGradient id="paint10_linear_622_4147" x1="41.8703" y1="29.4751" x2="53.1575" y2="30.1282" gradientUnits="userSpaceOnUse">
<stop stop-color="#FD94A1"/>
<stop offset="1" stop-color="#E9386D"/>
</linearGradient>
<linearGradient id="paint11_linear_622_4147" x1="31.5234" y1="29.4749" x2="37.5036" y2="17.0687" gradientUnits="userSpaceOnUse">
<stop stop-color="#FF9FA7"/>
<stop offset="0.9999" stop-color="#1C6A8B"/>
<stop offset="1" stop-color="#1A6889"/>
<stop offset="1" stop-color="#216F91"/>
<stop offset="1" stop-color="#0A8593"/>
</linearGradient>
<linearGradient id="paint12_linear_622_4147" x1="42.4083" y1="61.1459" x2="42.8352" y2="50.7971" gradientUnits="userSpaceOnUse">
<stop stop-color="#CC164C"/>
<stop offset="0.994792" stop-color="#E74D6B"/>
</linearGradient>
<linearGradient id="paint13_linear_622_4147" x1="44.4372" y1="23.2628" x2="39.9801" y2="22.9972" gradientUnits="userSpaceOnUse">
<stop offset="0.0001" stop-color="#AA0D3C"/>
<stop offset="1" stop-color="#FF9FA7"/>
</linearGradient>
<linearGradient id="paint14_linear_622_4147" x1="44.4372" y1="68.8102" x2="39.9801" y2="68.5445" gradientUnits="userSpaceOnUse">
<stop stop-color="#CB144B"/>
<stop offset="1" stop-color="#FF9FA7"/>
</linearGradient>
<linearGradient id="paint15_linear_622_4147" x1="64.7826" y1="25.4635" x2="67.0661" y2="30.442" gradientUnits="userSpaceOnUse">
<stop stop-color="#FF9FA7"/>
<stop offset="1" stop-color="#AA0D3C"/>
</linearGradient>
<linearGradient id="paint16_linear_622_4147" x1="25.1449" y1="25.4635" x2="27.4284" y2="30.442" gradientUnits="userSpaceOnUse">
<stop stop-color="#FF9FA7"/>
<stop offset="1" stop-color="#AA0D3C"/>
</linearGradient>
</defs>
</svg>
