<svg width="56" height="53" viewBox="0 0 56 53" fill="none" xmlns="http://www.w3.org/2000/svg">
<path d="M19.8088 5.31284L11.1275 10.9078C6.84252 13.6695 4.25342 18.4183 4.25342 23.5162V34.1896C4.25342 40.622 8.35454 46.3383 14.4478 48.399L23.177 51.3512C26.3368 52.4198 29.7626 52.4048 32.9129 51.3084L41.1093 48.4558C47.1384 46.3575 51.1789 40.6731 51.1789 34.2892V23.3889C51.1789 18.3609 48.6598 13.6674 44.4696 10.8883L36.2254 5.42058C31.2602 2.12755 24.8168 2.08526 19.8088 5.31284Z" fill="url(#paint0_linear_143_13060)"/>
<g filter="url(#filter0_i_143_13060)">
<path d="M19.7785 7.30112L12.6378 11.9103C8.35781 14.6729 5.77246 19.4189 5.77246 24.513V32.6809C5.77246 39.4183 10.2646 45.3291 16.756 47.1331L23.9561 49.1342C26.6208 49.8747 29.4382 49.8642 32.0972 49.1037L38.7853 47.191C45.2229 45.3498 49.6607 39.4649 49.6607 32.7692V24.3857C49.6607 19.3615 47.1453 14.6709 42.9602 11.891L36.2127 7.40903C31.2435 4.10827 24.7907 4.0659 19.7785 7.30112Z" fill="url(#paint1_linear_143_13060)"/>
</g>
<g filter="url(#filter1_d_143_13060)">
<path d="M22.4859 27.487C22.4666 27.3119 22.4859 27.1238 22.4795 26.9292C22.4795 26.8319 22.4988 26.7216 22.531 26.6178C22.5568 26.5205 22.5568 26.4167 22.5761 26.3259C22.6148 26.1508 22.6664 25.9822 22.7051 25.807C22.7695 25.5216 22.892 25.2557 23.0016 24.9833C23.1111 24.7044 23.2658 24.4449 23.4205 24.1855C23.5688 23.9325 23.7493 23.7055 23.9426 23.4785C24.2134 23.1736 24.5034 22.8817 24.7806 22.5833C24.974 22.3758 25.1738 22.1812 25.3671 21.9801C25.741 21.6039 26.1213 21.2277 26.4823 20.8385C26.869 20.4299 27.2622 20.0342 27.6554 19.6256C27.8294 19.444 28.0228 19.2753 28.1904 19.0807C28.4675 18.7564 28.7834 18.471 29.0799 18.1662C29.2475 17.9975 29.4151 17.8289 29.5762 17.6538C29.963 17.2321 30.3884 16.8495 30.7751 16.4214C31.0974 16.0646 31.4519 15.7338 31.7806 15.3835C32.032 15.1176 32.2834 14.8582 32.5283 14.5987C32.7411 14.3782 32.9731 14.1901 33.2052 13.9955C33.4372 13.8009 33.6886 13.6452 33.9464 13.4895C34.2236 13.3274 34.5265 13.1977 34.8295 13.0874C34.9648 13.042 35.0938 12.9771 35.2291 12.9512C35.3451 12.9317 35.4547 12.8928 35.5707 12.8798C35.7512 12.8604 35.9252 12.8215 36.1057 12.7955C36.3764 12.7566 36.6536 12.7566 36.9243 12.7566C37.2724 12.7566 37.614 12.8085 37.9492 12.8733C38.3231 12.9447 38.684 13.0485 39.0256 13.2041C39.3608 13.3533 39.6896 13.5349 39.9989 13.7425C40.3535 13.989 40.6822 14.2679 40.9851 14.5792C41.2559 14.8517 41.475 15.163 41.6942 15.4744C41.9713 15.883 42.1712 16.337 42.3387 16.804C42.4806 17.2062 42.5708 17.6148 42.6224 18.0364C42.6481 18.2764 42.6804 18.5164 42.6739 18.7629C42.6675 19.0159 42.6739 19.2688 42.6353 19.5218C42.5901 19.8137 42.5515 20.1121 42.4741 20.3975C42.3774 20.7477 42.2614 21.0915 42.1067 21.4158C41.8424 21.9996 41.4944 22.5185 41.0625 22.992C40.766 23.3228 40.4501 23.6406 40.1408 23.952C39.8249 24.2633 39.522 24.5876 39.2255 24.9119C39.0965 25.0546 38.9676 25.1973 38.8194 25.3206C38.7356 25.3984 38.6582 25.4892 38.5809 25.567C38.5229 25.6254 38.4649 25.6773 38.4069 25.7357C38.0846 26.073 37.7558 26.3973 37.44 26.7411C37.266 26.9292 37.0919 27.1173 36.9179 27.2989C36.6214 27.6037 36.3249 27.9086 36.0219 28.2135C35.719 28.5183 35.4096 28.8167 35.1195 29.1345C34.7199 29.5691 34.3009 29.9907 33.8948 30.4253C33.637 30.6977 33.3598 30.9572 33.0956 31.2231C32.8313 31.489 32.567 31.755 32.3027 32.0209C32.1545 32.1701 31.9805 32.2933 31.8193 32.4231C31.5937 32.5982 31.3552 32.7539 31.1038 32.8836C30.7107 33.0847 30.2981 33.2468 29.8727 33.3701C29.6149 33.4414 29.3442 33.4803 29.0799 33.5322C29.009 33.5452 28.9316 33.5452 28.8607 33.5517C28.5127 33.5776 28.1646 33.5452 27.8165 33.5452C27.7134 33.5452 27.6103 33.5128 27.5071 33.4998C27.3847 33.4803 27.2622 33.4479 27.1397 33.422C26.927 33.3766 26.7207 33.3117 26.5145 33.2533C26.2695 33.182 26.0375 33.0652 25.8055 32.9614C25.6508 32.8901 25.5154 32.7863 25.3671 32.7085C25.2447 32.6436 25.1351 32.5658 25.0255 32.4879C24.8773 32.3712 24.729 32.2544 24.5872 32.1377C24.3874 31.969 24.2005 31.7809 24.0264 31.5863C23.9169 31.4566 23.8008 31.3334 23.6977 31.1972C23.5172 30.9572 23.369 30.6977 23.2272 30.4383C23.0918 30.1853 22.9564 29.9323 22.8662 29.6599C22.7695 29.3875 22.7051 29.1086 22.6213 28.8361C22.589 28.7259 22.589 28.6026 22.5633 28.4859C22.4924 28.1551 22.473 27.8308 22.4859 27.487ZM26.1149 31.8198C26.1342 31.7874 26.1277 31.7615 26.1277 31.7355C26.1277 31.4372 26.1277 31.1388 26.1277 30.8469C26.1277 29.3096 26.1277 27.7789 26.1277 26.2416C26.1277 26.1897 26.1342 26.1573 26.1986 26.1573C26.6692 26.1573 27.1397 26.1573 27.6103 26.1638C27.6747 26.1638 27.7005 26.1508 27.6941 26.0795C27.6941 25.4762 27.6941 24.8665 27.6941 24.2633C27.6941 23.8417 27.6941 23.4266 27.6941 23.005C27.6941 22.9012 27.6941 22.9012 27.8036 22.8947C27.8616 22.8947 27.9261 22.9012 27.9841 22.8817C28.0163 22.8752 28.0615 22.8947 28.0679 22.9466C28.0679 23.0114 28.0808 23.0698 28.0808 23.1282C28.0808 24.1076 28.0808 25.0871 28.0808 26.073C28.0808 26.1378 28.1001 26.1573 28.1646 26.1508C28.6351 26.1508 29.1057 26.1508 29.5762 26.1443C29.6407 26.1443 29.66 26.1573 29.66 26.2222C29.66 27.9799 29.66 29.7377 29.66 31.489C29.66 31.7031 29.66 31.9236 29.66 32.1377C29.66 32.1896 29.6729 32.209 29.7309 32.1896C29.8083 32.1636 29.8856 32.1506 29.9565 32.1182C30.0919 32.0598 30.2337 32.0079 30.369 31.9366C30.5237 31.8523 30.6849 31.7809 30.8396 31.6901C31.0265 31.5798 31.1941 31.4566 31.3681 31.3204C31.4712 31.2426 31.5679 31.1647 31.5228 31.0091C31.5228 31.0026 31.5228 30.9961 31.5228 30.9831C31.5228 28.3951 31.5293 25.8006 31.5293 23.2125C31.5293 22.4017 31.5293 21.5909 31.5293 20.7802C31.5293 20.6764 31.5293 20.6764 31.6324 20.6764C32.0836 20.6764 32.5412 20.6764 32.9924 20.6764C33.0698 20.6764 33.0956 20.6504 33.0956 20.5726C33.0891 20.0407 33.0956 19.5023 33.0956 18.9705C33.0956 18.484 33.0956 17.9975 33.0956 17.5111C33.0956 17.4332 33.1214 17.4138 33.1923 17.4138C33.2632 17.4202 33.3341 17.4202 33.3985 17.4138C33.4565 17.4073 33.4694 17.4332 33.4694 17.4851C33.4694 18.497 33.4694 19.5088 33.4694 20.5272C33.4694 20.5596 33.4759 20.592 33.463 20.618C33.4372 20.6764 33.4694 20.6764 33.5081 20.6764C33.6241 20.6764 33.7466 20.6764 33.8626 20.6764C34.2236 20.6764 34.5845 20.6764 34.9391 20.6764C35.0035 20.6764 35.0293 20.6958 35.0293 20.7607C35.0228 20.845 35.0228 20.9358 35.0228 21.0201C35.0228 23.1606 35.0228 25.2946 35.0228 27.4351C35.0228 27.461 35.0228 27.4805 35.0293 27.5065C35.0486 27.5583 35.0615 27.5648 35.1002 27.5259C35.1775 27.4416 35.2549 27.3638 35.3322 27.2859C35.7448 26.8578 36.1637 26.4297 36.5763 26.0016C37.0855 25.4762 37.5947 24.9508 38.1103 24.4255C38.149 24.3865 38.1619 24.3411 38.1619 24.2892C38.1619 23.5109 38.1619 22.726 38.1619 21.9477C38.1619 21.8828 38.1426 21.8634 38.0781 21.8634C37.6269 21.8699 37.1757 21.8634 36.7245 21.8634C36.602 21.8634 36.5956 21.8893 36.5956 21.7401C36.5956 19.418 36.5956 17.0894 36.5956 14.7673C36.5956 14.709 36.5698 14.6571 36.5763 14.5987C36.6085 14.4106 36.5892 14.216 36.5892 14.0279C36.5892 13.8982 36.5827 13.8982 36.4602 13.9047C36.4409 13.9047 36.4151 13.9047 36.3958 13.9047C36.2604 13.9176 36.1251 13.9176 35.9897 13.9436C35.6932 14.002 35.3967 14.0798 35.1066 14.1901C34.7715 14.3133 34.4556 14.4755 34.1656 14.6765C33.8046 14.923 33.4888 15.2344 33.1794 15.5457C32.9151 15.8116 32.6637 16.0776 32.3994 16.3435C32.2899 16.4538 32.1803 16.5576 32.0771 16.6678C31.7549 17.0051 31.4326 17.3489 31.1103 17.6927C31.0329 17.777 30.9556 17.8743 30.8718 17.9521C30.6978 18.1208 30.5366 18.2959 30.3626 18.4645C29.892 18.9316 29.4215 19.4051 28.9768 19.898C28.7125 20.1899 28.4353 20.4623 28.1581 20.7412C27.6941 21.2147 27.2171 21.6817 26.7594 22.1617C26.2953 22.6482 25.8377 23.1347 25.3671 23.6147C25.032 23.9584 24.6903 24.2957 24.4325 24.7109C24.2456 25.0027 24.078 25.3076 23.9491 25.6319C23.7815 26.0535 23.6784 26.4881 23.6332 26.9357C23.5817 27.4351 23.5881 27.9345 23.6913 28.4275C23.7622 28.7648 23.8588 29.0956 23.9813 29.4199C24.0458 29.595 24.1425 29.7572 24.2327 29.9194C24.6903 30.7366 25.3091 31.3658 26.1149 31.8198ZM40.0892 15.2668C40.0827 15.3057 40.0827 15.3252 40.0827 15.3446C40.0827 16.3824 40.0827 17.4138 40.0827 18.4516C40.0827 19.5607 40.0827 20.6699 40.0827 21.7855C40.0827 21.8569 40.0699 21.8893 39.9861 21.8893C39.522 21.8828 39.0643 21.8893 38.6002 21.8893C38.5293 21.8893 38.51 21.9153 38.51 21.9801C38.51 22.6158 38.51 23.2579 38.51 23.8936C38.51 23.926 38.51 23.9584 38.51 23.9909C38.6776 23.8287 38.8387 23.673 38.9999 23.5109C39.2641 23.2385 39.5284 22.966 39.7927 22.6936C40.115 22.3628 40.4437 22.0385 40.7015 21.6493C41.2107 20.8839 41.4815 20.0342 41.5395 19.1197C41.5717 18.5943 41.5137 18.0754 41.3848 17.5629C41.2494 17.0246 41.0303 16.5251 40.7209 16.0646C40.5468 15.7727 40.3277 15.5327 40.0892 15.2668Z" fill="url(#paint2_linear_143_13060)"/>
</g>
<g filter="url(#filter2_d_143_13060)">
<path d="M21.5591 30.2208C21.4884 30.195 21.4499 30.1435 21.4177 30.0984C21.3021 29.9438 21.1607 29.8085 21.0322 29.6668C20.8779 29.4928 20.7173 29.3189 20.5502 29.1514C20.2289 28.8229 19.9076 28.4943 19.5863 28.1658C19.4 27.9725 19.2136 27.7857 19.0273 27.5989C18.873 27.4443 18.7317 27.2768 18.5774 27.1286C18.5067 27.0578 18.4425 26.974 18.3525 26.916C18.2754 26.871 18.2497 26.7743 18.179 26.7099C17.9734 26.5231 17.7935 26.3169 17.5878 26.1301C17.4272 25.982 17.2986 25.7951 17.138 25.647C17.0352 25.5568 16.9452 25.4473 16.836 25.3635C16.7846 25.3313 16.7653 25.2605 16.7203 25.2154C16.5082 25.0092 16.2962 24.8095 16.097 24.5905C15.8271 24.2877 15.5315 24.0107 15.2616 23.7079C15.0624 23.4889 14.8439 23.2828 14.6383 23.0702C14.3362 22.7545 14.0599 22.4131 13.8222 22.0459C13.7065 21.8655 13.6165 21.6723 13.5137 21.4855C13.4173 21.3115 13.3595 21.1247 13.2824 20.9508C13.1796 20.7318 13.1474 20.4998 13.0767 20.2744C13.0318 20.1198 13.0125 19.9587 12.9804 19.8041C12.9032 19.3725 12.9225 18.9409 12.9097 18.5028C12.9097 18.3869 12.9225 18.2709 12.9161 18.155C12.9161 18.0648 12.9546 17.9681 12.9675 17.8715C12.9804 17.8135 12.9739 17.7491 12.9804 17.6911C12.9932 17.5945 13.0253 17.5043 13.051 17.4077C13.1282 17.0792 13.231 16.7635 13.3531 16.4478C13.4238 16.261 13.4944 16.0678 13.6037 15.9003C13.7451 15.6812 13.8736 15.4493 14.0278 15.2432C14.182 15.0306 14.3362 14.818 14.5226 14.6312C14.6833 14.4637 14.8503 14.3027 15.0303 14.1481C15.3194 13.8904 15.6343 13.6649 15.9749 13.4781C16.1805 13.3686 16.3926 13.2655 16.6046 13.1689C16.7589 13.098 16.9131 13.04 17.0802 13.0014C17.2087 12.9692 17.3244 12.9112 17.4593 12.8983C17.6649 12.879 17.8577 12.8275 18.0569 12.7952C18.3461 12.7566 18.6353 12.7566 18.9244 12.7566C19.0401 12.7566 19.1558 12.7566 19.265 12.763C19.3807 12.7695 19.4964 12.7888 19.612 12.8081C19.7727 12.8339 19.9333 12.8983 20.1004 12.9048C20.2482 12.9112 20.3703 12.9885 20.5052 13.0207C20.7623 13.0787 20.9936 13.2011 21.2314 13.3042C21.5206 13.433 21.784 13.594 22.0411 13.7744C22.2274 13.9033 22.4202 14.0321 22.5937 14.1867C22.7158 14.2962 22.8315 14.4122 22.9407 14.5281C23.3006 14.8953 23.6604 15.2625 24.0203 15.6297C24.4123 16.0356 24.8043 16.4478 25.2027 16.8472C25.691 17.3368 26.1601 17.8522 26.655 18.3353C26.6742 18.3547 26.6935 18.374 26.7128 18.3933C26.7385 18.4191 26.7321 18.4449 26.7064 18.4706C26.5264 18.651 26.3529 18.8249 26.173 19.0053C26.1152 19.0697 26.0445 19.1277 25.9931 19.1921C25.9481 19.2437 25.916 19.2179 25.8838 19.1921C25.7425 19.0504 25.5882 18.9151 25.4661 18.7541C25.3376 18.593 25.1705 18.4771 25.0549 18.3096C25.0035 18.2387 24.9263 18.1872 24.8685 18.1228C24.6243 17.8715 24.3866 17.6074 24.1359 17.369C23.911 17.15 23.699 16.9117 23.4741 16.6862C23.3198 16.5316 23.1528 16.3899 23.0114 16.2224C22.8186 15.9905 22.6001 15.7908 22.3945 15.5717C22.1696 15.3334 21.9447 15.095 21.6812 14.8953C21.527 14.7794 21.3663 14.6634 21.1928 14.5668C21.0515 14.483 20.9037 14.4122 20.7623 14.3349C20.6273 14.264 20.486 14.206 20.3382 14.1609C20.2161 14.1223 20.0875 14.0772 19.959 14.045C19.7598 13.9935 19.5606 13.9612 19.3614 13.929C19.2586 13.9097 19.1558 13.9161 19.053 13.9097C18.9887 13.9033 18.9758 13.929 18.9758 13.987C18.9758 14.1867 18.9758 14.3864 18.9758 14.5797C18.9758 15.2045 18.9758 15.8294 18.9758 16.4543C18.9758 17.9553 18.9823 19.4627 18.9758 20.9637C18.9758 21.2213 18.9887 21.479 18.9823 21.7431C18.9823 21.7947 18.9758 21.8269 18.9052 21.8269C18.4425 21.8269 17.9798 21.8269 17.5171 21.8269C17.44 21.8269 17.4207 21.8527 17.4207 21.9493C17.4207 22.6386 17.4207 23.3214 17.4207 24.0107C17.4207 24.0945 17.4272 24.1782 17.4143 24.262C17.4079 24.2942 17.4207 24.3135 17.44 24.3393C17.877 24.7838 18.314 25.2282 18.7509 25.6792C19.2265 26.1688 19.702 26.6584 20.1775 27.148C20.2932 27.2639 20.4153 27.3734 20.5374 27.4894C20.5374 27.2961 20.5374 27.0964 20.5374 26.8967C20.5374 24.8417 20.5374 22.7932 20.5374 20.7382C20.5374 20.6673 20.5631 20.648 20.6273 20.648C21.09 20.648 21.5527 20.648 22.0154 20.648C22.0925 20.648 22.1053 20.6222 22.1053 20.5514C22.1053 19.54 22.1053 18.535 22.1053 17.5237C22.1053 17.4077 22.1053 17.4077 22.221 17.4077C22.2724 17.4077 22.3302 17.4141 22.3816 17.4077C22.4523 17.4013 22.478 17.427 22.478 17.5043C22.478 17.8715 22.478 18.2387 22.478 18.6059C22.478 19.263 22.478 19.9136 22.478 20.5707C22.478 20.6416 22.5037 20.6673 22.568 20.6416C22.613 20.6222 22.658 20.648 22.6965 20.648C23.1142 20.648 23.5255 20.648 23.9432 20.648C24.0139 20.648 24.0524 20.6673 24.0331 20.7446C24.0074 20.8928 24.0203 21.041 24.0203 21.1827C24.0203 21.2213 24.0074 21.2471 23.9817 21.2729C23.8339 21.4146 23.7054 21.5628 23.5576 21.7045C23.397 21.8655 23.2363 22.0266 23.0757 22.1941C22.8957 22.3745 22.7351 22.5677 22.5808 22.7674C22.4716 22.9091 22.3688 23.0509 22.2724 23.199C22.1053 23.4503 21.9447 23.7079 21.8161 23.9849C21.6941 24.2426 21.5784 24.5067 21.482 24.7773C21.3985 25.0157 21.3085 25.2476 21.2571 25.4924C21.2121 25.7114 21.1543 25.924 21.1221 26.143C21.1029 26.2912 21.09 26.4393 21.0707 26.5875C21.045 26.7872 21.0386 26.9805 21.0257 27.1802C21.0129 27.367 21.0065 27.5538 21.0322 27.7406C21.045 27.8308 21.0386 27.9274 21.045 28.0176C21.0643 28.198 21.0836 28.3784 21.1093 28.5523C21.1543 28.8744 21.2378 29.1901 21.3213 29.4993C21.3663 29.6668 21.4177 29.8278 21.4884 29.9824C21.5077 30.0597 21.5463 30.1306 21.5591 30.2208ZM17.0159 23.8754C17.0159 23.8625 17.0223 23.8561 17.0223 23.8497C17.0223 23.2184 17.0223 22.587 17.0223 21.9557C17.0223 21.7947 17.0223 21.8011 16.8681 21.8076C16.4247 21.8269 15.9877 21.814 15.5443 21.814C15.4865 21.814 15.4608 21.7947 15.4608 21.7303C15.4608 19.6237 15.4608 17.5108 15.4608 15.4042C15.4608 15.3656 15.4801 15.3076 15.448 15.2947C15.4158 15.2818 15.3965 15.3398 15.3708 15.3656C15.0817 15.6426 14.8568 15.9711 14.6575 16.3126C14.3877 16.7828 14.2142 17.2853 14.1049 17.8135C14.0021 18.3096 13.9957 18.812 14.0342 19.3145C14.0535 19.5593 14.1113 19.7977 14.1627 20.036C14.2913 20.5707 14.5226 21.0667 14.8246 21.5241C15.0752 21.9106 15.3901 22.2392 15.7178 22.5677C15.8978 22.7545 16.0777 22.9413 16.2576 23.1282C16.4761 23.3472 16.6946 23.5662 16.9067 23.7917C16.9388 23.8239 16.9709 23.8561 17.0159 23.8754Z" fill="url(#paint3_linear_143_13060)"/>
</g>
<path d="M4.25342 42.259C4.25342 42.259 14.8157 45.6968 27.6355 45.6968C40.4554 45.6968 51.1789 42.259 51.1789 42.259V30.3587C51.1789 30.3587 37.0903 34.9987 27.6355 34.9866C18.242 34.9745 4.25342 30.3587 4.25342 30.3587V42.259Z" fill="url(#paint4_linear_143_13060)"/>
<rect x="24.687" y="38.7251" width="1.3212" height="4.40401" fill="#FFF6D1"/>
<rect x="27.2471" y="38.7251" width="1.3212" height="4.40401" fill="#FFF6D1"/>
<rect x="29.5933" y="38.7251" width="1.3212" height="4.40401" fill="#FFF6D1"/>
<g filter="url(#filter3_d_143_13060)">
<path d="M28.8173 6.79614C28.4324 7.46281 27.4701 7.46281 27.0852 6.79614L25.363 3.81314C24.9781 3.14648 25.4592 2.31314 26.229 2.31314L29.6735 2.31314C30.4433 2.31314 30.9244 3.14647 30.5395 3.81314L28.8173 6.79614Z" fill="url(#paint5_linear_143_13060)"/>
</g>
<g filter="url(#filter4_d_143_13060)">
<path d="M8.43425 18.1201C8.87116 18.7539 8.45813 19.623 7.69078 19.6845L4.25731 19.9595C3.48997 20.021 2.94383 19.2288 3.27426 18.5335L4.75276 15.4225C5.08319 14.7272 6.04237 14.6504 6.47928 15.2842L8.43425 18.1201Z" fill="url(#paint6_linear_143_13060)"/>
</g>
<g filter="url(#filter5_d_143_13060)">
<path d="M47.3045 18.1201C46.8676 18.7539 47.2806 19.623 48.048 19.6845L51.4815 19.9595C52.2488 20.021 52.7949 19.2288 52.4645 18.5335L50.986 15.4225C50.6556 14.7272 49.6964 14.6504 49.2595 15.2842L47.3045 18.1201Z" fill="url(#paint7_linear_143_13060)"/>
</g>
<defs>
<filter id="filter0_i_143_13060" x="5.77246" y="4.90381" width="44.8887" height="45.7781" filterUnits="userSpaceOnUse" color-interpolation-filters="sRGB">
<feFlood flood-opacity="0" result="BackgroundImageFix"/>
<feBlend mode="normal" in="SourceGraphic" in2="BackgroundImageFix" result="shape"/>
<feColorMatrix in="SourceAlpha" type="matrix" values="0 0 0 0 0 0 0 0 0 0 0 0 0 0 0 0 0 0 127 0" result="hardAlpha"/>
<feOffset dx="1" dy="1"/>
<feGaussianBlur stdDeviation="1"/>
<feComposite in2="hardAlpha" operator="arithmetic" k2="-1" k3="1"/>
<feColorMatrix type="matrix" values="0 0 0 0 0 0 0 0 0 0 0 0 0 0 0 0 0 0 0.25 0"/>
<feBlend mode="normal" in2="shape" result="effect1_innerShadow_143_13060"/>
</filter>
<filter id="filter1_d_143_13060" x="21.8771" y="12.7566" width="23.3978" height="24.4052" filterUnits="userSpaceOnUse" color-interpolation-filters="sRGB">
<feFlood flood-opacity="0" result="BackgroundImageFix"/>
<feColorMatrix in="SourceAlpha" type="matrix" values="0 0 0 0 0 0 0 0 0 0 0 0 0 0 0 0 0 0 127 0" result="hardAlpha"/>
<feOffset dx="1" dy="2"/>
<feGaussianBlur stdDeviation="0.8"/>
<feComposite in2="hardAlpha" operator="out"/>
<feColorMatrix type="matrix" values="0 0 0 0 0 0 0 0 0 0 0 0 0 0 0 0 0 0 0.25 0"/>
<feBlend mode="normal" in2="BackgroundImageFix" result="effect1_dropShadow_143_13060"/>
<feBlend mode="normal" in="SourceGraphic" in2="effect1_dropShadow_143_13060" result="shape"/>
</filter>
<filter id="filter2_d_143_13060" x="12.3097" y="12.7566" width="17.0193" height="21.0641" filterUnits="userSpaceOnUse" color-interpolation-filters="sRGB">
<feFlood flood-opacity="0" result="BackgroundImageFix"/>
<feColorMatrix in="SourceAlpha" type="matrix" values="0 0 0 0 0 0 0 0 0 0 0 0 0 0 0 0 0 0 127 0" result="hardAlpha"/>
<feOffset dx="1" dy="2"/>
<feGaussianBlur stdDeviation="0.8"/>
<feComposite in2="hardAlpha" operator="out"/>
<feColorMatrix type="matrix" values="0 0 0 0 0 0 0 0 0 0 0 0 0 0 0 0 0 0 0.25 0"/>
<feBlend mode="normal" in2="BackgroundImageFix" result="effect1_dropShadow_143_13060"/>
<feBlend mode="normal" in="SourceGraphic" in2="effect1_dropShadow_143_13060" result="shape"/>
</filter>
<filter id="filter3_d_143_13060" x="24.9275" y="2.01323" width="8.04727" height="7.58291" filterUnits="userSpaceOnUse" color-interpolation-filters="sRGB">
<feFlood flood-opacity="0" result="BackgroundImageFix"/>
<feColorMatrix in="SourceAlpha" type="matrix" values="0 0 0 0 0 0 0 0 0 0 0 0 0 0 0 0 0 0 127 0" result="hardAlpha"/>
<feOffset dx="1" dy="1"/>
<feGaussianBlur stdDeviation="0.65"/>
<feComposite in2="hardAlpha" operator="out"/>
<feColorMatrix type="matrix" values="0 0 0 0 0 0 0 0 0 0 0 0 0 0 0 0 0 0 0.25 0"/>
<feBlend mode="normal" in2="BackgroundImageFix" result="effect1_dropShadow_143_13060"/>
<feBlend mode="normal" in="SourceGraphic" in2="effect1_dropShadow_143_13060" result="shape"/>
</filter>
<filter id="filter4_d_143_13060" x="2.87578" y="14.5516" width="8.03652" height="7.71133" filterUnits="userSpaceOnUse" color-interpolation-filters="sRGB">
<feFlood flood-opacity="0" result="BackgroundImageFix"/>
<feColorMatrix in="SourceAlpha" type="matrix" values="0 0 0 0 0 0 0 0 0 0 0 0 0 0 0 0 0 0 127 0" result="hardAlpha"/>
<feOffset dx="1" dy="1"/>
<feGaussianBlur stdDeviation="0.65"/>
<feComposite in2="hardAlpha" operator="out"/>
<feColorMatrix type="matrix" values="0 0 0 0 0 0 0 0 0 0 0 0 0 0 0 0 0 0 0.25 0"/>
<feBlend mode="normal" in2="BackgroundImageFix" result="effect1_dropShadow_143_13060"/>
<feBlend mode="normal" in="SourceGraphic" in2="effect1_dropShadow_143_13060" result="shape"/>
</filter>
<filter id="filter5_d_143_13060" x="46.827" y="14.5516" width="8.03555" height="7.71133" filterUnits="userSpaceOnUse" color-interpolation-filters="sRGB">
<feFlood flood-opacity="0" result="BackgroundImageFix"/>
<feColorMatrix in="SourceAlpha" type="matrix" values="0 0 0 0 0 0 0 0 0 0 0 0 0 0 0 0 0 0 127 0" result="hardAlpha"/>
<feOffset dx="1" dy="1"/>
<feGaussianBlur stdDeviation="0.65"/>
<feComposite in2="hardAlpha" operator="out"/>
<feColorMatrix type="matrix" values="0 0 0 0 0 0 0 0 0 0 0 0 0 0 0 0 0 0 0.25 0"/>
<feBlend mode="normal" in2="BackgroundImageFix" result="effect1_dropShadow_143_13060"/>
<feBlend mode="normal" in="SourceGraphic" in2="effect1_dropShadow_143_13060" result="shape"/>
</filter>
<linearGradient id="paint0_linear_143_13060" x1="16.0856" y1="9.56734" x2="47.1127" y2="47.5827" gradientUnits="userSpaceOnUse">
<stop offset="0.207595" stop-color="#D2B85C"/>
<stop offset="0.961067" stop-color="#836035"/>
</linearGradient>
<linearGradient id="paint1_linear_143_13060" x1="16.8388" y1="10.9362" x2="47.4178" y2="42.8686" gradientUnits="userSpaceOnUse">
<stop stop-color="#916C30"/>
<stop offset="0.828125" stop-color="#C49A45"/>
</linearGradient>
<linearGradient id="paint2_linear_143_13060" x1="32.5759" y1="12.7566" x2="32.5759" y2="33.5617" gradientUnits="userSpaceOnUse">
<stop stop-color="#FFF7D2"/>
<stop offset="1" stop-color="#E5C66C"/>
</linearGradient>
<linearGradient id="paint3_linear_143_13060" x1="19.8194" y1="12.7566" x2="19.8194" y2="30.2208" gradientUnits="userSpaceOnUse">
<stop stop-color="#FFF7D2"/>
<stop offset="1" stop-color="#E5C66C"/>
</linearGradient>
<linearGradient id="paint4_linear_143_13060" x1="33.6995" y1="33.6996" x2="33.6995" y2="45.6968" gradientUnits="userSpaceOnUse">
<stop stop-color="#E5C66C"/>
<stop offset="1" stop-color="#AF7343"/>
</linearGradient>
<linearGradient id="paint5_linear_143_13060" x1="27.9513" y1="8.29614" x2="27.9513" y2="0.318807" gradientUnits="userSpaceOnUse">
<stop stop-color="#9B7534"/>
<stop offset="1" stop-color="#FFF7D2"/>
</linearGradient>
<linearGradient id="paint6_linear_143_13060" x1="9.4173" y1="19.5461" x2="2.21225" y2="16.1219" gradientUnits="userSpaceOnUse">
<stop stop-color="#9B7534"/>
<stop offset="1" stop-color="#FFF7D2"/>
</linearGradient>
<linearGradient id="paint7_linear_143_13060" x1="46.3215" y1="19.5461" x2="53.5265" y2="16.1219" gradientUnits="userSpaceOnUse">
<stop stop-color="#9B7534"/>
<stop offset="1" stop-color="#FFF7D2"/>
</linearGradient>
</defs>
</svg>
