<svg width="97" height="93" viewBox="0 0 97 93" fill="none" xmlns="http://www.w3.org/2000/svg">
<g filter="url(#filter0_d_622_11174)">
<path d="M56.0033 21.3342C56.0163 21.701 49.1899 29.5331 43.3856 36.7094C40.0639 36.0391 35.371 35.446 37.2362 33.3885C40.5335 29.7511 44.7544 26.2432 47.8735 22.171L56.542 12.5225C56.4423 13.832 55.9784 20.6331 56.0033 21.3342Z" fill="url(#paint0_linear_622_11174)"/>
<path d="M38.5954 21.3342C38.5824 21.701 45.4087 29.5331 51.213 36.7094C54.5348 36.0391 59.2276 35.446 57.3624 33.3885C54.0651 29.7511 49.8442 26.2432 46.7252 22.171L38.0566 12.5225C38.1563 13.832 38.6202 20.6331 38.5954 21.3342Z" fill="url(#paint1_linear_622_11174)"/>
<path d="M84.8537 30.405C84.3428 30.9306 75.3313 42.6683 68.7488 49.2359C66.3093 46.6098 62.7645 43.3725 64.8107 41.5942C68.4279 38.4505 72.7393 35.9608 76.3365 32.143L85.8701 23.7632C85.2948 25.5515 85.1021 30.1495 84.8537 30.405Z" fill="url(#paint2_linear_622_11174)"/>
<path d="M12.555 29.8943C13.0659 30.4199 21.281 42.1576 27.8635 48.7252C30.303 46.099 33.8478 42.8618 31.8016 41.0835C28.1844 37.9398 23.873 35.4501 20.2758 31.6323L10.7422 23.2524C11.3175 25.0408 12.3066 29.6388 12.555 29.8943Z" fill="url(#paint3_linear_622_11174)"/>
<g filter="url(#filter1_d_622_11174)">
<path d="M73.1948 57.0196V38.3248L81.5336 27.3394L75.9122 29.1277L70.384 31.1715L52.1217 21.3694L47.3 11.5L43.7234 21.3694L24.6541 31.1715L20.7297 29.6387L15.457 27.3394L22.0999 38.3248V56.9248C22.0999 63.5605 26.4598 69.4076 32.8195 71.3011L39.475 73.2827C41.1811 73.7907 42.5411 75.0844 43.1335 76.763C43.5173 77.8503 44.2294 78.7915 45.1713 79.4564L48.0664 81.5L50.7492 79.4719C51.6449 78.7948 52.3244 77.8719 52.7051 76.8156C53.3231 75.1006 54.7127 73.7767 56.4556 73.2423L62.5922 71.3606C68.893 69.4285 73.1948 63.6101 73.1948 57.0196Z" fill="url(#paint4_linear_622_11174)"/>
</g>
<g filter="url(#filter2_i_622_11174)">
<path d="M39.7377 26.6407L30.6192 32.5265C26.3393 35.2891 23.7539 40.035 23.7539 45.1291V55.7617C23.7539 62.4991 28.246 68.4099 34.7374 70.2139L43.9153 72.7646C46.5799 73.5051 49.3974 73.4946 52.0564 72.7341L60.6662 70.2718C67.1039 68.4306 71.5417 62.5457 71.5417 55.85V45.0019C71.5417 39.9776 69.0263 35.287 64.8412 32.5071L56.1719 26.7486C51.2027 23.4479 44.7498 23.4055 39.7377 26.6407Z" fill="url(#paint5_linear_622_11174)"/>
</g>
<g filter="url(#filter3_d_622_11174)">
<path d="M41.952 49.0934C41.931 48.9027 41.952 48.6979 41.945 48.486C41.945 48.3801 41.9661 48.26 42.0012 48.147C42.0292 48.0411 42.0292 47.9281 42.0503 47.8292C42.0924 47.6385 42.1485 47.4549 42.1907 47.2642C42.2608 46.9534 42.3942 46.6639 42.5135 46.3672C42.6328 46.0636 42.8013 45.781 42.9697 45.4985C43.1311 45.2231 43.3276 44.9759 43.5382 44.7287C43.833 44.3968 44.1488 44.079 44.4506 43.7541C44.6611 43.5281 44.8787 43.3162 45.0893 43.0972C45.4963 42.6876 45.9104 42.278 46.3035 41.8542C46.7246 41.4093 47.1527 40.9785 47.5808 40.5335C47.7703 40.3358 47.9809 40.1521 48.1633 39.9403C48.4651 39.5871 48.809 39.2764 49.1319 38.9444C49.3144 38.7608 49.4968 38.5772 49.6723 38.3865C50.0934 37.9274 50.5566 37.5107 50.9777 37.0446C51.3287 36.6561 51.7147 36.2959 52.0726 35.9146C52.3463 35.625 52.62 35.3425 52.8868 35.06C53.1184 34.8199 53.371 34.615 53.6237 34.4032C53.8764 34.1913 54.1501 34.0218 54.4308 33.8523C54.7326 33.6757 55.0625 33.5345 55.3923 33.4144C55.5397 33.365 55.6801 33.2943 55.8275 33.2661C55.9538 33.2449 56.0731 33.2025 56.1995 33.1884C56.396 33.1672 56.5855 33.1248 56.782 33.0966C57.0768 33.0542 57.3786 33.0542 57.6733 33.0542C58.0523 33.0542 58.4243 33.1107 58.7893 33.1813C59.1963 33.259 59.5894 33.372 59.9613 33.5415C60.3263 33.704 60.6842 33.9017 61.0211 34.1277C61.4071 34.3961 61.7651 34.6998 62.0949 35.0388C62.3897 35.3354 62.6283 35.6744 62.867 36.0134C63.1688 36.4584 63.3863 36.9528 63.5688 37.4613C63.7232 37.8992 63.8215 38.3441 63.8776 38.8032C63.9057 39.0645 63.9408 39.3258 63.9338 39.5942C63.9268 39.8696 63.9338 40.1451 63.8917 40.4205C63.8425 40.7383 63.8004 41.0632 63.7162 41.374C63.6109 41.7554 63.4846 42.1297 63.3162 42.4828C63.0284 43.1184 62.6494 43.6834 62.1792 44.199C61.8563 44.5592 61.5124 44.9053 61.1755 45.2443C60.8316 45.5833 60.5018 45.9364 60.1789 46.2896C60.0385 46.4449 59.8982 46.6003 59.7367 46.7345C59.6455 46.8193 59.5613 46.9181 59.4771 47.0029C59.4139 47.0664 59.3507 47.1229 59.2876 47.1865C58.9366 47.5538 58.5787 47.9069 58.2348 48.2812C58.0453 48.486 57.8558 48.6908 57.6663 48.8886C57.3435 49.2205 57.0206 49.5525 56.6907 49.8844C56.3609 50.2164 56.024 50.5413 55.7082 50.8873C55.273 51.3605 54.8168 51.8196 54.3747 52.2928C54.0939 52.5894 53.7921 52.8719 53.5044 53.1615C53.2166 53.4511 52.9289 53.7406 52.6411 54.0302C52.4797 54.1926 52.2902 54.3268 52.1147 54.4681C51.8691 54.6588 51.6094 54.8283 51.3357 54.9695C50.9076 55.1885 50.4584 55.365 49.9952 55.4992C49.7144 55.5769 49.4196 55.6193 49.1319 55.6758C49.0547 55.6899 48.9705 55.6899 48.8933 55.697C48.5143 55.7252 48.1353 55.6899 47.7563 55.6899C47.644 55.6899 47.5317 55.6546 47.4194 55.6405C47.286 55.6193 47.1527 55.584 47.0193 55.5557C46.7877 55.5063 46.5631 55.4357 46.3385 55.3721C46.0718 55.2944 45.8192 55.1673 45.5665 55.0543C45.3981 54.9766 45.2507 54.8636 45.0893 54.7788C44.9559 54.7082 44.8366 54.6235 44.7173 54.5387C44.5559 54.4116 44.3944 54.2844 44.24 54.1573C44.0225 53.9737 43.8189 53.7689 43.6294 53.557C43.5101 53.4157 43.3838 53.2816 43.2715 53.1332C43.075 52.8719 42.9136 52.5894 42.7591 52.3069C42.6118 52.0315 42.4644 51.756 42.3661 51.4594C42.2608 51.1628 42.1907 50.8591 42.0994 50.5624C42.0643 50.4424 42.0643 50.3082 42.0362 50.1811C41.959 49.8209 41.938 49.4677 41.952 49.0934ZM45.9034 53.8112C45.9245 53.7759 45.9174 53.7477 45.9174 53.7194C45.9174 53.3946 45.9174 53.0697 45.9174 52.7519C45.9174 51.078 45.9174 49.4112 45.9174 47.7374C45.9174 47.6809 45.9245 47.6456 45.9946 47.6456C46.507 47.6456 47.0193 47.6456 47.5317 47.6526C47.6019 47.6526 47.6299 47.6385 47.6229 47.5608C47.6229 46.904 47.6229 46.2401 47.6229 45.5833C47.6229 45.1242 47.6229 44.6722 47.6229 44.2131C47.6229 44.1001 47.6229 44.1001 47.7422 44.0931C47.8054 44.0931 47.8756 44.1001 47.9388 44.079C47.9738 44.0719 48.023 44.0931 48.03 44.1496C48.03 44.2202 48.044 44.2838 48.044 44.3473C48.044 45.4138 48.044 46.4802 48.044 47.5538C48.044 47.6244 48.0651 47.6456 48.1353 47.6385C48.6476 47.6385 49.16 47.6385 49.6723 47.6315C49.7425 47.6315 49.7635 47.6456 49.7635 47.7162C49.7635 49.6302 49.7635 51.5441 49.7635 53.4511C49.7635 53.6841 49.7635 53.9242 49.7635 54.1573C49.7635 54.2138 49.7776 54.235 49.8407 54.2138C49.925 54.1856 50.0092 54.1714 50.0864 54.1361C50.2338 54.0726 50.3882 54.0161 50.5356 53.9384C50.704 53.8466 50.8795 53.7689 51.0479 53.67C51.2515 53.5499 51.4339 53.4157 51.6234 53.2674C51.7357 53.1827 51.841 53.0979 51.7919 52.9284C51.7919 52.9214 51.7919 52.9143 51.7919 52.9002C51.7919 50.0822 51.7989 47.2571 51.7989 44.4391C51.7989 43.5563 51.7989 42.6735 51.7989 41.7907C51.7989 41.6777 51.7989 41.6777 51.9112 41.6777C52.4025 41.6777 52.9008 41.6777 53.3921 41.6777C53.4763 41.6777 53.5044 41.6494 53.5044 41.5647C53.4974 40.9855 53.5044 40.3993 53.5044 39.8202C53.5044 39.2905 53.5044 38.7608 53.5044 38.2311C53.5044 38.1463 53.5324 38.1252 53.6097 38.1252C53.6869 38.1322 53.7641 38.1322 53.8342 38.1252C53.8974 38.1181 53.9114 38.1464 53.9114 38.2029C53.9114 39.3046 53.9114 40.4064 53.9114 41.5152C53.9114 41.5505 53.9185 41.5858 53.9044 41.6141C53.8764 41.6777 53.9114 41.6777 53.9536 41.6777C54.0799 41.6777 54.2132 41.6777 54.3396 41.6777C54.7326 41.6777 55.1256 41.6777 55.5116 41.6777C55.5818 41.6777 55.6099 41.6988 55.6099 41.7695C55.6029 41.8613 55.6029 41.9602 55.6029 42.052C55.6029 44.3826 55.6029 46.7062 55.6029 49.0369C55.6029 49.0652 55.6029 49.0864 55.6099 49.1146C55.631 49.1711 55.645 49.1782 55.6871 49.1358C55.7713 49.044 55.8555 48.9592 55.9398 48.8745C56.389 48.4083 56.8452 47.9422 57.2943 47.4761C57.8488 46.904 58.4032 46.3319 58.9647 45.7599C59.0068 45.7175 59.0209 45.668 59.0209 45.6115C59.0209 44.764 59.0209 43.9094 59.0209 43.0619C59.0209 42.9913 58.9998 42.9701 58.9296 42.9701C58.4383 42.9772 57.947 42.9701 57.4558 42.9701C57.3224 42.9701 57.3154 42.9984 57.3154 42.8359C57.3154 40.3075 57.3154 37.772 57.3154 35.2436C57.3154 35.18 57.2873 35.1235 57.2943 35.06C57.3294 34.8552 57.3084 34.6433 57.3084 34.4385C57.3084 34.2972 57.3013 34.2972 57.168 34.3043C57.1469 34.3043 57.1189 34.3043 57.0978 34.3043C56.9504 34.3184 56.803 34.3184 56.6557 34.3467C56.3328 34.4102 56.01 34.495 55.6941 34.615C55.3292 34.7492 54.9853 34.9258 54.6694 35.1447C54.2764 35.4131 53.9325 35.7521 53.5956 36.0911C53.3079 36.3807 53.0341 36.6703 52.7464 36.9598C52.6271 37.0799 52.5078 37.1929 52.3955 37.313C52.0445 37.6802 51.6936 38.0545 51.3427 38.4289C51.2585 38.5207 51.1743 38.6266 51.083 38.7114C50.8935 38.895 50.7181 39.0857 50.5286 39.2693C50.0162 39.7778 49.5039 40.2934 49.0196 40.8301C48.7318 41.148 48.43 41.4446 48.1283 41.7483C47.6229 42.2639 47.1036 42.7724 46.6052 43.295C46.0999 43.8247 45.6016 44.3544 45.0893 44.877C44.7243 45.2513 44.3523 45.6186 44.0716 46.0706C43.8681 46.3884 43.6856 46.7204 43.5452 47.0735C43.3627 47.5326 43.2504 48.0058 43.2013 48.4931C43.1452 49.0369 43.1522 49.5807 43.2645 50.1175C43.3417 50.4848 43.447 50.8449 43.5803 51.1981C43.6505 51.3888 43.7558 51.5653 43.854 51.7419C44.3523 52.6318 45.0261 53.3169 45.9034 53.8112ZM61.1194 35.7874C61.1124 35.8298 61.1124 35.851 61.1124 35.8722C61.1124 37.0022 61.1124 38.1252 61.1124 39.2552C61.1124 40.4629 61.1124 41.6706 61.1124 42.8854C61.1124 42.9631 61.0983 42.9984 61.0071 42.9984C60.5018 42.9913 60.0034 42.9984 59.4981 42.9984C59.4209 42.9984 59.3999 43.0266 59.3999 43.0972C59.3999 43.7894 59.3999 44.4886 59.3999 45.1807C59.3999 45.216 59.3999 45.2513 59.3999 45.2867C59.5823 45.1101 59.7578 44.9406 59.9333 44.764C60.221 44.4674 60.5088 44.1708 60.7965 43.8741C61.1475 43.5139 61.5054 43.1608 61.7861 42.7371C62.3406 41.9037 62.6354 40.9785 62.6985 39.9826C62.7336 39.4106 62.6705 38.8455 62.5301 38.2876C62.3827 37.7014 62.1441 37.1576 61.8072 36.6561C61.6177 36.3383 61.3791 36.077 61.1194 35.7874Z" fill="url(#paint6_linear_622_11174)"/>
</g>
<g filter="url(#filter4_d_622_11174)">
<path d="M40.9433 52.0701C40.8664 52.042 40.8244 51.9859 40.7894 51.9368C40.6635 51.7685 40.5095 51.6212 40.3696 51.4669C40.2017 51.2775 40.0267 51.0881 39.8448 50.9057C39.495 50.548 39.1451 50.1903 38.7953 49.8325C38.5924 49.6221 38.3894 49.4187 38.1865 49.2153C38.0186 49.0469 37.8647 48.8645 37.6967 48.7032C37.6198 48.6261 37.5498 48.5349 37.4518 48.4717C37.3679 48.4226 37.3399 48.3174 37.2629 48.2473C37.039 48.0439 36.8431 47.8194 36.6192 47.616C36.4443 47.4547 36.3043 47.2512 36.1294 47.0899C36.0175 46.9917 35.9195 46.8725 35.8006 46.7813C35.7446 46.7462 35.7236 46.669 35.6746 46.6199C35.4437 46.3955 35.2128 46.178 34.9959 45.9396C34.702 45.6099 34.3802 45.3083 34.0863 44.9786C33.8694 44.7401 33.6315 44.5156 33.4076 44.2842C33.0787 43.9405 32.7779 43.5687 32.519 43.1689C32.393 42.9725 32.2951 42.7621 32.1831 42.5586C32.0782 42.3693 32.0152 42.1658 31.9312 41.9764C31.8193 41.738 31.7843 41.4854 31.7073 41.2399C31.6583 41.0716 31.6373 40.8962 31.6024 40.7279C31.5184 40.2579 31.5394 39.788 31.5254 39.311C31.5254 39.1847 31.5394 39.0585 31.5324 38.9322C31.5324 38.834 31.5744 38.7288 31.5884 38.6236C31.6024 38.5605 31.5954 38.4903 31.6024 38.4272C31.6164 38.322 31.6513 38.2238 31.6793 38.1186C31.7633 37.7608 31.8752 37.4171 32.0082 37.0734C32.0851 36.87 32.1621 36.6596 32.2811 36.4772C32.435 36.2387 32.5749 35.9862 32.7429 35.7617C32.9108 35.5303 33.0787 35.2988 33.2816 35.0954C33.4566 34.913 33.6385 34.7376 33.8344 34.5693C34.1493 34.2887 34.4921 34.0432 34.863 33.8398C35.0869 33.7206 35.3178 33.6083 35.5487 33.5031C35.7166 33.426 35.8845 33.3628 36.0664 33.3207C36.2064 33.2857 36.3323 33.2225 36.4793 33.2085C36.7032 33.1875 36.9131 33.1314 37.13 33.0963C37.4448 33.0542 37.7597 33.0542 38.0746 33.0542C38.2005 33.0542 38.3265 33.0542 38.4454 33.0612C38.5714 33.0682 38.6973 33.0893 38.8233 33.1103C38.9982 33.1384 39.1731 33.2085 39.355 33.2155C39.516 33.2225 39.6489 33.3067 39.7958 33.3418C40.0757 33.4049 40.3276 33.5382 40.5865 33.6504C40.9014 33.7907 41.1882 33.9661 41.4681 34.1625C41.671 34.3028 41.8809 34.443 42.0699 34.6114C42.2028 34.7306 42.3288 34.8569 42.4477 34.9831C42.8395 35.383 43.2314 35.7828 43.6232 36.1826C44.05 36.6245 44.4768 37.0734 44.9106 37.5083C45.4424 38.0414 45.9532 38.6025 46.492 39.1286C46.513 39.1497 46.5339 39.1707 46.5549 39.1918C46.5829 39.2198 46.5759 39.2479 46.5479 39.2759C46.352 39.4723 46.1631 39.6617 45.9672 39.8581C45.9042 39.9283 45.8272 39.9914 45.7713 40.0615C45.7223 40.1176 45.6873 40.0896 45.6523 40.0615C45.4984 39.9072 45.3305 39.7599 45.1975 39.5846C45.0576 39.4092 44.8757 39.2829 44.7497 39.1006C44.6937 39.0234 44.6098 38.9673 44.5468 38.8972C44.2809 38.6236 44.022 38.336 43.7491 38.0765C43.5042 37.838 43.2733 37.5785 43.0285 37.333C42.8605 37.1646 42.6786 37.0103 42.5247 36.8279C42.3148 36.5754 42.0769 36.358 41.853 36.1195C41.6081 35.8599 41.3632 35.6004 41.0763 35.383C40.9084 35.2567 40.7334 35.1304 40.5445 35.0252C40.3906 34.934 40.2297 34.8569 40.0757 34.7727C39.9288 34.6956 39.7748 34.6324 39.6139 34.5833C39.481 34.5412 39.341 34.4921 39.2011 34.4571C38.9842 34.401 38.7673 34.3659 38.5504 34.3308C38.4384 34.3098 38.3265 34.3168 38.2145 34.3098C38.1445 34.3028 38.1306 34.3308 38.1306 34.3939C38.1306 34.6114 38.1306 34.8288 38.1306 35.0393C38.1306 35.7197 38.1306 36.4 38.1306 37.0804C38.1306 38.7148 38.1376 40.3561 38.1306 41.9905C38.1306 42.2711 38.1445 42.5516 38.1376 42.8392C38.1376 42.8953 38.1306 42.9304 38.0536 42.9304C37.5498 42.9304 37.046 42.9304 36.5422 42.9304C36.4583 42.9304 36.4373 42.9585 36.4373 43.0637C36.4373 43.8142 36.4373 44.5577 36.4373 45.3083C36.4373 45.3995 36.4443 45.4906 36.4303 45.5818C36.4233 45.6169 36.4373 45.6379 36.4583 45.666C36.9341 46.15 37.4099 46.634 37.8857 47.125C38.4034 47.6581 38.9212 48.1912 39.439 48.7243C39.5649 48.8505 39.6979 48.9698 39.8308 49.096C39.8308 48.8856 39.8308 48.6681 39.8308 48.4507C39.8308 46.2131 39.8308 43.9826 39.8308 41.745C39.8308 41.6678 39.8588 41.6468 39.9288 41.6468C40.4326 41.6468 40.9363 41.6468 41.4401 41.6468C41.5241 41.6468 41.5381 41.6187 41.5381 41.5416C41.5381 40.4403 41.5381 39.3461 41.5381 38.2448C41.5381 38.1186 41.5381 38.1186 41.664 38.1186C41.72 38.1186 41.783 38.1256 41.839 38.1186C41.9159 38.1115 41.9439 38.1396 41.9439 38.2238C41.9439 38.6236 41.9439 39.0234 41.9439 39.4232C41.9439 40.1387 41.9439 40.8471 41.9439 41.5626C41.9439 41.6398 41.9719 41.6678 42.0419 41.6398C42.0909 41.6187 42.1398 41.6468 42.1818 41.6468C42.6366 41.6468 43.0844 41.6468 43.5392 41.6468C43.6162 41.6468 43.6582 41.6678 43.6372 41.752C43.6092 41.9133 43.6232 42.0747 43.6232 42.229C43.6232 42.2711 43.6092 42.2991 43.5812 42.3272C43.4203 42.4815 43.2803 42.6428 43.1194 42.7971C42.9445 42.9725 42.7696 43.1478 42.5946 43.3302C42.3987 43.5266 42.2238 43.7371 42.0559 43.9545C41.9369 44.1088 41.825 44.2631 41.72 44.4245C41.5381 44.698 41.3632 44.9786 41.2232 45.2802C41.0903 45.5608 40.9643 45.8484 40.8594 46.143C40.7684 46.4025 40.6705 46.655 40.6145 46.9216C40.5655 47.1601 40.5025 47.3915 40.4676 47.63C40.4466 47.7913 40.4326 47.9527 40.4116 48.114C40.3836 48.3314 40.3766 48.5419 40.3626 48.7593C40.3486 48.9627 40.3416 49.1662 40.3696 49.3696C40.3836 49.4678 40.3766 49.573 40.3836 49.6712C40.4046 49.8676 40.4256 50.064 40.4536 50.2534C40.5025 50.6041 40.5935 50.9478 40.6845 51.2845C40.7334 51.4669 40.7894 51.6422 40.8664 51.8106C40.8874 51.8947 40.9294 51.9719 40.9433 52.0701ZM35.9965 45.161C35.9965 45.1469 36.0035 45.1399 36.0035 45.1329C36.0035 44.4455 36.0035 43.7581 36.0035 43.0707C36.0035 42.8953 36.0035 42.9023 35.8355 42.9094C35.3527 42.9304 34.877 42.9164 34.3942 42.9164C34.3312 42.9164 34.3032 42.8953 34.3032 42.8252C34.3032 40.5315 34.3032 38.2308 34.3032 35.9371C34.3032 35.895 34.3242 35.8319 34.2892 35.8179C34.2542 35.8038 34.2332 35.867 34.2052 35.895C33.8904 36.1966 33.6455 36.5544 33.4286 36.9261C33.1347 37.4382 32.9458 37.9853 32.8268 38.5605C32.7149 39.1006 32.7079 39.6477 32.7499 40.1948C32.7709 40.4614 32.8338 40.7209 32.8898 40.9804C33.0297 41.5626 33.2816 42.1027 33.6105 42.6007C33.8834 43.0216 34.2262 43.3793 34.5831 43.7371C34.779 43.9405 34.9749 44.1439 35.1708 44.3473C35.4087 44.5858 35.6466 44.8243 35.8775 45.0698C35.9125 45.1048 35.9475 45.1399 35.9965 45.161Z" fill="url(#paint7_linear_622_11174)"/>
</g>
<g filter="url(#filter5_d_622_11174)">
<path d="M22.0996 65.1782C22.0996 65.1782 33.6003 68.9214 47.5593 68.9214C61.5182 68.9214 73.1945 65.1782 73.1945 65.1782V52.2205C73.1945 52.2205 57.8541 57.2728 47.5593 57.2596C37.3311 57.2465 22.0996 52.2205 22.0996 52.2205V65.1782Z" fill="url(#paint8_linear_622_11174)"/>
</g>
<g filter="url(#filter6_d_622_11174)">
<path d="M49.6351 22.8066C48.8653 24.14 46.9408 24.14 46.171 22.8066L45.8739 22.292C45.1041 20.9587 46.0663 19.292 47.6059 19.292L48.2001 19.292C49.7397 19.292 50.702 20.9587 49.9322 22.292L49.6351 22.8066Z" fill="url(#paint9_linear_622_11174)"/>
</g>
<g filter="url(#filter7_d_622_11174)">
<path d="M49.6351 75.9453C48.8653 77.2786 46.9408 77.2786 46.171 75.9453L45.8739 75.4307C45.1041 74.0974 46.0663 72.4307 47.6059 72.4307L48.2001 72.4307C49.7397 72.4307 50.702 74.0974 49.9322 75.4307L49.6351 75.9453Z" fill="url(#paint10_linear_622_11174)"/>
</g>
<g filter="url(#filter8_d_622_11174)">
<path d="M73.1506 33.8851C74.0385 35.1429 73.2319 36.8902 71.6986 37.0303L71.1069 37.0843C69.5737 37.2244 68.4638 35.6521 69.1091 34.2543L69.3582 33.7148C70.0035 32.317 71.92 32.1419 72.8079 33.3997L73.1506 33.8851Z" fill="url(#paint11_linear_622_11174)"/>
</g>
<g filter="url(#filter9_d_622_11174)">
<path d="M26.9055 33.8851C27.7934 35.1429 26.9867 36.8902 25.4535 37.0303L24.8618 37.0843C23.3286 37.2244 22.2187 35.6521 22.864 34.2543L23.1131 33.7148C23.7584 32.317 25.6749 32.1419 26.5628 33.3997L26.9055 33.8851Z" fill="url(#paint12_linear_622_11174)"/>
</g>
</g>
<defs>
<filter id="filter0_d_622_11174" x="0.142187" y="0.9" width="96.3279" height="91.2" filterUnits="userSpaceOnUse" color-interpolation-filters="sRGB">
<feFlood flood-opacity="0" result="BackgroundImageFix"/>
<feColorMatrix in="SourceAlpha" type="matrix" values="0 0 0 0 0 0 0 0 0 0 0 0 0 0 0 0 0 0 127 0" result="hardAlpha"/>
<feOffset/>
<feGaussianBlur stdDeviation="5.3"/>
<feComposite in2="hardAlpha" operator="out"/>
<feColorMatrix type="matrix" values="0 0 0 0 0.231875 0 0 0 0 0.6625 0 0 0 0 0.347221 0 0 0 0.25 0"/>
<feBlend mode="normal" in2="BackgroundImageFix" result="effect1_dropShadow_622_11174"/>
<feBlend mode="normal" in="SourceGraphic" in2="effect1_dropShadow_622_11174" result="shape"/>
</filter>
<filter id="filter1_d_622_11174" x="10.357" y="2.4" width="76.2762" height="80.2" filterUnits="userSpaceOnUse" color-interpolation-filters="sRGB">
<feFlood flood-opacity="0" result="BackgroundImageFix"/>
<feColorMatrix in="SourceAlpha" type="matrix" values="0 0 0 0 0 0 0 0 0 0 0 0 0 0 0 0 0 0 127 0" result="hardAlpha"/>
<feOffset dy="-4"/>
<feGaussianBlur stdDeviation="2.55"/>
<feComposite in2="hardAlpha" operator="out"/>
<feColorMatrix type="matrix" values="0 0 0 0 0 0 0 0 0 0 0 0 0 0 0 0 0 0 0.25 0"/>
<feBlend mode="normal" in2="BackgroundImageFix" result="effect1_dropShadow_622_11174"/>
<feBlend mode="normal" in="SourceGraphic" in2="effect1_dropShadow_622_11174" result="shape"/>
</filter>
<filter id="filter2_i_622_11174" x="23.7539" y="24.2434" width="49.7881" height="50.0688" filterUnits="userSpaceOnUse" color-interpolation-filters="sRGB">
<feFlood flood-opacity="0" result="BackgroundImageFix"/>
<feBlend mode="normal" in="SourceGraphic" in2="BackgroundImageFix" result="shape"/>
<feColorMatrix in="SourceAlpha" type="matrix" values="0 0 0 0 0 0 0 0 0 0 0 0 0 0 0 0 0 0 127 0" result="hardAlpha"/>
<feOffset dx="2" dy="1"/>
<feGaussianBlur stdDeviation="1"/>
<feComposite in2="hardAlpha" operator="arithmetic" k2="-1" k3="1"/>
<feColorMatrix type="matrix" values="0 0 0 0 0 0 0 0 0 0 0 0 0 0 0 0 0 0 0.25 0"/>
<feBlend mode="normal" in2="shape" result="effect1_innerShadow_622_11174"/>
</filter>
<filter id="filter3_d_622_11174" x="41.3424" y="33.0542" width="25.1922" height="26.2538" filterUnits="userSpaceOnUse" color-interpolation-filters="sRGB">
<feFlood flood-opacity="0" result="BackgroundImageFix"/>
<feColorMatrix in="SourceAlpha" type="matrix" values="0 0 0 0 0 0 0 0 0 0 0 0 0 0 0 0 0 0 127 0" result="hardAlpha"/>
<feOffset dx="1" dy="2"/>
<feGaussianBlur stdDeviation="0.8"/>
<feComposite in2="hardAlpha" operator="out"/>
<feColorMatrix type="matrix" values="0 0 0 0 0 0 0 0 0 0 0 0 0 0 0 0 0 0 0.25 0"/>
<feBlend mode="normal" in2="BackgroundImageFix" result="effect1_dropShadow_622_11174"/>
<feBlend mode="normal" in="SourceGraphic" in2="effect1_dropShadow_622_11174" result="shape"/>
</filter>
<filter id="filter4_d_622_11174" x="30.9254" y="33.0542" width="18.2469" height="22.6159" filterUnits="userSpaceOnUse" color-interpolation-filters="sRGB">
<feFlood flood-opacity="0" result="BackgroundImageFix"/>
<feColorMatrix in="SourceAlpha" type="matrix" values="0 0 0 0 0 0 0 0 0 0 0 0 0 0 0 0 0 0 127 0" result="hardAlpha"/>
<feOffset dx="1" dy="2"/>
<feGaussianBlur stdDeviation="0.8"/>
<feComposite in2="hardAlpha" operator="out"/>
<feColorMatrix type="matrix" values="0 0 0 0 0 0 0 0 0 0 0 0 0 0 0 0 0 0 0.25 0"/>
<feBlend mode="normal" in2="BackgroundImageFix" result="effect1_dropShadow_622_11174"/>
<feBlend mode="normal" in="SourceGraphic" in2="effect1_dropShadow_622_11174" result="shape"/>
</filter>
<filter id="filter5_d_622_11174" x="22.0996" y="51.9205" width="54.3947" height="19.3009" filterUnits="userSpaceOnUse" color-interpolation-filters="sRGB">
<feFlood flood-opacity="0" result="BackgroundImageFix"/>
<feColorMatrix in="SourceAlpha" type="matrix" values="0 0 0 0 0 0 0 0 0 0 0 0 0 0 0 0 0 0 127 0" result="hardAlpha"/>
<feOffset dx="2" dy="1"/>
<feGaussianBlur stdDeviation="0.65"/>
<feComposite in2="hardAlpha" operator="out"/>
<feColorMatrix type="matrix" values="0 0 0 0 0 0 0 0 0 0 0 0 0 0 0 0 0 0 0.25 0"/>
<feBlend mode="normal" in2="BackgroundImageFix" result="effect1_dropShadow_622_11174"/>
<feBlend mode="normal" in="SourceGraphic" in2="effect1_dropShadow_622_11174" result="shape"/>
</filter>
<filter id="filter6_d_622_11174" x="39.3025" y="12.992" width="17.2006" height="17.1146" filterUnits="userSpaceOnUse" color-interpolation-filters="sRGB">
<feFlood flood-opacity="0" result="BackgroundImageFix"/>
<feColorMatrix in="SourceAlpha" type="matrix" values="0 0 0 0 0 0 0 0 0 0 0 0 0 0 0 0 0 0 127 0" result="hardAlpha"/>
<feOffset/>
<feGaussianBlur stdDeviation="3.15"/>
<feComposite in2="hardAlpha" operator="out"/>
<feColorMatrix type="matrix" values="0 0 0 0 1 0 0 0 0 1 0 0 0 0 1 0 0 0 0.25 0"/>
<feBlend mode="normal" in2="BackgroundImageFix" result="effect1_dropShadow_622_11174"/>
<feBlend mode="normal" in="SourceGraphic" in2="effect1_dropShadow_622_11174" result="shape"/>
</filter>
<filter id="filter7_d_622_11174" x="39.3025" y="66.1307" width="17.2006" height="17.1146" filterUnits="userSpaceOnUse" color-interpolation-filters="sRGB">
<feFlood flood-opacity="0" result="BackgroundImageFix"/>
<feColorMatrix in="SourceAlpha" type="matrix" values="0 0 0 0 0 0 0 0 0 0 0 0 0 0 0 0 0 0 127 0" result="hardAlpha"/>
<feOffset/>
<feGaussianBlur stdDeviation="3.15"/>
<feComposite in2="hardAlpha" operator="out"/>
<feColorMatrix type="matrix" values="0 0 0 0 1 0 0 0 0 1 0 0 0 0 1 0 0 0 0.25 0"/>
<feBlend mode="normal" in2="BackgroundImageFix" result="effect1_dropShadow_622_11174"/>
<feBlend mode="normal" in="SourceGraphic" in2="effect1_dropShadow_622_11174" result="shape"/>
</filter>
<filter id="filter8_d_622_11174" x="62.6219" y="26.253" width="17.1977" height="17.14" filterUnits="userSpaceOnUse" color-interpolation-filters="sRGB">
<feFlood flood-opacity="0" result="BackgroundImageFix"/>
<feColorMatrix in="SourceAlpha" type="matrix" values="0 0 0 0 0 0 0 0 0 0 0 0 0 0 0 0 0 0 127 0" result="hardAlpha"/>
<feOffset/>
<feGaussianBlur stdDeviation="3.15"/>
<feComposite in2="hardAlpha" operator="out"/>
<feColorMatrix type="matrix" values="0 0 0 0 1 0 0 0 0 1 0 0 0 0 1 0 0 0 0.25 0"/>
<feBlend mode="normal" in2="BackgroundImageFix" result="effect1_dropShadow_622_11174"/>
<feBlend mode="normal" in="SourceGraphic" in2="effect1_dropShadow_622_11174" result="shape"/>
</filter>
<filter id="filter9_d_622_11174" x="16.3768" y="26.253" width="17.1977" height="17.14" filterUnits="userSpaceOnUse" color-interpolation-filters="sRGB">
<feFlood flood-opacity="0" result="BackgroundImageFix"/>
<feColorMatrix in="SourceAlpha" type="matrix" values="0 0 0 0 0 0 0 0 0 0 0 0 0 0 0 0 0 0 127 0" result="hardAlpha"/>
<feOffset/>
<feGaussianBlur stdDeviation="3.15"/>
<feComposite in2="hardAlpha" operator="out"/>
<feColorMatrix type="matrix" values="0 0 0 0 1 0 0 0 0 1 0 0 0 0 1 0 0 0 0.25 0"/>
<feBlend mode="normal" in2="BackgroundImageFix" result="effect1_dropShadow_622_11174"/>
<feBlend mode="normal" in="SourceGraphic" in2="effect1_dropShadow_622_11174" result="shape"/>
</filter>
<linearGradient id="paint0_linear_622_11174" x1="55.4747" y1="12.522" x2="51.3871" y2="25.8066" gradientUnits="userSpaceOnUse">
<stop stop-color="#08542B"/>
<stop offset="1" stop-color="#04340A"/>
</linearGradient>
<linearGradient id="paint1_linear_622_11174" x1="50.3417" y1="17.5579" x2="43.7462" y2="33.6489" gradientUnits="userSpaceOnUse">
<stop stop-color="#77C86A"/>
<stop offset="1" stop-color="#207316"/>
</linearGradient>
<linearGradient id="paint2_linear_622_11174" x1="91.2406" y1="27.0839" x2="79.2333" y2="23.7627" gradientUnits="userSpaceOnUse">
<stop stop-color="#0D744F"/>
<stop offset="1" stop-color="#04370B"/>
</linearGradient>
<linearGradient id="paint3_linear_622_11174" x1="14.5988" y1="23.2519" x2="21.2411" y2="43.1789" gradientUnits="userSpaceOnUse">
<stop stop-color="#6AC879"/>
<stop offset="1" stop-color="#217616"/>
</linearGradient>
<linearGradient id="paint4_linear_622_11174" x1="34.2725" y1="19.1641" x2="64.1992" y2="22.0624" gradientUnits="userSpaceOnUse">
<stop stop-color="#77C86A"/>
<stop offset="1" stop-color="#07462F"/>
</linearGradient>
<linearGradient id="paint5_linear_622_11174" x1="35.1386" y1="21.314" x2="63.7645" y2="22.8645" gradientUnits="userSpaceOnUse">
<stop stop-color="#71C86A"/>
<stop offset="1" stop-color="#0D6143"/>
</linearGradient>
<linearGradient id="paint6_linear_622_11174" x1="47.1817" y1="33.0542" x2="60.3501" y2="33.8161" gradientUnits="userSpaceOnUse">
<stop stop-color="#E0F2D2"/>
<stop offset="1" stop-color="#1B9A2E"/>
</linearGradient>
<linearGradient id="paint7_linear_622_11174" x1="35.1102" y1="33.0542" x2="42.0871" y2="18.5804" gradientUnits="userSpaceOnUse">
<stop stop-color="#D2F2DB"/>
<stop offset="0.9999" stop-color="#1C6A8B"/>
<stop offset="1" stop-color="#1A6889"/>
<stop offset="1" stop-color="#216F91"/>
<stop offset="1" stop-color="#0A8593"/>
</linearGradient>
<linearGradient id="paint8_linear_622_11174" x1="47.8097" y1="70.0037" x2="48.3078" y2="57.9301" gradientUnits="userSpaceOnUse">
<stop stop-color="#299860"/>
<stop offset="0.994792" stop-color="#57BF6A"/>
</linearGradient>
<linearGradient id="paint9_linear_622_11174" x1="50.1768" y1="25.8066" x2="44.9768" y2="25.4967" gradientUnits="userSpaceOnUse">
<stop offset="0.0001" stop-color="#279F38"/>
<stop offset="1" stop-color="#C1E4B8"/>
</linearGradient>
<linearGradient id="paint10_linear_622_11174" x1="50.1768" y1="78.9453" x2="44.9768" y2="78.6354" gradientUnits="userSpaceOnUse">
<stop offset="0.0001" stop-color="#C0E3B7"/>
<stop offset="1" stop-color="#38A646"/>
</linearGradient>
<linearGradient id="paint11_linear_622_11174" x1="73.9135" y1="28.3742" x2="76.5776" y2="34.1825" gradientUnits="userSpaceOnUse">
<stop stop-color="#D4ECC8"/>
<stop offset="1" stop-color="#1E9B31"/>
</linearGradient>
<linearGradient id="paint12_linear_622_11174" x1="27.6684" y1="28.3742" x2="30.3324" y2="34.1825" gradientUnits="userSpaceOnUse">
<stop stop-color="#E0F2D2"/>
<stop offset="1" stop-color="#279F38"/>
</linearGradient>
</defs>
</svg>
