<svg width="69" height="73" viewBox="0 0 69 73" fill="none" xmlns="http://www.w3.org/2000/svg">
<g filter="url(#filter0_d_637_2988)">
<g filter="url(#filter1_d_637_2988)">
<path d="M54.8447 52.8608V33.0187L61.7106 23.981L52.5304 27.1337L37.494 19.0695L33.524 10.95L30.5791 19.0695L14.8782 27.1337L11.0919 25.5574L7.30566 23.981L12.7751 33.0187V52.8209C12.7751 55.6103 14.6093 58.0682 17.2848 58.8641L27.41 61.8763C28.6512 62.2456 29.7487 62.9875 30.5534 64.0014L34.155 68.5388L37.552 64.0646C38.3521 63.0107 39.4637 62.235 40.7295 61.8472L50.3842 58.8891C53.035 58.077 54.8447 55.6311 54.8447 52.8608Z" fill="url(#paint0_linear_637_2988)"/>
</g>
<g filter="url(#filter2_i_637_2988)">
<path d="M30.6201 21.2631L17.0249 30.0314C15.2244 31.1927 14.1367 33.1877 14.1367 35.329V51.9506C14.1367 54.7828 16.0265 57.2674 18.7574 58.0258L32.3776 61.808C33.4986 62.1193 34.6839 62.1148 35.8025 61.7952L48.9081 58.0501C51.6164 57.2761 53.4833 54.8024 53.4833 51.9878V35.2755C53.4833 33.1636 52.4251 31.1918 50.6645 30.0233L37.5339 21.3085C35.4434 19.921 32.7287 19.9032 30.6201 21.2631Z" fill="url(#paint1_linear_637_2988)"/>
</g>
<g filter="url(#filter3_d_637_2988)">
<path d="M29.1207 41.8783C29.1034 41.7214 29.1207 41.5529 29.115 41.3786C29.115 41.2914 29.1323 41.1927 29.1612 41.0997C29.1843 41.0125 29.1843 40.9196 29.2016 40.8382C29.2363 40.6814 29.2825 40.5303 29.3172 40.3734C29.375 40.1177 29.4848 39.8795 29.583 39.6355C29.6813 39.3856 29.82 39.1532 29.9586 38.9208C30.0916 38.6942 30.2534 38.4908 30.4267 38.2875C30.6694 38.0144 30.9295 37.7529 31.178 37.4856C31.3513 37.2997 31.5305 37.1254 31.7038 36.9453C32.039 36.6083 32.3799 36.2713 32.7035 35.9226C33.0503 35.5566 33.4028 35.2021 33.7553 34.8361C33.9113 34.6734 34.0846 34.5223 34.2349 34.348C34.4834 34.0575 34.7665 33.8018 35.0324 33.5287C35.1826 33.3777 35.3328 33.2266 35.4773 33.0697C35.824 32.692 36.2054 32.3492 36.5522 31.9657C36.8411 31.6462 37.1589 31.3498 37.4536 31.0361C37.679 30.7979 37.9044 30.5654 38.124 30.333C38.3147 30.1355 38.5227 29.967 38.7307 29.7926C38.9388 29.6183 39.1641 29.4789 39.3953 29.3394C39.6438 29.1942 39.9154 29.078 40.187 28.9792C40.3083 28.9385 40.4239 28.8804 40.5452 28.8572C40.6493 28.8397 40.7475 28.8049 40.8515 28.7933C41.0133 28.7758 41.1693 28.741 41.3311 28.7177C41.5739 28.6829 41.8223 28.6829 42.065 28.6829C42.3771 28.6829 42.6834 28.7293 42.9839 28.7874C43.319 28.8514 43.6426 28.9443 43.9489 29.0838C44.2494 29.2174 44.5441 29.3801 44.8215 29.566C45.1393 29.7868 45.434 30.0367 45.7056 30.3156C45.9483 30.5596 46.1448 30.8385 46.3413 31.1174C46.5898 31.4835 46.7689 31.8902 46.9192 32.3086C47.0463 32.6688 47.1272 33.0349 47.1734 33.4125C47.1965 33.6275 47.2254 33.8425 47.2197 34.0633C47.2139 34.2899 47.2197 34.5165 47.185 34.7431C47.1445 35.0046 47.1099 35.2719 47.0405 35.5275C46.9538 35.8413 46.8498 36.1492 46.7111 36.4398C46.4742 36.9627 46.1622 37.4275 45.775 37.8517C45.5092 38.148 45.226 38.4327 44.9486 38.7116C44.6655 38.9905 44.3939 39.281 44.128 39.5716C44.0125 39.6994 43.8969 39.8272 43.764 39.9376C43.6889 40.0073 43.6195 40.0887 43.5502 40.1584C43.4982 40.2107 43.4462 40.2572 43.3941 40.3095C43.1052 40.6116 42.8105 40.9022 42.5273 41.2101C42.3713 41.3786 42.2153 41.5471 42.0593 41.7098C41.7934 41.9829 41.5276 42.256 41.256 42.5291C40.9844 42.8022 40.707 43.0694 40.447 43.3541C40.0887 43.7434 39.7131 44.1211 39.3491 44.5104C39.1179 44.7544 38.8694 44.9869 38.6325 45.2251C38.3956 45.4633 38.1586 45.7015 37.9217 45.9398C37.7888 46.0734 37.6328 46.1838 37.4883 46.3C37.286 46.4569 37.0722 46.5963 36.8469 46.7126C36.4944 46.8927 36.1245 47.0379 35.7431 47.1483C35.512 47.2123 35.2693 47.2471 35.0324 47.2936C34.9688 47.3052 34.8994 47.3052 34.8359 47.311C34.5238 47.3343 34.2118 47.3052 33.8997 47.3052C33.8073 47.3052 33.7148 47.2762 33.6223 47.2645C33.5126 47.2471 33.4028 47.2181 33.293 47.1948C33.1023 47.1541 32.9173 47.096 32.7324 47.0438C32.5128 46.9798 32.3048 46.8752 32.0968 46.7823C31.9581 46.7184 31.8367 46.6254 31.7038 46.5557C31.594 46.4976 31.4958 46.4278 31.3975 46.3581C31.2646 46.2535 31.1317 46.1489 31.0046 46.0444C30.8255 45.8933 30.6579 45.7248 30.5018 45.5505C30.4036 45.4343 30.2996 45.3239 30.2071 45.2019C30.0453 44.9869 29.9124 44.7544 29.7853 44.522C29.6639 44.2954 29.5426 44.0688 29.4617 43.8248C29.375 43.5807 29.3172 43.3309 29.2421 43.0869C29.2132 42.9881 29.2132 42.8777 29.1901 42.7731C29.1265 42.4768 29.1092 42.1862 29.1207 41.8783ZM32.3741 45.7596C32.3915 45.7306 32.3857 45.7074 32.3857 45.6841C32.3857 45.4168 32.3857 45.1496 32.3857 44.8881C32.3857 43.511 32.3857 42.1398 32.3857 40.7627C32.3857 40.7162 32.3915 40.6872 32.4493 40.6872C32.8711 40.6872 33.293 40.6872 33.7148 40.693C33.7726 40.693 33.7957 40.6814 33.7899 40.6174C33.7899 40.0771 33.7899 39.5309 33.7899 38.9905C33.7899 38.6128 33.7899 38.241 33.7899 37.8633C33.7899 37.7703 33.7899 37.7703 33.8882 37.7645C33.9402 37.7645 33.998 37.7703 34.05 37.7529C34.0789 37.7471 34.1193 37.7645 34.1251 37.811C34.1251 37.8691 34.1367 37.9214 34.1367 37.9737C34.1367 38.8511 34.1367 39.7284 34.1367 40.6116C34.1367 40.6697 34.154 40.6872 34.2118 40.6814C34.6336 40.6814 35.0555 40.6814 35.4773 40.6755C35.5351 40.6755 35.5524 40.6872 35.5524 40.7453C35.5524 42.3199 35.5524 43.8945 35.5524 45.4633C35.5524 45.6551 35.5524 45.8526 35.5524 46.0444C35.5524 46.0908 35.564 46.1083 35.616 46.0908C35.6853 46.0676 35.7547 46.056 35.8183 46.0269C35.9396 45.9746 36.0667 45.9282 36.1881 45.8642C36.3268 45.7887 36.4713 45.7248 36.6099 45.6434C36.7775 45.5447 36.9278 45.4343 37.0838 45.3123C37.1763 45.2425 37.2629 45.1728 37.2225 45.0333C37.2225 45.0275 37.2225 45.0217 37.2225 45.0101C37.2225 42.6918 37.2283 40.3676 37.2283 38.0492C37.2283 37.3229 37.2283 36.5966 37.2283 35.8703C37.2283 35.7774 37.2283 35.7774 37.3207 35.7774C37.7252 35.7774 38.1355 35.7774 38.54 35.7774C38.6094 35.7774 38.6325 35.7541 38.6325 35.6844C38.6267 35.208 38.6325 34.7257 38.6325 34.2492C38.6325 33.8135 38.6325 33.3777 38.6325 32.9419C38.6325 32.8722 38.6556 32.8547 38.7192 32.8547C38.7827 32.8605 38.8463 32.8605 38.9041 32.8547C38.9561 32.8489 38.9677 32.8722 38.9677 32.9186C38.9677 33.8251 38.9677 34.7315 38.9677 35.6437C38.9677 35.6728 38.9734 35.7018 38.9619 35.7251C38.9388 35.7774 38.9677 35.7774 39.0023 35.7774C39.1063 35.7774 39.2161 35.7774 39.3202 35.7774C39.6438 35.7774 39.9674 35.7774 40.2852 35.7774C40.343 35.7774 40.3661 35.7948 40.3661 35.8529C40.3603 35.9284 40.3603 36.0098 40.3603 36.0853C40.3603 38.0028 40.3603 39.9144 40.3603 41.8318C40.3603 41.8551 40.3603 41.8725 40.3661 41.8957C40.3834 41.9422 40.395 41.948 40.4297 41.9132C40.499 41.8376 40.5684 41.7679 40.6377 41.6982C41.0075 41.3147 41.3832 40.9312 41.753 40.5477C42.2095 40.0771 42.666 39.6064 43.1283 39.1358C43.163 39.1009 43.1746 39.0603 43.1746 39.0138C43.1746 38.3165 43.1746 37.6135 43.1746 36.9162C43.1746 36.8581 43.1572 36.8407 43.0994 36.8407C42.6949 36.8465 42.2904 36.8407 41.8859 36.8407C41.7761 36.8407 41.7703 36.8639 41.7703 36.7303C41.7703 34.6502 41.7703 32.5642 41.7703 30.4841C41.7703 30.4318 41.7472 30.3853 41.753 30.333C41.7819 30.1645 41.7646 29.9902 41.7646 29.8217C41.7646 29.7055 41.7588 29.7055 41.649 29.7113C41.6316 29.7113 41.6085 29.7113 41.5912 29.7113C41.4698 29.7229 41.3485 29.7229 41.2271 29.7462C40.9613 29.7985 40.6955 29.8682 40.4354 29.967C40.135 30.0774 39.8518 30.2226 39.5918 30.4027C39.2681 30.6235 38.985 30.9024 38.7076 31.1813C38.4707 31.4196 38.2453 31.6578 38.0084 31.896C37.9102 31.9948 37.8119 32.0878 37.7195 32.1865C37.4305 32.4887 37.1416 32.7966 36.8526 33.1046C36.7833 33.1801 36.714 33.2673 36.6388 33.337C36.4828 33.4881 36.3383 33.645 36.1823 33.796C35.7605 34.2144 35.3386 34.6385 34.9399 35.0801C34.703 35.3416 34.4545 35.5856 34.206 35.8355C33.7899 36.2596 33.3623 36.678 32.952 37.108C32.536 37.5437 32.1257 37.9795 31.7038 38.4095C31.4033 38.7174 31.0971 39.0196 30.8659 39.3914C30.6983 39.6529 30.5481 39.926 30.4325 40.2165C30.2823 40.5942 30.1898 40.9835 30.1493 41.3844C30.1031 41.8318 30.1089 42.2792 30.2014 42.7208C30.2649 43.0229 30.3516 43.3193 30.4614 43.6098C30.5192 43.7667 30.6059 43.9119 30.6868 44.0572C31.0971 44.7893 31.6518 45.3529 32.3741 45.7596ZM44.9024 30.9315C44.8966 30.9664 44.8966 30.9838 44.8966 31.0012C44.8966 31.9309 44.8966 32.8547 44.8966 33.7844C44.8966 34.778 44.8966 35.7716 44.8966 36.7709C44.8966 36.8349 44.8851 36.8639 44.8099 36.8639C44.3939 36.8581 43.9836 36.8639 43.5675 36.8639C43.5039 36.8639 43.4866 36.8872 43.4866 36.9453C43.4866 37.5147 43.4866 38.0899 43.4866 38.6593C43.4866 38.6884 43.4866 38.7174 43.4866 38.7465C43.6369 38.6012 43.7813 38.4618 43.9258 38.3165C44.1627 38.0725 44.3996 37.8284 44.6366 37.5844C44.9255 37.2881 45.2202 36.9976 45.4514 36.6489C45.9079 35.9633 46.1506 35.2021 46.2026 34.3829C46.2315 33.9122 46.1795 33.4474 46.0639 32.9884C45.9426 32.5061 45.7461 32.0587 45.4687 31.6462C45.3127 31.3847 45.1162 31.1697 44.9024 30.9315Z" fill="url(#paint2_linear_637_2988)"/>
</g>
<g filter="url(#filter4_d_637_2988)">
<path d="M28.2895 44.3272C28.2262 44.3041 28.1916 44.258 28.1628 44.2176C28.0591 44.0791 27.9324 43.9579 27.8171 43.8309C27.6789 43.6751 27.5348 43.5193 27.3851 43.3693C27.097 43.075 26.8089 42.7807 26.5209 42.4864C26.3538 42.3132 26.1868 42.1459 26.0197 41.9785C25.8814 41.84 25.7547 41.69 25.6164 41.5573C25.553 41.4938 25.4954 41.4188 25.4148 41.3668C25.3456 41.3265 25.3226 41.2399 25.2592 41.1822C25.0749 41.0148 24.9136 40.8302 24.7292 40.6628C24.5852 40.5301 24.47 40.3627 24.3259 40.23C24.2338 40.1492 24.1531 40.0511 24.0552 39.9761C24.0091 39.9473 23.9918 39.8838 23.9515 39.8434C23.7613 39.6587 23.5712 39.4798 23.3926 39.2836C23.1507 39.0124 22.8857 38.7643 22.6437 38.493C22.4651 38.2968 22.2692 38.1122 22.0849 37.9217C21.8141 37.639 21.5664 37.3331 21.3532 37.0042C21.2495 36.8426 21.1689 36.6695 21.0767 36.5022C20.9903 36.3463 20.9384 36.179 20.8693 36.0232C20.7771 35.827 20.7483 35.6192 20.6849 35.4173C20.6446 35.2788 20.6273 35.1345 20.5985 34.996C20.5294 34.6094 20.5467 34.2227 20.5352 33.8303C20.5352 33.7264 20.5467 33.6226 20.5409 33.5187C20.5409 33.4379 20.5755 33.3514 20.587 33.2648C20.5985 33.2129 20.5928 33.1551 20.5985 33.1032C20.61 33.0167 20.6389 32.9359 20.6619 32.8493C20.731 32.555 20.8232 32.2722 20.9327 31.9895C20.996 31.8221 21.0594 31.649 21.1574 31.499C21.2841 31.3028 21.3993 31.095 21.5376 30.9103C21.6758 30.7199 21.8141 30.5295 21.9812 30.3621C22.1252 30.2121 22.275 30.0678 22.4363 29.9293C22.6956 29.6985 22.9778 29.4965 23.2832 29.3292C23.4675 29.2311 23.6576 29.1387 23.8478 29.0522C23.986 28.9887 24.1243 28.9368 24.2741 28.9021C24.3893 28.8733 24.493 28.8214 24.614 28.8098C24.7983 28.7925 24.9712 28.7463 25.1498 28.7175C25.409 28.6829 25.6683 28.6829 25.9275 28.6829C26.0312 28.6829 26.1349 28.6829 26.2328 28.6886C26.3365 28.6944 26.4402 28.7117 26.5439 28.729C26.688 28.7521 26.832 28.8098 26.9818 28.8156C27.1143 28.8214 27.2237 28.8906 27.3447 28.9195C27.5752 28.9714 27.7826 29.081 27.9957 29.1734C28.255 29.2888 28.4912 29.4331 28.7216 29.5946C28.8887 29.71 29.0615 29.8255 29.2171 29.964C29.3265 30.0621 29.4302 30.1659 29.5282 30.2698C29.8508 30.5987 30.1734 30.9277 30.496 31.2566C30.8474 31.6201 31.1989 31.9895 31.5561 32.3473C31.9939 32.7858 32.4145 33.2475 32.8581 33.6803C32.8753 33.6976 32.8926 33.7149 32.9099 33.7322C32.9329 33.7553 32.9272 33.7784 32.9041 33.8015C32.7428 33.963 32.5873 34.1189 32.426 34.2804C32.3741 34.3381 32.3108 34.3901 32.2647 34.4478C32.2243 34.4939 32.1955 34.4709 32.1667 34.4478C32.04 34.3208 31.9017 34.1996 31.7923 34.0554C31.677 33.9111 31.5272 33.8072 31.4235 33.6572C31.3775 33.5937 31.3083 33.5476 31.2565 33.4898C31.0376 33.2648 30.8244 33.0282 30.5997 32.8147C30.3981 32.6185 30.208 32.405 30.0063 32.203C29.8681 32.0645 29.7183 31.9375 29.5915 31.7875C29.4187 31.5798 29.2228 31.4009 29.0385 31.2047C28.8368 30.9911 28.6352 30.7776 28.399 30.5987C28.2607 30.4949 28.1167 30.391 27.9612 30.3044C27.8344 30.2294 27.7019 30.1659 27.5752 30.0967C27.4542 30.0332 27.3274 29.9813 27.1949 29.9409C27.0855 29.9062 26.9703 29.8659 26.855 29.837C26.6764 29.7908 26.4978 29.762 26.3193 29.7331C26.2271 29.7158 26.1349 29.7216 26.0427 29.7158C25.9851 29.71 25.9736 29.7331 25.9736 29.7851C25.9736 29.964 25.9736 30.1428 25.9736 30.316C25.9736 30.8757 25.9736 31.4355 25.9736 31.9952C25.9736 33.3398 25.9794 34.6902 25.9736 36.0347C25.9736 36.2656 25.9851 36.4964 25.9794 36.733C25.9794 36.7791 25.9736 36.808 25.9102 36.808C25.4954 36.808 25.0806 36.808 24.6658 36.808C24.5967 36.808 24.5794 36.8311 24.5794 36.9176C24.5794 37.5351 24.5794 38.1468 24.5794 38.7643C24.5794 38.8393 24.5852 38.9143 24.5737 38.9893C24.5679 39.0182 24.5794 39.0355 24.5967 39.0586C24.9885 39.4567 25.3802 39.8549 25.772 40.2589C26.1983 40.6974 26.6246 41.136 27.0509 41.5746C27.1546 41.6785 27.2641 41.7766 27.3735 41.8804C27.3735 41.7073 27.3735 41.5284 27.3735 41.3495C27.3735 39.5087 27.3735 37.6736 27.3735 35.8327C27.3735 35.7693 27.3966 35.752 27.4542 35.752C27.869 35.752 28.2838 35.752 28.6986 35.752C28.7677 35.752 28.7792 35.7289 28.7792 35.6654C28.7792 34.7594 28.7792 33.8592 28.7792 32.9532C28.7792 32.8493 28.7792 32.8493 28.8829 32.8493C28.929 32.8493 28.9809 32.8551 29.027 32.8493C29.0903 32.8435 29.1134 32.8666 29.1134 32.9359C29.1134 33.2648 29.1134 33.5937 29.1134 33.9227C29.1134 34.5113 29.1134 35.0941 29.1134 35.6827C29.1134 35.7462 29.1364 35.7693 29.194 35.7462C29.2344 35.7289 29.2747 35.752 29.3092 35.752C29.6837 35.752 30.0524 35.752 30.4269 35.752C30.4903 35.752 30.5248 35.7693 30.5075 35.8385C30.4845 35.9712 30.496 36.104 30.496 36.2309C30.496 36.2656 30.4845 36.2886 30.4615 36.3117C30.329 36.4387 30.2137 36.5714 30.0812 36.6984C29.9372 36.8426 29.7932 36.9869 29.6491 37.1369C29.4878 37.2985 29.3438 37.4716 29.2055 37.6505C29.1076 37.7775 29.0154 37.9044 28.929 38.0372C28.7792 38.2622 28.6352 38.493 28.52 38.7412C28.4105 38.972 28.3068 39.2086 28.2204 39.451C28.1455 39.6645 28.0649 39.8722 28.0188 40.0915C27.9784 40.2877 27.9266 40.4782 27.8978 40.6744C27.8805 40.8071 27.869 40.9398 27.8517 41.0725C27.8287 41.2514 27.8229 41.4246 27.8114 41.6034C27.7998 41.7708 27.7941 41.9381 27.8171 42.1055C27.8287 42.1863 27.8229 42.2728 27.8287 42.3536C27.8459 42.5152 27.8632 42.6768 27.8863 42.8326C27.9266 43.1211 28.0015 43.4039 28.0764 43.6809C28.1167 43.8309 28.1628 43.9752 28.2262 44.1137C28.2434 44.1829 28.278 44.2464 28.2895 44.3272ZM24.2165 38.6431C24.2165 38.6315 24.2222 38.6258 24.2222 38.62C24.2222 38.0545 24.2222 37.4889 24.2222 36.9234C24.2222 36.7791 24.2222 36.7849 24.084 36.7907C23.6865 36.808 23.2947 36.7965 22.8972 36.7965C22.8453 36.7965 22.8223 36.7791 22.8223 36.7214C22.8223 34.8344 22.8223 32.9416 22.8223 31.0546C22.8223 31.02 22.8396 30.9681 22.8108 30.9565C22.782 30.945 22.7647 30.9969 22.7416 31.02C22.4824 31.2681 22.2808 31.5624 22.1022 31.8683C21.8602 32.2895 21.7047 32.7397 21.6067 33.2129C21.5145 33.6572 21.5088 34.1073 21.5433 34.5574C21.5606 34.7767 21.6125 34.9902 21.6586 35.2037C21.7738 35.6827 21.9812 36.1271 22.252 36.5368C22.4766 36.883 22.7589 37.1773 23.0527 37.4716C23.214 37.639 23.3754 37.8063 23.5367 37.9737C23.7325 38.1699 23.9284 38.3661 24.1185 38.5681C24.1473 38.5969 24.1761 38.6258 24.2165 38.6431Z" fill="url(#paint3_linear_637_2988)"/>
</g>
<g filter="url(#filter5_d_637_2988)">
<path d="M12.7749 55.1114C12.7749 55.1114 22.2442 58.1909 33.7374 58.1909C45.2306 58.1909 54.8445 55.1114 54.8445 55.1114V44.4511C54.8445 44.4511 42.2138 48.6076 33.7374 48.5968C25.3159 48.586 12.7749 44.4511 12.7749 44.4511V55.1114Z" fill="url(#paint4_linear_637_2988)"/>
</g>
<path d="M31 51.3042H32.1845V55.2493H31V51.3042Z" fill="#528DFF"/>
<path d="M34.6165 55.0356L32.8745 51.5046H33.6772L35.2313 54.6977H34.7702L36.3414 51.5046H37.0815L35.3452 55.0356H34.6165Z" fill="#528DFF"/>
<path fill-rule="evenodd" clip-rule="evenodd" d="M32.5361 51.2944H33.8086L35.0029 53.7481L36.2103 51.2944H37.419L35.476 55.2458H34.4855L32.5361 51.2944ZM34.7677 54.226L33.5454 51.7148H33.2125L34.6098 54.547L34.7677 54.226ZM35.3714 54.5053L35.236 54.227L36.4722 51.7148H36.7436L35.3714 54.5053Z" fill="#528DFF"/>
<g filter="url(#filter6_d_637_2988)">
<path d="M34.749 21.4588C34.4251 22.0193 33.6155 22.0193 33.2916 21.4588L31.6521 18.6214C31.3283 18.0609 31.7331 17.3603 32.3808 17.3603L35.6598 17.3603C36.3075 17.3603 36.7123 18.0609 36.3885 18.6214L34.749 21.4588Z" fill="url(#paint5_linear_637_2988)"/>
</g>
<g filter="url(#filter7_d_637_2988)">
<path d="M34.749 65.5962C34.4251 66.1567 33.6155 66.1567 33.2916 65.5962L31.6521 62.7588C31.3283 62.1984 31.7331 61.4978 32.3808 61.4978L35.6598 61.4978C36.3075 61.4978 36.7123 62.1984 36.3885 62.7588L34.749 65.5962Z" fill="url(#paint6_linear_637_2988)"/>
</g>
</g>
<defs>
<filter id="filter0_d_637_2988" x="-3.29434" y="0.349951" width="75.6048" height="78.7889" filterUnits="userSpaceOnUse" color-interpolation-filters="sRGB">
<feFlood flood-opacity="0" result="BackgroundImageFix"/>
<feColorMatrix in="SourceAlpha" type="matrix" values="0 0 0 0 0 0 0 0 0 0 0 0 0 0 0 0 0 0 127 0" result="hardAlpha"/>
<feOffset/>
<feGaussianBlur stdDeviation="5.3"/>
<feComposite in2="hardAlpha" operator="out"/>
<feColorMatrix type="matrix" values="0 0 0 0 0.317647 0 0 0 0 0.54902 0 0 0 0 1 0 0 0 0.25 0"/>
<feBlend mode="normal" in2="BackgroundImageFix" result="effect1_dropShadow_637_2988"/>
<feBlend mode="normal" in="SourceGraphic" in2="effect1_dropShadow_637_2988" result="shape"/>
</filter>
<filter id="filter1_d_637_2988" x="2.20566" y="1.84995" width="64.6048" height="67.7889" filterUnits="userSpaceOnUse" color-interpolation-filters="sRGB">
<feFlood flood-opacity="0" result="BackgroundImageFix"/>
<feColorMatrix in="SourceAlpha" type="matrix" values="0 0 0 0 0 0 0 0 0 0 0 0 0 0 0 0 0 0 127 0" result="hardAlpha"/>
<feOffset dy="-4"/>
<feGaussianBlur stdDeviation="2.55"/>
<feComposite in2="hardAlpha" operator="out"/>
<feColorMatrix type="matrix" values="0 0 0 0 0 0 0 0 0 0 0 0 0 0 0 0 0 0 0.25 0"/>
<feBlend mode="normal" in2="BackgroundImageFix" result="effect1_dropShadow_637_2988"/>
<feBlend mode="normal" in="SourceGraphic" in2="effect1_dropShadow_637_2988" result="shape"/>
</filter>
<filter id="filter2_i_637_2988" x="14.1367" y="20.2554" width="41.3467" height="42.783" filterUnits="userSpaceOnUse" color-interpolation-filters="sRGB">
<feFlood flood-opacity="0" result="BackgroundImageFix"/>
<feBlend mode="normal" in="SourceGraphic" in2="BackgroundImageFix" result="shape"/>
<feColorMatrix in="SourceAlpha" type="matrix" values="0 0 0 0 0 0 0 0 0 0 0 0 0 0 0 0 0 0 127 0" result="hardAlpha"/>
<feOffset dx="2" dy="1"/>
<feGaussianBlur stdDeviation="1"/>
<feComposite in2="hardAlpha" operator="arithmetic" k2="-1" k3="1"/>
<feColorMatrix type="matrix" values="0 0 0 0 0 0 0 0 0 0 0 0 0 0 0 0 0 0 0.25 0"/>
<feBlend mode="normal" in2="shape" result="effect1_innerShadow_637_2988"/>
</filter>
<filter id="filter3_d_637_2988" x="28.5128" y="28.6829" width="21.3074" height="22.2372" filterUnits="userSpaceOnUse" color-interpolation-filters="sRGB">
<feFlood flood-opacity="0" result="BackgroundImageFix"/>
<feColorMatrix in="SourceAlpha" type="matrix" values="0 0 0 0 0 0 0 0 0 0 0 0 0 0 0 0 0 0 127 0" result="hardAlpha"/>
<feOffset dx="1" dy="2"/>
<feGaussianBlur stdDeviation="0.8"/>
<feComposite in2="hardAlpha" operator="out"/>
<feColorMatrix type="matrix" values="0 0 0 0 0 0 0 0 0 0 0 0 0 0 0 0 0 0 0.25 0"/>
<feBlend mode="normal" in2="BackgroundImageFix" result="effect1_dropShadow_637_2988"/>
<feBlend mode="normal" in="SourceGraphic" in2="effect1_dropShadow_637_2988" result="shape"/>
</filter>
<filter id="filter4_d_637_2988" x="19.9352" y="28.6829" width="15.5896" height="19.2443" filterUnits="userSpaceOnUse" color-interpolation-filters="sRGB">
<feFlood flood-opacity="0" result="BackgroundImageFix"/>
<feColorMatrix in="SourceAlpha" type="matrix" values="0 0 0 0 0 0 0 0 0 0 0 0 0 0 0 0 0 0 127 0" result="hardAlpha"/>
<feOffset dx="1" dy="2"/>
<feGaussianBlur stdDeviation="0.8"/>
<feComposite in2="hardAlpha" operator="out"/>
<feColorMatrix type="matrix" values="0 0 0 0 0 0 0 0 0 0 0 0 0 0 0 0 0 0 0.25 0"/>
<feBlend mode="normal" in2="BackgroundImageFix" result="effect1_dropShadow_637_2988"/>
<feBlend mode="normal" in="SourceGraphic" in2="effect1_dropShadow_637_2988" result="shape"/>
</filter>
<filter id="filter5_d_637_2988" x="12.7749" y="44.1512" width="45.3693" height="16.3397" filterUnits="userSpaceOnUse" color-interpolation-filters="sRGB">
<feFlood flood-opacity="0" result="BackgroundImageFix"/>
<feColorMatrix in="SourceAlpha" type="matrix" values="0 0 0 0 0 0 0 0 0 0 0 0 0 0 0 0 0 0 127 0" result="hardAlpha"/>
<feOffset dx="2" dy="1"/>
<feGaussianBlur stdDeviation="0.65"/>
<feComposite in2="hardAlpha" operator="out"/>
<feColorMatrix type="matrix" values="0 0 0 0 0 0 0 0 0 0 0 0 0 0 0 0 0 0 0.25 0"/>
<feBlend mode="normal" in2="BackgroundImageFix" result="effect1_dropShadow_637_2988"/>
<feBlend mode="normal" in="SourceGraphic" in2="effect1_dropShadow_637_2988" result="shape"/>
</filter>
<filter id="filter6_d_637_2988" x="25.2381" y="11.0604" width="17.5644" height="17.1188" filterUnits="userSpaceOnUse" color-interpolation-filters="sRGB">
<feFlood flood-opacity="0" result="BackgroundImageFix"/>
<feColorMatrix in="SourceAlpha" type="matrix" values="0 0 0 0 0 0 0 0 0 0 0 0 0 0 0 0 0 0 127 0" result="hardAlpha"/>
<feOffset/>
<feGaussianBlur stdDeviation="3.15"/>
<feComposite in2="hardAlpha" operator="out"/>
<feColorMatrix type="matrix" values="0 0 0 0 1 0 0 0 0 1 0 0 0 0 1 0 0 0 0.25 0"/>
<feBlend mode="normal" in2="BackgroundImageFix" result="effect1_dropShadow_637_2988"/>
<feBlend mode="normal" in="SourceGraphic" in2="effect1_dropShadow_637_2988" result="shape"/>
</filter>
<filter id="filter7_d_637_2988" x="29.2381" y="59.1978" width="9.56436" height="9.1188" filterUnits="userSpaceOnUse" color-interpolation-filters="sRGB">
<feFlood flood-opacity="0" result="BackgroundImageFix"/>
<feColorMatrix in="SourceAlpha" type="matrix" values="0 0 0 0 0 0 0 0 0 0 0 0 0 0 0 0 0 0 127 0" result="hardAlpha"/>
<feOffset/>
<feGaussianBlur stdDeviation="1.15"/>
<feComposite in2="hardAlpha" operator="out"/>
<feColorMatrix type="matrix" values="0 0 0 0 1 0 0 0 0 1 0 0 0 0 1 0 0 0 0.4 0"/>
<feBlend mode="normal" in2="BackgroundImageFix" result="effect1_dropShadow_637_2988"/>
<feBlend mode="normal" in="SourceGraphic" in2="effect1_dropShadow_637_2988" result="shape"/>
</filter>
<linearGradient id="paint0_linear_637_2988" x1="22.7976" y1="17.2552" x2="47.4377" y2="19.6435" gradientUnits="userSpaceOnUse">
<stop stop-color="#528DFF"/>
<stop offset="1" stop-color="#001D56"/>
</linearGradient>
<linearGradient id="paint1_linear_637_2988" x1="23.5105" y1="19.024" x2="47.0798" y2="20.3016" gradientUnits="userSpaceOnUse">
<stop stop-color="#528DFF"/>
<stop offset="1" stop-color="#093996"/>
</linearGradient>
<linearGradient id="paint2_linear_637_2988" x1="33.4267" y1="28.6829" x2="44.269" y2="29.3107" gradientUnits="userSpaceOnUse">
<stop stop-color="#A2C0FC"/>
<stop offset="1" stop-color="#2752A6"/>
</linearGradient>
<linearGradient id="paint3_linear_637_2988" x1="23.4868" y1="28.6829" x2="29.2237" y2="16.7717" gradientUnits="userSpaceOnUse">
<stop stop-color="#98B7F4"/>
<stop offset="0.9999" stop-color="#1C6A8B"/>
<stop offset="1" stop-color="#1A6889"/>
<stop offset="1" stop-color="#216F91"/>
<stop offset="1" stop-color="#0A8593"/>
</linearGradient>
<linearGradient id="paint4_linear_637_2988" x1="39.2787" y1="63.2849" x2="36.3827" y2="41.586" gradientUnits="userSpaceOnUse">
<stop offset="0.297027" stop-color="#0E3E9B"/>
<stop offset="0.994792" stop-color="#528DFF"/>
</linearGradient>
<linearGradient id="paint5_linear_637_2988" x1="35.8924" y1="22.7199" x2="31.611" y2="22.4645" gradientUnits="userSpaceOnUse">
<stop offset="0.0001" stop-color="#0B3993"/>
<stop offset="1" stop-color="#A7C5FF"/>
</linearGradient>
<linearGradient id="paint6_linear_637_2988" x1="35.8924" y1="66.8573" x2="31.611" y2="66.6019" gradientUnits="userSpaceOnUse">
<stop stop-color="#19479F"/>
<stop offset="1" stop-color="#9CB2FF"/>
</linearGradient>
</defs>
</svg>
