<svg width="64" height="62" viewBox="0 0 64 62" fill="none" xmlns="http://www.w3.org/2000/svg">
<path d="M38.3107 8.11307C38.3531 8.41204 33.441 15.4098 29.3091 21.7826C26.5312 21.5213 22.6374 21.4416 23.9867 19.597C26.372 16.3362 29.5247 13.1014 31.7264 9.50023L37.9897 0.857178C38.0214 1.93722 38.2297 7.54161 38.3107 8.11307Z" fill="url(#paint0_linear_637_2820)"/>
<path d="M24.7162 8.23469C24.6793 8.53439 29.7196 15.4405 33.9684 21.7362C36.741 21.4237 40.6327 21.2724 39.2496 19.4529C36.8046 16.2366 33.5927 13.0604 31.325 9.50039L24.9033 0.974121C24.8916 2.05456 24.7866 7.66184 24.7162 8.23469Z" fill="url(#paint1_linear_637_2820)"/>
<path d="M21.2425 9.63419C21.2697 9.8436 27.4027 15.0377 32.6702 19.7511C35.1983 19.7039 38.806 19.8405 37.1386 18.4686C34.191 16.0435 30.5347 13.5988 27.6822 10.9419L19.9243 4.51685C20.1356 5.27936 21.1906 9.23393 21.2425 9.63419Z" fill="url(#paint2_linear_637_2820)"/>
<path d="M41.9208 9.37278C41.9015 9.58306 35.9674 15.0029 30.8802 19.91C28.3521 19.9574 24.752 20.2289 26.3669 18.7956C29.2215 16.262 32.7837 13.6822 35.5346 10.9205L43.0464 4.20972C42.8639 4.9796 41.9577 8.97085 41.9208 9.37278Z" fill="url(#paint3_linear_637_2820)"/>
<path d="M62.4732 16.286C62.0525 16.7184 54.6328 26.375 49.213 31.7781C47.2044 29.6176 44.2858 26.9544 45.9706 25.4913C48.9488 22.905 52.4987 20.8568 55.4605 17.7159L63.3101 10.8218C62.8364 12.293 62.6777 16.0758 62.4732 16.286Z" fill="url(#paint4_linear_637_2820)"/>
<path d="M59.9493 30.9987C59.5286 31.4311 52.1089 41.0876 46.6891 46.4908C44.6805 44.3303 41.7618 41.667 43.4466 40.204C46.4249 37.6177 49.9747 35.5694 52.9365 32.4285L60.7861 25.5344C60.3124 27.0057 60.1537 30.7885 59.9493 30.9987Z" fill="url(#paint5_linear_637_2820)"/>
<path d="M61.6319 23.0121C61.2112 23.4445 53.7915 33.1011 48.3717 38.5042C46.3631 36.3437 43.4445 33.6804 45.1292 32.2174C48.1075 29.6311 51.6574 27.5828 54.6191 24.4419L62.4688 17.5479C61.9951 19.0191 61.8364 22.8019 61.6319 23.0121Z" fill="url(#paint6_linear_637_2820)"/>
<path d="M2.94471 15.8656C3.36541 16.298 10.1294 25.9546 15.5492 31.3577C17.5578 29.1972 20.4764 26.534 18.7917 25.0709C15.8134 22.4846 12.2635 20.4364 9.30176 17.2955L1.45215 10.4014C1.92584 11.8726 2.74023 15.6554 2.94471 15.8656Z" fill="url(#paint7_linear_637_2820)"/>
<path d="M5.46913 29.3175C5.88982 29.7499 12.6538 39.4065 18.0736 44.8096C20.0822 42.6491 23.0008 39.9859 21.3161 38.5228C18.3378 35.9365 14.7879 33.8883 11.8262 30.7474L3.97656 23.8533C4.45026 25.3245 5.26464 29.1073 5.46913 29.3175Z" fill="url(#paint8_linear_637_2820)"/>
<path d="M3.78651 22.171C4.20721 22.6034 10.9712 32.26 16.391 37.6632C18.3996 35.5026 21.3182 32.8394 19.6334 31.3763C16.6552 28.79 13.1053 26.7418 10.1436 23.6009L2.29395 16.7068C2.76764 18.178 3.58203 21.9608 3.78651 22.171Z" fill="url(#paint9_linear_637_2820)"/>
<path d="M52.874 42.8084V22.8021L59.7399 13.7645L55.1114 15.2357L50.5597 16.9171L35.5233 8.85293L34.9921 6.16566C34.8051 5.21996 34.396 4.33219 33.7982 3.57551L31.5533 0.733398L29.8151 3.7321C29.4342 4.38941 29.1797 5.1122 29.065 5.8631L28.6084 8.85293L12.9075 16.9171L9.67626 15.6561L5.33496 13.7645L10.8044 22.8021V42.7699C10.8044 45.4611 12.574 47.8324 15.1553 48.6003L25.1105 51.562C26.5152 51.9799 27.6349 53.0442 28.1227 54.4252C28.4387 55.3197 29.025 56.094 29.8006 56.641L32.1843 58.3223L34.3932 56.6538C35.1306 56.0967 35.6901 55.3375 36.0036 54.4685C36.5124 53.0575 37.6565 51.9684 39.0916 51.5287L48.5706 48.6245C51.128 47.8409 52.874 45.4812 52.874 42.8084Z" fill="url(#paint10_linear_637_2820)"/>
<g filter="url(#filter0_i_637_2820)">
<path d="M28.7717 10.9671L14.9525 19.8799C13.2154 21.0003 12.166 22.925 12.166 24.9909V41.9022C12.166 44.6346 13.9893 47.0318 16.624 47.7634L30.4673 51.6076C31.5488 51.9079 32.6923 51.9036 33.7716 51.5952L47.0985 47.7869C49.7114 47.0402 51.5126 44.6536 51.5126 41.9381V24.9393C51.5126 22.9017 50.4917 20.9994 48.793 19.872L35.442 11.0109C33.4251 9.67226 30.806 9.65508 28.7717 10.9671Z" fill="url(#paint11_linear_637_2820)"/>
</g>
<g filter="url(#filter1_d_637_2820)">
<path d="M27.15 31.662C27.1327 31.5051 27.15 31.3366 27.1443 31.1623C27.1443 31.0751 27.1616 30.9764 27.1905 30.8834C27.2136 30.7962 27.2136 30.7033 27.2309 30.6219C27.2656 30.465 27.3118 30.314 27.3465 30.1571C27.4043 29.9014 27.5141 29.6632 27.6123 29.4192C27.7106 29.1693 27.8493 28.9369 27.9879 28.7045C28.1209 28.4779 28.2827 28.2745 28.456 28.0712C28.6987 27.7981 28.9588 27.5366 29.2073 27.2693C29.3806 27.0834 29.5598 26.9091 29.7331 26.729C30.0683 26.3919 30.4092 26.0549 30.7328 25.7063C31.0796 25.3403 31.4321 24.9858 31.7846 24.6198C31.9406 24.4571 32.1139 24.306 32.2642 24.1317C32.5127 23.8412 32.7958 23.5855 33.0616 23.3124C33.2119 23.1614 33.3621 23.0103 33.5066 22.8534C33.8533 22.4757 34.2347 22.1329 34.5815 21.7494C34.8704 21.4299 35.1882 21.1335 35.4829 20.8198C35.7083 20.5815 35.9337 20.3491 36.1533 20.1167C36.344 19.9192 36.552 19.7507 36.76 19.5763C36.9681 19.402 37.1934 19.2626 37.4246 19.1231C37.6731 18.9779 37.9447 18.8617 38.2163 18.7629C38.3376 18.7222 38.4532 18.6641 38.5745 18.6409C38.6786 18.6234 38.7768 18.5886 38.8808 18.577C39.0426 18.5595 39.1986 18.5247 39.3604 18.5014C39.6031 18.4666 39.8516 18.4666 40.0943 18.4666C40.4064 18.4666 40.7127 18.513 41.0132 18.5711C41.3483 18.6351 41.6719 18.728 41.9782 18.8675C42.2787 19.0011 42.5734 19.1638 42.8508 19.3497C43.1686 19.5705 43.4633 19.8204 43.7349 20.0993C43.9776 20.3433 44.1741 20.6222 44.3706 20.9011C44.6191 21.2672 44.7982 21.6739 44.9485 22.0922C45.0756 22.4525 45.1565 22.8185 45.2027 23.1962C45.2258 23.4112 45.2547 23.6262 45.249 23.847C45.2432 24.0736 45.2489 24.3002 45.2143 24.5268C45.1738 24.7883 45.1392 25.0556 45.0698 25.3112C44.9831 25.625 44.8791 25.9329 44.7404 26.2234C44.5035 26.7464 44.1914 27.2112 43.8043 27.6354C43.5385 27.9317 43.2553 28.2164 42.9779 28.4953C42.6948 28.7742 42.4232 29.0647 42.1573 29.3553C42.0418 29.4831 41.9262 29.6109 41.7933 29.7213C41.7182 29.791 41.6488 29.8724 41.5795 29.9421C41.5275 29.9944 41.4755 30.0409 41.4234 30.0932C41.1345 30.3953 40.8398 30.6858 40.5566 30.9938C40.4006 31.1623 40.2446 31.3308 40.0886 31.4935C39.8227 31.7666 39.5569 32.0397 39.2853 32.3128C39.0137 32.5858 38.7363 32.8531 38.4763 33.1378C38.118 33.5271 37.7424 33.9048 37.3783 34.2941C37.1472 34.5381 36.8987 34.7706 36.6618 35.0088C36.4249 35.247 36.1879 35.4852 35.951 35.7235C35.8181 35.8571 35.6621 35.9675 35.5176 36.0837C35.3153 36.2406 35.1015 36.38 34.8762 36.4963C34.5237 36.6764 34.1538 36.8216 33.7724 36.932C33.5413 36.9959 33.2986 37.0308 33.0616 37.0773C32.9981 37.0889 32.9287 37.0889 32.8652 37.0947C32.5531 37.118 32.2411 37.0889 31.929 37.0889C31.8366 37.0889 31.7441 37.0599 31.6516 37.0482C31.5418 37.0308 31.4321 37.0018 31.3223 36.9785C31.1316 36.9378 30.9466 36.8797 30.7617 36.8274C30.5421 36.7635 30.3341 36.6589 30.1261 36.566C29.9874 36.5021 29.866 36.4091 29.7331 36.3394C29.6233 36.2813 29.5251 36.2115 29.4268 36.1418C29.2939 36.0372 29.161 35.9326 29.0339 35.8281C28.8547 35.677 28.6872 35.5085 28.5311 35.3342C28.4329 35.218 28.3289 35.1076 28.2364 34.9855C28.0746 34.7706 27.9417 34.5381 27.8146 34.3057C27.6932 34.0791 27.5719 33.8525 27.491 33.6085C27.4043 33.3644 27.3465 33.1146 27.2714 32.8706C27.2425 32.7718 27.2425 32.6614 27.2194 32.5568C27.1558 32.2605 27.1385 31.9699 27.15 31.662ZM30.4034 35.5433C30.4208 35.5143 30.415 35.491 30.415 35.4678C30.415 35.2005 30.415 34.9333 30.415 34.6718C30.415 33.2947 30.415 31.9235 30.415 30.5464C30.415 30.4999 30.4208 30.4709 30.4786 30.4709C30.9004 30.4709 31.3223 30.4709 31.7441 30.4767C31.8019 30.4767 31.825 30.465 31.8192 30.4011C31.8192 29.8608 31.8192 29.3146 31.8192 28.7742C31.8192 28.3965 31.8192 28.0247 31.8192 27.647C31.8192 27.554 31.8192 27.554 31.9175 27.5482C31.9695 27.5482 32.0273 27.554 32.0793 27.5366C32.1082 27.5308 32.1486 27.5482 32.1544 27.5947C32.1544 27.6528 32.1659 27.7051 32.1659 27.7574C32.1659 28.6348 32.1659 29.5121 32.1659 30.3953C32.1659 30.4534 32.1833 30.4709 32.2411 30.465C32.6629 30.465 33.0848 30.465 33.5066 30.4592C33.5644 30.4592 33.5817 30.4709 33.5817 30.529C33.5817 32.1036 33.5817 33.6782 33.5817 35.247C33.5817 35.4388 33.5817 35.6363 33.5817 35.8281C33.5817 35.8745 33.5933 35.892 33.6453 35.8745C33.7146 35.8513 33.784 35.8397 33.8476 35.8106C33.9689 35.7583 34.096 35.7118 34.2174 35.6479C34.3561 35.5724 34.5005 35.5085 34.6392 35.4271C34.8068 35.3284 34.9571 35.218 35.1131 35.0959C35.2056 35.0262 35.2922 34.9565 35.2518 34.817C35.2518 34.8112 35.2518 34.8054 35.2518 34.7938C35.2518 32.4754 35.2576 30.1513 35.2576 27.8329C35.2576 27.1066 35.2576 26.3803 35.2576 25.654C35.2576 25.5611 35.2576 25.5611 35.35 25.5611C35.7545 25.5611 36.1648 25.5611 36.5693 25.5611C36.6387 25.5611 36.6618 25.5378 36.6618 25.4681C36.656 24.9916 36.6618 24.5094 36.6618 24.0329C36.6618 23.5971 36.6618 23.1614 36.6618 22.7256C36.6618 22.6559 36.6849 22.6384 36.7485 22.6384C36.812 22.6442 36.8756 22.6442 36.9334 22.6384C36.9854 22.6326 36.997 22.6559 36.997 22.7023C36.997 23.6088 36.997 24.5152 36.997 25.4274C36.997 25.4565 37.0027 25.4855 36.9912 25.5088C36.9681 25.5611 36.997 25.5611 37.0316 25.5611C37.1356 25.5611 37.2454 25.5611 37.3495 25.5611C37.6731 25.5611 37.9967 25.5611 38.3145 25.5611C38.3723 25.5611 38.3954 25.5785 38.3954 25.6366C38.3896 25.7121 38.3896 25.7935 38.3896 25.869C38.3896 27.7864 38.3896 29.6981 38.3896 31.6155C38.3896 31.6387 38.3896 31.6562 38.3954 31.6794C38.4127 31.7259 38.4243 31.7317 38.459 31.6969C38.5283 31.6213 38.5977 31.5516 38.667 31.4819C39.0368 31.0984 39.4125 30.7149 39.7823 30.3314C40.2388 29.8608 40.6953 29.3901 41.1576 28.9195C41.1923 28.8846 41.2039 28.8439 41.2039 28.7975C41.2039 28.1002 41.2039 27.3972 41.2039 26.6999C41.2039 26.6418 41.1865 26.6244 41.1287 26.6244C40.7242 26.6302 40.3197 26.6244 39.9152 26.6244C39.8054 26.6244 39.7996 26.6476 39.7996 26.514C39.7996 24.4338 39.7996 22.3479 39.7996 20.2678C39.7996 20.2155 39.7765 20.169 39.7823 20.1167C39.8112 19.9482 39.7938 19.7739 39.7938 19.6054C39.7938 19.4892 39.7881 19.4892 39.6783 19.495C39.6609 19.495 39.6378 19.495 39.6205 19.495C39.4991 19.5066 39.3778 19.5066 39.2564 19.5299C38.9906 19.5822 38.7248 19.6519 38.4647 19.7507C38.1642 19.861 37.8811 20.0063 37.6211 20.1864C37.2974 20.4072 37.0143 20.6861 36.7369 20.965C36.5 21.2033 36.2746 21.4415 36.0377 21.6797C35.9394 21.7785 35.8412 21.8715 35.7487 21.9702C35.4598 22.2724 35.1709 22.5803 34.8819 22.8883C34.8126 22.9638 34.7433 23.051 34.6681 23.1207C34.5121 23.2718 34.3676 23.4286 34.2116 23.5797C33.7898 23.9981 33.3679 24.4222 32.9692 24.8638C32.7323 25.1253 32.4838 25.3693 32.2353 25.6192C31.8192 26.0433 31.3916 26.4617 30.9813 26.8916C30.5652 27.3274 30.155 27.7632 29.7331 28.1932C29.4326 28.5011 29.1263 28.8033 28.8952 29.1751C28.7276 29.4366 28.5774 29.7097 28.4618 30.0002C28.3116 30.3779 28.2191 30.7672 28.1786 31.1681C28.1324 31.6155 28.1382 32.0629 28.2306 32.5045C28.2942 32.8066 28.3809 33.103 28.4907 33.3935C28.5485 33.5504 28.6352 33.6956 28.7161 33.8409C29.1263 34.573 29.6811 35.1366 30.4034 35.5433ZM42.9317 20.7152C42.9259 20.75 42.9259 20.7675 42.9259 20.7849C42.9259 21.7146 42.9259 22.6384 42.9259 23.5681C42.9259 24.5617 42.9259 25.5552 42.9259 26.5546C42.9259 26.6186 42.9144 26.6476 42.8392 26.6476C42.4232 26.6418 42.0129 26.6476 41.5968 26.6476C41.5332 26.6476 41.5159 26.6708 41.5159 26.729C41.5159 27.2984 41.5159 27.8736 41.5159 28.443C41.5159 28.4721 41.5159 28.5011 41.5159 28.5302C41.6661 28.3849 41.8106 28.2455 41.9551 28.1002C42.192 27.8562 42.4289 27.6121 42.6659 27.3681C42.9548 27.0718 43.2495 26.7812 43.4807 26.4326C43.9372 25.747 44.1799 24.9858 44.2319 24.1666C44.2608 23.6959 44.2088 23.2311 44.0932 22.7721C43.9719 22.2898 43.7754 21.8424 43.498 21.4299C43.342 21.1684 43.1455 20.9534 42.9317 20.7152Z" fill="url(#paint12_linear_637_2820)"/>
</g>
<g filter="url(#filter2_d_637_2820)">
<path d="M26.3193 34.1109C26.256 34.0878 26.2214 34.0417 26.1926 34.0013C26.0889 33.8628 25.9621 33.7416 25.8469 33.6146C25.7087 33.4588 25.5646 33.303 25.4148 33.153C25.1268 32.8587 24.8387 32.5644 24.5507 32.2701C24.3836 32.0969 24.2165 31.9296 24.0495 31.7622C23.9112 31.6237 23.7845 31.4737 23.6462 31.341C23.5828 31.2775 23.5252 31.2025 23.4446 31.1505C23.3754 31.1101 23.3524 31.0236 23.289 30.9659C23.1047 30.7985 22.9433 30.6139 22.759 30.4465C22.615 30.3138 22.4997 30.1464 22.3557 30.0137C22.2635 29.9329 22.1829 29.8348 22.0849 29.7598C22.0389 29.7309 22.0216 29.6675 21.9812 29.6271C21.7911 29.4424 21.601 29.2635 21.4224 29.0673C21.1805 28.7961 20.9155 28.548 20.6735 28.2767C20.4949 28.0805 20.299 27.8959 20.1147 27.7054C19.8439 27.4227 19.5962 27.1168 19.383 26.7879C19.2793 26.6263 19.1987 26.4532 19.1065 26.2858C19.0201 26.13 18.9682 25.9627 18.8991 25.8069C18.8069 25.6107 18.7781 25.4029 18.7147 25.201C18.6744 25.0625 18.6571 24.9182 18.6283 24.7797C18.5592 24.3931 18.5765 24.0064 18.5649 23.614C18.5649 23.5101 18.5765 23.4063 18.5707 23.3024C18.5707 23.2216 18.6053 23.135 18.6168 23.0485C18.6283 22.9965 18.6226 22.9388 18.6283 22.8869C18.6398 22.8003 18.6686 22.7196 18.6917 22.633C18.7608 22.3387 18.853 22.0559 18.9625 21.7732C19.0258 21.6058 19.0892 21.4327 19.1871 21.2827C19.3139 21.0864 19.4291 20.8787 19.5674 20.694C19.7056 20.5036 19.8439 20.3132 20.011 20.1458C20.155 19.9958 20.3048 19.8515 20.4661 19.713C20.7253 19.4822 21.0076 19.2802 21.313 19.1129C21.4973 19.0148 21.6874 18.9224 21.8775 18.8359C22.0158 18.7724 22.1541 18.7205 22.3039 18.6858C22.4191 18.657 22.5228 18.6051 22.6438 18.5935C22.8281 18.5762 23.001 18.53 23.1795 18.5012C23.4388 18.4666 23.698 18.4666 23.9573 18.4666C24.061 18.4666 24.1647 18.4666 24.2626 18.4723C24.3663 18.4781 24.47 18.4954 24.5737 18.5127C24.7177 18.5358 24.8618 18.5935 25.0116 18.5993C25.1441 18.6051 25.2535 18.6743 25.3745 18.7032C25.605 18.7551 25.8123 18.8647 26.0255 18.9571C26.2848 19.0725 26.521 19.2167 26.7514 19.3783C26.9185 19.4937 27.0913 19.6092 27.2469 19.7476C27.3563 19.8457 27.46 19.9496 27.5579 20.0535C27.8806 20.3824 28.2032 20.7114 28.5258 21.0403C28.8772 21.4038 29.2287 21.7732 29.5858 22.1309C30.0237 22.5695 30.4442 23.0312 30.8878 23.464C30.9051 23.4813 30.9224 23.4986 30.9397 23.5159C30.9627 23.539 30.957 23.5621 30.9339 23.5852C30.7726 23.7467 30.6171 23.9025 30.4558 24.0641C30.4039 24.1218 30.3405 24.1738 30.2945 24.2315C30.2541 24.2776 30.2253 24.2546 30.1965 24.2315C30.0698 24.1045 29.9315 23.9833 29.822 23.8391C29.7068 23.6948 29.557 23.5909 29.4533 23.4409C29.4072 23.3774 29.3381 23.3312 29.2863 23.2735C29.0673 23.0485 28.8542 22.8119 28.6295 22.5984C28.4279 22.4022 28.2378 22.1886 28.0361 21.9867C27.8979 21.8482 27.7481 21.7212 27.6213 21.5712C27.4485 21.3634 27.2526 21.1846 27.0683 20.9883C26.8666 20.7748 26.665 20.5613 26.4288 20.3824C26.2905 20.2786 26.1465 20.1747 25.9909 20.0881C25.8642 20.0131 25.7317 19.9496 25.605 19.8804C25.484 19.8169 25.3572 19.765 25.2247 19.7246C25.1153 19.6899 25 19.6495 24.8848 19.6207C24.7062 19.5745 24.5276 19.5457 24.349 19.5168C24.2569 19.4995 24.1647 19.5053 24.0725 19.4995C24.0149 19.4937 24.0034 19.5168 24.0034 19.5688C24.0034 19.7476 24.0034 19.9265 24.0034 20.0997C24.0034 20.6594 24.0034 21.2192 24.0034 21.7789C24.0034 23.1235 24.0091 24.4738 24.0034 25.8184C24.0034 26.0492 24.0149 26.2801 24.0091 26.5167C24.0091 26.5628 24.0034 26.5917 23.94 26.5917C23.5252 26.5917 23.1104 26.5917 22.6956 26.5917C22.6265 26.5917 22.6092 26.6148 22.6092 26.7013C22.6092 27.3188 22.6092 27.9305 22.6092 28.548C22.6092 28.623 22.615 28.698 22.6034 28.773C22.5977 28.8019 22.6092 28.8192 22.6265 28.8423C23.0182 29.2404 23.41 29.6386 23.8017 30.0426C24.2281 30.4811 24.6544 30.9197 25.0807 31.3583C25.1844 31.4622 25.2939 31.5603 25.4033 31.6641C25.4033 31.491 25.4033 31.3121 25.4033 31.1332C25.4033 29.2924 25.4033 27.4573 25.4033 25.6164C25.4033 25.553 25.4264 25.5357 25.484 25.5357C25.8988 25.5357 26.3136 25.5357 26.7284 25.5357C26.7975 25.5357 26.809 25.5126 26.809 25.4491C26.809 24.5431 26.809 23.6429 26.809 22.7369C26.809 22.633 26.809 22.633 26.9127 22.633C26.9588 22.633 27.0106 22.6388 27.0567 22.633C27.1201 22.6272 27.1432 22.6503 27.1432 22.7196C27.1432 23.0485 27.1432 23.3774 27.1432 23.7063C27.1432 24.295 27.1432 24.8778 27.1432 25.4664C27.1432 25.5299 27.1662 25.553 27.2238 25.5299C27.2641 25.5126 27.3045 25.5357 27.339 25.5357C27.7135 25.5357 28.0822 25.5357 28.4567 25.5357C28.52 25.5357 28.5546 25.553 28.5373 25.6222C28.5143 25.7549 28.5258 25.8877 28.5258 26.0146C28.5258 26.0492 28.5143 26.0723 28.4912 26.0954C28.3587 26.2224 28.2435 26.3551 28.111 26.482C27.967 26.6263 27.823 26.7706 27.6789 26.9206C27.5176 27.0822 27.3736 27.2553 27.2353 27.4342C27.1374 27.5612 27.0452 27.6881 26.9588 27.8208C26.809 28.0459 26.665 28.2767 26.5498 28.5249C26.4403 28.7557 26.3366 28.9923 26.2502 29.2347C26.1753 29.4482 26.0946 29.6559 26.0486 29.8752C26.0082 30.0714 25.9564 30.2619 25.9276 30.4581C25.9103 30.5908 25.8988 30.7235 25.8815 30.8562C25.8584 31.0351 25.8527 31.2082 25.8412 31.3871C25.8296 31.5545 25.8239 31.7218 25.8469 31.8892C25.8584 31.97 25.8527 32.0565 25.8584 32.1373C25.8757 32.2989 25.893 32.4605 25.916 32.6163C25.9564 32.9048 26.0313 33.1876 26.1062 33.4646C26.1465 33.6146 26.1926 33.7589 26.256 33.8974C26.2732 33.9666 26.3078 34.0301 26.3193 34.1109ZM22.2463 28.4268C22.2463 28.4152 22.252 28.4095 22.252 28.4037C22.252 27.8382 22.252 27.2726 22.252 26.7071C22.252 26.5628 22.252 26.5686 22.1138 26.5744C21.7162 26.5917 21.3245 26.5801 20.927 26.5801C20.8751 26.5801 20.8521 26.5628 20.8521 26.5051C20.8521 24.6181 20.8521 22.7253 20.8521 20.8383C20.8521 20.8037 20.8694 20.7517 20.8406 20.7402C20.8118 20.7287 20.7945 20.7806 20.7714 20.8037C20.5122 21.0518 20.3105 21.3461 20.1319 21.652C19.89 22.0732 19.7344 22.5234 19.6365 22.9965C19.5443 23.4409 19.5386 23.891 19.5731 24.3411C19.5904 24.5604 19.6423 24.7739 19.6883 24.9874C19.8036 25.4664 20.011 25.9107 20.2817 26.3205C20.5064 26.6667 20.7887 26.961 21.0825 27.2553C21.2438 27.4227 21.4051 27.59 21.5665 27.7574C21.7623 27.9536 21.9582 28.1498 22.1483 28.3518C22.1771 28.3806 22.2059 28.4095 22.2463 28.4268Z" fill="url(#paint13_linear_637_2820)"/>
</g>
<path d="M10.8047 44.8948C10.8047 44.8948 20.274 47.9744 31.7672 47.9744C43.2604 47.9744 52.8742 44.8948 52.8742 44.8948V34.2345C52.8742 34.2345 40.2435 38.3911 31.7672 38.3802C23.3457 38.3694 10.8047 34.2345 10.8047 34.2345V44.8948Z" fill="url(#paint14_linear_637_2820)"/>
<g filter="url(#filter3_d_637_2820)">
<path d="M32.7524 11.2868C32.44 11.8276 31.6589 11.8276 31.3464 11.2868L29.6556 8.36061C29.3432 7.81987 29.7337 7.14394 30.3586 7.14394L33.7402 7.14394C34.3651 7.14394 34.7557 7.81987 34.4433 8.36061L32.7524 11.2868Z" fill="url(#paint15_linear_637_2820)"/>
</g>
<g filter="url(#filter4_d_637_2820)">
<path d="M32.7524 55.0041C32.44 55.5449 31.6589 55.5449 31.3464 55.0041L29.6556 52.0779C29.3432 51.5372 29.7337 50.8612 30.3586 50.8612L33.7402 50.8612C34.3651 50.8612 34.7557 51.5372 34.4433 52.0779L32.7524 55.0041Z" fill="url(#paint16_linear_637_2820)"/>
</g>
<g filter="url(#filter5_d_637_2820)">
<path d="M53.6716 20.3304C54.032 20.8405 53.7046 21.5491 53.0823 21.6059L49.7147 21.9133C49.0924 21.9701 48.6419 21.3324 48.9038 20.7655L50.3212 17.6978C50.5831 17.1309 51.361 17.0599 51.7214 17.57L53.6716 20.3304Z" fill="url(#paint17_linear_637_2820)"/>
</g>
<g filter="url(#filter6_d_637_2820)">
<path d="M15.5955 20.3304C15.9558 20.8405 15.6284 21.5491 15.0061 21.6059L11.6385 21.9133C11.0162 21.9701 10.5657 21.3324 10.8277 20.7655L12.2451 17.6978C12.507 17.1309 13.2849 17.0599 13.6452 17.57L15.5955 20.3304Z" fill="url(#paint18_linear_637_2820)"/>
</g>
<path d="M29.4487 40.667H30.5915V44.4732H29.4487V40.667Z" fill="#F2DFD2"/>
<path d="M34.0469 44.3285L33.417 43.4071L32.7416 44.3285H31.4038L32.7416 42.57L31.4428 40.8115H32.8325L33.4559 41.7005L34.1054 40.8115H35.4107L34.1119 42.5246L35.4561 44.3285H34.0469Z" fill="#F2DFD2"/>
<defs>
<filter id="filter0_i_637_2820" x="12.166" y="9.99487" width="41.3467" height="42.835" filterUnits="userSpaceOnUse" color-interpolation-filters="sRGB">
<feFlood flood-opacity="0" result="BackgroundImageFix"/>
<feBlend mode="normal" in="SourceGraphic" in2="BackgroundImageFix" result="shape"/>
<feColorMatrix in="SourceAlpha" type="matrix" values="0 0 0 0 0 0 0 0 0 0 0 0 0 0 0 0 0 0 127 0" result="hardAlpha"/>
<feOffset dx="2" dy="1"/>
<feGaussianBlur stdDeviation="1"/>
<feComposite in2="hardAlpha" operator="arithmetic" k2="-1" k3="1"/>
<feColorMatrix type="matrix" values="0 0 0 0 0 0 0 0 0 0 0 0 0 0 0 0 0 0 0.25 0"/>
<feBlend mode="normal" in2="shape" result="effect1_innerShadow_637_2820"/>
</filter>
<filter id="filter1_d_637_2820" x="26.5421" y="18.4666" width="21.3074" height="22.2372" filterUnits="userSpaceOnUse" color-interpolation-filters="sRGB">
<feFlood flood-opacity="0" result="BackgroundImageFix"/>
<feColorMatrix in="SourceAlpha" type="matrix" values="0 0 0 0 0 0 0 0 0 0 0 0 0 0 0 0 0 0 127 0" result="hardAlpha"/>
<feOffset dx="1" dy="2"/>
<feGaussianBlur stdDeviation="0.8"/>
<feComposite in2="hardAlpha" operator="out"/>
<feColorMatrix type="matrix" values="0 0 0 0 0 0 0 0 0 0 0 0 0 0 0 0 0 0 0.25 0"/>
<feBlend mode="normal" in2="BackgroundImageFix" result="effect1_dropShadow_637_2820"/>
<feBlend mode="normal" in="SourceGraphic" in2="effect1_dropShadow_637_2820" result="shape"/>
</filter>
<filter id="filter2_d_637_2820" x="17.9649" y="18.4666" width="15.5896" height="19.2443" filterUnits="userSpaceOnUse" color-interpolation-filters="sRGB">
<feFlood flood-opacity="0" result="BackgroundImageFix"/>
<feColorMatrix in="SourceAlpha" type="matrix" values="0 0 0 0 0 0 0 0 0 0 0 0 0 0 0 0 0 0 127 0" result="hardAlpha"/>
<feOffset dx="1" dy="2"/>
<feGaussianBlur stdDeviation="0.8"/>
<feComposite in2="hardAlpha" operator="out"/>
<feColorMatrix type="matrix" values="0 0 0 0 0 0 0 0 0 0 0 0 0 0 0 0 0 0 0.25 0"/>
<feBlend mode="normal" in2="BackgroundImageFix" result="effect1_dropShadow_637_2820"/>
<feBlend mode="normal" in="SourceGraphic" in2="effect1_dropShadow_637_2820" result="shape"/>
</filter>
<filter id="filter3_d_637_2820" x="23.2454" y="0.844043" width="17.6078" height="17.1483" filterUnits="userSpaceOnUse" color-interpolation-filters="sRGB">
<feFlood flood-opacity="0" result="BackgroundImageFix"/>
<feColorMatrix in="SourceAlpha" type="matrix" values="0 0 0 0 0 0 0 0 0 0 0 0 0 0 0 0 0 0 127 0" result="hardAlpha"/>
<feOffset/>
<feGaussianBlur stdDeviation="3.15"/>
<feComposite in2="hardAlpha" operator="out"/>
<feColorMatrix type="matrix" values="0 0 0 0 1 0 0 0 0 1 0 0 0 0 1 0 0 0 0.25 0"/>
<feBlend mode="normal" in2="BackgroundImageFix" result="effect1_dropShadow_637_2820"/>
<feBlend mode="normal" in="SourceGraphic" in2="effect1_dropShadow_637_2820" result="shape"/>
</filter>
<filter id="filter4_d_637_2820" x="23.2454" y="44.5613" width="17.6078" height="17.1483" filterUnits="userSpaceOnUse" color-interpolation-filters="sRGB">
<feFlood flood-opacity="0" result="BackgroundImageFix"/>
<feColorMatrix in="SourceAlpha" type="matrix" values="0 0 0 0 0 0 0 0 0 0 0 0 0 0 0 0 0 0 127 0" result="hardAlpha"/>
<feOffset/>
<feGaussianBlur stdDeviation="3.15"/>
<feComposite in2="hardAlpha" operator="out"/>
<feColorMatrix type="matrix" values="0 0 0 0 1 0 0 0 0 1 0 0 0 0 1 0 0 0 0.25 0"/>
<feBlend mode="normal" in2="BackgroundImageFix" result="effect1_dropShadow_637_2820"/>
<feBlend mode="normal" in="SourceGraphic" in2="effect1_dropShadow_637_2820" result="shape"/>
</filter>
<filter id="filter5_d_637_2820" x="42.5276" y="10.9266" width="17.5937" height="17.2902" filterUnits="userSpaceOnUse" color-interpolation-filters="sRGB">
<feFlood flood-opacity="0" result="BackgroundImageFix"/>
<feColorMatrix in="SourceAlpha" type="matrix" values="0 0 0 0 0 0 0 0 0 0 0 0 0 0 0 0 0 0 127 0" result="hardAlpha"/>
<feOffset/>
<feGaussianBlur stdDeviation="3.15"/>
<feComposite in2="hardAlpha" operator="out"/>
<feColorMatrix type="matrix" values="0 0 0 0 1 0 0 0 0 1 0 0 0 0 1 0 0 0 0.25 0"/>
<feBlend mode="normal" in2="BackgroundImageFix" result="effect1_dropShadow_637_2820"/>
<feBlend mode="normal" in="SourceGraphic" in2="effect1_dropShadow_637_2820" result="shape"/>
</filter>
<filter id="filter6_d_637_2820" x="4.45146" y="10.9266" width="17.5937" height="17.2902" filterUnits="userSpaceOnUse" color-interpolation-filters="sRGB">
<feFlood flood-opacity="0" result="BackgroundImageFix"/>
<feColorMatrix in="SourceAlpha" type="matrix" values="0 0 0 0 0 0 0 0 0 0 0 0 0 0 0 0 0 0 127 0" result="hardAlpha"/>
<feOffset/>
<feGaussianBlur stdDeviation="3.15"/>
<feComposite in2="hardAlpha" operator="out"/>
<feColorMatrix type="matrix" values="0 0 0 0 1 0 0 0 0 1 0 0 0 0 1 0 0 0 0.25 0"/>
<feBlend mode="normal" in2="BackgroundImageFix" result="effect1_dropShadow_637_2820"/>
<feBlend mode="normal" in="SourceGraphic" in2="effect1_dropShadow_637_2820" result="shape"/>
</filter>
<linearGradient id="paint0_linear_637_2820" x1="43.4988" y1="0.156913" x2="32.1658" y2="0.240212" gradientUnits="userSpaceOnUse">
<stop stop-color="#F19F63"/>
<stop offset="1" stop-color="#AC4E0A"/>
</linearGradient>
<linearGradient id="paint1_linear_637_2820" x1="34.6208" y1="5.97743" x2="28.0705" y2="18.6995" gradientUnits="userSpaceOnUse">
<stop stop-color="#F8A65B"/>
<stop offset="1" stop-color="#B65A17"/>
</linearGradient>
<linearGradient id="paint2_linear_637_2820" x1="30.0393" y1="8.65949" x2="26.5271" y2="17.2351" gradientUnits="userSpaceOnUse">
<stop stop-color="#F8A65B"/>
<stop offset="1" stop-color="#B65A17"/>
</linearGradient>
<linearGradient id="paint3_linear_637_2820" x1="48.2993" y1="3.24406" x2="38.7024" y2="0.701103" gradientUnits="userSpaceOnUse">
<stop stop-color="#F19F63"/>
<stop offset="1" stop-color="#AC4E0A"/>
</linearGradient>
<linearGradient id="paint4_linear_637_2820" x1="67.7319" y1="13.5537" x2="57.8467" y2="10.8173" gradientUnits="userSpaceOnUse">
<stop stop-color="#F19F63"/>
<stop offset="1" stop-color="#AC4E0A"/>
</linearGradient>
<linearGradient id="paint5_linear_637_2820" x1="65.208" y1="28.2663" x2="55.3227" y2="25.5299" gradientUnits="userSpaceOnUse">
<stop stop-color="#F19F63"/>
<stop offset="1" stop-color="#AC4E0A"/>
</linearGradient>
<linearGradient id="paint6_linear_637_2820" x1="66.8906" y1="20.2798" x2="57.0054" y2="17.5434" gradientUnits="userSpaceOnUse">
<stop stop-color="#F19F63"/>
<stop offset="1" stop-color="#AC4E0A"/>
</linearGradient>
<linearGradient id="paint7_linear_637_2820" x1="10.6001" y1="10.6733" x2="9.99007" y2="31.1925" gradientUnits="userSpaceOnUse">
<stop stop-color="#F8A65B"/>
<stop offset="1" stop-color="#B65A17"/>
</linearGradient>
<linearGradient id="paint8_linear_637_2820" x1="13.1245" y1="24.1252" x2="12.5145" y2="44.6444" gradientUnits="userSpaceOnUse">
<stop stop-color="#F8A65B"/>
<stop offset="1" stop-color="#B65A17"/>
</linearGradient>
<linearGradient id="paint9_linear_637_2820" x1="11.4419" y1="16.9787" x2="10.8319" y2="37.4979" gradientUnits="userSpaceOnUse">
<stop stop-color="#F8A65B"/>
<stop offset="1" stop-color="#B65A17"/>
</linearGradient>
<linearGradient id="paint10_linear_637_2820" x1="20.8269" y1="7.03868" x2="45.467" y2="9.42691" gradientUnits="userSpaceOnUse">
<stop stop-color="#F2B072"/>
<stop offset="1" stop-color="#C75C0F"/>
</linearGradient>
<linearGradient id="paint11_linear_637_2820" x1="21.5398" y1="8.80682" x2="45.1091" y2="10.0845" gradientUnits="userSpaceOnUse">
<stop stop-color="#F89E4B"/>
<stop offset="1" stop-color="#DB7124"/>
</linearGradient>
<linearGradient id="paint12_linear_637_2820" x1="31.456" y1="18.4666" x2="42.2983" y2="19.0944" gradientUnits="userSpaceOnUse">
<stop stop-color="#F2DFD2"/>
<stop offset="1" stop-color="#EA9558"/>
</linearGradient>
<linearGradient id="paint13_linear_637_2820" x1="21.5165" y1="18.4666" x2="27.2535" y2="6.55537" gradientUnits="userSpaceOnUse">
<stop stop-color="#F2DFD2"/>
</linearGradient>
<linearGradient id="paint14_linear_637_2820" x1="31.9734" y1="48.8647" x2="32.3828" y2="38.9318" gradientUnits="userSpaceOnUse">
<stop stop-color="#D1741D"/>
<stop offset="0.994792" stop-color="#F8A264"/>
</linearGradient>
<linearGradient id="paint15_linear_637_2820" x1="37.8585" y1="8.7049" x2="34.4391" y2="12.7004" gradientUnits="userSpaceOnUse">
<stop stop-color="#ECD5C8"/>
<stop offset="1" stop-color="#FF7A00"/>
</linearGradient>
<linearGradient id="paint16_linear_637_2820" x1="37.8585" y1="52.4222" x2="34.4391" y2="56.4177" gradientUnits="userSpaceOnUse">
<stop stop-color="#ECD5C8"/>
<stop offset="1" stop-color="#FF7A00"/>
</linearGradient>
<linearGradient id="paint17_linear_637_2820" x1="53.4657" y1="14.616" x2="55.6563" y2="19.3958" gradientUnits="userSpaceOnUse">
<stop stop-color="#ECD5C8"/>
<stop offset="1" stop-color="#FF7A00"/>
</linearGradient>
<linearGradient id="paint18_linear_637_2820" x1="15.3896" y1="14.616" x2="17.5801" y2="19.3958" gradientUnits="userSpaceOnUse">
<stop stop-color="#ECD5C8"/>
<stop offset="1" stop-color="#FF7A00"/>
</linearGradient>
</defs>
</svg>
