<svg width="65" height="71" viewBox="0 0 65 71" fill="none" xmlns="http://www.w3.org/2000/svg">
<path d="M38.3107 17.1131C38.3531 17.412 33.441 24.4098 29.3091 30.7826C26.5312 30.5213 22.6374 30.4416 23.9867 28.597C26.372 25.3362 29.5247 22.1014 31.7264 18.5002L37.9897 9.85718C38.0214 10.9372 38.2297 16.5416 38.3107 17.1131Z" fill="url(#paint0_linear_637_2820)"/>
<path d="M24.7162 17.2347C24.6793 17.5344 29.7196 24.4405 33.9684 30.7362C36.741 30.4237 40.6327 30.2724 39.2496 28.4529C36.8046 25.2366 33.5927 22.0604 31.325 18.5004L24.9033 9.97412C24.8916 11.0546 24.7866 16.6618 24.7162 17.2347Z" fill="url(#paint1_linear_637_2820)"/>
<path d="M21.2425 18.6342C21.2697 18.8436 27.4027 24.0377 32.6702 28.7511C35.1983 28.7039 38.806 28.8405 37.1386 27.4686C34.191 25.0435 30.5347 22.5988 27.6822 19.9419L19.9243 13.5168C20.1356 14.2794 21.1906 18.2339 21.2425 18.6342Z" fill="url(#paint2_linear_637_2820)"/>
<path d="M41.9208 18.3728C41.9015 18.5831 35.9674 24.0029 30.8802 28.91C28.3521 28.9574 24.752 29.2289 26.3669 27.7956C29.2215 25.262 32.7837 22.6822 35.5346 19.9205L43.0464 13.2097C42.8639 13.9796 41.9577 17.9709 41.9208 18.3728Z" fill="url(#paint3_linear_637_2820)"/>
<path d="M62.4732 25.286C62.0525 25.7184 54.6328 35.375 49.213 40.7781C47.2044 38.6176 44.2858 35.9544 45.9706 34.4913C48.9488 31.905 52.4987 29.8568 55.4605 26.7159L63.3101 19.8218C62.8364 21.293 62.6777 25.0758 62.4732 25.286Z" fill="url(#paint4_linear_637_2820)"/>
<path d="M59.9493 39.9987C59.5286 40.4311 52.1089 50.0876 46.6891 55.4908C44.6805 53.3303 41.7618 50.667 43.4466 49.204C46.4249 46.6177 49.9747 44.5694 52.9365 41.4285L60.7861 34.5344C60.3124 36.0057 60.1537 39.7885 59.9493 39.9987Z" fill="url(#paint5_linear_637_2820)"/>
<path d="M61.6319 32.0121C61.2112 32.4445 53.7915 42.1011 48.3717 47.5042C46.3631 45.3437 43.4445 42.6804 45.1292 41.2174C48.1075 38.6311 51.6574 36.5828 54.6191 33.4419L62.4688 26.5479C61.9951 28.0191 61.8364 31.8019 61.6319 32.0121Z" fill="url(#paint6_linear_637_2820)"/>
<path d="M2.94471 24.8656C3.36541 25.298 10.1294 34.9546 15.5492 40.3577C17.5578 38.1972 20.4764 35.534 18.7917 34.0709C15.8134 31.4846 12.2635 29.4364 9.30176 26.2955L1.45215 19.4014C1.92584 20.8726 2.74023 24.6554 2.94471 24.8656Z" fill="url(#paint7_linear_637_2820)"/>
<path d="M5.46913 38.3175C5.88982 38.7499 12.6538 48.4065 18.0736 53.8096C20.0822 51.6491 23.0008 48.9859 21.3161 47.5228C18.3378 44.9365 14.7879 42.8883 11.8262 39.7474L3.97656 32.8533C4.45026 34.3245 5.26464 38.1073 5.46913 38.3175Z" fill="url(#paint8_linear_637_2820)"/>
<path d="M3.78651 31.171C4.20721 31.6034 10.9712 41.26 16.391 46.6632C18.3996 44.5026 21.3182 41.8394 19.6334 40.3763C16.6552 37.79 13.1053 35.7418 10.1436 32.6009L2.29395 25.7068C2.76764 27.178 3.58203 30.9608 3.78651 31.171Z" fill="url(#paint9_linear_637_2820)"/>
<g filter="url(#filter0_d_637_2820)">
<path d="M52.874 51.8084V31.8021L59.7399 22.7645L55.1114 24.2357L50.5597 25.9171L35.5233 17.8529L34.9921 15.1657C34.8051 14.22 34.396 13.3322 33.7982 12.5755L31.5533 9.7334L29.8151 12.7321C29.4342 13.3894 29.1797 14.1122 29.065 14.8631L28.6084 17.8529L12.9075 25.9171L9.67626 24.6561L5.33496 22.7645L10.8044 31.8021V51.7699C10.8044 54.4611 12.574 56.8324 15.1553 57.6003L25.1105 60.562C26.5152 60.9799 27.6349 62.0442 28.1227 63.4252C28.4387 64.3197 29.025 65.094 29.8006 65.641L32.1843 67.3223L34.3932 65.6538C35.1306 65.0967 35.6901 64.3375 36.0036 63.4685C36.5124 62.0575 37.6565 60.9684 39.0916 60.5287L48.5706 57.6245C51.128 56.8409 52.874 54.4812 52.874 51.8084Z" fill="url(#paint10_linear_637_2820)"/>
</g>
<g filter="url(#filter1_i_637_2820)">
<path d="M28.7717 19.9671L14.9525 28.8799C13.2154 30.0003 12.166 31.925 12.166 33.9909V50.9022C12.166 53.6346 13.9893 56.0318 16.624 56.7634L30.4673 60.6076C31.5488 60.9079 32.6923 60.9036 33.7716 60.5952L47.0985 56.7869C49.7114 56.0402 51.5126 53.6536 51.5126 50.9381V33.9393C51.5126 31.9017 50.4917 29.9994 48.793 28.872L35.442 20.0109C33.4251 18.6723 30.806 18.6551 28.7717 19.9671Z" fill="url(#paint11_linear_637_2820)"/>
</g>
<g filter="url(#filter2_d_637_2820)">
<path d="M27.15 40.662C27.1327 40.5051 27.15 40.3366 27.1443 40.1623C27.1443 40.0751 27.1616 39.9764 27.1905 39.8834C27.2136 39.7962 27.2136 39.7033 27.2309 39.6219C27.2656 39.465 27.3118 39.314 27.3465 39.1571C27.4043 38.9014 27.5141 38.6632 27.6123 38.4192C27.7106 38.1693 27.8493 37.9369 27.9879 37.7045C28.1209 37.4779 28.2827 37.2745 28.456 37.0712C28.6987 36.7981 28.9588 36.5366 29.2073 36.2693C29.3806 36.0834 29.5598 35.9091 29.7331 35.729C30.0683 35.3919 30.4092 35.0549 30.7328 34.7063C31.0796 34.3403 31.4321 33.9858 31.7846 33.6198C31.9406 33.4571 32.1139 33.306 32.2642 33.1317C32.5127 32.8412 32.7958 32.5855 33.0616 32.3124C33.2119 32.1614 33.3621 32.0103 33.5066 31.8534C33.8533 31.4757 34.2347 31.1329 34.5815 30.7494C34.8704 30.4299 35.1882 30.1335 35.4829 29.8198C35.7083 29.5815 35.9337 29.3491 36.1533 29.1167C36.344 28.9192 36.552 28.7507 36.76 28.5763C36.9681 28.402 37.1934 28.2626 37.4246 28.1231C37.6731 27.9779 37.9447 27.8617 38.2163 27.7629C38.3376 27.7222 38.4532 27.6641 38.5745 27.6409C38.6786 27.6234 38.7768 27.5886 38.8808 27.577C39.0426 27.5595 39.1986 27.5247 39.3604 27.5014C39.6031 27.4666 39.8516 27.4666 40.0943 27.4666C40.4064 27.4666 40.7127 27.513 41.0132 27.5711C41.3483 27.6351 41.6719 27.728 41.9782 27.8675C42.2787 28.0011 42.5734 28.1638 42.8508 28.3497C43.1686 28.5705 43.4633 28.8204 43.7349 29.0993C43.9776 29.3433 44.1741 29.6222 44.3706 29.9011C44.6191 30.2672 44.7982 30.6739 44.9485 31.0922C45.0756 31.4525 45.1565 31.8185 45.2027 32.1962C45.2258 32.4112 45.2547 32.6262 45.249 32.847C45.2432 33.0736 45.2489 33.3002 45.2143 33.5268C45.1738 33.7883 45.1392 34.0556 45.0698 34.3112C44.9831 34.625 44.8791 34.9329 44.7404 35.2234C44.5035 35.7464 44.1914 36.2112 43.8043 36.6354C43.5385 36.9317 43.2553 37.2164 42.9779 37.4953C42.6948 37.7742 42.4232 38.0647 42.1573 38.3553C42.0418 38.4831 41.9262 38.6109 41.7933 38.7213C41.7182 38.791 41.6488 38.8724 41.5795 38.9421C41.5275 38.9944 41.4755 39.0409 41.4234 39.0932C41.1345 39.3953 40.8398 39.6858 40.5566 39.9938C40.4006 40.1623 40.2446 40.3308 40.0886 40.4935C39.8227 40.7666 39.5569 41.0397 39.2853 41.3128C39.0137 41.5858 38.7363 41.8531 38.4763 42.1378C38.118 42.5271 37.7424 42.9048 37.3783 43.2941C37.1472 43.5381 36.8987 43.7706 36.6618 44.0088C36.4249 44.247 36.1879 44.4852 35.951 44.7235C35.8181 44.8571 35.6621 44.9675 35.5176 45.0837C35.3153 45.2406 35.1015 45.38 34.8762 45.4963C34.5237 45.6764 34.1538 45.8216 33.7724 45.932C33.5413 45.9959 33.2986 46.0308 33.0616 46.0773C32.9981 46.0889 32.9287 46.0889 32.8652 46.0947C32.5531 46.118 32.2411 46.0889 31.929 46.0889C31.8366 46.0889 31.7441 46.0599 31.6516 46.0482C31.5418 46.0308 31.4321 46.0018 31.3223 45.9785C31.1316 45.9378 30.9466 45.8797 30.7617 45.8274C30.5421 45.7635 30.3341 45.6589 30.1261 45.566C29.9874 45.5021 29.866 45.4091 29.7331 45.3394C29.6233 45.2813 29.5251 45.2115 29.4268 45.1418C29.2939 45.0372 29.161 44.9326 29.0339 44.8281C28.8547 44.677 28.6872 44.5085 28.5311 44.3342C28.4329 44.218 28.3289 44.1076 28.2364 43.9855C28.0746 43.7706 27.9417 43.5381 27.8146 43.3057C27.6932 43.0791 27.5719 42.8525 27.491 42.6085C27.4043 42.3644 27.3465 42.1146 27.2714 41.8706C27.2425 41.7718 27.2425 41.6614 27.2194 41.5568C27.1558 41.2605 27.1385 40.9699 27.15 40.662ZM30.4034 44.5433C30.4208 44.5143 30.415 44.491 30.415 44.4678C30.415 44.2005 30.415 43.9333 30.415 43.6718C30.415 42.2947 30.415 40.9235 30.415 39.5464C30.415 39.4999 30.4208 39.4709 30.4786 39.4709C30.9004 39.4709 31.3223 39.4709 31.7441 39.4767C31.8019 39.4767 31.825 39.465 31.8192 39.4011C31.8192 38.8608 31.8192 38.3146 31.8192 37.7742C31.8192 37.3965 31.8192 37.0247 31.8192 36.647C31.8192 36.554 31.8192 36.554 31.9175 36.5482C31.9695 36.5482 32.0273 36.554 32.0793 36.5366C32.1082 36.5308 32.1486 36.5482 32.1544 36.5947C32.1544 36.6528 32.1659 36.7051 32.1659 36.7574C32.1659 37.6348 32.1659 38.5121 32.1659 39.3953C32.1659 39.4534 32.1833 39.4709 32.2411 39.465C32.6629 39.465 33.0848 39.465 33.5066 39.4592C33.5644 39.4592 33.5817 39.4709 33.5817 39.529C33.5817 41.1036 33.5817 42.6782 33.5817 44.247C33.5817 44.4388 33.5817 44.6363 33.5817 44.8281C33.5817 44.8745 33.5933 44.892 33.6453 44.8745C33.7146 44.8513 33.784 44.8397 33.8476 44.8106C33.9689 44.7583 34.096 44.7118 34.2174 44.6479C34.3561 44.5724 34.5005 44.5085 34.6392 44.4271C34.8068 44.3284 34.9571 44.218 35.1131 44.0959C35.2056 44.0262 35.2922 43.9565 35.2518 43.817C35.2518 43.8112 35.2518 43.8054 35.2518 43.7938C35.2518 41.4754 35.2576 39.1513 35.2576 36.8329C35.2576 36.1066 35.2576 35.3803 35.2576 34.654C35.2576 34.5611 35.2576 34.5611 35.35 34.5611C35.7545 34.5611 36.1648 34.5611 36.5693 34.5611C36.6387 34.5611 36.6618 34.5378 36.6618 34.4681C36.656 33.9916 36.6618 33.5094 36.6618 33.0329C36.6618 32.5971 36.6618 32.1614 36.6618 31.7256C36.6618 31.6559 36.6849 31.6384 36.7485 31.6384C36.812 31.6442 36.8756 31.6442 36.9334 31.6384C36.9854 31.6326 36.997 31.6559 36.997 31.7023C36.997 32.6088 36.997 33.5152 36.997 34.4274C36.997 34.4565 37.0027 34.4855 36.9912 34.5088C36.9681 34.5611 36.997 34.5611 37.0316 34.5611C37.1356 34.5611 37.2454 34.5611 37.3495 34.5611C37.6731 34.5611 37.9967 34.5611 38.3145 34.5611C38.3723 34.5611 38.3954 34.5785 38.3954 34.6366C38.3896 34.7121 38.3896 34.7935 38.3896 34.869C38.3896 36.7864 38.3896 38.6981 38.3896 40.6155C38.3896 40.6387 38.3896 40.6562 38.3954 40.6794C38.4127 40.7259 38.4243 40.7317 38.459 40.6969C38.5283 40.6213 38.5977 40.5516 38.667 40.4819C39.0368 40.0984 39.4125 39.7149 39.7823 39.3314C40.2388 38.8608 40.6953 38.3901 41.1576 37.9195C41.1923 37.8846 41.2039 37.8439 41.2039 37.7975C41.2039 37.1002 41.2039 36.3972 41.2039 35.6999C41.2039 35.6418 41.1865 35.6244 41.1287 35.6244C40.7242 35.6302 40.3197 35.6244 39.9152 35.6244C39.8054 35.6244 39.7996 35.6476 39.7996 35.514C39.7996 33.4338 39.7996 31.3479 39.7996 29.2678C39.7996 29.2155 39.7765 29.169 39.7823 29.1167C39.8112 28.9482 39.7938 28.7739 39.7938 28.6054C39.7938 28.4892 39.7881 28.4892 39.6783 28.495C39.6609 28.495 39.6378 28.495 39.6205 28.495C39.4991 28.5066 39.3778 28.5066 39.2564 28.5299C38.9906 28.5822 38.7248 28.6519 38.4647 28.7507C38.1642 28.861 37.8811 29.0063 37.6211 29.1864C37.2974 29.4072 37.0143 29.6861 36.7369 29.965C36.5 30.2033 36.2746 30.4415 36.0377 30.6797C35.9394 30.7785 35.8412 30.8715 35.7487 30.9702C35.4598 31.2724 35.1709 31.5803 34.8819 31.8883C34.8126 31.9638 34.7433 32.051 34.6681 32.1207C34.5121 32.2718 34.3676 32.4286 34.2116 32.5797C33.7898 32.9981 33.3679 33.4222 32.9692 33.8638C32.7323 34.1253 32.4838 34.3693 32.2353 34.6192C31.8192 35.0433 31.3916 35.4617 30.9813 35.8916C30.5652 36.3274 30.155 36.7632 29.7331 37.1932C29.4326 37.5011 29.1263 37.8033 28.8952 38.1751C28.7276 38.4366 28.5774 38.7097 28.4618 39.0002C28.3116 39.3779 28.2191 39.7672 28.1786 40.1681C28.1324 40.6155 28.1382 41.0629 28.2306 41.5045C28.2942 41.8066 28.3809 42.103 28.4907 42.3935C28.5485 42.5504 28.6352 42.6956 28.7161 42.8409C29.1263 43.573 29.6811 44.1366 30.4034 44.5433ZM42.9317 29.7152C42.9259 29.75 42.9259 29.7675 42.9259 29.7849C42.9259 30.7146 42.9259 31.6384 42.9259 32.5681C42.9259 33.5617 42.9259 34.5552 42.9259 35.5546C42.9259 35.6186 42.9144 35.6476 42.8392 35.6476C42.4232 35.6418 42.0129 35.6476 41.5968 35.6476C41.5332 35.6476 41.5159 35.6708 41.5159 35.729C41.5159 36.2984 41.5159 36.8736 41.5159 37.443C41.5159 37.4721 41.5159 37.5011 41.5159 37.5302C41.6661 37.3849 41.8106 37.2455 41.9551 37.1002C42.192 36.8562 42.4289 36.6121 42.6659 36.3681C42.9548 36.0718 43.2495 35.7812 43.4807 35.4326C43.9372 34.747 44.1799 33.9858 44.2319 33.1666C44.2608 32.6959 44.2088 32.2311 44.0932 31.7721C43.9719 31.2898 43.7754 30.8424 43.498 30.4299C43.342 30.1684 43.1455 29.9534 42.9317 29.7152Z" fill="url(#paint12_linear_637_2820)"/>
</g>
<g filter="url(#filter3_d_637_2820)">
<path d="M26.3193 43.1109C26.256 43.0878 26.2214 43.0417 26.1926 43.0013C26.0889 42.8628 25.9621 42.7416 25.8469 42.6146C25.7087 42.4588 25.5646 42.303 25.4148 42.153C25.1268 41.8587 24.8387 41.5644 24.5507 41.2701C24.3836 41.0969 24.2165 40.9296 24.0495 40.7622C23.9112 40.6237 23.7845 40.4737 23.6462 40.341C23.5828 40.2775 23.5252 40.2025 23.4446 40.1505C23.3754 40.1101 23.3524 40.0236 23.289 39.9659C23.1047 39.7985 22.9433 39.6139 22.759 39.4465C22.615 39.3138 22.4997 39.1464 22.3557 39.0137C22.2635 38.9329 22.1829 38.8348 22.0849 38.7598C22.0389 38.7309 22.0216 38.6675 21.9812 38.6271C21.7911 38.4424 21.601 38.2635 21.4224 38.0673C21.1805 37.7961 20.9155 37.548 20.6735 37.2767C20.4949 37.0805 20.299 36.8959 20.1147 36.7054C19.8439 36.4227 19.5962 36.1168 19.383 35.7879C19.2793 35.6263 19.1987 35.4532 19.1065 35.2858C19.0201 35.13 18.9682 34.9627 18.8991 34.8069C18.8069 34.6107 18.7781 34.4029 18.7147 34.201C18.6744 34.0625 18.6571 33.9182 18.6283 33.7797C18.5592 33.3931 18.5765 33.0064 18.5649 32.614C18.5649 32.5101 18.5765 32.4063 18.5707 32.3024C18.5707 32.2216 18.6053 32.135 18.6168 32.0485C18.6283 31.9965 18.6226 31.9388 18.6283 31.8869C18.6398 31.8003 18.6686 31.7196 18.6917 31.633C18.7608 31.3387 18.853 31.0559 18.9625 30.7732C19.0258 30.6058 19.0892 30.4327 19.1871 30.2827C19.3139 30.0864 19.4291 29.8787 19.5674 29.694C19.7056 29.5036 19.8439 29.3132 20.011 29.1458C20.155 28.9958 20.3048 28.8515 20.4661 28.713C20.7253 28.4822 21.0076 28.2802 21.313 28.1129C21.4973 28.0148 21.6874 27.9224 21.8775 27.8359C22.0158 27.7724 22.1541 27.7205 22.3039 27.6858C22.4191 27.657 22.5228 27.6051 22.6438 27.5935C22.8281 27.5762 23.001 27.53 23.1795 27.5012C23.4388 27.4666 23.698 27.4666 23.9573 27.4666C24.061 27.4666 24.1647 27.4666 24.2626 27.4723C24.3663 27.4781 24.47 27.4954 24.5737 27.5127C24.7177 27.5358 24.8618 27.5935 25.0116 27.5993C25.1441 27.6051 25.2535 27.6743 25.3745 27.7032C25.605 27.7551 25.8123 27.8647 26.0255 27.9571C26.2848 28.0725 26.521 28.2167 26.7514 28.3783C26.9185 28.4937 27.0913 28.6092 27.2469 28.7476C27.3563 28.8457 27.46 28.9496 27.5579 29.0535C27.8806 29.3824 28.2032 29.7114 28.5258 30.0403C28.8772 30.4038 29.2287 30.7732 29.5858 31.1309C30.0237 31.5695 30.4442 32.0312 30.8878 32.464C30.9051 32.4813 30.9224 32.4986 30.9397 32.5159C30.9627 32.539 30.957 32.5621 30.9339 32.5852C30.7726 32.7467 30.6171 32.9025 30.4558 33.0641C30.4039 33.1218 30.3405 33.1738 30.2945 33.2315C30.2541 33.2776 30.2253 33.2546 30.1965 33.2315C30.0698 33.1045 29.9315 32.9833 29.822 32.8391C29.7068 32.6948 29.557 32.5909 29.4533 32.4409C29.4072 32.3774 29.3381 32.3312 29.2863 32.2735C29.0673 32.0485 28.8542 31.8119 28.6295 31.5984C28.4279 31.4022 28.2378 31.1886 28.0361 30.9867C27.8979 30.8482 27.7481 30.7212 27.6213 30.5712C27.4485 30.3634 27.2526 30.1846 27.0683 29.9883C26.8666 29.7748 26.665 29.5613 26.4288 29.3824C26.2905 29.2786 26.1465 29.1747 25.9909 29.0881C25.8642 29.0131 25.7317 28.9496 25.605 28.8804C25.484 28.8169 25.3572 28.765 25.2247 28.7246C25.1153 28.6899 25 28.6495 24.8848 28.6207C24.7062 28.5745 24.5276 28.5457 24.349 28.5168C24.2569 28.4995 24.1647 28.5053 24.0725 28.4995C24.0149 28.4937 24.0034 28.5168 24.0034 28.5688C24.0034 28.7476 24.0034 28.9265 24.0034 29.0997C24.0034 29.6594 24.0034 30.2192 24.0034 30.7789C24.0034 32.1235 24.0091 33.4738 24.0034 34.8184C24.0034 35.0492 24.0149 35.2801 24.0091 35.5167C24.0091 35.5628 24.0034 35.5917 23.94 35.5917C23.5252 35.5917 23.1104 35.5917 22.6956 35.5917C22.6265 35.5917 22.6092 35.6148 22.6092 35.7013C22.6092 36.3188 22.6092 36.9305 22.6092 37.548C22.6092 37.623 22.615 37.698 22.6034 37.773C22.5977 37.8019 22.6092 37.8192 22.6265 37.8423C23.0182 38.2404 23.41 38.6386 23.8017 39.0426C24.2281 39.4811 24.6544 39.9197 25.0807 40.3583C25.1844 40.4622 25.2939 40.5603 25.4033 40.6641C25.4033 40.491 25.4033 40.3121 25.4033 40.1332C25.4033 38.2924 25.4033 36.4573 25.4033 34.6164C25.4033 34.553 25.4264 34.5357 25.484 34.5357C25.8988 34.5357 26.3136 34.5357 26.7284 34.5357C26.7975 34.5357 26.809 34.5126 26.809 34.4491C26.809 33.5431 26.809 32.6429 26.809 31.7369C26.809 31.633 26.809 31.633 26.9127 31.633C26.9588 31.633 27.0106 31.6388 27.0567 31.633C27.1201 31.6272 27.1432 31.6503 27.1432 31.7196C27.1432 32.0485 27.1432 32.3774 27.1432 32.7063C27.1432 33.295 27.1432 33.8778 27.1432 34.4664C27.1432 34.5299 27.1662 34.553 27.2238 34.5299C27.2641 34.5126 27.3045 34.5357 27.339 34.5357C27.7135 34.5357 28.0822 34.5357 28.4567 34.5357C28.52 34.5357 28.5546 34.553 28.5373 34.6222C28.5143 34.7549 28.5258 34.8877 28.5258 35.0146C28.5258 35.0492 28.5143 35.0723 28.4912 35.0954C28.3587 35.2224 28.2435 35.3551 28.111 35.482C27.967 35.6263 27.823 35.7706 27.6789 35.9206C27.5176 36.0822 27.3736 36.2553 27.2353 36.4342C27.1374 36.5612 27.0452 36.6881 26.9588 36.8208C26.809 37.0459 26.665 37.2767 26.5498 37.5249C26.4403 37.7557 26.3366 37.9923 26.2502 38.2347C26.1753 38.4482 26.0946 38.6559 26.0486 38.8752C26.0082 39.0714 25.9564 39.2619 25.9276 39.4581C25.9103 39.5908 25.8988 39.7235 25.8815 39.8562C25.8584 40.0351 25.8527 40.2082 25.8412 40.3871C25.8296 40.5545 25.8239 40.7218 25.8469 40.8892C25.8584 40.97 25.8527 41.0565 25.8584 41.1373C25.8757 41.2989 25.893 41.4605 25.916 41.6163C25.9564 41.9048 26.0313 42.1876 26.1062 42.4646C26.1465 42.6146 26.1926 42.7589 26.256 42.8974C26.2732 42.9666 26.3078 43.0301 26.3193 43.1109ZM22.2463 37.4268C22.2463 37.4152 22.252 37.4095 22.252 37.4037C22.252 36.8382 22.252 36.2726 22.252 35.7071C22.252 35.5628 22.252 35.5686 22.1138 35.5744C21.7162 35.5917 21.3245 35.5801 20.927 35.5801C20.8751 35.5801 20.8521 35.5628 20.8521 35.5051C20.8521 33.6181 20.8521 31.7253 20.8521 29.8383C20.8521 29.8037 20.8694 29.7517 20.8406 29.7402C20.8118 29.7287 20.7945 29.7806 20.7714 29.8037C20.5122 30.0518 20.3105 30.3461 20.1319 30.652C19.89 31.0732 19.7344 31.5234 19.6365 31.9965C19.5443 32.4409 19.5386 32.891 19.5731 33.3411C19.5904 33.5604 19.6423 33.7739 19.6883 33.9874C19.8036 34.4664 20.011 34.9107 20.2817 35.3205C20.5064 35.6667 20.7887 35.961 21.0825 36.2553C21.2438 36.4227 21.4051 36.59 21.5665 36.7574C21.7623 36.9536 21.9582 37.1498 22.1483 37.3518C22.1771 37.3806 22.2059 37.4095 22.2463 37.4268Z" fill="url(#paint13_linear_637_2820)"/>
</g>
<g filter="url(#filter4_d_637_2820)">
<path d="M10.8047 53.8948C10.8047 53.8948 20.274 56.9744 31.7672 56.9744C43.2604 56.9744 52.8742 53.8948 52.8742 53.8948V43.2345C52.8742 43.2345 40.2435 47.3911 31.7672 47.3802C23.3457 47.3694 10.8047 43.2345 10.8047 43.2345V53.8948Z" fill="url(#paint14_linear_637_2820)"/>
</g>
<g filter="url(#filter5_d_637_2820)">
<path d="M32.7524 20.2868C32.44 20.8276 31.6589 20.8276 31.3464 20.2868L29.6556 17.3606C29.3432 16.8199 29.7337 16.1439 30.3586 16.1439L33.7402 16.1439C34.3651 16.1439 34.7557 16.8199 34.4433 17.3606L32.7524 20.2868Z" fill="url(#paint15_linear_637_2820)"/>
</g>
<g filter="url(#filter6_d_637_2820)">
<path d="M32.7524 64.0041C32.44 64.5449 31.6589 64.5449 31.3464 64.0041L29.6556 61.0779C29.3432 60.5372 29.7337 59.8612 30.3586 59.8612L33.7402 59.8612C34.3651 59.8612 34.7557 60.5372 34.4433 61.0779L32.7524 64.0041Z" fill="url(#paint16_linear_637_2820)"/>
</g>
<g filter="url(#filter7_d_637_2820)">
<path d="M53.6716 29.3304C54.032 29.8405 53.7046 30.5491 53.0823 30.6059L49.7147 30.9133C49.0924 30.9701 48.6419 30.3324 48.9038 29.7655L50.3212 26.6978C50.5831 26.1309 51.361 26.0599 51.7214 26.57L53.6716 29.3304Z" fill="url(#paint17_linear_637_2820)"/>
</g>
<g filter="url(#filter8_d_637_2820)">
<path d="M15.5955 29.3304C15.9558 29.8405 15.6284 30.5491 15.0061 30.6059L11.6385 30.9133C11.0162 30.9701 10.5657 30.3324 10.8277 29.7655L12.2451 26.6978C12.507 26.1309 13.2849 26.0599 13.6452 26.57L15.5955 29.3304Z" fill="url(#paint18_linear_637_2820)"/>
</g>
<path d="M29.4487 49.667H30.5915V53.4732H29.4487V49.667Z" fill="#F2DFD2"/>
<path d="M34.0469 53.3285L33.417 52.4071L32.7416 53.3285H31.4038L32.7416 51.57L31.4428 49.8115H32.8325L33.4559 50.7005L34.1054 49.8115H35.4107L34.1119 51.5246L35.4561 53.3285H34.0469Z" fill="#F2DFD2"/>
<defs>
<filter id="filter0_d_637_2820" x="0.234961" y="0.633399" width="64.6048" height="67.7889" filterUnits="userSpaceOnUse" color-interpolation-filters="sRGB">
<feFlood flood-opacity="0" result="BackgroundImageFix"/>
<feColorMatrix in="SourceAlpha" type="matrix" values="0 0 0 0 0 0 0 0 0 0 0 0 0 0 0 0 0 0 127 0" result="hardAlpha"/>
<feOffset dy="-4"/>
<feGaussianBlur stdDeviation="2.55"/>
<feComposite in2="hardAlpha" operator="out"/>
<feColorMatrix type="matrix" values="0 0 0 0 0 0 0 0 0 0 0 0 0 0 0 0 0 0 0.25 0"/>
<feBlend mode="normal" in2="BackgroundImageFix" result="effect1_dropShadow_637_2820"/>
<feBlend mode="normal" in="SourceGraphic" in2="effect1_dropShadow_637_2820" result="shape"/>
</filter>
<filter id="filter1_i_637_2820" x="12.166" y="18.9949" width="41.3467" height="42.835" filterUnits="userSpaceOnUse" color-interpolation-filters="sRGB">
<feFlood flood-opacity="0" result="BackgroundImageFix"/>
<feBlend mode="normal" in="SourceGraphic" in2="BackgroundImageFix" result="shape"/>
<feColorMatrix in="SourceAlpha" type="matrix" values="0 0 0 0 0 0 0 0 0 0 0 0 0 0 0 0 0 0 127 0" result="hardAlpha"/>
<feOffset dx="2" dy="1"/>
<feGaussianBlur stdDeviation="1"/>
<feComposite in2="hardAlpha" operator="arithmetic" k2="-1" k3="1"/>
<feColorMatrix type="matrix" values="0 0 0 0 0 0 0 0 0 0 0 0 0 0 0 0 0 0 0.25 0"/>
<feBlend mode="normal" in2="shape" result="effect1_innerShadow_637_2820"/>
</filter>
<filter id="filter2_d_637_2820" x="26.5421" y="27.4666" width="21.3074" height="22.2372" filterUnits="userSpaceOnUse" color-interpolation-filters="sRGB">
<feFlood flood-opacity="0" result="BackgroundImageFix"/>
<feColorMatrix in="SourceAlpha" type="matrix" values="0 0 0 0 0 0 0 0 0 0 0 0 0 0 0 0 0 0 127 0" result="hardAlpha"/>
<feOffset dx="1" dy="2"/>
<feGaussianBlur stdDeviation="0.8"/>
<feComposite in2="hardAlpha" operator="out"/>
<feColorMatrix type="matrix" values="0 0 0 0 0 0 0 0 0 0 0 0 0 0 0 0 0 0 0.25 0"/>
<feBlend mode="normal" in2="BackgroundImageFix" result="effect1_dropShadow_637_2820"/>
<feBlend mode="normal" in="SourceGraphic" in2="effect1_dropShadow_637_2820" result="shape"/>
</filter>
<filter id="filter3_d_637_2820" x="17.9649" y="27.4666" width="15.5896" height="19.2443" filterUnits="userSpaceOnUse" color-interpolation-filters="sRGB">
<feFlood flood-opacity="0" result="BackgroundImageFix"/>
<feColorMatrix in="SourceAlpha" type="matrix" values="0 0 0 0 0 0 0 0 0 0 0 0 0 0 0 0 0 0 127 0" result="hardAlpha"/>
<feOffset dx="1" dy="2"/>
<feGaussianBlur stdDeviation="0.8"/>
<feComposite in2="hardAlpha" operator="out"/>
<feColorMatrix type="matrix" values="0 0 0 0 0 0 0 0 0 0 0 0 0 0 0 0 0 0 0.25 0"/>
<feBlend mode="normal" in2="BackgroundImageFix" result="effect1_dropShadow_637_2820"/>
<feBlend mode="normal" in="SourceGraphic" in2="effect1_dropShadow_637_2820" result="shape"/>
</filter>
<filter id="filter4_d_637_2820" x="10.8047" y="42.9346" width="45.3693" height="16.3397" filterUnits="userSpaceOnUse" color-interpolation-filters="sRGB">
<feFlood flood-opacity="0" result="BackgroundImageFix"/>
<feColorMatrix in="SourceAlpha" type="matrix" values="0 0 0 0 0 0 0 0 0 0 0 0 0 0 0 0 0 0 127 0" result="hardAlpha"/>
<feOffset dx="2" dy="1"/>
<feGaussianBlur stdDeviation="0.65"/>
<feComposite in2="hardAlpha" operator="out"/>
<feColorMatrix type="matrix" values="0 0 0 0 0 0 0 0 0 0 0 0 0 0 0 0 0 0 0.25 0"/>
<feBlend mode="normal" in2="BackgroundImageFix" result="effect1_dropShadow_637_2820"/>
<feBlend mode="normal" in="SourceGraphic" in2="effect1_dropShadow_637_2820" result="shape"/>
</filter>
<filter id="filter5_d_637_2820" x="23.2454" y="9.84404" width="17.6078" height="17.1483" filterUnits="userSpaceOnUse" color-interpolation-filters="sRGB">
<feFlood flood-opacity="0" result="BackgroundImageFix"/>
<feColorMatrix in="SourceAlpha" type="matrix" values="0 0 0 0 0 0 0 0 0 0 0 0 0 0 0 0 0 0 127 0" result="hardAlpha"/>
<feOffset/>
<feGaussianBlur stdDeviation="3.15"/>
<feComposite in2="hardAlpha" operator="out"/>
<feColorMatrix type="matrix" values="0 0 0 0 1 0 0 0 0 1 0 0 0 0 1 0 0 0 0.25 0"/>
<feBlend mode="normal" in2="BackgroundImageFix" result="effect1_dropShadow_637_2820"/>
<feBlend mode="normal" in="SourceGraphic" in2="effect1_dropShadow_637_2820" result="shape"/>
</filter>
<filter id="filter6_d_637_2820" x="23.2454" y="53.5613" width="17.6078" height="17.1483" filterUnits="userSpaceOnUse" color-interpolation-filters="sRGB">
<feFlood flood-opacity="0" result="BackgroundImageFix"/>
<feColorMatrix in="SourceAlpha" type="matrix" values="0 0 0 0 0 0 0 0 0 0 0 0 0 0 0 0 0 0 127 0" result="hardAlpha"/>
<feOffset/>
<feGaussianBlur stdDeviation="3.15"/>
<feComposite in2="hardAlpha" operator="out"/>
<feColorMatrix type="matrix" values="0 0 0 0 1 0 0 0 0 1 0 0 0 0 1 0 0 0 0.25 0"/>
<feBlend mode="normal" in2="BackgroundImageFix" result="effect1_dropShadow_637_2820"/>
<feBlend mode="normal" in="SourceGraphic" in2="effect1_dropShadow_637_2820" result="shape"/>
</filter>
<filter id="filter7_d_637_2820" x="42.5276" y="19.9266" width="17.5937" height="17.2902" filterUnits="userSpaceOnUse" color-interpolation-filters="sRGB">
<feFlood flood-opacity="0" result="BackgroundImageFix"/>
<feColorMatrix in="SourceAlpha" type="matrix" values="0 0 0 0 0 0 0 0 0 0 0 0 0 0 0 0 0 0 127 0" result="hardAlpha"/>
<feOffset/>
<feGaussianBlur stdDeviation="3.15"/>
<feComposite in2="hardAlpha" operator="out"/>
<feColorMatrix type="matrix" values="0 0 0 0 1 0 0 0 0 1 0 0 0 0 1 0 0 0 0.25 0"/>
<feBlend mode="normal" in2="BackgroundImageFix" result="effect1_dropShadow_637_2820"/>
<feBlend mode="normal" in="SourceGraphic" in2="effect1_dropShadow_637_2820" result="shape"/>
</filter>
<filter id="filter8_d_637_2820" x="4.45146" y="19.9266" width="17.5937" height="17.2902" filterUnits="userSpaceOnUse" color-interpolation-filters="sRGB">
<feFlood flood-opacity="0" result="BackgroundImageFix"/>
<feColorMatrix in="SourceAlpha" type="matrix" values="0 0 0 0 0 0 0 0 0 0 0 0 0 0 0 0 0 0 127 0" result="hardAlpha"/>
<feOffset/>
<feGaussianBlur stdDeviation="3.15"/>
<feComposite in2="hardAlpha" operator="out"/>
<feColorMatrix type="matrix" values="0 0 0 0 1 0 0 0 0 1 0 0 0 0 1 0 0 0 0.25 0"/>
<feBlend mode="normal" in2="BackgroundImageFix" result="effect1_dropShadow_637_2820"/>
<feBlend mode="normal" in="SourceGraphic" in2="effect1_dropShadow_637_2820" result="shape"/>
</filter>
<linearGradient id="paint0_linear_637_2820" x1="43.4988" y1="9.15691" x2="32.1658" y2="9.24021" gradientUnits="userSpaceOnUse">
<stop stop-color="#F19F63"/>
<stop offset="1" stop-color="#AC4E0A"/>
</linearGradient>
<linearGradient id="paint1_linear_637_2820" x1="34.6208" y1="14.9774" x2="28.0705" y2="27.6995" gradientUnits="userSpaceOnUse">
<stop stop-color="#F8A65B"/>
<stop offset="1" stop-color="#B65A17"/>
</linearGradient>
<linearGradient id="paint2_linear_637_2820" x1="30.0393" y1="17.6595" x2="26.5271" y2="26.2351" gradientUnits="userSpaceOnUse">
<stop stop-color="#F8A65B"/>
<stop offset="1" stop-color="#B65A17"/>
</linearGradient>
<linearGradient id="paint3_linear_637_2820" x1="48.2993" y1="12.2441" x2="38.7024" y2="9.7011" gradientUnits="userSpaceOnUse">
<stop stop-color="#F19F63"/>
<stop offset="1" stop-color="#AC4E0A"/>
</linearGradient>
<linearGradient id="paint4_linear_637_2820" x1="67.7319" y1="22.5537" x2="57.8467" y2="19.8173" gradientUnits="userSpaceOnUse">
<stop stop-color="#F19F63"/>
<stop offset="1" stop-color="#AC4E0A"/>
</linearGradient>
<linearGradient id="paint5_linear_637_2820" x1="65.208" y1="37.2663" x2="55.3227" y2="34.5299" gradientUnits="userSpaceOnUse">
<stop stop-color="#F19F63"/>
<stop offset="1" stop-color="#AC4E0A"/>
</linearGradient>
<linearGradient id="paint6_linear_637_2820" x1="66.8906" y1="29.2798" x2="57.0054" y2="26.5434" gradientUnits="userSpaceOnUse">
<stop stop-color="#F19F63"/>
<stop offset="1" stop-color="#AC4E0A"/>
</linearGradient>
<linearGradient id="paint7_linear_637_2820" x1="10.6001" y1="19.6733" x2="9.99007" y2="40.1925" gradientUnits="userSpaceOnUse">
<stop stop-color="#F8A65B"/>
<stop offset="1" stop-color="#B65A17"/>
</linearGradient>
<linearGradient id="paint8_linear_637_2820" x1="13.1245" y1="33.1252" x2="12.5145" y2="53.6444" gradientUnits="userSpaceOnUse">
<stop stop-color="#F8A65B"/>
<stop offset="1" stop-color="#B65A17"/>
</linearGradient>
<linearGradient id="paint9_linear_637_2820" x1="11.4419" y1="25.9787" x2="10.8319" y2="46.4979" gradientUnits="userSpaceOnUse">
<stop stop-color="#F8A65B"/>
<stop offset="1" stop-color="#B65A17"/>
</linearGradient>
<linearGradient id="paint10_linear_637_2820" x1="20.8269" y1="16.0387" x2="45.467" y2="18.4269" gradientUnits="userSpaceOnUse">
<stop stop-color="#F2B072"/>
<stop offset="1" stop-color="#C75C0F"/>
</linearGradient>
<linearGradient id="paint11_linear_637_2820" x1="21.5398" y1="17.8068" x2="45.1091" y2="19.0845" gradientUnits="userSpaceOnUse">
<stop stop-color="#F89E4B"/>
<stop offset="1" stop-color="#DB7124"/>
</linearGradient>
<linearGradient id="paint12_linear_637_2820" x1="31.456" y1="27.4666" x2="42.2983" y2="28.0944" gradientUnits="userSpaceOnUse">
<stop stop-color="#F2DFD2"/>
<stop offset="1" stop-color="#EA9558"/>
</linearGradient>
<linearGradient id="paint13_linear_637_2820" x1="21.5165" y1="27.4666" x2="27.2535" y2="15.5554" gradientUnits="userSpaceOnUse">
<stop stop-color="#F2DFD2"/>
</linearGradient>
<linearGradient id="paint14_linear_637_2820" x1="31.9734" y1="57.8647" x2="32.3828" y2="47.9318" gradientUnits="userSpaceOnUse">
<stop stop-color="#D1741D"/>
<stop offset="0.994792" stop-color="#F8A264"/>
</linearGradient>
<linearGradient id="paint15_linear_637_2820" x1="37.8585" y1="17.7049" x2="34.4391" y2="21.7004" gradientUnits="userSpaceOnUse">
<stop stop-color="#ECD5C8"/>
<stop offset="1" stop-color="#FF7A00"/>
</linearGradient>
<linearGradient id="paint16_linear_637_2820" x1="37.8585" y1="61.4222" x2="34.4391" y2="65.4177" gradientUnits="userSpaceOnUse">
<stop stop-color="#ECD5C8"/>
<stop offset="1" stop-color="#FF7A00"/>
</linearGradient>
<linearGradient id="paint17_linear_637_2820" x1="53.4657" y1="23.616" x2="55.6563" y2="28.3958" gradientUnits="userSpaceOnUse">
<stop stop-color="#ECD5C8"/>
<stop offset="1" stop-color="#FF7A00"/>
</linearGradient>
<linearGradient id="paint18_linear_637_2820" x1="15.3896" y1="23.616" x2="17.5801" y2="28.3958" gradientUnits="userSpaceOnUse">
<stop stop-color="#ECD5C8"/>
<stop offset="1" stop-color="#FF7A00"/>
</linearGradient>
</defs>
</svg>
