<svg width="69" height="67" viewBox="0 0 69 67" fill="none" xmlns="http://www.w3.org/2000/svg">
<path d="M26.0676 5.81285L11.5489 15.17C7.2639 17.9316 4.6748 22.6805 4.6748 27.7783V45.7154C4.6748 52.1478 8.77594 57.8641 14.8692 59.9248L29.4359 64.8512C32.5957 65.9198 36.0215 65.9048 39.1718 64.8084L53.0407 59.9816C59.0698 57.8833 63.1103 52.1989 63.1103 45.815V27.6511C63.1103 22.6231 60.5912 17.9295 56.401 15.1505L42.4842 5.92058C37.5191 2.62755 31.0756 2.58527 26.0676 5.81285Z" fill="url(#paint0_linear_622_11133)"/>
<g filter="url(#filter0_i_622_11133)">
<path d="M26.0321 8.28524L13.4317 16.4185C9.15176 19.1811 6.56641 23.9271 6.56641 29.0212V43.993C6.56641 50.7304 11.0585 56.6411 17.5499 58.4452L30.2097 61.9636C32.8743 62.7041 35.6918 62.6936 38.3508 61.9331L50.3443 58.503C56.7819 56.6619 61.2197 50.777 61.2197 44.0813V28.8939C61.2197 23.8697 58.7043 19.1791 54.5192 16.3992L42.4663 8.39316C37.4971 5.0924 31.0443 5.05003 26.0321 8.28524Z" fill="url(#paint1_linear_622_11133)"/>
</g>
<g filter="url(#filter1_d_622_11133)">
<path d="M27.3792 34.729C27.3551 34.5109 27.3792 34.2767 27.3712 34.0344C27.3712 33.9132 27.3952 33.7759 27.4354 33.6467C27.4675 33.5255 27.4675 33.3963 27.4916 33.2832C27.5397 33.0651 27.6039 32.8551 27.6521 32.637C27.7324 32.2816 27.8849 31.9504 28.0213 31.6112C28.1578 31.2639 28.3504 30.9408 28.5431 30.6177C28.7277 30.3027 28.9524 30.02 29.1932 29.7373C29.5304 29.3576 29.8916 28.9941 30.2367 28.6226C30.4775 28.3641 30.7264 28.1218 30.9672 27.8714C31.4327 27.4029 31.9063 26.9344 32.3558 26.4498C32.8374 25.9409 33.327 25.4482 33.8167 24.9393C34.0334 24.7132 34.2742 24.5032 34.4829 24.2609C34.828 23.857 35.2213 23.5016 35.5906 23.122C35.7993 22.9119 36.008 22.7019 36.2086 22.4838C36.6902 21.9588 37.22 21.4823 37.7016 20.9492C38.1029 20.5049 38.5444 20.093 38.9538 19.6568C39.2668 19.3256 39.5799 19.0025 39.8849 18.6794C40.1498 18.4048 40.4387 18.1706 40.7277 17.9283C41.0166 17.6859 41.3297 17.4921 41.6508 17.2982C41.9959 17.0963 42.3732 16.9348 42.7504 16.7974C42.919 16.7409 43.0795 16.6601 43.2481 16.6278C43.3926 16.6036 43.529 16.5551 43.6735 16.539C43.8983 16.5147 44.115 16.4663 44.3397 16.434C44.6768 16.3855 45.022 16.3855 45.3591 16.3855C45.7926 16.3855 46.218 16.4501 46.6354 16.5309C47.1009 16.6197 47.5504 16.749 47.9758 16.9428C48.3932 17.1286 48.8026 17.3548 49.1879 17.6132C49.6294 17.9202 50.0387 18.2675 50.416 18.6552C50.7531 18.9945 51.026 19.3822 51.2989 19.7699C51.6441 20.2787 51.8929 20.8442 52.1016 21.4257C52.2782 21.9265 52.3906 22.4354 52.4548 22.9604C52.4869 23.2593 52.527 23.5581 52.519 23.8651C52.511 24.1801 52.519 24.4951 52.4708 24.8101C52.4146 25.1736 52.3665 25.5451 52.2702 25.9005C52.1498 26.3367 52.0053 26.7648 51.8126 27.1687C51.4835 27.8956 51.0501 28.5418 50.5123 29.1315C50.1431 29.5434 49.7498 29.9392 49.3645 30.3269C48.9712 30.7146 48.5939 31.1185 48.2247 31.5223C48.0641 31.7 47.9036 31.8777 47.719 32.0312C47.6146 32.1281 47.5183 32.2412 47.422 32.3381C47.3498 32.4108 47.2775 32.4755 47.2053 32.5481C46.8039 32.9682 46.3946 33.372 46.0013 33.8001C45.7845 34.0344 45.5678 34.2686 45.3511 34.4948C44.9819 34.8744 44.6126 35.254 44.2354 35.6337C43.8581 36.0133 43.4728 36.3849 43.1116 36.7806C42.614 37.3218 42.0922 37.8468 41.5865 38.388C41.2655 38.7273 40.9203 39.0504 40.5912 39.3815C40.2621 39.7127 39.933 40.0439 39.6039 40.375C39.4193 40.5608 39.2026 40.7143 39.0019 40.8758C38.721 41.0939 38.424 41.2878 38.111 41.4493C37.6213 41.6997 37.1076 41.9016 36.5779 42.0551C36.2568 42.144 35.9197 42.1924 35.5906 42.257C35.5023 42.2732 35.4059 42.2732 35.3177 42.2813C34.8842 42.3136 34.4508 42.2732 34.0173 42.2732C33.8889 42.2732 33.7605 42.2328 33.632 42.2167C33.4795 42.1924 33.327 42.152 33.1745 42.1197C32.9096 42.0632 32.6528 41.9824 32.3959 41.9097C32.0909 41.8209 31.8019 41.6755 31.513 41.5462C31.3203 41.4574 31.1518 41.3282 30.9672 41.2312C30.8146 41.1505 30.6782 41.0535 30.5417 40.9566C30.3571 40.8112 30.1725 40.6658 29.9959 40.5204C29.7471 40.3104 29.5143 40.0762 29.2976 39.8339C29.1611 39.6723 29.0167 39.5188 28.8882 39.3492C28.6635 39.0504 28.4789 38.7273 28.3023 38.4042C28.1337 38.0892 27.9651 37.7741 27.8528 37.4349C27.7324 37.0957 27.6521 36.7483 27.5478 36.4091C27.5076 36.2718 27.5076 36.1183 27.4755 35.9729C27.3872 35.561 27.3631 35.1571 27.3792 34.729ZM31.8983 40.1246C31.9223 40.0843 31.9143 40.0519 31.9143 40.0196C31.9143 39.6481 31.9143 39.2765 31.9143 38.913C31.9143 36.9987 31.9143 35.0925 31.9143 33.1782C31.9143 33.1136 31.9223 33.0732 32.0026 33.0732C32.5886 33.0732 33.1745 33.0732 33.7605 33.0812C33.8407 33.0812 33.8728 33.0651 33.8648 32.9762C33.8648 32.2251 33.8648 31.4658 33.8648 30.7146C33.8648 30.1896 33.8648 29.6726 33.8648 29.1476C33.8648 29.0184 33.8648 29.0184 34.0013 29.0103C34.0735 29.0103 34.1538 29.0184 34.226 28.9941C34.2661 28.9861 34.3223 29.0103 34.3304 29.0749C34.3304 29.1557 34.3464 29.2284 34.3464 29.3011C34.3464 30.5207 34.3464 31.7404 34.3464 32.9682C34.3464 33.0489 34.3705 33.0732 34.4508 33.0651C35.0367 33.0651 35.6227 33.0651 36.2086 33.057C36.2889 33.057 36.313 33.0732 36.313 33.1539C36.313 35.3429 36.313 37.5318 36.313 39.7127C36.313 39.9792 36.313 40.2539 36.313 40.5204C36.313 40.585 36.329 40.6093 36.4013 40.585C36.4976 40.5527 36.5939 40.5366 36.6822 40.4962C36.8508 40.4235 37.0274 40.3589 37.1959 40.27C37.3886 40.165 37.5892 40.0762 37.7819 39.9631C38.0146 39.8258 38.2233 39.6723 38.4401 39.5027C38.5685 39.4058 38.6889 39.3088 38.6327 39.115C38.6327 39.1069 38.6327 39.0988 38.6327 39.0827C38.6327 35.8598 38.6407 32.6289 38.6407 29.4061C38.6407 28.3964 38.6407 27.3868 38.6407 26.3771C38.6407 26.2479 38.6407 26.2479 38.7692 26.2479C39.331 26.2479 39.9009 26.2479 40.4628 26.2479C40.5591 26.2479 40.5912 26.2156 40.5912 26.1186C40.5832 25.4563 40.5912 24.7859 40.5912 24.1235C40.5912 23.5177 40.5912 22.9119 40.5912 22.3061C40.5912 22.2092 40.6233 22.185 40.7116 22.185C40.7999 22.1931 40.8882 22.1931 40.9685 22.185C41.0407 22.1769 41.0568 22.2092 41.0568 22.2738C41.0568 23.5339 41.0568 24.794 41.0568 26.0621C41.0568 26.1025 41.0648 26.1429 41.0488 26.1752C41.0166 26.2479 41.0568 26.2479 41.1049 26.2479C41.2494 26.2479 41.4019 26.2479 41.5464 26.2479C41.9959 26.2479 42.4454 26.2479 42.8869 26.2479C42.9672 26.2479 42.9993 26.2721 42.9993 26.3529C42.9912 26.4579 42.9912 26.571 42.9912 26.676C42.9912 29.3415 42.9912 31.9989 42.9912 34.6644C42.9912 34.6967 42.9912 34.7209 42.9993 34.7532C43.0233 34.8179 43.0394 34.8259 43.0876 34.7775C43.1839 34.6725 43.2802 34.5755 43.3765 34.4786C43.8902 33.9455 44.412 33.4124 44.9257 32.8793C45.5598 32.2251 46.1939 31.5708 46.836 30.9165C46.8842 30.8681 46.9003 30.8115 46.9003 30.7469C46.9003 29.7776 46.9003 28.8003 46.9003 27.831C46.9003 27.7502 46.8762 27.726 46.7959 27.726C46.234 27.7341 45.6722 27.726 45.1103 27.726C44.9578 27.726 44.9498 27.7583 44.9498 27.5725C44.9498 24.6809 44.9498 21.7811 44.9498 18.8895C44.9498 18.8168 44.9177 18.7521 44.9257 18.6794C44.9658 18.4452 44.9417 18.2029 44.9417 17.9686C44.9417 17.8071 44.9337 17.8071 44.7812 17.8152C44.7571 17.8152 44.725 17.8152 44.7009 17.8152C44.5324 17.8313 44.3638 17.8313 44.1952 17.8636C43.826 17.9363 43.4568 18.0333 43.0956 18.1706C42.6782 18.324 42.2849 18.526 41.9237 18.7764C41.4742 19.0833 41.0809 19.471 40.6956 19.8587C40.3665 20.1899 40.0534 20.5211 39.7243 20.8522C39.5879 20.9896 39.4514 21.1188 39.323 21.2561C38.9217 21.6761 38.5203 22.1042 38.119 22.5323C38.0227 22.6373 37.9263 22.7585 37.822 22.8554C37.6053 23.0654 37.4046 23.2835 37.1879 23.4935C36.6019 24.0751 36.016 24.6647 35.4621 25.2786C35.133 25.6421 34.7879 25.9813 34.4427 26.3286C33.8648 26.9183 33.2708 27.4998 32.7009 28.0976C32.123 28.7034 31.5531 29.3092 30.9672 29.9069C30.5498 30.335 30.1243 30.755 29.8033 31.2719C29.5705 31.6354 29.3618 32.015 29.2013 32.4189C28.9926 32.9439 28.8641 33.4851 28.808 34.0424C28.7437 34.6644 28.7518 35.2863 28.8802 35.9002C28.9685 36.3202 29.0889 36.7322 29.2414 37.136C29.3217 37.3541 29.4421 37.5561 29.5544 37.758C30.1243 38.7757 30.8949 39.5592 31.8983 40.1246ZM49.3003 19.5114C49.2922 19.5599 49.2922 19.5841 49.2922 19.6083C49.2922 20.9007 49.2922 22.185 49.2922 23.4774C49.2922 24.8586 49.2922 26.2398 49.2922 27.6291C49.2922 27.7179 49.2762 27.7583 49.1718 27.7583C48.5939 27.7502 48.024 27.7583 47.4461 27.7583C47.3578 27.7583 47.3337 27.7906 47.3337 27.8714C47.3337 28.663 47.3337 29.4626 47.3337 30.2542C47.3337 30.2946 47.3337 30.335 47.3337 30.3754C47.5424 30.1734 47.7431 29.9796 47.9437 29.7776C48.2728 29.4384 48.6019 29.0991 48.931 28.7599C49.3324 28.348 49.7417 27.9441 50.0628 27.4595C50.6969 26.5063 51.034 25.4482 51.1063 24.3093C51.1464 23.6551 51.0742 23.0089 50.9136 22.3708C50.7451 21.7004 50.4722 21.0784 50.0869 20.5049C49.8702 20.1414 49.5973 19.8426 49.3003 19.5114Z" fill="url(#paint2_linear_622_11133)"/>
</g>
<g filter="url(#filter2_d_622_11133)">
<path d="M26.2251 38.1333C26.1371 38.1013 26.0891 38.0371 26.0491 37.9809C25.905 37.7884 25.729 37.6199 25.5689 37.4435C25.3769 37.2269 25.1768 37.0103 24.9688 36.8017C24.5686 36.3926 24.1685 35.9834 23.7684 35.5743C23.5364 35.3336 23.3043 35.101 23.0722 34.8684C22.8802 34.6758 22.7041 34.4673 22.5121 34.2828C22.424 34.1945 22.344 34.0902 22.232 34.018C22.136 33.9619 22.104 33.8415 22.0159 33.7613C21.7599 33.5287 21.5358 33.272 21.2797 33.0393C21.0797 32.8548 20.9196 32.6222 20.7196 32.4377C20.5915 32.3254 20.4795 32.189 20.3435 32.0847C20.2794 32.0446 20.2554 31.9563 20.1994 31.9002C19.9354 31.6435 19.6713 31.3948 19.4232 31.1221C19.0871 30.745 18.719 30.4001 18.3829 30.023C18.1348 29.7503 17.8628 29.4936 17.6067 29.2288C17.2306 28.8358 16.8865 28.4106 16.5904 27.9533C16.4464 27.7287 16.3343 27.4881 16.2063 27.2554C16.0863 27.0388 16.0143 26.8062 15.9182 26.5896C15.7902 26.3168 15.7502 26.028 15.6622 25.7473C15.6061 25.5547 15.5821 25.3542 15.5421 25.1616C15.4461 24.6242 15.4701 24.0867 15.4541 23.5412C15.4541 23.3968 15.4701 23.2524 15.4621 23.108C15.4621 22.9957 15.5101 22.8754 15.5261 22.755C15.5421 22.6828 15.5341 22.6026 15.5421 22.5304C15.5581 22.4101 15.5981 22.2978 15.6302 22.1774C15.7262 21.7683 15.8542 21.3752 16.0063 20.9821C16.0943 20.7495 16.1823 20.5088 16.3183 20.3003C16.4944 20.0275 16.6544 19.7387 16.8465 19.482C17.0385 19.2173 17.2306 18.9526 17.4627 18.7199C17.6627 18.5113 17.8708 18.3108 18.0948 18.1183C18.4549 17.7974 18.847 17.5166 19.2712 17.284C19.5272 17.1476 19.7913 17.0192 20.0554 16.8989C20.2474 16.8107 20.4395 16.7385 20.6475 16.6903C20.8076 16.6502 20.9516 16.578 21.1197 16.562C21.3758 16.5379 21.6158 16.4737 21.8639 16.4336C22.224 16.3855 22.5841 16.3855 22.9442 16.3855C23.0882 16.3855 23.2323 16.3855 23.3683 16.3935C23.5123 16.4015 23.6564 16.4256 23.8004 16.4497C24.0005 16.4818 24.2005 16.562 24.4086 16.57C24.5926 16.578 24.7447 16.6743 24.9127 16.7144C25.2328 16.7866 25.5209 16.939 25.817 17.0674C26.1771 17.2278 26.5052 17.4284 26.8253 17.653C27.0573 17.8134 27.2974 17.9739 27.5135 18.1664C27.6655 18.3028 27.8095 18.4472 27.9456 18.5916C28.3937 19.0488 28.8418 19.5061 29.29 19.9633C29.7781 20.4687 30.2662 20.9821 30.7624 21.4795C31.3705 22.0892 31.9547 22.731 32.5709 23.3326C32.5949 23.3567 32.6189 23.3807 32.6429 23.4048C32.6749 23.4369 32.6669 23.469 32.6349 23.5011C32.4108 23.7257 32.1948 23.9423 31.9707 24.1669C31.8987 24.2471 31.8107 24.3193 31.7466 24.3996C31.6906 24.4637 31.6506 24.4316 31.6106 24.3996C31.4346 24.2231 31.2425 24.0546 31.0905 23.8541C30.9304 23.6535 30.7224 23.5091 30.5783 23.3005C30.5143 23.2123 30.4183 23.1481 30.3463 23.0679C30.0422 22.755 29.7461 22.4261 29.434 22.1293C29.1539 21.8566 28.8898 21.5597 28.6098 21.279C28.4177 21.0864 28.2097 20.91 28.0336 20.7014C27.7935 20.4126 27.5215 20.1639 27.2654 19.8911C26.9853 19.5943 26.7052 19.2975 26.3771 19.0488C26.1851 18.9044 25.985 18.76 25.769 18.6397C25.5929 18.5354 25.4089 18.4472 25.2328 18.3509C25.0648 18.2627 24.8887 18.1905 24.7047 18.1343C24.5526 18.0862 24.3926 18.03 24.2325 17.9899C23.9845 17.9257 23.7364 17.8856 23.4883 17.8455C23.3603 17.8215 23.2323 17.8295 23.1042 17.8214C23.0242 17.8134 23.0082 17.8455 23.0082 17.9177C23.0082 18.1664 23.0082 18.4151 23.0082 18.6557C23.0082 19.4339 23.0082 20.212 23.0082 20.9902C23.0082 22.8593 23.0162 24.7365 23.0082 26.6056C23.0082 26.9265 23.0242 27.2474 23.0162 27.5763C23.0162 27.6405 23.0082 27.6806 22.9202 27.6806C22.344 27.6806 21.7679 27.6806 21.1917 27.6806C21.0957 27.6806 21.0717 27.7127 21.0717 27.833C21.0717 28.6914 21.0717 29.5417 21.0717 30.4001C21.0717 30.5044 21.0797 30.6086 21.0637 30.7129C21.0557 30.753 21.0717 30.7771 21.0957 30.8092C21.6398 31.3627 22.184 31.9162 22.7281 32.4778C23.3203 33.0875 23.9125 33.6971 24.5046 34.3068C24.6487 34.4512 24.8007 34.5876 24.9528 34.732C24.9528 34.4913 24.9528 34.2426 24.9528 33.994C24.9528 31.4349 24.9528 28.8839 24.9528 26.3249C24.9528 26.2366 24.9848 26.2125 25.0648 26.2125C25.6409 26.2125 26.2171 26.2125 26.7933 26.2125C26.8893 26.2125 26.9053 26.1805 26.9053 26.0922C26.9053 24.8327 26.9053 23.5813 26.9053 22.3218C26.9053 22.1774 26.9053 22.1774 27.0493 22.1774C27.1134 22.1774 27.1854 22.1855 27.2494 22.1774C27.3374 22.1694 27.3694 22.2015 27.3694 22.2978C27.3694 22.755 27.3694 23.2123 27.3694 23.6695C27.3694 24.4878 27.3694 25.298 27.3694 26.1163C27.3694 26.2045 27.4014 26.2366 27.4815 26.2045C27.5375 26.1805 27.5935 26.2125 27.6415 26.2125C28.1616 26.2125 28.6738 26.2125 29.1939 26.2125C29.282 26.2125 29.33 26.2366 29.306 26.3329C29.274 26.5174 29.29 26.7019 29.29 26.8784C29.29 26.9265 29.274 26.9586 29.2419 26.9907C29.0579 27.1672 28.8979 27.3517 28.7138 27.5282C28.5137 27.7287 28.3137 27.9293 28.1136 28.1378C27.8896 28.3625 27.6895 28.6031 27.4975 28.8518C27.3614 29.0283 27.2334 29.2048 27.1134 29.3893C26.9053 29.7021 26.7052 30.023 26.5452 30.368C26.3932 30.6889 26.2491 31.0178 26.1291 31.3547C26.025 31.6515 25.913 31.9403 25.849 32.2451C25.793 32.5179 25.721 32.7826 25.681 33.0554C25.6569 33.2399 25.6409 33.4244 25.6169 33.6089C25.5849 33.8576 25.5769 34.0982 25.5609 34.3469C25.5449 34.5796 25.5369 34.8122 25.5689 35.0448C25.5849 35.1572 25.5769 35.2775 25.5849 35.3898C25.6089 35.6144 25.6329 35.839 25.6649 36.0556C25.721 36.4567 25.825 36.8498 25.929 37.2349C25.985 37.4434 26.0491 37.644 26.1371 37.8365C26.1611 37.9328 26.2091 38.021 26.2251 38.1333ZM20.5675 30.2316C20.5675 30.2156 20.5755 30.2075 20.5755 30.1995C20.5755 29.4134 20.5755 28.6272 20.5755 27.841C20.5755 27.6405 20.5755 27.6485 20.3835 27.6565C19.8313 27.6806 19.2872 27.6645 18.735 27.6645C18.663 27.6645 18.631 27.6405 18.631 27.5603C18.631 24.937 18.631 22.3058 18.631 19.6826C18.631 19.6344 18.655 19.5622 18.615 19.5462C18.575 19.5302 18.551 19.6024 18.519 19.6344C18.1589 19.9794 17.8788 20.3885 17.6307 20.8137C17.2946 21.3993 17.0786 22.025 16.9425 22.6828C16.8145 23.3005 16.8065 23.9263 16.8545 24.552C16.8785 24.8568 16.9505 25.1536 17.0145 25.4504C17.1746 26.1163 17.4627 26.734 17.8388 27.3035C18.1509 27.7849 18.543 28.194 18.9511 28.6031C19.1751 28.8358 19.3992 29.0684 19.6233 29.301C19.8953 29.5738 20.1674 29.8465 20.4315 30.1273C20.4715 30.1674 20.5115 30.2075 20.5675 30.2316Z" fill="url(#paint3_linear_622_11133)"/>
</g>
<path d="M4.6748 53.1245C4.6748 53.1245 17.8278 57.4055 33.7922 57.4055C49.7565 57.4055 63.1103 53.1245 63.1103 53.1245V38.3052C63.1103 38.3052 45.566 44.0834 33.7922 44.0683C22.0946 44.0533 4.6748 38.3052 4.6748 38.3052V53.1245Z" fill="url(#paint4_linear_622_11133)"/>
<rect x="30.1201" y="48.7236" width="1.64527" height="5.48424" fill="#FFF6D1"/>
<rect x="33.3086" y="48.7236" width="1.64527" height="5.48424" fill="#FFF6D1"/>
<rect x="36.2305" y="48.7236" width="1.64527" height="5.48424" fill="#FFF6D1"/>
<g filter="url(#filter3_d_622_11133)">
<path d="M35.0504 9.33105C34.6655 9.99772 33.7032 9.99772 33.3183 9.33105L30.7488 4.88052C30.3639 4.21386 30.845 3.38052 31.6148 3.38052L36.7539 3.38052C37.5237 3.38052 38.0048 4.21386 37.6199 4.88052L35.0504 9.33105Z" fill="url(#paint5_linear_622_11133)"/>
</g>
<g filter="url(#filter4_d_622_11133)">
<path d="M10.1212 23.4144C10.5581 24.0482 10.1451 24.9173 9.37777 24.9787L4.25516 25.3892C3.48781 25.4506 2.94167 24.6584 3.2721 23.9631L5.47797 19.3216C5.8084 18.6263 6.76758 18.5495 7.20449 19.1833L10.1212 23.4144Z" fill="url(#paint6_linear_622_11133)"/>
</g>
<g filter="url(#filter5_d_622_11133)">
<path d="M58.0438 23.4144C57.6069 24.0482 58.0199 24.9173 58.7873 24.9787L63.9099 25.3892C64.6772 25.4506 65.2234 24.6584 64.8929 23.9631L62.6871 19.3216C62.3566 18.6263 61.3975 18.5495 60.9605 19.1833L58.0438 23.4144Z" fill="url(#paint7_linear_622_11133)"/>
</g>
<defs>
<filter id="filter0_i_622_11133" x="6.56641" y="5.88794" width="55.6533" height="57.6233" filterUnits="userSpaceOnUse" color-interpolation-filters="sRGB">
<feFlood flood-opacity="0" result="BackgroundImageFix"/>
<feBlend mode="normal" in="SourceGraphic" in2="BackgroundImageFix" result="shape"/>
<feColorMatrix in="SourceAlpha" type="matrix" values="0 0 0 0 0 0 0 0 0 0 0 0 0 0 0 0 0 0 127 0" result="hardAlpha"/>
<feOffset dx="1" dy="1"/>
<feGaussianBlur stdDeviation="1"/>
<feComposite in2="hardAlpha" operator="arithmetic" k2="-1" k3="1"/>
<feColorMatrix type="matrix" values="0 0 0 0 0 0 0 0 0 0 0 0 0 0 0 0 0 0 0.25 0"/>
<feBlend mode="normal" in2="shape" result="effect1_innerShadow_622_11133"/>
</filter>
<filter id="filter1_d_622_11133" x="26.7682" y="16.3855" width="28.3523" height="29.5082" filterUnits="userSpaceOnUse" color-interpolation-filters="sRGB">
<feFlood flood-opacity="0" result="BackgroundImageFix"/>
<feColorMatrix in="SourceAlpha" type="matrix" values="0 0 0 0 0 0 0 0 0 0 0 0 0 0 0 0 0 0 127 0" result="hardAlpha"/>
<feOffset dx="1" dy="2"/>
<feGaussianBlur stdDeviation="0.8"/>
<feComposite in2="hardAlpha" operator="out"/>
<feColorMatrix type="matrix" values="0 0 0 0 0 0 0 0 0 0 0 0 0 0 0 0 0 0 0.25 0"/>
<feBlend mode="normal" in2="BackgroundImageFix" result="effect1_dropShadow_622_11133"/>
<feBlend mode="normal" in="SourceGraphic" in2="effect1_dropShadow_622_11133" result="shape"/>
</filter>
<filter id="filter2_d_622_11133" x="14.8541" y="16.3855" width="20.409" height="25.3478" filterUnits="userSpaceOnUse" color-interpolation-filters="sRGB">
<feFlood flood-opacity="0" result="BackgroundImageFix"/>
<feColorMatrix in="SourceAlpha" type="matrix" values="0 0 0 0 0 0 0 0 0 0 0 0 0 0 0 0 0 0 127 0" result="hardAlpha"/>
<feOffset dx="1" dy="2"/>
<feGaussianBlur stdDeviation="0.8"/>
<feComposite in2="hardAlpha" operator="out"/>
<feColorMatrix type="matrix" values="0 0 0 0 0 0 0 0 0 0 0 0 0 0 0 0 0 0 0.25 0"/>
<feBlend mode="normal" in2="BackgroundImageFix" result="effect1_dropShadow_622_11133"/>
<feBlend mode="normal" in="SourceGraphic" in2="effect1_dropShadow_622_11133" result="shape"/>
</filter>
<filter id="filter3_d_622_11133" x="30.3133" y="3.08062" width="9.7416" height="9.05044" filterUnits="userSpaceOnUse" color-interpolation-filters="sRGB">
<feFlood flood-opacity="0" result="BackgroundImageFix"/>
<feColorMatrix in="SourceAlpha" type="matrix" values="0 0 0 0 0 0 0 0 0 0 0 0 0 0 0 0 0 0 127 0" result="hardAlpha"/>
<feOffset dx="1" dy="1"/>
<feGaussianBlur stdDeviation="0.65"/>
<feComposite in2="hardAlpha" operator="out"/>
<feColorMatrix type="matrix" values="0 0 0 0 0 0 0 0 0 0 0 0 0 0 0 0 0 0 0.25 0"/>
<feBlend mode="normal" in2="BackgroundImageFix" result="effect1_dropShadow_622_11133"/>
<feBlend mode="normal" in="SourceGraphic" in2="effect1_dropShadow_622_11133" result="shape"/>
</filter>
<filter id="filter4_d_622_11133" x="2.87383" y="18.4507" width="9.725" height="9.24185" filterUnits="userSpaceOnUse" color-interpolation-filters="sRGB">
<feFlood flood-opacity="0" result="BackgroundImageFix"/>
<feColorMatrix in="SourceAlpha" type="matrix" values="0 0 0 0 0 0 0 0 0 0 0 0 0 0 0 0 0 0 127 0" result="hardAlpha"/>
<feOffset dx="1" dy="1"/>
<feGaussianBlur stdDeviation="0.65"/>
<feComposite in2="hardAlpha" operator="out"/>
<feColorMatrix type="matrix" values="0 0 0 0 0 0 0 0 0 0 0 0 0 0 0 0 0 0 0.25 0"/>
<feBlend mode="normal" in2="BackgroundImageFix" result="effect1_dropShadow_622_11133"/>
<feBlend mode="normal" in="SourceGraphic" in2="effect1_dropShadow_622_11133" result="shape"/>
</filter>
<filter id="filter5_d_622_11133" x="57.5662" y="18.4507" width="9.725" height="9.24185" filterUnits="userSpaceOnUse" color-interpolation-filters="sRGB">
<feFlood flood-opacity="0" result="BackgroundImageFix"/>
<feColorMatrix in="SourceAlpha" type="matrix" values="0 0 0 0 0 0 0 0 0 0 0 0 0 0 0 0 0 0 127 0" result="hardAlpha"/>
<feOffset dx="1" dy="1"/>
<feGaussianBlur stdDeviation="0.65"/>
<feComposite in2="hardAlpha" operator="out"/>
<feColorMatrix type="matrix" values="0 0 0 0 0 0 0 0 0 0 0 0 0 0 0 0 0 0 0.25 0"/>
<feBlend mode="normal" in2="BackgroundImageFix" result="effect1_dropShadow_622_11133"/>
<feBlend mode="normal" in="SourceGraphic" in2="effect1_dropShadow_622_11133" result="shape"/>
</filter>
<linearGradient id="paint0_linear_622_11133" x1="19.4093" y1="12.414" x2="58.0468" y2="59.754" gradientUnits="userSpaceOnUse">
<stop offset="0.207595" stop-color="#D2B85C"/>
<stop offset="0.961067" stop-color="#836035"/>
</linearGradient>
<linearGradient id="paint1_linear_622_11133" x1="20.3472" y1="14.1185" x2="58.4267" y2="53.8834" gradientUnits="userSpaceOnUse">
<stop stop-color="#916C30"/>
<stop offset="0.828125" stop-color="#C49A45"/>
</linearGradient>
<linearGradient id="paint2_linear_622_11133" x1="39.9441" y1="16.3855" x2="39.9441" y2="42.2938" gradientUnits="userSpaceOnUse">
<stop stop-color="#FFF7D2"/>
<stop offset="1" stop-color="#E5C66C"/>
</linearGradient>
<linearGradient id="paint3_linear_622_11133" x1="24.0587" y1="16.3855" x2="24.0587" y2="38.1333" gradientUnits="userSpaceOnUse">
<stop stop-color="#FFF7D2"/>
<stop offset="1" stop-color="#E5C66C"/>
</linearGradient>
<linearGradient id="paint4_linear_622_11133" x1="41.3435" y1="42.4657" x2="41.3435" y2="57.4055" gradientUnits="userSpaceOnUse">
<stop stop-color="#E5C66C"/>
<stop offset="1" stop-color="#AF7343"/>
</linearGradient>
<linearGradient id="paint5_linear_622_11133" x1="34.1843" y1="10.8311" x2="34.1843" y2="0.897014" gradientUnits="userSpaceOnUse">
<stop stop-color="#9B7534"/>
<stop offset="1" stop-color="#FFF7D2"/>
</linearGradient>
<linearGradient id="paint6_linear_622_11133" x1="11.1043" y1="24.8404" x2="2.13195" y2="20.5763" gradientUnits="userSpaceOnUse">
<stop stop-color="#9B7534"/>
<stop offset="1" stop-color="#FFF7D2"/>
</linearGradient>
<linearGradient id="paint7_linear_622_11133" x1="57.0608" y1="24.8404" x2="66.0331" y2="20.5763" gradientUnits="userSpaceOnUse">
<stop stop-color="#9B7534"/>
<stop offset="1" stop-color="#FFF7D2"/>
</linearGradient>
</defs>
</svg>
