<svg width="75" height="68" viewBox="0 0 75 68" fill="none" xmlns="http://www.w3.org/2000/svg">
<g clip-path="url(#clip0_3_440)">
<g clip-path="url(#clip1_3_440)">
<g filter="url(#filter0_d_3_440)">
<path d="M44.422 8.75618C44.4722 9.1109 38.6487 17.4137 33.75 24.9752C30.4568 24.6651 25.8404 24.5705 27.4401 22.3819C30.268 18.513 34.0057 14.6749 36.6159 10.4021L44.0414 0.147008C44.079 1.42849 44.326 8.07814 44.422 8.75618Z" fill="url(#paint0_linear_3_440)"/>
<path d="M49.8006 67.3076C49.443 67.3297 41.6238 60.8714 34.471 55.3933C35.039 52.1346 35.4963 47.54 37.5523 49.3068C41.187 52.4301 44.7192 56.4581 48.7736 59.3962L58.413 67.6052C57.1325 67.5418 50.484 67.2651 49.8006 67.3076Z" fill="url(#paint1_linear_3_440)"/>
<path d="M28.3049 8.9001C28.2613 9.2557 34.2368 17.4498 39.2739 24.9197C42.5609 24.549 47.1747 24.3694 45.535 22.2106C42.6364 18.3944 38.8286 14.6259 36.1401 10.4019L28.5268 0.285383C28.5129 1.56733 28.3885 8.22041 28.3049 8.9001Z" fill="url(#paint2_linear_3_440)"/>
<path d="M25.0738 67.7891C25.4312 67.8145 33.3074 61.4257 40.5085 56.0113C39.9693 52.7476 39.5528 48.1492 37.4812 49.8977C33.819 52.9887 30.2512 56.9851 26.1709 59.8872L16.4591 68.0103C17.7401 67.9583 24.3907 67.7406 25.0738 67.7891Z" fill="url(#paint3_linear_3_440)"/>
<path d="M24.1864 10.5605C24.2186 10.8089 31.4896 16.9718 37.7345 22.5642C40.7317 22.5082 45.0088 22.6703 43.032 21.0426C39.5375 18.1652 35.2028 15.2645 31.821 12.1121L22.6236 4.4887C22.874 5.39343 24.1248 10.0856 24.1864 10.5605Z" fill="url(#paint4_linear_3_440)"/>
<path d="M48.702 10.2509C48.6792 10.5004 41.6439 16.9311 35.6128 22.7533C32.6156 22.8096 28.3475 23.1317 30.262 21.4311C33.6463 18.4249 37.8694 15.364 41.1309 12.0872L50.0364 4.12484C49.8201 5.03832 48.7458 9.77397 48.702 10.2509Z" fill="url(#paint5_linear_3_440)"/>
<path d="M73.0679 18.454C72.5691 18.9671 63.7727 30.4246 57.3473 36.8355C54.966 34.2721 51.5057 31.1121 53.5031 29.3762C57.034 26.3075 61.2425 23.8772 64.7539 20.1505L74.06 11.9707C73.4984 13.7163 73.3103 18.2046 73.0679 18.454Z" fill="url(#paint6_linear_3_440)"/>
<path d="M73.068 11.9697C72.5692 12.4828 63.7728 23.9404 57.3474 30.3513C54.9661 27.7878 51.5059 24.6278 53.5033 22.8919C57.0342 19.8232 61.2427 17.3929 64.754 13.6663L74.0602 5.48636C73.4986 7.23201 73.3104 11.7203 73.068 11.9697Z" fill="url(#paint7_linear_3_440)"/>
<path d="M70.0754 35.91C69.5766 36.423 60.7802 47.8806 54.3548 54.2915C51.9735 51.728 48.5133 48.5681 50.5107 46.8321C54.0416 43.7635 58.2501 41.3332 61.7614 37.6065L71.0676 29.4266C70.506 31.1723 70.3178 35.6606 70.0754 35.91Z" fill="url(#paint8_linear_3_440)"/>
<path d="M72.0703 26.4337C71.5716 26.9468 62.7751 38.4044 56.3497 44.8153C53.9684 42.2518 50.5082 39.0918 52.5056 37.3559C56.0365 34.2872 60.245 31.857 63.7564 28.1303L73.0625 19.9504C72.5009 21.696 72.3128 26.1844 72.0703 26.4337Z" fill="url(#paint9_linear_3_440)"/>
<path d="M2.49383 17.9552C2.99259 18.4682 11.0117 29.9258 17.4371 36.3367C19.8184 33.7732 23.2786 30.6133 21.2812 28.8773C17.7503 25.8087 13.5418 23.3784 10.0304 19.6517L0.724319 11.4718C1.28591 13.2175 2.25141 17.7058 2.49383 17.9552Z" fill="url(#paint10_linear_3_440)"/>
<path d="M2.49396 11.9697C2.99271 12.4828 11.0118 23.9404 17.4372 30.3513C19.8185 27.7878 23.2787 24.6278 21.2813 22.8919C17.7504 19.8232 13.5419 17.3929 10.0306 13.6663L0.724442 5.48636C1.28603 7.23201 2.25153 11.7203 2.49396 11.9697Z" fill="url(#paint11_linear_3_440)"/>
<path d="M5.48642 33.9149C5.98517 34.428 14.0042 45.8855 20.4296 52.2964C22.811 49.733 26.2712 46.573 24.2738 44.8371C20.7429 41.7684 16.5344 39.3381 13.023 35.6115L3.7169 27.4316C4.27849 29.1772 5.24399 33.6655 5.48642 33.9149Z" fill="url(#paint12_linear_3_440)"/>
<path d="M3.49136 25.4361C3.99012 25.9491 12.0092 37.4067 18.4346 43.8176C20.8159 41.2541 24.2761 38.0942 22.2787 36.3583C18.7478 33.2896 14.5393 30.8593 11.028 27.1326L1.72185 18.9527C2.28344 20.6984 3.24893 25.1867 3.49136 25.4361Z" fill="url(#paint13_linear_3_440)"/>
<g clip-path="url(#clip2_3_440)">
<g filter="url(#filter1_d_3_440)">
<path d="M61.687 44.1688V26.1847L69.8269 15.4615L64.3396 17.2071L58.9434 19.2021L41.1169 9.63388L40.8507 8.28609C40.3901 5.95423 39.382 3.7652 37.9094 1.89942L36.4102 0L35.0865 2.28553C34.1479 3.9063 33.521 5.68852 33.2385 7.54004L32.9189 9.63388L14.3047 19.2021L10.4739 17.7059L5.32706 15.4615L11.8114 26.1847V44.074C11.8114 50.7096 16.1713 56.5568 22.531 58.4503L28.7719 60.3085C30.4373 60.8043 31.7648 62.0672 32.3431 63.7057C32.7177 64.767 33.4128 65.6857 34.3323 66.3348L37.1583 68.3297L39.7771 66.3499C40.6514 65.689 41.3147 64.7882 41.6863 63.7571C42.2896 62.083 43.646 60.7907 45.3473 60.269L51.0844 58.5098C57.3853 56.5777 61.687 50.7593 61.687 44.1688Z" fill="url(#paint14_linear_3_440)"/>
</g>
<g filter="url(#filter2_i_3_440)">
<path d="M28.831 14.9066L20.2909 20.419C16.0109 23.1816 13.4256 27.9276 13.4256 33.0217V42.9335C13.4256 49.6709 17.9177 55.5817 24.4091 57.3858L33.0086 59.7757C35.6732 60.5162 38.4907 60.5057 41.1497 59.7452L49.1976 57.4436C55.6353 55.6024 60.073 49.7176 60.073 43.0218V32.8944C60.073 27.8702 57.5576 23.1796 53.3725 20.3997L45.2652 15.0145C40.296 11.7137 33.8432 11.6713 28.831 14.9066Z" fill="url(#paint15_linear_3_440)"/>
</g>
<g filter="url(#filter3_d_3_440)">
<path d="M31.1901 36.6969C31.1695 36.5107 31.1901 36.3108 31.1832 36.104C31.1832 36.0006 31.2038 35.8834 31.238 35.7731C31.2654 35.6697 31.2654 35.5593 31.286 35.4628C31.3271 35.2767 31.3819 35.0974 31.423 34.9113C31.4915 34.608 31.6217 34.3253 31.7382 34.0358C31.8546 33.7393 32.019 33.4635 32.1835 33.1878C32.341 32.9189 32.5329 32.6776 32.7384 32.4363C33.0261 32.1123 33.3344 31.8021 33.629 31.4849C33.8345 31.2643 34.0469 31.0575 34.2525 30.8438C34.6498 30.4439 35.054 30.0441 35.4377 29.6304C35.8487 29.1961 36.2666 28.7756 36.6846 28.3412C36.8695 28.1482 37.0751 27.969 37.2532 27.7621C37.5478 27.4174 37.8835 27.1141 38.1986 26.7901C38.3767 26.6108 38.5549 26.4316 38.7261 26.2454C39.1372 25.7973 39.5894 25.3906 40.0004 24.9356C40.343 24.5564 40.7198 24.2048 41.0692 23.8325C41.3364 23.5498 41.6035 23.2741 41.8639 22.9983C42.09 22.7639 42.3366 22.564 42.5832 22.3572C42.8299 22.1503 43.097 21.9849 43.3711 21.8194C43.6657 21.6471 43.9877 21.5092 44.3097 21.392C44.4535 21.3437 44.5906 21.2748 44.7344 21.2472C44.8577 21.2265 44.9742 21.1852 45.0975 21.1714C45.2894 21.1507 45.4743 21.1093 45.6662 21.0818C45.9539 21.0404 46.2485 21.0404 46.5362 21.0404C46.9062 21.0404 47.2693 21.0955 47.6255 21.1645C48.0229 21.2403 48.4065 21.3506 48.7696 21.5161C49.1259 21.6746 49.4753 21.8677 49.8041 22.0883C50.1809 22.3503 50.5303 22.6467 50.8523 22.9776C51.1401 23.2672 51.373 23.5981 51.6059 23.929C51.9005 24.3633 52.1129 24.8459 52.291 25.3423C52.4418 25.7697 52.5377 26.2041 52.5925 26.6522C52.6199 26.9073 52.6541 27.1623 52.6473 27.4243C52.6404 27.6932 52.6473 27.9621 52.6062 28.2309C52.5582 28.5412 52.5171 28.8583 52.4349 29.1616C52.3321 29.5339 52.2088 29.8993 52.0444 30.244C51.7635 30.8645 51.3936 31.416 50.9346 31.9193C50.6194 32.2709 50.2837 32.6087 49.9549 32.9396C49.6192 33.2705 49.2972 33.6152 48.982 33.9599C48.845 34.1116 48.708 34.2633 48.5504 34.3942C48.4614 34.477 48.3791 34.5735 48.2969 34.6562C48.2353 34.7183 48.1736 34.7734 48.112 34.8355C47.7694 35.194 47.42 35.5387 47.0843 35.9041C46.8993 36.104 46.7144 36.3039 46.5294 36.4969C46.2142 36.821 45.8991 37.145 45.5771 37.469C45.2551 37.793 44.9263 38.1102 44.618 38.448C44.1932 38.9099 43.7479 39.358 43.3163 39.8199C43.0422 40.1094 42.7477 40.3852 42.4668 40.6679C42.1859 40.9505 41.905 41.2332 41.6241 41.5158C41.4665 41.6744 41.2815 41.8054 41.1103 41.9433C40.8705 42.1294 40.617 42.2949 40.3498 42.4328C39.9319 42.6465 39.4934 42.8188 39.0413 42.9498C38.7672 43.0257 38.4795 43.067 38.1986 43.1222C38.1233 43.136 38.041 43.136 37.9657 43.1429C37.5957 43.1704 37.2258 43.136 36.8558 43.136C36.7462 43.136 36.6366 43.1015 36.527 43.0877C36.3968 43.067 36.2666 43.0325 36.1365 43.005C35.9104 42.9567 35.6912 42.8878 35.4719 42.8257C35.2116 42.7499 34.965 42.6258 34.7183 42.5155C34.5539 42.4397 34.41 42.3293 34.2525 42.2466C34.1223 42.1777 34.0058 42.095 33.8894 42.0122C33.7318 41.8881 33.5742 41.764 33.4235 41.6399C33.2111 41.4607 33.0124 41.2608 32.8275 41.0539C32.711 40.9161 32.5877 40.7851 32.4781 40.6403C32.2862 40.3852 32.1287 40.1094 31.9779 39.8337C31.8341 39.5648 31.6902 39.2959 31.5943 39.0064C31.4915 38.7168 31.423 38.4204 31.3339 38.1308C31.2997 38.0136 31.2997 37.8827 31.2723 37.7586C31.1969 37.407 31.1764 37.0623 31.1901 36.6969ZM35.0472 41.3021C35.0677 41.2677 35.0609 41.2401 35.0609 41.2125C35.0609 40.8954 35.0609 40.5782 35.0609 40.268C35.0609 38.6341 35.0609 37.0071 35.0609 35.3732C35.0609 35.3181 35.0677 35.2836 35.1362 35.2836C35.6364 35.2836 36.1365 35.2836 36.6366 35.2905C36.7051 35.2905 36.7325 35.2767 36.7257 35.2009C36.7257 34.5597 36.7257 33.9117 36.7257 33.2705C36.7257 32.8224 36.7257 32.3812 36.7257 31.9331C36.7257 31.8228 36.7257 31.8227 36.8421 31.8159C36.9038 31.8159 36.9723 31.8227 37.0339 31.8021C37.0682 31.7952 37.1162 31.8159 37.123 31.871C37.123 31.9399 37.1367 32.002 37.1367 32.064C37.1367 33.1051 37.1367 34.1461 37.1367 35.194C37.1367 35.2629 37.1573 35.2836 37.2258 35.2767C37.7259 35.2767 38.226 35.2767 38.7261 35.2698C38.7946 35.2698 38.8152 35.2836 38.8152 35.3525C38.8152 37.2208 38.8152 39.0891 38.8152 40.9505C38.8152 41.178 38.8152 41.4124 38.8152 41.6399C38.8152 41.6951 38.8289 41.7158 38.8906 41.6951C38.9728 41.6675 39.055 41.6537 39.1303 41.6193C39.2742 41.5572 39.4249 41.5021 39.5688 41.4262C39.7332 41.3366 39.9045 41.2608 40.0689 41.1642C40.2676 41.047 40.4457 40.9161 40.6307 40.7713C40.7403 40.6886 40.8431 40.6058 40.7951 40.4404C40.7951 40.4335 40.7951 40.4266 40.7951 40.4128C40.7951 37.662 40.802 34.9044 40.802 32.1537C40.802 31.2919 40.802 30.4301 40.802 29.5684C40.802 29.4581 40.802 29.4581 40.9116 29.4581C41.3912 29.4581 41.8776 29.4581 42.3571 29.4581C42.4394 29.4581 42.4668 29.4305 42.4668 29.3478C42.4599 28.7825 42.4668 28.2102 42.4668 27.6449C42.4668 27.1279 42.4668 26.6108 42.4668 26.0938C42.4668 26.011 42.4942 25.9903 42.5695 25.9903C42.6449 25.9972 42.7202 25.9972 42.7888 25.9903C42.8504 25.9835 42.8641 26.011 42.8641 26.0662C42.8641 27.1417 42.8641 28.2171 42.8641 29.2995C42.8641 29.334 42.871 29.3685 42.8573 29.396C42.8299 29.4581 42.8641 29.4581 42.9052 29.4581C43.0285 29.4581 43.1587 29.4581 43.282 29.4581C43.6657 29.4581 44.0493 29.4581 44.4261 29.4581C44.4946 29.4581 44.5221 29.4788 44.5221 29.5477C44.5152 29.6373 44.5152 29.7338 44.5152 29.8235C44.5152 32.0985 44.5152 34.3667 44.5152 36.6417C44.5152 36.6693 44.5152 36.69 44.5221 36.7176C44.5426 36.7727 44.5563 36.7796 44.5974 36.7382C44.6796 36.6486 44.7618 36.5659 44.844 36.4832C45.2825 36.0281 45.7278 35.5731 46.1663 35.1181C46.7075 34.5597 47.2487 34.0013 47.7968 33.4429C47.8379 33.4015 47.8516 33.3532 47.8516 33.2981C47.8516 32.4708 47.8516 31.6366 47.8516 30.8093C47.8516 30.7404 47.8311 30.7197 47.7626 30.7197C47.283 30.7266 46.8034 30.7197 46.3239 30.7197C46.1937 30.7197 46.1868 30.7473 46.1868 30.5887C46.1868 28.1206 46.1868 25.6456 46.1868 23.1776C46.1868 23.1155 46.1594 23.0604 46.1663 22.9983C46.2005 22.7984 46.18 22.5916 46.18 22.3916C46.18 22.2537 46.1731 22.2537 46.043 22.2606C46.0224 22.2606 45.995 22.2606 45.9745 22.2606C45.8306 22.2744 45.6867 22.2744 45.5428 22.302C45.2277 22.3641 44.9126 22.4468 44.6043 22.564C44.248 22.695 43.9123 22.8673 43.604 23.081C43.2204 23.343 42.8847 23.6739 42.5558 24.0048C42.2749 24.2875 42.0077 24.5702 41.7269 24.8528C41.6104 24.97 41.4939 25.0803 41.3843 25.1975C41.0418 25.556 40.6992 25.9214 40.3567 26.2868C40.2745 26.3764 40.1922 26.4798 40.1032 26.5626C39.9182 26.7418 39.7469 26.9279 39.562 27.1072C39.0618 27.6036 38.5617 28.1068 38.089 28.6308C37.8081 28.941 37.5135 29.2306 37.2189 29.527C36.7257 30.0303 36.2187 30.5267 35.7323 31.0368C35.239 31.5539 34.7526 32.0709 34.2525 32.5811C33.8962 32.9465 33.5331 33.305 33.2591 33.7462C33.0604 34.0564 32.8823 34.3805 32.7452 34.7252C32.5671 35.1733 32.4575 35.6352 32.4095 36.1109C32.3547 36.6417 32.3616 37.1726 32.4712 37.6965C32.5466 38.055 32.6493 38.4066 32.7795 38.7513C32.848 38.9375 32.9508 39.1098 33.0467 39.2822C33.5331 40.1508 34.1908 40.8195 35.0472 41.3021ZM49.9001 23.7084C49.8932 23.7498 49.8932 23.7704 49.8932 23.7911C49.8932 24.8942 49.8932 25.9903 49.8932 27.0934C49.8932 28.2723 49.8932 29.4512 49.8932 30.637C49.8932 30.7128 49.8795 30.7473 49.7904 30.7473C49.2972 30.7404 48.8108 30.7473 48.3175 30.7473C48.2421 30.7473 48.2216 30.7748 48.2216 30.8438C48.2216 31.5194 48.2216 32.2019 48.2216 32.8775C48.2216 32.912 48.2216 32.9465 48.2216 32.981C48.3997 32.8086 48.571 32.6431 48.7422 32.4708C49.0231 32.1812 49.304 31.8917 49.5849 31.6021C49.9275 31.2505 50.2769 30.9058 50.5509 30.4922C51.0921 29.6787 51.3799 28.7756 51.4415 27.8035C51.4758 27.2451 51.4141 26.6935 51.2771 26.1489C51.1332 25.5767 50.9003 25.0459 50.5715 24.5564C50.3865 24.2461 50.1535 23.9911 49.9001 23.7084Z" fill="url(#paint16_linear_3_440)"/>
</g>
<g filter="url(#filter4_d_3_440)">
<path d="M30.2049 39.602C30.1297 39.5746 30.0888 39.5198 30.0546 39.4719C29.9317 39.3076 29.7814 39.1638 29.6448 39.0132C29.4809 38.8283 29.3101 38.6434 29.1326 38.4654C28.791 38.1162 28.4495 37.767 28.108 37.4178C27.91 37.2124 27.7119 37.0138 27.5138 36.8153C27.3499 36.651 27.1997 36.4729 27.0357 36.3155C26.9606 36.2401 26.8923 36.1511 26.7967 36.0895C26.7147 36.0416 26.6874 35.9389 26.6123 35.8704C26.3937 35.6718 26.2025 35.4527 25.9839 35.2542C25.8132 35.0967 25.6766 34.8981 25.5058 34.7407C25.3965 34.6448 25.3009 34.5284 25.1848 34.4394C25.1302 34.4052 25.1097 34.3298 25.0619 34.2819C24.8365 34.0628 24.6111 33.8505 24.3993 33.6178C24.1125 33.2959 23.7983 33.0015 23.5114 32.6797C23.2997 32.4469 23.0675 32.2278 22.8489 32.0019C22.5279 31.6664 22.2342 31.3035 21.9815 30.9132C21.8586 30.7215 21.7629 30.5161 21.6537 30.3175C21.5512 30.1326 21.4897 29.9341 21.4078 29.7492C21.2985 29.5164 21.2644 29.2699 21.1892 29.0303C21.1414 28.866 21.1209 28.6948 21.0868 28.5305C21.0048 28.0717 21.0253 27.613 21.0116 27.1474C21.0116 27.0241 21.0253 26.9009 21.0185 26.7776C21.0185 26.6818 21.0595 26.5791 21.0731 26.4764C21.0868 26.4147 21.0799 26.3463 21.0868 26.2846C21.1004 26.1819 21.1346 26.0861 21.1619 25.9834C21.2439 25.6342 21.3531 25.2987 21.4829 24.9632C21.558 24.7646 21.6332 24.5592 21.7493 24.3812C21.8995 24.1484 22.0361 23.9019 22.2001 23.6828C22.364 23.4568 22.5279 23.2309 22.726 23.0323C22.8967 22.8543 23.0743 22.6831 23.2656 22.5188C23.5729 22.2449 23.9076 22.0053 24.2696 21.8067C24.4881 21.6903 24.7135 21.5808 24.9389 21.4781C25.1028 21.4028 25.2668 21.3411 25.4443 21.3001C25.5809 21.2658 25.7039 21.2042 25.8473 21.1905C26.0659 21.17 26.2708 21.1152 26.4825 21.0809C26.7898 21.0399 27.0972 21.0399 27.4046 21.0399C27.5275 21.0399 27.6504 21.0399 27.7665 21.0467C27.8895 21.0536 28.0124 21.0741 28.1354 21.0946C28.3061 21.122 28.4769 21.1905 28.6544 21.1973C28.8115 21.2042 28.9413 21.2864 29.0847 21.3206C29.3579 21.3822 29.6038 21.5123 29.8565 21.6219C30.1639 21.7588 30.4439 21.93 30.7171 22.1217C30.9152 22.2586 31.1201 22.3956 31.3045 22.5599C31.4343 22.6763 31.5572 22.7995 31.6733 22.9228C32.0558 23.3131 32.4383 23.7033 32.8208 24.0936C33.2374 24.525 33.654 24.9632 34.0775 25.3877C34.5966 25.9081 35.0952 26.4558 35.6211 26.9693C35.6416 26.9899 35.6621 27.0104 35.6826 27.031C35.7099 27.0584 35.703 27.0857 35.6757 27.1131C35.4845 27.3048 35.3001 27.4897 35.1088 27.6814C35.0474 27.7499 34.9722 27.8115 34.9176 27.88C34.8698 27.9348 34.8356 27.9074 34.8015 27.88C34.6512 27.7294 34.4873 27.5856 34.3575 27.4144C34.2209 27.2432 34.0433 27.12 33.9204 26.942C33.8658 26.8666 33.7838 26.8119 33.7223 26.7434C33.4628 26.4764 33.2101 26.1956 32.9437 25.9423C32.7047 25.7095 32.4793 25.4562 32.2402 25.2165C32.0763 25.0522 31.8987 24.9016 31.7485 24.7235C31.5436 24.477 31.3113 24.2648 31.0928 24.032C30.8537 23.7787 30.6147 23.5253 30.3346 23.3131C30.1707 23.1898 30 23.0666 29.8156 22.9639C29.6653 22.8749 29.5082 22.7995 29.3579 22.7174C29.2145 22.6421 29.0642 22.5804 28.9072 22.5325C28.7774 22.4914 28.6408 22.4435 28.5042 22.4093C28.2925 22.3545 28.0807 22.3202 27.869 22.286C27.7597 22.2655 27.6504 22.2723 27.5412 22.2655C27.4729 22.2586 27.4592 22.286 27.4592 22.3476C27.4592 22.5599 27.4592 22.7722 27.4592 22.9776C27.4592 23.6417 27.4592 24.3059 27.4592 24.97C27.4592 26.5654 27.466 28.1676 27.4592 29.7629C27.4592 30.0368 27.4729 30.3107 27.466 30.5914C27.466 30.6462 27.4592 30.6804 27.3841 30.6804C26.8923 30.6804 26.4005 30.6804 25.9088 30.6804C25.8268 30.6804 25.8063 30.7078 25.8063 30.8105C25.8063 31.5431 25.8063 32.2689 25.8063 33.0015C25.8063 33.0905 25.8132 33.1795 25.7995 33.2686C25.7927 33.3028 25.8063 33.3233 25.8268 33.3507C26.2913 33.8232 26.7557 34.2956 27.2201 34.7749C27.7256 35.2953 28.231 35.8156 28.7364 36.336C28.8593 36.4592 28.9891 36.5756 29.1189 36.6989C29.1189 36.4935 29.1189 36.2812 29.1189 36.069C29.1189 33.8848 29.1189 31.7074 29.1189 29.5233C29.1189 29.4479 29.1462 29.4274 29.2145 29.4274C29.7063 29.4274 30.198 29.4274 30.6898 29.4274C30.7718 29.4274 30.7854 29.4 30.7854 29.3247C30.7854 28.2497 30.7854 27.1816 30.7854 26.1066C30.7854 25.9834 30.7854 25.9834 30.9084 25.9834C30.963 25.9834 31.0245 25.9902 31.0791 25.9834C31.1542 25.9765 31.1816 26.0039 31.1816 26.0861C31.1816 26.4764 31.1816 26.8666 31.1816 27.2569C31.1816 27.9553 31.1816 28.6469 31.1816 29.3452C31.1816 29.4206 31.2089 29.4479 31.2772 29.4206C31.325 29.4 31.3728 29.4274 31.4138 29.4274C31.8577 29.4274 32.2949 29.4274 32.7388 29.4274C32.8139 29.4274 32.8549 29.4479 32.8344 29.5301C32.8071 29.6876 32.8208 29.8451 32.8208 29.9957C32.8208 30.0368 32.8071 30.0642 32.7798 30.0916C32.6227 30.2422 32.4861 30.3997 32.329 30.5503C32.1583 30.7215 31.9875 30.8927 31.8168 31.0707C31.6255 31.2624 31.4548 31.4678 31.2908 31.6801C31.1747 31.8307 31.0654 31.9813 30.963 32.1388C30.7854 32.4058 30.6147 32.6797 30.4781 32.9741C30.3483 33.248 30.2254 33.5287 30.1229 33.8163C30.0341 34.0697 29.9385 34.3161 29.8839 34.5763C29.836 34.8091 29.7746 35.0351 29.7404 35.2679C29.7199 35.4254 29.7063 35.5828 29.6858 35.7403C29.6585 35.9526 29.6516 36.158 29.638 36.3702C29.6243 36.5688 29.6175 36.7674 29.6448 36.9659C29.6585 37.0618 29.6516 37.1645 29.6585 37.2603C29.679 37.4521 29.6994 37.6438 29.7268 37.8286C29.7746 38.171 29.8634 38.5065 29.9522 38.8351C30 39.0132 30.0546 39.1843 30.1297 39.3487C30.1502 39.4308 30.1912 39.5061 30.2049 39.602ZM25.376 32.8577C25.376 32.844 25.3829 32.8372 25.3829 32.8303C25.3829 32.1593 25.3829 31.4883 25.3829 30.8173C25.3829 30.6462 25.3829 30.653 25.2189 30.6599C24.7477 30.6804 24.2832 30.6667 23.812 30.6667C23.7505 30.6667 23.7232 30.6462 23.7232 30.5777C23.7232 28.3387 23.7232 26.0929 23.7232 23.854C23.7232 23.8129 23.7437 23.7513 23.7095 23.7376C23.6754 23.7239 23.6549 23.7855 23.6275 23.8129C23.3202 24.1073 23.0811 24.4565 22.8694 24.8194C22.5825 25.3192 22.3981 25.8533 22.282 26.4147C22.1727 26.942 22.1659 27.476 22.2069 28.0101C22.2274 28.2703 22.2889 28.5236 22.3435 28.7769C22.4801 29.3452 22.726 29.8725 23.047 30.3586C23.3134 30.7694 23.648 31.1186 23.9964 31.4678C24.1876 31.6664 24.3788 31.8649 24.5701 32.0635C24.8023 32.2963 25.0345 32.5291 25.2599 32.7687C25.2941 32.803 25.3282 32.8372 25.376 32.8577Z" fill="url(#paint17_linear_3_440)"/>
</g>
<g filter="url(#filter5_d_3_440)">
<path d="M11.8115 52.3973C11.8115 52.3973 23.0378 56.0512 36.6636 56.0512C50.2895 56.0512 61.6872 52.3973 61.6872 52.3973V39.7488C61.6872 39.7488 46.7128 44.6805 36.6636 44.6677C26.6796 44.6549 11.8115 39.7488 11.8115 39.7488V52.3973Z" fill="url(#paint18_linear_3_440)"/>
</g>
<g filter="url(#filter6_d_3_440)">
<path d="M38.7313 10.9652C37.9615 12.2985 36.037 12.2985 35.2672 10.9652L35.0598 10.606C34.29 9.27271 35.2523 7.60605 36.7919 7.60605L37.2066 7.60605C38.7462 7.60605 39.7084 9.27271 38.9386 10.606L38.7313 10.9652Z" fill="url(#paint19_linear_3_440)"/>
</g>
<g filter="url(#filter7_d_3_440)">
<path d="M61.5961 21.7835C62.484 23.0413 61.6773 24.7886 60.1441 24.9286L59.7311 24.9663C58.1979 25.1064 57.088 23.5342 57.7333 22.1363L57.9072 21.7598C58.5525 20.362 60.469 20.1869 61.3569 21.4447L61.5961 21.7835Z" fill="url(#paint20_linear_3_440)"/>
</g>
<g filter="url(#filter8_d_3_440)">
<path d="M61.5961 21.7837C62.484 23.0415 61.6773 24.7888 60.1441 24.9289L59.7311 24.9666C58.1979 25.1066 57.088 23.5344 57.7333 22.1366L57.9072 21.7601C58.5525 20.3622 60.469 20.1872 61.3569 21.445L61.5961 21.7837Z" fill="url(#paint21_linear_3_440)"/>
</g>
<g filter="url(#filter9_d_3_440)">
<path d="M16.4549 21.7835C17.3428 23.0413 16.5362 24.7886 15.003 24.9286L14.59 24.9663C13.0568 25.1064 11.9469 23.5342 12.5922 22.1363L12.766 21.7598C13.4114 20.362 15.3279 20.1869 16.2158 21.4447L16.4549 21.7835Z" fill="url(#paint22_linear_3_440)"/>
</g>
</g>
</g>
</g>
<path d="M38.1609 52.2057L37.3868 51.0726L36.5569 52.2057H34.913L36.5569 50.0431L34.9609 47.8805H36.6686L37.4347 48.9738L38.2327 47.8805H39.8367L38.2407 49.9873L39.8926 52.2057H38.1609Z" fill="#FFB6B6"/>
<g filter="url(#filter10_d_3_440)">
<path d="M38.9715 64.4789C38.2017 65.8122 36.2772 65.8122 35.5074 64.4789L35.3 64.1197C34.5302 62.7864 35.4925 61.1197 37.0321 61.1197L37.4468 61.1197C38.9864 61.1197 39.9486 62.7864 39.1788 64.1197L38.9715 64.4789Z" fill="url(#paint23_linear_3_440)"/>
</g>
</g>
<defs>
<filter id="filter0_d_3_440" x="-10.6" y="-10.6" width="96.2" height="89.5297" filterUnits="userSpaceOnUse" color-interpolation-filters="sRGB">
<feFlood flood-opacity="0" result="BackgroundImageFix"/>
<feColorMatrix in="SourceAlpha" type="matrix" values="0 0 0 0 0 0 0 0 0 0 0 0 0 0 0 0 0 0 127 0" result="hardAlpha"/>
<feOffset/>
<feGaussianBlur stdDeviation="5.3"/>
<feColorMatrix type="matrix" values="0 0 0 0 0.831373 0 0 0 0 0.14902 0 0 0 0 0.333333 0 0 0 0.3 0"/>
<feBlend mode="normal" in2="BackgroundImageFix" result="effect1_dropShadow_3_440"/>
<feBlend mode="normal" in="SourceGraphic" in2="effect1_dropShadow_3_440" result="shape"/>
</filter>
<filter id="filter1_d_3_440" x="0.227057" y="-9.1" width="74.6998" height="78.5297" filterUnits="userSpaceOnUse" color-interpolation-filters="sRGB">
<feFlood flood-opacity="0" result="BackgroundImageFix"/>
<feColorMatrix in="SourceAlpha" type="matrix" values="0 0 0 0 0 0 0 0 0 0 0 0 0 0 0 0 0 0 127 0" result="hardAlpha"/>
<feOffset dy="-4"/>
<feGaussianBlur stdDeviation="2.55"/>
<feComposite in2="hardAlpha" operator="out"/>
<feColorMatrix type="matrix" values="0 0 0 0 0 0 0 0 0 0 0 0 0 0 0 0 0 0 0.25 0"/>
<feBlend mode="normal" in2="BackgroundImageFix" result="effect1_dropShadow_3_440"/>
<feBlend mode="normal" in="SourceGraphic" in2="effect1_dropShadow_3_440" result="shape"/>
</filter>
<filter id="filter2_i_3_440" x="13.4256" y="12.5092" width="48.6475" height="48.8142" filterUnits="userSpaceOnUse" color-interpolation-filters="sRGB">
<feFlood flood-opacity="0" result="BackgroundImageFix"/>
<feBlend mode="normal" in="SourceGraphic" in2="BackgroundImageFix" result="shape"/>
<feColorMatrix in="SourceAlpha" type="matrix" values="0 0 0 0 0 0 0 0 0 0 0 0 0 0 0 0 0 0 127 0" result="hardAlpha"/>
<feOffset dx="2" dy="1"/>
<feGaussianBlur stdDeviation="1"/>
<feComposite in2="hardAlpha" operator="arithmetic" k2="-1" k3="1"/>
<feColorMatrix type="matrix" values="0 0 0 0 0 0 0 0 0 0 0 0 0 0 0 0 0 0 0.25 0"/>
<feBlend mode="normal" in2="shape" result="effect1_innerShadow_3_440"/>
</filter>
<filter id="filter3_d_3_440" x="30.5807" y="21.0404" width="24.6675" height="25.7132" filterUnits="userSpaceOnUse" color-interpolation-filters="sRGB">
<feFlood flood-opacity="0" result="BackgroundImageFix"/>
<feColorMatrix in="SourceAlpha" type="matrix" values="0 0 0 0 0 0 0 0 0 0 0 0 0 0 0 0 0 0 127 0" result="hardAlpha"/>
<feOffset dx="1" dy="2"/>
<feGaussianBlur stdDeviation="0.8"/>
<feComposite in2="hardAlpha" operator="out"/>
<feColorMatrix type="matrix" values="0 0 0 0 0 0 0 0 0 0 0 0 0 0 0 0 0 0 0.25 0"/>
<feBlend mode="normal" in2="BackgroundImageFix" result="effect1_dropShadow_3_440"/>
<feBlend mode="normal" in="SourceGraphic" in2="effect1_dropShadow_3_440" result="shape"/>
</filter>
<filter id="filter4_d_3_440" x="20.4116" y="21.0399" width="17.8883" height="22.1621" filterUnits="userSpaceOnUse" color-interpolation-filters="sRGB">
<feFlood flood-opacity="0" result="BackgroundImageFix"/>
<feColorMatrix in="SourceAlpha" type="matrix" values="0 0 0 0 0 0 0 0 0 0 0 0 0 0 0 0 0 0 127 0" result="hardAlpha"/>
<feOffset dx="1" dy="2"/>
<feGaussianBlur stdDeviation="0.8"/>
<feComposite in2="hardAlpha" operator="out"/>
<feColorMatrix type="matrix" values="0 0 0 0 0 0 0 0 0 0 0 0 0 0 0 0 0 0 0.25 0"/>
<feBlend mode="normal" in2="BackgroundImageFix" result="effect1_dropShadow_3_440"/>
<feBlend mode="normal" in="SourceGraphic" in2="effect1_dropShadow_3_440" result="shape"/>
</filter>
<filter id="filter5_d_3_440" x="11.8115" y="39.4488" width="53.1757" height="18.9024" filterUnits="userSpaceOnUse" color-interpolation-filters="sRGB">
<feFlood flood-opacity="0" result="BackgroundImageFix"/>
<feColorMatrix in="SourceAlpha" type="matrix" values="0 0 0 0 0 0 0 0 0 0 0 0 0 0 0 0 0 0 127 0" result="hardAlpha"/>
<feOffset dx="2" dy="1"/>
<feGaussianBlur stdDeviation="0.65"/>
<feComposite in2="hardAlpha" operator="out"/>
<feColorMatrix type="matrix" values="0 0 0 0 0 0 0 0 0 0 0 0 0 0 0 0 0 0 0.25 0"/>
<feBlend mode="normal" in2="BackgroundImageFix" result="effect1_dropShadow_3_440"/>
<feBlend mode="normal" in="SourceGraphic" in2="effect1_dropShadow_3_440" result="shape"/>
</filter>
<filter id="filter6_d_3_440" x="28.4889" y="1.30605" width="17.0207" height="16.9591" filterUnits="userSpaceOnUse" color-interpolation-filters="sRGB">
<feFlood flood-opacity="0" result="BackgroundImageFix"/>
<feColorMatrix in="SourceAlpha" type="matrix" values="0 0 0 0 0 0 0 0 0 0 0 0 0 0 0 0 0 0 127 0" result="hardAlpha"/>
<feOffset/>
<feGaussianBlur stdDeviation="3.15"/>
<feComposite in2="hardAlpha" operator="out"/>
<feColorMatrix type="matrix" values="0 0 0 0 1 0 0 0 0 1 0 0 0 0 1 0 0 0 0.25 0"/>
<feBlend mode="normal" in2="BackgroundImageFix" result="effect1_dropShadow_3_440"/>
<feBlend mode="normal" in="SourceGraphic" in2="effect1_dropShadow_3_440" result="shape"/>
</filter>
<filter id="filter7_d_3_440" x="51.2461" y="14.2979" width="17.0186" height="16.9771" filterUnits="userSpaceOnUse" color-interpolation-filters="sRGB">
<feFlood flood-opacity="0" result="BackgroundImageFix"/>
<feColorMatrix in="SourceAlpha" type="matrix" values="0 0 0 0 0 0 0 0 0 0 0 0 0 0 0 0 0 0 127 0" result="hardAlpha"/>
<feOffset/>
<feGaussianBlur stdDeviation="3.15"/>
<feComposite in2="hardAlpha" operator="out"/>
<feColorMatrix type="matrix" values="0 0 0 0 1 0 0 0 0 1 0 0 0 0 1 0 0 0 0.25 0"/>
<feBlend mode="normal" in2="BackgroundImageFix" result="effect1_dropShadow_3_440"/>
<feBlend mode="normal" in="SourceGraphic" in2="effect1_dropShadow_3_440" result="shape"/>
</filter>
<filter id="filter8_d_3_440" x="51.2461" y="14.2982" width="17.0186" height="16.9771" filterUnits="userSpaceOnUse" color-interpolation-filters="sRGB">
<feFlood flood-opacity="0" result="BackgroundImageFix"/>
<feColorMatrix in="SourceAlpha" type="matrix" values="0 0 0 0 0 0 0 0 0 0 0 0 0 0 0 0 0 0 127 0" result="hardAlpha"/>
<feOffset/>
<feGaussianBlur stdDeviation="3.15"/>
<feComposite in2="hardAlpha" operator="out"/>
<feColorMatrix type="matrix" values="0 0 0 0 1 0 0 0 0 1 0 0 0 0 1 0 0 0 0.25 0"/>
<feBlend mode="normal" in2="BackgroundImageFix" result="effect1_dropShadow_3_440"/>
<feBlend mode="normal" in="SourceGraphic" in2="effect1_dropShadow_3_440" result="shape"/>
</filter>
<filter id="filter9_d_3_440" x="6.105" y="14.2979" width="17.0186" height="16.9771" filterUnits="userSpaceOnUse" color-interpolation-filters="sRGB">
<feFlood flood-opacity="0" result="BackgroundImageFix"/>
<feColorMatrix in="SourceAlpha" type="matrix" values="0 0 0 0 0 0 0 0 0 0 0 0 0 0 0 0 0 0 127 0" result="hardAlpha"/>
<feOffset/>
<feGaussianBlur stdDeviation="3.15"/>
<feComposite in2="hardAlpha" operator="out"/>
<feColorMatrix type="matrix" values="0 0 0 0 1 0 0 0 0 1 0 0 0 0 1 0 0 0 0.25 0"/>
<feBlend mode="normal" in2="BackgroundImageFix" result="effect1_dropShadow_3_440"/>
<feBlend mode="normal" in="SourceGraphic" in2="effect1_dropShadow_3_440" result="shape"/>
</filter>
<filter id="filter10_d_3_440" x="28.7291" y="54.8197" width="17.0207" height="16.9591" filterUnits="userSpaceOnUse" color-interpolation-filters="sRGB">
<feFlood flood-opacity="0" result="BackgroundImageFix"/>
<feColorMatrix in="SourceAlpha" type="matrix" values="0 0 0 0 0 0 0 0 0 0 0 0 0 0 0 0 0 0 127 0" result="hardAlpha"/>
<feOffset/>
<feGaussianBlur stdDeviation="3.15"/>
<feComposite in2="hardAlpha" operator="out"/>
<feColorMatrix type="matrix" values="0 0 0 0 1 0 0 0 0 1 0 0 0 0 1 0 0 0 0.25 0"/>
<feBlend mode="normal" in2="BackgroundImageFix" result="effect1_dropShadow_3_440"/>
<feBlend mode="normal" in="SourceGraphic" in2="effect1_dropShadow_3_440" result="shape"/>
</filter>
<linearGradient id="paint0_linear_3_440" x1="48.076" y1="0.99785" x2="37.8253" y2="-0.577473" gradientUnits="userSpaceOnUse">
<stop stop-color="#FA6868"/>
<stop offset="1" stop-color="#740A0A"/>
</linearGradient>
<linearGradient id="paint1_linear_3_440" x1="57.2475" y1="71.5603" x2="59.624" y2="61.4652" gradientUnits="userSpaceOnUse">
<stop stop-color="#FA6868"/>
<stop offset="1" stop-color="#740A0A"/>
</linearGradient>
<linearGradient id="paint2_linear_3_440" x1="32.5581" y1="2.27451" x2="28.6597" y2="16.6384" gradientUnits="userSpaceOnUse">
<stop stop-color="#FF8888"/>
<stop offset="1" stop-color="#AB0B0B"/>
</linearGradient>
<linearGradient id="paint3_linear_3_440" x1="18.2384" y1="63.8822" x2="32.7837" y2="67.037" gradientUnits="userSpaceOnUse">
<stop stop-color="#FF8888"/>
<stop offset="1" stop-color="#AB0B0B"/>
</linearGradient>
<linearGradient id="paint4_linear_3_440" x1="26.8017" y1="6.14638" x2="24.3737" y2="15.6039" gradientUnits="userSpaceOnUse">
<stop stop-color="#FF8888"/>
<stop offset="1" stop-color="#AB0B0B"/>
</linearGradient>
<linearGradient id="paint5_linear_3_440" x1="53.616" y1="4.39282" x2="45.9445" y2="0.824571" gradientUnits="userSpaceOnUse">
<stop stop-color="#FA6868"/>
<stop offset="1" stop-color="#740A0A"/>
</linearGradient>
<linearGradient id="paint6_linear_3_440" x1="76.808" y1="15.7113" x2="67.5815" y2="11.9702" gradientUnits="userSpaceOnUse">
<stop stop-color="#FA6868"/>
<stop offset="1" stop-color="#740A0A"/>
</linearGradient>
<linearGradient id="paint7_linear_3_440" x1="76.8082" y1="9.22704" x2="67.5817" y2="5.48588" gradientUnits="userSpaceOnUse">
<stop stop-color="#FA6868"/>
<stop offset="1" stop-color="#740A0A"/>
</linearGradient>
<linearGradient id="paint8_linear_3_440" x1="73.8156" y1="33.1673" x2="64.5891" y2="29.4261" gradientUnits="userSpaceOnUse">
<stop stop-color="#FA6868"/>
<stop offset="1" stop-color="#740A0A"/>
</linearGradient>
<linearGradient id="paint9_linear_3_440" x1="75.8105" y1="23.6911" x2="66.584" y2="19.9499" gradientUnits="userSpaceOnUse">
<stop stop-color="#FA6868"/>
<stop offset="1" stop-color="#740A0A"/>
</linearGradient>
<linearGradient id="paint10_linear_3_440" x1="4.48886" y1="11.4713" x2="10.9727" y2="30.9228" gradientUnits="userSpaceOnUse">
<stop stop-color="#FF8888"/>
<stop offset="1" stop-color="#AB0B0B"/>
</linearGradient>
<linearGradient id="paint11_linear_3_440" x1="4.48898" y1="5.48588" x2="10.9728" y2="24.9374" gradientUnits="userSpaceOnUse">
<stop stop-color="#FF8888"/>
<stop offset="1" stop-color="#AB0B0B"/>
</linearGradient>
<linearGradient id="paint12_linear_3_440" x1="7.48144" y1="27.4311" x2="13.9653" y2="46.8826" gradientUnits="userSpaceOnUse">
<stop stop-color="#FF8888"/>
<stop offset="1" stop-color="#AB0B0B"/>
</linearGradient>
<linearGradient id="paint13_linear_3_440" x1="5.48639" y1="18.9522" x2="11.9702" y2="38.4037" gradientUnits="userSpaceOnUse">
<stop stop-color="#FF8888"/>
<stop offset="1" stop-color="#AB0B0B"/>
</linearGradient>
<linearGradient id="paint14_linear_3_440" x1="-2.50669" y1="10.7185" x2="24.0456" y2="-1.67512" gradientUnits="userSpaceOnUse">
<stop stop-color="#FA6868"/>
<stop offset="1" stop-color="#740A0A"/>
</linearGradient>
<linearGradient id="paint15_linear_3_440" x1="24.5387" y1="9.57981" x2="52.4814" y2="11.0934" gradientUnits="userSpaceOnUse">
<stop stop-color="#C86A6A"/>
<stop offset="1" stop-color="#9D0C0C"/>
</linearGradient>
<linearGradient id="paint16_linear_3_440" x1="36.295" y1="21.0404" x2="49.1492" y2="21.7841" gradientUnits="userSpaceOnUse">
<stop stop-color="#F2D2D2"/>
<stop offset="1" stop-color="#D85757"/>
</linearGradient>
<linearGradient id="paint17_linear_3_440" x1="24.5109" y1="21.0399" x2="31.3213" y2="6.91145" gradientUnits="userSpaceOnUse">
<stop stop-color="#F2D2D2"/>
</linearGradient>
<linearGradient id="paint18_linear_3_440" x1="36.9081" y1="57.1076" x2="37.3943" y2="45.3221" gradientUnits="userSpaceOnUse">
<stop stop-color="#DC2121"/>
<stop offset="0.994792" stop-color="#D15757"/>
</linearGradient>
<linearGradient id="paint19_linear_3_440" x1="39.2187" y1="13.9652" x2="34.1428" y2="13.6627" gradientUnits="userSpaceOnUse">
<stop offset="0.0001" stop-color="#C62C2C"/>
<stop offset="1" stop-color="#E4B8B8"/>
</linearGradient>
<linearGradient id="paint20_linear_3_440" x1="62.3884" y1="16.4716" x2="64.9889" y2="22.1413" gradientUnits="userSpaceOnUse">
<stop stop-color="#FF9FA7"/>
<stop offset="1" stop-color="#AA0D3C"/>
</linearGradient>
<linearGradient id="paint21_linear_3_440" x1="62.3884" y1="16.4718" x2="64.9889" y2="22.1415" gradientUnits="userSpaceOnUse">
<stop stop-color="#ECC8C8"/>
<stop offset="1" stop-color="#9B1E1E"/>
</linearGradient>
<linearGradient id="paint22_linear_3_440" x1="17.2473" y1="16.4716" x2="19.8478" y2="22.1413" gradientUnits="userSpaceOnUse">
<stop stop-color="#F2D2D2"/>
<stop offset="1" stop-color="#9F2727"/>
</linearGradient>
<linearGradient id="paint23_linear_3_440" x1="39.4589" y1="67.4789" x2="34.383" y2="67.1763" gradientUnits="userSpaceOnUse">
<stop offset="0.0001" stop-color="#E3B7B7"/>
<stop offset="1" stop-color="#A63838"/>
</linearGradient>
<clipPath id="clip0_3_440">
<rect width="75" height="68" fill="white"/>
</clipPath>
<clipPath id="clip1_3_440">
<rect width="75" height="68" fill="white"/>
</clipPath>
<clipPath id="clip2_3_440">
<rect width="64.4998" height="68.3297" fill="white" transform="translate(5.32706)"/>
</clipPath>
</defs>
</svg>
