<svg width="66" height="70" viewBox="0 0 66 70" fill="none" xmlns="http://www.w3.org/2000/svg">
<path d="M23.689 5.31285L7.37409 15.8276C3.0891 18.5892 0.5 23.3381 0.5 28.4359V48.608C0.5 55.0403 4.60114 60.7566 10.6944 62.8174L27.0572 68.3512C30.217 69.4198 33.6428 69.4048 36.7931 68.3084L52.4074 62.8741C58.4366 60.7758 62.4771 55.0914 62.4771 48.7076V28.3087C62.4771 23.2807 59.9579 18.5871 55.7678 15.8081L40.1056 5.42058C35.1404 2.12755 28.697 2.08526 23.689 5.31285Z" fill="url(#paint0_linear_602_5446)"/>
<g filter="url(#filter0_i_602_5446)">
<path d="M23.6515 7.9343L9.37115 17.1519C5.09121 19.9145 2.50586 24.6604 2.50586 29.7545V46.8198C2.50586 53.5572 6.99798 59.468 13.4894 61.2721L27.8291 65.2573C30.4937 65.9978 33.3111 65.9873 35.9701 65.2268L49.596 61.3299C56.0337 59.4888 60.4715 53.6039 60.4715 46.9081V29.6273C60.4715 24.603 57.9561 19.9124 53.771 17.1325L40.0857 8.04221C35.1164 4.74145 28.6636 4.69908 23.6515 7.9343Z" fill="url(#paint1_linear_602_5446)"/>
</g>
<g filter="url(#filter1_d_602_5446)">
<path d="M24.5807 36.3036C24.5552 36.0723 24.5807 35.8239 24.5722 35.5669C24.5722 35.4384 24.5978 35.2927 24.6403 35.1557C24.6744 35.0272 24.6744 34.8901 24.6999 34.7702C24.751 34.5389 24.8191 34.3161 24.8702 34.0848C24.9553 33.7079 25.1171 33.3566 25.2618 32.9968C25.4065 32.6285 25.6108 32.2858 25.8151 31.9431C26.0109 31.609 26.2493 31.3092 26.5047 31.0093C26.8623 30.6067 27.2454 30.2212 27.6114 29.8271C27.8668 29.553 28.1307 29.296 28.3861 29.0304C28.8799 28.5335 29.3822 28.0367 29.8589 27.5226C30.3697 26.9829 30.889 26.4604 31.4083 25.9206C31.6382 25.6808 31.8936 25.458 32.1149 25.201C32.481 24.7727 32.8981 24.3958 33.2898 23.9931C33.5111 23.7704 33.7324 23.5476 33.9453 23.3163C34.4561 22.7595 35.0179 22.2541 35.5287 21.6886C35.9544 21.2175 36.4226 20.7806 36.8568 20.318C37.1888 19.9667 37.5208 19.624 37.8443 19.2814C38.1253 18.9901 38.4317 18.7417 38.7382 18.4846C39.0447 18.2276 39.3767 18.022 39.7172 17.8164C40.0833 17.6023 40.4834 17.4309 40.8836 17.2853C41.0623 17.2253 41.2326 17.1397 41.4114 17.1054C41.5646 17.0797 41.7093 17.0283 41.8626 17.0112C42.1009 16.9855 42.3308 16.9341 42.5692 16.8998C42.9267 16.8484 43.2928 16.8484 43.6504 16.8484C44.1101 16.8484 44.5613 16.9169 45.004 17.0026C45.4977 17.0968 45.9745 17.2339 46.4257 17.4395C46.8684 17.6365 47.3025 17.8764 47.7112 18.1505C48.1794 18.4761 48.6136 18.8445 49.0137 19.2557C49.3712 19.6155 49.6607 20.0267 49.9501 20.4379C50.3162 20.9776 50.5801 21.5773 50.8015 22.1941C50.9888 22.7252 51.1079 23.2649 51.176 23.8218C51.2101 24.1388 51.2527 24.4557 51.2441 24.7813C51.2356 25.1154 51.2441 25.4495 51.1931 25.7836C51.1335 26.1691 51.0824 26.5632 50.9802 26.9401C50.8525 27.4027 50.6993 27.8568 50.495 28.2851C50.1459 29.0561 49.6862 29.7415 49.1158 30.3668C48.7242 30.8037 48.3071 31.2235 47.8984 31.6347C47.4813 32.0459 47.0812 32.4743 46.6896 32.9026C46.5193 33.0911 46.349 33.2795 46.1532 33.4423C46.0426 33.5451 45.9404 33.6651 45.8383 33.7679C45.7616 33.845 45.685 33.9135 45.6084 33.9906C45.1827 34.4361 44.7486 34.8644 44.3314 35.3184C44.1016 35.5669 43.8717 35.8153 43.6418 36.0552C43.2502 36.4578 42.8586 36.8605 42.4585 37.2631C42.0584 37.6658 41.6497 38.0598 41.2666 38.4796C40.7388 39.0536 40.1855 39.6104 39.6491 40.1844C39.3086 40.5442 38.9425 40.8869 38.5935 41.2381C38.2445 41.5894 37.8954 41.9406 37.5464 42.2918C37.3506 42.4889 37.1207 42.6516 36.9079 42.823C36.6099 43.0543 36.2949 43.2599 35.9629 43.4312C35.4436 43.6968 34.8988 43.911 34.3369 44.0737C33.9964 44.168 33.6388 44.2194 33.2898 44.2879C33.1961 44.305 33.094 44.305 33.0003 44.3136C32.5406 44.3479 32.0809 44.305 31.6212 44.305C31.485 44.305 31.3487 44.2622 31.2125 44.2451C31.0508 44.2194 30.889 44.1765 30.7273 44.1423C30.4463 44.0823 30.1739 43.9966 29.9015 43.9195C29.578 43.8253 29.2715 43.6711 28.965 43.534C28.7607 43.4398 28.5819 43.3027 28.3861 43.1999C28.2244 43.1143 28.0797 43.0115 27.9349 42.9087C27.7391 42.7544 27.5433 42.6002 27.356 42.446C27.0921 42.2233 26.8452 41.9749 26.6154 41.7179C26.4707 41.5465 26.3174 41.3838 26.1812 41.2039C25.9428 40.8869 25.747 40.5442 25.5597 40.2015C25.381 39.8674 25.2022 39.5333 25.083 39.1735C24.9553 38.8137 24.8702 38.4453 24.7595 38.0855C24.7169 37.9399 24.7169 37.7771 24.6829 37.6229C24.5892 37.186 24.5637 36.7577 24.5807 36.3036ZM29.3737 42.0263C29.3992 41.9834 29.3907 41.9492 29.3907 41.9149C29.3907 41.5208 29.3907 41.1268 29.3907 40.7412C29.3907 38.7109 29.3907 36.6891 29.3907 34.6588C29.3907 34.5903 29.3992 34.5474 29.4843 34.5474C30.1058 34.5474 30.7273 34.5474 31.3487 34.556C31.4339 34.556 31.4679 34.5389 31.4594 34.4446C31.4594 33.6479 31.4594 32.8426 31.4594 32.0459C31.4594 31.4891 31.4594 30.9408 31.4594 30.384C31.4594 30.2469 31.4594 30.2469 31.6041 30.2383C31.6808 30.2383 31.7659 30.2469 31.8425 30.2212C31.8851 30.2126 31.9447 30.2383 31.9532 30.3069C31.9532 30.3925 31.9702 30.4696 31.9702 30.5467C31.9702 31.8403 31.9702 33.1339 31.9702 34.4361C31.9702 34.5217 31.9957 34.5474 32.0809 34.5389C32.7023 34.5389 33.3238 34.5389 33.9453 34.5303C34.0304 34.5303 34.0559 34.5474 34.0559 34.6331C34.0559 36.9547 34.0559 39.2763 34.0559 41.5894C34.0559 41.8721 34.0559 42.1633 34.0559 42.446C34.0559 42.5146 34.073 42.5403 34.1496 42.5146C34.2518 42.4803 34.3539 42.4632 34.4476 42.4203C34.6263 42.3432 34.8136 42.2747 34.9924 42.1805C35.1967 42.0691 35.4095 41.9749 35.6139 41.8549C35.8608 41.7093 36.0821 41.5465 36.3119 41.3666C36.4482 41.2638 36.5759 41.161 36.5163 40.9554C36.5163 40.9468 36.5163 40.9383 36.5163 40.9212C36.5163 37.503 36.5248 34.0763 36.5248 30.6581C36.5248 29.5872 36.5248 28.5164 36.5248 27.4455C36.5248 27.3085 36.5248 27.3085 36.661 27.3085C37.2569 27.3085 37.8614 27.3085 38.4573 27.3085C38.5594 27.3085 38.5935 27.2742 38.5935 27.1714C38.585 26.4689 38.5935 25.7579 38.5935 25.0554C38.5935 24.4129 38.5935 23.7704 38.5935 23.1279C38.5935 23.0251 38.6275 22.9994 38.7212 22.9994C38.8148 23.0079 38.9085 23.0079 38.9936 22.9994C39.0702 22.9908 39.0873 23.0251 39.0873 23.0936C39.0873 24.43 39.0873 25.7664 39.0873 27.1114C39.0873 27.1543 39.0958 27.1971 39.0787 27.2314C39.0447 27.3085 39.0873 27.3085 39.1383 27.3085C39.2916 27.3085 39.4533 27.3085 39.6066 27.3085C40.0833 27.3085 40.5601 27.3085 41.0283 27.3085C41.1134 27.3085 41.1475 27.3342 41.1475 27.4198C41.139 27.5312 41.139 27.6511 41.139 27.7625C41.139 30.5896 41.139 33.408 41.139 36.2351C41.139 36.2694 41.139 36.2951 41.1475 36.3293C41.173 36.3979 41.19 36.4064 41.2411 36.355C41.3433 36.2437 41.4454 36.1409 41.5476 36.0381C42.0924 35.4727 42.6458 34.9072 43.1906 34.3418C43.8632 33.6479 44.5357 32.954 45.2168 32.2601C45.2679 32.2087 45.2849 32.1487 45.2849 32.0802C45.2849 31.0522 45.2849 30.0156 45.2849 28.9876C45.2849 28.9019 45.2593 28.8762 45.1742 28.8762C44.5783 28.8848 43.9824 28.8762 43.3864 28.8762C43.2247 28.8762 43.2162 28.9105 43.2162 28.7134C43.2162 25.6465 43.2162 22.571 43.2162 19.5041C43.2162 19.427 43.1821 19.3585 43.1906 19.2814C43.2332 19.0329 43.2077 18.7759 43.2077 18.5275C43.2077 18.3561 43.1991 18.3561 43.0374 18.3647C43.0119 18.3647 42.9778 18.3647 42.9523 18.3647C42.7735 18.3818 42.5947 18.3818 42.4159 18.4161C42.0243 18.4932 41.6327 18.596 41.2496 18.7417C40.8069 18.9044 40.3898 19.1186 40.0067 19.3842C39.53 19.7097 39.1128 20.1209 38.7042 20.5321C38.3551 20.8834 38.0231 21.2346 37.6741 21.5858C37.5293 21.7315 37.3846 21.8685 37.2484 22.0142C36.8227 22.4597 36.3971 22.9137 35.9714 23.3677C35.8693 23.4791 35.7671 23.6076 35.6564 23.7104C35.4266 23.9331 35.2137 24.1645 34.9839 24.3872C34.3624 25.004 33.741 25.6294 33.1535 26.2805C32.8045 26.666 32.4384 27.0258 32.0724 27.3941C31.4594 28.0195 30.8294 28.6363 30.225 29.2703C29.612 29.9128 29.0076 30.5553 28.3861 31.1892C27.9435 31.6433 27.4923 32.0888 27.1517 32.637C26.9048 33.0225 26.6835 33.4252 26.5132 33.8535C26.2919 34.4104 26.1557 34.9843 26.0961 35.5755C26.028 36.2351 26.0365 36.8947 26.1727 37.5458C26.2663 37.9913 26.394 38.4282 26.5558 38.8565C26.6409 39.0878 26.7686 39.302 26.8878 39.5162C27.4923 40.5956 28.3095 41.4266 29.3737 42.0263ZM47.8303 20.1637C47.8218 20.2151 47.8218 20.2408 47.8218 20.2665C47.8218 21.6372 47.8218 22.9994 47.8218 24.3701C47.8218 25.835 47.8218 27.2999 47.8218 28.7734C47.8218 28.8676 47.8048 28.9105 47.6941 28.9105C47.0812 28.9019 46.4767 28.9105 45.8638 28.9105C45.7701 28.9105 45.7446 28.9447 45.7446 29.0304C45.7446 29.87 45.7446 30.7181 45.7446 31.5576C45.7446 31.6004 45.7446 31.6433 45.7446 31.6861C45.9659 31.4719 46.1788 31.2663 46.3916 31.0522C46.7407 30.6924 47.0897 30.3326 47.4387 29.9728C47.8644 29.5358 48.2986 29.1075 48.6391 28.5935C49.3116 27.5826 49.6692 26.4604 49.7458 25.2524C49.7884 24.5585 49.7118 23.8732 49.5415 23.1964C49.3627 22.4854 49.0733 21.8257 48.6646 21.2175C48.4348 20.832 48.1453 20.515 47.8303 20.1637Z" fill="url(#paint2_linear_602_5446)"/>
</g>
<g filter="url(#filter2_d_602_5446)">
<path d="M23.3567 39.9143C23.2633 39.8803 23.2124 39.8122 23.1699 39.7526C23.0172 39.5484 22.8304 39.3698 22.6607 39.1826C22.457 38.9529 22.2448 38.7231 22.0242 38.5019C21.5998 38.068 21.1754 37.6341 20.7511 37.2002C20.5049 36.9449 20.2588 36.6982 20.0127 36.4514C19.809 36.2472 19.6223 36.026 19.4186 35.8303C19.3252 35.7367 19.2404 35.6261 19.1215 35.5496C19.0197 35.49 18.9857 35.3624 18.8924 35.2773C18.6208 35.0305 18.3831 34.7583 18.1116 34.5115C17.8994 34.3159 17.7296 34.0691 17.5174 33.8734C17.3817 33.7543 17.2628 33.6097 17.1185 33.4991C17.0507 33.4565 17.0252 33.3629 16.9658 33.3034C16.6857 33.0311 16.4056 32.7673 16.1425 32.4781C15.7861 32.0782 15.3956 31.7123 15.0392 31.3124C14.7761 31.0232 14.4875 30.7509 14.2159 30.4701C13.817 30.0532 13.4521 29.6023 13.138 29.1173C12.9853 28.8791 12.8665 28.6238 12.7307 28.3771C12.6034 28.1474 12.527 27.9006 12.4251 27.6709C12.2893 27.3816 12.2469 27.0753 12.1535 26.7775C12.0941 26.5733 12.0687 26.3606 12.0262 26.1564C11.9244 25.5864 11.9498 25.0163 11.9329 24.4378C11.9329 24.2846 11.9498 24.1315 11.9413 23.9783C11.9413 23.8592 11.9923 23.7316 12.0092 23.6039C12.0262 23.5274 12.0177 23.4423 12.0262 23.3657C12.0432 23.2381 12.0856 23.119 12.1196 22.9914C12.2214 22.5574 12.3572 22.1405 12.5185 21.7236C12.6118 21.4769 12.7052 21.2216 12.8495 21.0004C13.0362 20.7111 13.2059 20.4048 13.4096 20.1326C13.6133 19.8518 13.817 19.571 14.0632 19.3243C14.2753 19.1031 14.496 18.8904 14.7336 18.6862C15.1156 18.3458 15.5314 18.0481 15.9813 17.8013C16.2529 17.6567 16.5329 17.5205 16.813 17.3929C17.0167 17.2993 17.2204 17.2228 17.4411 17.1717C17.6108 17.1292 17.7636 17.0526 17.9418 17.0356C18.2134 17.01 18.468 16.942 18.7311 16.8994C19.113 16.8484 19.495 16.8484 19.8769 16.8484C20.0297 16.8484 20.1824 16.8484 20.3267 16.8569C20.4795 16.8654 20.6323 16.8909 20.785 16.9165C20.9972 16.9505 21.2094 17.0356 21.4301 17.0441C21.6253 17.0526 21.7865 17.1547 21.9647 17.1972C22.3042 17.2738 22.6098 17.4355 22.9238 17.5716C23.3057 17.7418 23.6537 17.9545 23.9932 18.1927C24.2393 18.3629 24.4939 18.533 24.7231 18.7372C24.8844 18.8819 25.0371 19.035 25.1814 19.1882C25.6567 19.6731 26.132 20.1581 26.6073 20.6431C27.125 21.1791 27.6427 21.7236 28.1689 22.2511C28.8139 22.8978 29.4335 23.5784 30.087 24.2165C30.1125 24.2421 30.1379 24.2676 30.1634 24.2931C30.1973 24.3272 30.1889 24.3612 30.1549 24.3952C29.9173 24.6335 29.6881 24.8632 29.4505 25.1014C29.3741 25.1865 29.2807 25.2631 29.2128 25.3481C29.1534 25.4162 29.111 25.3822 29.0685 25.3481C28.8818 25.161 28.6781 24.9823 28.5169 24.7696C28.3471 24.5569 28.1265 24.4037 27.9737 24.1825C27.9058 24.0889 27.804 24.0209 27.7276 23.9358C27.4051 23.604 27.091 23.2551 26.76 22.9403C26.463 22.651 26.1829 22.3362 25.8858 22.0384C25.6821 21.8342 25.4615 21.6471 25.2748 21.4258C25.0201 21.1195 24.7316 20.8558 24.46 20.5665C24.1629 20.2517 23.8659 19.9369 23.5179 19.6731C23.3142 19.52 23.102 19.3668 22.8729 19.2392C22.6862 19.1286 22.491 19.035 22.3042 18.9329C22.126 18.8393 21.9393 18.7627 21.7441 18.7032C21.5828 18.6521 21.4131 18.5926 21.2433 18.55C20.9802 18.482 20.7171 18.4394 20.454 18.3969C20.3182 18.3714 20.1824 18.3799 20.0466 18.3714C19.9618 18.3629 19.9448 18.3969 19.9448 18.4735C19.9448 18.7372 19.9448 19.001 19.9448 19.2562C19.9448 20.0815 19.9448 20.9068 19.9448 21.7321C19.9448 23.7146 19.9533 25.7055 19.9448 27.6879C19.9448 28.0282 19.9618 28.3686 19.9533 28.7174C19.9533 28.7855 19.9448 28.828 19.8514 28.828C19.2404 28.828 18.6293 28.828 18.0182 28.828C17.9163 28.828 17.8909 28.8621 17.8909 28.9897C17.8909 29.9001 17.8909 30.8019 17.8909 31.7123C17.8909 31.8229 17.8994 31.9335 17.8824 32.0441C17.8739 32.0867 17.8909 32.1122 17.9163 32.1462C18.4935 32.7333 19.0706 33.3204 19.6477 33.916C20.2758 34.5626 20.9038 35.2092 21.5319 35.8558C21.6847 36.009 21.8459 36.1536 22.0072 36.3068C22.0072 36.0515 22.0072 35.7878 22.0072 35.524C22.0072 32.8099 22.0072 30.1043 22.0072 27.3901C22.0072 27.2965 22.0411 27.271 22.126 27.271C22.7371 27.271 23.3482 27.271 23.9592 27.271C24.0611 27.271 24.0781 27.237 24.0781 27.1434C24.0781 25.8076 24.0781 24.4803 24.0781 23.1445C24.0781 22.9914 24.0781 22.9914 24.2308 22.9914C24.2987 22.9914 24.3751 22.9999 24.443 22.9914C24.5364 22.9828 24.5703 23.0169 24.5703 23.119C24.5703 23.604 24.5703 24.0889 24.5703 24.5739C24.5703 25.4417 24.5703 26.3011 24.5703 27.1689C24.5703 27.2625 24.6043 27.2965 24.6891 27.2625C24.7486 27.237 24.808 27.271 24.8589 27.271C25.4106 27.271 25.9537 27.271 26.5054 27.271C26.5988 27.271 26.6497 27.2965 26.6242 27.3986C26.5903 27.5943 26.6073 27.79 26.6073 27.9772C26.6073 28.0282 26.5903 28.0623 26.5563 28.0963C26.3611 28.2835 26.1914 28.4792 25.9962 28.6664C25.784 28.8791 25.5718 29.0918 25.3596 29.313C25.122 29.5512 24.9098 29.8065 24.7061 30.0702C24.5618 30.2574 24.426 30.4446 24.2987 30.6403C24.0781 30.9721 23.8659 31.3124 23.6961 31.6783C23.5349 32.0186 23.3821 32.3675 23.2548 32.7248C23.1445 33.0396 23.0257 33.3459 22.9578 33.6692C22.8983 33.9585 22.822 34.2393 22.7795 34.5286C22.7541 34.7243 22.7371 34.9199 22.7116 35.1156C22.6777 35.3794 22.6692 35.6346 22.6522 35.8984C22.6352 36.1451 22.6268 36.3919 22.6607 36.6386C22.6777 36.7577 22.6692 36.8853 22.6777 37.0045C22.7031 37.2427 22.7286 37.4809 22.7625 37.7106C22.822 38.1361 22.9323 38.553 23.0426 38.9614C23.102 39.1826 23.1699 39.3953 23.2633 39.5995C23.2888 39.7016 23.3397 39.7952 23.3567 39.9143ZM17.3562 31.5337C17.3562 31.5166 17.3647 31.5081 17.3647 31.4996C17.3647 30.6658 17.3647 29.832 17.3647 28.9982C17.3647 28.7855 17.3647 28.794 17.161 28.8025C16.5754 28.828 15.9982 28.811 15.4126 28.811C15.3362 28.811 15.3023 28.7855 15.3023 28.7004C15.3023 25.9182 15.3023 23.1275 15.3023 20.3453C15.3023 20.2942 15.3277 20.2177 15.2853 20.2006C15.2429 20.1836 15.2174 20.2602 15.1835 20.2942C14.8015 20.6601 14.5045 21.094 14.2414 21.545C13.8849 22.1661 13.6558 22.8297 13.5115 23.5274C13.3757 24.1825 13.3672 24.8462 13.4181 25.5098C13.4436 25.8331 13.52 26.1479 13.5879 26.4627C13.7576 27.1689 14.0632 27.824 14.4621 28.4281C14.7931 28.9386 15.2089 29.3726 15.6418 29.8065C15.8794 30.0532 16.1171 30.3 16.3547 30.5467C16.6433 30.836 16.9318 31.1253 17.2119 31.423C17.2543 31.4656 17.2968 31.5081 17.3562 31.5337Z" fill="url(#paint3_linear_602_5446)"/>
</g>
<g filter="url(#filter3_d_602_5446)">
<path d="M0.5 55.8139C0.5 55.8139 14.4502 60.3544 31.382 60.3544C48.3139 60.3544 62.4771 55.8139 62.4771 55.8139V40.0965C62.4771 40.0965 43.8695 46.2248 31.382 46.2088C18.9755 46.1929 0.5 40.0965 0.5 40.0965V55.8139Z" fill="url(#paint4_linear_602_5446)"/>
</g>
<rect x="30.5856" y="51.146" width="1.74499" height="5.81662" fill="#F2BEA2"/>
<defs>
<filter id="filter0_i_602_5446" x="2.50586" y="5.53699" width="59.9656" height="61.2681" filterUnits="userSpaceOnUse" color-interpolation-filters="sRGB">
<feFlood flood-opacity="0" result="BackgroundImageFix"/>
<feBlend mode="normal" in="SourceGraphic" in2="BackgroundImageFix" result="shape"/>
<feColorMatrix in="SourceAlpha" type="matrix" values="0 0 0 0 0 0 0 0 0 0 0 0 0 0 0 0 0 0 127 0" result="hardAlpha"/>
<feOffset dx="2" dy="1"/>
<feGaussianBlur stdDeviation="1"/>
<feComposite in2="hardAlpha" operator="arithmetic" k2="-1" k3="1"/>
<feColorMatrix type="matrix" values="0 0 0 0 0 0 0 0 0 0 0 0 0 0 0 0 0 0 0.25 0"/>
<feBlend mode="normal" in2="shape" result="effect1_innerShadow_602_5446"/>
</filter>
<filter id="filter1_d_602_5446" x="23.969" y="16.8484" width="29.8762" height="31.0785" filterUnits="userSpaceOnUse" color-interpolation-filters="sRGB">
<feFlood flood-opacity="0" result="BackgroundImageFix"/>
<feColorMatrix in="SourceAlpha" type="matrix" values="0 0 0 0 0 0 0 0 0 0 0 0 0 0 0 0 0 0 127 0" result="hardAlpha"/>
<feOffset dx="1" dy="2"/>
<feGaussianBlur stdDeviation="0.8"/>
<feComposite in2="hardAlpha" operator="out"/>
<feColorMatrix type="matrix" values="0 0 0 0 0 0 0 0 0 0 0 0 0 0 0 0 0 0 0.25 0"/>
<feBlend mode="normal" in2="BackgroundImageFix" result="effect1_dropShadow_602_5446"/>
<feBlend mode="normal" in="SourceGraphic" in2="effect1_dropShadow_602_5446" result="shape"/>
</filter>
<filter id="filter2_d_602_5446" x="11.3329" y="16.8484" width="21.4521" height="26.6659" filterUnits="userSpaceOnUse" color-interpolation-filters="sRGB">
<feFlood flood-opacity="0" result="BackgroundImageFix"/>
<feColorMatrix in="SourceAlpha" type="matrix" values="0 0 0 0 0 0 0 0 0 0 0 0 0 0 0 0 0 0 127 0" result="hardAlpha"/>
<feOffset dx="1" dy="2"/>
<feGaussianBlur stdDeviation="0.8"/>
<feComposite in2="hardAlpha" operator="out"/>
<feColorMatrix type="matrix" values="0 0 0 0 0 0 0 0 0 0 0 0 0 0 0 0 0 0 0.25 0"/>
<feBlend mode="normal" in2="BackgroundImageFix" result="effect1_dropShadow_602_5446"/>
<feBlend mode="normal" in="SourceGraphic" in2="effect1_dropShadow_602_5446" result="shape"/>
</filter>
<filter id="filter3_d_602_5446" x="0.5" y="39.7964" width="65.2771" height="22.8579" filterUnits="userSpaceOnUse" color-interpolation-filters="sRGB">
<feFlood flood-opacity="0" result="BackgroundImageFix"/>
<feColorMatrix in="SourceAlpha" type="matrix" values="0 0 0 0 0 0 0 0 0 0 0 0 0 0 0 0 0 0 127 0" result="hardAlpha"/>
<feOffset dx="2" dy="1"/>
<feGaussianBlur stdDeviation="0.65"/>
<feComposite in2="hardAlpha" operator="out"/>
<feColorMatrix type="matrix" values="0 0 0 0 0 0 0 0 0 0 0 0 0 0 0 0 0 0 0.25 0"/>
<feBlend mode="normal" in2="BackgroundImageFix" result="effect1_dropShadow_602_5446"/>
<feBlend mode="normal" in="SourceGraphic" in2="effect1_dropShadow_602_5446" result="shape"/>
</filter>
<linearGradient id="paint0_linear_602_5446" x1="16.1275" y1="12.6361" x2="57.1067" y2="62.8451" gradientUnits="userSpaceOnUse">
<stop offset="0.207595" stop-color="#F3A66F"/>
<stop offset="0.961067" stop-color="#815246"/>
</linearGradient>
<linearGradient id="paint1_linear_602_5446" x1="17.1218" y1="14.4439" x2="55.5191" y2="61.4175" gradientUnits="userSpaceOnUse">
<stop offset="0.126308" stop-color="#B47556"/>
<stop offset="0.890017" stop-color="#9A5D4B"/>
</linearGradient>
<linearGradient id="paint2_linear_602_5446" x1="37.9071" y1="16.8484" x2="37.9071" y2="44.3269" gradientUnits="userSpaceOnUse">
<stop stop-color="#FFD6C2"/>
<stop offset="1" stop-color="#E5A480"/>
</linearGradient>
<linearGradient id="paint3_linear_602_5446" x1="21.0589" y1="16.8484" x2="21.0589" y2="39.9143" gradientUnits="userSpaceOnUse">
<stop stop-color="#FFD6C2"/>
<stop offset="1" stop-color="#E5A480"/>
</linearGradient>
<linearGradient id="paint4_linear_602_5446" x1="39.3911" y1="44.5091" x2="39.3911" y2="60.3544" gradientUnits="userSpaceOnUse">
<stop stop-color="#BA7154"/>
<stop offset="1" stop-color="#6B4539"/>
</linearGradient>
</defs>
</svg>
