<svg width="67" height="63" viewBox="0 0 67 63" fill="none" xmlns="http://www.w3.org/2000/svg">
<path d="M39.9308 8.42918C39.942 8.74357 34.0908 15.4568 29.1157 21.6079C26.2685 21.0334 22.246 20.525 23.8448 18.7614C26.671 15.6437 30.2889 12.6369 32.9624 9.14642L40.3926 0.876221C40.3071 1.99872 39.9095 7.82823 39.9308 8.42918Z" fill="url(#paint0_linear_143_13638)"/>
<path d="M25.0096 8.42918C24.9985 8.74357 30.8496 15.4568 35.8247 21.6079C38.672 21.0334 42.6944 20.525 41.0956 18.7614C38.2694 15.6437 34.6515 12.6369 31.978 9.14642L24.5479 0.876221C24.6333 1.99872 25.0309 7.82823 25.0096 8.42918Z" fill="url(#paint1_linear_143_13638)"/>
<path d="M64.66 16.2045C64.2221 16.655 56.498 26.7159 50.8559 32.3452C48.7648 30.0942 45.7264 27.3195 47.4803 25.7952C50.5808 23.1006 54.2763 20.9666 57.3596 17.6942L65.5312 10.5115C65.0381 12.0443 64.8729 15.9855 64.66 16.2045Z" fill="url(#paint2_linear_143_13638)"/>
<path d="M2.69052 15.7665C3.12848 16.217 10.17 26.2779 15.8121 31.9073C17.9031 29.6563 20.9415 26.8815 19.1876 25.3572C16.0872 22.6626 12.3917 20.5286 9.30839 17.2562L1.13672 10.0735C1.62985 11.6063 2.47765 15.5475 2.69052 15.7665Z" fill="url(#paint3_linear_143_13638)"/>
<path d="M54.6672 37.4326V22.9927L61.8148 13.5766L52.258 16.8613L36.6046 8.45947L32.4717 0L29.406 8.45947L13.0609 16.8613L9.11934 15.219L5.17773 13.5766L10.8716 22.9927V37.3377C10.8716 43.9734 15.2315 49.8205 21.5912 51.7141L23.5591 52.3C26.5095 53.1784 29.1183 54.9434 31.0312 57.3554L33.1287 60L35.0208 57.5058C36.9228 54.9987 39.5651 53.1532 42.5738 52.2307L44.0646 51.7735C50.3655 49.8415 54.6672 44.023 54.6672 37.4326Z" fill="url(#paint4_linear_143_13638)"/>
<g filter="url(#filter0_i_143_13638)">
<path d="M24.8095 13.7389L19.1534 17.3898C14.8734 20.1524 12.2881 24.8983 12.2881 29.9924V36.3102C12.2881 43.0476 16.7802 48.9584 23.2716 50.7624L28.9872 52.3509C31.6518 53.0914 34.4692 53.0809 37.1282 52.3204L42.3736 50.8203C48.8113 48.9791 53.249 43.0942 53.249 36.3985V29.8652C53.249 24.8409 50.7336 20.1503 46.5485 17.3704L41.2437 13.8468C36.2745 10.546 29.8217 10.5036 24.8095 13.7389Z" fill="url(#paint5_linear_143_13638)"/>
</g>
<g filter="url(#filter1_d_143_13638)">
<path d="M27.8872 32.2225C27.8691 32.0591 27.8872 31.8835 27.8812 31.7019C27.8812 31.6111 27.8992 31.5082 27.9293 31.4113C27.9533 31.3205 27.9533 31.2237 27.9714 31.1389C28.0075 30.9755 28.0556 30.8181 28.0917 30.6546C28.1519 30.3882 28.2662 30.14 28.3684 29.8858C28.4707 29.6255 28.6151 29.3833 28.7595 29.1412C28.8978 28.9051 29.0663 28.6932 29.2467 28.4813C29.4994 28.1968 29.7701 27.9244 30.0288 27.6459C30.2093 27.4522 30.3958 27.2706 30.5762 27.0829C30.9252 26.7318 31.2801 26.3807 31.617 26.0175C31.9779 25.6361 32.3449 25.2668 32.7118 24.8855C32.8743 24.716 33.0547 24.5586 33.2112 24.3769C33.4698 24.0743 33.7646 23.8079 34.0413 23.5234C34.1977 23.366 34.3542 23.2086 34.5046 23.0451C34.8655 22.6516 35.2625 22.2945 35.6235 21.8949C35.9243 21.562 36.2552 21.2532 36.562 20.9263C36.7966 20.6781 37.0312 20.436 37.2598 20.1939C37.4583 19.988 37.6749 19.8125 37.8915 19.6309C38.108 19.4492 38.3426 19.304 38.5833 19.1587C38.8419 19.0073 39.1247 18.8863 39.4074 18.7833C39.5338 18.741 39.6541 18.6804 39.7804 18.6562C39.8887 18.6381 39.991 18.6017 40.0993 18.5896C40.2677 18.5715 40.4301 18.5351 40.5986 18.5109C40.8512 18.4746 41.1099 18.4746 41.3626 18.4746C41.6874 18.4746 42.0063 18.523 42.3191 18.5836C42.668 18.6502 43.0049 18.747 43.3237 18.8923C43.6365 19.0315 43.9434 19.201 44.2321 19.3948C44.563 19.6248 44.8698 19.8851 45.1525 20.1757C45.4052 20.4299 45.6097 20.7205 45.8143 21.0111C46.0729 21.3925 46.2594 21.8162 46.4158 22.2521C46.5482 22.6274 46.6324 23.0088 46.6805 23.4023C46.7046 23.6263 46.7347 23.8503 46.7287 24.0803C46.7227 24.3164 46.7287 24.5525 46.6926 24.7886C46.6505 25.061 46.6144 25.3395 46.5422 25.6058C46.4519 25.9327 46.3437 26.2536 46.1993 26.5563C45.9526 27.1011 45.6278 27.5854 45.2247 28.0273C44.948 28.336 44.6532 28.6327 44.3645 28.9233C44.0697 29.2138 43.7869 29.5165 43.5102 29.8192C43.3899 29.9524 43.2696 30.0856 43.1312 30.2006C43.053 30.2732 42.9808 30.358 42.9086 30.4306C42.8545 30.4851 42.8003 30.5335 42.7462 30.588C42.4454 30.9028 42.1386 31.2055 41.8438 31.5263C41.6814 31.7019 41.519 31.8774 41.3566 32.047C41.0798 32.3315 40.8031 32.616 40.5204 32.9005C40.2376 33.185 39.9489 33.4635 39.6781 33.7601C39.3052 34.1657 38.9141 34.5592 38.5351 34.9648C38.2945 35.2191 38.0358 35.4612 37.7892 35.7094C37.5425 35.9576 37.2959 36.2058 37.0492 36.454C36.9109 36.5933 36.7484 36.7083 36.5981 36.8294C36.3875 36.9928 36.1649 37.1381 35.9303 37.2592C35.5633 37.4468 35.1783 37.5982 34.7813 37.7132C34.5407 37.7798 34.288 37.8161 34.0413 37.8645C33.9752 37.8766 33.903 37.8766 33.8368 37.8827C33.5119 37.9069 33.1871 37.8766 32.8622 37.8766C32.766 37.8766 32.6697 37.8464 32.5735 37.8343C32.4592 37.8161 32.3449 37.7858 32.2306 37.7616C32.0321 37.7192 31.8396 37.6587 31.647 37.6042C31.4184 37.5376 31.2019 37.4287 30.9853 37.3318C30.8409 37.2652 30.7146 37.1684 30.5762 37.0957C30.4619 37.0352 30.3597 36.9625 30.2574 36.8899C30.119 36.7809 29.9807 36.672 29.8483 36.563C29.6618 36.4056 29.4874 36.23 29.3249 36.0484C29.2227 35.9274 29.1144 35.8123 29.0181 35.6852C28.8497 35.4612 28.7113 35.2191 28.579 34.9769C28.4527 34.7408 28.3263 34.5047 28.2421 34.2505C28.1519 33.9962 28.0917 33.7359 28.0135 33.4817C27.9834 33.3788 27.9834 33.2637 27.9594 33.1548C27.8932 32.846 27.8751 32.5434 27.8872 32.2225ZM31.2741 36.2664C31.2921 36.2361 31.2861 36.2119 31.2861 36.1877C31.2861 35.9092 31.2861 35.6307 31.2861 35.3583C31.2861 33.9236 31.2861 32.4949 31.2861 31.0602C31.2861 31.0118 31.2921 30.9815 31.3523 30.9815C31.7914 30.9815 32.2306 30.9815 32.6697 30.9876C32.7299 30.9876 32.754 30.9755 32.7479 30.9089C32.7479 30.3459 32.7479 29.7768 32.7479 29.2138C32.7479 28.8203 32.7479 28.4329 32.7479 28.0394C32.7479 27.9426 32.7479 27.9426 32.8502 27.9365C32.9044 27.9365 32.9645 27.9426 33.0187 27.9244C33.0487 27.9183 33.0908 27.9365 33.0969 27.9849C33.0969 28.0455 33.1089 28.1 33.1089 28.1544C33.1089 29.0685 33.1089 29.9826 33.1089 30.9028C33.1089 30.9633 33.1269 30.9815 33.1871 30.9755C33.6262 30.9755 34.0654 30.9755 34.5046 30.9694C34.5647 30.9694 34.5828 30.9815 34.5828 31.042C34.5828 32.6826 34.5828 34.3231 34.5828 35.9576C34.5828 36.1574 34.5828 36.3632 34.5828 36.563C34.5828 36.6114 34.5948 36.6296 34.6489 36.6114C34.7211 36.5872 34.7933 36.5751 34.8595 36.5448C34.9858 36.4904 35.1182 36.4419 35.2445 36.3753C35.3889 36.2966 35.5393 36.23 35.6837 36.1453C35.8581 36.0424 36.0145 35.9274 36.1769 35.8002C36.2732 35.7276 36.3634 35.6549 36.3213 35.5097C36.3213 35.5036 36.3213 35.4975 36.3213 35.4854C36.3213 33.07 36.3273 30.6486 36.3273 28.2331C36.3273 27.4764 36.3273 26.7197 36.3273 25.963C36.3273 25.8661 36.3273 25.8661 36.4236 25.8661C36.8447 25.8661 37.2718 25.8661 37.6929 25.8661C37.7651 25.8661 37.7892 25.8419 37.7892 25.7693C37.7832 25.2729 37.7892 24.7704 37.7892 24.274C37.7892 23.82 37.7892 23.366 37.7892 22.912C37.7892 22.8393 37.8132 22.8211 37.8794 22.8211C37.9456 22.8272 38.0118 22.8272 38.0719 22.8211C38.1261 22.8151 38.1381 22.8393 38.1381 22.8877C38.1381 23.8321 38.1381 24.7765 38.1381 25.7269C38.1381 25.7572 38.1441 25.7874 38.1321 25.8117C38.108 25.8661 38.1381 25.8661 38.1742 25.8661C38.2825 25.8661 38.3968 25.8661 38.5051 25.8661C38.8419 25.8661 39.1788 25.8661 39.5097 25.8661C39.5699 25.8661 39.5939 25.8843 39.5939 25.9448C39.5879 26.0235 39.5879 26.1083 39.5879 26.187C39.5879 28.1847 39.5879 30.1764 39.5879 32.1741C39.5879 32.1983 39.5879 32.2165 39.5939 32.2407C39.612 32.2891 39.624 32.2952 39.6601 32.2588C39.7323 32.1801 39.8045 32.1075 39.8767 32.0348C40.2617 31.6353 40.6527 31.2358 41.0377 30.8362C41.513 30.3459 41.9882 29.8555 42.4695 29.3652C42.5056 29.3289 42.5176 29.2865 42.5176 29.238C42.5176 28.5116 42.5176 27.7791 42.5176 27.0527C42.5176 26.9921 42.4996 26.974 42.4394 26.974C42.0183 26.98 41.5972 26.974 41.1761 26.974C41.0618 26.974 41.0558 26.9982 41.0558 26.859C41.0558 24.6917 41.0558 22.5185 41.0558 20.3512C41.0558 20.2968 41.0317 20.2483 41.0377 20.1939C41.0678 20.0183 41.0497 19.8367 41.0497 19.6611C41.0497 19.5401 41.0437 19.5401 40.9294 19.5461C40.9114 19.5461 40.8873 19.5461 40.8693 19.5461C40.7429 19.5582 40.6166 19.5582 40.4903 19.5824C40.2136 19.6369 39.9368 19.7096 39.6661 19.8125C39.3533 19.9275 39.0585 20.0788 38.7878 20.2665C38.4509 20.4965 38.1561 20.7871 37.8674 21.0777C37.6207 21.3259 37.3861 21.5741 37.1395 21.8223C37.0372 21.9252 36.9349 22.0221 36.8387 22.125C36.5379 22.4398 36.2371 22.7606 35.9363 23.0815C35.8641 23.1602 35.7919 23.251 35.7137 23.3236C35.5513 23.481 35.4009 23.6444 35.2385 23.8018C34.7993 24.2377 34.3602 24.6796 33.9451 25.1397C33.6984 25.4121 33.4398 25.6664 33.1811 25.9267C32.7479 26.3686 32.3028 26.8045 31.8756 27.2524C31.4425 27.7065 31.0154 28.1605 30.5762 28.6085C30.2634 28.9293 29.9446 29.2441 29.7039 29.6315C29.5295 29.904 29.3731 30.1885 29.2528 30.4912C29.0963 30.8846 29.0001 31.2902 28.958 31.7079C28.9099 32.1741 28.9159 32.6402 29.0121 33.1003C29.0783 33.4151 29.1685 33.7238 29.2828 34.0265C29.343 34.19 29.4332 34.3413 29.5175 34.4926C29.9446 35.2554 30.5221 35.8426 31.2741 36.2664ZM44.3163 20.8174C44.3103 20.8537 44.3103 20.8719 44.3103 20.89C44.3103 21.8586 44.3103 22.8211 44.3103 23.7897C44.3103 24.8249 44.3103 25.8601 44.3103 26.9013C44.3103 26.9679 44.2983 26.9982 44.2201 26.9982C43.7869 26.9921 43.3598 26.9982 42.9267 26.9982C42.8605 26.9982 42.8425 27.0224 42.8425 27.0829C42.8425 27.6762 42.8425 28.2755 42.8425 28.8688C42.8425 28.899 42.8425 28.9293 42.8425 28.9596C42.9989 28.8082 43.1493 28.6629 43.2997 28.5116C43.5463 28.2573 43.793 28.0031 44.0396 27.7488C44.3404 27.4401 44.6472 27.1374 44.8878 26.7742C45.3631 26.0599 45.6157 25.2668 45.6699 24.4133C45.7 23.9229 45.6458 23.4386 45.5255 22.9604C45.3992 22.4579 45.1946 21.9918 44.9059 21.562C44.7435 21.2896 44.5389 21.0656 44.3163 20.8174Z" fill="url(#paint6_linear_143_13638)"/>
</g>
<g filter="url(#filter2_d_143_13638)">
<path d="M27.0218 34.774C26.9558 34.7499 26.9198 34.7018 26.8898 34.6597C26.7819 34.5154 26.6499 34.3892 26.53 34.2569C26.386 34.0946 26.2361 33.9322 26.0802 33.7759C25.7803 33.4693 25.4804 33.1627 25.1805 32.856C25.0066 32.6757 24.8327 32.5013 24.6588 32.3269C24.5148 32.1826 24.3829 32.0263 24.2389 31.888C24.173 31.8219 24.113 31.7438 24.029 31.6896C23.9571 31.6476 23.9331 31.5574 23.8671 31.4972C23.6752 31.3229 23.5073 31.1305 23.3153 30.9561C23.1654 30.8179 23.0455 30.6435 22.8955 30.5052C22.7996 30.421 22.7156 30.3188 22.6136 30.2407C22.5657 30.2106 22.5477 30.1445 22.5057 30.1024C22.3078 29.91 22.1099 29.7236 21.9239 29.5192C21.672 29.2366 21.3962 28.9781 21.1443 28.6955C20.9584 28.4911 20.7544 28.2987 20.5625 28.1003C20.2806 27.8057 20.0228 27.487 19.8009 27.1443C19.6929 26.976 19.6089 26.7956 19.513 26.6213C19.423 26.4589 19.369 26.2846 19.2971 26.1223C19.2011 25.9178 19.1711 25.7014 19.1052 25.491C19.0632 25.3467 19.0452 25.1964 19.0152 25.0521C18.9432 24.6492 18.9612 24.2464 18.9492 23.8376C18.9492 23.7294 18.9612 23.6211 18.9552 23.5129C18.9552 23.4287 18.9912 23.3386 19.0032 23.2484C19.0152 23.1943 19.0092 23.1341 19.0152 23.08C19.0272 22.9898 19.0572 22.9057 19.0812 22.8155C19.1531 22.5089 19.2491 22.2143 19.363 21.9197C19.429 21.7453 19.495 21.5649 19.5969 21.4086C19.7289 21.2042 19.8488 20.9878 19.9928 20.7954C20.1367 20.597 20.2806 20.3985 20.4546 20.2242C20.6045 20.0679 20.7604 19.9176 20.9284 19.7733C21.1983 19.5328 21.4921 19.3223 21.81 19.148C22.0019 19.0458 22.1998 18.9496 22.3977 18.8594C22.5417 18.7933 22.6856 18.7392 22.8415 18.7031C22.9615 18.673 23.0694 18.6189 23.1954 18.6069C23.3873 18.5888 23.5672 18.5407 23.7532 18.5107C24.023 18.4746 24.2929 18.4746 24.5628 18.4746C24.6708 18.4746 24.7787 18.4746 24.8807 18.4806C24.9886 18.4866 25.0966 18.5047 25.2045 18.5227C25.3545 18.5468 25.5044 18.6069 25.6603 18.6129C25.7983 18.6189 25.9122 18.6911 26.0382 18.7211C26.2781 18.7752 26.494 18.8895 26.7159 18.9857C26.9858 19.1059 27.2317 19.2562 27.4716 19.4246C27.6455 19.5448 27.8254 19.665 27.9873 19.8093C28.1013 19.9115 28.2092 20.0198 28.3112 20.128C28.6471 20.4707 28.9829 20.8134 29.3188 21.1561C29.6846 21.5349 30.0505 21.9197 30.4223 22.2924C30.8781 22.7494 31.3159 23.2303 31.7777 23.6813C31.7957 23.6993 31.8137 23.7173 31.8317 23.7354C31.8557 23.7594 31.8497 23.7835 31.8257 23.8075C31.6578 23.9759 31.4958 24.1382 31.3279 24.3065C31.2739 24.3667 31.208 24.4208 31.16 24.4809C31.118 24.529 31.088 24.5049 31.058 24.4809C30.9261 24.3486 30.7821 24.2224 30.6682 24.0721C30.5482 23.9218 30.3923 23.8135 30.2843 23.6572C30.2364 23.5911 30.1644 23.543 30.1104 23.4829C29.8825 23.2484 29.6606 23.0019 29.4267 22.7794C29.2168 22.575 29.0189 22.3525 28.809 22.1421C28.665 21.9978 28.5091 21.8655 28.3772 21.7092C28.1972 21.4928 27.9933 21.3064 27.8014 21.102C27.5915 20.8795 27.3816 20.6571 27.1357 20.4707C26.9918 20.3625 26.8418 20.2543 26.6799 20.1641C26.548 20.0859 26.41 20.0198 26.2781 19.9476C26.1521 19.8815 26.0202 19.8274 25.8822 19.7853C25.7683 19.7492 25.6483 19.7071 25.5284 19.6771C25.3425 19.629 25.1566 19.5989 24.9706 19.5688C24.8747 19.5508 24.7787 19.5568 24.6828 19.5508C24.6228 19.5448 24.6108 19.5688 24.6108 19.623C24.6108 19.8093 24.6108 19.9957 24.6108 20.1761C24.6108 20.7593 24.6108 21.3425 24.6108 21.9257C24.6108 23.3265 24.6168 24.7334 24.6108 26.1343C24.6108 26.3748 24.6228 26.6153 24.6168 26.8618C24.6168 26.9099 24.6108 26.9399 24.5448 26.9399C24.113 26.9399 23.6812 26.9399 23.2494 26.9399C23.1774 26.9399 23.1594 26.964 23.1594 27.0542C23.1594 27.6975 23.1594 28.3348 23.1594 28.9781C23.1594 29.0563 23.1654 29.1344 23.1534 29.2126C23.1474 29.2426 23.1594 29.2607 23.1774 29.2847C23.5852 29.6996 23.9931 30.1144 24.4009 30.5353C24.8447 30.9922 25.2885 31.4491 25.7323 31.9061C25.8403 32.0143 25.9542 32.1165 26.0682 32.2247C26.0682 32.0444 26.0682 31.858 26.0682 31.6716C26.0682 29.7537 26.0682 27.8418 26.0682 25.9238C26.0682 25.8577 26.0922 25.8397 26.1521 25.8397C26.5839 25.8397 27.0158 25.8397 27.4476 25.8397C27.5195 25.8397 27.5315 25.8156 27.5315 25.7495C27.5315 24.8056 27.5315 23.8676 27.5315 22.9237C27.5315 22.8155 27.5315 22.8155 27.6395 22.8155C27.6875 22.8155 27.7414 22.8215 27.7894 22.8155C27.8554 22.8095 27.8794 22.8335 27.8794 22.9057C27.8794 23.2484 27.8794 23.5911 27.8794 23.9338C27.8794 24.547 27.8794 25.1543 27.8794 25.7675C27.8794 25.8337 27.9034 25.8577 27.9633 25.8337C28.0053 25.8156 28.0473 25.8397 28.0833 25.8397C28.4731 25.8397 28.857 25.8397 29.2468 25.8397C29.3128 25.8397 29.3488 25.8577 29.3308 25.9299C29.3068 26.0681 29.3188 26.2064 29.3188 26.3387C29.3188 26.3748 29.3068 26.3988 29.2828 26.4229C29.1448 26.5551 29.0249 26.6934 28.887 26.8257C28.737 26.976 28.5871 27.1263 28.4371 27.2826C28.2692 27.451 28.1193 27.6313 27.9753 27.8177C27.8734 27.95 27.7774 28.0823 27.6875 28.2205C27.5315 28.455 27.3816 28.6955 27.2616 28.954C27.1477 29.1945 27.0397 29.441 26.9498 29.6936C26.8718 29.916 26.7879 30.1325 26.7399 30.3609C26.6979 30.5653 26.6439 30.7637 26.6139 30.9682C26.5959 31.1064 26.5839 31.2447 26.5659 31.383C26.542 31.5694 26.536 31.7498 26.524 31.9361C26.512 32.1105 26.506 32.2849 26.53 32.4592C26.542 32.5434 26.536 32.6336 26.542 32.7177C26.5599 32.8861 26.5779 33.0544 26.6019 33.2168C26.6439 33.5174 26.7219 33.812 26.7998 34.1006C26.8418 34.2569 26.8898 34.4072 26.9558 34.5515C26.9738 34.6236 27.0098 34.6898 27.0218 34.774ZM22.7816 28.8518C22.7816 28.8398 22.7876 28.8338 22.7876 28.8278C22.7876 28.2386 22.7876 27.6494 22.7876 27.0602C22.7876 26.9099 22.7876 26.9159 22.6436 26.9219C22.2298 26.9399 21.822 26.9279 21.4082 26.9279C21.3542 26.9279 21.3302 26.9099 21.3302 26.8497C21.3302 24.8837 21.3302 22.9117 21.3302 20.9457C21.3302 20.9096 21.3482 20.8555 21.3182 20.8435C21.2882 20.8314 21.2702 20.8855 21.2462 20.9096C20.9763 21.1681 20.7664 21.4747 20.5805 21.7934C20.3286 22.2323 20.1667 22.7013 20.0647 23.1943C19.9688 23.6572 19.9628 24.1262 19.9988 24.5951C20.0168 24.8236 20.0707 25.0461 20.1187 25.2685C20.2387 25.7675 20.4546 26.2305 20.7365 26.6573C20.9704 27.0181 21.2642 27.3247 21.5701 27.6313C21.738 27.8057 21.9059 27.9801 22.0739 28.1544C22.2778 28.3588 22.4817 28.5632 22.6796 28.7737C22.7096 28.8037 22.7396 28.8338 22.7816 28.8518Z" fill="url(#paint7_linear_143_13638)"/>
</g>
<path d="M10.8711 46.0098C10.8711 46.0098 20.7289 49.2183 32.6937 49.2183C44.6584 49.2183 54.6667 46.0098 54.6667 46.0098V34.9032C54.6667 34.9032 41.5178 39.2337 32.6937 39.2224C23.9267 39.2112 10.8711 34.9032 10.8711 34.9032V46.0098Z" fill="url(#paint8_linear_143_13638)"/>
<path d="M32.2939 45.9308L30.4805 42.252H31.3161L32.934 45.5787H32.4539L34.0896 42.252H34.86L33.0525 45.9308H32.2939Z" fill="#6AC2C8" stroke="#6AC2C8"/>
<g filter="url(#filter3_d_143_13638)">
<path d="M34.5993 9.47097C33.8829 10.7118 32.0918 10.7118 31.3754 9.47097C30.659 8.23009 31.5545 6.679 32.9873 6.679C34.4202 6.679 35.3157 8.23009 34.5993 9.47097Z" fill="url(#paint9_linear_143_13638)"/>
</g>
<g filter="url(#filter4_d_143_13638)">
<path d="M34.5993 55.0183C33.8829 56.2592 32.0918 56.2592 31.3754 55.0183C30.659 53.7775 31.5545 52.2264 32.9873 52.2264C34.4202 52.2264 35.3157 53.7775 34.5993 55.0183Z" fill="url(#paint10_linear_143_13638)"/>
</g>
<g filter="url(#filter5_d_143_13638)">
<path d="M54.4808 18.9792C55.3072 20.1498 54.5564 21.7759 53.1295 21.9063C51.7026 22.0366 50.6697 20.5734 51.2703 19.2725C51.8709 17.9716 53.6545 17.8087 54.4808 18.9792Z" fill="url(#paint11_linear_143_13638)"/>
</g>
<g filter="url(#filter6_d_143_13638)">
<path d="M14.8441 18.9792C15.6704 20.1498 14.9197 21.7759 13.4928 21.9063C12.0659 22.0366 11.033 20.5734 11.6336 19.2725C12.2342 17.9716 14.0178 17.8087 14.8441 18.9792Z" fill="url(#paint12_linear_143_13638)"/>
</g>
<defs>
<filter id="filter0_i_143_13638" x="12.2881" y="11.3416" width="42.9609" height="42.5571" filterUnits="userSpaceOnUse" color-interpolation-filters="sRGB">
<feFlood flood-opacity="0" result="BackgroundImageFix"/>
<feBlend mode="normal" in="SourceGraphic" in2="BackgroundImageFix" result="shape"/>
<feColorMatrix in="SourceAlpha" type="matrix" values="0 0 0 0 0 0 0 0 0 0 0 0 0 0 0 0 0 0 127 0" result="hardAlpha"/>
<feOffset dx="2" dy="1"/>
<feGaussianBlur stdDeviation="1"/>
<feComposite in2="hardAlpha" operator="arithmetic" k2="-1" k3="1"/>
<feColorMatrix type="matrix" values="0 0 0 0 0 0 0 0 0 0 0 0 0 0 0 0 0 0 0.25 0"/>
<feBlend mode="normal" in2="shape" result="effect1_innerShadow_143_13638"/>
</filter>
<filter id="filter1_d_143_13638" x="27.2789" y="18.4746" width="22.0506" height="23.0175" filterUnits="userSpaceOnUse" color-interpolation-filters="sRGB">
<feFlood flood-opacity="0" result="BackgroundImageFix"/>
<feColorMatrix in="SourceAlpha" type="matrix" values="0 0 0 0 0 0 0 0 0 0 0 0 0 0 0 0 0 0 127 0" result="hardAlpha"/>
<feOffset dx="1" dy="2"/>
<feGaussianBlur stdDeviation="0.8"/>
<feComposite in2="hardAlpha" operator="out"/>
<feColorMatrix type="matrix" values="0 0 0 0 0 0 0 0 0 0 0 0 0 0 0 0 0 0 0.25 0"/>
<feBlend mode="normal" in2="BackgroundImageFix" result="effect1_dropShadow_143_13638"/>
<feBlend mode="normal" in="SourceGraphic" in2="effect1_dropShadow_143_13638" result="shape"/>
</filter>
<filter id="filter2_d_143_13638" x="18.3492" y="18.4746" width="16.0975" height="19.8993" filterUnits="userSpaceOnUse" color-interpolation-filters="sRGB">
<feFlood flood-opacity="0" result="BackgroundImageFix"/>
<feColorMatrix in="SourceAlpha" type="matrix" values="0 0 0 0 0 0 0 0 0 0 0 0 0 0 0 0 0 0 127 0" result="hardAlpha"/>
<feOffset dx="1" dy="2"/>
<feGaussianBlur stdDeviation="0.8"/>
<feComposite in2="hardAlpha" operator="out"/>
<feColorMatrix type="matrix" values="0 0 0 0 0 0 0 0 0 0 0 0 0 0 0 0 0 0 0.25 0"/>
<feBlend mode="normal" in2="BackgroundImageFix" result="effect1_dropShadow_143_13638"/>
<feBlend mode="normal" in="SourceGraphic" in2="effect1_dropShadow_143_13638" result="shape"/>
</filter>
<filter id="filter3_d_143_13638" x="24.823" y="0.378955" width="16.3285" height="16.3227" filterUnits="userSpaceOnUse" color-interpolation-filters="sRGB">
<feFlood flood-opacity="0" result="BackgroundImageFix"/>
<feColorMatrix in="SourceAlpha" type="matrix" values="0 0 0 0 0 0 0 0 0 0 0 0 0 0 0 0 0 0 127 0" result="hardAlpha"/>
<feOffset/>
<feGaussianBlur stdDeviation="3.15"/>
<feComposite in2="hardAlpha" operator="out"/>
<feColorMatrix type="matrix" values="0 0 0 0 1 0 0 0 0 1 0 0 0 0 1 0 0 0 0.25 0"/>
<feBlend mode="normal" in2="BackgroundImageFix" result="effect1_dropShadow_143_13638"/>
<feBlend mode="normal" in="SourceGraphic" in2="effect1_dropShadow_143_13638" result="shape"/>
</filter>
<filter id="filter4_d_143_13638" x="24.823" y="45.9263" width="16.3285" height="16.3227" filterUnits="userSpaceOnUse" color-interpolation-filters="sRGB">
<feFlood flood-opacity="0" result="BackgroundImageFix"/>
<feColorMatrix in="SourceAlpha" type="matrix" values="0 0 0 0 0 0 0 0 0 0 0 0 0 0 0 0 0 0 127 0" result="hardAlpha"/>
<feOffset/>
<feGaussianBlur stdDeviation="3.15"/>
<feComposite in2="hardAlpha" operator="out"/>
<feColorMatrix type="matrix" values="0 0 0 0 1 0 0 0 0 1 0 0 0 0 1 0 0 0 0.25 0"/>
<feBlend mode="normal" in2="BackgroundImageFix" result="effect1_dropShadow_143_13638"/>
<feBlend mode="normal" in="SourceGraphic" in2="effect1_dropShadow_143_13638" result="shape"/>
</filter>
<filter id="filter5_d_143_13638" x="44.7957" y="11.8912" width="16.3285" height="16.3231" filterUnits="userSpaceOnUse" color-interpolation-filters="sRGB">
<feFlood flood-opacity="0" result="BackgroundImageFix"/>
<feColorMatrix in="SourceAlpha" type="matrix" values="0 0 0 0 0 0 0 0 0 0 0 0 0 0 0 0 0 0 127 0" result="hardAlpha"/>
<feOffset/>
<feGaussianBlur stdDeviation="3.15"/>
<feComposite in2="hardAlpha" operator="out"/>
<feColorMatrix type="matrix" values="0 0 0 0 1 0 0 0 0 1 0 0 0 0 1 0 0 0 0.25 0"/>
<feBlend mode="normal" in2="BackgroundImageFix" result="effect1_dropShadow_143_13638"/>
<feBlend mode="normal" in="SourceGraphic" in2="effect1_dropShadow_143_13638" result="shape"/>
</filter>
<filter id="filter6_d_143_13638" x="5.15898" y="11.8912" width="16.3285" height="16.3231" filterUnits="userSpaceOnUse" color-interpolation-filters="sRGB">
<feFlood flood-opacity="0" result="BackgroundImageFix"/>
<feColorMatrix in="SourceAlpha" type="matrix" values="0 0 0 0 0 0 0 0 0 0 0 0 0 0 0 0 0 0 127 0" result="hardAlpha"/>
<feOffset/>
<feGaussianBlur stdDeviation="3.15"/>
<feComposite in2="hardAlpha" operator="out"/>
<feColorMatrix type="matrix" values="0 0 0 0 1 0 0 0 0 1 0 0 0 0 1 0 0 0 0.25 0"/>
<feBlend mode="normal" in2="BackgroundImageFix" result="effect1_dropShadow_143_13638"/>
<feBlend mode="normal" in="SourceGraphic" in2="effect1_dropShadow_143_13638" result="shape"/>
</filter>
<linearGradient id="paint0_linear_143_13638" x1="39.4777" y1="0.875793" x2="35.9741" y2="12.2627" gradientUnits="userSpaceOnUse">
<stop stop-color="#0E9CCB"/>
<stop offset="1" stop-color="#033A4E"/>
</linearGradient>
<linearGradient id="paint1_linear_143_13638" x1="35.0779" y1="5.19231" x2="29.4246" y2="18.9846" gradientUnits="userSpaceOnUse">
<stop stop-color="#0D91BC"/>
<stop offset="1" stop-color="#074254"/>
</linearGradient>
<linearGradient id="paint2_linear_143_13638" x1="70.1345" y1="13.3578" x2="59.8425" y2="10.511" gradientUnits="userSpaceOnUse">
<stop stop-color="#13718E"/>
<stop offset="1" stop-color="#073645"/>
</linearGradient>
<linearGradient id="paint3_linear_143_13638" x1="4.44235" y1="10.0731" x2="10.1358" y2="27.1533" gradientUnits="userSpaceOnUse">
<stop stop-color="#6ED4E0"/>
<stop offset="1" stop-color="#0D5C74"/>
</linearGradient>
<linearGradient id="paint4_linear_143_13638" x1="21.3053" y1="6.56927" x2="46.9567" y2="9.05352" gradientUnits="userSpaceOnUse">
<stop stop-color="#6ED4E0"/>
<stop offset="1" stop-color="#074254"/>
</linearGradient>
<linearGradient id="paint5_linear_143_13638" x1="22.0464" y1="8.4121" x2="46.5829" y2="9.74115" gradientUnits="userSpaceOnUse">
<stop stop-color="#6ACEDB"/>
<stop offset="1" stop-color="#0D5C74"/>
</linearGradient>
<linearGradient id="paint6_linear_143_13638" x1="32.3698" y1="18.4746" x2="43.657" y2="19.1277" gradientUnits="userSpaceOnUse">
<stop stop-color="#B3E2EC"/>
<stop offset="1" stop-color="#1B6889"/>
</linearGradient>
<linearGradient id="paint7_linear_143_13638" x1="22.0219" y1="18.4746" x2="28.0021" y2="6.0685" gradientUnits="userSpaceOnUse">
<stop stop-color="#C3EFF6"/>
<stop offset="0.9999" stop-color="#1C6A8B"/>
<stop offset="1" stop-color="#1A6889"/>
<stop offset="1" stop-color="#216F91"/>
<stop offset="1" stop-color="#0A8593"/>
</linearGradient>
<linearGradient id="paint8_linear_143_13638" x1="32.9083" y1="50.1459" x2="33.3352" y2="39.7971" gradientUnits="userSpaceOnUse">
<stop stop-color="#3386A0"/>
<stop offset="0.994792" stop-color="#6DC0CF"/>
</linearGradient>
<linearGradient id="paint9_linear_143_13638" x1="34.9362" y1="12.2629" x2="30.4791" y2="11.9973" gradientUnits="userSpaceOnUse">
<stop offset="0.0001" stop-color="#277187"/>
<stop offset="1" stop-color="#B1E0E9"/>
</linearGradient>
<linearGradient id="paint10_linear_143_13638" x1="34.9362" y1="57.8103" x2="30.4791" y2="57.5447" gradientUnits="userSpaceOnUse">
<stop offset="0.0001" stop-color="#277187"/>
<stop offset="1" stop-color="#B1E0E9"/>
</linearGradient>
<linearGradient id="paint11_linear_143_13638" x1="55.2816" y1="14.4636" x2="57.5651" y2="19.4421" gradientUnits="userSpaceOnUse">
<stop stop-color="#AADAE4"/>
<stop offset="1" stop-color="#30798D"/>
</linearGradient>
<linearGradient id="paint12_linear_143_13638" x1="15.6449" y1="14.4636" x2="17.9284" y2="19.4421" gradientUnits="userSpaceOnUse">
<stop stop-color="#AADAE4"/>
<stop offset="1" stop-color="#30798D"/>
</linearGradient>
</defs>
</svg>
