<svg width="69" height="73" viewBox="0 0 69 73" fill="none" xmlns="http://www.w3.org/2000/svg">
<g clip-path="url(#clip0_7_62)">
<path d="M29.3062 3.30472L4.74312 18.2804C1.78648 20.0831 0 23.1828 0 26.5103V55.3398C0 59.5385 2.82978 63.2697 7.03416 64.6148L31.6303 72.4839C33.8106 73.1815 36.1744 73.1716 38.3481 72.456L62.052 64.6519C66.2121 63.2822 69 59.5718 69 55.4049V26.4273C69 23.1453 67.2618 20.0817 64.3706 18.2677L40.6337 3.37504C37.2077 1.22556 32.7617 1.19796 29.3062 3.30472Z" fill="url(#paint0_linear_7_62)"/>
<path d="M29.2681 6.05999L6.97008 19.6756C4.01693 21.4788 2.23303 24.5767 2.23303 27.9018V53.7121C2.23303 58.1098 5.33259 61.968 9.81164 63.1456L32.1507 69.0187C33.9892 69.5021 35.9333 69.4952 37.768 68.9988L59.2629 63.1833C63.7049 61.9816 66.767 58.1403 66.767 53.7697V27.8187C66.767 24.5392 65.0314 21.4775 62.1437 19.6629L40.6077 6.13043C37.179 3.9759 32.7265 3.94825 29.2681 6.05999Z" fill="url(#paint1_linear_7_62)"/>
<path d="M26.809 38.0714C26.7806 37.8278 26.809 37.5662 26.7996 37.2955C26.7996 37.1602 26.828 37.0068 26.8754 36.8624C26.9133 36.7271 26.9133 36.5827 26.9417 36.4564C26.9986 36.2128 27.0744 35.9782 27.1313 35.7346C27.2261 35.3376 27.4062 34.9677 27.5673 34.5887C27.7284 34.2008 27.9559 33.8399 28.1833 33.479C28.4013 33.1271 28.6667 32.8113 28.951 32.4955C29.3491 32.0715 29.7756 31.6655 30.1832 31.2504C30.4675 30.9617 30.7613 30.691 31.0457 30.4113C31.5954 29.888 32.1546 29.3647 32.6853 28.8234C33.254 28.255 33.8322 27.7046 34.4103 27.1362C34.6662 26.8835 34.9506 26.649 35.197 26.3783C35.6045 25.9272 36.0689 25.5302 36.5049 25.1061C36.7514 24.8715 36.9978 24.6369 37.2347 24.3933C37.8034 23.8069 38.4289 23.2745 38.9976 22.6791C39.4715 22.1828 39.9928 21.7227 40.4762 21.2355C40.8458 20.8655 41.2154 20.5046 41.5756 20.1437C41.8884 19.837 42.2296 19.5753 42.5708 19.3046C42.912 19.034 43.2816 18.8174 43.6607 18.6009C44.0683 18.3753 44.5138 18.1949 44.9592 18.0415C45.1583 17.9783 45.3478 17.8881 45.5469 17.852C45.7175 17.825 45.8786 17.7708 46.0492 17.7528C46.3146 17.7257 46.5705 17.6716 46.8358 17.6355C47.2339 17.5813 47.6415 17.5813 48.0395 17.5813C48.5513 17.5813 49.0537 17.6535 49.5465 17.7437C50.0962 17.843 50.627 17.9874 51.1293 18.2039C51.6222 18.4114 52.1056 18.664 52.5605 18.9528C53.0818 19.2956 53.5652 19.6836 54.0106 20.1167C54.4087 20.4956 54.7309 20.9287 55.0532 21.3618C55.4607 21.9302 55.7545 22.5618 56.001 23.2114C56.2095 23.7708 56.3422 24.3392 56.418 24.9257C56.4559 25.2595 56.5033 25.5933 56.4938 25.9362C56.4843 26.288 56.4938 26.6399 56.437 26.9918C56.3706 27.3978 56.3137 27.8129 56.2 28.2098C56.0578 28.6971 55.8872 29.1752 55.6598 29.6264C55.2712 30.4384 54.7594 31.1602 54.1244 31.8188C53.6884 32.279 53.2239 32.7211 52.769 33.1542C52.3046 33.5872 51.8591 34.0384 51.4231 34.4895C51.2336 34.688 51.044 34.8865 50.826 35.0579C50.7028 35.1662 50.5891 35.2925 50.4754 35.4008C50.3901 35.482 50.3048 35.5542 50.2195 35.6354C49.7456 36.1045 49.2622 36.5556 48.7978 37.0338C48.5419 37.2955 48.286 37.5571 48.0301 37.8098C47.5941 38.2338 47.1581 38.6579 46.7126 39.0819C46.2672 39.506 45.8122 39.921 45.3857 40.3631C44.7981 40.9676 44.182 41.5541 43.5849 42.1586C43.2058 42.5376 42.7983 42.8985 42.4097 43.2684C42.0211 43.6383 41.6325 44.0082 41.2439 44.3782C41.0259 44.5857 40.77 44.7571 40.533 44.9375C40.2013 45.1812 39.8506 45.3977 39.481 45.5781C38.9028 45.8578 38.2963 46.0834 37.6707 46.2548C37.2916 46.3541 36.8935 46.4082 36.5049 46.4804C36.4007 46.4984 36.2869 46.4984 36.1827 46.5075C35.6709 46.5435 35.1591 46.4984 34.6473 46.4984C34.4956 46.4984 34.344 46.4533 34.1923 46.4353C34.0122 46.4082 33.8322 46.3631 33.6521 46.327C33.3393 46.2639 33.036 46.1736 32.7327 46.0924C32.3726 45.9932 32.0314 45.8308 31.6902 45.6864C31.4627 45.5872 31.2637 45.4428 31.0457 45.3345C30.8656 45.2443 30.7045 45.136 30.5433 45.0278C30.3253 44.8654 30.1074 44.703 29.8988 44.5406C29.605 44.306 29.3302 44.0443 29.0743 43.7736C28.9131 43.5932 28.7425 43.4218 28.5909 43.2323C28.3255 42.8985 28.1075 42.5376 27.899 42.1767C27.7 41.8248 27.5009 41.4729 27.3682 41.094C27.2261 40.715 27.1313 40.3271 27.0081 39.9481C26.9607 39.7947 26.9607 39.6233 26.9228 39.4609C26.8185 39.0007 26.7901 38.5496 26.809 38.0714ZM32.1451 44.0985C32.1735 44.0533 32.1641 44.0173 32.1641 43.9812C32.1641 43.5661 32.1641 43.1511 32.1641 42.7451C32.1641 40.6067 32.1641 38.4774 32.1641 36.3391C32.1641 36.2669 32.1735 36.2218 32.2683 36.2218C32.9602 36.2218 33.6521 36.2218 34.344 36.2308C34.4388 36.2308 34.4767 36.2128 34.4672 36.1135C34.4672 35.2745 34.4672 34.4263 34.4672 33.5872C34.4672 33.0008 34.4672 32.4233 34.4672 31.8369C34.4672 31.6925 34.4672 31.6925 34.6283 31.6835C34.7136 31.6835 34.8084 31.6925 34.8937 31.6655C34.9411 31.6564 35.0074 31.6835 35.0169 31.7557C35.0169 31.8459 35.0359 31.9271 35.0359 32.0083C35.0359 33.3707 35.0359 34.7331 35.0359 36.1045C35.0359 36.1947 35.0643 36.2218 35.1591 36.2128C35.851 36.2128 36.5428 36.2128 37.2347 36.2038C37.3295 36.2038 37.3579 36.2218 37.3579 36.312C37.3579 38.7571 37.3579 41.2022 37.3579 43.6383C37.3579 43.936 37.3579 44.2428 37.3579 44.5406C37.3579 44.6127 37.3769 44.6398 37.4622 44.6127C37.5759 44.5766 37.6897 44.5586 37.7939 44.5135C37.993 44.4323 38.2015 44.3601 38.4005 44.2609C38.628 44.1436 38.8649 44.0443 39.0924 43.918C39.3673 43.7646 39.6137 43.5932 39.8696 43.4037C40.0212 43.2955 40.1634 43.1872 40.0971 42.9706C40.0971 42.9616 40.0971 42.9526 40.0971 42.9346C40.0971 39.3346 40.1065 35.7256 40.1065 32.1256C40.1065 30.9978 40.1065 29.87 40.1065 28.7422C40.1065 28.5978 40.1065 28.5978 40.2582 28.5978C40.9216 28.5978 41.5946 28.5978 42.258 28.5978C42.3718 28.5978 42.4097 28.5617 42.4097 28.4535C42.4002 27.7136 42.4097 26.9647 42.4097 26.2249C42.4097 25.5482 42.4097 24.8715 42.4097 24.1948C42.4097 24.0866 42.4476 24.0595 42.5518 24.0595C42.6561 24.0685 42.7603 24.0685 42.8551 24.0595C42.9404 24.0505 42.9594 24.0866 42.9594 24.1587C42.9594 25.5663 42.9594 26.9738 42.9594 28.3903C42.9594 28.4354 42.9689 28.4805 42.9499 28.5166C42.912 28.5978 42.9594 28.5978 43.0163 28.5978C43.1869 28.5978 43.3669 28.5978 43.5375 28.5978C44.0683 28.5978 44.5991 28.5978 45.1203 28.5978C45.2151 28.5978 45.253 28.6249 45.253 28.7151C45.2436 28.8324 45.2436 28.9587 45.2436 29.076C45.2436 32.0534 45.2436 35.0218 45.2436 37.9992C45.2436 38.0353 45.2436 38.0624 45.253 38.0985C45.2815 38.1707 45.3004 38.1797 45.3573 38.1256C45.471 38.0083 45.5848 37.9 45.6985 37.7917C46.3051 37.1962 46.9211 36.6008 47.5277 36.0053C48.2765 35.2745 49.0252 34.5436 49.7835 33.8128C49.8403 33.7587 49.8593 33.6955 49.8593 33.6233C49.8593 32.5406 49.8593 31.4489 49.8593 30.3662C49.8593 30.276 49.8309 30.2489 49.7361 30.2489C49.0726 30.2579 48.4092 30.2489 47.7457 30.2489C47.5656 30.2489 47.5562 30.285 47.5562 30.0775C47.5562 26.8474 47.5562 23.6084 47.5562 20.3783C47.5562 20.2971 47.5183 20.2249 47.5277 20.1437C47.5751 19.8821 47.5467 19.6114 47.5467 19.3498C47.5467 19.1693 47.5372 19.1693 47.3571 19.1783C47.3287 19.1783 47.2908 19.1783 47.2623 19.1783C47.0633 19.1964 46.8643 19.1964 46.6652 19.2325C46.2293 19.3137 45.7933 19.4219 45.3668 19.5753C44.8739 19.7467 44.4095 19.9723 43.983 20.252C43.4522 20.5949 42.9878 21.0279 42.5329 21.461C42.1443 21.8309 41.7746 22.2009 41.3861 22.5708C41.2249 22.7242 41.0638 22.8685 40.9122 23.0219C40.4383 23.4911 39.9644 23.9693 39.4905 24.4475C39.3767 24.5648 39.263 24.7001 39.1398 24.8084C38.8839 25.0429 38.6469 25.2866 38.391 25.5211C37.6992 26.1708 37.0073 26.8294 36.3533 27.5151C35.9647 27.9211 35.5571 28.3001 35.1496 28.688C34.4672 29.3467 33.7658 29.9963 33.0929 30.664C32.4105 31.3406 31.7376 32.0173 31.0457 32.685C30.5528 33.1632 30.0505 33.6324 29.6714 34.2098C29.3965 34.6158 29.1501 35.0399 28.9605 35.491C28.7141 36.0775 28.5625 36.682 28.4961 37.3045C28.4203 37.9992 28.4298 38.694 28.5814 39.3797C28.6857 39.8489 28.8278 40.309 29.0079 40.7601C29.1027 41.0037 29.2449 41.2293 29.3776 41.4549C30.0505 42.5917 30.9604 43.4669 32.1451 44.0985ZM52.6932 21.073C52.6837 21.1272 52.6837 21.1543 52.6837 21.1813C52.6837 22.6249 52.6837 24.0595 52.6837 25.5031C52.6837 27.0459 52.6837 28.5888 52.6837 30.1407C52.6837 30.2399 52.6648 30.285 52.5415 30.285C51.8591 30.276 51.1862 30.285 50.5038 30.285C50.3995 30.285 50.3711 30.3211 50.3711 30.4113C50.3711 31.2955 50.3711 32.1888 50.3711 33.073C50.3711 33.1181 50.3711 33.1632 50.3711 33.2083C50.6175 32.9827 50.8545 32.7662 51.0914 32.5406C51.48 32.1617 51.8686 31.7827 52.2572 31.4038C52.7311 30.9437 53.2145 30.4925 53.5936 29.9512C54.3423 28.8865 54.7404 27.7046 54.8257 26.4324C54.8731 25.7016 54.7878 24.9798 54.5982 24.267C54.3992 23.5181 54.077 22.8234 53.622 22.1828C53.3661 21.7768 53.0439 21.443 52.6932 21.073Z" fill="url(#paint2_linear_7_62)"/>
<path d="M25.4464 41.8741C25.3424 41.8383 25.2857 41.7666 25.2385 41.7039C25.0684 41.4888 24.8605 41.3006 24.6716 41.1035C24.4448 40.8616 24.2086 40.6196 23.9629 40.3866C23.4904 39.9296 23.018 39.4726 22.5455 39.0156C22.2715 38.7468 21.9975 38.4869 21.7235 38.2271C21.4967 38.012 21.2888 37.779 21.0621 37.5729C20.9581 37.4744 20.8636 37.3579 20.7313 37.2772C20.618 37.2145 20.5802 37.0801 20.4762 36.9905C20.1739 36.7306 19.9093 36.4439 19.6069 36.184C19.3707 35.9779 19.1817 35.7181 18.9455 35.512C18.7943 35.3865 18.662 35.2342 18.5014 35.1177C18.4258 35.0729 18.3975 34.9743 18.3313 34.9116C18.0195 34.6248 17.7077 34.347 17.4148 34.0424C17.0179 33.6212 16.5833 33.2359 16.1864 32.8147C15.8935 32.5101 15.5722 32.2233 15.2699 31.9276C14.8258 31.4885 14.4194 31.0136 14.0698 30.5029C13.8998 30.252 13.7675 29.9831 13.6163 29.7233C13.4746 29.4813 13.3895 29.2215 13.2761 28.9795C13.1249 28.6748 13.0777 28.3523 12.9738 28.0386C12.9076 27.8236 12.8793 27.5995 12.832 27.3845C12.7186 26.7841 12.747 26.1837 12.7281 25.5744C12.7281 25.4131 12.747 25.2518 12.7375 25.0905C12.7375 24.9651 12.7942 24.8306 12.8131 24.6962C12.832 24.6156 12.8226 24.526 12.832 24.4453C12.8509 24.3109 12.8982 24.1855 12.936 24.0511C13.0494 23.5941 13.2005 23.155 13.3801 22.7159C13.484 22.456 13.5879 22.1872 13.7486 21.9542C13.9565 21.6496 14.1454 21.327 14.3722 21.0402C14.599 20.7445 14.8258 20.4488 15.0998 20.1889C15.336 19.956 15.5817 19.7319 15.8462 19.5169C16.2714 19.1585 16.7344 18.8448 17.2352 18.585C17.5376 18.4326 17.8494 18.2892 18.1612 18.1548C18.388 18.0563 18.6148 17.9756 18.8605 17.9219C19.0494 17.8771 19.2195 17.7964 19.4179 17.7785C19.7203 17.7516 20.0038 17.6799 20.2967 17.6351C20.7219 17.5813 21.1471 17.5813 21.5723 17.5813C21.7424 17.5813 21.9125 17.5813 22.0731 17.5903C22.2432 17.5993 22.4133 17.6262 22.5833 17.653C22.8196 17.6889 23.0558 17.7785 23.3015 17.7874C23.5188 17.7964 23.6983 17.9039 23.8967 17.9487C24.2747 18.0294 24.6149 18.1996 24.9645 18.343C25.3897 18.5222 25.7771 18.7463 26.155 18.9972C26.4291 19.1764 26.7125 19.3556 26.9676 19.5706C27.1472 19.723 27.3173 19.8843 27.4779 20.0456C28.007 20.5563 28.5362 21.0671 29.0653 21.5779C29.6417 22.1424 30.2181 22.7159 30.8039 23.2715C31.522 23.9525 32.2118 24.6694 32.9394 25.3414C32.9677 25.3683 32.9961 25.3952 33.0244 25.4221C33.0622 25.4579 33.0528 25.4938 33.015 25.5296C32.7504 25.7805 32.4953 26.0224 32.2307 26.2733C32.1457 26.363 32.0417 26.4436 31.9661 26.5332C31.9 26.6049 31.8527 26.569 31.8055 26.5332C31.5976 26.3361 31.3709 26.1479 31.1913 25.9239C31.0023 25.6999 30.7567 25.5386 30.5866 25.3056C30.511 25.207 30.3976 25.1353 30.3126 25.0457C29.9535 24.6962 29.6039 24.3288 29.2354 23.9973C28.9047 23.6926 28.5929 23.3611 28.2621 23.0474C28.0354 22.8324 27.7897 22.6353 27.5818 22.4023C27.2984 22.0797 26.9771 21.8019 26.6747 21.4972C26.344 21.1657 26.0133 20.8341 25.6259 20.5563C25.3991 20.395 25.1629 20.2337 24.9078 20.0993C24.6999 19.9828 24.4826 19.8843 24.2747 19.7767C24.0763 19.6782 23.8684 19.5975 23.6511 19.5348C23.4715 19.481 23.2826 19.4183 23.0936 19.3735C22.8007 19.3018 22.5077 19.257 22.2148 19.2122C22.0636 19.1853 21.9125 19.1943 21.7613 19.1853C21.6668 19.1764 21.6479 19.2122 21.6479 19.2929C21.6479 19.5706 21.6479 19.8484 21.6479 20.1173C21.6479 20.9865 21.6479 21.8557 21.6479 22.7249C21.6479 24.8127 21.6573 26.9096 21.6479 28.9974C21.6479 29.3559 21.6668 29.7143 21.6573 30.0817C21.6573 30.1534 21.6479 30.1982 21.544 30.1982C20.8636 30.1982 20.1833 30.1982 19.503 30.1982C19.3896 30.1982 19.3612 30.234 19.3612 30.3684C19.3612 31.3272 19.3612 32.2771 19.3612 33.2359C19.3612 33.3524 19.3707 33.4689 19.3518 33.5854C19.3423 33.6302 19.3612 33.6571 19.3896 33.6929C20.0321 34.3112 20.6746 34.9295 21.3172 35.5568C22.0164 36.2378 22.7156 36.9188 23.4148 37.5998C23.5849 37.7611 23.7645 37.9135 23.944 38.0747C23.944 37.8059 23.944 37.5281 23.944 37.2504C23.944 34.3918 23.944 31.5423 23.944 28.6838C23.944 28.5852 23.9818 28.5584 24.0763 28.5584C24.7566 28.5584 25.4369 28.5584 26.1172 28.5584C26.2306 28.5584 26.2495 28.5225 26.2495 28.4239C26.2495 27.0171 26.2495 25.6192 26.2495 24.2124C26.2495 24.0511 26.2495 24.0511 26.4196 24.0511C26.4952 24.0511 26.5802 24.06 26.6558 24.0511C26.7598 24.0421 26.7976 24.0779 26.7976 24.1855C26.7976 24.6962 26.7976 25.207 26.7976 25.7178C26.7976 26.6318 26.7976 27.5368 26.7976 28.4508C26.7976 28.5494 26.8354 28.5852 26.9298 28.5494C26.996 28.5225 27.0621 28.5584 27.1188 28.5584C27.733 28.5584 28.3377 28.5584 28.9519 28.5584C29.0559 28.5584 29.1126 28.5852 29.0842 28.6928C29.0464 28.8989 29.0653 29.105 29.0653 29.3021C29.0653 29.3559 29.0464 29.3917 29.0086 29.4276C28.7913 29.6247 28.6023 29.8308 28.385 30.0279C28.1488 30.2519 27.9125 30.476 27.6763 30.709C27.4117 30.9599 27.1755 31.2287 26.9487 31.5065C26.7881 31.7036 26.6369 31.9007 26.4952 32.1068C26.2495 32.4563 26.0133 32.8147 25.8243 33.2001C25.6448 33.5585 25.4747 33.9259 25.333 34.3022C25.2101 34.6338 25.0779 34.9564 25.0023 35.2969C24.9361 35.6016 24.8511 35.8973 24.8038 36.2019C24.7755 36.408 24.7566 36.6141 24.7282 36.8202C24.6904 37.098 24.681 37.3668 24.6621 37.6446C24.6432 37.9045 24.6338 38.1644 24.6716 38.4242C24.6904 38.5497 24.681 38.6841 24.6904 38.8095C24.7188 39.0604 24.7471 39.3113 24.7849 39.5533C24.8511 40.0013 24.9739 40.4404 25.0968 40.8705C25.1629 41.1035 25.2385 41.3275 25.3424 41.5426C25.3708 41.6501 25.4275 41.7487 25.4464 41.8741ZM18.766 33.0477C18.766 33.0298 18.7754 33.0208 18.7754 33.0119C18.7754 32.1337 18.7754 31.2556 18.7754 30.3774C18.7754 30.1534 18.7754 30.1623 18.5486 30.1713C17.8967 30.1982 17.2541 30.1803 16.6022 30.1803C16.5171 30.1803 16.4793 30.1534 16.4793 30.0638C16.4793 27.1336 16.4793 24.1944 16.4793 21.2642C16.4793 21.2105 16.5077 21.1298 16.4604 21.1119C16.4132 21.094 16.3848 21.1746 16.347 21.2105C15.9218 21.5958 15.5911 22.0528 15.2982 22.5277C14.9013 23.1819 14.6462 23.8808 14.4856 24.6156C14.3344 25.3056 14.325 26.0045 14.3817 26.7035C14.41 27.044 14.495 27.3755 14.5706 27.7071C14.7596 28.4508 15.0998 29.1408 15.5439 29.777C15.9124 30.3147 16.3754 30.7717 16.8573 31.2287C17.1218 31.4885 17.3864 31.7484 17.651 32.0083C17.9723 32.3129 18.2935 32.6176 18.6053 32.9312C18.6526 32.976 18.6998 33.0208 18.766 33.0477Z" fill="url(#paint3_linear_7_62)"/>
<path d="M0 58.6196C0 58.6196 15.5309 63.4015 34.3814 63.4015C53.232 63.4015 69 58.6196 69 58.6196V42.0661C69 42.0661 48.2839 48.5204 34.3814 48.5036C20.5691 48.4868 0 42.0661 0 42.0661V58.6196Z" fill="url(#paint4_linear_7_62)"/>
<path d="M32.1152 53.7036H34.0579V59.8296H32.1152V53.7036Z" fill="#E6FEFF"/>
<path d="M35.88 53.7036H37.8227V59.8296H35.88V53.7036Z" fill="#E6FEFF"/>
<path d="M35.4425 7.34328C35.177 7.77844 34.513 7.77844 34.2474 7.34328L30.3633 0.979094C30.0977 0.543937 30.4297 -1.00269e-05 30.9609 -9.98302e-06L38.7291 -9.34057e-06C39.2603 -9.29664e-06 39.5922 0.543938 39.3267 0.979096L35.4425 7.34328Z" fill="url(#paint5_linear_7_62)"/>
</g>
<defs>
<linearGradient id="paint0_linear_7_62" x1="17.3983" y1="13.1451" x2="60.0171" y2="68.344" gradientUnits="userSpaceOnUse">
<stop offset="0.207595" stop-color="#A1BABC"/>
<stop offset="0.961067" stop-color="#90A4A5"/>
</linearGradient>
<linearGradient id="paint1_linear_7_62" x1="18.5052" y1="15.049" x2="41.5379" y2="39.5313" gradientUnits="userSpaceOnUse">
<stop stop-color="#9DB8C6"/>
<stop offset="1" stop-color="#70828B"/>
<stop offset="1" stop-color="#545E60"/>
</linearGradient>
<linearGradient id="paint2_linear_7_62" x1="41.6455" y1="17.5813" x2="41.6455" y2="46.5215" gradientUnits="userSpaceOnUse">
<stop stop-color="#E6FEFF"/>
<stop offset="1" stop-color="#6A8B9C"/>
</linearGradient>
<linearGradient id="paint3_linear_7_62" x1="22.8883" y1="17.5813" x2="22.8883" y2="41.8741" gradientUnits="userSpaceOnUse">
<stop stop-color="#E6FEFF"/>
<stop offset="1" stop-color="#6A8B9C"/>
</linearGradient>
<linearGradient id="paint4_linear_7_62" x1="43.298" y1="46.7134" x2="43.298" y2="63.4015" gradientUnits="userSpaceOnUse">
<stop stop-color="#6A8B9C"/>
<stop offset="1" stop-color="#4C6D72"/>
</linearGradient>
<linearGradient id="paint5_linear_7_62" x1="34.845" y1="8.32238" x2="34.845" y2="-2.77414" gradientUnits="userSpaceOnUse">
<stop stop-color="#52737A"/>
<stop offset="1" stop-color="#E0F8FA"/>
</linearGradient>
<clipPath id="clip0_7_62">
<rect width="69" height="73" fill="white"/>
</clipPath>
</defs>
</svg>
