<svg width="69" height="73" viewBox="0 0 69 73" fill="none" xmlns="http://www.w3.org/2000/svg">
<g filter="url(#filter0_d_637_2971)">
<path d="M40.9656 19.0402C40.9763 19.342 35.3558 25.7854 30.5767 31.6893C27.8417 31.1379 23.9778 30.6499 25.5136 28.9572C28.2284 25.9648 31.7038 23.0788 34.2718 19.7286L41.4092 11.7908C41.3271 12.8682 40.9451 18.4634 40.9656 19.0402Z" fill="url(#paint0_linear_637_2971)"/>
<path d="M26.6325 19.0402C26.6218 19.342 32.2424 25.7854 37.0214 31.6893C39.7564 31.1379 43.6203 30.6499 42.0846 28.9572C39.3697 25.9648 35.8944 23.0788 33.3263 19.7286L26.189 11.7908C26.271 12.8682 26.653 18.4634 26.6325 19.0402Z" fill="url(#paint1_linear_637_2971)"/>
<g filter="url(#filter1_d_637_2971)">
<path d="M55.121 53.025V33.0187L61.9869 23.981L52.8068 27.1337L37.7703 19.0695L33.8003 10.95L30.8555 19.0695L15.1546 27.1337L11.3683 25.5574L7.58203 23.981L13.0515 33.0187V52.9865C13.0515 55.6776 14.8211 58.049 17.4024 58.8169L27.7535 61.8963C28.951 62.2526 30.0098 62.9684 30.7863 63.9466L34.4314 68.5388L37.8717 64.0076C38.6436 62.9908 39.7161 62.2423 40.9373 61.8682L50.8176 58.841C53.3751 58.0574 55.121 55.6977 55.121 53.025Z" fill="url(#paint2_linear_637_2971)"/>
</g>
<g filter="url(#filter2_i_637_2971)">
<path d="M31.0187 21.1839L17.1996 30.0967C15.4624 31.2171 14.4131 33.1418 14.4131 35.2077V52.119C14.4131 54.8514 16.2364 57.2486 18.8711 57.9802L32.7143 61.8244C33.7959 62.1247 34.9394 62.1204 36.0187 61.812L49.3455 58.0037C51.9585 57.257 53.7597 54.8704 53.7597 52.1549V35.1561C53.7597 33.1185 52.7387 31.2162 51.0401 30.0888L37.6891 21.2277C35.6722 19.8891 33.0531 19.8719 31.0187 21.1839Z" fill="url(#paint3_linear_637_2971)"/>
</g>
<g filter="url(#filter3_d_637_2971)">
<path d="M29.3971 41.8783C29.3798 41.7214 29.3971 41.5529 29.3913 41.3786C29.3913 41.2914 29.4087 41.1927 29.4376 41.0997C29.4607 41.0125 29.4607 40.9196 29.478 40.8382C29.5127 40.6814 29.5589 40.5303 29.5936 40.3734C29.6514 40.1177 29.7612 39.8795 29.8594 39.6355C29.9576 39.3856 30.0963 39.1532 30.235 38.9208C30.3679 38.6942 30.5297 38.4908 30.7031 38.2875C30.9458 38.0144 31.2058 37.7529 31.4543 37.4856C31.6277 37.2997 31.8068 37.1254 31.9802 36.9453C32.3153 36.6083 32.6563 36.2713 32.9799 35.9226C33.3266 35.5566 33.6791 35.2021 34.0316 34.8361C34.1877 34.6734 34.361 34.5223 34.5113 34.348C34.7597 34.0575 35.0429 33.8018 35.3087 33.5287C35.459 33.3777 35.6092 33.2266 35.7537 33.0697C36.1004 32.692 36.4818 32.3492 36.8285 31.9657C37.1175 31.6462 37.4353 31.3498 37.73 31.0361C37.9554 30.7979 38.1807 30.5654 38.4003 30.333C38.591 30.1355 38.7991 29.967 39.0071 29.7926C39.2151 29.6183 39.4405 29.4789 39.6716 29.3394C39.9201 29.1942 40.1917 29.078 40.4633 28.9792C40.5847 28.9385 40.7003 28.8804 40.8216 28.8572C40.9256 28.8397 41.0239 28.8049 41.1279 28.7933C41.2897 28.7758 41.4457 28.741 41.6075 28.7177C41.8502 28.6829 42.0987 28.6829 42.3414 28.6829C42.6535 28.6829 42.9597 28.7293 43.2602 28.7874C43.5954 28.8514 43.919 28.9443 44.2253 29.0838C44.5258 29.2174 44.8205 29.3801 45.0979 29.566C45.4157 29.7868 45.7104 30.0367 45.982 30.3156C46.2247 30.5596 46.4212 30.8385 46.6177 31.1174C46.8661 31.4835 47.0453 31.8902 47.1955 32.3086C47.3227 32.6688 47.4036 33.0349 47.4498 33.4125C47.4729 33.6275 47.5018 33.8425 47.496 34.0633C47.4902 34.2899 47.496 34.5165 47.4613 34.7431C47.4209 35.0046 47.3862 35.2719 47.3169 35.5275C47.2302 35.8413 47.1262 36.1492 46.9875 36.4398C46.7506 36.9627 46.4385 37.4275 46.0513 37.8517C45.7855 38.148 45.5024 38.4327 45.225 38.7116C44.9418 38.9905 44.6702 39.281 44.4044 39.5716C44.2888 39.6994 44.1733 39.8272 44.0404 39.9376C43.9652 40.0073 43.8959 40.0887 43.8265 40.1584C43.7745 40.2107 43.7225 40.2572 43.6705 40.3095C43.3816 40.6116 43.0869 40.9021 42.8037 41.2101C42.6477 41.3786 42.4917 41.5471 42.3356 41.7098C42.0698 41.9829 41.804 42.256 41.5324 42.5291C41.2608 42.8022 40.9834 43.0694 40.7234 43.3541C40.3651 43.7434 39.9895 44.1211 39.6254 44.5104C39.3943 44.7544 39.1458 44.9869 38.9089 45.2251C38.6719 45.4633 38.435 45.7015 38.1981 45.9398C38.0652 46.0734 37.9091 46.1838 37.7647 46.3C37.5624 46.4569 37.3486 46.5963 37.1232 46.7126C36.7707 46.8927 36.4009 47.0379 36.0195 47.1483C35.7884 47.2123 35.5456 47.2471 35.3087 47.2936C35.2452 47.3052 35.1758 47.3052 35.1122 47.311C34.8002 47.3343 34.4881 47.3052 34.1761 47.3052C34.0836 47.3052 33.9912 47.2762 33.8987 47.2645C33.7889 47.2471 33.6791 47.2181 33.5693 47.1948C33.3786 47.1541 33.1937 47.096 33.0088 47.0438C32.7892 46.9798 32.5812 46.8752 32.3731 46.7823C32.2344 46.7184 32.1131 46.6254 31.9802 46.5557C31.8704 46.4976 31.7721 46.4279 31.6739 46.3581C31.541 46.2535 31.4081 46.1489 31.281 46.0444C31.1018 45.8933 30.9342 45.7248 30.7782 45.5505C30.68 45.4343 30.576 45.3239 30.4835 45.2019C30.3217 44.9869 30.1888 44.7544 30.0617 44.522C29.9403 44.2954 29.8189 44.0688 29.738 43.8248C29.6514 43.5807 29.5936 43.3309 29.5185 43.0869C29.4896 42.9881 29.4896 42.8777 29.4664 42.7731C29.4029 42.4768 29.3855 42.1862 29.3971 41.8783ZM32.6505 45.7596C32.6678 45.7306 32.6621 45.7074 32.6621 45.6841C32.6621 45.4168 32.6621 45.1496 32.6621 44.8881C32.6621 43.511 32.6621 42.1398 32.6621 40.7627C32.6621 40.7162 32.6679 40.6872 32.7256 40.6872C33.1475 40.6872 33.5693 40.6872 33.9912 40.693C34.049 40.693 34.0721 40.6814 34.0663 40.6174C34.0663 40.0771 34.0663 39.5309 34.0663 38.9905C34.0663 38.6128 34.0663 38.241 34.0663 37.8633C34.0663 37.7703 34.0663 37.7703 34.1645 37.7645C34.2165 37.7645 34.2743 37.7703 34.3263 37.7529C34.3552 37.7471 34.3957 37.7645 34.4015 37.811C34.4015 37.8691 34.413 37.9214 34.413 37.9737C34.413 38.8511 34.413 39.7284 34.413 40.6116C34.413 40.6697 34.4304 40.6872 34.4881 40.6814C34.91 40.6814 35.3318 40.6814 35.7537 40.6755C35.8115 40.6755 35.8288 40.6872 35.8288 40.7453C35.8288 42.3199 35.8288 43.8945 35.8288 45.4633C35.8288 45.6551 35.8288 45.8526 35.8288 46.0444C35.8288 46.0908 35.8404 46.1083 35.8924 46.0908C35.9617 46.0676 36.0311 46.056 36.0946 46.0269C36.216 45.9746 36.3431 45.9282 36.4645 45.8642C36.6032 45.7887 36.7476 45.7248 36.8863 45.6434C37.0539 45.5447 37.2041 45.4343 37.3602 45.3123C37.4526 45.2425 37.5393 45.1728 37.4989 45.0333C37.4989 45.0275 37.4989 45.0217 37.4989 45.0101C37.4989 42.6918 37.5046 40.3676 37.5046 38.0492C37.5046 37.3229 37.5046 36.5966 37.5046 35.8703C37.5046 35.7774 37.5046 35.7774 37.5971 35.7774C38.0016 35.7774 38.4119 35.7774 38.8164 35.7774C38.8857 35.7774 38.9089 35.7541 38.9089 35.6844C38.9031 35.208 38.9089 34.7257 38.9089 34.2492C38.9089 33.8135 38.9089 33.3777 38.9089 32.9419C38.9089 32.8722 38.932 32.8547 38.9955 32.8547C39.0591 32.8605 39.1227 32.8605 39.1805 32.8547C39.2325 32.8489 39.244 32.8722 39.244 32.9186C39.244 33.8251 39.244 34.7315 39.244 35.6437C39.244 35.6728 39.2498 35.7018 39.2382 35.7251C39.2151 35.7774 39.244 35.7774 39.2787 35.7774C39.3827 35.7774 39.4925 35.7774 39.5965 35.7774C39.9201 35.7774 40.2437 35.7774 40.5616 35.7774C40.6194 35.7774 40.6425 35.7948 40.6425 35.8529C40.6367 35.9284 40.6367 36.0098 40.6367 36.0853C40.6367 38.0028 40.6367 39.9144 40.6367 41.8318C40.6367 41.8551 40.6367 41.8725 40.6425 41.8957C40.6598 41.9422 40.6714 41.948 40.706 41.9132C40.7754 41.8376 40.8447 41.7679 40.9141 41.6982C41.2839 41.3147 41.6595 40.9312 42.0294 40.5477C42.4859 40.0771 42.9424 39.6064 43.4047 39.1358C43.4394 39.1009 43.4509 39.0603 43.4509 39.0138C43.4509 38.3165 43.4509 37.6135 43.4509 36.9162C43.4509 36.8581 43.4336 36.8407 43.3758 36.8407C42.9713 36.8465 42.5668 36.8407 42.1623 36.8407C42.0525 36.8407 42.0467 36.8639 42.0467 36.7303C42.0467 34.6502 42.0467 32.5642 42.0467 30.4841C42.0467 30.4318 42.0236 30.3853 42.0294 30.333C42.0583 30.1645 42.0409 29.9902 42.0409 29.8217C42.0409 29.7055 42.0351 29.7055 41.9253 29.7113C41.908 29.7113 41.8849 29.7113 41.8676 29.7113C41.7462 29.7229 41.6249 29.7229 41.5035 29.7462C41.2377 29.7985 40.9719 29.8682 40.7118 29.967C40.4113 30.0774 40.1282 30.2226 39.8681 30.4027C39.5445 30.6235 39.2614 30.9024 38.984 31.1813C38.7471 31.4196 38.5217 31.6578 38.2848 31.896C38.1865 31.9948 38.0883 32.0878 37.9958 32.1865C37.7069 32.4887 37.4179 32.7966 37.129 33.1046C37.0597 33.1801 36.9903 33.2673 36.9152 33.337C36.7592 33.4881 36.6147 33.645 36.4587 33.796C36.0368 34.2144 35.615 34.6385 35.2163 35.0801C34.9793 35.3416 34.7309 35.5856 34.4824 35.8355C34.0663 36.2596 33.6387 36.678 33.2284 37.108C32.8123 37.5437 32.402 37.9795 31.9802 38.4095C31.6797 38.7174 31.3734 39.0196 31.1423 39.3914C30.9747 39.6529 30.8244 39.926 30.7089 40.2165C30.5586 40.5942 30.4662 40.9835 30.4257 41.3844C30.3795 41.8318 30.3853 42.2792 30.4777 42.7208C30.5413 43.0229 30.628 43.3193 30.7378 43.6098C30.7955 43.7667 30.8822 43.9119 30.9631 44.0572C31.3734 44.7893 31.9282 45.3529 32.6505 45.7596ZM45.1788 30.9315C45.173 30.9664 45.173 30.9838 45.173 31.0012C45.173 31.9309 45.173 32.8547 45.173 33.7844C45.173 34.778 45.173 35.7716 45.173 36.7709C45.173 36.8349 45.1614 36.8639 45.0863 36.8639C44.6702 36.8581 44.2599 36.8639 43.8439 36.8639C43.7803 36.8639 43.763 36.8872 43.763 36.9453C43.763 37.5147 43.763 38.0899 43.763 38.6593C43.763 38.6884 43.763 38.7174 43.763 38.7465C43.9132 38.6012 44.0577 38.4618 44.2022 38.3165C44.4391 38.0725 44.676 37.8284 44.9129 37.5844C45.2019 37.2881 45.4966 36.9976 45.7277 36.6489C46.1843 35.9633 46.427 35.2021 46.479 34.3829C46.5079 33.9122 46.4559 33.4474 46.3403 32.9884C46.2189 32.5061 46.0224 32.0587 45.7451 31.6462C45.589 31.3847 45.3926 31.1697 45.1788 30.9315Z" fill="url(#paint4_linear_637_2971)"/>
</g>
<g filter="url(#filter4_d_637_2971)">
<path d="M28.5659 44.3272C28.5025 44.3041 28.468 44.258 28.4392 44.2176C28.3355 44.0791 28.2087 43.9579 28.0935 43.8309C27.9552 43.6751 27.8112 43.5193 27.6614 43.3693C27.3734 43.075 27.0853 42.7807 26.7973 42.4864C26.6302 42.3132 26.4631 42.1459 26.296 41.9785C26.1578 41.84 26.031 41.69 25.8928 41.5573C25.8294 41.4938 25.7718 41.4188 25.6911 41.3668C25.622 41.3265 25.599 41.2399 25.5356 41.1822C25.3512 41.0148 25.1899 40.8302 25.0056 40.6628C24.8615 40.5301 24.7463 40.3627 24.6023 40.23C24.5101 40.1492 24.4295 40.0511 24.3315 39.9761C24.2854 39.9473 24.2682 39.8838 24.2278 39.8434C24.0377 39.6587 23.8476 39.4798 23.669 39.2836C23.427 39.0124 23.162 38.7643 22.9201 38.493C22.7415 38.2968 22.5456 38.1122 22.3612 37.9217C22.0905 37.639 21.8428 37.3331 21.6296 37.0042C21.5259 36.8426 21.4452 36.6695 21.3531 36.5022C21.2666 36.3463 21.2148 36.179 21.1457 36.0232C21.0535 35.827 21.0247 35.6192 20.9613 35.4173C20.921 35.2788 20.9037 35.1345 20.8749 34.996C20.8058 34.6094 20.823 34.2227 20.8115 33.8303C20.8115 33.7264 20.823 33.6226 20.8173 33.5187C20.8173 33.4379 20.8519 33.3514 20.8634 33.2648C20.8749 33.2129 20.8691 33.1551 20.8749 33.1032C20.8864 33.0167 20.9152 32.9359 20.9383 32.8493C21.0074 32.555 21.0996 32.2722 21.209 31.9895C21.2724 31.8221 21.3358 31.649 21.4337 31.499C21.5605 31.3028 21.6757 31.095 21.8139 30.9103C21.9522 30.7199 22.0905 30.5295 22.2575 30.3621C22.4016 30.2121 22.5514 30.0678 22.7127 29.9293C22.9719 29.6985 23.2542 29.4965 23.5595 29.3292C23.7439 29.2311 23.934 29.1387 24.1241 29.0522C24.2624 28.9887 24.4007 28.9368 24.5504 28.9021C24.6657 28.8733 24.7694 28.8214 24.8904 28.8098C25.0747 28.7925 25.2475 28.7463 25.4261 28.7175C25.6854 28.6829 25.9446 28.6829 26.2039 28.6829C26.3076 28.6829 26.4113 28.6829 26.5092 28.6886C26.6129 28.6944 26.7166 28.7117 26.8203 28.729C26.9643 28.7521 27.1084 28.8098 27.2581 28.8156C27.3906 28.8214 27.5001 28.8906 27.6211 28.9195C27.8515 28.9714 28.0589 29.081 28.2721 29.1734C28.5313 29.2888 28.7675 29.4331 28.998 29.5946C29.1651 29.71 29.3379 29.8255 29.4934 29.964C29.6029 30.0621 29.7066 30.1659 29.8045 30.2698C30.1271 30.5987 30.4498 30.9277 30.7724 31.2566C31.1238 31.6201 31.4752 31.9895 31.8324 32.3473C32.2703 32.7858 32.6908 33.2475 33.1344 33.6803C33.1517 33.6976 33.169 33.7149 33.1863 33.7322C33.2093 33.7553 33.2036 33.7784 33.1805 33.8015C33.0192 33.963 32.8637 34.1189 32.7023 34.2804C32.6505 34.3381 32.5871 34.3901 32.541 34.4478C32.5007 34.4939 32.4719 34.4709 32.4431 34.4478C32.3164 34.3208 32.1781 34.1996 32.0686 34.0554C31.9534 33.9111 31.8036 33.8072 31.6999 33.6572C31.6538 33.5937 31.5847 33.5476 31.5328 33.4899C31.3139 33.2648 31.1008 33.0282 30.8761 32.8147C30.6744 32.6185 30.4843 32.405 30.2827 32.203C30.1444 32.0645 29.9946 31.9375 29.8679 31.7875C29.6951 31.5798 29.4992 31.4009 29.3148 31.2047C29.1132 30.9911 28.9116 30.7776 28.6754 30.5987C28.5371 30.4949 28.3931 30.391 28.2375 30.3044C28.1108 30.2294 27.9783 30.1659 27.8515 30.0967C27.7306 30.0332 27.6038 29.9813 27.4713 29.9409C27.3618 29.9062 27.2466 29.8659 27.1314 29.837C26.9528 29.7908 26.7742 29.762 26.5956 29.7331C26.5034 29.7158 26.4113 29.7216 26.3191 29.7158C26.2615 29.71 26.25 29.7331 26.25 29.7851C26.25 29.964 26.25 30.1428 26.25 30.316C26.25 30.8757 26.25 31.4355 26.25 31.9952C26.25 33.3398 26.2557 34.6902 26.25 36.0347C26.25 36.2656 26.2615 36.4964 26.2557 36.733C26.2557 36.7791 26.25 36.808 26.1866 36.808C25.7718 36.808 25.357 36.808 24.9422 36.808C24.8731 36.808 24.8558 36.8311 24.8558 36.9176C24.8558 37.5351 24.8558 38.1468 24.8558 38.7643C24.8558 38.8393 24.8615 38.9143 24.85 38.9893C24.8443 39.0182 24.8558 39.0355 24.8731 39.0586C25.2648 39.4567 25.6566 39.8549 26.0483 40.2589C26.4746 40.6974 26.901 41.136 27.3273 41.5746C27.431 41.6785 27.5404 41.7766 27.6499 41.8804C27.6499 41.7073 27.6499 41.5284 27.6499 41.3495C27.6499 39.5087 27.6499 37.6736 27.6499 35.8327C27.6499 35.7693 27.6729 35.752 27.7306 35.752C28.1453 35.752 28.5601 35.752 28.9749 35.752C29.0441 35.752 29.0556 35.7289 29.0556 35.6654C29.0556 34.7594 29.0556 33.8592 29.0556 32.9532C29.0556 32.8493 29.0556 32.8493 29.1593 32.8493C29.2054 32.8493 29.2572 32.8551 29.3033 32.8493C29.3667 32.8435 29.3897 32.8666 29.3897 32.9359C29.3897 33.2648 29.3897 33.5937 29.3897 33.9227C29.3897 34.5113 29.3897 35.0941 29.3897 35.6827C29.3897 35.7462 29.4128 35.7693 29.4704 35.7462C29.5107 35.7289 29.551 35.752 29.5856 35.752C29.9601 35.752 30.3288 35.752 30.7033 35.752C30.7666 35.752 30.8012 35.7693 30.7839 35.8385C30.7609 35.9712 30.7724 36.104 30.7724 36.2309C30.7724 36.2656 30.7609 36.2886 30.7378 36.3117C30.6053 36.4387 30.4901 36.5714 30.3576 36.6984C30.2136 36.8426 30.0695 36.9869 29.9255 37.1369C29.7642 37.2985 29.6202 37.4716 29.4819 37.6505C29.384 37.7775 29.2918 37.9044 29.2054 38.0372C29.0556 38.2622 28.9116 38.493 28.7963 38.7412C28.6869 38.972 28.5832 39.2086 28.4968 39.451C28.4219 39.6645 28.3412 39.8722 28.2951 40.0915C28.2548 40.2877 28.203 40.4782 28.1742 40.6744C28.1569 40.8071 28.1453 40.9398 28.1281 41.0725C28.105 41.2514 28.0993 41.4246 28.0877 41.6034C28.0762 41.7708 28.0705 41.9381 28.0935 42.1055C28.105 42.1863 28.0993 42.2728 28.105 42.3536C28.1223 42.5152 28.1396 42.6768 28.1626 42.8326C28.203 43.1211 28.2779 43.4039 28.3527 43.6809C28.3931 43.8309 28.4392 43.9752 28.5025 44.1137C28.5198 44.1829 28.5544 44.2464 28.5659 44.3272ZM24.4928 38.6431C24.4928 38.6315 24.4986 38.6258 24.4986 38.62C24.4986 38.0545 24.4986 37.4889 24.4986 36.9234C24.4986 36.7791 24.4986 36.7849 24.3603 36.7907C23.9628 36.808 23.5711 36.7965 23.1736 36.7965C23.1217 36.7965 23.0987 36.7791 23.0987 36.7214C23.0987 34.8344 23.0987 32.9416 23.0987 31.0546C23.0987 31.02 23.1159 30.9681 23.0871 30.9565C23.0583 30.945 23.0411 30.9969 23.018 31.02C22.7588 31.2681 22.5571 31.5624 22.3785 31.8683C22.1366 32.2895 21.981 32.7397 21.8831 33.2129C21.7909 33.6572 21.7851 34.1073 21.8197 34.5574C21.837 34.7767 21.8888 34.9902 21.9349 35.2037C22.0502 35.6827 22.2575 36.1271 22.5283 36.5368C22.753 36.883 23.0353 37.1773 23.3291 37.4716C23.4904 37.639 23.6517 37.8063 23.813 37.9737C24.0089 38.1699 24.2048 38.3661 24.3949 38.5681C24.4237 38.5969 24.4525 38.6258 24.4928 38.6431Z" fill="url(#paint5_linear_637_2971)"/>
</g>
<g filter="url(#filter5_d_637_2971)">
<path d="M13.0513 55.1114C13.0513 55.1114 22.5205 58.1909 34.0138 58.1909C45.507 58.1909 55.1208 55.1114 55.1208 55.1114V44.4511C55.1208 44.4511 42.4901 48.6076 34.0138 48.5968C25.5923 48.586 13.0513 44.4511 13.0513 44.4511V55.1114Z" fill="url(#paint6_linear_637_2971)"/>
</g>
<path d="M33.6307 55.0356L31.8887 51.5046H32.6914L34.2455 54.6977H33.7844L35.3556 51.5046H36.0956L34.3593 55.0356H33.6307Z" fill="#6AC2C8"/>
<path fill-rule="evenodd" clip-rule="evenodd" d="M31.5625 51.3018H32.8184L34.0173 53.7649L35.2293 51.3018H36.4216L34.4859 55.2383H33.5046L31.5625 51.3018ZM33.7904 54.226L32.5645 51.7073H32.2151L33.6242 54.5636L33.7904 54.226ZM34.3858 54.522L34.2422 54.2269L35.4821 51.7073H35.7699L34.3858 54.522Z" fill="#6AC2C8"/>
<g filter="url(#filter6_d_637_2971)">
<path d="M34.9995 21.5034C34.6871 22.0441 33.9059 22.0441 33.5935 21.5034L31.9027 18.5772C31.5902 18.0364 31.9808 17.3605 32.6057 17.3605L35.9873 17.3605C36.6122 17.3605 37.0028 18.0364 36.6903 18.5772L34.9995 21.5034Z" fill="url(#paint7_linear_637_2971)"/>
</g>
<g filter="url(#filter7_d_637_2971)">
<path d="M34.9995 65.2204C34.6871 65.7612 33.9059 65.7612 33.5935 65.2204L31.9027 62.2942C31.5902 61.7535 31.9808 61.0775 32.6057 61.0775L35.9873 61.0775C36.6122 61.0775 37.0028 61.7535 36.6903 62.2942L34.9995 65.2204Z" fill="url(#paint8_linear_637_2971)"/>
</g>
<g filter="url(#filter8_d_637_2971)">
<path d="M55.9187 30.5469C56.2791 31.057 55.9517 31.7656 55.3294 31.8224L51.9618 32.1298C51.3395 32.1866 50.889 31.549 51.1509 30.9821L52.5683 27.9143C52.8302 27.3474 53.6081 27.2764 53.9685 27.7865L55.9187 30.5469Z" fill="url(#paint9_linear_637_2971)"/>
</g>
<g filter="url(#filter9_d_637_2971)">
<path d="M17.8425 30.5469C18.2029 31.057 17.8755 31.7656 17.2532 31.8224L13.8856 32.1298C13.2633 32.1866 12.8128 31.549 13.0747 30.9821L14.4921 27.9143C14.754 27.3474 15.5319 27.2764 15.8923 27.7865L17.8425 30.5469Z" fill="url(#paint10_linear_637_2971)"/>
</g>
</g>
<defs>
<filter id="filter0_d_637_2971" x="-3.01797" y="0.349951" width="75.6048" height="78.7889" filterUnits="userSpaceOnUse" color-interpolation-filters="sRGB">
<feFlood flood-opacity="0" result="BackgroundImageFix"/>
<feColorMatrix in="SourceAlpha" type="matrix" values="0 0 0 0 0 0 0 0 0 0 0 0 0 0 0 0 0 0 127 0" result="hardAlpha"/>
<feOffset/>
<feGaussianBlur stdDeviation="5.3"/>
<feComposite in2="hardAlpha" operator="out"/>
<feColorMatrix type="matrix" values="0 0 0 0 0.317647 0 0 0 0 0.54902 0 0 0 0 1 0 0 0 0.25 0"/>
<feBlend mode="normal" in2="BackgroundImageFix" result="effect1_dropShadow_637_2971"/>
<feBlend mode="normal" in="SourceGraphic" in2="effect1_dropShadow_637_2971" result="shape"/>
</filter>
<filter id="filter1_d_637_2971" x="2.48203" y="1.84995" width="64.6048" height="67.7889" filterUnits="userSpaceOnUse" color-interpolation-filters="sRGB">
<feFlood flood-opacity="0" result="BackgroundImageFix"/>
<feColorMatrix in="SourceAlpha" type="matrix" values="0 0 0 0 0 0 0 0 0 0 0 0 0 0 0 0 0 0 127 0" result="hardAlpha"/>
<feOffset dy="-4"/>
<feGaussianBlur stdDeviation="2.55"/>
<feComposite in2="hardAlpha" operator="out"/>
<feColorMatrix type="matrix" values="0 0 0 0 0 0 0 0 0 0 0 0 0 0 0 0 0 0 0.25 0"/>
<feBlend mode="normal" in2="BackgroundImageFix" result="effect1_dropShadow_637_2971"/>
<feBlend mode="normal" in="SourceGraphic" in2="effect1_dropShadow_637_2971" result="shape"/>
</filter>
<filter id="filter2_i_637_2971" x="14.4131" y="20.2117" width="41.3467" height="42.835" filterUnits="userSpaceOnUse" color-interpolation-filters="sRGB">
<feFlood flood-opacity="0" result="BackgroundImageFix"/>
<feBlend mode="normal" in="SourceGraphic" in2="BackgroundImageFix" result="shape"/>
<feColorMatrix in="SourceAlpha" type="matrix" values="0 0 0 0 0 0 0 0 0 0 0 0 0 0 0 0 0 0 127 0" result="hardAlpha"/>
<feOffset dx="2" dy="1"/>
<feGaussianBlur stdDeviation="1"/>
<feComposite in2="hardAlpha" operator="arithmetic" k2="-1" k3="1"/>
<feColorMatrix type="matrix" values="0 0 0 0 0 0 0 0 0 0 0 0 0 0 0 0 0 0 0.25 0"/>
<feBlend mode="normal" in2="shape" result="effect1_innerShadow_637_2971"/>
</filter>
<filter id="filter3_d_637_2971" x="28.7892" y="28.6829" width="21.3074" height="22.2372" filterUnits="userSpaceOnUse" color-interpolation-filters="sRGB">
<feFlood flood-opacity="0" result="BackgroundImageFix"/>
<feColorMatrix in="SourceAlpha" type="matrix" values="0 0 0 0 0 0 0 0 0 0 0 0 0 0 0 0 0 0 127 0" result="hardAlpha"/>
<feOffset dx="1" dy="2"/>
<feGaussianBlur stdDeviation="0.8"/>
<feComposite in2="hardAlpha" operator="out"/>
<feColorMatrix type="matrix" values="0 0 0 0 0 0 0 0 0 0 0 0 0 0 0 0 0 0 0.25 0"/>
<feBlend mode="normal" in2="BackgroundImageFix" result="effect1_dropShadow_637_2971"/>
<feBlend mode="normal" in="SourceGraphic" in2="effect1_dropShadow_637_2971" result="shape"/>
</filter>
<filter id="filter4_d_637_2971" x="20.2115" y="28.6829" width="15.5896" height="19.2443" filterUnits="userSpaceOnUse" color-interpolation-filters="sRGB">
<feFlood flood-opacity="0" result="BackgroundImageFix"/>
<feColorMatrix in="SourceAlpha" type="matrix" values="0 0 0 0 0 0 0 0 0 0 0 0 0 0 0 0 0 0 127 0" result="hardAlpha"/>
<feOffset dx="1" dy="2"/>
<feGaussianBlur stdDeviation="0.8"/>
<feComposite in2="hardAlpha" operator="out"/>
<feColorMatrix type="matrix" values="0 0 0 0 0 0 0 0 0 0 0 0 0 0 0 0 0 0 0.25 0"/>
<feBlend mode="normal" in2="BackgroundImageFix" result="effect1_dropShadow_637_2971"/>
<feBlend mode="normal" in="SourceGraphic" in2="effect1_dropShadow_637_2971" result="shape"/>
</filter>
<filter id="filter5_d_637_2971" x="13.0513" y="44.1512" width="45.3693" height="16.3397" filterUnits="userSpaceOnUse" color-interpolation-filters="sRGB">
<feFlood flood-opacity="0" result="BackgroundImageFix"/>
<feColorMatrix in="SourceAlpha" type="matrix" values="0 0 0 0 0 0 0 0 0 0 0 0 0 0 0 0 0 0 127 0" result="hardAlpha"/>
<feOffset dx="2" dy="1"/>
<feGaussianBlur stdDeviation="0.65"/>
<feComposite in2="hardAlpha" operator="out"/>
<feColorMatrix type="matrix" values="0 0 0 0 0 0 0 0 0 0 0 0 0 0 0 0 0 0 0.25 0"/>
<feBlend mode="normal" in2="BackgroundImageFix" result="effect1_dropShadow_637_2971"/>
<feBlend mode="normal" in="SourceGraphic" in2="effect1_dropShadow_637_2971" result="shape"/>
</filter>
<filter id="filter6_d_637_2971" x="25.4925" y="11.0606" width="17.6078" height="17.1483" filterUnits="userSpaceOnUse" color-interpolation-filters="sRGB">
<feFlood flood-opacity="0" result="BackgroundImageFix"/>
<feColorMatrix in="SourceAlpha" type="matrix" values="0 0 0 0 0 0 0 0 0 0 0 0 0 0 0 0 0 0 127 0" result="hardAlpha"/>
<feOffset/>
<feGaussianBlur stdDeviation="3.15"/>
<feComposite in2="hardAlpha" operator="out"/>
<feColorMatrix type="matrix" values="0 0 0 0 1 0 0 0 0 1 0 0 0 0 1 0 0 0 0.25 0"/>
<feBlend mode="normal" in2="BackgroundImageFix" result="effect1_dropShadow_637_2971"/>
<feBlend mode="normal" in="SourceGraphic" in2="effect1_dropShadow_637_2971" result="shape"/>
</filter>
<filter id="filter7_d_637_2971" x="25.4925" y="54.7776" width="17.6078" height="17.1483" filterUnits="userSpaceOnUse" color-interpolation-filters="sRGB">
<feFlood flood-opacity="0" result="BackgroundImageFix"/>
<feColorMatrix in="SourceAlpha" type="matrix" values="0 0 0 0 0 0 0 0 0 0 0 0 0 0 0 0 0 0 127 0" result="hardAlpha"/>
<feOffset/>
<feGaussianBlur stdDeviation="3.15"/>
<feComposite in2="hardAlpha" operator="out"/>
<feColorMatrix type="matrix" values="0 0 0 0 1 0 0 0 0 1 0 0 0 0 1 0 0 0 0.25 0"/>
<feBlend mode="normal" in2="BackgroundImageFix" result="effect1_dropShadow_637_2971"/>
<feBlend mode="normal" in="SourceGraphic" in2="effect1_dropShadow_637_2971" result="shape"/>
</filter>
<filter id="filter8_d_637_2971" x="44.7747" y="21.1431" width="17.5937" height="17.2902" filterUnits="userSpaceOnUse" color-interpolation-filters="sRGB">
<feFlood flood-opacity="0" result="BackgroundImageFix"/>
<feColorMatrix in="SourceAlpha" type="matrix" values="0 0 0 0 0 0 0 0 0 0 0 0 0 0 0 0 0 0 127 0" result="hardAlpha"/>
<feOffset/>
<feGaussianBlur stdDeviation="3.15"/>
<feComposite in2="hardAlpha" operator="out"/>
<feColorMatrix type="matrix" values="0 0 0 0 1 0 0 0 0 1 0 0 0 0 1 0 0 0 0.25 0"/>
<feBlend mode="normal" in2="BackgroundImageFix" result="effect1_dropShadow_637_2971"/>
<feBlend mode="normal" in="SourceGraphic" in2="effect1_dropShadow_637_2971" result="shape"/>
</filter>
<filter id="filter9_d_637_2971" x="6.69853" y="21.1431" width="17.5937" height="17.2902" filterUnits="userSpaceOnUse" color-interpolation-filters="sRGB">
<feFlood flood-opacity="0" result="BackgroundImageFix"/>
<feColorMatrix in="SourceAlpha" type="matrix" values="0 0 0 0 0 0 0 0 0 0 0 0 0 0 0 0 0 0 127 0" result="hardAlpha"/>
<feOffset/>
<feGaussianBlur stdDeviation="3.15"/>
<feComposite in2="hardAlpha" operator="out"/>
<feColorMatrix type="matrix" values="0 0 0 0 1 0 0 0 0 1 0 0 0 0 1 0 0 0 0.25 0"/>
<feBlend mode="normal" in2="BackgroundImageFix" result="effect1_dropShadow_637_2971"/>
<feBlend mode="normal" in="SourceGraphic" in2="effect1_dropShadow_637_2971" result="shape"/>
</filter>
<linearGradient id="paint0_linear_637_2971" x1="40.5304" y1="11.7904" x2="37.1698" y2="22.7212" gradientUnits="userSpaceOnUse">
<stop stop-color="#0E9CCB"/>
<stop offset="1" stop-color="#033A4E"/>
</linearGradient>
<linearGradient id="paint1_linear_637_2971" x1="36.304" y1="15.9334" x2="30.881" y2="29.1745" gradientUnits="userSpaceOnUse">
<stop stop-color="#0D91BC"/>
<stop offset="1" stop-color="#074254"/>
</linearGradient>
<linearGradient id="paint2_linear_637_2971" x1="23.0739" y1="17.2552" x2="47.714" y2="19.6435" gradientUnits="userSpaceOnUse">
<stop stop-color="#6ED4E0"/>
<stop offset="1" stop-color="#074254"/>
</linearGradient>
<linearGradient id="paint3_linear_637_2971" x1="23.7868" y1="19.0236" x2="47.3561" y2="20.3013" gradientUnits="userSpaceOnUse">
<stop stop-color="#6ACEDB"/>
<stop offset="1" stop-color="#0D5C74"/>
</linearGradient>
<linearGradient id="paint4_linear_637_2971" x1="33.703" y1="28.6829" x2="44.5453" y2="29.3107" gradientUnits="userSpaceOnUse">
<stop stop-color="#B3E2EC"/>
<stop offset="1" stop-color="#1B6889"/>
</linearGradient>
<linearGradient id="paint5_linear_637_2971" x1="23.7631" y1="28.6829" x2="29.5001" y2="16.7717" gradientUnits="userSpaceOnUse">
<stop stop-color="#C3EFF6"/>
<stop offset="0.9999" stop-color="#1C6A8B"/>
<stop offset="1" stop-color="#1A6889"/>
<stop offset="1" stop-color="#216F91"/>
<stop offset="1" stop-color="#0A8593"/>
</linearGradient>
<linearGradient id="paint6_linear_637_2971" x1="34.22" y1="59.0813" x2="34.6294" y2="49.1483" gradientUnits="userSpaceOnUse">
<stop stop-color="#3386A0"/>
<stop offset="0.994792" stop-color="#6DC0CF"/>
</linearGradient>
<linearGradient id="paint7_linear_637_2971" x1="36.1686" y1="22.72" x2="31.8872" y2="22.4647" gradientUnits="userSpaceOnUse">
<stop offset="0.0001" stop-color="#277187"/>
<stop offset="1" stop-color="#B1E0E9"/>
</linearGradient>
<linearGradient id="paint8_linear_637_2971" x1="36.1686" y1="66.4371" x2="31.8872" y2="66.1817" gradientUnits="userSpaceOnUse">
<stop offset="0.0001" stop-color="#277187"/>
<stop offset="1" stop-color="#B1E0E9"/>
</linearGradient>
<linearGradient id="paint9_linear_637_2971" x1="55.7128" y1="24.8325" x2="57.9034" y2="29.6124" gradientUnits="userSpaceOnUse">
<stop stop-color="#AADAE4"/>
<stop offset="1" stop-color="#30798D"/>
</linearGradient>
<linearGradient id="paint10_linear_637_2971" x1="17.6366" y1="24.8325" x2="19.8272" y2="29.6124" gradientUnits="userSpaceOnUse">
<stop stop-color="#AADAE4"/>
<stop offset="1" stop-color="#30798D"/>
</linearGradient>
</defs>
</svg>
