<svg width="63" height="62" viewBox="0 0 63 62" fill="none" xmlns="http://www.w3.org/2000/svg">
<path d="M37.5277 9.04021C37.5383 9.34197 31.9992 15.7854 27.2894 21.6893C24.594 21.1379 20.7861 20.6499 22.2996 18.9572C24.9751 15.9648 28.4001 13.0788 30.9309 9.72863L37.9648 1.79077C37.884 2.86816 37.5075 8.46342 37.5277 9.04021Z" fill="url(#paint0_linear_637_2950)"/>
<path d="M23.4025 9.04021C23.3919 9.34197 28.931 15.7854 33.6408 21.6893C36.3362 21.1379 40.1441 20.6499 38.6306 18.9572C35.9551 15.9648 32.5301 13.0788 29.9992 9.72863L22.9653 1.79077C23.0462 2.86816 23.4227 8.46342 23.4025 9.04021Z" fill="url(#paint1_linear_637_2950)"/>
<path d="M60.9384 16.5028C60.5238 16.9352 53.2117 26.5918 47.8705 31.9949C45.891 29.8344 43.0146 27.1712 44.675 25.7081C47.6101 23.1218 51.1085 21.0736 54.0273 17.9327L61.7632 11.0386C61.2964 12.5098 61.14 16.2926 60.9384 16.5028Z" fill="url(#paint2_linear_637_2950)"/>
<path d="M2.27269 16.0824C2.68729 16.5148 9.35326 26.1714 14.6945 31.5745C16.674 29.414 19.5503 26.7508 17.89 25.2877C14.9548 22.7014 11.4565 20.6531 8.5376 17.5123L0.801758 10.6182C1.26859 12.0894 2.07117 15.8722 2.27269 16.0824Z" fill="url(#paint3_linear_637_2950)"/>
<path d="M51.478 43.025V23.0187L58.2443 13.981L53.683 15.4523L49.1973 17.1337L34.3787 9.06948L30.4662 0.949951L27.5641 9.06948L12.0907 17.1337L8.90631 15.8726L4.62793 13.981L10.0181 23.0187V42.9865C10.0181 45.6776 11.7621 48.049 14.306 48.8169L24.1168 51.7785C25.5012 52.1964 26.6047 53.2608 27.0854 54.6417C27.3968 55.5362 27.9746 56.3105 28.739 56.8576L31.0881 58.5388L33.265 56.8703C33.9918 56.3133 34.5432 55.554 34.8521 54.685C35.3536 53.2741 36.4811 52.1849 37.8953 51.7452L47.2369 48.841C49.7573 48.0574 51.478 45.6977 51.478 43.025Z" fill="url(#paint4_linear_637_2950)"/>
<g filter="url(#filter0_i_637_2950)">
<path d="M27.7248 11.1839L14.106 20.0967C12.394 21.2171 11.3599 23.1418 11.3599 25.2077V42.119C11.3599 44.8514 13.1567 47.2486 15.7533 47.9802L29.3959 51.8244C30.4617 52.1247 31.5887 52.1204 32.6523 51.812L45.7861 48.0037C48.3611 47.257 50.1362 44.8704 50.1362 42.1549V25.1561C50.1362 23.1185 49.1301 21.2162 47.456 20.0888L34.2985 11.2277C32.3108 9.88906 29.7297 9.87187 27.7248 11.1839Z" fill="url(#paint5_linear_637_2950)"/>
</g>
<g filter="url(#filter1_d_637_2950)">
<path d="M26.127 31.8783C26.1099 31.7214 26.127 31.5529 26.1213 31.3786C26.1213 31.2914 26.1384 31.1927 26.1668 31.0997C26.1896 31.0125 26.1896 30.9196 26.2067 30.8382C26.2409 30.6814 26.2864 30.5303 26.3206 30.3734C26.3775 30.1177 26.4857 29.8795 26.5826 29.6355C26.6794 29.3856 26.8161 29.1532 26.9527 28.9208C27.0837 28.6942 27.2432 28.4908 27.414 28.2875C27.6532 28.0144 27.9095 27.7529 28.1544 27.4856C28.3252 27.2997 28.5018 27.1254 28.6726 26.9453C29.0029 26.6083 29.3389 26.2713 29.6578 25.9226C29.9995 25.5566 30.3469 25.2021 30.6943 24.8361C30.8481 24.6734 31.0189 24.5223 31.167 24.348C31.4119 24.0575 31.6909 23.8018 31.9529 23.5287C32.101 23.3777 32.249 23.2266 32.3914 23.0697C32.7331 22.692 33.109 22.3492 33.4507 21.9657C33.7354 21.6462 34.0487 21.3498 34.3391 21.0361C34.5612 20.7979 34.7833 20.5654 34.9997 20.333C35.1876 20.1355 35.3927 19.967 35.5977 19.7926C35.8027 19.6183 36.0248 19.4789 36.2526 19.3394C36.4975 19.1942 36.7652 19.078 37.0328 18.9792C37.1524 18.9385 37.2663 18.8804 37.3859 18.8572C37.4884 18.8397 37.5852 18.8049 37.6877 18.7933C37.8472 18.7758 38.001 18.741 38.1604 18.7177C38.3996 18.6829 38.6445 18.6829 38.8837 18.6829C39.1912 18.6829 39.493 18.7293 39.7892 18.7874C40.1195 18.8514 40.4384 18.9443 40.7402 19.0838C41.0364 19.2174 41.3268 19.3801 41.6002 19.566C41.9134 19.7868 42.2038 20.0367 42.4715 20.3156C42.7107 20.5596 42.9043 20.8385 43.0979 21.1174C43.3428 21.4835 43.5194 21.8902 43.6674 22.3086C43.7927 22.6688 43.8725 23.0349 43.918 23.4125C43.9408 23.6275 43.9693 23.8425 43.9636 24.0633C43.9579 24.2899 43.9636 24.5165 43.9294 24.7431C43.8895 25.0046 43.8554 25.2719 43.787 25.5275C43.7016 25.8413 43.5991 26.1492 43.4624 26.4398C43.2289 26.9627 42.9214 27.4275 42.5398 27.8517C42.2779 28.148 41.9988 28.4327 41.7255 28.7116C41.4464 28.9905 41.1787 29.281 40.9168 29.5716C40.8029 29.6994 40.689 29.8272 40.558 29.9376C40.484 30.0073 40.4156 30.0887 40.3473 30.1584C40.296 30.2107 40.2448 30.2572 40.1935 30.3095C39.9088 30.6116 39.6183 30.9021 39.3393 31.2101C39.1855 31.3786 39.0317 31.5471 38.878 31.7098C38.616 31.9829 38.354 32.256 38.0864 32.5291C37.8187 32.8022 37.5454 33.0694 37.2891 33.3541C36.936 33.7434 36.5658 34.1211 36.207 34.5104C35.9792 34.7544 35.7344 34.9869 35.5009 35.2251C35.2674 35.4633 35.0339 35.7015 34.8004 35.9398C34.6694 36.0734 34.5156 36.1838 34.3733 36.3C34.1739 36.4569 33.9632 36.5963 33.7411 36.7126C33.3937 36.8927 33.0293 37.0379 32.6534 37.1483C32.4256 37.2123 32.1864 37.2471 31.9529 37.2936C31.8903 37.3052 31.8219 37.3052 31.7593 37.311C31.4518 37.3343 31.1442 37.3052 30.8367 37.3052C30.7456 37.3052 30.6545 37.2762 30.5633 37.2645C30.4551 37.2471 30.3469 37.2181 30.2387 37.1948C30.0508 37.1541 29.8686 37.096 29.6863 37.0438C29.4699 36.9798 29.2649 36.8752 29.0599 36.7823C28.9232 36.7184 28.8036 36.6254 28.6726 36.5557C28.5644 36.4976 28.4676 36.4279 28.3708 36.3581C28.2398 36.2535 28.1088 36.1489 27.9835 36.0444C27.807 35.8933 27.6418 35.7248 27.4881 35.5505C27.3912 35.4343 27.2887 35.3239 27.1976 35.2019C27.0382 34.9869 26.9072 34.7544 26.7819 34.522C26.6623 34.2954 26.5427 34.0688 26.463 33.8248C26.3775 33.5807 26.3206 33.3309 26.2466 33.0869C26.2181 32.9881 26.2181 32.8777 26.1953 32.7731C26.1327 32.4768 26.1156 32.1862 26.127 31.8783ZM29.3332 35.7596C29.3503 35.7306 29.3446 35.7074 29.3446 35.6841C29.3446 35.4168 29.3446 35.1496 29.3446 34.8881C29.3446 33.511 29.3446 32.1398 29.3446 30.7627C29.3446 30.7162 29.3503 30.6872 29.4073 30.6872C29.823 30.6872 30.2387 30.6872 30.6545 30.693C30.7114 30.693 30.7342 30.6814 30.7285 30.6174C30.7285 30.0771 30.7285 29.5309 30.7285 28.9905C30.7285 28.6128 30.7285 28.241 30.7285 27.8633C30.7285 27.7703 30.7285 27.7703 30.8253 27.7645C30.8766 27.7645 30.9335 27.7703 30.9848 27.7529C31.0132 27.7471 31.0531 27.7645 31.0588 27.811C31.0588 27.8691 31.0702 27.9214 31.0702 27.9737C31.0702 28.8511 31.0702 29.7284 31.0702 30.6116C31.0702 30.6697 31.0873 30.6872 31.1442 30.6814C31.56 30.6814 31.9757 30.6814 32.3914 30.6755C32.4484 30.6755 32.4655 30.6872 32.4655 30.7453C32.4655 32.3199 32.4655 33.8945 32.4655 35.4633C32.4655 35.6551 32.4655 35.8526 32.4655 36.0444C32.4655 36.0908 32.4768 36.1083 32.5281 36.0908C32.5964 36.0676 32.6648 36.056 32.7274 36.0269C32.847 35.9746 32.9723 35.9282 33.0919 35.8642C33.2286 35.7887 33.371 35.7248 33.5076 35.6434C33.6728 35.5447 33.8209 35.4343 33.9746 35.3123C34.0657 35.2425 34.1512 35.1728 34.1113 35.0333C34.1113 35.0275 34.1113 35.0217 34.1113 35.0101C34.1113 32.6918 34.117 30.3676 34.117 28.0492C34.117 27.3229 34.117 26.5966 34.117 25.8703C34.117 25.7774 34.117 25.7774 34.2081 25.7774C34.6068 25.7774 35.0111 25.7774 35.4098 25.7774C35.4781 25.7774 35.5009 25.7541 35.5009 25.6844C35.4952 25.208 35.5009 24.7257 35.5009 24.2492C35.5009 23.8135 35.5009 23.3777 35.5009 22.9419C35.5009 22.8722 35.5237 22.8547 35.5863 22.8547C35.6489 22.8605 35.7116 22.8605 35.7685 22.8547C35.8198 22.8489 35.8312 22.8722 35.8312 22.9186C35.8312 23.8251 35.8312 24.7315 35.8312 25.6437C35.8312 25.6728 35.8369 25.7018 35.8255 25.7251C35.8027 25.7774 35.8312 25.7774 35.8653 25.7774C35.9679 25.7774 36.0761 25.7774 36.1786 25.7774C36.4975 25.7774 36.8164 25.7774 37.1296 25.7774C37.1866 25.7774 37.2094 25.7948 37.2094 25.8529C37.2037 25.9284 37.2037 26.0098 37.2037 26.0853C37.2037 28.0028 37.2037 29.9144 37.2037 31.8318C37.2037 31.8551 37.2037 31.8725 37.2094 31.8957C37.2264 31.9422 37.2378 31.948 37.272 31.9132C37.3403 31.8376 37.4087 31.7679 37.477 31.6982C37.8415 31.3147 38.2117 30.9312 38.5761 30.5477C39.0261 30.0771 39.476 29.6064 39.9315 29.1358C39.9657 29.1009 39.9771 29.0603 39.9771 29.0138C39.9771 28.3165 39.9771 27.6135 39.9771 26.9162C39.9771 26.8581 39.96 26.8407 39.9031 26.8407C39.5044 26.8465 39.1058 26.8407 38.7071 26.8407C38.5989 26.8407 38.5932 26.8639 38.5932 26.7303C38.5932 24.6502 38.5932 22.5642 38.5932 20.4841C38.5932 20.4318 38.5705 20.3853 38.5761 20.333C38.6046 20.1645 38.5875 19.9902 38.5875 19.8217C38.5875 19.7055 38.5818 19.7055 38.4736 19.7113C38.4566 19.7113 38.4338 19.7113 38.4167 19.7113C38.2971 19.7229 38.1775 19.7229 38.0579 19.7462C37.7959 19.7985 37.534 19.8682 37.2777 19.967C36.9816 20.0774 36.7025 20.2226 36.4462 20.4027C36.1273 20.6235 35.8483 20.9024 35.5749 21.1813C35.3414 21.4196 35.1193 21.6578 34.8858 21.896C34.789 21.9948 34.6922 22.0878 34.6011 22.1865C34.3163 22.4887 34.0316 22.7966 33.7468 23.1046C33.6785 23.1801 33.6101 23.2673 33.5361 23.337C33.3823 23.4881 33.24 23.645 33.0862 23.796C32.6705 24.2144 32.2547 24.6385 31.8618 25.0801C31.6283 25.3416 31.3834 25.5856 31.1385 25.8355C30.7285 26.2596 30.3071 26.678 29.9027 27.108C29.4927 27.5437 29.0883 27.9795 28.6726 28.4095C28.3765 28.7174 28.0746 29.0196 27.8468 29.3914C27.6817 29.6529 27.5336 29.926 27.4197 30.2165C27.2717 30.5942 27.1805 30.9835 27.1407 31.3844C27.0951 31.8318 27.1008 32.2792 27.1919 32.7208C27.2546 33.0229 27.34 33.3193 27.4482 33.6098C27.5051 33.7667 27.5906 33.9119 27.6703 34.0572C28.0746 34.7893 28.6214 35.3529 29.3332 35.7596ZM41.6799 20.9315C41.6742 20.9664 41.6742 20.9838 41.6742 21.0012C41.6742 21.9309 41.6742 22.8547 41.6742 23.7844C41.6742 24.778 41.6742 25.7716 41.6742 26.7709C41.6742 26.8349 41.6628 26.8639 41.5888 26.8639C41.1787 26.8581 40.7744 26.8639 40.3644 26.8639C40.3017 26.8639 40.2846 26.8872 40.2846 26.9453C40.2846 27.5147 40.2846 28.0899 40.2846 28.6593C40.2846 28.6884 40.2846 28.7174 40.2846 28.7465C40.4327 28.6012 40.5751 28.4618 40.7175 28.3165C40.9509 28.0725 41.1844 27.8284 41.4179 27.5844C41.7027 27.2881 41.9931 26.9976 42.2209 26.6489C42.6708 25.9633 42.91 25.2021 42.9613 24.3829C42.9897 23.9122 42.9385 23.4474 42.8246 22.9884C42.705 22.5061 42.5114 22.0587 42.238 21.6462C42.0842 21.3847 41.8906 21.1697 41.6799 20.9315Z" fill="url(#paint6_linear_637_2950)"/>
</g>
<g filter="url(#filter2_d_637_2950)">
<path d="M25.308 34.3272C25.2456 34.3041 25.2115 34.258 25.1831 34.2176C25.0809 34.0791 24.956 33.9579 24.8425 33.8309C24.7062 33.6751 24.5643 33.5193 24.4166 33.3693C24.1328 33.075 23.8489 32.7807 23.565 32.4864C23.4004 32.3132 23.2357 32.1459 23.0711 31.9785C22.9348 31.84 22.8099 31.69 22.6736 31.5573C22.6112 31.4938 22.5544 31.4188 22.4749 31.3668C22.4068 31.3265 22.3841 31.2399 22.3216 31.1822C22.1399 31.0148 21.981 30.8302 21.7993 30.6628C21.6573 30.5301 21.5438 30.3627 21.4019 30.23C21.311 30.1492 21.2315 30.0511 21.135 29.9761C21.0896 29.9473 21.0726 29.8838 21.0328 29.8434C20.8454 29.6587 20.6581 29.4798 20.4821 29.2836C20.2436 29.0124 19.9825 28.7643 19.744 28.493C19.568 28.2968 19.375 28.1122 19.1933 27.9217C18.9264 27.639 18.6823 27.3331 18.4722 27.0042C18.37 26.8426 18.2905 26.6695 18.1997 26.5022C18.1145 26.3463 18.0634 26.179 17.9953 26.0232C17.9045 25.827 17.8761 25.6192 17.8136 25.4173C17.7739 25.2788 17.7569 25.1345 17.7285 24.996C17.6603 24.6094 17.6774 24.2227 17.666 23.8303C17.666 23.7264 17.6774 23.6226 17.6717 23.5187C17.6717 23.4379 17.7058 23.3514 17.7171 23.2648C17.7285 23.2129 17.7228 23.1551 17.7285 23.1032C17.7398 23.0167 17.7682 22.9359 17.7909 22.8493C17.8591 22.555 17.9499 22.2722 18.0578 21.9895C18.1202 21.8221 18.1827 21.649 18.2792 21.499C18.4041 21.3028 18.5176 21.095 18.6539 20.9103C18.7902 20.7199 18.9264 20.5295 19.0911 20.3621C19.233 20.2121 19.3806 20.0678 19.5396 19.9293C19.7951 19.6985 20.0733 19.4965 20.3742 19.3292C20.5559 19.2311 20.7433 19.1387 20.9306 19.0522C21.0669 18.9887 21.2031 18.9368 21.3508 18.9021C21.4643 18.8733 21.5665 18.8214 21.6857 18.8098C21.8674 18.7925 22.0377 18.7463 22.2137 18.7175C22.4692 18.6829 22.7247 18.6829 22.9802 18.6829C23.0824 18.6829 23.1846 18.6829 23.2811 18.6886C23.3833 18.6944 23.4855 18.7117 23.5877 18.729C23.7297 18.7521 23.8716 18.8098 24.0192 18.8156C24.1498 18.8214 24.2577 18.8906 24.3769 18.9195C24.604 18.9714 24.8084 19.081 25.0185 19.1734C25.2739 19.2888 25.5067 19.4331 25.7338 19.5946C25.8985 19.71 26.0688 19.8255 26.2221 19.964C26.33 20.0621 26.4322 20.1659 26.5287 20.2698C26.8466 20.5987 27.1646 20.9277 27.4825 21.2566C27.8289 21.6201 28.1752 21.9895 28.5272 22.3473C28.9587 22.7858 29.3731 23.2475 29.8103 23.6803C29.8274 23.6976 29.8444 23.7149 29.8614 23.7322C29.8841 23.7553 29.8785 23.7784 29.8557 23.8015C29.6968 23.963 29.5435 24.1189 29.3845 24.2804C29.3334 24.3381 29.271 24.3901 29.2255 24.4478C29.1858 24.4939 29.1574 24.4709 29.129 24.4478C29.0041 24.3208 28.8678 24.1996 28.76 24.0554C28.6464 23.9111 28.4988 23.8072 28.3966 23.6572C28.3512 23.5937 28.2831 23.5476 28.232 23.4899C28.0162 23.2648 27.8061 23.0282 27.5847 22.8147C27.386 22.6185 27.1986 22.405 26.9999 22.203C26.8637 22.0645 26.716 21.9375 26.5911 21.7875C26.4208 21.5798 26.2278 21.4009 26.0461 21.2047C25.8474 20.9911 25.6487 20.7776 25.4159 20.5987C25.2796 20.4949 25.1377 20.391 24.9844 20.3044C24.8595 20.2294 24.7289 20.1659 24.604 20.0967C24.4848 20.0332 24.3599 19.9813 24.2293 19.9409C24.1214 19.9062 24.0079 19.8659 23.8943 19.837C23.7183 19.7908 23.5423 19.762 23.3663 19.7331C23.2754 19.7158 23.1846 19.7216 23.0938 19.7158C23.037 19.71 23.0256 19.7331 23.0256 19.7851C23.0256 19.964 23.0256 20.1428 23.0256 20.316C23.0256 20.8757 23.0256 21.4355 23.0256 21.9952C23.0256 23.3398 23.0313 24.6902 23.0256 26.0347C23.0256 26.2656 23.037 26.4964 23.0313 26.733C23.0313 26.7791 23.0256 26.808 22.9632 26.808C22.5544 26.808 22.1456 26.808 21.7368 26.808C21.6687 26.808 21.6517 26.8311 21.6517 26.9176C21.6517 27.5351 21.6517 28.1468 21.6517 28.7643C21.6517 28.8393 21.6573 28.9143 21.646 28.9893C21.6403 29.0182 21.6517 29.0355 21.6687 29.0586C22.0548 29.4567 22.4408 29.8549 22.8269 30.2589C23.2471 30.6974 23.6672 31.136 24.0873 31.5746C24.1895 31.6785 24.2974 31.7766 24.4053 31.8804C24.4053 31.7073 24.4053 31.5284 24.4053 31.3495C24.4053 29.5087 24.4053 27.6736 24.4053 25.8327C24.4053 25.7693 24.428 25.752 24.4848 25.752C24.8936 25.752 25.3023 25.752 25.7111 25.752C25.7793 25.752 25.7906 25.7289 25.7906 25.6654C25.7906 24.7594 25.7906 23.8592 25.7906 22.9532C25.7906 22.8493 25.7906 22.8493 25.8928 22.8493C25.9382 22.8493 25.9893 22.8551 26.0347 22.8493C26.0972 22.8435 26.1199 22.8666 26.1199 22.9359C26.1199 23.2648 26.1199 23.5937 26.1199 23.9227C26.1199 24.5113 26.1199 25.0941 26.1199 25.6827C26.1199 25.7462 26.1426 25.7693 26.1994 25.7462C26.2391 25.7289 26.2789 25.752 26.3129 25.752C26.682 25.752 27.0453 25.752 27.4144 25.752C27.4768 25.752 27.5109 25.7693 27.4939 25.8385C27.4712 25.9712 27.4825 26.104 27.4825 26.2309C27.4825 26.2656 27.4712 26.2886 27.4485 26.3117C27.3179 26.4387 27.2043 26.5714 27.0737 26.6984C26.9318 26.8426 26.7899 26.9869 26.6479 27.1369C26.4889 27.2985 26.347 27.4716 26.2107 27.6505C26.1142 27.7775 26.0234 27.9044 25.9382 28.0372C25.7906 28.2622 25.6487 28.493 25.5351 28.7412C25.4272 28.972 25.325 29.2086 25.2399 29.451C25.1661 29.6645 25.0866 29.8722 25.0412 30.0915C25.0014 30.2877 24.9503 30.4782 24.9219 30.6744C24.9049 30.8071 24.8936 30.9398 24.8765 31.0725C24.8538 31.2514 24.8481 31.4246 24.8368 31.6034C24.8254 31.7708 24.8197 31.9381 24.8425 32.1055C24.8538 32.1863 24.8481 32.2728 24.8538 32.3536C24.8708 32.5152 24.8879 32.6768 24.9106 32.8326C24.9503 33.1211 25.0241 33.4039 25.0979 33.6809C25.1377 33.8309 25.1831 33.9752 25.2456 34.1137C25.2626 34.1829 25.2967 34.2464 25.308 34.3272ZM21.294 28.6431C21.294 28.6315 21.2997 28.6258 21.2997 28.62C21.2997 28.0545 21.2997 27.4889 21.2997 26.9234C21.2997 26.7791 21.2997 26.7849 21.1634 26.7907C20.7716 26.808 20.3856 26.7965 19.9938 26.7965C19.9427 26.7965 19.92 26.7791 19.92 26.7214C19.92 24.8344 19.92 22.9416 19.92 21.0546C19.92 21.02 19.937 20.9681 19.9087 20.9565C19.8803 20.945 19.8632 20.9969 19.8405 21.02C19.585 21.2681 19.3863 21.5624 19.2103 21.8683C18.9719 22.2895 18.8186 22.7397 18.722 23.2129C18.6312 23.6572 18.6255 24.1073 18.6596 24.5574C18.6766 24.7767 18.7277 24.9902 18.7731 25.2037C18.8867 25.6827 19.0911 26.1271 19.3579 26.5368C19.5794 26.883 19.8576 27.1773 20.1471 27.4716C20.3061 27.639 20.4651 27.8063 20.624 27.9737C20.8171 28.1699 21.0101 28.3661 21.1975 28.5681C21.2258 28.5969 21.2542 28.6258 21.294 28.6431Z" fill="url(#paint7_linear_637_2950)"/>
</g>
<path d="M10.0181 45.1114C10.0181 45.1114 19.3501 48.1909 30.6768 48.1909C42.0034 48.1909 51.4779 45.1114 51.4779 45.1114V34.4511C51.4779 34.4511 39.0303 38.6076 30.6768 38.5968C22.3773 38.586 10.0181 34.4511 10.0181 34.4511V45.1114Z" fill="url(#paint8_linear_637_2950)"/>
<g filter="url(#filter3_d_637_2950)">
<path d="M31.6482 11.5034C31.3403 12.0441 30.5704 12.0441 30.2625 11.5034L28.5962 8.57716C28.2883 8.03642 28.6732 7.3605 29.289 7.3605L32.6217 7.3605C33.2375 7.3605 33.6224 8.03642 33.3145 8.57716L31.6482 11.5034Z" fill="url(#paint9_linear_637_2950)"/>
</g>
<g filter="url(#filter4_d_637_2950)">
<path d="M31.6482 55.2204C31.3403 55.7612 30.5704 55.7612 30.2625 55.2204L28.5962 52.2942C28.2883 51.7535 28.6732 51.0775 29.289 51.0775L32.6217 51.0775C33.2375 51.0775 33.6224 51.7535 33.3145 52.2942L31.6482 55.2204Z" fill="url(#paint10_linear_637_2950)"/>
</g>
<g filter="url(#filter5_d_637_2950)">
<path d="M52.2641 20.5469C52.6192 21.057 52.2966 21.7656 51.6833 21.8224L48.3645 22.1298C47.7512 22.1866 47.3073 21.549 47.5654 20.9821L48.9622 17.9143C49.2204 17.3474 49.987 17.2764 50.3421 17.7865L52.2641 20.5469Z" fill="url(#paint11_linear_637_2950)"/>
</g>
<g filter="url(#filter6_d_637_2950)">
<path d="M14.7397 20.5469C15.0948 21.057 14.7722 21.7656 14.1589 21.8224L10.8401 22.1298C10.2268 22.1866 9.78284 21.549 10.041 20.9821L11.4378 17.9143C11.6959 17.3474 12.4626 17.2764 12.8177 17.7865L14.7397 20.5469Z" fill="url(#paint12_linear_637_2950)"/>
</g>
<path d="M33.1787 41.3042H34.346V45.2493H33.1787V41.3042Z" fill="#D2F0F2"/>
<path d="M30.1093 45.0356L28.3926 41.5046H29.1836L30.7152 44.6977H30.2608L31.8092 41.5046H32.5386L30.8274 45.0356H30.1093Z" fill="#D2F0F2"/>
<path fill-rule="evenodd" clip-rule="evenodd" d="M28.0708 41.3018H29.3085L30.49 43.7649L31.6845 41.3018H32.8595L30.9518 45.2383H29.9847L28.0708 41.3018ZM30.2664 44.226L29.0583 41.7073H28.7139L30.1027 44.5636L30.2664 44.226ZM30.8532 44.522L30.7117 44.2269L31.9336 41.7073H32.2173L30.8532 44.522Z" fill="#D2F0F2"/>
<defs>
<filter id="filter0_i_637_2950" x="11.3599" y="10.2117" width="40.7764" height="42.835" filterUnits="userSpaceOnUse" color-interpolation-filters="sRGB">
<feFlood flood-opacity="0" result="BackgroundImageFix"/>
<feBlend mode="normal" in="SourceGraphic" in2="BackgroundImageFix" result="shape"/>
<feColorMatrix in="SourceAlpha" type="matrix" values="0 0 0 0 0 0 0 0 0 0 0 0 0 0 0 0 0 0 127 0" result="hardAlpha"/>
<feOffset dx="2" dy="1"/>
<feGaussianBlur stdDeviation="1"/>
<feComposite in2="hardAlpha" operator="arithmetic" k2="-1" k3="1"/>
<feColorMatrix type="matrix" values="0 0 0 0 0 0 0 0 0 0 0 0 0 0 0 0 0 0 0.25 0"/>
<feBlend mode="normal" in2="shape" result="effect1_innerShadow_637_2950"/>
</filter>
<filter id="filter1_d_637_2950" x="25.5191" y="18.6829" width="21.0452" height="22.2372" filterUnits="userSpaceOnUse" color-interpolation-filters="sRGB">
<feFlood flood-opacity="0" result="BackgroundImageFix"/>
<feColorMatrix in="SourceAlpha" type="matrix" values="0 0 0 0 0 0 0 0 0 0 0 0 0 0 0 0 0 0 127 0" result="hardAlpha"/>
<feOffset dx="1" dy="2"/>
<feGaussianBlur stdDeviation="0.8"/>
<feComposite in2="hardAlpha" operator="out"/>
<feColorMatrix type="matrix" values="0 0 0 0 0 0 0 0 0 0 0 0 0 0 0 0 0 0 0.25 0"/>
<feBlend mode="normal" in2="BackgroundImageFix" result="effect1_dropShadow_637_2950"/>
<feBlend mode="normal" in="SourceGraphic" in2="effect1_dropShadow_637_2950" result="shape"/>
</filter>
<filter id="filter2_d_637_2950" x="17.066" y="18.6829" width="15.41" height="19.2443" filterUnits="userSpaceOnUse" color-interpolation-filters="sRGB">
<feFlood flood-opacity="0" result="BackgroundImageFix"/>
<feColorMatrix in="SourceAlpha" type="matrix" values="0 0 0 0 0 0 0 0 0 0 0 0 0 0 0 0 0 0 127 0" result="hardAlpha"/>
<feOffset dx="1" dy="2"/>
<feGaussianBlur stdDeviation="0.8"/>
<feComposite in2="hardAlpha" operator="out"/>
<feColorMatrix type="matrix" values="0 0 0 0 0 0 0 0 0 0 0 0 0 0 0 0 0 0 0.25 0"/>
<feBlend mode="normal" in2="BackgroundImageFix" result="effect1_dropShadow_637_2950"/>
<feBlend mode="normal" in="SourceGraphic" in2="effect1_dropShadow_637_2950" result="shape"/>
</filter>
<filter id="filter3_d_637_2950" x="22.1878" y="1.0606" width="17.5351" height="17.1483" filterUnits="userSpaceOnUse" color-interpolation-filters="sRGB">
<feFlood flood-opacity="0" result="BackgroundImageFix"/>
<feColorMatrix in="SourceAlpha" type="matrix" values="0 0 0 0 0 0 0 0 0 0 0 0 0 0 0 0 0 0 127 0" result="hardAlpha"/>
<feOffset/>
<feGaussianBlur stdDeviation="3.15"/>
<feComposite in2="hardAlpha" operator="out"/>
<feColorMatrix type="matrix" values="0 0 0 0 1 0 0 0 0 1 0 0 0 0 1 0 0 0 0.25 0"/>
<feBlend mode="normal" in2="BackgroundImageFix" result="effect1_dropShadow_637_2950"/>
<feBlend mode="normal" in="SourceGraphic" in2="effect1_dropShadow_637_2950" result="shape"/>
</filter>
<filter id="filter4_d_637_2950" x="22.1878" y="44.7776" width="17.5351" height="17.1483" filterUnits="userSpaceOnUse" color-interpolation-filters="sRGB">
<feFlood flood-opacity="0" result="BackgroundImageFix"/>
<feColorMatrix in="SourceAlpha" type="matrix" values="0 0 0 0 0 0 0 0 0 0 0 0 0 0 0 0 0 0 127 0" result="hardAlpha"/>
<feOffset/>
<feGaussianBlur stdDeviation="3.15"/>
<feComposite in2="hardAlpha" operator="out"/>
<feColorMatrix type="matrix" values="0 0 0 0 1 0 0 0 0 1 0 0 0 0 1 0 0 0 0.25 0"/>
<feBlend mode="normal" in2="BackgroundImageFix" result="effect1_dropShadow_637_2950"/>
<feBlend mode="normal" in="SourceGraphic" in2="effect1_dropShadow_637_2950" result="shape"/>
</filter>
<filter id="filter5_d_637_2950" x="41.1907" y="11.1431" width="17.5209" height="17.2902" filterUnits="userSpaceOnUse" color-interpolation-filters="sRGB">
<feFlood flood-opacity="0" result="BackgroundImageFix"/>
<feColorMatrix in="SourceAlpha" type="matrix" values="0 0 0 0 0 0 0 0 0 0 0 0 0 0 0 0 0 0 127 0" result="hardAlpha"/>
<feOffset/>
<feGaussianBlur stdDeviation="3.15"/>
<feComposite in2="hardAlpha" operator="out"/>
<feColorMatrix type="matrix" values="0 0 0 0 1 0 0 0 0 1 0 0 0 0 1 0 0 0 0.25 0"/>
<feBlend mode="normal" in2="BackgroundImageFix" result="effect1_dropShadow_637_2950"/>
<feBlend mode="normal" in="SourceGraphic" in2="effect1_dropShadow_637_2950" result="shape"/>
</filter>
<filter id="filter6_d_637_2950" x="3.66631" y="11.1431" width="17.5209" height="17.2902" filterUnits="userSpaceOnUse" color-interpolation-filters="sRGB">
<feFlood flood-opacity="0" result="BackgroundImageFix"/>
<feColorMatrix in="SourceAlpha" type="matrix" values="0 0 0 0 0 0 0 0 0 0 0 0 0 0 0 0 0 0 127 0" result="hardAlpha"/>
<feOffset/>
<feGaussianBlur stdDeviation="3.15"/>
<feComposite in2="hardAlpha" operator="out"/>
<feColorMatrix type="matrix" values="0 0 0 0 1 0 0 0 0 1 0 0 0 0 1 0 0 0 0.25 0"/>
<feBlend mode="normal" in2="BackgroundImageFix" result="effect1_dropShadow_637_2950"/>
<feBlend mode="normal" in="SourceGraphic" in2="effect1_dropShadow_637_2950" result="shape"/>
</filter>
<linearGradient id="paint0_linear_637_2950" x1="37.0988" y1="1.79036" x2="33.6975" y2="12.6933" gradientUnits="userSpaceOnUse">
<stop stop-color="#08542B"/>
<stop offset="1" stop-color="#04340A"/>
</linearGradient>
<linearGradient id="paint1_linear_637_2950" x1="32.9338" y1="5.93342" x2="27.4544" y2="19.1184" gradientUnits="userSpaceOnUse">
<stop stop-color="#77C86A"/>
<stop offset="1" stop-color="#207316"/>
</linearGradient>
<linearGradient id="paint2_linear_637_2950" x1="66.1209" y1="13.7705" x2="56.359" y2="11.1074" gradientUnits="userSpaceOnUse">
<stop stop-color="#0D744F"/>
<stop offset="1" stop-color="#04370B"/>
</linearGradient>
<linearGradient id="paint3_linear_637_2950" x1="3.93109" y1="10.6178" x2="9.45617" y2="26.9659" gradientUnits="userSpaceOnUse">
<stop stop-color="#6AC879"/>
<stop offset="1" stop-color="#217616"/>
</linearGradient>
<linearGradient id="paint4_linear_637_2950" x1="19.8953" y1="7.25524" x2="44.1848" y2="9.57536" gradientUnits="userSpaceOnUse">
<stop stop-color="#77C86A"/>
<stop offset="1" stop-color="#07462F"/>
</linearGradient>
<linearGradient id="paint5_linear_637_2950" x1="20.5978" y1="9.02361" x2="43.8274" y2="10.2646" gradientUnits="userSpaceOnUse">
<stop stop-color="#71C86A"/>
<stop offset="1" stop-color="#0D6143"/>
</linearGradient>
<linearGradient id="paint6_linear_637_2950" x1="30.3705" y1="18.6829" x2="41.0567" y2="19.2927" gradientUnits="userSpaceOnUse">
<stop stop-color="#E0F2D2"/>
<stop offset="1" stop-color="#1B9A2E"/>
</linearGradient>
<linearGradient id="paint7_linear_637_2950" x1="20.5748" y1="18.6829" x2="26.3639" y2="6.83777" gradientUnits="userSpaceOnUse">
<stop stop-color="#D2F2DB"/>
<stop offset="0.9999" stop-color="#1C6A8B"/>
<stop offset="1" stop-color="#1A6889"/>
<stop offset="1" stop-color="#216F91"/>
<stop offset="1" stop-color="#0A8593"/>
</linearGradient>
<linearGradient id="paint8_linear_637_2950" x1="30.88" y1="49.0813" x2="31.2954" y2="39.1488" gradientUnits="userSpaceOnUse">
<stop stop-color="#299860"/>
<stop offset="0.994792" stop-color="#57BF6A"/>
</linearGradient>
<linearGradient id="paint9_linear_637_2950" x1="32.8003" y1="12.72" x2="28.5805" y2="12.472" gradientUnits="userSpaceOnUse">
<stop offset="0.0001" stop-color="#279F38"/>
<stop offset="1" stop-color="#C1E4B8"/>
</linearGradient>
<linearGradient id="paint10_linear_637_2950" x1="32.8003" y1="56.4371" x2="28.5805" y2="56.189" gradientUnits="userSpaceOnUse">
<stop offset="0.0001" stop-color="#C0E3B7"/>
<stop offset="1" stop-color="#38A646"/>
</linearGradient>
<linearGradient id="paint11_linear_637_2950" x1="52.0612" y1="14.8325" x2="54.2726" y2="19.5879" gradientUnits="userSpaceOnUse">
<stop stop-color="#D4ECC8"/>
<stop offset="1" stop-color="#1E9B31"/>
</linearGradient>
<linearGradient id="paint12_linear_637_2950" x1="14.5368" y1="14.8325" x2="16.7482" y2="19.5879" gradientUnits="userSpaceOnUse">
<stop stop-color="#E0F2D2"/>
<stop offset="1" stop-color="#279F38"/>
</linearGradient>
</defs>
</svg>
