<svg width="41" height="45" viewBox="0 0 41 45" fill="none" xmlns="http://www.w3.org/2000/svg">
<path d="M17.445 0.999015L2.99613 10.3037C1.25692 11.4237 0.206055 13.3496 0.206055 15.417V33.3292C0.206055 35.9379 1.87063 38.2562 4.3438 39.0919L18.8121 43.9811C20.0946 44.4145 21.4851 44.4084 22.7638 43.9638L36.7072 39.115C39.1543 38.264 40.7943 35.9586 40.7943 33.3696V15.3654C40.7943 13.3263 39.7718 11.4228 38.0711 10.2958L24.1082 1.04271C22.0929 -0.2928 19.4777 -0.309949 17.445 0.999015Z" fill="url(#paint0_linear_637_3027)"/>
<g filter="url(#filter0_i_637_3027)">
<path d="M17.4225 2.71079L4.30603 11.1704C2.56888 12.2907 1.51953 14.2155 1.51953 16.2814V32.3178C1.51953 35.0502 3.3428 37.4473 5.97754 38.179L19.1181 41.828C20.1997 42.1283 21.3432 42.1241 22.4225 41.8156L35.0665 38.2024C37.6795 37.4557 39.4807 35.0691 39.4807 32.3536V16.2298C39.4807 14.1922 38.4597 12.2899 36.7611 11.1625L24.0929 2.75455C22.076 1.41591 19.4569 1.39873 17.4225 2.71079Z" fill="url(#paint1_linear_637_3027)"/>
</g>
<g filter="url(#filter1_d_637_3027)">
<path d="M15.9759 22.6002C15.9592 22.4488 15.9759 22.2863 15.9703 22.1181C15.9703 22.034 15.9871 21.9387 16.0149 21.849C16.0372 21.7649 16.0372 21.6752 16.054 21.5968C16.0874 21.4454 16.132 21.2996 16.1655 21.1483C16.2212 20.9016 16.3272 20.6718 16.4219 20.4363C16.5167 20.1953 16.6505 19.9711 16.7843 19.7468C16.9126 19.5282 17.0687 19.332 17.2359 19.1358C17.4701 18.8723 17.721 18.6201 17.9607 18.3622C18.128 18.1828 18.3008 18.0146 18.4681 17.8409C18.7914 17.5157 19.1204 17.1906 19.4326 16.8542C19.7671 16.5011 20.1072 16.1591 20.4473 15.8059C20.5978 15.649 20.765 15.5032 20.91 15.3351C21.1497 15.0548 21.4229 14.8081 21.6794 14.5446C21.8243 14.3989 21.9693 14.2531 22.1087 14.1018C22.4432 13.7374 22.8112 13.4067 23.1457 13.0367C23.4244 12.7284 23.7311 12.4425 24.0154 12.1397C24.2328 11.9099 24.4503 11.6857 24.6621 11.4614C24.8461 11.2708 25.0468 11.1083 25.2475 10.9401C25.4482 10.7719 25.6657 10.6374 25.8887 10.5028C26.1284 10.3627 26.3905 10.2506 26.6525 10.1553C26.7696 10.116 26.8811 10.06 26.9982 10.0376C27.0985 10.0207 27.1933 9.98711 27.2936 9.97589C27.4498 9.95908 27.6003 9.92544 27.7564 9.90302C27.9906 9.86938 28.2303 9.86938 28.4644 9.86938C28.7655 9.86938 29.061 9.91423 29.3509 9.97029C29.6743 10.032 29.9865 10.1216 30.282 10.2562C30.5719 10.3851 30.8562 10.5421 31.1238 10.7215C31.4305 10.9345 31.7148 11.1755 31.9768 11.4446C32.211 11.6801 32.4006 11.9491 32.5901 12.2182C32.8299 12.5714 33.0027 12.9638 33.1476 13.3674C33.2703 13.715 33.3484 14.0681 33.393 14.4325C33.4153 14.6399 33.4431 14.8473 33.4376 15.0604C33.432 15.279 33.4376 15.4976 33.4041 15.7163C33.3651 15.9685 33.3316 16.2264 33.2647 16.473C33.1811 16.7758 33.0807 17.0729 32.9469 17.3532C32.7184 17.8577 32.4173 18.3061 32.0437 18.7154C31.7873 19.0013 31.5141 19.2759 31.2465 19.545C30.9733 19.8141 30.7113 20.0944 30.4548 20.3747C30.3433 20.498 30.2318 20.6213 30.1036 20.7279C30.0311 20.7951 29.9642 20.8736 29.8973 20.9409C29.8471 20.9913 29.7969 21.0362 29.7468 21.0866C29.468 21.3781 29.1837 21.6584 28.9105 21.9555C28.7599 22.1181 28.6094 22.2807 28.4589 22.4376C28.2024 22.7011 27.946 22.9646 27.6839 23.228C27.4219 23.4915 27.1543 23.7494 26.9034 24.0241C26.5577 24.3997 26.1953 24.764 25.8441 25.1396C25.6211 25.3751 25.3813 25.5993 25.1528 25.8291C24.9242 26.059 24.6956 26.2888 24.467 26.5187C24.3388 26.6476 24.1882 26.7541 24.0489 26.8662C23.8537 27.0176 23.6474 27.1521 23.43 27.2642C23.0899 27.438 22.7331 27.5782 22.3651 27.6847C22.1421 27.7463 21.908 27.78 21.6794 27.8248C21.6181 27.836 21.5512 27.836 21.4898 27.8416C21.1888 27.8641 20.8877 27.836 20.5866 27.836C20.4974 27.836 20.4082 27.808 20.319 27.7968C20.2131 27.78 20.1072 27.7519 20.0012 27.7295C19.8173 27.6903 19.6389 27.6342 19.4604 27.5838C19.2486 27.5221 19.0479 27.4212 18.8472 27.3315C18.7134 27.2698 18.5963 27.1801 18.4681 27.1129C18.3621 27.0568 18.2673 26.9895 18.1726 26.9223C18.0443 26.8214 17.9161 26.7205 17.7934 26.6196C17.6206 26.4738 17.4589 26.3112 17.3084 26.1431C17.2136 26.031 17.1133 25.9244 17.0241 25.8067C16.868 25.5993 16.7397 25.3751 16.6171 25.1508C16.5 24.9322 16.3829 24.7136 16.3049 24.4781C16.2212 24.2427 16.1655 24.0016 16.093 23.7662C16.0651 23.6709 16.0651 23.5644 16.0428 23.4635C15.9815 23.1776 15.9648 22.8973 15.9759 22.6002ZM19.1148 26.3449C19.1315 26.3169 19.1259 26.2944 19.1259 26.272C19.1259 26.0141 19.1259 25.7563 19.1259 25.504C19.1259 24.1754 19.1259 22.8525 19.1259 21.5239C19.1259 21.479 19.1315 21.451 19.1873 21.451C19.5942 21.451 20.0012 21.451 20.4082 21.4566C20.464 21.4566 20.4863 21.4454 20.4807 21.3837C20.4807 20.8624 20.4807 20.3354 20.4807 19.8141C20.4807 19.4497 20.4807 19.091 20.4807 18.7266C20.4807 18.6369 20.4807 18.6369 20.5755 18.6313C20.6257 18.6313 20.6814 18.6369 20.7316 18.6201C20.7595 18.6145 20.7985 18.6313 20.8041 18.6761C20.8041 18.7322 20.8152 18.7826 20.8152 18.8331C20.8152 19.6796 20.8152 20.526 20.8152 21.3781C20.8152 21.4342 20.832 21.451 20.8877 21.4454C21.2947 21.4454 21.7017 21.4454 22.1087 21.4398C22.1644 21.4398 22.1812 21.451 22.1812 21.5071C22.1812 23.0262 22.1812 24.5454 22.1812 26.059C22.1812 26.244 22.1812 26.4346 22.1812 26.6196C22.1812 26.6644 22.1923 26.6812 22.2425 26.6644C22.3094 26.642 22.3763 26.6308 22.4376 26.6027C22.5547 26.5523 22.6774 26.5075 22.7944 26.4458C22.9282 26.3729 23.0676 26.3112 23.2014 26.2328C23.3631 26.1375 23.5081 26.031 23.6586 25.9132C23.7478 25.846 23.8314 25.7787 23.7924 25.6442C23.7924 25.6385 23.7924 25.6329 23.7924 25.6217C23.7924 23.385 23.798 21.1427 23.798 18.906C23.798 18.2052 23.798 17.5045 23.798 16.8038C23.798 16.7141 23.798 16.7141 23.8872 16.7141C24.2774 16.7141 24.6733 16.7141 25.0636 16.7141C25.1305 16.7141 25.1528 16.6917 25.1528 16.6244C25.1472 16.1647 25.1528 15.6994 25.1528 15.2398C25.1528 14.8193 25.1528 14.3989 25.1528 13.9784C25.1528 13.9112 25.1751 13.8944 25.2364 13.8944C25.2977 13.9 25.359 13.9 25.4148 13.8944C25.465 13.8888 25.4761 13.9112 25.4761 13.956C25.4761 14.8305 25.4761 15.705 25.4761 16.5852C25.4761 16.6132 25.4817 16.6412 25.4705 16.6636C25.4482 16.7141 25.4761 16.7141 25.5096 16.7141C25.6099 16.7141 25.7159 16.7141 25.8162 16.7141C26.1284 16.7141 26.4406 16.7141 26.7473 16.7141C26.803 16.7141 26.8253 16.7309 26.8253 16.787C26.8198 16.8598 26.8198 16.9383 26.8198 17.0112C26.8198 18.8611 26.8198 20.7054 26.8198 22.5553C26.8198 22.5778 26.8198 22.5946 26.8253 22.617C26.8421 22.6619 26.8532 22.6675 26.8867 22.6338C26.9536 22.561 27.0205 22.4937 27.0874 22.4264C27.4442 22.0564 27.8066 21.6864 28.1634 21.3165C28.6038 20.8624 29.0443 20.4083 29.4903 19.9542C29.5237 19.9206 29.5349 19.8814 29.5349 19.8365C29.5349 19.1638 29.5349 18.4855 29.5349 17.8128C29.5349 17.7568 29.5182 17.74 29.4624 17.74C29.0721 17.7456 28.6819 17.74 28.2916 17.74C28.1857 17.74 28.1801 17.7624 28.1801 17.6334C28.1801 15.6266 28.1801 13.6141 28.1801 11.6072C28.1801 11.5567 28.1578 11.5119 28.1634 11.4614C28.1913 11.2989 28.1745 11.1307 28.1745 10.9681C28.1745 10.856 28.169 10.856 28.063 10.8616C28.0463 10.8616 28.024 10.8616 28.0073 10.8616C27.8902 10.8728 27.7731 10.8728 27.656 10.8952C27.3996 10.9457 27.1431 11.013 26.8922 11.1083C26.6023 11.2148 26.3291 11.3549 26.0782 11.5287C25.766 11.7417 25.4928 12.0108 25.2252 12.2799C24.9967 12.5097 24.7792 12.7396 24.5506 12.9694C24.4559 13.0647 24.3611 13.1544 24.2719 13.2497C23.9931 13.5412 23.7143 13.8383 23.4356 14.1354C23.3687 14.2083 23.3018 14.2924 23.2293 14.3596C23.0788 14.5054 22.9394 14.6568 22.7889 14.8025C22.3819 15.2061 21.9749 15.6153 21.5902 16.0414C21.3616 16.2936 21.1219 16.5291 20.8821 16.7701C20.4807 17.1794 20.0681 17.583 19.6723 17.9978C19.2709 18.4183 18.875 18.8387 18.4681 19.2535C18.1781 19.5506 17.8827 19.8421 17.6596 20.2009C17.498 20.4532 17.353 20.7166 17.2415 20.9969C17.0965 21.3613 17.0073 21.7369 16.9683 22.1237C16.9237 22.5553 16.9293 22.987 17.0185 23.413C17.0798 23.7045 17.1634 23.9904 17.2694 24.2707C17.3251 24.4221 17.4088 24.5622 17.4868 24.7024C17.8827 25.4087 18.4179 25.9525 19.1148 26.3449ZM31.2019 12.0388C31.1963 12.0725 31.1963 12.0893 31.1963 12.1061C31.1963 13.003 31.1963 13.8944 31.1963 14.7913C31.1963 15.7499 31.1963 16.7085 31.1963 17.6727C31.1963 17.7343 31.1852 17.7624 31.1127 17.7624C30.7113 17.7568 30.3154 17.7624 29.914 17.7624C29.8527 17.7624 29.836 17.7848 29.836 17.8409C29.836 18.3902 29.836 18.9452 29.836 19.4946C29.836 19.5226 29.836 19.5506 29.836 19.5787C29.9809 19.4385 30.1203 19.304 30.2597 19.1638C30.4883 18.9284 30.7168 18.6929 30.9454 18.4575C31.2242 18.1716 31.5085 17.8913 31.7315 17.555C32.172 16.8935 32.4061 16.1591 32.4563 15.3687C32.4842 14.9146 32.434 14.4662 32.3225 14.0233C32.2054 13.558 32.0159 13.1264 31.7483 12.7284C31.5977 12.4761 31.4082 12.2687 31.2019 12.0388Z" fill="url(#paint2_linear_637_3027)"/>
</g>
<g filter="url(#filter2_d_637_3027)">
<path d="M15.1747 24.9629C15.1136 24.9406 15.0802 24.8961 15.0524 24.8571C14.9524 24.7235 14.8301 24.6066 14.7189 24.4841C14.5855 24.3338 14.4466 24.1834 14.3021 24.0387C14.0242 23.7547 13.7462 23.4708 13.4683 23.1868C13.3071 23.0198 13.146 22.8584 12.9848 22.6969C12.8514 22.5633 12.7291 22.4185 12.5957 22.2905C12.5346 22.2292 12.479 22.1569 12.4012 22.1068C12.3345 22.0678 12.3122 21.9843 12.2511 21.9286C12.0732 21.7671 11.9176 21.589 11.7397 21.4275C11.6008 21.2995 11.4896 21.138 11.3507 21.01C11.2617 20.932 11.1839 20.8374 11.0894 20.765C11.045 20.7371 11.0283 20.6759 10.9894 20.6369C10.806 20.4588 10.6225 20.2862 10.4502 20.0969C10.2168 19.8352 9.96111 19.5958 9.72766 19.3341C9.55536 19.1448 9.36638 18.9667 9.18852 18.783C8.92728 18.5101 8.68828 18.2151 8.48262 17.8977C8.38258 17.7418 8.30476 17.5748 8.21583 17.4133C8.13246 17.263 8.08243 17.1016 8.01573 16.9512C7.9268 16.762 7.89901 16.5615 7.83787 16.3667C7.79897 16.233 7.78229 16.0938 7.7545 15.9602C7.6878 15.5872 7.70448 15.2142 7.69336 14.8356C7.69336 14.7354 7.70448 14.6352 7.69892 14.535C7.69892 14.457 7.73227 14.3735 7.74338 14.29C7.7545 14.2399 7.74894 14.1842 7.7545 14.1341C7.76562 14.0506 7.79341 13.9726 7.81564 13.8891C7.88234 13.6052 7.97127 13.3324 8.07687 13.0596C8.13802 12.8981 8.19916 12.7311 8.29364 12.5863C8.41593 12.397 8.52709 12.1966 8.66049 12.0184C8.79388 11.8347 8.92728 11.651 9.08847 11.4895C9.22742 11.3448 9.37194 11.2056 9.52757 11.072C9.77768 10.8493 10.05 10.6544 10.3446 10.4929C10.5225 10.3983 10.7059 10.3092 10.8893 10.2257C11.0227 10.1645 11.1561 10.1144 11.3006 10.081C11.4118 10.0531 11.5118 10.003 11.6286 9.99187C11.8064 9.97517 11.9732 9.93063 12.1455 9.90279C12.3956 9.86939 12.6457 9.86938 12.8958 9.86938C12.9959 9.86938 13.0959 9.86939 13.1904 9.87495C13.2905 9.88052 13.3905 9.89722 13.4906 9.91393C13.6295 9.9362 13.7685 9.99187 13.913 9.99744C14.0408 10.003 14.1464 10.0698 14.2632 10.0977C14.4855 10.1478 14.6856 10.2535 14.8912 10.3426C15.1413 10.454 15.3692 10.5932 15.5916 10.7491C15.7528 10.8604 15.9195 10.9718 16.0696 11.1054C16.1752 11.2 16.2752 11.3002 16.3697 11.4004C16.681 11.7178 16.9922 12.0351 17.3035 12.3525C17.6425 12.7032 17.9816 13.0596 18.3262 13.4047C18.7486 13.8279 19.1544 14.2733 19.5824 14.6908C19.599 14.7075 19.6157 14.7242 19.6324 14.7409C19.6546 14.7632 19.6491 14.7855 19.6268 14.8078C19.4712 14.9636 19.3211 15.114 19.1655 15.2699C19.1155 15.3255 19.0543 15.3756 19.0099 15.4313C18.9709 15.4759 18.9432 15.4536 18.9154 15.4313C18.7931 15.3088 18.6597 15.1919 18.5541 15.0527C18.4429 14.9135 18.2984 14.8133 18.1984 14.6686C18.1539 14.6073 18.0872 14.5628 18.0372 14.5071C17.826 14.29 17.6203 14.0617 17.4035 13.8557C17.209 13.6664 17.0256 13.4604 16.831 13.2656C16.6976 13.1319 16.5531 13.0095 16.4309 12.8647C16.2641 12.6643 16.0751 12.4917 15.8973 12.3024C15.7027 12.0964 15.5082 11.8904 15.2803 11.7178C15.1469 11.6176 15.008 11.5174 14.8579 11.4339C14.7356 11.3615 14.6078 11.3002 14.4855 11.2334C14.3688 11.1722 14.2465 11.1221 14.1186 11.0831C14.013 11.0497 13.9019 11.0107 13.7907 10.9829C13.6184 10.9383 13.4461 10.9105 13.2738 10.8827C13.1849 10.866 13.0959 10.8715 13.007 10.866C12.9514 10.8604 12.9403 10.8827 12.9403 10.9328C12.9403 11.1054 12.9403 11.278 12.9403 11.445C12.9403 11.985 12.9403 12.5251 12.9403 13.0651C12.9403 14.3624 12.9459 15.6652 12.9403 16.9624C12.9403 17.1851 12.9514 17.4078 12.9459 17.636C12.9459 17.6806 12.9403 17.7084 12.8792 17.7084C12.479 17.7084 12.0788 17.7084 11.6786 17.7084C11.6119 17.7084 11.5952 17.7307 11.5952 17.8142C11.5952 18.4099 11.5952 19.0001 11.5952 19.5958C11.5952 19.6682 11.6008 19.7406 11.5897 19.8129C11.5841 19.8408 11.5952 19.8575 11.6119 19.8798C11.9898 20.2639 12.3678 20.6481 12.7458 21.0378C13.1571 21.4609 13.5684 21.884 13.9797 22.3072C14.0797 22.4074 14.1853 22.502 14.2909 22.6023C14.2909 22.4352 14.2909 22.2626 14.2909 22.09C14.2909 20.314 14.2909 18.5435 14.2909 16.7675C14.2909 16.7063 14.3132 16.6896 14.3688 16.6896C14.7689 16.6896 15.1691 16.6896 15.5693 16.6896C15.636 16.6896 15.6471 16.6673 15.6471 16.6061C15.6471 15.732 15.6471 14.8634 15.6471 13.9893C15.6471 13.8891 15.6471 13.8891 15.7472 13.8891C15.7917 13.8891 15.8417 13.8947 15.8861 13.8891C15.9473 13.8836 15.9695 13.9058 15.9695 13.9726C15.9695 14.29 15.9695 14.6073 15.9695 14.9247C15.9695 15.4926 15.9695 16.0549 15.9695 16.6228C15.9695 16.684 15.9918 16.7063 16.0473 16.684C16.0862 16.6673 16.1252 16.6896 16.1585 16.6896C16.5198 16.6896 16.8755 16.6896 17.2368 16.6896C17.2979 16.6896 17.3313 16.7063 17.3146 16.7731C17.2924 16.9011 17.3035 17.0292 17.3035 17.1517C17.3035 17.1851 17.2924 17.2074 17.2701 17.2296C17.1423 17.3521 17.0311 17.4802 16.9033 17.6026C16.7643 17.7418 16.6254 17.881 16.4864 18.0258C16.3308 18.1817 16.1918 18.3487 16.0585 18.5213C15.964 18.6438 15.875 18.7662 15.7917 18.8943C15.6471 19.1114 15.5082 19.3341 15.397 19.5735C15.2914 19.7962 15.1914 20.0245 15.108 20.2583C15.0357 20.4643 14.9579 20.6648 14.9135 20.8763C14.8746 21.0656 14.8245 21.2494 14.7967 21.4387C14.7801 21.5667 14.7689 21.6948 14.7523 21.8228C14.73 21.9954 14.7245 22.1624 14.7134 22.335C14.7023 22.4965 14.6967 22.6579 14.7189 22.8194C14.73 22.8973 14.7245 22.9808 14.73 23.0588C14.7467 23.2147 14.7634 23.3706 14.7856 23.5209C14.8245 23.7993 14.8968 24.0721 14.969 24.3393C15.008 24.4841 15.0524 24.6233 15.1136 24.7569C15.1302 24.8237 15.1636 24.8849 15.1747 24.9629ZM11.245 19.4789C11.245 19.4678 11.2506 19.4622 11.2506 19.4566C11.2506 18.911 11.2506 18.3654 11.2506 17.8198C11.2506 17.6806 11.2506 17.6862 11.1172 17.6917C10.7337 17.7084 10.3557 17.6973 9.97222 17.6973C9.9222 17.6973 9.89997 17.6806 9.89997 17.6249C9.89997 15.8043 9.89997 13.9782 9.89997 12.1576C9.89997 12.1242 9.91664 12.0741 9.88885 12.063C9.86106 12.0518 9.84438 12.102 9.82215 12.1242C9.57203 12.3636 9.37749 12.6476 9.20519 12.9426C8.97175 13.3491 8.82167 13.7833 8.72718 14.2399C8.63825 14.6686 8.6327 15.1028 8.66604 15.5371C8.68272 15.7487 8.73274 15.9547 8.77721 16.1607C8.88837 16.6228 9.08847 17.0515 9.3497 17.4468C9.56647 17.7808 9.83882 18.0647 10.1223 18.3487C10.2779 18.5101 10.4336 18.6716 10.5892 18.8331C10.7782 19.0224 10.9671 19.2116 11.1506 19.4065C11.1784 19.4344 11.2061 19.4622 11.245 19.4789Z" fill="url(#paint3_linear_637_3027)"/>
</g>
<path d="M0.206055 35.367C0.206055 35.367 9.34189 38.3381 20.4304 38.3381C31.519 38.3381 40.7943 35.367 40.7943 35.367V25.0821C40.7943 25.0821 28.6083 29.0923 20.4304 29.0818C12.3055 29.0714 0.206055 25.0821 0.206055 25.0821V35.367Z" fill="url(#paint4_linear_637_3027)"/>
<path d="M19.9092 32.3125H21.052V36.1187H19.9092V32.3125Z" fill="#F2BEA2"/>
<defs>
<filter id="filter0_i_637_3027" x="1.51953" y="1.73853" width="39.9609" height="41.3115" filterUnits="userSpaceOnUse" color-interpolation-filters="sRGB">
<feFlood flood-opacity="0" result="BackgroundImageFix"/>
<feBlend mode="normal" in="SourceGraphic" in2="BackgroundImageFix" result="shape"/>
<feColorMatrix in="SourceAlpha" type="matrix" values="0 0 0 0 0 0 0 0 0 0 0 0 0 0 0 0 0 0 127 0" result="hardAlpha"/>
<feOffset dx="2" dy="1"/>
<feGaussianBlur stdDeviation="1"/>
<feComposite in2="hardAlpha" operator="arithmetic" k2="-1" k3="1"/>
<feColorMatrix type="matrix" values="0 0 0 0 0 0 0 0 0 0 0 0 0 0 0 0 0 0 0.25 0"/>
<feBlend mode="normal" in2="shape" result="effect1_innerShadow_637_3027"/>
</filter>
<filter id="filter1_d_637_3027" x="15.3683" y="9.86938" width="20.6702" height="21.581" filterUnits="userSpaceOnUse" color-interpolation-filters="sRGB">
<feFlood flood-opacity="0" result="BackgroundImageFix"/>
<feColorMatrix in="SourceAlpha" type="matrix" values="0 0 0 0 0 0 0 0 0 0 0 0 0 0 0 0 0 0 127 0" result="hardAlpha"/>
<feOffset dx="1" dy="2"/>
<feGaussianBlur stdDeviation="0.8"/>
<feComposite in2="hardAlpha" operator="out"/>
<feColorMatrix type="matrix" values="0 0 0 0 0 0 0 0 0 0 0 0 0 0 0 0 0 0 0.25 0"/>
<feBlend mode="normal" in2="BackgroundImageFix" result="effect1_dropShadow_637_3027"/>
<feBlend mode="normal" in="SourceGraphic" in2="effect1_dropShadow_637_3027" result="shape"/>
</filter>
<filter id="filter2_d_637_3027" x="7.09336" y="9.86938" width="15.1531" height="18.6935" filterUnits="userSpaceOnUse" color-interpolation-filters="sRGB">
<feFlood flood-opacity="0" result="BackgroundImageFix"/>
<feColorMatrix in="SourceAlpha" type="matrix" values="0 0 0 0 0 0 0 0 0 0 0 0 0 0 0 0 0 0 127 0" result="hardAlpha"/>
<feOffset dx="1" dy="2"/>
<feGaussianBlur stdDeviation="0.8"/>
<feComposite in2="hardAlpha" operator="out"/>
<feColorMatrix type="matrix" values="0 0 0 0 0 0 0 0 0 0 0 0 0 0 0 0 0 0 0.25 0"/>
<feBlend mode="normal" in2="BackgroundImageFix" result="effect1_dropShadow_637_3027"/>
<feBlend mode="normal" in="SourceGraphic" in2="effect1_dropShadow_637_3027" result="shape"/>
</filter>
<linearGradient id="paint0_linear_637_3027" x1="10.4403" y1="7.11297" x2="37.2513" y2="39.9891" gradientUnits="userSpaceOnUse">
<stop offset="0.207595" stop-color="#F3A66F"/>
<stop offset="0.961067" stop-color="#815246"/>
</linearGradient>
<linearGradient id="paint1_linear_637_3027" x1="11.0914" y1="8.29577" x2="36.2132" y2="39.0534" gradientUnits="userSpaceOnUse">
<stop offset="0.126308" stop-color="#B47556"/>
<stop offset="0.890017" stop-color="#9A5D4B"/>
</linearGradient>
<linearGradient id="paint2_linear_637_3027" x1="24.7033" y1="9.86938" x2="24.7033" y2="27.8503" gradientUnits="userSpaceOnUse">
<stop stop-color="#FFD6C2"/>
<stop offset="1" stop-color="#E5A480"/>
</linearGradient>
<linearGradient id="paint3_linear_637_3027" x1="13.6699" y1="9.86938" x2="13.6699" y2="24.9629" gradientUnits="userSpaceOnUse">
<stop stop-color="#FFD6C2"/>
<stop offset="1" stop-color="#E5A480"/>
</linearGradient>
<linearGradient id="paint4_linear_637_3027" x1="25.6755" y1="27.9696" x2="25.6755" y2="38.3381" gradientUnits="userSpaceOnUse">
<stop stop-color="#BA7154"/>
<stop offset="1" stop-color="#6B4539"/>
</linearGradient>
</defs>
</svg>
