<svg width="69" height="73" viewBox="0 0 69 73" fill="none" xmlns="http://www.w3.org/2000/svg">
<g filter="url(#filter0_d_637_2925)">
<path d="M40.3107 17.5188C40.3531 17.8178 35.441 24.8155 31.3091 31.1884C28.5312 30.927 24.6374 30.8473 25.9867 29.0027C28.372 25.7419 31.5247 22.5072 33.7264 18.906L39.9897 10.2629C40.0214 11.343 40.2297 16.9474 40.3107 17.5188Z" fill="url(#paint0_linear_637_2925)"/>
<path d="M26.7162 17.64C26.6793 17.9397 31.7196 24.8458 35.9684 31.1414C38.741 30.829 42.6327 30.6776 41.2496 28.8582C38.8046 25.6419 35.5927 22.4657 33.325 18.9057L26.9033 10.3794C26.8916 11.4598 26.7866 17.0671 26.7162 17.64Z" fill="url(#paint1_linear_637_2925)"/>
<path d="M64.4732 25.6918C64.0525 26.1242 56.6328 35.7807 51.213 41.1839C49.2044 39.0234 46.2858 36.3601 47.9706 34.8971C50.9488 32.3108 54.4987 30.2625 57.4605 27.1216L65.3101 20.2275C64.8364 21.6988 64.6777 25.4816 64.4732 25.6918Z" fill="url(#paint2_linear_637_2925)"/>
<path d="M61.9493 40.4042C61.5286 40.8366 54.1089 50.4931 48.6891 55.8963C46.6805 53.7358 43.7618 51.0725 45.4466 49.6095C48.4249 47.0232 51.9747 44.9749 54.9365 41.834L62.7861 34.9399C62.3124 36.4112 62.1537 40.194 61.9493 40.4042Z" fill="url(#paint3_linear_637_2925)"/>
<path d="M4.94471 25.2714C5.36541 25.7038 12.1294 35.3603 17.5492 40.7635C19.5578 38.603 22.4764 35.9397 20.7917 34.4767C17.8134 31.8904 14.2635 29.8421 11.3018 26.7012L3.45215 19.8071C3.92584 21.2784 4.74023 25.0612 4.94471 25.2714Z" fill="url(#paint4_linear_637_2925)"/>
<path d="M7.46913 38.7228C7.88982 39.1552 14.6538 48.8117 20.0736 54.2149C22.0822 52.0544 25.0008 49.3911 23.3161 47.9281C20.3378 45.3418 16.788 43.2935 13.8262 40.1526L5.97656 33.2585C6.45026 34.7298 7.26464 38.5126 7.46913 38.7228Z" fill="url(#paint5_linear_637_2925)"/>
<g filter="url(#filter1_d_637_2925)">
<path d="M54.8735 52.2139V32.2077L61.7394 23.17L57.1109 24.6412L52.5592 26.3227L37.5228 18.2584L36.9916 15.5712C36.8046 14.6255 36.3955 13.7377 35.7978 12.981L33.5528 10.1389L31.8147 13.1376C31.4337 13.7949 31.1793 14.5177 31.0646 15.2686L30.6079 18.2584L14.907 26.3227L11.6758 25.0616L7.33447 23.17L12.8039 32.2077V52.1755C12.8039 54.8666 14.5735 57.2379 17.1548 58.0059L27.11 60.9675C28.5147 61.3854 29.6344 62.4497 30.1222 63.8307C30.4382 64.7252 31.0245 65.4995 31.8001 66.0465L34.1838 67.7278L36.3927 66.0593C37.1301 65.5022 37.6896 64.743 38.0031 63.874C38.512 62.463 39.656 61.3739 41.0911 60.9342L50.5701 58.03C53.1275 57.2464 54.8735 54.8867 54.8735 52.2139Z" fill="url(#paint6_linear_637_2925)"/>
</g>
<g filter="url(#filter2_i_637_2925)">
<path d="M30.7712 20.3729L16.952 29.2856C15.2149 30.406 14.1655 32.3308 14.1655 34.3967V51.308C14.1655 54.0404 15.9888 56.4375 18.6235 57.1692L32.4668 61.0134C33.5483 61.3137 34.6919 61.3094 35.7711 61.001L49.098 57.1926C51.7109 56.446 53.5121 54.0593 53.5121 51.3438V34.3451C53.5121 32.3075 52.4912 30.4052 50.7925 29.2778L37.4415 20.4167C35.4246 19.078 32.8055 19.0608 30.7712 20.3729Z" fill="url(#paint7_linear_637_2925)"/>
</g>
<g filter="url(#filter3_d_637_2925)">
<path d="M29.1495 41.0673C29.1322 40.9104 29.1495 40.7419 29.1438 40.5676C29.1438 40.4804 29.1611 40.3816 29.19 40.2887C29.2131 40.2015 29.2131 40.1085 29.2304 40.0272C29.2651 39.8703 29.3113 39.7192 29.346 39.5624C29.4038 39.3067 29.5136 39.0685 29.6118 38.8244C29.7101 38.5746 29.8488 38.3422 29.9875 38.1098C30.1204 37.8832 30.2822 37.6798 30.4555 37.4764C30.6982 37.2033 30.9583 36.9419 31.2068 36.6746C31.3801 36.4887 31.5593 36.3143 31.7326 36.1342C32.0678 35.7972 32.4087 35.4602 32.7323 35.1116C33.0791 34.7455 33.4316 34.3911 33.7841 34.025C33.9401 33.8624 34.1135 33.7113 34.2637 33.537C34.5122 33.2465 34.7953 32.9908 35.0612 32.7177C35.2114 32.5666 35.3617 32.4156 35.5061 32.2587C35.8528 31.881 36.2342 31.5382 36.581 31.1547C36.8699 30.8351 37.1877 30.5388 37.4824 30.225C37.7078 29.9868 37.9332 29.7544 38.1528 29.522C38.3435 29.3244 38.5515 29.1559 38.7595 28.9816C38.9676 28.8073 39.1929 28.6679 39.4241 28.5284C39.6726 28.3831 39.9442 28.2669 40.2158 28.1682C40.3371 28.1275 40.4527 28.0694 40.5741 28.0461C40.6781 28.0287 40.7763 27.9938 40.8803 27.9822C41.0421 27.9648 41.1982 27.9299 41.36 27.9067C41.6027 27.8718 41.8511 27.8718 42.0939 27.8718C42.4059 27.8718 42.7122 27.9183 43.0127 27.9764C43.3478 28.0403 43.6714 28.1333 43.9777 28.2727C44.2782 28.4064 44.5729 28.5691 44.8503 28.755C45.1681 28.9758 45.4628 29.2256 45.7344 29.5045C45.9771 29.7486 46.1736 30.0275 46.3701 30.3064C46.6186 30.6724 46.7977 31.0792 46.948 31.4975C47.0751 31.8578 47.156 32.2238 47.2022 32.6015C47.2253 32.8165 47.2542 33.0315 47.2485 33.2523C47.2427 33.4789 47.2485 33.7055 47.2138 33.9321C47.1733 34.1936 47.1387 34.4608 47.0693 34.7165C46.9826 35.0302 46.8786 35.3382 46.7399 35.6287C46.503 36.1517 46.191 36.6165 45.8038 37.0406C45.538 37.337 45.2548 37.6217 44.9774 37.9006C44.6943 38.1795 44.4227 38.47 44.1569 38.7605C44.0413 38.8884 43.9257 39.0162 43.7928 39.1266C43.7177 39.1963 43.6483 39.2777 43.579 39.3474C43.527 39.3997 43.475 39.4462 43.423 39.4985C43.134 39.8006 42.8393 40.0911 42.5561 40.3991C42.4001 40.5676 42.2441 40.7361 42.0881 40.8988C41.8223 41.1719 41.5564 41.4449 41.2848 41.718C41.0132 41.9911 40.7359 42.2584 40.4758 42.5431C40.1175 42.9324 39.7419 43.3101 39.3779 43.6994C39.1467 43.9434 38.8982 44.1758 38.6613 44.4141C38.4244 44.6523 38.1874 44.8905 37.9505 45.1287C37.8176 45.2624 37.6616 45.3728 37.5171 45.489C37.3149 45.6459 37.101 45.7853 36.8757 45.9015C36.5232 46.0816 36.1533 46.2269 35.7719 46.3373C35.5408 46.4012 35.2981 46.4361 35.0612 46.4826C34.9976 46.4942 34.9283 46.4942 34.8647 46.5C34.5526 46.5232 34.2406 46.4942 33.9285 46.4942C33.8361 46.4942 33.7436 46.4651 33.6512 46.4535C33.5414 46.4361 33.4316 46.407 33.3218 46.3838C33.1311 46.3431 32.9462 46.285 32.7612 46.2327C32.5416 46.1688 32.3336 46.0642 32.1256 45.9712C31.9869 45.9073 31.8655 45.8144 31.7326 45.7446C31.6228 45.6865 31.5246 45.6168 31.4264 45.5471C31.2934 45.4425 31.1605 45.3379 31.0334 45.2333C30.8543 45.0823 30.6867 44.9138 30.5307 44.7394C30.4324 44.6232 30.3284 44.5128 30.2359 44.3908C30.0741 44.1758 29.9412 43.9434 29.8141 43.711C29.6927 43.4844 29.5714 43.2578 29.4905 43.0137C29.4038 42.7697 29.346 42.5199 29.2709 42.2758C29.242 42.1771 29.242 42.0667 29.2189 41.9621C29.1553 41.6657 29.138 41.3752 29.1495 41.0673ZM32.403 44.9486C32.4203 44.9196 32.4145 44.8963 32.4145 44.8731C32.4145 44.6058 32.4145 44.3385 32.4145 44.0771C32.4145 42.7 32.4145 41.3287 32.4145 39.9517C32.4145 39.9052 32.4203 39.8761 32.4781 39.8761C32.8999 39.8761 33.3218 39.8761 33.7436 39.8819C33.8014 39.8819 33.8245 39.8703 33.8187 39.8064C33.8187 39.266 33.8187 38.7199 33.8187 38.1795C33.8187 37.8018 33.8187 37.4299 33.8187 37.0523C33.8187 36.9593 33.8187 36.9593 33.917 36.9535C33.969 36.9535 34.0268 36.9593 34.0788 36.9419C34.1077 36.9361 34.1481 36.9535 34.1539 37C34.1539 37.0581 34.1655 37.1104 34.1655 37.1627C34.1655 38.04 34.1655 38.9174 34.1655 39.8006C34.1655 39.8587 34.1828 39.8761 34.2406 39.8703C34.6624 39.8703 35.0843 39.8703 35.5061 39.8645C35.5639 39.8645 35.5812 39.8761 35.5812 39.9342C35.5812 41.5089 35.5812 43.0835 35.5812 44.6523C35.5812 44.844 35.5812 45.0416 35.5812 45.2333C35.5812 45.2798 35.5928 45.2972 35.6448 45.2798C35.7142 45.2566 35.7835 45.2449 35.8471 45.2159C35.9684 45.1636 36.0956 45.1171 36.2169 45.0532C36.3556 44.9777 36.5001 44.9138 36.6387 44.8324C36.8063 44.7336 36.9566 44.6232 37.1126 44.5012C37.2051 44.4315 37.2917 44.3618 37.2513 44.2223C37.2513 44.2165 37.2513 44.2107 37.2513 44.1991C37.2513 41.8807 37.2571 39.5566 37.2571 37.2382C37.2571 36.5119 37.2571 35.7856 37.2571 35.0593C37.2571 34.9663 37.2571 34.9663 37.3495 34.9663C37.754 34.9663 38.1643 34.9663 38.5688 34.9663C38.6382 34.9663 38.6613 34.9431 38.6613 34.8734C38.6555 34.3969 38.6613 33.9147 38.6613 33.4382C38.6613 33.0024 38.6613 32.5666 38.6613 32.1309C38.6613 32.0611 38.6844 32.0437 38.748 32.0437C38.8115 32.0495 38.8751 32.0495 38.9329 32.0437C38.9849 32.0379 38.9965 32.0611 38.9965 32.1076C38.9965 33.014 38.9965 33.9205 38.9965 34.8327C38.9965 34.8617 39.0022 34.8908 38.9907 34.914C38.9676 34.9663 38.9965 34.9663 39.0311 34.9663C39.1352 34.9663 39.2449 34.9663 39.349 34.9663C39.6726 34.9663 39.9962 34.9663 40.314 34.9663C40.3718 34.9663 40.3949 34.9838 40.3949 35.0419C40.3891 35.1174 40.3891 35.1988 40.3891 35.2743C40.3891 37.1917 40.3891 39.1033 40.3891 41.0208C40.3891 41.044 40.3891 41.0615 40.3949 41.0847C40.4122 41.1312 40.4238 41.137 40.4585 41.1021C40.5278 41.0266 40.5972 40.9569 40.6665 40.8871C41.0363 40.5037 41.412 40.1202 41.7818 39.7367C42.2383 39.266 42.6948 38.7954 43.1571 38.3248C43.1918 38.2899 43.2034 38.2492 43.2034 38.2027C43.2034 37.5055 43.2034 36.8024 43.2034 36.1052C43.2034 36.0471 43.186 36.0296 43.1282 36.0296C42.7237 36.0354 42.3192 36.0296 41.9147 36.0296C41.8049 36.0296 41.7991 36.0529 41.7991 35.9192C41.7991 33.8391 41.7991 31.7532 41.7991 29.6731C41.7991 29.6208 41.776 29.5743 41.7818 29.522C41.8107 29.3535 41.7934 29.1792 41.7934 29.0107C41.7934 28.8945 41.7876 28.8945 41.6778 28.9003C41.6604 28.9003 41.6373 28.9003 41.62 28.9003C41.4986 28.9119 41.3773 28.9119 41.2559 28.9351C40.9901 28.9874 40.7243 29.0571 40.4643 29.1559C40.1638 29.2663 39.8806 29.4116 39.6206 29.5917C39.297 29.8125 39.0138 30.0914 38.7364 30.3703C38.4995 30.6085 38.2741 30.8468 38.0372 31.085C37.939 31.1838 37.8407 31.2767 37.7483 31.3755C37.4593 31.6776 37.1704 31.9856 36.8815 32.2935C36.8121 32.3691 36.7428 32.4562 36.6676 32.526C36.5116 32.677 36.3672 32.8339 36.2111 32.985C35.7893 33.4033 35.3674 33.8275 34.9687 34.2691C34.7318 34.5306 34.4833 34.7746 34.2348 35.0244C33.8187 35.4486 33.3911 35.8669 32.9808 36.2969C32.5648 36.7327 32.1545 37.1685 31.7326 37.5984C31.4321 37.9064 31.1259 38.2085 30.8947 38.5804C30.7271 38.8419 30.5769 39.115 30.4613 39.4055C30.3111 39.7832 30.2186 40.1725 30.1782 40.5734C30.1319 41.0208 30.1377 41.4682 30.2302 41.9098C30.2937 42.2119 30.3804 42.5082 30.4902 42.7988C30.548 42.9556 30.6347 43.1009 30.7156 43.2462C31.1259 43.9783 31.6806 44.5419 32.403 44.9486ZM44.9312 30.1205C44.9254 30.1553 44.9254 30.1727 44.9254 30.1902C44.9254 31.1198 44.9254 32.0437 44.9254 32.9734C44.9254 33.9669 44.9254 34.9605 44.9254 35.9599C44.9254 36.0238 44.9139 36.0529 44.8387 36.0529C44.4227 36.0471 44.0124 36.0529 43.5963 36.0529C43.5328 36.0529 43.5154 36.0761 43.5154 36.1342C43.5154 36.7036 43.5154 37.2789 43.5154 37.8483C43.5154 37.8773 43.5154 37.9064 43.5154 37.9355C43.6657 37.7902 43.8101 37.6507 43.9546 37.5055C44.1915 37.2614 44.4284 37.0174 44.6654 36.7734C44.9543 36.477 45.249 36.1865 45.4802 35.8379C45.9367 35.1523 46.1794 34.3911 46.2314 33.5718C46.2603 33.1012 46.2083 32.6364 46.0927 32.1773C45.9714 31.6951 45.7749 31.2477 45.4975 30.8351C45.3415 30.5737 45.145 30.3587 44.9312 30.1205Z" fill="url(#paint8_linear_637_2925)"/>
</g>
<g filter="url(#filter4_d_637_2925)">
<path d="M28.3188 43.5162C28.2555 43.4931 28.2209 43.4469 28.1921 43.4065C28.0884 43.268 27.9616 43.1469 27.8464 43.0199C27.7082 42.8641 27.5641 42.7083 27.4143 42.5582C27.1263 42.2639 26.8382 41.9696 26.5502 41.6753C26.3831 41.5022 26.216 41.3349 26.049 41.1675C25.9107 41.029 25.784 40.879 25.6457 40.7462C25.5823 40.6828 25.5247 40.6077 25.4441 40.5558C25.3749 40.5154 25.3519 40.4289 25.2885 40.3711C25.1042 40.2038 24.9429 40.0191 24.7585 39.8518C24.6145 39.7191 24.4993 39.5517 24.3552 39.419C24.2631 39.3382 24.1824 39.2401 24.0845 39.1651C24.0384 39.1362 24.0211 39.0727 23.9808 39.0323C23.7906 38.8477 23.6005 38.6688 23.4219 38.4726C23.18 38.2014 22.915 37.9532 22.673 37.682C22.4944 37.4858 22.2985 37.3011 22.1142 37.1107C21.8434 36.8279 21.5957 36.5221 21.3825 36.1932C21.2788 36.0316 21.1982 35.8585 21.106 35.6911C21.0196 35.5353 20.9677 35.368 20.8986 35.2121C20.8064 35.0159 20.7776 34.8082 20.7142 34.6062C20.6739 34.4677 20.6566 34.3235 20.6278 34.185C20.5587 33.7983 20.576 33.4117 20.5645 33.0193C20.5645 32.9154 20.576 32.8115 20.5702 32.7077C20.5702 32.6269 20.6048 32.5403 20.6163 32.4538C20.6278 32.4018 20.6221 32.3441 20.6278 32.2922C20.6393 32.2056 20.6682 32.1248 20.6912 32.0383C20.7603 31.744 20.8525 31.4612 20.962 31.1784C21.0253 31.0111 21.0887 30.838 21.1866 30.6879C21.3134 30.4917 21.4286 30.284 21.5669 30.0993C21.7051 29.9089 21.8434 29.7184 22.0105 29.5511C22.1545 29.4011 22.3043 29.2568 22.4656 29.1183C22.7248 28.8875 23.0071 28.6855 23.3125 28.5181C23.4968 28.42 23.6869 28.3277 23.8771 28.2412C24.0153 28.1777 24.1536 28.1257 24.3034 28.0911C24.4186 28.0623 24.5223 28.0103 24.6433 27.9988C24.8276 27.9815 25.0005 27.9353 25.1791 27.9065C25.4383 27.8718 25.6976 27.8718 25.9568 27.8718C26.0605 27.8718 26.1642 27.8718 26.2621 27.8776C26.3658 27.8834 26.4695 27.9007 26.5732 27.918C26.7173 27.9411 26.8613 27.9988 27.0111 28.0046C27.1436 28.0103 27.253 28.0796 27.374 28.1084C27.6045 28.1604 27.8119 28.27 28.025 28.3623C28.2843 28.4777 28.5205 28.622 28.7509 28.7836C28.918 28.899 29.0908 29.0144 29.2464 29.1529C29.3558 29.251 29.4595 29.3549 29.5575 29.4588C29.8801 29.7877 30.2027 30.1166 30.5253 30.4456C30.8767 30.8091 31.2282 31.1784 31.5854 31.5362C32.0232 31.9748 32.4438 32.4364 32.8874 32.8692C32.9046 32.8866 32.9219 32.9039 32.9392 32.9212C32.9622 32.9443 32.9565 32.9673 32.9334 32.9904C32.7721 33.152 32.6166 33.3078 32.4553 33.4694C32.4034 33.5271 32.34 33.579 32.294 33.6367C32.2536 33.6829 32.2248 33.6598 32.196 33.6367C32.0693 33.5098 31.931 33.3886 31.8216 33.2443C31.7063 33.1001 31.5565 32.9962 31.4528 32.8462C31.4068 32.7827 31.3376 32.7365 31.2858 32.6788C31.0669 32.4538 30.8537 32.2172 30.629 32.0036C30.4274 31.8074 30.2373 31.5939 30.0356 31.3919C29.8974 31.2535 29.7476 31.1265 29.6208 30.9765C29.448 30.7687 29.2521 30.5898 29.0678 30.3936C28.8661 30.1801 28.6645 29.9666 28.4283 29.7877C28.29 29.6838 28.146 29.58 27.9905 29.4934C27.8637 29.4184 27.7312 29.3549 27.6045 29.2856C27.4835 29.2222 27.3567 29.1702 27.2242 29.1298C27.1148 29.0952 26.9996 29.0548 26.8843 29.026C26.7057 28.9798 26.5271 28.9509 26.3486 28.9221C26.2564 28.9048 26.1642 28.9106 26.072 28.9048C26.0144 28.899 26.0029 28.9221 26.0029 28.974C26.0029 29.1529 26.0029 29.3318 26.0029 29.5049C26.0029 30.0647 26.0029 30.6244 26.0029 31.1842C26.0029 32.5288 26.0087 33.8791 26.0029 35.2237C26.0029 35.4545 26.0144 35.6853 26.0087 35.9219C26.0087 35.9681 26.0029 35.997 25.9395 35.997C25.5247 35.997 25.1099 35.997 24.6951 35.997C24.626 35.997 24.6087 36.02 24.6087 36.1066C24.6087 36.7241 24.6087 37.3358 24.6087 37.9532C24.6087 38.0282 24.6145 38.1033 24.603 38.1783C24.5972 38.2071 24.6087 38.2245 24.626 38.2475C25.0177 38.6457 25.4095 39.0439 25.8013 39.4478C26.2276 39.8864 26.6539 40.325 27.0802 40.7636C27.1839 40.8674 27.2934 40.9655 27.4028 41.0694C27.4028 40.8963 27.4028 40.7174 27.4028 40.5385C27.4028 38.6976 27.4028 36.8626 27.4028 35.0217C27.4028 34.9582 27.4259 34.9409 27.4835 34.9409C27.8983 34.9409 28.3131 34.9409 28.7279 34.9409C28.797 34.9409 28.8085 34.9178 28.8085 34.8544C28.8085 33.9484 28.8085 33.0481 28.8085 32.1421C28.8085 32.0383 28.8085 32.0383 28.9122 32.0383C28.9583 32.0383 29.0102 32.044 29.0562 32.0383C29.1196 32.0325 29.1427 32.0556 29.1427 32.1248C29.1427 32.4538 29.1427 32.7827 29.1427 33.1116C29.1427 33.7002 29.1427 34.2831 29.1427 34.8717C29.1427 34.9352 29.1657 34.9582 29.2233 34.9352C29.2636 34.9178 29.304 34.9409 29.3385 34.9409C29.713 34.9409 30.0817 34.9409 30.4562 34.9409C30.5196 34.9409 30.5541 34.9582 30.5368 35.0275C30.5138 35.1602 30.5253 35.2929 30.5253 35.4199C30.5253 35.4545 30.5138 35.4776 30.4908 35.5007C30.3582 35.6276 30.243 35.7604 30.1105 35.8873C29.9665 36.0316 29.8225 36.1759 29.6784 36.3259C29.5171 36.4875 29.3731 36.6606 29.2348 36.8395C29.1369 36.9664 29.0447 37.0934 28.9583 37.2261C28.8085 37.4512 28.6645 37.682 28.5493 37.9301C28.4398 38.161 28.3361 38.3976 28.2497 38.6399C28.1748 38.8535 28.0942 39.0612 28.0481 39.2805C28.0077 39.4767 27.9559 39.6671 27.9271 39.8633C27.9098 39.9961 27.8983 40.1288 27.881 40.2615C27.8579 40.4404 27.8522 40.6135 27.8407 40.7924C27.8291 40.9598 27.8234 41.1271 27.8464 41.2945C27.8579 41.3752 27.8522 41.4618 27.8579 41.5426C27.8752 41.7042 27.8925 41.8658 27.9156 42.0216C27.9559 42.3101 28.0308 42.5929 28.1057 42.8699C28.146 43.0199 28.1921 43.1642 28.2555 43.3027C28.2727 43.3719 28.3073 43.4354 28.3188 43.5162ZM24.2458 37.832C24.2458 37.8205 24.2515 37.8147 24.2515 37.809C24.2515 37.2434 24.2515 36.6779 24.2515 36.1124C24.2515 35.9681 24.2515 35.9739 24.1133 35.9797C23.7157 35.997 23.324 35.9854 22.9265 35.9854C22.8746 35.9854 22.8516 35.9681 22.8516 35.9104C22.8516 34.0234 22.8516 32.1306 22.8516 30.2436C22.8516 30.209 22.8689 30.157 22.8401 30.1455C22.8113 30.1339 22.794 30.1859 22.7709 30.209C22.5117 30.4571 22.3101 30.7514 22.1315 31.0572C21.8895 31.4785 21.7339 31.9286 21.636 32.4018C21.5438 32.8462 21.5381 33.2963 21.5726 33.7464C21.5899 33.9657 21.6418 34.1792 21.6879 34.3927C21.8031 34.8717 22.0105 35.316 22.2812 35.7257C22.5059 36.072 22.7882 36.3663 23.082 36.6606C23.2433 36.8279 23.4047 36.9953 23.566 37.1626C23.7618 37.3588 23.9577 37.5551 24.1478 37.757C24.1766 37.7859 24.2054 37.8147 24.2458 37.832Z" fill="url(#paint9_linear_637_2925)"/>
</g>
<g filter="url(#filter5_d_637_2925)">
<path d="M12.8042 54.3004C12.8042 54.3004 22.2735 57.3799 33.7667 57.3799C45.2599 57.3799 54.8738 54.3004 54.8738 54.3004V43.6401C54.8738 43.6401 42.243 47.7966 33.7667 47.7857C25.3452 47.775 12.8042 43.6401 12.8042 43.6401V54.3004Z" fill="url(#paint10_linear_637_2925)"/>
</g>
<g filter="url(#filter6_d_637_2925)">
<path d="M34.752 20.6923C34.4395 21.2331 33.6584 21.2331 33.3459 20.6923L31.6551 17.7661C31.3427 17.2254 31.7332 16.5495 32.3581 16.5495L35.7398 16.5495C36.3647 16.5495 36.7552 17.2254 36.4428 17.7661L34.752 20.6923Z" fill="url(#paint11_linear_637_2925)"/>
</g>
<g filter="url(#filter7_d_637_2925)">
<path d="M34.752 64.4094C34.4395 64.9501 33.6584 64.9501 33.3459 64.4094L31.6551 61.4832C31.3427 60.9424 31.7332 60.2665 32.3581 60.2665L35.7398 60.2665C36.3647 60.2665 36.7552 60.9424 36.4428 61.4832L34.752 64.4094Z" fill="url(#paint12_linear_637_2925)"/>
</g>
<g filter="url(#filter8_d_637_2925)">
<path d="M55.6711 29.7359C56.0315 30.246 55.7041 30.9546 55.0818 31.0114L51.7142 31.3188C51.0919 31.3756 50.6414 30.738 50.9033 30.1711L52.3207 27.1033C52.5827 26.5364 53.3605 26.4654 53.7209 26.9755L55.6711 29.7359Z" fill="url(#paint13_linear_637_2925)"/>
</g>
<g filter="url(#filter9_d_637_2925)">
<path d="M17.595 29.7359C17.9553 30.246 17.6279 30.9546 17.0056 31.0114L13.638 31.3188C13.0157 31.3756 12.5652 30.738 12.8272 30.1711L14.2446 27.1033C14.5065 26.5364 15.2844 26.4654 15.6448 26.9755L17.595 29.7359Z" fill="url(#paint14_linear_637_2925)"/>
</g>
</g>
<path d="M35.043 50.4932H36.2275V54.4383H35.043V50.4932Z" fill="#E789F9"/>
<path d="M37.1465 50.4932H38.331V54.4383H37.1465V50.4932Z" fill="#E789F9"/>
<path d="M31.9285 54.2246L30.1865 50.6936H30.9892L32.5433 53.8866H32.0822L33.6534 50.6936H34.3935L32.6572 54.2246H31.9285Z" fill="#E789F9"/>
<path fill-rule="evenodd" clip-rule="evenodd" d="M29.8604 50.4907H31.1163L32.3152 52.9538L33.5272 50.4907H34.7194L32.7837 54.4273H31.8024L29.8604 50.4907ZM32.0883 53.4149L30.8624 50.8963H30.5129L31.9221 53.7526L32.0883 53.4149ZM32.6837 53.711L32.5401 53.4159L33.7799 50.8963H34.0678L32.6837 53.711Z" fill="#E789F9"/>
<defs>
<filter id="filter0_d_637_2925" x="-7.14785" y="-0.461084" width="83.0579" height="78.7889" filterUnits="userSpaceOnUse" color-interpolation-filters="sRGB">
<feFlood flood-opacity="0" result="BackgroundImageFix"/>
<feColorMatrix in="SourceAlpha" type="matrix" values="0 0 0 0 0 0 0 0 0 0 0 0 0 0 0 0 0 0 127 0" result="hardAlpha"/>
<feOffset/>
<feGaussianBlur stdDeviation="5.3"/>
<feComposite in2="hardAlpha" operator="out"/>
<feColorMatrix type="matrix" values="0 0 0 0 0.592157 0 0 0 0 0.278431 0 0 0 0 1 0 0 0 0.25 0"/>
<feBlend mode="normal" in2="BackgroundImageFix" result="effect1_dropShadow_637_2925"/>
<feBlend mode="normal" in="SourceGraphic" in2="effect1_dropShadow_637_2925" result="shape"/>
</filter>
<filter id="filter1_d_637_2925" x="2.23447" y="1.03892" width="64.6048" height="67.7889" filterUnits="userSpaceOnUse" color-interpolation-filters="sRGB">
<feFlood flood-opacity="0" result="BackgroundImageFix"/>
<feColorMatrix in="SourceAlpha" type="matrix" values="0 0 0 0 0 0 0 0 0 0 0 0 0 0 0 0 0 0 127 0" result="hardAlpha"/>
<feOffset dy="-4"/>
<feGaussianBlur stdDeviation="2.55"/>
<feComposite in2="hardAlpha" operator="out"/>
<feColorMatrix type="matrix" values="0 0 0 0 0 0 0 0 0 0 0 0 0 0 0 0 0 0 0.25 0"/>
<feBlend mode="normal" in2="BackgroundImageFix" result="effect1_dropShadow_637_2925"/>
<feBlend mode="normal" in="SourceGraphic" in2="effect1_dropShadow_637_2925" result="shape"/>
</filter>
<filter id="filter2_i_637_2925" x="14.1655" y="19.4006" width="41.3467" height="42.835" filterUnits="userSpaceOnUse" color-interpolation-filters="sRGB">
<feFlood flood-opacity="0" result="BackgroundImageFix"/>
<feBlend mode="normal" in="SourceGraphic" in2="BackgroundImageFix" result="shape"/>
<feColorMatrix in="SourceAlpha" type="matrix" values="0 0 0 0 0 0 0 0 0 0 0 0 0 0 0 0 0 0 127 0" result="hardAlpha"/>
<feOffset dx="2" dy="1"/>
<feGaussianBlur stdDeviation="1"/>
<feComposite in2="hardAlpha" operator="arithmetic" k2="-1" k3="1"/>
<feColorMatrix type="matrix" values="0 0 0 0 0 0 0 0 0 0 0 0 0 0 0 0 0 0 0.25 0"/>
<feBlend mode="normal" in2="shape" result="effect1_innerShadow_637_2925"/>
</filter>
<filter id="filter3_d_637_2925" x="28.5416" y="27.8718" width="21.3074" height="22.2372" filterUnits="userSpaceOnUse" color-interpolation-filters="sRGB">
<feFlood flood-opacity="0" result="BackgroundImageFix"/>
<feColorMatrix in="SourceAlpha" type="matrix" values="0 0 0 0 0 0 0 0 0 0 0 0 0 0 0 0 0 0 127 0" result="hardAlpha"/>
<feOffset dx="1" dy="2"/>
<feGaussianBlur stdDeviation="0.8"/>
<feComposite in2="hardAlpha" operator="out"/>
<feColorMatrix type="matrix" values="0 0 0 0 0 0 0 0 0 0 0 0 0 0 0 0 0 0 0.25 0"/>
<feBlend mode="normal" in2="BackgroundImageFix" result="effect1_dropShadow_637_2925"/>
<feBlend mode="normal" in="SourceGraphic" in2="effect1_dropShadow_637_2925" result="shape"/>
</filter>
<filter id="filter4_d_637_2925" x="19.9645" y="27.8718" width="15.5896" height="19.2443" filterUnits="userSpaceOnUse" color-interpolation-filters="sRGB">
<feFlood flood-opacity="0" result="BackgroundImageFix"/>
<feColorMatrix in="SourceAlpha" type="matrix" values="0 0 0 0 0 0 0 0 0 0 0 0 0 0 0 0 0 0 127 0" result="hardAlpha"/>
<feOffset dx="1" dy="2"/>
<feGaussianBlur stdDeviation="0.8"/>
<feComposite in2="hardAlpha" operator="out"/>
<feColorMatrix type="matrix" values="0 0 0 0 0 0 0 0 0 0 0 0 0 0 0 0 0 0 0.25 0"/>
<feBlend mode="normal" in2="BackgroundImageFix" result="effect1_dropShadow_637_2925"/>
<feBlend mode="normal" in="SourceGraphic" in2="effect1_dropShadow_637_2925" result="shape"/>
</filter>
<filter id="filter5_d_637_2925" x="12.8042" y="43.3401" width="45.3693" height="16.3397" filterUnits="userSpaceOnUse" color-interpolation-filters="sRGB">
<feFlood flood-opacity="0" result="BackgroundImageFix"/>
<feColorMatrix in="SourceAlpha" type="matrix" values="0 0 0 0 0 0 0 0 0 0 0 0 0 0 0 0 0 0 127 0" result="hardAlpha"/>
<feOffset dx="2" dy="1"/>
<feGaussianBlur stdDeviation="0.65"/>
<feComposite in2="hardAlpha" operator="out"/>
<feColorMatrix type="matrix" values="0 0 0 0 0 0 0 0 0 0 0 0 0 0 0 0 0 0 0.25 0"/>
<feBlend mode="normal" in2="BackgroundImageFix" result="effect1_dropShadow_637_2925"/>
<feBlend mode="normal" in="SourceGraphic" in2="effect1_dropShadow_637_2925" result="shape"/>
</filter>
<filter id="filter6_d_637_2925" x="25.2449" y="10.2496" width="17.6078" height="17.1483" filterUnits="userSpaceOnUse" color-interpolation-filters="sRGB">
<feFlood flood-opacity="0" result="BackgroundImageFix"/>
<feColorMatrix in="SourceAlpha" type="matrix" values="0 0 0 0 0 0 0 0 0 0 0 0 0 0 0 0 0 0 127 0" result="hardAlpha"/>
<feOffset/>
<feGaussianBlur stdDeviation="3.15"/>
<feComposite in2="hardAlpha" operator="out"/>
<feColorMatrix type="matrix" values="0 0 0 0 1 0 0 0 0 1 0 0 0 0 1 0 0 0 0.25 0"/>
<feBlend mode="normal" in2="BackgroundImageFix" result="effect1_dropShadow_637_2925"/>
<feBlend mode="normal" in="SourceGraphic" in2="effect1_dropShadow_637_2925" result="shape"/>
</filter>
<filter id="filter7_d_637_2925" x="25.2449" y="53.9666" width="17.6078" height="17.1483" filterUnits="userSpaceOnUse" color-interpolation-filters="sRGB">
<feFlood flood-opacity="0" result="BackgroundImageFix"/>
<feColorMatrix in="SourceAlpha" type="matrix" values="0 0 0 0 0 0 0 0 0 0 0 0 0 0 0 0 0 0 127 0" result="hardAlpha"/>
<feOffset/>
<feGaussianBlur stdDeviation="3.15"/>
<feComposite in2="hardAlpha" operator="out"/>
<feColorMatrix type="matrix" values="0 0 0 0 1 0 0 0 0 1 0 0 0 0 1 0 0 0 0.25 0"/>
<feBlend mode="normal" in2="BackgroundImageFix" result="effect1_dropShadow_637_2925"/>
<feBlend mode="normal" in="SourceGraphic" in2="effect1_dropShadow_637_2925" result="shape"/>
</filter>
<filter id="filter8_d_637_2925" x="44.5271" y="20.3321" width="17.5937" height="17.2902" filterUnits="userSpaceOnUse" color-interpolation-filters="sRGB">
<feFlood flood-opacity="0" result="BackgroundImageFix"/>
<feColorMatrix in="SourceAlpha" type="matrix" values="0 0 0 0 0 0 0 0 0 0 0 0 0 0 0 0 0 0 127 0" result="hardAlpha"/>
<feOffset/>
<feGaussianBlur stdDeviation="3.15"/>
<feComposite in2="hardAlpha" operator="out"/>
<feColorMatrix type="matrix" values="0 0 0 0 1 0 0 0 0 1 0 0 0 0 1 0 0 0 0.25 0"/>
<feBlend mode="normal" in2="BackgroundImageFix" result="effect1_dropShadow_637_2925"/>
<feBlend mode="normal" in="SourceGraphic" in2="effect1_dropShadow_637_2925" result="shape"/>
</filter>
<filter id="filter9_d_637_2925" x="6.45098" y="20.3321" width="17.5937" height="17.2902" filterUnits="userSpaceOnUse" color-interpolation-filters="sRGB">
<feFlood flood-opacity="0" result="BackgroundImageFix"/>
<feColorMatrix in="SourceAlpha" type="matrix" values="0 0 0 0 0 0 0 0 0 0 0 0 0 0 0 0 0 0 127 0" result="hardAlpha"/>
<feOffset/>
<feGaussianBlur stdDeviation="3.15"/>
<feComposite in2="hardAlpha" operator="out"/>
<feColorMatrix type="matrix" values="0 0 0 0 1 0 0 0 0 1 0 0 0 0 1 0 0 0 0.25 0"/>
<feBlend mode="normal" in2="BackgroundImageFix" result="effect1_dropShadow_637_2925"/>
<feBlend mode="normal" in="SourceGraphic" in2="effect1_dropShadow_637_2925" result="shape"/>
</filter>
<linearGradient id="paint0_linear_637_2925" x1="39.1158" y1="10.3548" x2="36.9212" y2="21.5775" gradientUnits="userSpaceOnUse">
<stop stop-color="#B965D7"/>
<stop offset="1" stop-color="#7E4DAF"/>
</linearGradient>
<linearGradient id="paint1_linear_637_2925" x1="36.6208" y1="15.3827" x2="30.0705" y2="28.1047" gradientUnits="userSpaceOnUse">
<stop stop-color="#C068DC"/>
<stop offset="1" stop-color="#804BB2"/>
</linearGradient>
<linearGradient id="paint2_linear_637_2925" x1="69.7319" y1="22.9594" x2="59.8467" y2="20.223" gradientUnits="userSpaceOnUse">
<stop stop-color="#8427AC"/>
<stop offset="1" stop-color="#461C88"/>
</linearGradient>
<linearGradient id="paint3_linear_637_2925" x1="67.208" y1="37.6719" x2="57.3227" y2="34.9354" gradientUnits="userSpaceOnUse">
<stop stop-color="#B251D2"/>
<stop offset="1" stop-color="#431A80"/>
</linearGradient>
<linearGradient id="paint4_linear_637_2925" x1="6.6275" y1="19.8067" x2="12.0886" y2="36.2033" gradientUnits="userSpaceOnUse">
<stop stop-color="#C66BE0"/>
<stop offset="1" stop-color="#6440A2"/>
</linearGradient>
<linearGradient id="paint5_linear_637_2925" x1="9.15191" y1="33.2581" x2="14.613" y2="49.6547" gradientUnits="userSpaceOnUse">
<stop stop-color="#C068DC"/>
<stop offset="1" stop-color="#7746A9"/>
</linearGradient>
<linearGradient id="paint6_linear_637_2925" x1="22.8264" y1="16.4442" x2="47.4665" y2="18.8324" gradientUnits="userSpaceOnUse">
<stop stop-color="#8176FF"/>
<stop offset="1" stop-color="#300A6D"/>
</linearGradient>
<linearGradient id="paint7_linear_637_2925" x1="23.5393" y1="18.2126" x2="47.1086" y2="19.4903" gradientUnits="userSpaceOnUse">
<stop stop-color="#8973FC"/>
<stop offset="1" stop-color="#39009F"/>
</linearGradient>
<linearGradient id="paint8_linear_637_2925" x1="33.4555" y1="27.8718" x2="44.2978" y2="28.4997" gradientUnits="userSpaceOnUse">
<stop stop-color="#E37BEE"/>
<stop offset="1" stop-color="#6938C5"/>
</linearGradient>
<linearGradient id="paint9_linear_637_2925" x1="23.516" y1="27.8718" x2="29.253" y2="15.9606" gradientUnits="userSpaceOnUse">
<stop stop-color="#CC6EE6"/>
<stop offset="0.9999" stop-color="#1C6A8B"/>
<stop offset="1" stop-color="#1A6889"/>
<stop offset="1" stop-color="#216F91"/>
<stop offset="1" stop-color="#0A8593"/>
</linearGradient>
<linearGradient id="paint10_linear_637_2925" x1="33.9729" y1="58.2703" x2="34.3823" y2="48.3373" gradientUnits="userSpaceOnUse">
<stop stop-color="#30019F"/>
<stop offset="0.994792" stop-color="#6F43D6"/>
</linearGradient>
<linearGradient id="paint11_linear_637_2925" x1="35.921" y1="21.909" x2="31.6396" y2="21.6536" gradientUnits="userSpaceOnUse">
<stop offset="0.0001" stop-color="#B66FF9"/>
<stop offset="1" stop-color="#D9C9FD"/>
</linearGradient>
<linearGradient id="paint12_linear_637_2925" x1="35.921" y1="65.6261" x2="31.6396" y2="65.3707" gradientUnits="userSpaceOnUse">
<stop stop-color="#B876F9"/>
<stop offset="1" stop-color="#D9C9FD"/>
</linearGradient>
<linearGradient id="paint13_linear_637_2925" x1="55.4653" y1="24.0215" x2="57.6558" y2="28.8013" gradientUnits="userSpaceOnUse">
<stop stop-color="#D6C2FC"/>
<stop offset="1" stop-color="#B874F9"/>
</linearGradient>
<linearGradient id="paint14_linear_637_2925" x1="17.3891" y1="24.0215" x2="19.5796" y2="28.8013" gradientUnits="userSpaceOnUse">
<stop stop-color="#D6C3FC"/>
<stop offset="1" stop-color="#B877F9"/>
</linearGradient>
</defs>
</svg>
