<svg width="67" height="71" viewBox="0 0 67 71" fill="none" xmlns="http://www.w3.org/2000/svg">
<path d="M57.7377 51.4431V27.3248L66.0766 16.3394L54.927 20.1715L36.6647 10.3694L31.843 0.5L28.2664 10.3694L9.19708 20.1715L4.59854 18.2555L0 16.3394L6.64283 27.3248V51.3947C6.64283 54.7852 8.87052 57.7728 12.12 58.7403L24.4173 62.4016C25.9249 62.8505 27.2578 63.7523 28.2352 64.9847L32.6094 70.5L36.7351 65.0616C37.7069 63.7805 39.057 62.8376 40.5943 62.3662L52.3203 58.7706C55.5398 57.7835 57.7377 54.8105 57.7377 51.4431Z" fill="url(#paint0_linear_622_11154)"/>
<g filter="url(#filter0_i_622_11154)">
<path d="M28.3165 13.0355L11.8047 23.6935C9.61786 25.105 8.29688 27.5299 8.29688 30.1328V50.3365C8.29688 53.779 10.5921 56.7991 13.9089 57.7209L30.451 62.3182C31.8125 62.6966 33.2521 62.6912 34.6107 62.3027L50.5279 57.7505C53.8172 56.8097 56.0846 53.8029 56.0846 50.3817V30.0677C56.0846 27.5006 54.7994 25.104 52.661 23.6836L36.7135 13.0906C34.1745 11.4041 30.8775 11.3824 28.3165 13.0355Z" fill="url(#paint1_linear_622_11154)"/>
</g>
<g filter="url(#filter1_d_622_11154)">
<path d="M26.494 38.0937C26.473 37.903 26.494 37.6982 26.487 37.4863C26.487 37.3803 26.5081 37.2603 26.5431 37.1473C26.5712 37.0413 26.5712 36.9283 26.5923 36.8295C26.6344 36.6388 26.6905 36.4551 26.7326 36.2644C26.8028 35.9537 26.9362 35.6641 27.0555 35.3675C27.1748 35.0638 27.3432 34.7813 27.5117 34.4988C27.6731 34.2233 27.8696 33.9762 28.0802 33.729C28.375 33.397 28.6908 33.0792 28.9926 32.7543C29.2031 32.5283 29.4207 32.3164 29.6313 32.0975C30.0383 31.6879 30.4524 31.2782 30.8454 30.8545C31.2666 30.4095 31.6947 29.9787 32.1228 29.5338C32.3123 29.336 32.5229 29.1524 32.7053 28.9405C33.0071 28.5874 33.351 28.2766 33.6739 27.9447C33.8564 27.761 34.0388 27.5774 34.2143 27.3867C34.6354 26.9277 35.0986 26.511 35.5197 26.0448C35.8707 25.6564 36.2567 25.2962 36.6146 24.9148C36.8883 24.6252 37.162 24.3427 37.4287 24.0602C37.6604 23.8201 37.913 23.6153 38.1657 23.4034C38.4183 23.1915 38.6921 23.022 38.9728 22.8525C39.2746 22.676 39.6045 22.5347 39.9343 22.4146C40.0817 22.3652 40.2221 22.2946 40.3695 22.2663C40.4958 22.2451 40.6151 22.2028 40.7414 22.1886C40.938 22.1674 41.1275 22.1251 41.324 22.0968C41.6187 22.0544 41.9205 22.0544 42.2153 22.0544C42.5943 22.0544 42.9663 22.1109 43.3312 22.1816C43.7383 22.2593 44.1314 22.3723 44.5033 22.5418C44.8683 22.7042 45.2262 22.902 45.5631 23.128C45.9491 23.3963 46.3071 23.7 46.6369 24.039C46.9317 24.3357 47.1703 24.6747 47.409 25.0137C47.7108 25.4586 47.9283 25.953 48.1108 26.4615C48.2652 26.8994 48.3635 27.3443 48.4196 27.8034C48.4477 28.0647 48.4828 28.3261 48.4758 28.5944C48.4687 28.8699 48.4758 29.1453 48.4337 29.4208C48.3845 29.7386 48.3424 30.0635 48.2582 30.3742C48.1529 30.7556 48.0266 31.1299 47.8581 31.483C47.5704 32.1187 47.1914 32.6837 46.7212 33.1993C46.3983 33.5595 46.0544 33.9055 45.7175 34.2445C45.3736 34.5835 45.0437 34.9367 44.7209 35.2898C44.5805 35.4452 44.4402 35.6006 44.2787 35.7347C44.1875 35.8195 44.1033 35.9184 44.0191 36.0031C43.9559 36.0667 43.8927 36.1232 43.8296 36.1868C43.4786 36.554 43.1207 36.9071 42.7768 37.2815C42.5873 37.4863 42.3978 37.6911 42.2083 37.8888C41.8855 38.2208 41.5626 38.5527 41.2327 38.8847C40.9029 39.2166 40.566 39.5415 40.2502 39.8876C39.815 40.3608 39.3588 40.8198 38.9167 41.293C38.6359 41.5897 38.3341 41.8722 38.0464 42.1617C37.7586 42.4513 37.4709 42.7409 37.1831 43.0304C37.0217 43.1929 36.8322 43.3271 36.6567 43.4683C36.4111 43.659 36.1514 43.8285 35.8777 43.9698C35.4495 44.1887 35.0004 44.3653 34.5371 44.4995C34.2564 44.5772 33.9616 44.6195 33.6739 44.676C33.5967 44.6902 33.5125 44.6902 33.4353 44.6972C33.0563 44.7255 32.6773 44.6902 32.2983 44.6902C32.186 44.6902 32.0737 44.6548 31.9614 44.6407C31.828 44.6195 31.6947 44.5842 31.5613 44.556C31.3297 44.5065 31.1051 44.4359 30.8805 44.3723C30.6138 44.2946 30.3612 44.1675 30.1085 44.0545C29.9401 43.9768 29.7927 43.8638 29.6313 43.7791C29.4979 43.7084 29.3786 43.6237 29.2593 43.5389C29.0979 43.4118 28.9364 43.2847 28.782 43.1576C28.5645 42.9739 28.3609 42.7691 28.1714 42.5572C28.0521 42.416 27.9258 42.2818 27.8135 42.1335C27.617 41.8722 27.4555 41.5897 27.3011 41.3072C27.1538 41.0317 27.0064 40.7563 26.9081 40.4596C26.8028 40.163 26.7326 39.8593 26.6414 39.5627C26.6063 39.4426 26.6063 39.3084 26.5782 39.1813C26.501 38.8211 26.48 38.468 26.494 38.0937ZM30.4454 42.8115C30.4665 42.7762 30.4594 42.7479 30.4594 42.7197C30.4594 42.3948 30.4594 42.0699 30.4594 41.7521C30.4594 40.0783 30.4594 38.4115 30.4594 36.7376C30.4594 36.6811 30.4665 36.6458 30.5366 36.6458C31.049 36.6458 31.5613 36.6458 32.0737 36.6529C32.1439 36.6529 32.1719 36.6388 32.1649 36.5611C32.1649 35.9042 32.1649 35.2404 32.1649 34.5835C32.1649 34.1245 32.1649 33.6725 32.1649 33.2134C32.1649 33.1004 32.1649 33.1004 32.2842 33.0933C32.3474 33.0933 32.4176 33.1004 32.4807 33.0792C32.5158 33.0721 32.565 33.0933 32.572 33.1498C32.572 33.2205 32.586 33.284 32.586 33.3476C32.586 34.414 32.586 35.4805 32.586 36.554C32.586 36.6246 32.6071 36.6458 32.6773 36.6388C33.1896 36.6388 33.702 36.6388 34.2143 36.6317C34.2845 36.6317 34.3055 36.6458 34.3055 36.7164C34.3055 38.6304 34.3055 40.5444 34.3055 42.4513C34.3055 42.6844 34.3055 42.9245 34.3055 43.1576C34.3055 43.2141 34.3196 43.2353 34.3827 43.2141C34.467 43.1858 34.5512 43.1717 34.6284 43.1364C34.7758 43.0728 34.9302 43.0163 35.0776 42.9386C35.246 42.8468 35.4215 42.7691 35.5899 42.6702C35.7934 42.5502 35.9759 42.416 36.1654 42.2677C36.2777 42.1829 36.383 42.0982 36.3339 41.9287C36.3339 41.9216 36.3339 41.9145 36.3339 41.9004C36.3339 39.0824 36.3409 36.2574 36.3409 33.4394C36.3409 32.5566 36.3409 31.6737 36.3409 30.7909C36.3409 30.6779 36.3409 30.6779 36.4532 30.6779C36.9445 30.6779 37.4428 30.6779 37.9341 30.6779C38.0183 30.6779 38.0464 30.6497 38.0464 30.5649C38.0393 29.9858 38.0464 29.3996 38.0464 28.8204C38.0464 28.2907 38.0464 27.761 38.0464 27.2313C38.0464 27.1466 38.0744 27.1254 38.1516 27.1254C38.2288 27.1325 38.306 27.1325 38.3762 27.1254C38.4394 27.1183 38.4534 27.1466 38.4534 27.2031C38.4534 28.3049 38.4534 29.4066 38.4534 30.5155C38.4534 30.5508 38.4605 30.5861 38.4464 30.6143C38.4183 30.6779 38.4534 30.6779 38.4955 30.6779C38.6219 30.6779 38.7552 30.6779 38.8816 30.6779C39.2746 30.6779 39.6676 30.6779 40.0536 30.6779C40.1238 30.6779 40.1519 30.6991 40.1519 30.7697C40.1449 30.8615 40.1449 30.9604 40.1449 31.0522C40.1449 33.3829 40.1449 35.7065 40.1449 38.0372C40.1449 38.0654 40.1449 38.0866 40.1519 38.1149C40.173 38.1714 40.187 38.1784 40.2291 38.136C40.3133 38.0442 40.3975 37.9595 40.4818 37.8747C40.9309 37.4086 41.3871 36.9425 41.8363 36.4763C42.3908 35.9042 42.9452 35.3322 43.5067 34.7601C43.5488 34.7177 43.5629 34.6683 43.5629 34.6118C43.5629 33.7643 43.5629 32.9097 43.5629 32.0622C43.5629 31.9916 43.5418 31.9704 43.4716 31.9704C42.9803 31.9774 42.489 31.9704 41.9977 31.9704C41.8644 31.9704 41.8574 31.9986 41.8574 31.8362C41.8574 29.3078 41.8574 26.7723 41.8574 24.2439C41.8574 24.1803 41.8293 24.1238 41.8363 24.0602C41.8714 23.8554 41.8504 23.6435 41.8504 23.4387C41.8504 23.2975 41.8433 23.2975 41.71 23.3045C41.6889 23.3045 41.6609 23.3045 41.6398 23.3045C41.4924 23.3187 41.345 23.3187 41.1976 23.3469C40.8748 23.4105 40.5519 23.4952 40.2361 23.6153C39.8712 23.7495 39.5273 23.926 39.2114 24.145C38.8184 24.4134 38.4745 24.7524 38.1376 25.0914C37.8498 25.3809 37.5761 25.6705 37.2884 25.9601C37.1691 26.0801 37.0497 26.1931 36.9375 26.3132C36.5865 26.6805 36.2356 27.0548 35.8847 27.4291C35.8005 27.5209 35.7162 27.6269 35.625 27.7116C35.4355 27.8952 35.26 28.0859 35.0705 28.2696C34.5582 28.7781 34.0459 29.2936 33.5616 29.8304C33.2738 30.1482 32.972 30.4448 32.6702 30.7485C32.1649 31.2641 31.6456 31.7726 31.1472 32.2952C30.6419 32.8249 30.1436 33.3546 29.6313 33.8773C29.2663 34.2516 28.8943 34.6189 28.6136 35.0709C28.4101 35.3887 28.2276 35.7206 28.0872 36.0738C27.9047 36.5328 27.7924 37.006 27.7433 37.4933C27.6872 38.0372 27.6942 38.581 27.8065 39.1177C27.8837 39.485 27.9889 39.8452 28.1223 40.1983C28.1925 40.389 28.2978 40.5656 28.396 40.7421C28.8943 41.632 29.5681 42.3171 30.4454 42.8115ZM45.6614 24.7877C45.6544 24.8301 45.6544 24.8512 45.6544 24.8724C45.6544 26.0024 45.6544 27.1254 45.6544 28.2554C45.6544 29.4631 45.6544 30.6708 45.6544 31.8856C45.6544 31.9633 45.6403 31.9986 45.5491 31.9986C45.0437 31.9916 44.5454 31.9986 44.0401 31.9986C43.9629 31.9986 43.9419 32.0269 43.9419 32.0975C43.9419 32.7896 43.9419 33.4888 43.9419 34.181C43.9419 34.2163 43.9419 34.2516 43.9419 34.2869C44.1243 34.1103 44.2998 33.9408 44.4753 33.7643C44.763 33.4676 45.0508 33.171 45.3385 32.8744C45.6894 32.5142 46.0474 32.1611 46.3281 31.7373C46.8826 30.9039 47.1774 29.9787 47.2405 28.9829C47.2756 28.4108 47.2124 27.8458 47.0721 27.2878C46.9247 26.7016 46.6861 26.1578 46.3492 25.6564C46.1597 25.3386 45.9211 25.0772 45.6614 24.7877Z" fill="url(#paint2_linear_622_11154)"/>
</g>
<g filter="url(#filter2_d_622_11154)">
<path d="M25.4873 41.0703C25.4103 41.0423 25.3683 40.9862 25.3334 40.9371C25.2074 40.7687 25.0535 40.6214 24.9135 40.4671C24.7456 40.2777 24.5707 40.0883 24.3888 39.906C24.0389 39.5482 23.6891 39.1905 23.3392 38.8328C23.1363 38.6223 22.9334 38.4189 22.7305 38.2155C22.5625 38.0472 22.4086 37.8648 22.2407 37.7035C22.1637 37.6263 22.0937 37.5351 21.9958 37.472C21.9118 37.4229 21.8838 37.3177 21.8069 37.2475C21.583 37.0441 21.3871 36.8196 21.1631 36.6162C20.9882 36.4549 20.8483 36.2515 20.6734 36.0902C20.5614 35.992 20.4634 35.8727 20.3445 35.7815C20.2885 35.7465 20.2675 35.6693 20.2186 35.6202C19.9877 35.3957 19.7568 35.1783 19.5398 34.9398C19.246 34.6101 18.9241 34.3085 18.6302 33.9788C18.4133 33.7403 18.1754 33.5159 17.9515 33.2844C17.6227 32.9407 17.3218 32.569 17.0629 32.1691C16.937 31.9727 16.839 31.7623 16.7271 31.5589C16.6221 31.3695 16.5591 31.1661 16.4752 30.9767C16.3632 30.7382 16.3282 30.4857 16.2513 30.2402C16.2023 30.0718 16.1813 29.8965 16.1463 29.7281C16.0623 29.2582 16.0833 28.7882 16.0693 28.3112C16.0693 28.185 16.0833 28.0587 16.0763 27.9325C16.0763 27.8343 16.1183 27.7291 16.1323 27.6238C16.1463 27.5607 16.1393 27.4906 16.1463 27.4274C16.1603 27.3222 16.1953 27.224 16.2233 27.1188C16.3072 26.7611 16.4192 26.4174 16.5521 26.0737C16.6291 25.8702 16.7061 25.6598 16.825 25.4774C16.9789 25.239 17.1189 24.9864 17.2868 24.762C17.4547 24.5305 17.6227 24.299 17.8256 24.0956C18.0005 23.9132 18.1824 23.7379 18.3783 23.5695C18.6932 23.289 19.0361 23.0435 19.4069 22.8401C19.6308 22.7208 19.8617 22.6086 20.0926 22.5034C20.2605 22.4262 20.4285 22.3631 20.6104 22.321C20.7503 22.2859 20.8763 22.2228 21.0232 22.2088C21.2471 22.1877 21.457 22.1316 21.6739 22.0965C21.9888 22.0544 22.3037 22.0544 22.6185 22.0544C22.7445 22.0544 22.8704 22.0544 22.9894 22.0615C23.1153 22.0685 23.2413 22.0895 23.3672 22.1106C23.5421 22.1386 23.7171 22.2088 23.899 22.2158C24.0599 22.2228 24.1928 22.307 24.3398 22.342C24.6197 22.4052 24.8716 22.5384 25.1304 22.6507C25.4453 22.7909 25.7322 22.9663 26.0121 23.1627C26.215 23.303 26.4249 23.4433 26.6138 23.6116C26.7467 23.7309 26.8727 23.8571 26.9916 23.9834C27.3835 24.3832 27.7753 24.783 28.1671 25.1828C28.594 25.6247 29.0208 26.0737 29.4546 26.5086C29.9864 27.0416 30.4971 27.6028 31.0359 28.1289C31.0569 28.1499 31.0779 28.171 31.0989 28.192C31.1269 28.2201 31.1199 28.2481 31.0919 28.2762C30.896 28.4726 30.7071 28.662 30.5111 28.8584C30.4482 28.9285 30.3712 28.9916 30.3152 29.0618C30.2662 29.1179 30.2313 29.0898 30.1963 29.0618C30.0423 28.9075 29.8744 28.7602 29.7415 28.5848C29.6015 28.4094 29.4196 28.2832 29.2937 28.1008C29.2377 28.0237 29.1537 27.9675 29.0907 27.8974C28.8249 27.6238 28.566 27.3362 28.2931 27.0767C28.0482 26.8382 27.8173 26.5787 27.5724 26.3332C27.4045 26.1649 27.2225 26.0105 27.0686 25.8282C26.8587 25.5756 26.6208 25.3582 26.3969 25.1197C26.152 24.8602 25.9071 24.6007 25.6202 24.3832C25.4523 24.2569 25.2774 24.1307 25.0885 24.0255C24.9345 23.9343 24.7736 23.8571 24.6197 23.773C24.4727 23.6958 24.3188 23.6327 24.1579 23.5836C24.0249 23.5415 23.885 23.4924 23.745 23.4573C23.5281 23.4012 23.3112 23.3661 23.0943 23.3311C22.9824 23.31 22.8704 23.317 22.7585 23.31C22.6885 23.303 22.6745 23.3311 22.6745 23.3942C22.6745 23.6116 22.6745 23.8291 22.6745 24.0395C22.6745 24.7199 22.6745 25.4003 22.6745 26.0807C22.6745 27.715 22.6815 29.3564 22.6745 30.9907C22.6745 31.2713 22.6885 31.5519 22.6815 31.8395C22.6815 31.8956 22.6745 31.9306 22.5975 31.9306C22.0937 31.9306 21.59 31.9306 21.0862 31.9306C21.0022 31.9306 20.9812 31.9587 20.9812 32.0639C20.9812 32.8145 20.9812 33.558 20.9812 34.3085C20.9812 34.3997 20.9882 34.4909 20.9742 34.5821C20.9672 34.6171 20.9812 34.6382 21.0022 34.6662C21.478 35.1502 21.9538 35.6342 22.4296 36.1252C22.9474 36.6583 23.4652 37.1914 23.9829 37.7245C24.1089 37.8508 24.2418 37.97 24.3748 38.0963C24.3748 37.8858 24.3748 37.6684 24.3748 37.4509C24.3748 35.2134 24.3748 32.9828 24.3748 30.7452C24.3748 30.6681 24.4028 30.647 24.4727 30.647C24.9765 30.647 25.4803 30.647 25.9841 30.647C26.068 30.647 26.082 30.619 26.082 30.5418C26.082 29.4406 26.082 28.3463 26.082 27.2451C26.082 27.1188 26.082 27.1188 26.208 27.1188C26.264 27.1188 26.3269 27.1258 26.3829 27.1188C26.4599 27.1118 26.4879 27.1398 26.4879 27.224C26.4879 27.6238 26.4879 28.0237 26.4879 28.4235C26.4879 29.1389 26.4879 29.8474 26.4879 30.5628C26.4879 30.64 26.5159 30.6681 26.5858 30.64C26.6348 30.619 26.6838 30.647 26.7258 30.647C27.1806 30.647 27.6284 30.647 28.0832 30.647C28.1601 30.647 28.2021 30.6681 28.1811 30.7522C28.1531 30.9136 28.1671 31.0749 28.1671 31.2292C28.1671 31.2713 28.1531 31.2994 28.1252 31.3274C27.9642 31.4817 27.8243 31.6431 27.6634 31.7974C27.4884 31.9727 27.3135 32.1481 27.1386 32.3305C26.9427 32.5269 26.7677 32.7373 26.5998 32.9547C26.4809 33.1091 26.3689 33.2634 26.264 33.4247C26.082 33.6983 25.9071 33.9788 25.7672 34.2805C25.6342 34.561 25.5083 34.8486 25.4033 35.1432C25.3124 35.4027 25.2144 35.6553 25.1584 35.9218C25.1095 36.1603 25.0465 36.3918 25.0115 36.6303C24.9905 36.7916 24.9765 36.9529 24.9555 37.1142C24.9275 37.3317 24.9205 37.5421 24.9065 37.7596C24.8925 37.963 24.8855 38.1664 24.9135 38.3698C24.9275 38.468 24.9205 38.5732 24.9275 38.6714C24.9485 38.8678 24.9695 39.0642 24.9975 39.2536C25.0465 39.6043 25.1374 39.948 25.2284 40.2847C25.2774 40.4671 25.3334 40.6425 25.4103 40.8108C25.4313 40.895 25.4733 40.9721 25.4873 41.0703ZM20.5404 34.1612C20.5404 34.1472 20.5474 34.1402 20.5474 34.1332C20.5474 33.4457 20.5474 32.7583 20.5474 32.0709C20.5474 31.8956 20.5474 31.9026 20.3795 31.9096C19.8967 31.9306 19.4209 31.9166 18.9381 31.9166C18.8751 31.9166 18.8471 31.8956 18.8471 31.8254C18.8471 29.5317 18.8471 27.231 18.8471 24.9373C18.8471 24.8953 18.8681 24.8321 18.8331 24.8181C18.7982 24.8041 18.7772 24.8672 18.7492 24.8953C18.4343 25.1969 18.1894 25.5546 17.9725 25.9264C17.6786 26.4384 17.4897 26.9855 17.3708 27.5607C17.2588 28.1008 17.2518 28.6479 17.2938 29.1951C17.3148 29.4616 17.3778 29.7211 17.4338 29.9807C17.5737 30.5628 17.8256 31.103 18.1544 31.601C18.4273 32.0218 18.7702 32.3796 19.127 32.7373C19.3229 32.9407 19.5189 33.1441 19.7148 33.3475C19.9527 33.586 20.1906 33.8245 20.4215 34.07C20.4565 34.1051 20.4914 34.1402 20.5404 34.1612Z" fill="url(#paint3_linear_622_11154)"/>
</g>
<path d="M6.64355 54.1782C6.64355 54.1782 18.1443 57.9214 32.1032 57.9214C46.0621 57.9214 57.7384 54.1782 57.7384 54.1782V41.2205C57.7384 41.2205 42.398 46.2728 32.1032 46.2596C21.8751 46.2465 6.64355 41.2205 6.64355 41.2205V54.1782Z" fill="url(#paint4_linear_622_11154)"/>
<path d="M28.7783 49.5513H30.2169V54.3466H28.7783V49.5513Z" fill="#528DFF"/>
<path d="M33.1704 54.0859L31.0547 49.7939H32.0296L33.9171 53.6751H33.3571L35.2653 49.7939H36.1642L34.0554 54.0859H33.1704Z" fill="#528DFF"/>
<path fill-rule="evenodd" clip-rule="evenodd" d="M30.6445 49.5383H32.19L33.6405 52.5208L35.1069 49.5383H36.575L34.2151 54.3412H33.0121L30.6445 49.5383ZM33.3548 53.1017L31.8703 50.0493H31.4661L33.163 53.4918L33.3548 53.1017ZM34.0881 53.4411L33.9236 53.103L35.425 50.0493H35.7546L34.0881 53.4411Z" fill="#528DFF"/>
<g filter="url(#filter3_d_622_11154)">
<path d="M33.3303 13.274C32.937 13.9552 31.9537 13.9552 31.5603 13.274L29.5691 9.82506C29.1758 9.14379 29.6674 8.29221 30.4541 8.29221L34.4365 8.29221C35.2232 8.29221 35.7149 9.14379 35.3215 9.82506L33.3303 13.274Z" fill="url(#paint5_linear_622_11154)"/>
</g>
<g filter="url(#filter4_d_622_11154)">
<path d="M33.3303 66.9231C32.937 67.6044 31.9537 67.6044 31.5603 66.9231L29.5691 63.4742C29.1758 62.793 29.6674 61.9414 30.4541 61.9414L34.4365 61.9414C35.2232 61.9414 35.7149 62.793 35.3215 63.4742L33.3303 66.9231Z" fill="url(#paint6_linear_622_11154)"/>
</g>
<defs>
<filter id="filter0_i_622_11154" x="8.29688" y="11.8105" width="48.7881" height="51.7876" filterUnits="userSpaceOnUse" color-interpolation-filters="sRGB">
<feFlood flood-opacity="0" result="BackgroundImageFix"/>
<feBlend mode="normal" in="SourceGraphic" in2="BackgroundImageFix" result="shape"/>
<feColorMatrix in="SourceAlpha" type="matrix" values="0 0 0 0 0 0 0 0 0 0 0 0 0 0 0 0 0 0 127 0" result="hardAlpha"/>
<feOffset dx="1" dy="1"/>
<feGaussianBlur stdDeviation="1"/>
<feComposite in2="hardAlpha" operator="arithmetic" k2="-1" k3="1"/>
<feColorMatrix type="matrix" values="0 0 0 0 0 0 0 0 0 0 0 0 0 0 0 0 0 0 0.25 0"/>
<feBlend mode="normal" in2="shape" result="effect1_innerShadow_622_11154"/>
</filter>
<filter id="filter1_d_622_11154" x="25.8844" y="22.0544" width="25.1922" height="26.2538" filterUnits="userSpaceOnUse" color-interpolation-filters="sRGB">
<feFlood flood-opacity="0" result="BackgroundImageFix"/>
<feColorMatrix in="SourceAlpha" type="matrix" values="0 0 0 0 0 0 0 0 0 0 0 0 0 0 0 0 0 0 127 0" result="hardAlpha"/>
<feOffset dx="1" dy="2"/>
<feGaussianBlur stdDeviation="0.8"/>
<feComposite in2="hardAlpha" operator="out"/>
<feColorMatrix type="matrix" values="0 0 0 0 0 0 0 0 0 0 0 0 0 0 0 0 0 0 0.25 0"/>
<feBlend mode="normal" in2="BackgroundImageFix" result="effect1_dropShadow_622_11154"/>
<feBlend mode="normal" in="SourceGraphic" in2="effect1_dropShadow_622_11154" result="shape"/>
</filter>
<filter id="filter2_d_622_11154" x="15.4693" y="22.0544" width="18.2469" height="22.6159" filterUnits="userSpaceOnUse" color-interpolation-filters="sRGB">
<feFlood flood-opacity="0" result="BackgroundImageFix"/>
<feColorMatrix in="SourceAlpha" type="matrix" values="0 0 0 0 0 0 0 0 0 0 0 0 0 0 0 0 0 0 127 0" result="hardAlpha"/>
<feOffset dx="1" dy="2"/>
<feGaussianBlur stdDeviation="0.8"/>
<feComposite in2="hardAlpha" operator="out"/>
<feColorMatrix type="matrix" values="0 0 0 0 0 0 0 0 0 0 0 0 0 0 0 0 0 0 0.25 0"/>
<feBlend mode="normal" in2="BackgroundImageFix" result="effect1_dropShadow_622_11154"/>
<feBlend mode="normal" in="SourceGraphic" in2="effect1_dropShadow_622_11154" result="shape"/>
</filter>
<filter id="filter3_d_622_11154" x="23.1307" y="1.99224" width="18.6293" height="18.0927" filterUnits="userSpaceOnUse" color-interpolation-filters="sRGB">
<feFlood flood-opacity="0" result="BackgroundImageFix"/>
<feColorMatrix in="SourceAlpha" type="matrix" values="0 0 0 0 0 0 0 0 0 0 0 0 0 0 0 0 0 0 127 0" result="hardAlpha"/>
<feOffset/>
<feGaussianBlur stdDeviation="3.15"/>
<feComposite in2="hardAlpha" operator="out"/>
<feColorMatrix type="matrix" values="0 0 0 0 1 0 0 0 0 1 0 0 0 0 1 0 0 0 0.25 0"/>
<feBlend mode="normal" in2="BackgroundImageFix" result="effect1_dropShadow_622_11154"/>
<feBlend mode="normal" in="SourceGraphic" in2="effect1_dropShadow_622_11154" result="shape"/>
</filter>
<filter id="filter4_d_622_11154" x="27.1307" y="59.6414" width="10.6293" height="10.0927" filterUnits="userSpaceOnUse" color-interpolation-filters="sRGB">
<feFlood flood-opacity="0" result="BackgroundImageFix"/>
<feColorMatrix in="SourceAlpha" type="matrix" values="0 0 0 0 0 0 0 0 0 0 0 0 0 0 0 0 0 0 127 0" result="hardAlpha"/>
<feOffset/>
<feGaussianBlur stdDeviation="1.15"/>
<feComposite in2="hardAlpha" operator="out"/>
<feColorMatrix type="matrix" values="0 0 0 0 1 0 0 0 0 1 0 0 0 0 1 0 0 0 0.4 0"/>
<feBlend mode="normal" in2="BackgroundImageFix" result="effect1_dropShadow_622_11154"/>
<feBlend mode="normal" in="SourceGraphic" in2="effect1_dropShadow_622_11154" result="shape"/>
</filter>
<linearGradient id="paint0_linear_622_11154" x1="18.8154" y1="8.16415" x2="48.7421" y2="11.0624" gradientUnits="userSpaceOnUse">
<stop stop-color="#528DFF"/>
<stop offset="1" stop-color="#001D56"/>
</linearGradient>
<linearGradient id="paint1_linear_622_11154" x1="19.6816" y1="10.3137" x2="48.3075" y2="11.8643" gradientUnits="userSpaceOnUse">
<stop stop-color="#528DFF"/>
<stop offset="1" stop-color="#093996"/>
</linearGradient>
<linearGradient id="paint2_linear_622_11154" x1="31.7237" y1="22.0544" x2="44.8921" y2="22.8164" gradientUnits="userSpaceOnUse">
<stop stop-color="#A2C0FC"/>
<stop offset="1" stop-color="#2752A6"/>
</linearGradient>
<linearGradient id="paint3_linear_622_11154" x1="19.6541" y1="22.0544" x2="26.631" y2="7.58065" gradientUnits="userSpaceOnUse">
<stop stop-color="#98B7F4"/>
<stop offset="0.9999" stop-color="#1C6A8B"/>
<stop offset="1" stop-color="#1A6889"/>
<stop offset="1" stop-color="#216F91"/>
<stop offset="1" stop-color="#0A8593"/>
</linearGradient>
<linearGradient id="paint4_linear_622_11154" x1="38.8333" y1="64.1131" x2="35.3104" y2="37.7386" gradientUnits="userSpaceOnUse">
<stop offset="0.297027" stop-color="#0E3E9B"/>
<stop offset="0.994792" stop-color="#528DFF"/>
</linearGradient>
<linearGradient id="paint5_linear_622_11154" x1="34.719" y1="14.8068" x2="29.5191" y2="14.4969" gradientUnits="userSpaceOnUse">
<stop offset="0.0001" stop-color="#0B3993"/>
<stop offset="1" stop-color="#A7C5FF"/>
</linearGradient>
<linearGradient id="paint6_linear_622_11154" x1="34.719" y1="68.456" x2="29.5191" y2="68.1461" gradientUnits="userSpaceOnUse">
<stop stop-color="#19479F"/>
<stop offset="1" stop-color="#9CB2FF"/>
</linearGradient>
</defs>
</svg>
