<svg width="67" height="71" viewBox="0 0 67 71" fill="none" xmlns="http://www.w3.org/2000/svg">
<path d="M57.7377 51.4431V27.3248L66.0766 16.3394L54.927 20.1715L36.6647 10.3694L31.843 0.5L28.2664 10.3694L9.19708 20.1715L4.59854 18.2555L0 16.3394L6.64283 27.3248V51.3947C6.64283 54.7852 8.87052 57.7728 12.12 58.7403L24.4173 62.4016C25.9249 62.8505 27.2578 63.7523 28.2352 64.9847L32.6094 70.5L36.7351 65.0616C37.7069 63.7805 39.057 62.8376 40.5943 62.3662L52.3203 58.7706C55.5398 57.7835 57.7377 54.8105 57.7377 51.4431Z" fill="url(#paint0_linear_6_6)"/>
<g filter="url(#filter0_i_6_6)">
<path d="M28.3161 13.0356L11.8043 23.6935C9.61746 25.1051 8.29648 27.53 8.29648 30.1329V50.3366C8.29648 53.7791 10.5917 56.7992 13.9085 57.721L30.4507 62.3183C31.8121 62.6967 33.2517 62.6913 34.6103 62.3028L50.5275 57.7505C53.8168 56.8098 56.0842 53.8029 56.0842 50.3817V30.0678C56.0842 27.5007 54.799 25.104 52.6606 23.6837L36.7132 13.0907C34.1741 11.4042 30.8771 11.3825 28.3161 13.0356Z" fill="url(#paint1_linear_6_6)"/>
</g>
<g filter="url(#filter1_d_6_6)">
<path d="M26.4944 38.0937C26.4733 37.903 26.4944 37.6981 26.4874 37.4863C26.4874 37.3803 26.5084 37.2603 26.5435 37.1473C26.5716 37.0413 26.5716 36.9283 26.5926 36.8294C26.6347 36.6388 26.6909 36.4551 26.733 36.2644C26.8032 35.9537 26.9365 35.6641 27.0558 35.3675C27.1752 35.0638 27.3436 34.7813 27.512 34.4988C27.6735 34.2233 27.87 33.9761 28.0805 33.729C28.3753 33.397 28.6911 33.0792 28.9929 32.7543C29.2035 32.5283 29.4211 32.3164 29.6316 32.0975C30.0387 31.6879 30.4528 31.2782 30.8458 30.8545C31.2669 30.4095 31.695 29.9787 32.1232 29.5338C32.3127 29.336 32.5232 29.1524 32.7057 28.9405C33.0075 28.5874 33.3514 28.2766 33.6742 27.9447C33.8567 27.761 34.0392 27.5774 34.2147 27.3867C34.6358 26.9276 35.099 26.511 35.5201 26.0448C35.871 25.6564 36.257 25.2962 36.615 24.9148C36.8887 24.6252 37.1624 24.3427 37.4291 24.0602C37.6607 23.8201 37.9134 23.6153 38.166 23.4034C38.4187 23.1915 38.6924 23.022 38.9732 22.8525C39.2749 22.6759 39.6048 22.5347 39.9347 22.4146C40.0821 22.3652 40.2224 22.2946 40.3698 22.2663C40.4962 22.2451 40.6155 22.2028 40.7418 22.1886C40.9383 22.1674 41.1278 22.1251 41.3243 22.0968C41.6191 22.0544 41.9209 22.0544 42.2157 22.0544C42.5947 22.0544 42.9666 22.1109 43.3316 22.1816C43.7387 22.2593 44.1317 22.3723 44.5037 22.5418C44.8686 22.7042 45.2266 22.9019 45.5635 23.128C45.9495 23.3963 46.3074 23.7 46.6373 24.039C46.9321 24.3357 47.1707 24.6747 47.4093 25.0137C47.7111 25.4586 47.9287 25.953 48.1112 26.4615C48.2656 26.8994 48.3638 27.3443 48.42 27.8034C48.448 28.0647 48.4831 28.326 48.4761 28.5944C48.4691 28.8699 48.4761 29.1453 48.434 29.4208C48.3849 29.7386 48.3428 30.0635 48.2585 30.3742C48.1533 30.7556 48.0269 31.1299 47.8585 31.483C47.5707 32.1187 47.1917 32.6837 46.7215 33.1993C46.3987 33.5594 46.0548 33.9055 45.7179 34.2445C45.374 34.5835 45.0441 34.9367 44.7213 35.2898C44.5809 35.4452 44.4405 35.6005 44.2791 35.7347C44.1878 35.8195 44.1036 35.9184 44.0194 36.0031C43.9562 36.0667 43.8931 36.1232 43.8299 36.1867C43.479 36.554 43.121 36.9071 42.7771 37.2815C42.5876 37.4863 42.3981 37.6911 42.2087 37.8888C41.8858 38.2208 41.563 38.5527 41.2331 38.8847C40.9032 39.2166 40.5663 39.5415 40.2505 39.8876C39.8154 40.3608 39.3592 40.8198 38.917 41.293C38.6363 41.5897 38.3345 41.8722 38.0467 42.1617C37.759 42.4513 37.4712 42.7409 37.1834 43.0304C37.022 43.1929 36.8325 43.3271 36.6571 43.4683C36.4114 43.659 36.1517 43.8285 35.878 43.9698C35.4499 44.1887 35.0007 44.3653 34.5375 44.4995C34.2568 44.5771 33.962 44.6195 33.6742 44.676C33.597 44.6901 33.5128 44.6901 33.4356 44.6972C33.0566 44.7255 32.6776 44.6901 32.2986 44.6901C32.1863 44.6901 32.074 44.6548 31.9617 44.6407C31.8284 44.6195 31.695 44.5842 31.5617 44.556C31.3301 44.5065 31.1055 44.4359 30.8809 44.3723C30.6142 44.2946 30.3615 44.1675 30.1089 44.0545C29.9404 43.9768 29.793 43.8638 29.6316 43.7791C29.4983 43.7084 29.3789 43.6237 29.2596 43.5389C29.0982 43.4118 28.9368 43.2847 28.7824 43.1576C28.5648 42.9739 28.3613 42.7691 28.1718 42.5572C28.0525 42.416 27.9261 42.2818 27.8138 42.1335C27.6173 41.8722 27.4559 41.5897 27.3015 41.3071C27.1541 41.0317 27.0067 40.7563 26.9085 40.4596C26.8032 40.163 26.733 39.8593 26.6418 39.5627C26.6067 39.4426 26.6067 39.3084 26.5786 39.1813C26.5014 38.8211 26.4803 38.468 26.4944 38.0937ZM30.4457 42.8115C30.4668 42.7762 30.4598 42.7479 30.4598 42.7197C30.4598 42.3948 30.4598 42.0699 30.4598 41.7521C30.4598 40.0783 30.4598 38.4115 30.4598 36.7376C30.4598 36.6811 30.4668 36.6458 30.537 36.6458C31.0493 36.6458 31.5617 36.6458 32.074 36.6529C32.1442 36.6529 32.1723 36.6388 32.1653 36.5611C32.1653 35.9042 32.1653 35.2404 32.1653 34.5835C32.1653 34.1245 32.1653 33.6725 32.1653 33.2134C32.1653 33.1004 32.1653 33.1004 32.2846 33.0933C32.3477 33.0933 32.4179 33.1004 32.4811 33.0792C32.5162 33.0721 32.5653 33.0933 32.5723 33.1498C32.5723 33.2204 32.5864 33.284 32.5864 33.3476C32.5864 34.414 32.5864 35.4805 32.5864 36.554C32.5864 36.6246 32.6074 36.6458 32.6776 36.6388C33.19 36.6388 33.7023 36.6388 34.2147 36.6317C34.2848 36.6317 34.3059 36.6458 34.3059 36.7164C34.3059 38.6304 34.3059 40.5444 34.3059 42.4513C34.3059 42.6844 34.3059 42.9245 34.3059 43.1576C34.3059 43.2141 34.3199 43.2352 34.3831 43.2141C34.4673 43.1858 34.5515 43.1717 34.6287 43.1364C34.7761 43.0728 34.9305 43.0163 35.0779 42.9386C35.2464 42.8468 35.4218 42.7691 35.5903 42.6702C35.7938 42.5502 35.9763 42.416 36.1658 42.2677C36.2781 42.1829 36.3833 42.0982 36.3342 41.9287C36.3342 41.9216 36.3342 41.9145 36.3342 41.9004C36.3342 39.0824 36.3412 36.2574 36.3412 33.4394C36.3412 32.5566 36.3412 31.6737 36.3412 30.7909C36.3412 30.6779 36.3412 30.6779 36.4535 30.6779C36.9448 30.6779 37.4431 30.6779 37.9344 30.6779C38.0186 30.6779 38.0467 30.6496 38.0467 30.5649C38.0397 29.9858 38.0467 29.3996 38.0467 28.8204C38.0467 28.2907 38.0467 27.761 38.0467 27.2313C38.0467 27.1466 38.0748 27.1254 38.152 27.1254C38.2292 27.1325 38.3064 27.1325 38.3766 27.1254C38.4397 27.1183 38.4538 27.1466 38.4538 27.2031C38.4538 28.3049 38.4538 29.4066 38.4538 30.5155C38.4538 30.5508 38.4608 30.5861 38.4468 30.6143C38.4187 30.6779 38.4538 30.6779 38.4959 30.6779C38.6222 30.6779 38.7556 30.6779 38.8819 30.6779C39.2749 30.6779 39.668 30.6779 40.054 30.6779C40.1242 30.6779 40.1522 30.6991 40.1522 30.7697C40.1452 30.8615 40.1452 30.9604 40.1452 31.0522C40.1452 33.3829 40.1452 35.7065 40.1452 38.0372C40.1452 38.0654 40.1452 38.0866 40.1522 38.1148C40.1733 38.1713 40.1873 38.1784 40.2295 38.136C40.3137 38.0442 40.3979 37.9595 40.4821 37.8747C40.9313 37.4086 41.3875 36.9424 41.8367 36.4763C42.3911 35.9042 42.9456 35.3322 43.5071 34.7601C43.5492 34.7177 43.5632 34.6683 43.5632 34.6118C43.5632 33.7643 43.5632 32.9097 43.5632 32.0622C43.5632 31.9915 43.5422 31.9704 43.472 31.9704C42.9807 31.9774 42.4894 31.9704 41.9981 31.9704C41.8647 31.9704 41.8577 31.9986 41.8577 31.8362C41.8577 29.3078 41.8577 26.7723 41.8577 24.2438C41.8577 24.1803 41.8297 24.1238 41.8367 24.0602C41.8718 23.8554 41.8507 23.6435 41.8507 23.4387C41.8507 23.2975 41.8437 23.2975 41.7103 23.3045C41.6893 23.3045 41.6612 23.3045 41.6402 23.3045C41.4928 23.3186 41.3454 23.3186 41.198 23.3469C40.8751 23.4105 40.5523 23.4952 40.2365 23.6153C39.8715 23.7495 39.5276 23.926 39.2118 24.145C38.8187 24.4134 38.4748 24.7524 38.138 25.0914C37.8502 25.3809 37.5765 25.6705 37.2887 25.9601C37.1694 26.0801 37.0501 26.1931 36.9378 26.3132C36.5869 26.6805 36.236 27.0548 35.885 27.4291C35.8008 27.5209 35.7166 27.6268 35.6254 27.7116C35.4359 27.8952 35.2604 28.0859 35.0709 28.2695C34.5586 28.7781 34.0462 29.2936 33.5619 29.8304C33.2742 30.1482 32.9724 30.4448 32.6706 30.7485C32.1653 31.2641 31.6459 31.7726 31.1476 32.2952C30.6423 32.8249 30.144 33.3546 29.6316 33.8773C29.2667 34.2516 28.8947 34.6188 28.6139 35.0709C28.4104 35.3887 28.2279 35.7206 28.0876 36.0737C27.9051 36.5328 27.7928 37.006 27.7437 37.4933C27.6875 38.0372 27.6945 38.581 27.8068 39.1177C27.884 39.485 27.9893 39.8452 28.1226 40.1983C28.1928 40.389 28.2981 40.5656 28.3964 40.7421C28.8947 41.632 29.5684 42.3171 30.4457 42.8115ZM45.6617 24.7877C45.6547 24.83 45.6547 24.8512 45.6547 24.8724C45.6547 26.0024 45.6547 27.1254 45.6547 28.2554C45.6547 29.4631 45.6547 30.6708 45.6547 31.8856C45.6547 31.9633 45.6407 31.9986 45.5494 31.9986C45.0441 31.9915 44.5458 31.9986 44.0405 31.9986C43.9633 31.9986 43.9422 32.0269 43.9422 32.0975C43.9422 32.7896 43.9422 33.4888 43.9422 34.181C43.9422 34.2163 43.9422 34.2516 43.9422 34.2869C44.1247 34.1103 44.3001 33.9408 44.4756 33.7643C44.7634 33.4676 45.0511 33.171 45.3389 32.8744C45.6898 32.5142 46.0477 32.161 46.3285 31.7373C46.8829 30.9039 47.1777 29.9787 47.2409 28.9829C47.276 28.4108 47.2128 27.8458 47.0724 27.2878C46.925 26.7016 46.6864 26.1578 46.3495 25.6564C46.16 25.3386 45.9214 25.0772 45.6617 24.7877Z" fill="url(#paint2_linear_6_6)"/>
</g>
<g filter="url(#filter2_d_6_6)">
<path d="M25.4869 41.0703C25.41 41.0423 25.368 40.9862 25.333 40.9371C25.2071 40.7687 25.0531 40.6214 24.9132 40.4671C24.7453 40.2777 24.5703 40.0883 24.3884 39.906C24.0386 39.5482 23.6887 39.1905 23.3389 38.8328C23.1359 38.6223 22.933 38.4189 22.7301 38.2155C22.5622 38.0471 22.4083 37.8648 22.2403 37.7034C22.1634 37.6263 22.0934 37.5351 21.9954 37.472C21.9115 37.4229 21.8835 37.3177 21.8065 37.2475C21.5826 37.0441 21.3867 36.8196 21.1628 36.6162C20.9879 36.4549 20.8479 36.2515 20.673 36.0901C20.5611 35.9919 20.4631 35.8727 20.3441 35.7815C20.2882 35.7464 20.2672 35.6693 20.2182 35.6202C19.9873 35.3957 19.7564 35.1783 19.5395 34.9398C19.2456 34.6101 18.9238 34.3085 18.6299 33.9788C18.413 33.7403 18.1751 33.5159 17.9512 33.2844C17.6223 32.9407 17.3214 32.5689 17.0626 32.1691C16.9366 31.9727 16.8387 31.7623 16.7267 31.5589C16.6217 31.3695 16.5588 31.1661 16.4748 30.9767C16.3629 30.7382 16.3279 30.4857 16.2509 30.2402C16.2019 30.0718 16.1809 29.8965 16.146 29.7281C16.062 29.2582 16.083 28.7882 16.069 28.3112C16.069 28.185 16.083 28.0587 16.076 27.9325C16.076 27.8343 16.118 27.729 16.132 27.6238C16.146 27.5607 16.139 27.4906 16.146 27.4274C16.1599 27.3222 16.1949 27.224 16.2229 27.1188C16.3069 26.7611 16.4188 26.4174 16.5518 26.0737C16.6287 25.8702 16.7057 25.6598 16.8247 25.4774C16.9786 25.239 17.1185 24.9864 17.2865 24.762C17.4544 24.5305 17.6223 24.299 17.8252 24.0956C18.0002 23.9132 18.1821 23.7379 18.378 23.5695C18.6929 23.289 19.0357 23.0435 19.4066 22.84C19.6305 22.7208 19.8614 22.6086 20.0923 22.5034C20.2602 22.4262 20.4281 22.3631 20.61 22.321C20.75 22.2859 20.8759 22.2228 21.0229 22.2088C21.2468 22.1877 21.4567 22.1316 21.6736 22.0965C21.9884 22.0544 22.3033 22.0544 22.6182 22.0544C22.7441 22.0544 22.8701 22.0544 22.989 22.0615C23.115 22.0685 23.2409 22.0895 23.3669 22.1106C23.5418 22.1386 23.7167 22.2088 23.8986 22.2158C24.0596 22.2228 24.1925 22.307 24.3394 22.342C24.6193 22.4052 24.8712 22.5384 25.1301 22.6507C25.445 22.7909 25.7318 22.9663 26.0117 23.1627C26.2146 23.303 26.4245 23.4433 26.6135 23.6116C26.7464 23.7309 26.8723 23.8571 26.9913 23.9834C27.3831 24.3832 27.775 24.783 28.1668 25.1828C28.5936 25.6247 29.0204 26.0737 29.4542 26.5085C29.986 27.0416 30.4968 27.6028 31.0356 28.1289C31.0565 28.1499 31.0775 28.1709 31.0985 28.192C31.1265 28.22 31.1195 28.2481 31.0915 28.2762C30.8956 28.4726 30.7067 28.662 30.5108 28.8584C30.4478 28.9285 30.3708 28.9916 30.3149 29.0618C30.2659 29.1179 30.2309 29.0898 30.1959 29.0618C30.042 28.9075 29.8741 28.7602 29.7411 28.5848C29.6012 28.4094 29.4193 28.2832 29.2933 28.1008C29.2373 28.0236 29.1534 27.9675 29.0904 27.8974C28.8245 27.6238 28.5656 27.3362 28.2927 27.0767C28.0478 26.8382 27.8169 26.5787 27.572 26.3332C27.4041 26.1648 27.2222 26.0105 27.0683 25.8282C26.8584 25.5756 26.6205 25.3582 26.3965 25.1197C26.1517 24.8602 25.9068 24.6006 25.6199 24.3832C25.452 24.2569 25.277 24.1307 25.0881 24.0255C24.9342 23.9343 24.7732 23.8571 24.6193 23.773C24.4724 23.6958 24.3184 23.6327 24.1575 23.5836C24.0246 23.5415 23.8846 23.4924 23.7447 23.4573C23.5278 23.4012 23.3109 23.3661 23.094 23.331C22.982 23.31 22.8701 23.317 22.7581 23.31C22.6881 23.303 22.6741 23.331 22.6741 23.3942C22.6741 23.6116 22.6741 23.8291 22.6741 24.0395C22.6741 24.7199 22.6741 25.4003 22.6741 26.0807C22.6741 27.715 22.6811 29.3564 22.6741 30.9907C22.6741 31.2713 22.6881 31.5519 22.6811 31.8395C22.6811 31.8956 22.6741 31.9306 22.5972 31.9306C22.0934 31.9306 21.5896 31.9306 21.0858 31.9306C21.0019 31.9306 20.9809 31.9587 20.9809 32.0639C20.9809 32.8144 20.9809 33.558 20.9809 34.3085C20.9809 34.3997 20.9879 34.4909 20.9739 34.5821C20.9669 34.6171 20.9809 34.6382 21.0019 34.6662C21.4777 35.1502 21.9535 35.6342 22.4293 36.1252C22.947 36.6583 23.4648 37.1914 23.9826 37.7245C24.1085 37.8507 24.2415 37.97 24.3744 38.0962C24.3744 37.8858 24.3744 37.6684 24.3744 37.4509C24.3744 35.2134 24.3744 32.9828 24.3744 30.7452C24.3744 30.6681 24.4024 30.647 24.4724 30.647C24.9762 30.647 25.4799 30.647 25.9837 30.647C26.0677 30.647 26.0817 30.619 26.0817 30.5418C26.0817 29.4405 26.0817 28.3463 26.0817 27.2451C26.0817 27.1188 26.0817 27.1188 26.2076 27.1188C26.2636 27.1188 26.3266 27.1258 26.3826 27.1188C26.4595 27.1118 26.4875 27.1398 26.4875 27.224C26.4875 27.6238 26.4875 28.0236 26.4875 28.4235C26.4875 29.1389 26.4875 29.8474 26.4875 30.5628C26.4875 30.64 26.5155 30.6681 26.5855 30.64C26.6344 30.619 26.6834 30.647 26.7254 30.647C27.1802 30.647 27.628 30.647 28.0828 30.647C28.1598 30.647 28.2018 30.6681 28.1808 30.7522C28.1528 30.9136 28.1668 31.0749 28.1668 31.2292C28.1668 31.2713 28.1528 31.2993 28.1248 31.3274C27.9639 31.4817 27.8239 31.643 27.663 31.7974C27.4881 31.9727 27.3132 32.1481 27.1382 32.3305C26.9423 32.5269 26.7674 32.7373 26.5995 32.9547C26.4805 33.109 26.3686 33.2634 26.2636 33.4247C26.0817 33.6983 25.9068 33.9788 25.7668 34.2804C25.6339 34.561 25.5079 34.8486 25.403 35.1432C25.312 35.4027 25.2141 35.6553 25.1581 35.9218C25.1091 36.1603 25.0461 36.3918 25.0111 36.6303C24.9902 36.7916 24.9762 36.9529 24.9552 37.1142C24.9272 37.3317 24.9202 37.5421 24.9062 37.7596C24.8922 37.963 24.8852 38.1664 24.9132 38.3698C24.9272 38.468 24.9202 38.5732 24.9272 38.6714C24.9482 38.8678 24.9692 39.0642 24.9972 39.2536C25.0461 39.6043 25.1371 39.948 25.2281 40.2847C25.277 40.4671 25.333 40.6425 25.41 40.8108C25.431 40.895 25.4729 40.9721 25.4869 41.0703ZM20.5401 34.1612C20.5401 34.1472 20.5471 34.1402 20.5471 34.1331C20.5471 33.4457 20.5471 32.7583 20.5471 32.0709C20.5471 31.8956 20.5471 31.9026 20.3791 31.9096C19.8963 31.9306 19.4205 31.9166 18.9378 31.9166C18.8748 31.9166 18.8468 31.8956 18.8468 31.8254C18.8468 29.5317 18.8468 27.231 18.8468 24.9373C18.8468 24.8952 18.8678 24.8321 18.8328 24.8181C18.7978 24.8041 18.7768 24.8672 18.7488 24.8952C18.434 25.1969 18.1891 25.5546 17.9722 25.9264C17.6783 26.4384 17.4894 26.9855 17.3704 27.5607C17.2585 28.1008 17.2515 28.6479 17.2935 29.195C17.3145 29.4616 17.3774 29.7211 17.4334 29.9806C17.5733 30.5628 17.8252 31.1029 18.1541 31.601C18.427 32.0218 18.7698 32.3796 19.1267 32.7373C19.3226 32.9407 19.5185 33.1441 19.7144 33.3475C19.9523 33.586 20.1902 33.8245 20.4211 34.07C20.4561 34.1051 20.4911 34.1402 20.5401 34.1612Z" fill="url(#paint3_linear_6_6)"/>
</g>
<path d="M6.64342 54.1782C6.64342 54.1782 18.1442 57.9214 32.1031 57.9214C46.062 57.9214 57.7383 54.1782 57.7383 54.1782V41.2204C57.7383 41.2204 42.3979 46.2727 32.1031 46.2596C21.8749 46.2464 6.64342 41.2204 6.64342 41.2204V54.1782Z" fill="url(#paint4_linear_6_6)"/>
<path d="M28.7783 49.5512H30.2169V54.3465H28.7783V49.5512Z" fill="#528DFF"/>
<path d="M33.1703 54.0858L31.0546 49.7938H32.0295L33.917 53.675H33.357L35.2652 49.7938H36.1641L34.0553 54.0858H33.1703Z" fill="#528DFF"/>
<path fill-rule="evenodd" clip-rule="evenodd" d="M30.6444 49.5383H32.1899L33.6404 52.5207L35.1068 49.5383H36.5748L34.215 54.3412H33.012L30.6444 49.5383ZM33.3547 53.1017L31.8702 50.0492H31.4659L33.1629 53.4918L33.3547 53.1017ZM34.088 53.4411L33.9235 53.1029L35.4249 50.0492H35.7545L34.088 53.4411Z" fill="#528DFF"/>
<g filter="url(#filter3_d_6_6)">
<path d="M33.3307 13.2741C32.9374 13.9553 31.9541 13.9553 31.5608 13.2741L29.5695 9.82517C29.1762 9.1439 29.6679 8.29232 30.4545 8.29232L34.437 8.29232C35.2236 8.29232 35.7153 9.1439 35.322 9.82517L33.3307 13.2741Z" fill="url(#paint5_linear_6_6)"/>
</g>
<g filter="url(#filter4_d_6_6)">
<path d="M33.3307 66.9232C32.9374 67.6045 31.9541 67.6045 31.5608 66.9232L29.5695 63.4743C29.1762 62.7931 29.6679 61.9415 30.4545 61.9415L34.437 61.9415C35.2236 61.9415 35.7153 62.7931 35.322 63.4743L33.3307 66.9232Z" fill="url(#paint6_linear_6_6)"/>
</g>
<defs>
<filter id="filter0_i_6_6" x="8.29648" y="11.8106" width="48.7878" height="51.7876" filterUnits="userSpaceOnUse" color-interpolation-filters="sRGB">
<feFlood flood-opacity="0" result="BackgroundImageFix"/>
<feBlend mode="normal" in="SourceGraphic" in2="BackgroundImageFix" result="shape"/>
<feColorMatrix in="SourceAlpha" type="matrix" values="0 0 0 0 0 0 0 0 0 0 0 0 0 0 0 0 0 0 127 0" result="hardAlpha"/>
<feOffset dx="1" dy="1"/>
<feGaussianBlur stdDeviation="1"/>
<feComposite in2="hardAlpha" operator="arithmetic" k2="-1" k3="1"/>
<feColorMatrix type="matrix" values="0 0 0 0 0 0 0 0 0 0 0 0 0 0 0 0 0 0 0.25 0"/>
<feBlend mode="normal" in2="shape" result="effect1_innerShadow_6_6"/>
</filter>
<filter id="filter1_d_6_6" x="25.8847" y="22.0544" width="25.1923" height="26.2537" filterUnits="userSpaceOnUse" color-interpolation-filters="sRGB">
<feFlood flood-opacity="0" result="BackgroundImageFix"/>
<feColorMatrix in="SourceAlpha" type="matrix" values="0 0 0 0 0 0 0 0 0 0 0 0 0 0 0 0 0 0 127 0" result="hardAlpha"/>
<feOffset dx="1" dy="2"/>
<feGaussianBlur stdDeviation="0.8"/>
<feComposite in2="hardAlpha" operator="out"/>
<feColorMatrix type="matrix" values="0 0 0 0 0 0 0 0 0 0 0 0 0 0 0 0 0 0 0.25 0"/>
<feBlend mode="normal" in2="BackgroundImageFix" result="effect1_dropShadow_6_6"/>
<feBlend mode="normal" in="SourceGraphic" in2="effect1_dropShadow_6_6" result="shape"/>
</filter>
<filter id="filter2_d_6_6" x="15.469" y="22.0544" width="18.2474" height="22.6159" filterUnits="userSpaceOnUse" color-interpolation-filters="sRGB">
<feFlood flood-opacity="0" result="BackgroundImageFix"/>
<feColorMatrix in="SourceAlpha" type="matrix" values="0 0 0 0 0 0 0 0 0 0 0 0 0 0 0 0 0 0 127 0" result="hardAlpha"/>
<feOffset dx="1" dy="2"/>
<feGaussianBlur stdDeviation="0.8"/>
<feComposite in2="hardAlpha" operator="out"/>
<feColorMatrix type="matrix" values="0 0 0 0 0 0 0 0 0 0 0 0 0 0 0 0 0 0 0.25 0"/>
<feBlend mode="normal" in2="BackgroundImageFix" result="effect1_dropShadow_6_6"/>
<feBlend mode="normal" in="SourceGraphic" in2="effect1_dropShadow_6_6" result="shape"/>
</filter>
<filter id="filter3_d_6_6" x="23.1311" y="1.99232" width="18.6293" height="18.0927" filterUnits="userSpaceOnUse" color-interpolation-filters="sRGB">
<feFlood flood-opacity="0" result="BackgroundImageFix"/>
<feColorMatrix in="SourceAlpha" type="matrix" values="0 0 0 0 0 0 0 0 0 0 0 0 0 0 0 0 0 0 127 0" result="hardAlpha"/>
<feOffset/>
<feGaussianBlur stdDeviation="3.15"/>
<feComposite in2="hardAlpha" operator="out"/>
<feColorMatrix type="matrix" values="0 0 0 0 1 0 0 0 0 1 0 0 0 0 1 0 0 0 0.25 0"/>
<feBlend mode="normal" in2="BackgroundImageFix" result="effect1_dropShadow_6_6"/>
<feBlend mode="normal" in="SourceGraphic" in2="effect1_dropShadow_6_6" result="shape"/>
</filter>
<filter id="filter4_d_6_6" x="27.1311" y="59.6415" width="10.6293" height="10.0927" filterUnits="userSpaceOnUse" color-interpolation-filters="sRGB">
<feFlood flood-opacity="0" result="BackgroundImageFix"/>
<feColorMatrix in="SourceAlpha" type="matrix" values="0 0 0 0 0 0 0 0 0 0 0 0 0 0 0 0 0 0 127 0" result="hardAlpha"/>
<feOffset/>
<feGaussianBlur stdDeviation="1.15"/>
<feComposite in2="hardAlpha" operator="out"/>
<feColorMatrix type="matrix" values="0 0 0 0 1 0 0 0 0 1 0 0 0 0 1 0 0 0 0.4 0"/>
<feBlend mode="normal" in2="BackgroundImageFix" result="effect1_dropShadow_6_6"/>
<feBlend mode="normal" in="SourceGraphic" in2="effect1_dropShadow_6_6" result="shape"/>
</filter>
<linearGradient id="paint0_linear_6_6" x1="18.8154" y1="8.16415" x2="48.7421" y2="11.0624" gradientUnits="userSpaceOnUse">
<stop stop-color="#528DFF"/>
<stop offset="1" stop-color="#001D56"/>
</linearGradient>
<linearGradient id="paint1_linear_6_6" x1="19.6812" y1="10.3138" x2="48.3071" y2="11.8644" gradientUnits="userSpaceOnUse">
<stop stop-color="#528DFF"/>
<stop offset="1" stop-color="#093996"/>
</linearGradient>
<linearGradient id="paint2_linear_6_6" x1="31.7241" y1="22.0544" x2="44.8925" y2="22.8164" gradientUnits="userSpaceOnUse">
<stop stop-color="#A2C0FC"/>
<stop offset="1" stop-color="#2752A6"/>
</linearGradient>
<linearGradient id="paint3_linear_6_6" x1="19.6538" y1="22.0544" x2="26.6307" y2="7.58065" gradientUnits="userSpaceOnUse">
<stop stop-color="#98B7F4"/>
<stop offset="0.9999" stop-color="#1C6A8B"/>
<stop offset="1" stop-color="#1A6889"/>
<stop offset="1" stop-color="#216F91"/>
<stop offset="1" stop-color="#0A8593"/>
</linearGradient>
<linearGradient id="paint4_linear_6_6" x1="38.8332" y1="64.1131" x2="35.3103" y2="37.7386" gradientUnits="userSpaceOnUse">
<stop offset="0.297027" stop-color="#0E3E9B"/>
<stop offset="0.994792" stop-color="#528DFF"/>
</linearGradient>
<linearGradient id="paint5_linear_6_6" x1="34.7195" y1="14.8069" x2="29.5195" y2="14.497" gradientUnits="userSpaceOnUse">
<stop offset="0.0001" stop-color="#0B3993"/>
<stop offset="1" stop-color="#A7C5FF"/>
</linearGradient>
<linearGradient id="paint6_linear_6_6" x1="34.7195" y1="68.4561" x2="29.5195" y2="68.1462" gradientUnits="userSpaceOnUse">
<stop stop-color="#19479F"/>
<stop offset="1" stop-color="#9CB2FF"/>
</linearGradient>
</defs>
</svg>
