<svg width="59" height="67" viewBox="0 0 59 67" fill="none" xmlns="http://www.w3.org/2000/svg">
<path d="M21.3928 5.81285L6.87409 15.17C2.5891 17.9316 0 22.6805 0 27.7783V45.7154C0 52.1478 4.10113 57.8641 10.1944 59.9248L24.761 64.8512C27.9208 65.9198 31.3467 65.9048 34.497 64.8084L48.3659 59.9816C54.395 57.8833 58.4355 52.1989 58.4355 45.815V27.6511C58.4355 22.6231 55.9164 17.9295 51.7262 15.1505L37.8094 5.92058C32.8442 2.62755 26.4008 2.58527 21.3928 5.81285Z" fill="url(#paint0_linear_622_11116)"/>
<g filter="url(#filter0_i_622_11116)">
<path d="M21.3573 8.285L8.75689 16.4183C4.47695 19.1809 1.8916 23.9268 1.8916 29.0209V43.9927C1.8916 50.7301 6.38371 56.6409 12.8751 58.445L25.5349 61.9633C28.1995 62.7039 31.017 62.6933 33.676 61.9329L45.6694 58.5028C52.1071 56.6617 56.5449 50.7768 56.5449 44.081V28.8936C56.5449 23.8694 54.0295 19.1788 49.8444 16.3989L37.7915 8.39291C32.8223 5.09216 26.3695 5.04978 21.3573 8.285Z" fill="url(#paint1_linear_622_11116)"/>
</g>
<g filter="url(#filter1_d_622_11116)">
<path d="M22.7044 34.7285C22.6803 34.5104 22.7044 34.2762 22.6964 34.0339C22.6964 33.9127 22.7204 33.7754 22.7606 33.6462C22.7927 33.525 22.7927 33.3958 22.8168 33.2827C22.8649 33.0646 22.9291 32.8546 22.9773 32.6365C23.0576 32.2811 23.2101 31.9499 23.3465 31.6107C23.483 31.2634 23.6756 30.9403 23.8683 30.6172C24.0529 30.3022 24.2776 30.0195 24.5184 29.7368C24.8556 29.3571 25.2168 28.9937 25.5619 28.6221C25.8027 28.3636 26.0515 28.1213 26.2923 27.8709C26.7579 27.4024 27.2315 26.9339 27.681 26.4493C28.1626 25.9404 28.6522 25.4477 29.1418 24.9389C29.3586 24.7127 29.5994 24.5027 29.8081 24.2604C30.1532 23.8565 30.5465 23.5011 30.9158 23.1215C31.1245 22.9115 31.3331 22.7014 31.5338 22.4834C32.0154 21.9583 32.5452 21.4818 33.0268 20.9487C33.4281 20.5044 33.8696 20.0925 34.279 19.6563C34.592 19.3251 34.9051 19.002 35.2101 18.679C35.475 18.4043 35.7639 18.1701 36.0529 17.9278C36.3418 17.6855 36.6549 17.4916 36.976 17.2977C37.3211 17.0958 37.6984 16.9343 38.0756 16.7969C38.2442 16.7404 38.4047 16.6596 38.5733 16.6273C38.7178 16.6031 38.8542 16.5546 38.9987 16.5385C39.2234 16.5142 39.4402 16.4658 39.6649 16.4335C40.002 16.385 40.3472 16.385 40.6843 16.385C41.1178 16.385 41.5432 16.4496 41.9606 16.5304C42.4261 16.6193 42.8756 16.7485 43.301 16.9423C43.7184 17.1281 44.1278 17.3543 44.5131 17.6128C44.9545 17.9197 45.3639 18.267 45.7412 18.6547C46.0783 18.994 46.3512 19.3817 46.6241 19.7694C46.9693 20.2783 47.2181 20.8437 47.4268 21.4252C47.6034 21.926 47.7158 22.4349 47.78 22.9599C47.8121 23.2588 47.8522 23.5576 47.8442 23.8646C47.8362 24.1796 47.8442 24.4946 47.796 24.8096C47.7398 25.1731 47.6917 25.5447 47.5954 25.9001C47.4749 26.3362 47.3305 26.7643 47.1378 27.1682C46.8087 27.8951 46.3753 28.5413 45.8375 29.131C45.4683 29.5429 45.075 29.9387 44.6897 30.3264C44.2964 30.7141 43.9191 31.118 43.5499 31.5218C43.3893 31.6995 43.2288 31.8772 43.0442 32.0307C42.9398 32.1276 42.8435 32.2407 42.7472 32.3377C42.675 32.4103 42.6027 32.475 42.5305 32.5477C42.1291 32.9677 41.7198 33.3715 41.3265 33.7996C41.1097 34.0339 40.893 34.2681 40.6763 34.4943C40.3071 34.8739 39.9378 35.2535 39.5606 35.6332C39.1833 36.0128 38.798 36.3844 38.4368 36.7802C37.9392 37.3213 37.4174 37.8464 36.9117 38.3875C36.5907 38.7268 36.2455 39.0499 35.9164 39.381C35.5873 39.7122 35.2582 40.0434 34.9291 40.3745C34.7445 40.5603 34.5278 40.7138 34.3271 40.8753C34.0462 41.0934 33.7492 41.2873 33.4362 41.4488C32.9465 41.6992 32.4328 41.9012 31.903 42.0546C31.582 42.1435 31.2449 42.1919 30.9158 42.2566C30.8275 42.2727 30.7311 42.2727 30.6428 42.2808C30.2094 42.3131 29.776 42.2727 29.3425 42.2727C29.2141 42.2727 29.0857 42.2323 28.9572 42.2162C28.8047 42.1919 28.6522 42.1516 28.4997 42.1192C28.2348 42.0627 27.978 41.9819 27.7211 41.9092C27.4161 41.8204 27.1271 41.675 26.8382 41.5458C26.6455 41.4569 26.477 41.3277 26.2923 41.2307C26.1398 41.15 26.0034 41.053 25.8669 40.9561C25.6823 40.8107 25.4977 40.6653 25.3211 40.5199C25.0723 40.3099 24.8395 40.0757 24.6228 39.8334C24.4863 39.6718 24.3418 39.5184 24.2134 39.3487C23.9887 39.0499 23.8041 38.7268 23.6275 38.4037C23.4589 38.0887 23.2903 37.7737 23.178 37.4344C23.0576 37.0952 22.9773 36.7478 22.873 36.4086C22.8328 36.2713 22.8328 36.1178 22.8007 35.9724C22.7124 35.5605 22.6883 35.1566 22.7044 34.7285ZM27.2234 40.1242C27.2475 40.0838 27.2395 40.0515 27.2395 40.0191C27.2395 39.6476 27.2395 39.276 27.2395 38.9126C27.2395 36.9982 27.2395 35.092 27.2395 33.1777C27.2395 33.1131 27.2475 33.0727 27.3278 33.0727C27.9138 33.0727 28.4997 33.0727 29.0857 33.0808C29.1659 33.0808 29.198 33.0646 29.19 32.9758C29.19 32.2246 29.19 31.4653 29.19 30.7141C29.19 30.1891 29.19 29.6721 29.19 29.1471C29.19 29.0179 29.19 29.0179 29.3265 29.0098C29.3987 29.0098 29.479 29.0179 29.5512 28.9937C29.5913 28.9856 29.6475 29.0098 29.6556 29.0744C29.6556 29.1552 29.6716 29.2279 29.6716 29.3006C29.6716 30.5203 29.6716 31.7399 29.6716 32.9677C29.6716 33.0485 29.6957 33.0727 29.776 33.0646C30.3619 33.0646 30.9479 33.0646 31.5338 33.0565C31.6141 33.0565 31.6382 33.0727 31.6382 33.1535C31.6382 35.3424 31.6382 37.5313 31.6382 39.7122C31.6382 39.9788 31.6382 40.2534 31.6382 40.5199C31.6382 40.5846 31.6542 40.6088 31.7265 40.5846C31.8228 40.5522 31.9191 40.5361 32.0074 40.4957C32.176 40.423 32.3525 40.3584 32.5211 40.2695C32.7137 40.1645 32.9144 40.0757 33.1071 39.9626C33.3398 39.8253 33.5485 39.6718 33.7653 39.5022C33.8937 39.4053 34.0141 39.3083 33.9579 39.1145C33.9579 39.1064 33.9579 39.0983 33.9579 39.0822C33.9579 35.8593 33.9659 32.6284 33.9659 29.4056C33.9659 28.3959 33.9659 27.3863 33.9659 26.3766C33.9659 26.2474 33.9659 26.2474 34.0944 26.2474C34.6562 26.2474 35.2261 26.2474 35.788 26.2474C35.8843 26.2474 35.9164 26.2151 35.9164 26.1181C35.9084 25.4558 35.9164 24.7854 35.9164 24.123C35.9164 23.5173 35.9164 22.9115 35.9164 22.3057C35.9164 22.2087 35.9485 22.1845 36.0368 22.1845C36.1251 22.1926 36.2134 22.1926 36.2937 22.1845C36.3659 22.1764 36.382 22.2087 36.382 22.2734C36.382 23.5334 36.382 24.7935 36.382 26.0616C36.382 26.102 36.39 26.1424 36.3739 26.1747C36.3418 26.2474 36.382 26.2474 36.4301 26.2474C36.5746 26.2474 36.7271 26.2474 36.8716 26.2474C37.3211 26.2474 37.7706 26.2474 38.2121 26.2474C38.2923 26.2474 38.3245 26.2716 38.3245 26.3524C38.3164 26.4574 38.3164 26.5705 38.3164 26.6755C38.3164 29.341 38.3164 31.9984 38.3164 34.6639C38.3164 34.6962 38.3164 34.7204 38.3245 34.7528C38.3485 34.8174 38.3646 34.8255 38.4127 34.777C38.5091 34.672 38.6054 34.5751 38.7017 34.4781C39.2154 33.945 39.7372 33.4119 40.2509 32.8788C40.885 32.2246 41.5191 31.5703 42.1612 30.916C42.2094 30.8676 42.2255 30.811 42.2255 30.7464C42.2255 29.7771 42.2255 28.7998 42.2255 27.8305C42.2255 27.7498 42.2014 27.7255 42.1211 27.7255C41.5592 27.7336 40.9974 27.7255 40.4355 27.7255C40.283 27.7255 40.275 27.7578 40.275 27.5721C40.275 24.6804 40.275 21.7806 40.275 18.889C40.275 18.8163 40.2428 18.7517 40.2509 18.679C40.291 18.4447 40.2669 18.2024 40.2669 17.9682C40.2669 17.8066 40.2589 17.8066 40.1064 17.8147C40.0823 17.8147 40.0502 17.8147 40.0261 17.8147C39.8576 17.8308 39.689 17.8308 39.5204 17.8632C39.1512 17.9358 38.782 18.0328 38.4208 18.1701C38.0034 18.3236 37.6101 18.5255 37.2489 18.7759C36.7994 19.0828 36.4061 19.4705 36.0208 19.8582C35.6917 20.1894 35.3786 20.5206 35.0495 20.8517C34.9131 20.9891 34.7766 21.1183 34.6482 21.2556C34.2469 21.6756 33.8455 22.1037 33.4442 22.5318C33.3479 22.6368 33.2515 22.758 33.1472 22.8549C32.9305 23.0649 32.7298 23.283 32.5131 23.493C31.9271 24.0746 31.3412 24.6642 30.7873 25.2781C30.4582 25.6416 30.1131 25.9808 29.7679 26.3281C29.19 26.9178 28.596 27.4994 28.0261 28.0971C27.4482 28.7029 26.8783 29.3087 26.2923 29.9064C25.875 30.3345 25.4495 30.7545 25.1285 31.2714C24.8957 31.6349 24.687 32.0146 24.5265 32.4184C24.3178 32.9434 24.1893 33.4846 24.1332 34.042C24.0689 34.6639 24.077 35.2859 24.2054 35.8997C24.2937 36.3197 24.4141 36.7317 24.5666 37.1356C24.6469 37.3536 24.7673 37.5556 24.8796 37.7575C25.4495 38.7752 26.2201 39.5587 27.2234 40.1242ZM44.6255 19.5109C44.6174 19.5594 44.6174 19.5836 44.6174 19.6078C44.6174 20.9002 44.6174 22.1845 44.6174 23.4769C44.6174 24.8581 44.6174 26.2393 44.6174 27.6286C44.6174 27.7174 44.6014 27.7578 44.497 27.7578C43.9191 27.7498 43.3492 27.7578 42.7713 27.7578C42.683 27.7578 42.6589 27.7901 42.6589 27.8709C42.6589 28.6625 42.6589 29.4621 42.6589 30.2537C42.6589 30.2941 42.6589 30.3345 42.6589 30.3749C42.8676 30.1729 43.0683 29.9791 43.2689 29.7771C43.598 29.4379 43.9271 29.0987 44.2562 28.7594C44.6576 28.3475 45.0669 27.9436 45.388 27.459C46.0221 26.5058 46.3592 25.4477 46.4315 24.3088C46.4716 23.6546 46.3994 23.0084 46.2388 22.3703C46.0703 21.6999 45.7974 21.0779 45.4121 20.5044C45.1954 20.1409 44.9224 19.8421 44.6255 19.5109Z" fill="url(#paint2_linear_622_11116)"/>
</g>
<g filter="url(#filter2_d_622_11116)">
<path d="M21.5503 38.1329C21.4623 38.1008 21.4143 38.0366 21.3743 37.9804C21.2302 37.7879 21.0542 37.6194 20.8941 37.443C20.7021 37.2264 20.502 37.0098 20.2939 36.8012C19.8938 36.3921 19.4937 35.9829 19.0936 35.5738C18.8616 35.3332 18.6295 35.1005 18.3974 34.8679C18.2054 34.6753 18.0293 34.4668 17.8373 34.2823C17.7492 34.194 17.6692 34.0897 17.5572 34.0175C17.4612 33.9614 17.4292 33.841 17.3411 33.7608C17.0851 33.5282 16.861 33.2715 16.6049 33.0388C16.4049 32.8543 16.2448 32.6217 16.0448 32.4372C15.9167 32.3249 15.8047 32.1885 15.6687 32.0842C15.6046 32.0441 15.5806 31.9559 15.5246 31.8997C15.2605 31.643 14.9965 31.3943 14.7484 31.1216C14.4123 30.7445 14.0442 30.3996 13.7081 30.0225C13.46 29.7498 13.188 29.4931 12.9319 29.2284C12.5558 28.8353 12.2117 28.4101 11.9156 27.9528C11.7716 27.7282 11.6595 27.4876 11.5315 27.2549C11.4115 27.0383 11.3395 26.8057 11.2434 26.5891C11.1154 26.3163 11.0754 26.0275 10.9874 25.7468C10.9313 25.5542 10.9073 25.3537 10.8673 25.1612C10.7713 24.6237 10.7953 24.0862 10.7793 23.5407C10.7793 23.3963 10.7953 23.2519 10.7873 23.1075C10.7873 22.9952 10.8353 22.8749 10.8513 22.7545C10.8673 22.6823 10.8593 22.6021 10.8673 22.5299C10.8833 22.4096 10.9233 22.2973 10.9553 22.1769C11.0514 21.7678 11.1794 21.3747 11.3315 20.9817C11.4195 20.749 11.5075 20.5084 11.6435 20.2998C11.8196 20.027 11.9796 19.7382 12.1717 19.4815C12.3637 19.2168 12.5558 18.9521 12.7879 18.7194C12.9879 18.5109 13.196 18.3103 13.42 18.1178C13.7801 17.7969 14.1722 17.5161 14.5964 17.2835C14.8524 17.1471 15.1165 17.0188 15.3806 16.8984C15.5726 16.8102 15.7647 16.738 15.9727 16.6899C16.1328 16.6497 16.2768 16.5775 16.4449 16.5615C16.7009 16.5374 16.941 16.4733 17.1891 16.4331C17.5492 16.385 17.9093 16.385 18.2694 16.385C18.4134 16.385 18.5575 16.385 18.6935 16.393C18.8375 16.4011 18.9816 16.4251 19.1256 16.4492C19.3257 16.4813 19.5257 16.5615 19.7338 16.5695C19.9178 16.5775 20.0699 16.6738 20.2379 16.7139C20.558 16.7861 20.8461 16.9385 21.1422 17.0669C21.5023 17.2273 21.8304 17.4279 22.1505 17.6525C22.3825 17.8129 22.6226 17.9734 22.8387 18.1659C22.9907 18.3023 23.1347 18.4467 23.2708 18.5911C23.7189 19.0483 24.167 19.5056 24.6152 19.9629C25.1033 20.4682 25.5914 20.9817 26.0876 21.479C26.6957 22.0887 27.2799 22.7305 27.8961 23.3321C27.9201 23.3562 27.9441 23.3803 27.9681 23.4043C28.0001 23.4364 27.9921 23.4685 27.9601 23.5006C27.736 23.7252 27.52 23.9418 27.2959 24.1664C27.2239 24.2466 27.1359 24.3188 27.0718 24.3991C27.0158 24.4632 26.9758 24.4312 26.9358 24.3991C26.7598 24.2226 26.5677 24.0541 26.4157 23.8536C26.2556 23.653 26.0476 23.5086 25.9035 23.3C25.8395 23.2118 25.7435 23.1476 25.6714 23.0674C25.3674 22.7545 25.0713 22.4256 24.7592 22.1288C24.4791 21.8561 24.215 21.5592 23.935 21.2785C23.7429 21.0859 23.5349 20.9095 23.3588 20.7009C23.1187 20.4121 22.8467 20.1634 22.5906 19.8907C22.3105 19.5938 22.0304 19.297 21.7023 19.0483C21.5103 18.9039 21.3102 18.7595 21.0942 18.6392C20.9181 18.5349 20.7341 18.4467 20.558 18.3504C20.39 18.2622 20.2139 18.19 20.0299 18.1338C19.8778 18.0857 19.7178 18.0295 19.5577 17.9894C19.3097 17.9252 19.0616 17.8851 18.8135 17.845C18.6855 17.821 18.5575 17.829 18.4294 17.821C18.3494 17.8129 18.3334 17.845 18.3334 17.9172C18.3334 18.1659 18.3334 18.4146 18.3334 18.6553C18.3334 19.4334 18.3334 20.2115 18.3334 20.9897C18.3334 22.8588 18.3414 24.736 18.3334 26.6051C18.3334 26.926 18.3494 27.2469 18.3414 27.5758C18.3414 27.64 18.3334 27.6801 18.2454 27.6801C17.6692 27.6801 17.0931 27.6801 16.5169 27.6801C16.4209 27.6801 16.3969 27.7122 16.3969 27.8325C16.3969 28.6909 16.3969 29.5412 16.3969 30.3996C16.3969 30.5039 16.4049 30.6082 16.3889 30.7124C16.3809 30.7525 16.3969 30.7766 16.4209 30.8087C16.965 31.3622 17.5092 31.9158 18.0533 32.4773C18.6455 33.087 19.2377 33.6967 19.8298 34.3063C19.9739 34.4507 20.1259 34.5871 20.2779 34.7315C20.2779 34.4908 20.2779 34.2422 20.2779 33.9935C20.2779 31.4344 20.2779 28.8834 20.2779 26.3244C20.2779 26.2361 20.31 26.2121 20.39 26.2121C20.9661 26.2121 21.5423 26.2121 22.1185 26.2121C22.2145 26.2121 22.2305 26.18 22.2305 26.0917C22.2305 24.8323 22.2305 23.5808 22.2305 22.3213C22.2305 22.1769 22.2305 22.1769 22.3745 22.1769C22.4385 22.1769 22.5106 22.185 22.5746 22.1769C22.6626 22.1689 22.6946 22.201 22.6946 22.2973C22.6946 22.7545 22.6946 23.2118 22.6946 23.6691C22.6946 24.4873 22.6946 25.2975 22.6946 26.1158C22.6946 26.204 22.7266 26.2361 22.8067 26.204C22.8627 26.18 22.9187 26.2121 22.9667 26.2121C23.4868 26.2121 23.999 26.2121 24.5191 26.2121C24.6072 26.2121 24.6552 26.2361 24.6312 26.3324C24.5991 26.5169 24.6152 26.7014 24.6152 26.8779C24.6152 26.926 24.5992 26.9581 24.5671 26.9902C24.3831 27.1667 24.223 27.3512 24.039 27.5277C23.8389 27.7282 23.6389 27.9288 23.4388 28.1374C23.2148 28.362 23.0147 28.6026 22.8227 28.8513C22.6866 29.0278 22.5586 29.2043 22.4385 29.3888C22.2305 29.7017 22.0304 30.0225 21.8704 30.3675C21.7183 30.6884 21.5743 31.0173 21.4543 31.3542C21.3502 31.651 21.2382 31.9398 21.1742 32.2447C21.1182 32.5174 21.0462 32.7821 21.0061 33.0549C20.9821 33.2394 20.9661 33.4239 20.9421 33.6084C20.9101 33.8571 20.9021 34.0978 20.8861 34.3464C20.8701 34.5791 20.8621 34.8117 20.8941 35.0444C20.9101 35.1567 20.9021 35.277 20.9101 35.3893C20.9341 35.6139 20.9581 35.8385 20.9901 36.0551C21.0462 36.4562 21.1502 36.8493 21.2542 37.2344C21.3102 37.443 21.3743 37.6435 21.4623 37.836C21.4863 37.9323 21.5343 38.0206 21.5503 38.1329ZM15.8927 30.2311C15.8927 30.2151 15.9007 30.207 15.9007 30.199C15.9007 29.4129 15.9007 28.6267 15.9007 27.8405C15.9007 27.64 15.9007 27.648 15.7087 27.656C15.1565 27.6801 14.6124 27.6641 14.0602 27.6641C13.9882 27.6641 13.9562 27.64 13.9562 27.5598C13.9562 24.9365 13.9562 22.3053 13.9562 19.6821C13.9562 19.634 13.9802 19.5618 13.9402 19.5457C13.9002 19.5297 13.8762 19.6019 13.8442 19.634C13.4841 19.9789 13.204 20.388 12.9559 20.8132C12.6198 21.3988 12.4037 22.0245 12.2677 22.6823C12.1397 23.3 12.1317 23.9258 12.1797 24.5515C12.2037 24.8563 12.2757 25.1531 12.3397 25.45C12.4998 26.1158 12.7879 26.7335 13.164 27.3031C13.476 27.7844 13.8682 28.1935 14.2763 28.6026C14.5003 28.8353 14.7244 29.0679 14.9485 29.3006C15.2205 29.5733 15.4926 29.8461 15.7567 30.1268C15.7967 30.1669 15.8367 30.207 15.8927 30.2311Z" fill="url(#paint3_linear_622_11116)"/>
</g>
<path d="M0 53.1243C0 53.1243 13.153 57.4053 29.1174 57.4053C45.0817 57.4053 58.4355 53.1243 58.4355 53.1243V38.305C58.4355 38.305 40.8912 44.0831 29.1174 44.0681C17.4198 44.0531 0 38.305 0 38.305V53.1243Z" fill="url(#paint4_linear_622_11116)"/>
<rect x="27.1982" y="48.7231" width="1.64527" height="5.48424" fill="#E6FEFF"/>
<rect x="30.3867" y="48.7231" width="1.64527" height="5.48424" fill="#E6FEFF"/>
<g filter="url(#filter3_d_622_11116)">
<path d="M30.3756 9.33081C29.9907 9.99748 29.0284 9.99748 28.6435 9.33081L26.074 4.88028C25.6891 4.21361 26.1702 3.38028 26.94 3.38028L32.0791 3.38028C32.8489 3.38028 33.33 4.21361 32.9451 4.88028L30.3756 9.33081Z" fill="url(#paint5_linear_622_11116)"/>
</g>
<defs>
<filter id="filter0_i_622_11116" x="1.8916" y="5.8877" width="55.6533" height="57.6233" filterUnits="userSpaceOnUse" color-interpolation-filters="sRGB">
<feFlood flood-opacity="0" result="BackgroundImageFix"/>
<feBlend mode="normal" in="SourceGraphic" in2="BackgroundImageFix" result="shape"/>
<feColorMatrix in="SourceAlpha" type="matrix" values="0 0 0 0 0 0 0 0 0 0 0 0 0 0 0 0 0 0 127 0" result="hardAlpha"/>
<feOffset dx="1" dy="1"/>
<feGaussianBlur stdDeviation="0.5"/>
<feComposite in2="hardAlpha" operator="arithmetic" k2="-1" k3="1"/>
<feColorMatrix type="matrix" values="0 0 0 0 0 0 0 0 0 0 0 0 0 0 0 0 0 0 0.25 0"/>
<feBlend mode="normal" in2="shape" result="effect1_innerShadow_622_11116"/>
</filter>
<filter id="filter1_d_622_11116" x="22.0934" y="16.385" width="28.3523" height="29.5082" filterUnits="userSpaceOnUse" color-interpolation-filters="sRGB">
<feFlood flood-opacity="0" result="BackgroundImageFix"/>
<feColorMatrix in="SourceAlpha" type="matrix" values="0 0 0 0 0 0 0 0 0 0 0 0 0 0 0 0 0 0 127 0" result="hardAlpha"/>
<feOffset dx="1" dy="2"/>
<feGaussianBlur stdDeviation="0.8"/>
<feComposite in2="hardAlpha" operator="out"/>
<feColorMatrix type="matrix" values="0 0 0 0 0 0 0 0 0 0 0 0 0 0 0 0 0 0 0.25 0"/>
<feBlend mode="normal" in2="BackgroundImageFix" result="effect1_dropShadow_622_11116"/>
<feBlend mode="normal" in="SourceGraphic" in2="effect1_dropShadow_622_11116" result="shape"/>
</filter>
<filter id="filter2_d_622_11116" x="10.1793" y="16.385" width="20.409" height="25.3478" filterUnits="userSpaceOnUse" color-interpolation-filters="sRGB">
<feFlood flood-opacity="0" result="BackgroundImageFix"/>
<feColorMatrix in="SourceAlpha" type="matrix" values="0 0 0 0 0 0 0 0 0 0 0 0 0 0 0 0 0 0 127 0" result="hardAlpha"/>
<feOffset dx="1" dy="2"/>
<feGaussianBlur stdDeviation="0.8"/>
<feComposite in2="hardAlpha" operator="out"/>
<feColorMatrix type="matrix" values="0 0 0 0 0 0 0 0 0 0 0 0 0 0 0 0 0 0 0.25 0"/>
<feBlend mode="normal" in2="BackgroundImageFix" result="effect1_dropShadow_622_11116"/>
<feBlend mode="normal" in="SourceGraphic" in2="effect1_dropShadow_622_11116" result="shape"/>
</filter>
<filter id="filter3_d_622_11116" x="25.6385" y="3.08037" width="9.7416" height="9.05044" filterUnits="userSpaceOnUse" color-interpolation-filters="sRGB">
<feFlood flood-opacity="0" result="BackgroundImageFix"/>
<feColorMatrix in="SourceAlpha" type="matrix" values="0 0 0 0 0 0 0 0 0 0 0 0 0 0 0 0 0 0 127 0" result="hardAlpha"/>
<feOffset dx="1" dy="1"/>
<feGaussianBlur stdDeviation="0.65"/>
<feComposite in2="hardAlpha" operator="out"/>
<feColorMatrix type="matrix" values="0 0 0 0 0 0 0 0 0 0 0 0 0 0 0 0 0 0 0.25 0"/>
<feBlend mode="normal" in2="BackgroundImageFix" result="effect1_dropShadow_622_11116"/>
<feBlend mode="normal" in="SourceGraphic" in2="effect1_dropShadow_622_11116" result="shape"/>
</filter>
<linearGradient id="paint0_linear_622_11116" x1="14.7345" y1="12.414" x2="53.372" y2="59.754" gradientUnits="userSpaceOnUse">
<stop offset="0.207595" stop-color="#A1BABC"/>
<stop offset="0.961067" stop-color="#90A4A5"/>
</linearGradient>
<linearGradient id="paint1_linear_622_11116" x1="15.6724" y1="14.1182" x2="36.3302" y2="34.8905" gradientUnits="userSpaceOnUse">
<stop stop-color="#9DB8C6"/>
<stop offset="1" stop-color="#70828B"/>
<stop offset="1" stop-color="#545E60"/>
</linearGradient>
<linearGradient id="paint2_linear_622_11116" x1="35.2693" y1="16.385" x2="35.2693" y2="42.2933" gradientUnits="userSpaceOnUse">
<stop stop-color="#E6FEFF"/>
<stop offset="1" stop-color="#6A8B9C"/>
</linearGradient>
<linearGradient id="paint3_linear_622_11116" x1="19.3839" y1="16.385" x2="19.3839" y2="38.1329" gradientUnits="userSpaceOnUse">
<stop stop-color="#E6FEFF"/>
<stop offset="1" stop-color="#6A8B9C"/>
</linearGradient>
<linearGradient id="paint4_linear_622_11116" x1="36.6687" y1="42.4654" x2="36.6687" y2="57.4053" gradientUnits="userSpaceOnUse">
<stop stop-color="#6A8B9C"/>
<stop offset="1" stop-color="#4C6D72"/>
</linearGradient>
<linearGradient id="paint5_linear_622_11116" x1="29.5095" y1="10.8308" x2="29.5095" y2="0.89677" gradientUnits="userSpaceOnUse">
<stop stop-color="#52737A"/>
<stop offset="1" stop-color="#E0F8FA"/>
</linearGradient>
</defs>
</svg>
