<svg width="46" height="47" viewBox="0 0 46 47" fill="none" xmlns="http://www.w3.org/2000/svg">
<path d="M18.9891 2.99901L4.74964 12.3037C3.03564 13.4237 2 15.3496 2 17.417V35.3292C2 37.9379 3.64045 40.2562 6.07777 41.0919L20.3364 45.9811C21.6003 46.4145 22.9707 46.4084 24.2308 45.9638L37.9721 41.115C40.3838 40.264 42 37.9586 42 35.3696V17.3654C42 15.3263 40.9923 13.4228 39.3163 12.2958L25.5558 3.04271C23.5697 1.7072 20.9923 1.69005 18.9891 2.99901Z" fill="url(#paint0_linear_637_3002)"/>
<g filter="url(#filter0_i_637_3002)">
<path d="M18.9669 4.71079L6.04055 13.1704C4.32857 14.2907 3.29443 16.2155 3.29443 18.2814V34.3178C3.29443 37.0502 5.09128 39.4473 7.68783 40.179L20.638 43.828C21.7038 44.1283 22.8308 44.1241 23.8944 43.8156L36.3553 40.2024C38.9303 39.4557 40.7054 37.0691 40.7054 34.3536V18.2298C40.7054 16.1922 39.6993 14.2899 38.0252 13.1625L25.5406 4.75455C23.5529 3.41591 20.9718 3.39873 18.9669 4.71079Z" fill="url(#paint1_linear_637_3002)"/>
</g>
<g filter="url(#filter1_d_637_3002)">
<path d="M17.5412 24.6002C17.5248 24.4488 17.5412 24.2863 17.5357 24.1181C17.5357 24.034 17.5522 23.9387 17.5797 23.849C17.6017 23.7649 17.6017 23.6752 17.6182 23.5968C17.6511 23.4454 17.6951 23.2996 17.7281 23.1483C17.783 22.9016 17.8874 22.6718 17.9808 22.4363C18.0742 22.1953 18.2061 21.9711 18.3379 21.7468C18.4643 21.5282 18.6181 21.332 18.783 21.1358C19.0137 20.8723 19.261 20.6201 19.4973 20.3622C19.6621 20.1828 19.8324 20.0146 19.9973 19.8409C20.3159 19.5157 20.6401 19.1906 20.9478 18.8542C21.2775 18.5011 21.6126 18.1591 21.9478 17.8059C22.0961 17.649 22.261 17.5032 22.4038 17.3351C22.6401 17.0548 22.9093 16.8081 23.162 16.5446C23.3049 16.3989 23.4478 16.2531 23.5851 16.1018C23.9148 15.7374 24.2774 15.4067 24.6071 15.0367C24.8818 14.7284 25.184 14.4425 25.4642 14.1397C25.6785 13.9099 25.8928 13.6857 26.1016 13.4614C26.2829 13.2708 26.4807 13.1083 26.6785 12.9401C26.8763 12.7719 27.0906 12.6374 27.3103 12.5028C27.5466 12.3627 27.8048 12.2506 28.0631 12.1553C28.1785 12.116 28.2884 12.06 28.4037 12.0376C28.5026 12.0207 28.596 11.9871 28.6949 11.9759C28.8488 11.9591 28.9971 11.9254 29.151 11.903C29.3817 11.8694 29.618 11.8694 29.8488 11.8694C30.1455 11.8694 30.4367 11.9142 30.7224 11.9703C31.0411 12.032 31.3488 12.1216 31.64 12.2562C31.9257 12.3851 32.2059 12.5421 32.4696 12.7215C32.7718 12.9345 33.052 13.1755 33.3103 13.4446C33.541 13.6801 33.7278 13.9491 33.9147 14.2182C34.1509 14.5714 34.3212 14.9638 34.4641 15.3674C34.585 15.715 34.6619 16.0681 34.7059 16.4325C34.7278 16.6399 34.7553 16.8473 34.7498 17.0604C34.7443 17.279 34.7498 17.4976 34.7168 17.7163C34.6784 17.9685 34.6454 18.2264 34.5795 18.473C34.4971 18.7758 34.3982 19.0729 34.2663 19.3532C34.041 19.8577 33.7443 20.3061 33.3762 20.7154C33.1235 21.0013 32.8542 21.2759 32.5905 21.545C32.3213 21.8141 32.063 22.0944 31.8103 22.3747C31.7004 22.498 31.5905 22.6213 31.4641 22.7279C31.3927 22.7951 31.3268 22.8736 31.2608 22.9409C31.2114 22.9913 31.1619 23.0362 31.1125 23.0866C30.8378 23.3781 30.5576 23.6584 30.2883 23.9555C30.14 24.1181 29.9916 24.2807 29.8433 24.4376C29.5905 24.7011 29.3378 24.9646 29.0796 25.228C28.8213 25.4915 28.5576 25.7494 28.3103 26.0241C27.9697 26.3997 27.6125 26.764 27.2664 27.1396C27.0466 27.3751 26.8104 27.5993 26.5851 27.8291C26.3598 28.059 26.1345 28.2888 25.9093 28.5187C25.7829 28.6476 25.6345 28.7541 25.4972 28.8662C25.3049 29.0176 25.1016 29.1521 24.8873 29.2642C24.5521 29.438 24.2005 29.5782 23.8379 29.6847C23.6181 29.7463 23.3873 29.78 23.162 29.8248C23.1016 29.836 23.0357 29.836 22.9752 29.8416C22.6785 29.8641 22.3818 29.836 22.0851 29.836C21.9972 29.836 21.9093 29.808 21.8214 29.7968C21.717 29.78 21.6126 29.7519 21.5082 29.7295C21.3269 29.6903 21.1511 29.6342 20.9753 29.5838C20.7665 29.5221 20.5687 29.4212 20.3709 29.3315C20.239 29.2698 20.1236 29.1801 19.9973 29.1129C19.8929 29.0568 19.7995 28.9895 19.706 28.9223C19.5797 28.8214 19.4533 28.7205 19.3324 28.6196C19.1621 28.4738 19.0028 28.3112 18.8544 28.1431C18.761 28.031 18.6621 27.9244 18.5742 27.8067C18.4204 27.5993 18.294 27.3751 18.1731 27.1508C18.0577 26.9322 17.9423 26.7136 17.8654 26.4781C17.783 26.2427 17.7281 26.0016 17.6566 25.7662C17.6292 25.6709 17.6292 25.5644 17.6072 25.4635C17.5467 25.1776 17.5303 24.8973 17.5412 24.6002ZM20.6346 28.3449C20.6511 28.3169 20.6456 28.2944 20.6456 28.272C20.6456 28.0141 20.6456 27.7563 20.6456 27.504C20.6456 26.1754 20.6456 24.8525 20.6456 23.5239C20.6456 23.479 20.6511 23.451 20.706 23.451C21.1071 23.451 21.5082 23.451 21.9093 23.4566C21.9643 23.4566 21.9862 23.4454 21.9807 23.3837C21.9807 22.8624 21.9807 22.3354 21.9807 21.8141C21.9807 21.4497 21.9807 21.091 21.9807 20.7266C21.9807 20.6369 21.9807 20.6369 22.0741 20.6313C22.1236 20.6313 22.1785 20.6369 22.228 20.6201C22.2555 20.6145 22.2939 20.6313 22.2994 20.6761C22.2994 20.7322 22.3104 20.7826 22.3104 20.8331C22.3104 21.6796 22.3104 22.526 22.3104 23.3781C22.3104 23.4342 22.3269 23.451 22.3818 23.4454C22.7829 23.4454 23.184 23.4454 23.5851 23.4398C23.6401 23.4398 23.6565 23.451 23.6565 23.5071C23.6565 25.0262 23.6565 26.5454 23.6565 28.059C23.6565 28.244 23.6565 28.4346 23.6565 28.6196C23.6565 28.6644 23.6675 28.6812 23.717 28.6644C23.7829 28.642 23.8489 28.6308 23.9093 28.6027C24.0247 28.5523 24.1455 28.5075 24.2609 28.4458C24.3928 28.3729 24.5302 28.3112 24.662 28.2328C24.8214 28.1375 24.9642 28.031 25.1126 27.9132C25.2005 27.846 25.2829 27.7787 25.2444 27.6442C25.2444 27.6385 25.2444 27.6329 25.2444 27.6217C25.2444 25.385 25.2499 23.1427 25.2499 20.906C25.2499 20.2052 25.2499 19.5045 25.2499 18.8038C25.2499 18.7141 25.2499 18.7141 25.3378 18.7141C25.7225 18.7141 26.1126 18.7141 26.4972 18.7141C26.5631 18.7141 26.5851 18.6917 26.5851 18.6244C26.5796 18.1647 26.5851 17.6994 26.5851 17.2398C26.5851 16.8193 26.5851 16.3989 26.5851 15.9784C26.5851 15.9112 26.6071 15.8944 26.6675 15.8944C26.7279 15.9 26.7884 15.9 26.8433 15.8944C26.8928 15.8888 26.9038 15.9112 26.9038 15.956C26.9038 16.8305 26.9038 17.705 26.9038 18.5852C26.9038 18.6132 26.9093 18.6412 26.8983 18.6636C26.8763 18.7141 26.9038 18.7141 26.9367 18.7141C27.0356 18.7141 27.14 18.7141 27.2389 18.7141C27.5466 18.7141 27.8543 18.7141 28.1565 18.7141C28.2114 18.7141 28.2334 18.7309 28.2334 18.787C28.2279 18.8598 28.2279 18.9383 28.2279 19.0112C28.2279 20.8611 28.2279 22.7054 28.2279 24.5553C28.2279 24.5778 28.2279 24.5946 28.2334 24.617C28.2499 24.6619 28.2609 24.6675 28.2938 24.6338C28.3598 24.561 28.4257 24.4937 28.4916 24.4264C28.8433 24.0564 29.2004 23.6864 29.5521 23.3165C29.9861 22.8624 30.4202 22.4083 30.8597 21.9542C30.8927 21.9206 30.9037 21.8814 30.9037 21.8365C30.9037 21.1638 30.9037 20.4855 30.9037 19.8128C30.9037 19.7568 30.8872 19.74 30.8323 19.74C30.4477 19.7456 30.0631 19.74 29.6784 19.74C29.5741 19.74 29.5686 19.7624 29.5686 19.6334C29.5686 17.6266 29.5686 15.6141 29.5686 13.6072C29.5686 13.5567 29.5466 13.5119 29.5521 13.4614C29.5795 13.2989 29.5631 13.1307 29.5631 12.9681C29.5631 12.856 29.5576 12.856 29.4532 12.8616C29.4367 12.8616 29.4147 12.8616 29.3982 12.8616C29.2828 12.8728 29.1675 12.8728 29.0521 12.8952C28.7993 12.9457 28.5466 13.013 28.2993 13.1083C28.0136 13.2148 27.7444 13.3549 27.4972 13.5287C27.1895 13.7417 26.9202 14.0108 26.6565 14.2799C26.4312 14.5097 26.217 14.7396 25.9917 14.9694C25.8983 15.0647 25.8049 15.1544 25.717 15.2497C25.4422 15.5412 25.1675 15.8383 24.8928 16.1354C24.8269 16.2083 24.7609 16.2924 24.6895 16.3596C24.5412 16.5054 24.4038 16.6568 24.2554 16.8025C23.8543 17.2061 23.4533 17.6153 23.0741 18.0414C22.8489 18.2936 22.6126 18.5291 22.3763 18.7701C21.9807 19.1794 21.5742 19.583 21.1841 19.9978C20.7885 20.4183 20.3983 20.8387 19.9973 21.2535C19.7115 21.5506 19.4203 21.8421 19.2006 22.2009C19.0412 22.4532 18.8984 22.7166 18.7885 22.9969C18.6456 23.3613 18.5577 23.7369 18.5193 24.1237C18.4753 24.5553 18.4808 24.987 18.5687 25.413C18.6291 25.7045 18.7116 25.9904 18.8159 26.2707C18.8709 26.4221 18.9533 26.5622 19.0302 26.7024C19.4203 27.4087 19.9478 27.9525 20.6346 28.3449ZM32.5465 14.0388C32.541 14.0725 32.541 14.0893 32.541 14.1061C32.541 15.003 32.541 15.8944 32.541 16.7913C32.541 17.7499 32.541 18.7085 32.541 19.6727C32.541 19.7343 32.5301 19.7624 32.4586 19.7624C32.063 19.7568 31.6729 19.7624 31.2773 19.7624C31.2169 19.7624 31.2004 19.7848 31.2004 19.8409C31.2004 20.3902 31.2004 20.9452 31.2004 21.4946C31.2004 21.5226 31.2004 21.5506 31.2004 21.5787C31.3433 21.4385 31.4806 21.304 31.618 21.1638C31.8433 20.9284 32.0685 20.6929 32.2938 20.4575C32.5685 20.1716 32.8487 19.8913 33.0685 19.555C33.5026 18.8935 33.7333 18.1591 33.7828 17.3687C33.8103 16.9146 33.7608 16.4662 33.6509 16.0233C33.5355 15.558 33.3487 15.1264 33.085 14.7284C32.9366 14.4761 32.7498 14.2687 32.5465 14.0388Z" fill="url(#paint2_linear_637_3002)"/>
</g>
<g filter="url(#filter2_d_637_3002)">
<path d="M16.7513 26.9629C16.6911 26.9406 16.6582 26.8961 16.6308 26.8571C16.5322 26.7235 16.4117 26.6066 16.3022 26.4841C16.1707 26.3338 16.0338 26.1834 15.8913 26.0387C15.6175 25.7547 15.3436 25.4708 15.0697 25.1868C14.9108 25.0198 14.752 24.8584 14.5931 24.6969C14.4617 24.5633 14.3412 24.4185 14.2097 24.2905C14.1494 24.2292 14.0947 24.1569 14.018 24.1068C13.9523 24.0678 13.9303 23.9843 13.8701 23.9286C13.6948 23.7671 13.5414 23.589 13.3661 23.4275C13.2292 23.2995 13.1197 23.138 12.9827 23.01C12.8951 22.932 12.8184 22.8374 12.7253 22.765C12.6814 22.7371 12.665 22.6759 12.6267 22.6369C12.4459 22.4588 12.2651 22.2862 12.0953 22.0969C11.8653 21.8352 11.6133 21.5958 11.3832 21.3341C11.2134 21.1448 11.0272 20.9667 10.8519 20.783C10.5945 20.5101 10.3589 20.2151 10.1562 19.8977C10.0576 19.7418 9.98096 19.5748 9.89332 19.4133C9.81115 19.263 9.76185 19.1016 9.69612 18.9512C9.60848 18.762 9.58109 18.5615 9.52084 18.3667C9.48249 18.233 9.46606 18.0938 9.43867 17.9602C9.37294 17.5872 9.38937 17.2142 9.37842 16.8356C9.37842 16.7354 9.38937 16.6352 9.3839 16.535C9.3839 16.457 9.41676 16.3735 9.42772 16.29C9.43867 16.2399 9.43319 16.1842 9.43867 16.1341C9.44963 16.0506 9.47702 15.9726 9.49893 15.8891C9.56466 15.6052 9.6523 15.3324 9.75638 15.0596C9.81663 14.8981 9.87688 14.7311 9.97 14.5863C10.0905 14.397 10.2001 14.1966 10.3315 14.0184C10.463 13.8347 10.5945 13.651 10.7533 13.4895C10.8902 13.3448 11.0327 13.2056 11.186 13.072C11.4325 12.8493 11.7009 12.6544 11.9913 12.4929C12.1665 12.3983 12.3473 12.3092 12.5281 12.2257C12.6595 12.1645 12.791 12.1144 12.9334 12.081C13.043 12.0531 13.1416 12.003 13.2566 11.9919C13.4319 11.9752 13.5962 11.9306 13.766 11.9028C14.0125 11.8694 14.259 11.8694 14.5055 11.8694C14.6041 11.8694 14.7027 11.8694 14.7958 11.875C14.8944 11.8805 14.993 11.8972 15.0916 11.9139C15.2285 11.9362 15.3655 11.9919 15.5079 11.9974C15.6339 12.003 15.738 12.0698 15.853 12.0977C16.0721 12.1478 16.2693 12.2535 16.472 12.3426C16.7185 12.454 16.943 12.5932 17.1622 12.7491C17.321 12.8604 17.4853 12.9718 17.6332 13.1054C17.7373 13.2 17.8359 13.3002 17.929 13.4004C18.2358 13.7178 18.5425 14.0351 18.8493 14.3525C19.1834 14.7032 19.5175 15.0596 19.8572 15.4047C20.2735 15.8279 20.6733 16.2733 21.0951 16.6908C21.1115 16.7075 21.128 16.7242 21.1444 16.7409C21.1663 16.7632 21.1608 16.7855 21.1389 16.8078C20.9856 16.9636 20.8377 17.114 20.6843 17.2699C20.635 17.3255 20.5747 17.3756 20.5309 17.4313C20.4926 17.4759 20.4652 17.4536 20.4378 17.4313C20.3173 17.3088 20.1858 17.1919 20.0817 17.0527C19.9722 16.9135 19.8298 16.8133 19.7312 16.6686C19.6874 16.6073 19.6216 16.5628 19.5723 16.5071C19.3642 16.29 19.1615 16.0617 18.9479 15.8557C18.7562 15.6664 18.5754 15.4604 18.3837 15.2656C18.2522 15.1319 18.1098 15.0095 17.9893 14.8647C17.825 14.6643 17.6387 14.4917 17.4634 14.3024C17.2717 14.0964 17.08 13.8904 16.8554 13.7178C16.7239 13.6176 16.587 13.5174 16.4391 13.4339C16.3186 13.3615 16.1926 13.3002 16.0721 13.2334C15.9571 13.1722 15.8366 13.1221 15.7106 13.0831C15.6065 13.0497 15.497 13.0107 15.3874 12.9829C15.2176 12.9383 15.0478 12.9105 14.878 12.8827C14.7903 12.866 14.7027 12.8715 14.615 12.866C14.5603 12.8604 14.5493 12.8827 14.5493 12.9328C14.5493 13.1054 14.5493 13.278 14.5493 13.445C14.5493 13.985 14.5493 14.5251 14.5493 15.0651C14.5493 16.3624 14.5548 17.6652 14.5493 18.9624C14.5493 19.1851 14.5603 19.4078 14.5548 19.636C14.5548 19.6806 14.5493 19.7084 14.4891 19.7084C14.0947 19.7084 13.7003 19.7084 13.3059 19.7084C13.2402 19.7084 13.2237 19.7307 13.2237 19.8142C13.2237 20.4099 13.2237 21.0001 13.2237 21.5958C13.2237 21.6682 13.2292 21.7406 13.2182 21.8129C13.2128 21.8408 13.2237 21.8575 13.2402 21.8798C13.6126 22.2639 13.9851 22.6481 14.3576 23.0378C14.7629 23.4609 15.1683 23.884 15.5736 24.3072C15.6722 24.4074 15.7763 24.502 15.8804 24.6023C15.8804 24.4352 15.8804 24.2626 15.8804 24.09C15.8804 22.314 15.8804 20.5435 15.8804 18.7675C15.8804 18.7063 15.9023 18.6896 15.9571 18.6896C16.3515 18.6896 16.7459 18.6896 17.1402 18.6896C17.206 18.6896 17.2169 18.6673 17.2169 18.6061C17.2169 17.732 17.2169 16.8634 17.2169 15.9893C17.2169 15.8891 17.2169 15.8891 17.3155 15.8891C17.3594 15.8891 17.4086 15.8947 17.4525 15.8891C17.5127 15.8836 17.5346 15.9058 17.5346 15.9726C17.5346 16.29 17.5346 16.6073 17.5346 16.9247C17.5346 17.4926 17.5346 18.0549 17.5346 18.6228C17.5346 18.684 17.5565 18.7063 17.6113 18.684C17.6497 18.6673 17.688 18.6896 17.7209 18.6896C18.0769 18.6896 18.4275 18.6896 18.7835 18.6896C18.8438 18.6896 18.8767 18.7063 18.8602 18.7731C18.8383 18.9011 18.8493 19.0292 18.8493 19.1517C18.8493 19.1851 18.8383 19.2074 18.8164 19.2296C18.6904 19.3521 18.5809 19.4802 18.4549 19.6026C18.3179 19.7418 18.181 19.881 18.0441 20.0258C17.8907 20.1817 17.7537 20.3487 17.6223 20.5213C17.5292 20.6438 17.4415 20.7662 17.3594 20.8943C17.2169 21.1114 17.08 21.3341 16.9704 21.5735C16.8664 21.7962 16.7678 22.0245 16.6856 22.2583C16.6144 22.4643 16.5377 22.6648 16.4939 22.8763C16.4555 23.0656 16.4062 23.2494 16.3789 23.4387C16.3624 23.5667 16.3515 23.6948 16.335 23.8228C16.3131 23.9954 16.3076 24.1624 16.2967 24.335C16.2857 24.4965 16.2803 24.6579 16.3022 24.8194C16.3131 24.8973 16.3076 24.9808 16.3131 25.0588C16.3296 25.2147 16.346 25.3706 16.3679 25.5209C16.4062 25.7993 16.4774 26.0721 16.5487 26.3393C16.587 26.4841 16.6308 26.6233 16.6911 26.7569C16.7075 26.8237 16.7404 26.8849 16.7513 26.9629ZM12.8786 21.4789C12.8786 21.4678 12.8841 21.4622 12.8841 21.4566C12.8841 20.911 12.8841 20.3654 12.8841 19.8198C12.8841 19.6806 12.8841 19.6862 12.7526 19.6917C12.3747 19.7084 12.0022 19.6973 11.6243 19.6973C11.575 19.6973 11.553 19.6806 11.553 19.6249C11.553 17.8043 11.553 15.9782 11.553 14.1576C11.553 14.1242 11.5695 14.0741 11.5421 14.063C11.5147 14.0518 11.4983 14.102 11.4764 14.1242C11.2299 14.3636 11.0381 14.6476 10.8683 14.9426C10.6383 15.3491 10.4904 15.7833 10.3973 16.2399C10.3096 16.6686 10.3041 17.1028 10.337 17.5371C10.3534 17.7487 10.4027 17.9547 10.4466 18.1607C10.5561 18.6228 10.7533 19.0515 11.0108 19.4468C11.2244 19.7808 11.4928 20.0647 11.7721 20.3487C11.9255 20.5101 12.0789 20.6716 12.2323 20.8331C12.4185 21.0224 12.6048 21.2116 12.7855 21.4065C12.8129 21.4344 12.8403 21.4622 12.8786 21.4789Z" fill="url(#paint3_linear_637_3002)"/>
</g>
<g filter="url(#filter3_d_637_3002)">
<path d="M2 37.367C2 37.367 11.0034 40.3381 21.9313 40.3381C32.8591 40.3381 42 37.367 42 37.367V27.0821C42 27.0821 29.9906 31.0923 21.9313 31.0818C13.9241 31.0714 2 27.0821 2 27.0821V37.367Z" fill="url(#paint4_linear_637_3002)"/>
</g>
<path d="M19.4175 34.3125H20.5437V38.1187H19.4175V34.3125Z" fill="#FFF6D1"/>
<path d="M21.6001 34.3125H22.7263V38.1187H21.6001V34.3125Z" fill="#FFF6D1"/>
<path d="M23.6001 34.3125H24.7263V38.1187H23.6001V34.3125Z" fill="#FFF6D1"/>
<g filter="url(#filter4_d_637_3002)">
<path d="M22.5462 5.5084C22.3922 5.77877 22.0073 5.77877 21.8534 5.5084L19.6017 1.55424C19.4478 1.28387 19.6402 0.945903 19.9481 0.945903L24.4515 0.945904C24.7594 0.945904 24.9518 1.28387 24.7979 1.55424L22.5462 5.5084Z" fill="url(#paint5_linear_637_3002)"/>
</g>
<g filter="url(#filter5_d_637_3002)">
<path d="M6.00782 15.2611C6.18259 15.5181 6.01737 15.8706 5.71044 15.8955L1.22149 16.2602C0.914552 16.2851 0.696096 15.9638 0.828267 15.6818L2.76127 11.558C2.89345 11.276 3.27712 11.2448 3.45188 11.5019L6.00782 15.2611Z" fill="url(#paint6_linear_637_3002)"/>
</g>
<g filter="url(#filter6_d_637_3002)">
<path d="M38.2524 15.2611C38.0777 15.5181 38.2429 15.8706 38.5498 15.8955L43.0388 16.2602C43.3457 16.2851 43.5642 15.9638 43.432 15.6818L41.499 11.558C41.3668 11.276 40.9831 11.2448 40.8084 11.5019L38.2524 15.2611Z" fill="url(#paint7_linear_637_3002)"/>
</g>
<defs>
<filter id="filter0_i_637_3002" x="3.29443" y="3.73853" width="39.4111" height="41.3115" filterUnits="userSpaceOnUse" color-interpolation-filters="sRGB">
<feFlood flood-opacity="0" result="BackgroundImageFix"/>
<feBlend mode="normal" in="SourceGraphic" in2="BackgroundImageFix" result="shape"/>
<feColorMatrix in="SourceAlpha" type="matrix" values="0 0 0 0 0 0 0 0 0 0 0 0 0 0 0 0 0 0 127 0" result="hardAlpha"/>
<feOffset dx="2" dy="1"/>
<feGaussianBlur stdDeviation="1"/>
<feComposite in2="hardAlpha" operator="arithmetic" k2="-1" k3="1"/>
<feColorMatrix type="matrix" values="0 0 0 0 0 0 0 0 0 0 0 0 0 0 0 0 0 0 0.25 0"/>
<feBlend mode="normal" in2="shape" result="effect1_innerShadow_637_3002"/>
</filter>
<filter id="filter1_d_637_3002" x="16.9337" y="11.8694" width="20.4168" height="21.581" filterUnits="userSpaceOnUse" color-interpolation-filters="sRGB">
<feFlood flood-opacity="0" result="BackgroundImageFix"/>
<feColorMatrix in="SourceAlpha" type="matrix" values="0 0 0 0 0 0 0 0 0 0 0 0 0 0 0 0 0 0 127 0" result="hardAlpha"/>
<feOffset dx="1" dy="2"/>
<feGaussianBlur stdDeviation="0.8"/>
<feComposite in2="hardAlpha" operator="out"/>
<feColorMatrix type="matrix" values="0 0 0 0 0 0 0 0 0 0 0 0 0 0 0 0 0 0 0.25 0"/>
<feBlend mode="normal" in2="BackgroundImageFix" result="effect1_dropShadow_637_3002"/>
<feBlend mode="normal" in="SourceGraphic" in2="effect1_dropShadow_637_3002" result="shape"/>
</filter>
<filter id="filter2_d_637_3002" x="8.77842" y="11.8694" width="14.9798" height="18.6935" filterUnits="userSpaceOnUse" color-interpolation-filters="sRGB">
<feFlood flood-opacity="0" result="BackgroundImageFix"/>
<feColorMatrix in="SourceAlpha" type="matrix" values="0 0 0 0 0 0 0 0 0 0 0 0 0 0 0 0 0 0 127 0" result="hardAlpha"/>
<feOffset dx="1" dy="2"/>
<feGaussianBlur stdDeviation="0.8"/>
<feComposite in2="hardAlpha" operator="out"/>
<feColorMatrix type="matrix" values="0 0 0 0 0 0 0 0 0 0 0 0 0 0 0 0 0 0 0.25 0"/>
<feBlend mode="normal" in2="BackgroundImageFix" result="effect1_dropShadow_637_3002"/>
<feBlend mode="normal" in="SourceGraphic" in2="effect1_dropShadow_637_3002" result="shape"/>
</filter>
<filter id="filter3_d_637_3002" x="2" y="26.782" width="43.3" height="15.8561" filterUnits="userSpaceOnUse" color-interpolation-filters="sRGB">
<feFlood flood-opacity="0" result="BackgroundImageFix"/>
<feColorMatrix in="SourceAlpha" type="matrix" values="0 0 0 0 0 0 0 0 0 0 0 0 0 0 0 0 0 0 127 0" result="hardAlpha"/>
<feOffset dx="2" dy="1"/>
<feGaussianBlur stdDeviation="0.65"/>
<feComposite in2="hardAlpha" operator="out"/>
<feColorMatrix type="matrix" values="0 0 0 0 0 0 0 0 0 0 0 0 0 0 0 0 0 0 0.25 0"/>
<feBlend mode="normal" in2="BackgroundImageFix" result="effect1_dropShadow_637_3002"/>
<feBlend mode="normal" in="SourceGraphic" in2="effect1_dropShadow_637_3002" result="shape"/>
</filter>
<filter id="filter4_d_637_3002" x="19.2474" y="0.645801" width="7.90469" height="7.36538" filterUnits="userSpaceOnUse" color-interpolation-filters="sRGB">
<feFlood flood-opacity="0" result="BackgroundImageFix"/>
<feColorMatrix in="SourceAlpha" type="matrix" values="0 0 0 0 0 0 0 0 0 0 0 0 0 0 0 0 0 0 127 0" result="hardAlpha"/>
<feOffset dx="1" dy="1"/>
<feGaussianBlur stdDeviation="0.65"/>
<feComposite in2="hardAlpha" operator="out"/>
<feColorMatrix type="matrix" values="0 0 0 0 0 0 0 0 0 0 0 0 0 0 0 0 0 0 0.25 0"/>
<feBlend mode="normal" in2="BackgroundImageFix" result="effect1_dropShadow_637_3002"/>
<feBlend mode="normal" in="SourceGraphic" in2="effect1_dropShadow_637_3002" result="shape"/>
</filter>
<filter id="filter5_d_637_3002" x="0.489063" y="11.0264" width="7.89004" height="7.53506" filterUnits="userSpaceOnUse" color-interpolation-filters="sRGB">
<feFlood flood-opacity="0" result="BackgroundImageFix"/>
<feColorMatrix in="SourceAlpha" type="matrix" values="0 0 0 0 0 0 0 0 0 0 0 0 0 0 0 0 0 0 127 0" result="hardAlpha"/>
<feOffset dx="1" dy="1"/>
<feGaussianBlur stdDeviation="0.65"/>
<feComposite in2="hardAlpha" operator="out"/>
<feColorMatrix type="matrix" values="0 0 0 0 0 0 0 0 0 0 0 0 0 0 0 0 0 0 0.25 0"/>
<feBlend mode="normal" in2="BackgroundImageFix" result="effect1_dropShadow_637_3002"/>
<feBlend mode="normal" in="SourceGraphic" in2="effect1_dropShadow_637_3002" result="shape"/>
</filter>
<filter id="filter6_d_637_3002" x="37.8812" y="11.0264" width="7.89004" height="7.53506" filterUnits="userSpaceOnUse" color-interpolation-filters="sRGB">
<feFlood flood-opacity="0" result="BackgroundImageFix"/>
<feColorMatrix in="SourceAlpha" type="matrix" values="0 0 0 0 0 0 0 0 0 0 0 0 0 0 0 0 0 0 127 0" result="hardAlpha"/>
<feOffset dx="1" dy="1"/>
<feGaussianBlur stdDeviation="0.65"/>
<feComposite in2="hardAlpha" operator="out"/>
<feColorMatrix type="matrix" values="0 0 0 0 0 0 0 0 0 0 0 0 0 0 0 0 0 0 0.25 0"/>
<feBlend mode="normal" in2="BackgroundImageFix" result="effect1_dropShadow_637_3002"/>
<feBlend mode="normal" in="SourceGraphic" in2="effect1_dropShadow_637_3002" result="shape"/>
</filter>
<linearGradient id="paint0_linear_637_3002" x1="12.086" y1="9.11297" x2="38.973" y2="41.6046" gradientUnits="userSpaceOnUse">
<stop offset="0.207595" stop-color="#D2B85C"/>
<stop offset="0.961067" stop-color="#836035"/>
</linearGradient>
<linearGradient id="paint1_linear_637_3002" x1="12.7276" y1="10.2958" x2="39.1689" y2="37.5292" gradientUnits="userSpaceOnUse">
<stop stop-color="#916C30"/>
<stop offset="0.828125" stop-color="#C49A45"/>
</linearGradient>
<linearGradient id="paint2_linear_637_3002" x1="26.1421" y1="11.8694" x2="26.1421" y2="29.8503" gradientUnits="userSpaceOnUse">
<stop stop-color="#FFF7D2"/>
<stop offset="1" stop-color="#E5C66C"/>
</linearGradient>
<linearGradient id="paint3_linear_637_3002" x1="15.2684" y1="11.8694" x2="15.2684" y2="26.9629" gradientUnits="userSpaceOnUse">
<stop stop-color="#FFF7D2"/>
<stop offset="1" stop-color="#E5C66C"/>
</linearGradient>
<linearGradient id="paint4_linear_637_3002" x1="27.1003" y1="29.9696" x2="27.1003" y2="40.3381" gradientUnits="userSpaceOnUse">
<stop stop-color="#E5C66C"/>
<stop offset="1" stop-color="#AF7343"/>
</linearGradient>
<linearGradient id="paint5_linear_637_3002" x1="22.1998" y1="6.11674" x2="22.1998" y2="-0.777708" gradientUnits="userSpaceOnUse">
<stop stop-color="#9B7534"/>
<stop offset="1" stop-color="#FFF7D2"/>
</linearGradient>
<linearGradient id="paint6_linear_637_3002" x1="6.40104" y1="15.8394" x2="0.2284" y2="12.9461" gradientUnits="userSpaceOnUse">
<stop stop-color="#9B7534"/>
<stop offset="1" stop-color="#FFF7D2"/>
</linearGradient>
<linearGradient id="paint7_linear_637_3002" x1="37.8592" y1="15.8394" x2="44.0319" y2="12.9461" gradientUnits="userSpaceOnUse">
<stop stop-color="#9B7534"/>
<stop offset="1" stop-color="#FFF7D2"/>
</linearGradient>
</defs>
</svg>
