<svg width="69" height="73" viewBox="0 0 69 73" fill="none" xmlns="http://www.w3.org/2000/svg">
<g clip-path="url(#clip0_7_53)">
<path d="M29.3062 1.59934L4.74312 16.9415C1.78648 18.7882 0 21.9638 0 25.3728V54.9077C0 59.2091 2.82978 63.0316 7.03416 64.4096L31.6303 72.4713C33.8106 73.1859 36.1744 73.1758 38.3481 72.4427L62.052 64.4476C66.2121 63.0445 69 59.2433 69 54.9743V25.2877C69 21.9254 67.2618 18.7868 64.3706 16.9285L40.6337 1.67138C37.2077 -0.530694 32.7617 -0.55897 29.3062 1.59934Z" fill="url(#paint0_linear_7_53)"/>
<path d="M29.2681 4.42203L6.97002 18.3708C4.01686 20.2181 2.23297 23.3918 2.23297 26.7983V53.2401C2.23297 57.7455 5.33253 61.6981 9.81158 62.9045L32.1506 68.9213C33.9892 69.4165 35.9332 69.4094 37.7679 68.9009L59.2629 62.9431C63.7049 61.7119 66.7669 57.7767 66.7669 53.2992V26.7132C66.7669 23.3534 65.0313 20.2168 62.1436 18.3578L40.6077 4.49419C37.1789 2.28694 32.7264 2.25861 29.2681 4.42203Z" fill="url(#paint1_linear_7_53)"/>
<path d="M26.809 37.2168C26.7806 36.9672 26.809 36.6991 26.7995 36.4218C26.7995 36.2832 26.828 36.126 26.8754 35.9782C26.9133 35.8395 26.9133 35.6916 26.9417 35.5622C26.9986 35.3126 27.0744 35.0723 27.1313 34.8227C27.226 34.416 27.4061 34.0371 27.5672 33.6489C27.7284 33.2514 27.9558 32.8817 28.1833 32.5119C28.4013 32.1514 28.6667 31.8279 28.951 31.5044C29.3491 31.07 29.7756 30.654 30.1831 30.2288C30.4675 29.9331 30.7613 29.6558 31.0456 29.3692C31.5954 28.8331 32.1545 28.297 32.6853 27.7424C33.254 27.1601 33.8321 26.5962 34.4103 26.0139C34.6662 25.7551 34.9505 25.5148 35.197 25.2375C35.6045 24.7753 36.0689 24.3686 36.5049 23.9342C36.7513 23.6939 36.9978 23.4535 37.2347 23.204C37.8034 22.6032 38.4289 22.0578 38.9976 21.4477C39.4715 20.9394 39.9928 20.468 40.4761 19.9688C40.8458 19.5898 41.2154 19.2201 41.5756 18.8504C41.8883 18.5361 42.2296 18.2681 42.5708 17.9908C42.912 17.7135 43.2816 17.4916 43.6607 17.2698C44.0683 17.0387 44.5137 16.8538 44.9592 16.6967C45.1582 16.632 45.3478 16.5396 45.5468 16.5026C45.7174 16.4749 45.8785 16.4194 46.0491 16.4009C46.3145 16.3732 46.5704 16.3177 46.8358 16.2808C47.2339 16.2253 47.6414 16.2253 48.0395 16.2253C48.5513 16.2253 49.0536 16.2992 49.5465 16.3917C50.0962 16.4933 50.627 16.6412 51.1293 16.8631C51.6222 17.0757 52.1055 17.3345 52.5605 17.6303C53.0818 17.9815 53.5651 18.379 54.0106 18.8227C54.4087 19.2109 54.7309 19.6545 55.0532 20.0982C55.4607 20.6805 55.7545 21.3276 56.0009 21.9931C56.2095 22.5662 56.3422 23.1485 56.418 23.7493C56.4559 24.0913 56.5033 24.4333 56.4938 24.7846C56.4843 25.145 56.4938 25.5055 56.4369 25.866C56.3706 26.282 56.3137 26.7072 56.2 27.1139C56.0578 27.613 55.8872 28.1029 55.6597 28.5651C55.2711 29.397 54.7593 30.1364 54.1243 30.8112C53.6883 31.2826 53.2239 31.7355 52.769 32.1792C52.3046 32.6228 51.8591 33.085 51.4231 33.5472C51.2336 33.7505 51.044 33.9539 50.826 34.1295C50.7028 34.2404 50.5891 34.3698 50.4753 34.4807C50.39 34.5639 50.3047 34.6379 50.2194 34.7211C49.7455 35.2017 49.2622 35.6639 48.7977 36.1538C48.5418 36.4218 48.2859 36.6899 48.03 36.9487C47.594 37.3831 47.1581 37.8176 46.7126 38.252C46.2671 38.6864 45.8122 39.1116 45.3857 39.5645C44.7981 40.1838 44.182 40.7847 43.5849 41.404C43.2058 41.7922 42.7982 42.1619 42.4096 42.5409C42.021 42.9199 41.6324 43.2988 41.2439 43.6778C41.0259 43.8904 40.77 44.066 40.533 44.2509C40.2013 44.5005 39.8506 44.7223 39.481 44.9072C38.9028 45.1937 38.2962 45.4248 37.6707 45.6004C37.2916 45.7021 36.8935 45.7575 36.5049 45.8315C36.4006 45.85 36.2869 45.85 36.1827 45.8592C35.6708 45.8962 35.159 45.85 34.6472 45.85C34.4956 45.85 34.3439 45.8038 34.1923 45.7853C34.0122 45.7575 33.8321 45.7113 33.6521 45.6743C33.3393 45.6096 33.036 45.5172 32.7327 45.434C32.3725 45.3323 32.0313 45.166 31.6901 45.0181C31.4627 44.9164 31.2636 44.7685 31.0456 44.6576C30.8656 44.5652 30.7044 44.4542 30.5433 44.3433C30.3253 44.1769 30.1073 44.0106 29.8988 43.8442C29.605 43.6039 29.3301 43.3358 29.0742 43.0585C28.9131 42.8736 28.7425 42.698 28.5909 42.5039C28.3255 42.1619 28.1075 41.7922 27.899 41.4224C27.6999 41.062 27.5009 40.7015 27.3682 40.3132C27.226 39.925 27.1313 39.5276 27.008 39.1394C26.9607 38.9822 26.9607 38.8066 26.9227 38.6402C26.8185 38.1688 26.7901 37.7066 26.809 37.2168ZM32.1451 43.3913C32.1735 43.345 32.164 43.3081 32.164 43.2711C32.164 42.8459 32.164 42.4207 32.164 42.0048C32.164 39.8141 32.164 37.6327 32.164 35.442C32.164 35.3681 32.1735 35.3219 32.2683 35.3219C32.9602 35.3219 33.6521 35.3219 34.3439 35.3311C34.4387 35.3311 34.4766 35.3126 34.4672 35.211C34.4672 34.3513 34.4672 33.4825 34.4672 32.6229C34.4672 32.022 34.4672 31.4305 34.4672 30.8297C34.4672 30.6818 34.4672 30.6818 34.6283 30.6725C34.7136 30.6725 34.8084 30.6818 34.8937 30.654C34.941 30.6448 35.0074 30.6725 35.0169 30.7465C35.0169 30.8389 35.0358 30.9221 35.0358 31.0053C35.0358 32.401 35.0358 33.7967 35.0358 35.2017C35.0358 35.2942 35.0643 35.3219 35.159 35.3126C35.8509 35.3126 36.5428 35.3126 37.2347 35.3034C37.3295 35.3034 37.3579 35.3219 37.3579 35.4143C37.3579 37.9192 37.3579 40.4242 37.3579 42.9198C37.3579 43.2249 37.3579 43.5391 37.3579 43.8442C37.3579 43.9181 37.3769 43.9459 37.4622 43.9181C37.5759 43.8811 37.6896 43.8627 37.7939 43.8164C37.9929 43.7333 38.2014 43.6593 38.4005 43.5576C38.628 43.4375 38.8649 43.3358 39.0924 43.2064C39.3672 43.0493 39.6137 42.8736 39.8696 42.6795C40.0212 42.5686 40.1634 42.4577 40.097 42.2358C40.097 42.2266 40.097 42.2174 40.097 42.1989C40.097 38.5108 40.1065 34.8135 40.1065 31.1254C40.1065 29.97 40.1065 28.8146 40.1065 27.6592C40.1065 27.5113 40.1065 27.5113 40.2582 27.5113C40.9216 27.5113 41.5945 27.5113 42.258 27.5113C42.3717 27.5113 42.4096 27.4744 42.4096 27.3634C42.4002 26.6055 42.4096 25.8383 42.4096 25.0803C42.4096 24.3871 42.4096 23.6939 42.4096 23.0006C42.4096 22.8897 42.4475 22.862 42.5518 22.862C42.6561 22.8712 42.7603 22.8712 42.8551 22.862C42.9404 22.8527 42.9594 22.8897 42.9594 22.9636C42.9594 24.4056 42.9594 25.8475 42.9594 27.2987C42.9594 27.3449 42.9688 27.3912 42.9499 27.4281C42.912 27.5113 42.9594 27.5113 43.0162 27.5113C43.1868 27.5113 43.3669 27.5113 43.5375 27.5113C44.0683 27.5113 44.599 27.5113 45.1203 27.5113C45.2151 27.5113 45.253 27.5391 45.253 27.6315C45.2435 27.7516 45.2435 27.8811 45.2435 28.0012C45.2435 31.0515 45.2435 34.0925 45.2435 37.1428C45.2435 37.1798 45.2435 37.2075 45.253 37.2445C45.2814 37.3184 45.3004 37.3277 45.3573 37.2722C45.471 37.1521 45.5847 37.0411 45.6985 36.9302C46.3051 36.3202 46.9211 35.7101 47.5277 35.1C48.2765 34.3513 49.0252 33.6026 49.7834 32.8539C49.8403 32.7985 49.8593 32.7338 49.8593 32.6598C49.8593 31.5506 49.8593 30.4322 49.8593 29.323C49.8593 29.2306 49.8308 29.2028 49.7361 29.2028C49.0726 29.2121 48.4091 29.2028 47.7457 29.2028C47.5656 29.2028 47.5561 29.2398 47.5561 29.0272C47.5561 25.7181 47.5561 22.3998 47.5561 19.0907C47.5561 19.0075 47.5182 18.9336 47.5277 18.8504C47.5751 18.5823 47.5467 18.305 47.5467 18.037C47.5467 17.8521 47.5372 17.8521 47.3571 17.8614C47.3287 17.8614 47.2908 17.8614 47.2623 17.8614C47.0633 17.8798 46.8642 17.8798 46.6652 17.9168C46.2292 18 45.7932 18.1109 45.3667 18.2681C44.8739 18.4437 44.4095 18.6748 43.983 18.9613C43.4522 19.3125 42.9878 19.7562 42.5328 20.1999C42.1443 20.5789 41.7746 20.9578 41.386 21.3368C41.2249 21.494 41.0638 21.6418 40.9121 21.799C40.4382 22.2796 39.9643 22.7695 39.4904 23.2594C39.3767 23.3796 39.263 23.5182 39.1398 23.6292C38.8839 23.8695 38.6469 24.119 38.391 24.3594C37.6991 25.0249 37.0072 25.6996 36.3533 26.4021C35.9647 26.8181 35.5571 27.2063 35.1496 27.6038C34.4672 28.2785 33.7658 28.944 33.0929 29.628C32.4105 30.3213 31.7375 31.0145 31.0456 31.6985C30.5528 32.1884 30.0505 32.6691 29.6713 33.2606C29.3965 33.6766 29.1501 34.111 28.9605 34.5732C28.7141 35.174 28.5624 35.7933 28.4961 36.4311C28.4203 37.1428 28.4297 37.8545 28.5814 38.557C28.6856 39.0377 28.8278 39.5091 29.0079 39.9712C29.1027 40.2208 29.2448 40.4519 29.3775 40.683C30.0505 41.8476 30.9603 42.7442 32.1451 43.3913ZM52.6932 19.8024C52.6837 19.8579 52.6837 19.8856 52.6837 19.9134C52.6837 21.3923 52.6837 22.862 52.6837 24.3409C52.6837 25.9215 52.6837 27.5021 52.6837 29.0919C52.6837 29.1936 52.6647 29.2398 52.5415 29.2398C51.8591 29.2306 51.1862 29.2398 50.5038 29.2398C50.3995 29.2398 50.3711 29.2768 50.3711 29.3692C50.3711 30.2751 50.3711 31.1901 50.3711 32.096C50.3711 32.1422 50.3711 32.1884 50.3711 32.2346C50.6175 32.0036 50.8544 31.7817 51.0914 31.5506C51.48 31.1624 51.8686 30.7742 52.2572 30.386C52.7311 29.9146 53.2144 29.4524 53.5936 28.8978C54.3423 27.8071 54.7404 26.5962 54.8257 25.2929C54.8731 24.5442 54.7878 23.8048 54.5982 23.0746C54.3992 22.3074 54.0769 21.5956 53.622 20.9394C53.3661 20.5234 53.0438 20.1814 52.6932 19.8024Z" fill="url(#paint2_linear_7_53)"/>
<path d="M25.4464 41.1125C25.3425 41.0758 25.2858 41.0023 25.2385 40.9381C25.0684 40.7178 24.8606 40.525 24.6716 40.323C24.4448 40.0752 24.2086 39.8273 23.9629 39.5886C23.4905 39.1204 23.018 38.6522 22.5456 38.1841C22.2716 37.9087 21.9975 37.6424 21.7235 37.3762C21.4967 37.1559 21.2889 36.9172 21.0621 36.7061C20.9581 36.6051 20.8637 36.4857 20.7314 36.4031C20.618 36.3389 20.5802 36.2012 20.4763 36.1094C20.1739 35.8431 19.9093 35.5494 19.6069 35.2832C19.3707 35.072 19.1817 34.8058 18.9455 34.5947C18.7943 34.4661 18.6621 34.3101 18.5014 34.1907C18.4258 34.1448 18.3975 34.0438 18.3313 33.9796C18.0195 33.6858 17.7077 33.4012 17.4148 33.0891C17.0179 32.6577 16.5833 32.2629 16.1864 31.8314C15.8935 31.5193 15.5722 31.2256 15.2699 30.9226C14.8258 30.4728 14.4195 29.9862 14.0699 29.463C13.8998 29.2059 13.7675 28.9305 13.6163 28.6643C13.4746 28.4165 13.3895 28.1502 13.2762 27.9024C13.125 27.5902 13.0777 27.2598 12.9738 26.9385C12.9076 26.7181 12.8793 26.4886 12.8321 26.2683C12.7187 25.6532 12.747 25.0382 12.7281 24.4139C12.7281 24.2487 12.747 24.0835 12.7376 23.9182C12.7376 23.7897 12.7943 23.652 12.8132 23.5143C12.8321 23.4317 12.8226 23.3399 12.8321 23.2572C12.851 23.1195 12.8982 22.991 12.936 22.8533C13.0494 22.3851 13.2006 21.9353 13.3801 21.4855C13.484 21.2193 13.588 20.9439 13.7486 20.7052C13.9565 20.3931 14.1455 20.0626 14.3722 19.7688C14.599 19.4659 14.8258 19.1629 15.0998 18.8967C15.336 18.658 15.5817 18.4285 15.8463 18.2082C16.2715 17.841 16.7345 17.5197 17.2353 17.2535C17.5376 17.0974 17.8494 16.9505 18.1613 16.8128C18.388 16.7118 18.6148 16.6292 18.8605 16.5741C19.0495 16.5282 19.2195 16.4456 19.418 16.4273C19.7203 16.3997 20.0038 16.3263 20.2967 16.2804C20.7219 16.2253 21.1471 16.2253 21.5723 16.2253C21.7424 16.2253 21.9125 16.2253 22.0731 16.2345C22.2432 16.2437 22.4133 16.2712 22.5834 16.2987C22.8196 16.3355 23.0558 16.4273 23.3015 16.4364C23.5188 16.4456 23.6983 16.5558 23.8968 16.6017C24.2747 16.6843 24.6149 16.8587 24.9645 17.0056C25.3897 17.1892 25.7771 17.4187 26.1551 17.6758C26.4291 17.8594 26.7126 18.043 26.9677 18.2633C27.1472 18.4193 27.3173 18.5846 27.4779 18.7498C28.0071 19.2731 28.5362 19.7964 29.0653 20.3196C29.6417 20.898 30.2181 21.4855 30.8039 22.0547C31.5221 22.7523 32.2118 23.4867 32.9394 24.1753C32.9678 24.2028 32.9961 24.2303 33.0244 24.2579C33.0622 24.2946 33.0528 24.3313 33.015 24.368C32.7504 24.6251 32.4953 24.8729 32.2307 25.13C32.1457 25.2218 32.0418 25.3044 31.9662 25.3962C31.9 25.4696 31.8528 25.4329 31.8055 25.3962C31.5977 25.1942 31.3709 25.0015 31.1914 24.772C31.0024 24.5425 30.7567 24.3772 30.5866 24.1385C30.511 24.0376 30.3976 23.9641 30.3126 23.8723C29.9535 23.5143 29.6039 23.1379 29.2354 22.7982C28.9047 22.4861 28.5929 22.1465 28.2622 21.8251C28.0354 21.6048 27.7897 21.4029 27.5819 21.1642C27.2984 20.8337 26.9771 20.5491 26.6748 20.237C26.344 19.8973 26.0133 19.5577 25.6259 19.2731C25.3992 19.1078 25.1629 18.9426 24.9078 18.8049C24.6999 18.6856 24.4826 18.5846 24.2747 18.4744C24.0763 18.3734 23.8684 18.2908 23.6511 18.2266C23.4716 18.1715 23.2826 18.1072 23.0936 18.0613C22.8007 17.9879 22.5078 17.942 22.2149 17.8961C22.0637 17.8685 21.9125 17.8777 21.7613 17.8685C21.6668 17.8594 21.6479 17.8961 21.6479 17.9787C21.6479 18.2633 21.6479 18.5479 21.6479 18.8233C21.6479 19.7137 21.6479 20.6042 21.6479 21.4947C21.6479 23.6336 21.6574 25.7818 21.6479 27.9207C21.6479 28.2879 21.6668 28.6551 21.6574 29.0315C21.6574 29.105 21.6479 29.1509 21.544 29.1509C20.8637 29.1509 20.1833 29.1509 19.503 29.1509C19.3896 29.1509 19.3613 29.1876 19.3613 29.3253C19.3613 30.3076 19.3613 31.2806 19.3613 32.2629C19.3613 32.3822 19.3707 32.5016 19.3518 32.6209C19.3424 32.6668 19.3613 32.6944 19.3896 32.7311C20.0322 33.3645 20.6747 33.9979 21.3172 34.6406C22.0164 35.3382 22.7156 36.0359 23.4149 36.7336C23.585 36.8989 23.7645 37.0549 23.944 37.2202C23.944 36.9448 23.944 36.6602 23.944 36.3756C23.944 33.4471 23.944 30.5279 23.944 27.5994C23.944 27.4984 23.9818 27.4709 24.0763 27.4709C24.7566 27.4709 25.4369 27.4709 26.1173 27.4709C26.2307 27.4709 26.2496 27.4342 26.2496 27.3332C26.2496 25.8919 26.2496 24.4598 26.2496 23.0186C26.2496 22.8533 26.2496 22.8533 26.4196 22.8533C26.4952 22.8533 26.5803 22.8625 26.6559 22.8533C26.7598 22.8441 26.7976 22.8809 26.7976 22.991C26.7976 23.5143 26.7976 24.0376 26.7976 24.5608C26.7976 25.4972 26.7976 26.4244 26.7976 27.3607C26.7976 27.4617 26.8354 27.4984 26.9299 27.4617C26.996 27.4342 27.0622 27.4709 27.1189 27.4709C27.733 27.4709 28.3378 27.4709 28.952 27.4709C29.0559 27.4709 29.1126 27.4984 29.0842 27.6086C29.0464 27.8197 29.0653 28.0309 29.0653 28.2329C29.0653 28.2879 29.0464 28.3247 29.0086 28.3614C28.7913 28.5633 28.6023 28.7745 28.385 28.9764C28.1488 29.2059 27.9126 29.4354 27.6763 29.6741C27.4118 29.9312 27.1756 30.2066 26.9488 30.4912C26.7881 30.6931 26.637 30.8951 26.4952 31.1062C26.2496 31.4642 26.0133 31.8314 25.8244 32.2262C25.6448 32.5934 25.4747 32.9698 25.333 33.3553C25.2102 33.695 25.0779 34.0255 25.0023 34.3743C24.9362 34.6865 24.8511 34.9894 24.8039 35.3015C24.7755 35.5127 24.7566 35.7238 24.7283 35.9349C24.6905 36.2195 24.681 36.4949 24.6621 36.7795C24.6432 37.0457 24.6338 37.312 24.6716 37.5782C24.6905 37.7067 24.681 37.8444 24.6905 37.9729C24.7188 38.23 24.7472 38.487 24.785 38.7349C24.8511 39.1939 24.9739 39.6437 25.0968 40.0843C25.1629 40.323 25.2385 40.5525 25.3425 40.7728C25.3708 40.883 25.4275 40.984 25.4464 41.1125ZM18.766 32.0701C18.766 32.0518 18.7754 32.0426 18.7754 32.0334C18.7754 31.1338 18.7754 30.2341 18.7754 29.3345C18.7754 29.105 18.7754 29.1141 18.5487 29.1233C17.8967 29.1509 17.2542 29.1325 16.6022 29.1325C16.5171 29.1325 16.4793 29.105 16.4793 29.0132C16.4793 26.0113 16.4793 23.0002 16.4793 19.9983C16.4793 19.9432 16.5077 19.8606 16.4605 19.8422C16.4132 19.8239 16.3849 19.9065 16.3471 19.9432C15.9219 20.338 15.5911 20.8062 15.2982 21.2927C14.9014 21.9629 14.6463 22.6789 14.4856 23.4317C14.3344 24.1385 14.325 24.8546 14.3817 25.5706C14.41 25.9195 14.4951 26.2591 14.5707 26.5988C14.7596 27.3607 15.0998 28.0676 15.5439 28.7194C15.9124 29.2702 16.3754 29.7384 16.8573 30.2066C17.1219 30.4728 17.3864 30.739 17.651 31.0052C17.9723 31.3174 18.2935 31.6295 18.6054 31.9508C18.6526 31.9967 18.6999 32.0426 18.766 32.0701Z" fill="url(#paint3_linear_7_53)"/>
<path d="M0 58.2677C0 58.2677 15.5309 63.1667 34.3814 63.1667C53.232 63.1667 69 58.2677 69 58.2677V41.3092C69 41.3092 48.2839 47.9214 34.3814 47.9042C20.5691 47.887 0 41.3092 0 41.3092V58.2677Z" fill="url(#paint4_linear_7_53)"/>
<path d="M33.4951 53.2312H35.4378V59.5071H33.4951V53.2312Z" fill="#F2BEA2"/>
</g>
<defs>
<linearGradient id="paint0_linear_7_53" x1="17.3983" y1="11.6805" x2="61.3158" y2="67.2029" gradientUnits="userSpaceOnUse">
<stop offset="0.207595" stop-color="#F3A66F"/>
<stop offset="0.961067" stop-color="#815246"/>
</linearGradient>
<linearGradient id="paint1_linear_7_53" x1="18.5051" y1="13.6309" x2="59.6575" y2="65.5779" gradientUnits="userSpaceOnUse">
<stop offset="0.126308" stop-color="#B47556"/>
<stop offset="0.890017" stop-color="#9A5D4B"/>
</linearGradient>
<linearGradient id="paint2_linear_7_53" x1="41.6455" y1="16.2253" x2="41.6455" y2="45.8735" gradientUnits="userSpaceOnUse">
<stop stop-color="#FFD6C2"/>
<stop offset="1" stop-color="#E5A480"/>
</linearGradient>
<linearGradient id="paint3_linear_7_53" x1="22.8883" y1="16.2253" x2="22.8883" y2="41.1125" gradientUnits="userSpaceOnUse">
<stop stop-color="#FFD6C2"/>
<stop offset="1" stop-color="#E5A480"/>
</linearGradient>
<linearGradient id="paint4_linear_7_53" x1="43.298" y1="46.0702" x2="43.298" y2="63.1667" gradientUnits="userSpaceOnUse">
<stop stop-color="#BA7154"/>
<stop offset="1" stop-color="#6B4539"/>
</linearGradient>
<clipPath id="clip0_7_53">
<rect width="69" height="73" fill="white"/>
</clipPath>
</defs>
</svg>
