<svg width="63" height="63" viewBox="0 0 63 63" fill="none" xmlns="http://www.w3.org/2000/svg">
<path d="M36.922 7.47797C36.9635 7.77528 32.1494 14.7343 28.0999 21.0719C25.3774 20.812 21.5613 20.7327 22.8836 18.8984C25.2213 15.6556 28.3112 12.4387 30.469 8.85746L36.6074 0.262207C36.6384 1.33628 36.8426 6.90967 36.922 7.47797Z" fill="url(#paint0_linear_637_2847)"/>
<path d="M41.3682 56.5523C41.0726 56.5709 34.6087 51.1579 28.6957 46.5664C29.1653 43.8351 29.5433 39.9842 31.243 41.465C34.2476 44.0828 37.1676 47.4588 40.5192 49.9214L48.4878 56.8018C47.4293 56.7486 41.9332 56.5168 41.3682 56.5523Z" fill="url(#paint1_linear_637_2847)"/>
<path d="M23.5983 7.59859C23.5622 7.89662 28.502 14.7645 32.666 21.0254C35.3833 20.7147 39.1974 20.5641 37.8419 18.7548C35.4456 15.5562 32.2979 12.3976 30.0754 8.85729L23.7817 0.378174C23.7702 1.45264 23.6674 7.02891 23.5983 7.59859Z" fill="url(#paint2_linear_637_2847)"/>
<path d="M20.9272 56.9562C21.2226 56.9774 27.7336 51.6227 33.6865 47.0846C33.2408 44.3492 32.8965 40.495 31.1839 41.9605C28.1565 44.5512 25.2071 47.9008 21.8341 50.3332L13.8057 57.1416C14.8646 57.098 20.3625 56.9155 20.9272 56.9562Z" fill="url(#paint3_linear_637_2847)"/>
<path d="M20.1938 8.99017C20.2204 9.19841 26.2311 14.3638 31.3935 19.0511C33.8712 19.0041 37.407 19.14 35.7728 17.7758C32.8841 15.364 29.3007 12.9328 26.505 10.2907L18.9019 3.90112C19.1089 4.65942 20.1429 8.59211 20.1938 8.99017Z" fill="url(#paint4_linear_637_2847)"/>
<path d="M40.4599 8.73046C40.441 8.93957 34.6252 14.3295 29.6395 19.2094C27.1617 19.2565 23.6335 19.5265 25.2161 18.1012C28.0138 15.5815 31.5049 13.016 34.2011 10.2696L41.563 3.59595C41.3841 4.36157 40.4961 8.33075 40.4599 8.73046Z" fill="url(#paint5_linear_637_2847)"/>
<path d="M60.6027 15.6056C60.1904 16.0357 52.9186 25.6388 47.607 31.0121C45.6384 28.8635 42.778 26.215 44.4292 24.76C47.3481 22.188 50.8271 20.1511 53.7298 17.0276L61.4229 10.1716C60.9586 11.6347 60.8031 15.3966 60.6027 15.6056Z" fill="url(#paint6_linear_637_2847)"/>
<path d="M60.6027 10.1713C60.1904 10.6013 52.9186 20.2045 47.607 25.5778C45.6384 23.4292 42.778 20.7807 44.4292 19.3257C47.3481 16.7537 50.8271 14.7168 53.7298 11.5933L61.4229 4.7373C60.9586 6.20042 60.8031 9.96229 60.6027 10.1713Z" fill="url(#paint7_linear_637_2847)"/>
<path d="M58.1285 30.2367C57.7162 30.6668 50.4445 40.2699 45.1329 45.6432C43.1643 43.4946 40.3039 40.8461 41.955 39.3911C44.8739 36.8191 48.353 34.7822 51.2557 31.6587L58.9487 24.8027C58.4845 26.2658 58.329 30.0277 58.1285 30.2367Z" fill="url(#paint8_linear_637_2847)"/>
<path d="M59.778 22.2941C59.3657 22.7241 52.0939 32.3273 46.7823 37.7006C44.8137 35.552 41.9533 32.9035 43.6044 31.4485C46.5233 28.8765 50.0024 26.8396 52.9051 23.7161L60.5981 16.8601C60.1339 18.3232 59.9784 22.0851 59.778 22.2941Z" fill="url(#paint9_linear_637_2847)"/>
<path d="M2.26114 15.1877C2.67344 15.6177 9.30254 25.2208 14.6142 30.5941C16.5828 28.4455 19.4432 25.797 17.792 24.3421C14.8731 21.7701 11.3941 19.7331 8.4914 16.6096L0.79834 9.75366C1.26259 11.2168 2.06073 14.9787 2.26114 15.1877Z" fill="url(#paint10_linear_637_2847)"/>
<path d="M2.26163 10.1713C2.67393 10.6013 9.30303 20.2045 14.6147 25.5778C16.5832 23.4292 19.4437 20.7807 17.7925 19.3257C14.8736 16.7537 11.3946 14.7168 8.49189 11.5933L0.798828 4.7373C1.26307 6.20042 2.06122 9.96229 2.26163 10.1713Z" fill="url(#paint11_linear_637_2847)"/>
<path d="M4.73526 28.5646C5.14756 28.9946 11.7767 38.5978 17.0883 43.9711C19.0569 41.8225 21.9173 39.174 20.2662 37.719C17.3473 35.147 13.8682 33.1101 10.9655 29.9866L3.27246 23.1306C3.73671 24.5937 4.53485 28.3556 4.73526 28.5646Z" fill="url(#paint12_linear_637_2847)"/>
<path d="M3.08585 21.4582C3.49815 21.8882 10.1272 31.4913 15.4389 36.8646C17.4075 34.716 20.2679 32.0675 18.6167 30.6126C15.6978 28.0406 12.2188 26.0037 9.31611 22.8801L1.62305 16.0242C2.08729 17.4873 2.88544 21.2492 3.08585 21.4582Z" fill="url(#paint13_linear_637_2847)"/>
<path d="M51.1944 41.9563V22.0856L57.9234 13.0979L53.3872 14.561L48.9263 16.2331L34.1897 8.21353L33.6707 5.54909C33.4865 4.60339 33.0832 3.71562 32.4942 2.95894L30.2989 0.138916L28.5986 3.11553C28.2232 3.77284 27.9724 4.49563 27.8594 5.24653L27.4128 8.21353L12.025 16.2331L8.85823 14.979L4.60352 13.0979L9.96389 22.0856V41.9179C9.96389 44.609 11.7078 46.9803 14.2517 47.7483L23.9846 50.6863C25.3613 51.1019 26.4587 52.1604 26.9368 53.5337C27.2465 54.4233 27.8211 55.1933 28.5812 55.7373L30.9174 57.4093L33.0822 55.75C33.805 55.196 34.3533 54.441 34.6605 53.5768C35.1592 52.1736 36.2805 51.0905 37.6869 50.6532L46.9534 47.7724C49.4737 46.9888 51.1944 44.6291 51.1944 41.9563Z" fill="url(#paint14_linear_637_2847)"/>
<g filter="url(#filter0_i_637_2847)">
<path d="M27.5545 10.3285L14.0445 19.17C12.3325 20.2904 11.2983 22.2152 11.2983 24.2811V41.0549C11.2983 43.7873 13.0952 46.1845 15.6917 46.9161L29.2256 50.7296C30.2914 51.03 31.4184 51.0257 32.482 50.7173L45.5101 46.9396C48.0851 46.1929 49.8602 43.8063 49.8602 41.0908V24.2295C49.8602 22.1919 48.8541 20.2896 47.18 19.1622L34.1282 10.3722C32.1405 9.03359 29.5594 9.0164 27.5545 10.3285Z" fill="url(#paint15_linear_637_2847)"/>
</g>
<g filter="url(#filter1_d_637_2847)">
<path d="M25.9834 30.8964C25.9664 30.7404 25.9834 30.5728 25.9777 30.3994C25.9777 30.3128 25.9947 30.2145 26.023 30.1221C26.0457 30.0354 26.0457 29.943 26.0627 29.8621C26.0966 29.7061 26.1419 29.5558 26.1759 29.3998C26.2326 29.1456 26.3402 28.9087 26.4364 28.666C26.5327 28.4175 26.6686 28.1864 26.8046 27.9552C26.9348 27.7299 27.0934 27.5276 27.2633 27.3254C27.5012 27.0538 27.756 26.7938 27.9996 26.528C28.1695 26.3431 28.345 26.1698 28.5149 25.9906C28.8434 25.6555 29.1776 25.3203 29.4947 24.9737C29.8345 24.6096 30.18 24.2571 30.5255 23.8931C30.6784 23.7313 30.8483 23.5811 30.9955 23.4077C31.2391 23.1188 31.5166 22.8646 31.7771 22.593C31.9243 22.4428 32.0716 22.2925 32.2132 22.1365C32.553 21.7609 32.9268 21.42 33.2666 21.0386C33.5498 20.7208 33.8612 20.4262 34.1501 20.1141C34.371 19.8772 34.5918 19.6461 34.807 19.415C34.9939 19.2185 35.1978 19.0509 35.4017 18.8776C35.6056 18.7042 35.8265 18.5655 36.053 18.4269C36.2965 18.2824 36.5627 18.1668 36.8289 18.0686C36.9478 18.0282 37.0611 17.9704 37.18 17.9473C37.282 17.9299 37.3783 17.8953 37.4802 17.8837C37.6388 17.8664 37.7917 17.8317 37.9503 17.8086C38.1881 17.7739 38.4317 17.7739 38.6695 17.7739C38.9754 17.7739 39.2755 17.8202 39.57 17.8779C39.8985 17.9415 40.2156 18.0339 40.5158 18.1726C40.8103 18.3055 41.0991 18.4673 41.371 18.6522C41.6825 18.8718 41.9713 19.1203 42.2375 19.3976C42.4754 19.6403 42.6679 19.9177 42.8605 20.195C43.104 20.5591 43.2796 20.9635 43.4268 21.3796C43.5514 21.7378 43.6307 22.1019 43.676 22.4774C43.6987 22.6912 43.727 22.905 43.7213 23.1246C43.7157 23.35 43.7213 23.5753 43.6873 23.8007C43.6477 24.0607 43.6137 24.3265 43.5458 24.5807C43.4608 24.8928 43.3589 25.199 43.2229 25.4879C42.9907 26.008 42.6849 26.4702 42.3055 26.892C42.0449 27.1867 41.7674 27.4699 41.4956 27.7472C41.2181 28.0246 40.9519 28.3135 40.6914 28.6024C40.5781 28.7295 40.4648 28.8567 40.3346 28.9664C40.261 29.0358 40.193 29.1167 40.125 29.186C40.0741 29.238 40.0231 29.2842 39.9721 29.3362C39.6889 29.6367 39.4001 29.9256 39.1226 30.2319C38.9697 30.3994 38.8168 30.567 38.6639 30.7288C38.4033 31.0004 38.1428 31.272 37.8766 31.5435C37.6105 31.8151 37.3386 32.0809 37.0838 32.3641C36.7326 32.7512 36.3645 33.1268 36.0077 33.5139C35.7812 33.7566 35.5376 33.9878 35.3054 34.2247C35.0732 34.4616 34.841 34.6985 34.6088 34.9354C34.4786 35.0683 34.3256 35.1781 34.1841 35.2936C33.9858 35.4497 33.7763 35.5883 33.5554 35.7039C33.2099 35.883 32.8475 36.0275 32.4737 36.1373C32.2472 36.2008 32.0093 36.2355 31.7771 36.2817C31.7148 36.2933 31.6468 36.2933 31.5845 36.2991C31.2787 36.3222 30.9729 36.2933 30.6671 36.2933C30.5764 36.2933 30.4858 36.2644 30.3952 36.2528C30.2876 36.2355 30.18 36.2066 30.0724 36.1835C29.8855 36.143 29.7043 36.0853 29.523 36.0333C29.3078 35.9697 29.1039 35.8657 28.9001 35.7732C28.7641 35.7097 28.6452 35.6172 28.5149 35.5479C28.4073 35.4901 28.311 35.4208 28.2148 35.3514C28.0845 35.2474 27.9543 35.1434 27.8297 35.0394C27.6541 34.8892 27.4898 34.7216 27.3369 34.5482C27.2407 34.4327 27.1387 34.3229 27.0481 34.2016C26.8895 33.9878 26.7593 33.7566 26.6347 33.5255C26.5157 33.3001 26.3968 33.0748 26.3175 32.8321C26.2326 32.5894 26.1759 32.3409 26.1023 32.0983C26.074 32 26.074 31.8902 26.0513 31.7862C25.989 31.4915 25.972 31.2026 25.9834 30.8964ZM29.1719 34.7563C29.1889 34.7274 29.1832 34.7043 29.1832 34.6811C29.1832 34.4153 29.1832 34.1495 29.1832 33.8895C29.1832 32.5201 29.1832 31.1564 29.1832 29.787C29.1832 29.7407 29.1889 29.7118 29.2455 29.7118C29.659 29.7118 30.0724 29.7118 30.4858 29.7176C30.5425 29.7176 30.5651 29.7061 30.5594 29.6425C30.5594 29.1051 30.5594 28.562 30.5594 28.0246C30.5594 27.649 30.5594 27.2792 30.5594 26.9036C30.5594 26.8111 30.5594 26.8111 30.6557 26.8054C30.7067 26.8054 30.7633 26.8111 30.8143 26.7938C30.8426 26.788 30.8823 26.8054 30.8879 26.8516C30.8879 26.9094 30.8993 26.9614 30.8993 27.0134C30.8993 27.8859 30.8993 28.7584 30.8993 29.6367C30.8993 29.6945 30.9162 29.7118 30.9729 29.7061C31.3863 29.7061 31.7997 29.7061 32.2132 29.7003C32.2698 29.7003 32.2868 29.7118 32.2868 29.7696C32.2868 31.3355 32.2868 32.9014 32.2868 34.4616C32.2868 34.6523 32.2868 34.8487 32.2868 35.0394C32.2868 35.0856 32.2981 35.103 32.3491 35.0856C32.4171 35.0625 32.485 35.051 32.5473 35.0221C32.6663 34.9701 32.7908 34.9238 32.9098 34.8603C33.0457 34.7852 33.1873 34.7216 33.3232 34.6407C33.4875 34.5425 33.6347 34.4327 33.7876 34.3113C33.8782 34.242 33.9632 34.1727 33.9235 34.034C33.9235 34.0282 33.9235 34.0224 33.9235 34.0109C33.9235 31.7053 33.9292 29.394 33.9292 27.0885C33.9292 26.3662 33.9292 25.6439 33.9292 24.9216C33.9292 24.8292 33.9292 24.8292 34.0198 24.8292C34.4163 24.8292 34.8184 24.8292 35.2148 24.8292C35.2828 24.8292 35.3054 24.8061 35.3054 24.7367C35.2998 24.2629 35.3054 23.7833 35.3054 23.3095C35.3054 22.8761 35.3054 22.4428 35.3054 22.0094C35.3054 21.9401 35.3281 21.9227 35.3904 21.9227C35.4527 21.9285 35.515 21.9285 35.5716 21.9227C35.6226 21.9169 35.6339 21.9401 35.6339 21.9863C35.6339 22.8877 35.6339 23.7891 35.6339 24.6963C35.6339 24.7252 35.6396 24.7541 35.6282 24.7772C35.6056 24.8292 35.6339 24.8292 35.6679 24.8292C35.7698 24.8292 35.8774 24.8292 35.9794 24.8292C36.2965 24.8292 36.6137 24.8292 36.9252 24.8292C36.9818 24.8292 37.0045 24.8465 37.0045 24.9043C36.9988 24.9794 36.9988 25.0603 36.9988 25.1354C36.9988 27.0423 36.9988 28.9433 36.9988 30.8502C36.9988 30.8733 36.9988 30.8906 37.0045 30.9137C37.0215 30.9599 37.0328 30.9657 37.0668 30.931C37.1347 30.8559 37.2027 30.7866 37.2706 30.7173C37.6331 30.3359 38.0012 29.9545 38.3637 29.5732C38.8111 29.1051 39.2585 28.6371 39.7116 28.169C39.7456 28.1344 39.7569 28.0939 39.7569 28.0477C39.7569 27.3543 39.7569 26.6551 39.7569 25.9617C39.7569 25.904 39.7399 25.8866 39.6833 25.8866C39.2868 25.8924 38.8904 25.8866 38.494 25.8866C38.3863 25.8866 38.3807 25.9097 38.3807 25.7768C38.3807 23.7082 38.3807 21.6338 38.3807 19.5652C38.3807 19.5132 38.358 19.467 38.3637 19.415C38.392 19.2474 38.375 19.074 38.375 18.9065C38.375 18.7909 38.3694 18.7909 38.2618 18.7967C38.2448 18.7967 38.2221 18.7967 38.2051 18.7967C38.0862 18.8082 37.9673 18.8082 37.8483 18.8313C37.5878 18.8834 37.3273 18.9527 37.0724 19.0509C36.7779 19.1607 36.5004 19.3052 36.2456 19.4843C35.9284 19.7039 35.6509 19.9812 35.3791 20.2586C35.1468 20.4955 34.926 20.7324 34.6938 20.9693C34.5975 21.0675 34.5012 21.16 34.4106 21.2582C34.1274 21.5587 33.8443 21.8649 33.5611 22.1712C33.4931 22.2463 33.4252 22.333 33.3515 22.4023C33.1986 22.5526 33.057 22.7086 32.9041 22.8588C32.4907 23.2748 32.0773 23.6967 31.6865 24.1358C31.4543 24.3958 31.2107 24.6385 30.9672 24.887C30.5594 25.3088 30.1403 25.7248 29.7382 26.1524C29.3305 26.5858 28.9284 27.0192 28.5149 27.4468C28.2204 27.753 27.9203 28.0535 27.6937 28.4233C27.5295 28.6833 27.3822 28.9549 27.269 29.2438C27.1217 29.6194 27.0311 30.0065 26.9915 30.4052C26.9462 30.8502 26.9518 31.2951 27.0424 31.7342C27.1047 32.0347 27.1897 32.3294 27.2973 32.6183C27.3539 32.7743 27.4389 32.9188 27.5182 33.0632C27.9203 33.7913 28.464 34.3518 29.1719 34.7563ZM41.4503 20.0101C41.4446 20.0448 41.4446 20.0621 41.4446 20.0795C41.4446 21.004 41.4446 21.9227 41.4446 22.8472C41.4446 23.8353 41.4446 24.8234 41.4446 25.8173C41.4446 25.8808 41.4333 25.9097 41.3597 25.9097C40.9519 25.904 40.5498 25.9097 40.142 25.9097C40.0797 25.9097 40.0627 25.9328 40.0627 25.9906C40.0627 26.5569 40.0627 27.1289 40.0627 27.6952C40.0627 27.7241 40.0627 27.753 40.0627 27.7819C40.21 27.6374 40.3516 27.4988 40.4932 27.3543C40.7254 27.1116 40.9576 26.8689 41.1898 26.6262C41.4729 26.3315 41.7618 26.0426 41.9883 25.6959C42.4357 25.0141 42.6736 24.2571 42.7246 23.4424C42.7529 22.9744 42.7019 22.5121 42.5886 22.0556C42.4697 21.576 42.2771 21.1311 42.0053 20.7208C41.8524 20.4608 41.6598 20.247 41.4503 20.0101Z" fill="url(#paint16_linear_637_2847)"/>
</g>
<g filter="url(#filter2_d_637_2847)">
<path d="M25.1691 33.3308C25.107 33.3078 25.0731 33.2619 25.0449 33.2217C24.9432 33.084 24.819 32.9635 24.7061 32.8372C24.5706 32.6823 24.4294 32.5273 24.2826 32.3781C24.0003 32.0855 23.718 31.7928 23.4357 31.5001C23.272 31.3279 23.1082 31.1615 22.9445 30.9951C22.809 30.8574 22.6848 30.7081 22.5492 30.5762C22.4871 30.513 22.4307 30.4384 22.3516 30.3868C22.2839 30.3466 22.2613 30.2605 22.1992 30.2031C22.0185 30.0367 21.8604 29.8531 21.6797 29.6866C21.5386 29.5547 21.4257 29.3882 21.2845 29.2562C21.1942 29.1759 21.1151 29.0783 21.0191 29.0037C20.974 28.975 20.957 28.9119 20.9175 28.8717C20.7312 28.6881 20.5449 28.5102 20.3698 28.3151C20.1327 28.0454 19.873 27.7986 19.6358 27.5289C19.4608 27.3337 19.2688 27.1501 19.0882 26.9607C18.8228 26.6795 18.58 26.3754 18.3711 26.0483C18.2695 25.8876 18.1904 25.7154 18.1001 25.549C18.0154 25.394 17.9646 25.2276 17.8968 25.0727C17.8065 24.8776 17.7782 24.671 17.7161 24.4701C17.6766 24.3324 17.6597 24.1889 17.6314 24.0512C17.5637 23.6667 17.5806 23.2822 17.5693 22.8919C17.5693 22.7886 17.5806 22.6853 17.575 22.582C17.575 22.5017 17.6089 22.4156 17.6202 22.3295C17.6314 22.2779 17.6258 22.2205 17.6314 22.1689C17.6427 22.0828 17.671 22.0024 17.6936 21.9163C17.7613 21.6237 17.8516 21.3425 17.9589 21.0613C18.021 20.8948 18.0831 20.7227 18.1791 20.5735C18.3033 20.3784 18.4163 20.1718 18.5518 19.9881C18.6873 19.7987 18.8228 19.6094 18.9865 19.4429C19.1277 19.2937 19.2745 19.1503 19.4326 19.0125C19.6866 18.783 19.9633 18.5821 20.2626 18.4157C20.4432 18.3181 20.6296 18.2263 20.8159 18.1402C20.9514 18.0771 21.0869 18.0255 21.2337 17.991C21.3466 17.9623 21.4482 17.9107 21.5668 17.8992C21.7475 17.882 21.9169 17.8361 22.0919 17.8074C22.346 17.7729 22.6001 17.7729 22.8541 17.7729C22.9558 17.7729 23.0574 17.7729 23.1534 17.7787C23.255 17.7844 23.3566 17.8016 23.4583 17.8189C23.5994 17.8418 23.7406 17.8992 23.8874 17.9049C24.0172 17.9107 24.1245 17.9795 24.2431 18.0082C24.4689 18.0599 24.6722 18.1689 24.8811 18.2607C25.1352 18.3755 25.3667 18.519 25.5925 18.6797C25.7563 18.7945 25.9257 18.9092 26.0781 19.047C26.1854 19.1445 26.287 19.2478 26.383 19.3511C26.6992 19.6782 27.0154 20.0053 27.3315 20.3324C27.676 20.694 28.0204 21.0613 28.3704 21.4171C28.7995 21.8532 29.2117 22.3123 29.6465 22.7427C29.6634 22.7599 29.6803 22.7772 29.6973 22.7944C29.7199 22.8173 29.7142 22.8403 29.6916 22.8632C29.5335 23.0239 29.3811 23.1789 29.223 23.3396C29.1722 23.3969 29.1101 23.4486 29.0649 23.506C29.0254 23.5519 28.9972 23.5289 28.9689 23.506C28.8447 23.3797 28.7092 23.2592 28.6019 23.1157C28.489 22.9723 28.3422 22.869 28.2406 22.7198C28.1954 22.6566 28.1277 22.6107 28.0768 22.5534C27.8623 22.3295 27.6534 22.0942 27.4332 21.8819C27.2356 21.6868 27.0492 21.4745 26.8516 21.2736C26.7161 21.1359 26.5693 21.0096 26.4451 20.8604C26.2757 20.6538 26.0837 20.4759 25.9031 20.2808C25.7055 20.0685 25.5078 19.8561 25.2763 19.6782C25.1408 19.5749 24.9997 19.4716 24.8472 19.3855C24.723 19.3109 24.5932 19.2478 24.4689 19.1789C24.3504 19.1158 24.2262 19.0642 24.0963 19.024C23.989 18.9896 23.8761 18.9494 23.7632 18.9207C23.5881 18.8748 23.4131 18.8461 23.2381 18.8174C23.1477 18.8002 23.0574 18.8059 22.9671 18.8002C22.9106 18.7945 22.8993 18.8174 22.8993 18.8691C22.8993 19.047 22.8993 19.2249 22.8993 19.397C22.8993 19.9537 22.8993 20.5103 22.8993 21.067C22.8993 22.4041 22.905 23.747 22.8993 25.0841C22.8993 25.3137 22.9106 25.5433 22.905 25.7785C22.905 25.8245 22.8993 25.8531 22.8372 25.8531C22.4307 25.8531 22.0242 25.8531 21.6176 25.8531C21.5499 25.8531 21.5329 25.8761 21.5329 25.9622C21.5329 26.5762 21.5329 27.1845 21.5329 27.7986C21.5329 27.8732 21.5386 27.9478 21.5273 28.0224C21.5216 28.0511 21.5329 28.0683 21.5499 28.0913C21.9338 28.4872 22.3178 28.8832 22.7017 29.2849C23.1195 29.7211 23.5373 30.1572 23.9551 30.5934C24.0568 30.6967 24.164 30.7942 24.2713 30.8975C24.2713 30.7254 24.2713 30.5475 24.2713 30.3696C24.2713 28.5389 24.2713 26.714 24.2713 24.8833C24.2713 24.8202 24.2939 24.8029 24.3504 24.8029C24.7569 24.8029 25.1634 24.8029 25.5699 24.8029C25.6377 24.8029 25.649 24.78 25.649 24.7169C25.649 23.8159 25.649 22.9206 25.649 22.0196C25.649 21.9163 25.649 21.9163 25.7506 21.9163C25.7958 21.9163 25.8466 21.9221 25.8918 21.9163C25.9539 21.9106 25.9765 21.9336 25.9765 22.0024C25.9765 22.3295 25.9765 22.6566 25.9765 22.9838C25.9765 23.5691 25.9765 24.1487 25.9765 24.7341C25.9765 24.7972 25.9991 24.8202 26.0555 24.7972C26.095 24.78 26.1346 24.8029 26.1684 24.8029C26.5354 24.8029 26.8968 24.8029 27.2638 24.8029C27.3259 24.8029 27.3598 24.8202 27.3428 24.889C27.3203 25.021 27.3315 25.153 27.3315 25.2793C27.3315 25.3137 27.3203 25.3367 27.2977 25.3596C27.1678 25.4859 27.0549 25.6179 26.925 25.7441C26.7839 25.8876 26.6427 26.031 26.5016 26.1803C26.3435 26.3409 26.2023 26.5131 26.0668 26.691C25.9708 26.8173 25.8805 26.9435 25.7958 27.0755C25.649 27.2993 25.5078 27.5289 25.3949 27.7756C25.2876 28.0052 25.186 28.2405 25.1013 28.4815C25.0279 28.6938 24.9489 28.9004 24.9037 29.1185C24.8642 29.3136 24.8134 29.503 24.7851 29.6981C24.7682 29.8301 24.7569 29.9621 24.74 30.0941C24.7174 30.272 24.7117 30.4442 24.7004 30.6221C24.6891 30.7885 24.6835 30.9549 24.7061 31.1213C24.7174 31.2017 24.7117 31.2878 24.7174 31.3681C24.7343 31.5288 24.7512 31.6895 24.7738 31.8444C24.8134 32.1314 24.8868 32.4126 24.9602 32.688C24.9997 32.8372 25.0449 32.9807 25.107 33.1184C25.1239 33.1873 25.1578 33.2504 25.1691 33.3308ZM21.1772 27.6781C21.1772 27.6666 21.1829 27.6609 21.1829 27.6551C21.1829 27.0927 21.1829 26.5303 21.1829 25.9679C21.1829 25.8245 21.1829 25.8302 21.0474 25.8359C20.6578 25.8531 20.2738 25.8417 19.8843 25.8417C19.8334 25.8417 19.8109 25.8245 19.8109 25.7671C19.8109 23.8905 19.8109 22.0082 19.8109 20.1316C19.8109 20.0972 19.8278 20.0455 19.7996 20.034C19.7713 20.0225 19.7544 20.0742 19.7318 20.0972C19.4777 20.3439 19.2801 20.6366 19.1051 20.9408C18.868 21.3597 18.7155 21.8073 18.6195 22.2779C18.5292 22.7198 18.5235 23.1674 18.5574 23.615C18.5744 23.8331 18.6252 24.0454 18.6703 24.2578C18.7833 24.7341 18.9865 25.176 19.2519 25.5834C19.4721 25.9277 19.7488 26.2204 20.0367 26.5131C20.1948 26.6795 20.3529 26.846 20.511 27.0124C20.703 27.2075 20.8949 27.4026 21.0812 27.6035C21.1095 27.6322 21.1377 27.6609 21.1772 27.6781Z" fill="url(#paint17_linear_637_2847)"/>
</g>
<path d="M9.96387 44.0559C9.96387 44.0559 19.2443 47.1184 30.5083 47.1184C41.7723 47.1184 51.1944 44.0559 51.1944 44.0559V33.4546C51.1944 33.4546 38.8156 37.5881 30.5083 37.5773C22.2548 37.5666 9.96387 33.4546 9.96387 33.4546V44.0559Z" fill="url(#paint18_linear_637_2847)"/>
<g filter="url(#filter3_d_637_2847)">
<path d="M31.4785 10.6272C31.1706 11.1679 30.4008 11.1679 30.0929 10.6272L28.4435 7.73058C28.1355 7.18984 28.5204 6.51392 29.1363 6.51392L32.4351 6.51392C33.051 6.51392 33.4359 7.18985 33.128 7.73059L31.4785 10.6272Z" fill="url(#paint19_linear_637_2847)"/>
</g>
<g filter="url(#filter4_d_637_2847)">
<path d="M51.9713 19.6212C52.3265 20.1313 52.0038 20.8399 51.3906 20.8967L48.1054 21.201C47.4921 21.2578 47.0481 20.6202 47.3063 20.0533L48.689 17.0166C48.9471 16.4497 49.7137 16.3787 50.0689 16.8888L51.9713 19.6212Z" fill="url(#paint20_linear_637_2847)"/>
</g>
<g filter="url(#filter5_d_637_2847)">
<path d="M51.9713 19.6212C52.3265 20.1313 52.0038 20.8399 51.3906 20.8967L48.1054 21.201C47.4921 21.2578 47.0481 20.6202 47.3063 20.0533L48.689 17.0166C48.9471 16.4497 49.7137 16.3787 50.0689 16.8888L51.9713 19.6212Z" fill="url(#paint21_linear_637_2847)"/>
</g>
<g filter="url(#filter6_d_637_2847)">
<path d="M14.6549 19.6212C15.0101 20.1313 14.6874 20.8399 14.0742 20.8967L10.789 21.201C10.1757 21.2578 9.73174 20.6202 9.98987 20.0533L11.3726 17.0166C11.6307 16.4497 12.3973 16.3787 12.7525 16.8888L14.6549 19.6212Z" fill="url(#paint22_linear_637_2847)"/>
</g>
<path d="M31.6663 43.841L31.0455 42.9195L30.3799 43.841H29.0615L30.3799 42.0825L29.0999 40.324H30.4695L31.0839 41.213L31.7239 40.324H33.0103L31.7303 42.037L33.0551 43.841H31.6663Z" fill="#FFB6B6"/>
<g filter="url(#filter7_d_637_2847)">
<path d="M31.6094 55.3567C31.3015 55.8974 30.5317 55.8974 30.2237 55.3567L28.5743 52.4601C28.2664 51.9193 28.6513 51.2434 29.2671 51.2434L32.566 51.2434C33.1818 51.2434 33.5667 51.9193 33.2588 52.4601L31.6094 55.3567Z" fill="url(#paint23_linear_637_2847)"/>
</g>
<defs>
<filter id="filter0_i_637_2847" x="11.2983" y="9.3562" width="40.562" height="42.5957" filterUnits="userSpaceOnUse" color-interpolation-filters="sRGB">
<feFlood flood-opacity="0" result="BackgroundImageFix"/>
<feBlend mode="normal" in="SourceGraphic" in2="BackgroundImageFix" result="shape"/>
<feColorMatrix in="SourceAlpha" type="matrix" values="0 0 0 0 0 0 0 0 0 0 0 0 0 0 0 0 0 0 127 0" result="hardAlpha"/>
<feOffset dx="2" dy="1"/>
<feGaussianBlur stdDeviation="1"/>
<feComposite in2="hardAlpha" operator="arithmetic" k2="-1" k3="1"/>
<feColorMatrix type="matrix" values="0 0 0 0 0 0 0 0 0 0 0 0 0 0 0 0 0 0 0.25 0"/>
<feBlend mode="normal" in2="shape" result="effect1_innerShadow_637_2847"/>
</filter>
<filter id="filter1_d_637_2847" x="25.3756" y="17.7739" width="20.9466" height="22.1342" filterUnits="userSpaceOnUse" color-interpolation-filters="sRGB">
<feFlood flood-opacity="0" result="BackgroundImageFix"/>
<feColorMatrix in="SourceAlpha" type="matrix" values="0 0 0 0 0 0 0 0 0 0 0 0 0 0 0 0 0 0 127 0" result="hardAlpha"/>
<feOffset dx="1" dy="2"/>
<feGaussianBlur stdDeviation="0.8"/>
<feComposite in2="hardAlpha" operator="out"/>
<feColorMatrix type="matrix" values="0 0 0 0 0 0 0 0 0 0 0 0 0 0 0 0 0 0 0.25 0"/>
<feBlend mode="normal" in2="BackgroundImageFix" result="effect1_dropShadow_637_2847"/>
<feBlend mode="normal" in="SourceGraphic" in2="effect1_dropShadow_637_2847" result="shape"/>
</filter>
<filter id="filter2_d_637_2847" x="16.9693" y="17.7729" width="15.3421" height="19.1579" filterUnits="userSpaceOnUse" color-interpolation-filters="sRGB">
<feFlood flood-opacity="0" result="BackgroundImageFix"/>
<feColorMatrix in="SourceAlpha" type="matrix" values="0 0 0 0 0 0 0 0 0 0 0 0 0 0 0 0 0 0 127 0" result="hardAlpha"/>
<feOffset dx="1" dy="2"/>
<feGaussianBlur stdDeviation="0.8"/>
<feComposite in2="hardAlpha" operator="out"/>
<feColorMatrix type="matrix" values="0 0 0 0 0 0 0 0 0 0 0 0 0 0 0 0 0 0 0.25 0"/>
<feBlend mode="normal" in2="BackgroundImageFix" result="effect1_dropShadow_637_2847"/>
<feBlend mode="normal" in="SourceGraphic" in2="effect1_dropShadow_637_2847" result="shape"/>
</filter>
<filter id="filter3_d_637_2847" x="22.035" y="0.213916" width="17.5014" height="17.1188" filterUnits="userSpaceOnUse" color-interpolation-filters="sRGB">
<feFlood flood-opacity="0" result="BackgroundImageFix"/>
<feColorMatrix in="SourceAlpha" type="matrix" values="0 0 0 0 0 0 0 0 0 0 0 0 0 0 0 0 0 0 127 0" result="hardAlpha"/>
<feOffset/>
<feGaussianBlur stdDeviation="3.15"/>
<feComposite in2="hardAlpha" operator="out"/>
<feColorMatrix type="matrix" values="0 0 0 0 1 0 0 0 0 1 0 0 0 0 1 0 0 0 0.25 0"/>
<feBlend mode="normal" in2="BackgroundImageFix" result="effect1_dropShadow_637_2847"/>
<feBlend mode="normal" in="SourceGraphic" in2="effect1_dropShadow_637_2847" result="shape"/>
</filter>
<filter id="filter4_d_637_2847" x="40.9314" y="10.2454" width="17.4872" height="17.2592" filterUnits="userSpaceOnUse" color-interpolation-filters="sRGB">
<feFlood flood-opacity="0" result="BackgroundImageFix"/>
<feColorMatrix in="SourceAlpha" type="matrix" values="0 0 0 0 0 0 0 0 0 0 0 0 0 0 0 0 0 0 127 0" result="hardAlpha"/>
<feOffset/>
<feGaussianBlur stdDeviation="3.15"/>
<feComposite in2="hardAlpha" operator="out"/>
<feColorMatrix type="matrix" values="0 0 0 0 1 0 0 0 0 1 0 0 0 0 1 0 0 0 0.25 0"/>
<feBlend mode="normal" in2="BackgroundImageFix" result="effect1_dropShadow_637_2847"/>
<feBlend mode="normal" in="SourceGraphic" in2="effect1_dropShadow_637_2847" result="shape"/>
</filter>
<filter id="filter5_d_637_2847" x="40.9314" y="10.2454" width="17.4872" height="17.2592" filterUnits="userSpaceOnUse" color-interpolation-filters="sRGB">
<feFlood flood-opacity="0" result="BackgroundImageFix"/>
<feColorMatrix in="SourceAlpha" type="matrix" values="0 0 0 0 0 0 0 0 0 0 0 0 0 0 0 0 0 0 127 0" result="hardAlpha"/>
<feOffset/>
<feGaussianBlur stdDeviation="3.15"/>
<feComposite in2="hardAlpha" operator="out"/>
<feColorMatrix type="matrix" values="0 0 0 0 1 0 0 0 0 1 0 0 0 0 1 0 0 0 0.25 0"/>
<feBlend mode="normal" in2="BackgroundImageFix" result="effect1_dropShadow_637_2847"/>
<feBlend mode="normal" in="SourceGraphic" in2="effect1_dropShadow_637_2847" result="shape"/>
</filter>
<filter id="filter6_d_637_2847" x="3.61504" y="10.2454" width="17.4872" height="17.2592" filterUnits="userSpaceOnUse" color-interpolation-filters="sRGB">
<feFlood flood-opacity="0" result="BackgroundImageFix"/>
<feColorMatrix in="SourceAlpha" type="matrix" values="0 0 0 0 0 0 0 0 0 0 0 0 0 0 0 0 0 0 127 0" result="hardAlpha"/>
<feOffset/>
<feGaussianBlur stdDeviation="3.15"/>
<feComposite in2="hardAlpha" operator="out"/>
<feColorMatrix type="matrix" values="0 0 0 0 1 0 0 0 0 1 0 0 0 0 1 0 0 0 0.25 0"/>
<feBlend mode="normal" in2="BackgroundImageFix" result="effect1_dropShadow_637_2847"/>
<feBlend mode="normal" in="SourceGraphic" in2="effect1_dropShadow_637_2847" result="shape"/>
</filter>
<filter id="filter7_d_637_2847" x="22.1658" y="44.9434" width="17.5014" height="17.1188" filterUnits="userSpaceOnUse" color-interpolation-filters="sRGB">
<feFlood flood-opacity="0" result="BackgroundImageFix"/>
<feColorMatrix in="SourceAlpha" type="matrix" values="0 0 0 0 0 0 0 0 0 0 0 0 0 0 0 0 0 0 127 0" result="hardAlpha"/>
<feOffset/>
<feGaussianBlur stdDeviation="3.15"/>
<feComposite in2="hardAlpha" operator="out"/>
<feColorMatrix type="matrix" values="0 0 0 0 1 0 0 0 0 1 0 0 0 0 1 0 0 0 0.25 0"/>
<feBlend mode="normal" in2="BackgroundImageFix" result="effect1_dropShadow_637_2847"/>
<feBlend mode="normal" in="SourceGraphic" in2="effect1_dropShadow_637_2847" result="shape"/>
</filter>
<linearGradient id="paint0_linear_637_2847" x1="39.9426" y1="0.975338" x2="31.4634" y2="-0.309896" gradientUnits="userSpaceOnUse">
<stop stop-color="#FA6868"/>
<stop offset="1" stop-color="#740A0A"/>
</linearGradient>
<linearGradient id="paint1_linear_637_2847" x1="47.5244" y1="60.1167" x2="49.5409" y2="51.668" gradientUnits="userSpaceOnUse">
<stop stop-color="#FA6868"/>
<stop offset="1" stop-color="#740A0A"/>
</linearGradient>
<linearGradient id="paint2_linear_637_2847" x1="27.1143" y1="2.04536" x2="23.8079" y2="14.0614" gradientUnits="userSpaceOnUse">
<stop stop-color="#FF8888"/>
<stop offset="1" stop-color="#AB0B0B"/>
</linearGradient>
<linearGradient id="paint3_linear_637_2847" x1="15.2766" y1="53.6816" x2="27.3154" y2="56.257" gradientUnits="userSpaceOnUse">
<stop stop-color="#FF8888"/>
<stop offset="1" stop-color="#AB0B0B"/>
</linearGradient>
<linearGradient id="paint4_linear_637_2847" x1="22.3557" y1="5.2905" x2="20.296" y2="13.2037" gradientUnits="userSpaceOnUse">
<stop stop-color="#FF8888"/>
<stop offset="1" stop-color="#AB0B0B"/>
</linearGradient>
<linearGradient id="paint5_linear_637_2847" x1="44.5221" y1="3.82055" x2="38.1495" y2="0.897058" gradientUnits="userSpaceOnUse">
<stop stop-color="#FA6868"/>
<stop offset="1" stop-color="#740A0A"/>
</linearGradient>
<linearGradient id="paint6_linear_637_2847" x1="63.6946" y1="13.3069" x2="56.0379" y2="10.2448" gradientUnits="userSpaceOnUse">
<stop stop-color="#FA6868"/>
<stop offset="1" stop-color="#740A0A"/>
</linearGradient>
<linearGradient id="paint7_linear_637_2847" x1="63.6946" y1="7.87254" x2="56.0379" y2="4.81045" gradientUnits="userSpaceOnUse">
<stop stop-color="#FA6868"/>
<stop offset="1" stop-color="#740A0A"/>
</linearGradient>
<linearGradient id="paint8_linear_637_2847" x1="61.2204" y1="27.938" x2="53.5638" y2="24.8759" gradientUnits="userSpaceOnUse">
<stop stop-color="#FA6868"/>
<stop offset="1" stop-color="#740A0A"/>
</linearGradient>
<linearGradient id="paint9_linear_637_2847" x1="62.8699" y1="19.9953" x2="55.2132" y2="16.9333" gradientUnits="userSpaceOnUse">
<stop stop-color="#FA6868"/>
<stop offset="1" stop-color="#740A0A"/>
</linearGradient>
<linearGradient id="paint10_linear_637_2847" x1="3.91036" y1="9.75325" x2="9.40488" y2="26.011" gradientUnits="userSpaceOnUse">
<stop stop-color="#FF8888"/>
<stop offset="1" stop-color="#AB0B0B"/>
</linearGradient>
<linearGradient id="paint11_linear_637_2847" x1="3.91085" y1="4.7369" x2="9.40537" y2="20.9947" gradientUnits="userSpaceOnUse">
<stop stop-color="#FF8888"/>
<stop offset="1" stop-color="#AB0B0B"/>
</linearGradient>
<linearGradient id="paint12_linear_637_2847" x1="6.38448" y1="23.1302" x2="11.879" y2="39.388" gradientUnits="userSpaceOnUse">
<stop stop-color="#FF8888"/>
<stop offset="1" stop-color="#AB0B0B"/>
</linearGradient>
<linearGradient id="paint13_linear_637_2847" x1="4.73507" y1="16.0238" x2="10.2296" y2="32.2815" gradientUnits="userSpaceOnUse">
<stop stop-color="#FF8888"/>
<stop offset="1" stop-color="#AB0B0B"/>
</linearGradient>
<linearGradient id="paint14_linear_637_2847" x1="-1.87238" y1="9.12263" x2="20.1849" y2="-1.03186" gradientUnits="userSpaceOnUse">
<stop stop-color="#FA6868"/>
<stop offset="1" stop-color="#740A0A"/>
</linearGradient>
<linearGradient id="paint15_linear_637_2847" x1="20.4851" y1="8.16818" x2="43.5863" y2="9.40234" gradientUnits="userSpaceOnUse">
<stop stop-color="#C86A6A"/>
<stop offset="1" stop-color="#9D0C0C"/>
</linearGradient>
<linearGradient id="paint16_linear_637_2847" x1="30.2034" y1="17.7739" x2="40.8305" y2="18.3804" gradientUnits="userSpaceOnUse">
<stop stop-color="#F2D2D2"/>
<stop offset="1" stop-color="#D85757"/>
</linearGradient>
<linearGradient id="paint17_linear_637_2847" x1="20.4621" y1="17.7729" x2="26.2191" y2="5.99337" gradientUnits="userSpaceOnUse">
<stop stop-color="#F2D2D2"/>
</linearGradient>
<linearGradient id="paint18_linear_637_2847" x1="30.7104" y1="48.0039" x2="31.1235" y2="38.1263" gradientUnits="userSpaceOnUse">
<stop stop-color="#DC2121"/>
<stop offset="0.994792" stop-color="#D15757"/>
</linearGradient>
<linearGradient id="paint19_linear_637_2847" x1="32.6205" y1="11.8438" x2="28.424" y2="11.5971" gradientUnits="userSpaceOnUse">
<stop offset="0.0001" stop-color="#C62C2C"/>
<stop offset="1" stop-color="#E4B8B8"/>
</linearGradient>
<linearGradient id="paint20_linear_637_2847" x1="51.774" y1="13.9448" x2="53.9732" y2="18.6739" gradientUnits="userSpaceOnUse">
<stop stop-color="#FF9FA7"/>
<stop offset="1" stop-color="#AA0D3C"/>
</linearGradient>
<linearGradient id="paint21_linear_637_2847" x1="51.774" y1="13.9448" x2="53.9732" y2="18.6739" gradientUnits="userSpaceOnUse">
<stop stop-color="#ECC8C8"/>
<stop offset="1" stop-color="#9B1E1E"/>
</linearGradient>
<linearGradient id="paint22_linear_637_2847" x1="14.4576" y1="13.9448" x2="16.6568" y2="18.6739" gradientUnits="userSpaceOnUse">
<stop stop-color="#F2D2D2"/>
<stop offset="1" stop-color="#9F2727"/>
</linearGradient>
<linearGradient id="paint23_linear_637_2847" x1="32.7513" y1="56.5733" x2="28.5549" y2="56.3266" gradientUnits="userSpaceOnUse">
<stop offset="0.0001" stop-color="#E3B7B7"/>
<stop offset="1" stop-color="#A63838"/>
</linearGradient>
</defs>
</svg>
