<svg width="57" height="60" viewBox="0 0 57 60" fill="none" xmlns="http://www.w3.org/2000/svg">
<path d="M49.8697 43.5599V22.9371L57 13.5438L47.4664 16.8205L31.8508 8.439L27.7279 0L24.6697 8.439L8.36413 16.8205L4.43207 15.1821L0.5 13.5438L6.18008 22.9371V43.5185C6.18008 46.4175 8.0849 48.9721 10.8635 49.7994L21.3785 52.9301C22.6675 53.3139 23.8073 54.085 24.643 55.1388L28.3833 59.8548L31.9111 55.2046C32.742 54.1092 33.8964 53.3029 35.2109 52.8999L45.2375 49.8254C47.9903 48.9813 49.8697 46.4392 49.8697 43.5599Z" fill="url(#paint0_linear_143_13383)"/>
<g filter="url(#filter0_i_143_13383)">
<path d="M24.7119 10.7185L10.5932 19.8319C8.72328 21.0388 7.59375 23.1123 7.59375 25.3379V42.6135C7.59375 45.5571 9.55634 48.1395 12.3924 48.9277L26.5371 52.8587C27.7012 53.1822 28.9322 53.1776 30.0939 52.8454L43.7041 48.9529C46.5167 48.1485 48.4556 45.5774 48.4556 42.6521V25.2823C48.4556 23.0872 47.3566 21.0379 45.5281 19.8234L31.892 10.7657C29.7209 9.3236 26.9017 9.30508 24.7119 10.7185Z" fill="url(#paint1_linear_143_13383)"/>
</g>
<g filter="url(#filter1_d_143_13383)">
<path d="M23.1538 32.1451C23.1357 31.982 23.1538 31.8069 23.1478 31.6257C23.1478 31.5351 23.1658 31.4324 23.1958 31.3358C23.2198 31.2452 23.2198 31.1486 23.2378 31.0641C23.2738 30.901 23.3218 30.744 23.3578 30.5809C23.4178 30.3152 23.5318 30.0676 23.6339 29.814C23.7359 29.5543 23.8799 29.3127 24.0239 29.0712C24.162 28.8357 24.33 28.6243 24.51 28.4129C24.7621 28.1291 25.0321 27.8573 25.2902 27.5795C25.4702 27.3863 25.6563 27.2051 25.8363 27.0179C26.1844 26.6677 26.5385 26.3174 26.8745 25.955C27.2346 25.5746 27.6007 25.2062 27.9668 24.8258C28.1288 24.6567 28.3088 24.4996 28.4649 24.3185C28.7229 24.0165 29.017 23.7508 29.293 23.467C29.4491 23.31 29.6051 23.1529 29.7551 22.9899C30.1152 22.5973 30.5113 22.241 30.8714 21.8425C31.1714 21.5103 31.5015 21.2023 31.8076 20.8762C32.0416 20.6286 32.2756 20.3871 32.5037 20.1455C32.7017 19.9402 32.9178 19.765 33.1338 19.5839C33.3499 19.4027 33.5839 19.2578 33.824 19.1128C34.082 18.9619 34.3641 18.8411 34.6461 18.7384C34.7722 18.6961 34.8922 18.6357 35.0182 18.6116C35.1262 18.5935 35.2283 18.5572 35.3363 18.5452C35.5043 18.527 35.6664 18.4908 35.8344 18.4667C36.0864 18.4304 36.3445 18.4304 36.5965 18.4304C36.9206 18.4304 37.2387 18.4787 37.5507 18.5391C37.8988 18.6056 38.2349 18.7022 38.5529 18.8471C38.865 18.986 39.1711 19.1551 39.4591 19.3484C39.7892 19.5778 40.0953 19.8375 40.3773 20.1274C40.6294 20.381 40.8334 20.6709 41.0375 20.9608C41.2955 21.3412 41.4816 21.764 41.6376 22.1988C41.7696 22.5732 41.8536 22.9537 41.9016 23.3462C41.9257 23.5696 41.9557 23.7931 41.9497 24.0226C41.9437 24.2581 41.9497 24.4936 41.9136 24.7291C41.8716 25.0009 41.8356 25.2787 41.7636 25.5444C41.6736 25.8705 41.5656 26.1906 41.4215 26.4925C41.1755 27.036 40.8514 27.5192 40.4493 27.96C40.1733 28.268 39.8792 28.5639 39.5912 28.8538C39.2971 29.1437 39.015 29.4456 38.739 29.7476C38.619 29.8804 38.4989 30.0133 38.3609 30.128C38.2829 30.2005 38.2109 30.285 38.1389 30.3575C38.0849 30.4119 38.0308 30.4602 37.9768 30.5145C37.6768 30.8285 37.3707 31.1305 37.0766 31.4506C36.9146 31.6257 36.7526 31.8008 36.5905 31.9699C36.3145 32.2538 36.0384 32.5376 35.7564 32.8214C35.4743 33.1053 35.1863 33.3831 34.9162 33.679C34.5441 34.0836 34.154 34.4761 33.776 34.8807C33.5359 35.1344 33.2779 35.3759 33.0318 35.6235C32.7858 35.8711 32.5397 36.1187 32.2936 36.3663C32.1556 36.5052 31.9936 36.62 31.8436 36.7408C31.6335 36.9038 31.4115 37.0487 31.1774 37.1695C30.8113 37.3567 30.4273 37.5077 30.0312 37.6224C29.7911 37.6889 29.5391 37.7251 29.293 37.7734C29.227 37.7855 29.155 37.7855 29.089 37.7915C28.7649 37.8157 28.4409 37.7855 28.1168 37.7855C28.0208 37.7855 27.9247 37.7553 27.8287 37.7432C27.7147 37.7251 27.6007 37.6949 27.4867 37.6708C27.2886 37.6285 27.0966 37.5681 26.9045 37.5137C26.6765 37.4473 26.4604 37.3386 26.2444 37.242C26.1004 37.1756 25.9743 37.0789 25.8363 37.0065C25.7223 36.9461 25.6203 36.8736 25.5182 36.8011C25.3802 36.6924 25.2422 36.5837 25.1102 36.475C24.9241 36.318 24.7501 36.1429 24.5881 35.9617C24.486 35.8409 24.378 35.7262 24.282 35.5994C24.114 35.3759 23.9759 35.1344 23.8439 34.8928C23.7179 34.6573 23.5918 34.4218 23.5078 34.1681C23.4178 33.9145 23.3578 33.6548 23.2798 33.4012C23.2498 33.2985 23.2498 33.1838 23.2258 33.0751C23.1598 32.7671 23.1418 32.4651 23.1538 32.1451ZM26.5325 36.1791C26.5505 36.1489 26.5445 36.1248 26.5445 36.1006C26.5445 35.8228 26.5445 35.545 26.5445 35.2733C26.5445 33.842 26.5445 32.4168 26.5445 30.9856C26.5445 30.9372 26.5505 30.9071 26.6105 30.9071C27.0486 30.9071 27.4867 30.9071 27.9247 30.9131C27.9848 30.9131 28.0088 30.901 28.0028 30.8346C28.0028 30.273 28.0028 29.7053 28.0028 29.1437C28.0028 28.7511 28.0028 28.3646 28.0028 27.9721C28.0028 27.8755 28.0028 27.8755 28.1048 27.8694C28.1588 27.8694 28.2188 27.8755 28.2728 27.8573C28.3028 27.8513 28.3448 27.8694 28.3508 27.9177C28.3508 27.9781 28.3628 28.0325 28.3628 28.0868C28.3628 28.9987 28.3628 29.9106 28.3628 30.8285C28.3628 30.8889 28.3808 30.9071 28.4409 30.901C28.8789 30.901 29.317 30.901 29.7551 30.895C29.8151 30.895 29.8331 30.9071 29.8331 30.9674C29.8331 32.604 29.8331 34.2406 29.8331 35.8711C29.8331 36.0704 29.8331 36.2757 29.8331 36.475C29.8331 36.5233 29.8451 36.5415 29.8992 36.5233C29.9712 36.4992 30.0432 36.4871 30.1092 36.4569C30.2352 36.4026 30.3673 36.3543 30.4933 36.2878C30.6373 36.2093 30.7873 36.1429 30.9314 36.0583C31.1054 35.9557 31.2614 35.8409 31.4235 35.7141C31.5195 35.6416 31.6095 35.5692 31.5675 35.4242C31.5675 35.4182 31.5675 35.4122 31.5675 35.4001C31.5675 32.9905 31.5735 30.5749 31.5735 28.1653C31.5735 27.4105 31.5735 26.6556 31.5735 25.9007C31.5735 25.8041 31.5735 25.8041 31.6695 25.8041C32.0896 25.8041 32.5157 25.8041 32.9358 25.8041C33.0078 25.8041 33.0318 25.7799 33.0318 25.7074C33.0258 25.2122 33.0318 24.711 33.0318 24.2158C33.0318 23.7629 33.0318 23.31 33.0318 22.857C33.0318 22.7846 33.0558 22.7664 33.1218 22.7664C33.1878 22.7725 33.2538 22.7725 33.3139 22.7664C33.3679 22.7604 33.3799 22.7846 33.3799 22.8329C33.3799 23.775 33.3799 24.717 33.3799 25.6652C33.3799 25.6954 33.3859 25.7256 33.3739 25.7497C33.3499 25.8041 33.3799 25.8041 33.4159 25.8041C33.5239 25.8041 33.6379 25.8041 33.746 25.8041C34.082 25.8041 34.4181 25.8041 34.7482 25.8041C34.8082 25.8041 34.8322 25.8222 34.8322 25.8826C34.8262 25.9611 34.8262 26.0456 34.8262 26.1241C34.8262 28.117 34.8262 30.1039 34.8262 32.0967C34.8262 32.1209 34.8262 32.139 34.8322 32.1632C34.8502 32.2115 34.8622 32.2175 34.8982 32.1813C34.9702 32.1028 35.0422 32.0303 35.1142 31.9578C35.4983 31.5593 35.8884 31.1607 36.2725 30.7621C36.7466 30.273 37.2207 29.7838 37.7008 29.2946C37.7368 29.2584 37.7488 29.2161 37.7488 29.1678C37.7488 28.4431 37.7488 27.7124 37.7488 26.9877C37.7488 26.9273 37.7308 26.9092 37.6708 26.9092C37.2507 26.9153 36.8306 26.9092 36.4105 26.9092C36.2965 26.9092 36.2905 26.9334 36.2905 26.7945C36.2905 24.6325 36.2905 22.4645 36.2905 20.3025C36.2905 20.2482 36.2665 20.1999 36.2725 20.1455C36.3025 19.9704 36.2845 19.7892 36.2845 19.6141C36.2845 19.4933 36.2785 19.4933 36.1645 19.4993C36.1465 19.4993 36.1224 19.4993 36.1044 19.4993C35.9784 19.5114 35.8524 19.5114 35.7264 19.5356C35.4503 19.5899 35.1742 19.6624 34.9042 19.765C34.5921 19.8798 34.2981 20.0308 34.028 20.218C33.6919 20.4475 33.3979 20.7373 33.1098 21.0272C32.8638 21.2748 32.6297 21.5224 32.3837 21.77C32.2816 21.8727 32.1796 21.9693 32.0836 22.072C31.7835 22.386 31.4835 22.706 31.1834 23.0261C31.1114 23.1046 31.0394 23.1952 30.9614 23.2677C30.7993 23.4247 30.6493 23.5877 30.4873 23.7448C30.0492 24.1796 29.6111 24.6204 29.197 25.0794C28.951 25.3511 28.6929 25.6048 28.4349 25.8645C28.0028 26.3053 27.5587 26.7401 27.1326 27.187C26.7005 27.6399 26.2744 28.0929 25.8363 28.5398C25.5242 28.8598 25.2062 29.1739 24.9661 29.5603C24.7921 29.8321 24.6361 30.1159 24.516 30.4179C24.36 30.8104 24.264 31.215 24.222 31.6317C24.174 32.0967 24.18 32.5617 24.276 33.0207C24.342 33.3347 24.432 33.6427 24.546 33.9447C24.6061 34.1077 24.6961 34.2587 24.7801 34.4097C25.2062 35.1706 25.7823 35.7564 26.5325 36.1791ZM39.5432 20.7675C39.5372 20.8038 39.5372 20.8219 39.5372 20.84C39.5372 21.8062 39.5372 22.7664 39.5372 23.7327C39.5372 24.7654 39.5372 25.798 39.5372 26.8367C39.5372 26.9032 39.5252 26.9334 39.4471 26.9334C39.015 26.9273 38.589 26.9334 38.1569 26.9334C38.0909 26.9334 38.0729 26.9575 38.0729 27.0179C38.0729 27.6097 38.0729 28.2076 38.0729 28.7994C38.0729 28.8296 38.0729 28.8598 38.0729 28.89C38.2289 28.739 38.3789 28.5941 38.5289 28.4431C38.775 28.1895 39.021 27.9358 39.2671 27.6822C39.5672 27.3742 39.8732 27.0723 40.1133 26.7099C40.5874 25.9973 40.8394 25.2062 40.8934 24.3547C40.9234 23.8655 40.8694 23.3824 40.7494 22.9053C40.6234 22.4041 40.4193 21.9391 40.1313 21.5103C39.9692 21.2386 39.7652 21.0151 39.5432 20.7675Z" fill="url(#paint2_linear_143_13383)"/>
</g>
<g filter="url(#filter2_d_143_13383)">
<path d="M22.2932 34.6903C22.2274 34.6663 22.1915 34.6183 22.1616 34.5764C22.0539 34.4324 21.9223 34.3065 21.8026 34.1745C21.659 34.0126 21.5095 33.8506 21.3539 33.6947C21.0548 33.3888 20.7556 33.0829 20.4565 32.777C20.283 32.5971 20.1095 32.4232 19.936 32.2492C19.7924 32.1053 19.6608 31.9493 19.5172 31.8114C19.4513 31.7454 19.3915 31.6675 19.3078 31.6135C19.236 31.5715 19.212 31.4815 19.1462 31.4215C18.9548 31.2476 18.7872 31.0557 18.5958 30.8817C18.4462 30.7438 18.3266 30.5699 18.177 30.4319C18.0813 30.3479 17.9975 30.246 17.8958 30.168C17.8479 30.138 17.83 30.0721 17.7881 30.0301C17.5907 29.8381 17.3932 29.6522 17.2078 29.4483C16.9565 29.1664 16.6813 28.9085 16.43 28.6266C16.2445 28.4227 16.0411 28.2307 15.8496 28.0328C15.5684 27.7389 15.3112 27.421 15.0898 27.0792C14.9821 26.9112 14.8984 26.7313 14.8026 26.5574C14.7129 26.3954 14.659 26.2215 14.5872 26.0596C14.4915 25.8556 14.4616 25.6397 14.3958 25.4298C14.3539 25.2858 14.336 25.1359 14.306 24.992C14.2343 24.5901 14.2522 24.1883 14.2402 23.7804C14.2402 23.6725 14.2522 23.5645 14.2462 23.4565C14.2462 23.3726 14.2821 23.2826 14.2941 23.1926C14.306 23.1387 14.3001 23.0787 14.306 23.0247C14.318 22.9347 14.3479 22.8508 14.3719 22.7608C14.4437 22.4549 14.5394 22.161 14.6531 21.8671C14.7189 21.6932 14.7847 21.5133 14.8864 21.3573C15.018 21.1534 15.1377 20.9375 15.2813 20.7456C15.4249 20.5476 15.5684 20.3497 15.7419 20.1758C15.8915 20.0198 16.0471 19.8699 16.2146 19.7259C16.4838 19.486 16.777 19.2761 17.0941 19.1022C17.2855 19.0002 17.483 18.9042 17.6804 18.8143C17.824 18.7483 17.9676 18.6943 18.1231 18.6583C18.2428 18.6283 18.3505 18.5744 18.4761 18.5624C18.6676 18.5444 18.8471 18.4964 19.0325 18.4664C19.3018 18.4304 19.571 18.4304 19.8402 18.4304C19.9479 18.4304 20.0556 18.4304 20.1573 18.4364C20.265 18.4424 20.3727 18.4604 20.4804 18.4784C20.63 18.5024 20.7796 18.5624 20.9351 18.5684C21.0727 18.5744 21.1864 18.6463 21.312 18.6763C21.5514 18.7303 21.7667 18.8443 21.9881 18.9402C22.2573 19.0602 22.5026 19.2101 22.742 19.3781C22.9155 19.498 23.0949 19.618 23.2565 19.7619C23.3702 19.8639 23.4778 19.9718 23.5796 20.0798C23.9146 20.4217 24.2496 20.7635 24.5847 21.1054C24.9496 21.4833 25.3146 21.8671 25.6855 22.239C26.1402 22.6948 26.577 23.1746 27.0377 23.6245C27.0556 23.6425 27.0736 23.6605 27.0915 23.6785C27.1155 23.7024 27.1095 23.7264 27.0855 23.7504C26.918 23.9184 26.7565 24.0803 26.589 24.2482C26.5351 24.3082 26.4693 24.3622 26.4214 24.4222C26.3796 24.4702 26.3496 24.4462 26.3197 24.4222C26.1881 24.2902 26.0445 24.1643 25.9308 24.0143C25.8112 23.8644 25.6556 23.7564 25.5479 23.6005C25.5001 23.5345 25.4283 23.4865 25.3744 23.4265C25.1471 23.1926 24.9257 22.9467 24.6924 22.7248C24.483 22.5209 24.2855 22.299 24.0761 22.089C23.9325 21.9451 23.777 21.8132 23.6454 21.6572C23.4659 21.4413 23.2625 21.2554 23.071 21.0514C22.8616 20.8295 22.6522 20.6076 22.4069 20.4217C22.2633 20.3137 22.1137 20.2058 21.9522 20.1158C21.8206 20.0378 21.683 19.9718 21.5514 19.8999C21.4257 19.8339 21.2941 19.7799 21.1565 19.7379C21.0428 19.7019 20.9231 19.66 20.8035 19.63C20.618 19.582 20.4325 19.552 20.2471 19.522C20.1513 19.504 20.0556 19.51 19.9599 19.504C19.9001 19.498 19.8881 19.522 19.8881 19.576C19.8881 19.7619 19.8881 19.9479 19.8881 20.1278C19.8881 20.7096 19.8881 21.2913 19.8881 21.8731C19.8881 23.2706 19.8941 24.6741 19.8881 26.0716C19.8881 26.3115 19.9001 26.5514 19.8941 26.7973C19.8941 26.8453 19.8881 26.8753 19.8223 26.8753C19.3915 26.8753 18.9608 26.8753 18.53 26.8753C18.4582 26.8753 18.4402 26.8992 18.4402 26.9892C18.4402 27.631 18.4402 28.2667 18.4402 28.9085C18.4402 28.9865 18.4462 29.0644 18.4343 29.1424C18.4283 29.1724 18.4402 29.1904 18.4582 29.2144C18.865 29.6282 19.2719 30.0421 19.6787 30.4619C20.1214 30.9177 20.5642 31.3736 21.0069 31.8294C21.1146 31.9374 21.2283 32.0393 21.3419 32.1473C21.3419 31.9673 21.3419 31.7814 21.3419 31.5955C21.3419 29.6822 21.3419 27.7749 21.3419 25.8616C21.3419 25.7957 21.3659 25.7777 21.4257 25.7777C21.8565 25.7777 22.2872 25.7777 22.718 25.7777C22.7898 25.7777 22.8018 25.7537 22.8018 25.6877C22.8018 24.746 22.8018 23.8104 22.8018 22.8688C22.8018 22.7608 22.8018 22.7608 22.9095 22.7608C22.9573 22.7608 23.0112 22.7668 23.059 22.7608C23.1249 22.7548 23.1488 22.7788 23.1488 22.8508C23.1488 23.1926 23.1488 23.5345 23.1488 23.8764C23.1488 24.4881 23.1488 25.0939 23.1488 25.7057C23.1488 25.7717 23.1727 25.7957 23.2325 25.7717C23.2744 25.7537 23.3163 25.7777 23.3522 25.7777C23.7411 25.7777 24.124 25.7777 24.5129 25.7777C24.5787 25.7777 24.6146 25.7957 24.5967 25.8676C24.5727 26.0056 24.5847 26.1435 24.5847 26.2755C24.5847 26.3115 24.5727 26.3355 24.5488 26.3594C24.4112 26.4914 24.2915 26.6293 24.1539 26.7613C24.0043 26.9112 23.8548 27.0612 23.7052 27.2171C23.5377 27.3851 23.3881 27.565 23.2445 27.7509C23.1428 27.8829 23.0471 28.0148 22.9573 28.1528C22.8018 28.3867 22.6522 28.6266 22.5325 28.8845C22.4189 29.1244 22.3112 29.3703 22.2214 29.6222C22.1437 29.8441 22.0599 30.0601 22.012 30.288C21.9702 30.4919 21.9163 30.6898 21.8864 30.8937C21.8684 31.0317 21.8565 31.1696 21.8385 31.3076C21.8146 31.4935 21.8086 31.6734 21.7967 31.8594C21.7847 32.0333 21.7787 32.2072 21.8026 32.3812C21.8146 32.4652 21.8086 32.5551 21.8146 32.6391C21.8325 32.807 21.8505 32.975 21.8744 33.1369C21.9163 33.4368 21.9941 33.7307 22.0719 34.0186C22.1137 34.1745 22.1616 34.3245 22.2274 34.4684C22.2454 34.5404 22.2813 34.6063 22.2932 34.6903ZM18.0633 28.7825C18.0633 28.7705 18.0693 28.7645 18.0693 28.7585C18.0693 28.1708 18.0693 27.583 18.0693 26.9952C18.0693 26.8453 18.0693 26.8513 17.9257 26.8573C17.5129 26.8752 17.106 26.8633 16.6932 26.8633C16.6394 26.8633 16.6154 26.8453 16.6154 26.7853C16.6154 24.824 16.6154 22.8568 16.6154 20.8955C16.6154 20.8595 16.6334 20.8055 16.6035 20.7935C16.5736 20.7815 16.5556 20.8355 16.5317 20.8595C16.2625 21.1174 16.0531 21.4233 15.8676 21.7412C15.6163 22.179 15.4548 22.6468 15.3531 23.1387C15.2573 23.6005 15.2513 24.0683 15.2872 24.5361C15.3052 24.764 15.359 24.986 15.4069 25.2079C15.5266 25.7057 15.7419 26.1675 16.0231 26.5934C16.2565 26.9532 16.5496 27.2591 16.8548 27.565C17.0223 27.7389 17.1898 27.9129 17.3573 28.0868C17.5607 28.2907 17.7642 28.4946 17.9616 28.7046C17.9915 28.7346 18.0214 28.7645 18.0633 28.7825Z" fill="url(#paint3_linear_143_13383)"/>
</g>
<path d="M6.18066 45.8984C6.18066 45.8984 16.0146 49.0991 27.9504 49.0991C39.8862 49.0991 49.8703 45.8984 49.8703 45.8984V34.8187C49.8703 34.8187 36.7532 39.1388 27.9504 39.1275C19.2046 39.1163 6.18066 34.8187 6.18066 34.8187V45.8984Z" fill="url(#paint4_linear_143_13383)"/>
<path d="M25.1074 41.9421H26.3375V46.0425H25.1074V41.9421Z" fill="#528DFF"/>
<path d="M28.8628 45.8196L27.0537 42.1497H27.8873L29.5013 45.4683H29.0224L30.6541 42.1497H31.4227L29.6195 45.8196H28.8628Z" fill="#528DFF"/>
<path fill-rule="evenodd" clip-rule="evenodd" d="M26.7031 41.9309H28.0246L29.2649 44.4811L30.5187 41.9309H31.774L29.7562 46.0377H28.7276L26.7031 41.9309ZM29.0206 44.9779L27.7513 42.3678H27.4056L28.8566 45.3114L29.0206 44.9779ZM29.6476 45.2681L29.507 44.9789L30.7908 42.3678H31.0726L29.6476 45.2681Z" fill="#528DFF"/>
<defs>
<filter id="filter0_i_143_13383" x="7.59375" y="9.67114" width="41.8623" height="44.4268" filterUnits="userSpaceOnUse" color-interpolation-filters="sRGB">
<feFlood flood-opacity="0" result="BackgroundImageFix"/>
<feBlend mode="normal" in="SourceGraphic" in2="BackgroundImageFix" result="shape"/>
<feColorMatrix in="SourceAlpha" type="matrix" values="0 0 0 0 0 0 0 0 0 0 0 0 0 0 0 0 0 0 127 0" result="hardAlpha"/>
<feOffset dx="1" dy="1"/>
<feGaussianBlur stdDeviation="1"/>
<feComposite in2="hardAlpha" operator="arithmetic" k2="-1" k3="1"/>
<feColorMatrix type="matrix" values="0 0 0 0 0 0 0 0 0 0 0 0 0 0 0 0 0 0 0.25 0"/>
<feBlend mode="normal" in2="shape" result="effect1_innerShadow_143_13383"/>
</filter>
<filter id="filter1_d_143_13383" x="22.5455" y="18.4304" width="22.0047" height="22.9706" filterUnits="userSpaceOnUse" color-interpolation-filters="sRGB">
<feFlood flood-opacity="0" result="BackgroundImageFix"/>
<feColorMatrix in="SourceAlpha" type="matrix" values="0 0 0 0 0 0 0 0 0 0 0 0 0 0 0 0 0 0 127 0" result="hardAlpha"/>
<feOffset dx="1" dy="2"/>
<feGaussianBlur stdDeviation="0.8"/>
<feComposite in2="hardAlpha" operator="out"/>
<feColorMatrix type="matrix" values="0 0 0 0 0 0 0 0 0 0 0 0 0 0 0 0 0 0 0.25 0"/>
<feBlend mode="normal" in2="BackgroundImageFix" result="effect1_dropShadow_143_13383"/>
<feBlend mode="normal" in="SourceGraphic" in2="effect1_dropShadow_143_13383" result="shape"/>
</filter>
<filter id="filter2_d_143_13383" x="13.6402" y="18.4304" width="16.0662" height="19.86" filterUnits="userSpaceOnUse" color-interpolation-filters="sRGB">
<feFlood flood-opacity="0" result="BackgroundImageFix"/>
<feColorMatrix in="SourceAlpha" type="matrix" values="0 0 0 0 0 0 0 0 0 0 0 0 0 0 0 0 0 0 127 0" result="hardAlpha"/>
<feOffset dx="1" dy="2"/>
<feGaussianBlur stdDeviation="0.8"/>
<feComposite in2="hardAlpha" operator="out"/>
<feColorMatrix type="matrix" values="0 0 0 0 0 0 0 0 0 0 0 0 0 0 0 0 0 0 0.25 0"/>
<feBlend mode="normal" in2="BackgroundImageFix" result="effect1_dropShadow_143_13383"/>
<feBlend mode="normal" in="SourceGraphic" in2="effect1_dropShadow_143_13383" result="shape"/>
</filter>
<linearGradient id="paint0_linear_143_13383" x1="16.5885" y1="6.55337" x2="42.1779" y2="9.03161" gradientUnits="userSpaceOnUse">
<stop stop-color="#528DFF"/>
<stop offset="1" stop-color="#001D56"/>
</linearGradient>
<linearGradient id="paint1_linear_143_13383" x1="17.3285" y1="8.39128" x2="41.8055" y2="9.7171" gradientUnits="userSpaceOnUse">
<stop stop-color="#528DFF"/>
<stop offset="1" stop-color="#093996"/>
</linearGradient>
<linearGradient id="paint2_linear_143_13383" x1="27.6255" y1="18.4304" x2="38.8854" y2="19.0819" gradientUnits="userSpaceOnUse">
<stop stop-color="#A2C0FC"/>
<stop offset="1" stop-color="#2752A6"/>
</linearGradient>
<linearGradient id="paint3_linear_143_13383" x1="17.3055" y1="18.4304" x2="23.2712" y2="6.05434" gradientUnits="userSpaceOnUse">
<stop stop-color="#98B7F4"/>
<stop offset="0.9999" stop-color="#1C6A8B"/>
<stop offset="1" stop-color="#1A6889"/>
<stop offset="1" stop-color="#216F91"/>
<stop offset="1" stop-color="#0A8593"/>
</linearGradient>
<linearGradient id="paint4_linear_143_13383" x1="33.7051" y1="54.3935" x2="30.6928" y2="31.8415" gradientUnits="userSpaceOnUse">
<stop offset="0.297027" stop-color="#0E3E9B"/>
<stop offset="0.994792" stop-color="#528DFF"/>
</linearGradient>
</defs>
</svg>
