<svg width="96" height="100" viewBox="0 0 96 100" fill="none" xmlns="http://www.w3.org/2000/svg">
<path d="M50.3448 23.3928C56.8126 23.3928 62.0558 18.1561 62.0558 11.6964C62.0558 5.23665 56.8126 0 50.3448 0C43.877 0 38.6338 5.23665 38.6338 11.6964C38.6338 18.1561 43.877 23.3928 50.3448 23.3928Z" fill="white"/>
<path d="M50.3452 100C54.2255 100 57.371 96.8583 57.371 92.9829C57.371 89.1075 54.2255 85.9658 50.3452 85.9658C46.4649 85.9658 43.3193 89.1075 43.3193 92.9829C43.3193 96.8583 46.4649 100 50.3452 100Z" fill="white"/>
<path d="M21.569 34.1253C27.3904 34.1253 32.1097 29.412 32.1097 23.5978C32.1097 17.7836 27.3904 13.0703 21.569 13.0703C15.7475 13.0703 11.0283 17.7836 11.0283 23.5978C11.0283 29.412 15.7475 34.1253 21.569 34.1253Z" fill="white"/>
<path d="M79.1211 86.922C82.355 86.922 84.9766 84.3037 84.9766 81.0738C84.9766 77.8439 82.355 75.2256 79.1211 75.2256C75.8872 75.2256 73.2656 77.8439 73.2656 81.0738C73.2656 84.3037 75.8872 86.922 79.1211 86.922Z" fill="white"/>
<path d="M9.64876 61.696C14.8218 61.696 19.0153 57.5077 19.0153 52.3412C19.0153 47.1746 14.8218 42.9863 9.64876 42.9863C4.47577 42.9863 0.282227 47.1746 0.282227 52.3412C0.282227 57.5077 4.47577 61.696 9.64876 61.696Z" fill="white"/>
<path d="M91.0368 57.0132C93.6223 57.0132 95.7182 54.9199 95.7182 52.3376C95.7182 49.7554 93.6223 47.6621 91.0368 47.6621C88.4514 47.6621 86.3555 49.7554 86.3555 52.3376C86.3555 54.9199 88.4514 57.0132 91.0368 57.0132Z" fill="white"/>
<path d="M15.7745 75.2945C12.5713 78.4938 12.5713 83.6702 15.7745 86.8695C18.9739 90.0687 24.1645 90.0687 27.3639 86.8695C30.5672 83.6702 30.5672 78.4938 27.3639 75.2945C24.1645 72.0915 18.9777 72.0611 15.7745 75.2945Z" fill="white"/>
<path d="M79.1165 27.1041C81.0556 27.1041 82.6275 25.5341 82.6275 23.5975C82.6275 21.6608 81.0556 20.0908 79.1165 20.0908C77.1774 20.0908 75.6055 21.6608 75.6055 23.5975C75.6055 25.5341 77.1774 27.1041 79.1165 27.1041Z" fill="white"/>
</svg>
