<svg width="112" height="112" viewBox="0 0 112 112" fill="none" xmlns="http://www.w3.org/2000/svg">
<path d="M24.6495 -3.05176e-05H21.8379V2.81156H24.6495V-3.05176e-05Z" fill="white"/>
<path d="M30.1085 -3.05176e-05H27.2969V2.81156H30.1085V-3.05176e-05Z" fill="white"/>
<path d="M38.2979 -3.05176e-05H35.4863V2.81156H38.2979V-3.05176e-05Z" fill="white"/>
<path d="M46.4854 -3.05176e-05H43.6738V2.81156H46.4854V-3.05176e-05Z" fill="white"/>
<path d="M60.1358 -3.05176e-05H57.3242V2.81156H60.1358V-3.05176e-05Z" fill="white"/>
<path d="M62.8663 -3.05176e-05H60.0547V2.81156H62.8663V-3.05176e-05Z" fill="white"/>
<path d="M71.0538 -3.05176e-05H68.2422V2.81156H71.0538V-3.05176e-05Z" fill="white"/>
<path d="M73.7843 -3.05176e-05H70.9727V2.81156H73.7843V-3.05176e-05Z" fill="white"/>
<path d="M76.5128 -3.05176e-05H73.7012V2.81156H76.5128V-3.05176e-05Z" fill="white"/>
<path d="M84.7022 -3.05176e-05H81.8906V2.81156H84.7022V-3.05176e-05Z" fill="white"/>
<path d="M90.1612 -3.05176e-05H87.3496V2.81156H90.1612V-3.05176e-05Z" fill="white"/>
<path d="M24.6495 2.72949H21.8379V5.54108H24.6495V2.72949Z" fill="white"/>
<path d="M27.378 2.72949H24.5664V5.54108H27.378V2.72949Z" fill="white"/>
<path d="M30.1085 2.72949H27.2969V5.54108H30.1085V2.72949Z" fill="white"/>
<path d="M35.5675 2.72949H32.7559V5.54108H35.5675V2.72949Z" fill="white"/>
<path d="M38.2979 2.72949H35.4863V5.54108H38.2979V2.72949Z" fill="white"/>
<path d="M43.7569 2.72949H40.9453V5.54108H43.7569V2.72949Z" fill="white"/>
<path d="M46.4854 2.72949H43.6738V5.54108H46.4854V2.72949Z" fill="white"/>
<path d="M51.9444 2.72888H49.1328V5.54047H51.9444V2.72888Z" fill="white"/>
<path d="M57.4054 2.72949H54.5938V5.54108H57.4054V2.72949Z" fill="white"/>
<path d="M62.8663 2.72949H60.0547V5.54108H62.8663V2.72949Z" fill="white"/>
<path d="M65.5948 2.72949H62.7832V5.54108H65.5948V2.72949Z" fill="white"/>
<path d="M71.0538 2.72949H68.2422V5.54108H71.0538V2.72949Z" fill="white"/>
<path d="M73.7843 2.72949H70.9727V5.54108H73.7843V2.72949Z" fill="white"/>
<path d="M81.9718 2.72949H79.1602V5.54108H81.9718V2.72949Z" fill="white"/>
<path d="M84.7022 2.72949H81.8906V5.54108H84.7022V2.72949Z" fill="white"/>
<path d="M87.4327 2.72949H84.6211V5.54108H87.4327V2.72949Z" fill="white"/>
<path d="M90.1612 2.72949H87.3496V5.54108H90.1612V2.72949Z" fill="white"/>
<path d="M24.6495 5.45905H21.8379V8.27064H24.6495V5.45905Z" fill="white"/>
<path d="M30.1085 5.45905H27.2969V8.27064H30.1085V5.45905Z" fill="white"/>
<path d="M32.837 5.45905H30.0254V8.27064H32.837V5.45905Z" fill="white"/>
<path d="M35.5675 5.45898H32.7559V8.27058H35.5675V5.45898Z" fill="white"/>
<path d="M38.2979 5.45898H35.4863V8.27058H38.2979V5.45898Z" fill="white"/>
<path d="M41.0264 5.45898H38.2148V8.27058H41.0264V5.45898Z" fill="white"/>
<path d="M43.7569 5.45898H40.9453V8.27058H43.7569V5.45898Z" fill="white"/>
<path d="M46.4854 5.45898H43.6738V8.27058H46.4854V5.45898Z" fill="white"/>
<path d="M51.9444 5.45898H49.1328V8.27058H51.9444V5.45898Z" fill="white"/>
<path d="M54.6768 5.45898H51.8652V8.27058H54.6768V5.45898Z" fill="white"/>
<path d="M57.4054 5.45898H54.5938V8.27058H57.4054V5.45898Z" fill="white"/>
<path d="M60.1358 5.45898H57.3242V8.27058H60.1358V5.45898Z" fill="white"/>
<path d="M65.5948 5.45905H62.7832V8.27064H65.5948V5.45905Z" fill="white"/>
<path d="M68.3253 5.45898H65.5137V8.27058H68.3253V5.45898Z" fill="white"/>
<path d="M71.0538 5.45905H68.2422V8.27064H71.0538V5.45905Z" fill="white"/>
<path d="M81.9718 5.45905H79.1602V8.27064H81.9718V5.45905Z" fill="white"/>
<path d="M27.378 8.18906H24.5664V11.0006H27.378V8.18906Z" fill="white"/>
<path d="M32.837 8.18906H30.0254V11.0006H32.837V8.18906Z" fill="white"/>
<path d="M41.0264 8.18912H38.2148V11.0007H41.0264V8.18912Z" fill="white"/>
<path d="M43.7569 8.18912H40.9453V11.0007H43.7569V8.18912Z" fill="white"/>
<path d="M49.2179 8.18912H46.4062V11.0007H49.2179V8.18912Z" fill="white"/>
<path d="M54.6768 8.18912H51.8652V11.0007H54.6768V8.18912Z" fill="white"/>
<path d="M62.8663 8.18906H60.0547V11.0006H62.8663V8.18906Z" fill="white"/>
<path d="M65.5948 8.18906H62.7832V11.0006H65.5948V8.18906Z" fill="white"/>
<path d="M68.3253 8.18912H65.5137V11.0007H68.3253V8.18912Z" fill="white"/>
<path d="M73.7843 8.18906H70.9727V11.0006H73.7843V8.18906Z" fill="white"/>
<path d="M76.5128 8.18906H73.7012V11.0006H76.5128V8.18906Z" fill="white"/>
<path d="M79.2432 8.18906H76.4316V11.0006H79.2432V8.18906Z" fill="white"/>
<path d="M90.1612 8.18912H87.3496V11.0007H90.1612V8.18912Z" fill="white"/>
<path d="M30.1085 10.9186H27.2969V13.7302H30.1085V10.9186Z" fill="white"/>
<path d="M35.5675 10.9186H32.7559V13.7302H35.5675V10.9186Z" fill="white"/>
<path d="M38.2979 10.9186H35.4863V13.7302H38.2979V10.9186Z" fill="white"/>
<path d="M41.0264 10.9186H38.2148V13.7302H41.0264V10.9186Z" fill="white"/>
<path d="M43.7569 10.9186H40.9453V13.7302H43.7569V10.9186Z" fill="white"/>
<path d="M46.4854 10.9186H43.6738V13.7302H46.4854V10.9186Z" fill="white"/>
<path d="M49.2179 10.9186H46.4062V13.7302H49.2179V10.9186Z" fill="white"/>
<path d="M51.9444 10.9186H49.1328V13.7302H51.9444V10.9186Z" fill="white"/>
<path d="M57.4054 10.9186H54.5938V13.7302H57.4054V10.9186Z" fill="white"/>
<path d="M60.1358 10.9186H57.3242V13.7302H60.1358V10.9186Z" fill="white"/>
<path d="M62.8663 10.9186H60.0547V13.7302H62.8663V10.9186Z" fill="white"/>
<path d="M65.5948 10.9186H62.7832V13.7302H65.5948V10.9186Z" fill="white"/>
<path d="M84.7022 10.9186H81.8906V13.7302H84.7022V10.9186Z" fill="white"/>
<path d="M87.4327 10.9186H84.6211V13.7302H87.4327V10.9186Z" fill="white"/>
<path d="M90.1612 10.9186H87.3496V13.7302H90.1612V10.9186Z" fill="white"/>
<path d="M24.6495 13.6481H21.8379V16.4597H24.6495V13.6481Z" fill="white"/>
<path d="M30.1085 13.6481H27.2969V16.4597H30.1085V13.6481Z" fill="white"/>
<path d="M32.837 13.6481H30.0254V16.4597H32.837V13.6481Z" fill="white"/>
<path d="M35.5675 13.6481H32.7559V16.4597H35.5675V13.6481Z" fill="white"/>
<path d="M38.2979 13.6481H35.4863V16.4597H38.2979V13.6481Z" fill="white"/>
<path d="M46.4854 13.6481H43.6738V16.4597H46.4854V13.6481Z" fill="white"/>
<path d="M49.2179 13.6481H46.4062V16.4597H49.2179V13.6481Z" fill="white"/>
<path d="M54.6768 13.6481H51.8652V16.4597H54.6768V13.6481Z" fill="white"/>
<path d="M71.0538 13.6481H68.2422V16.4597H71.0538V13.6481Z" fill="white"/>
<path d="M76.5128 13.6481H73.7012V16.4597H76.5128V13.6481Z" fill="white"/>
<path d="M81.9718 13.6481H79.1602V16.4597H81.9718V13.6481Z" fill="white"/>
<path d="M84.7022 13.6481H81.8906V16.4597H84.7022V13.6481Z" fill="white"/>
<path d="M90.1612 13.6481H87.3496V16.4597H90.1612V13.6481Z" fill="white"/>
<path d="M24.6495 16.3777H21.8379V19.1892H24.6495V16.3777Z" fill="white"/>
<path d="M30.1085 16.3777H27.2969V19.1892H30.1085V16.3777Z" fill="white"/>
<path d="M35.5675 16.3777H32.7559V19.1892H35.5675V16.3777Z" fill="white"/>
<path d="M41.0264 16.3777H38.2148V19.1892H41.0264V16.3777Z" fill="white"/>
<path d="M46.4854 16.3777H43.6738V19.1892H46.4854V16.3777Z" fill="white"/>
<path d="M51.9444 16.3777H49.1328V19.1892H51.9444V16.3777Z" fill="white"/>
<path d="M57.4054 16.3777H54.5938V19.1892H57.4054V16.3777Z" fill="white"/>
<path d="M62.8663 16.3777H60.0547V19.1892H62.8663V16.3777Z" fill="white"/>
<path d="M68.3253 16.3777H65.5137V19.1892H68.3253V16.3777Z" fill="white"/>
<path d="M73.7843 16.3777H70.9727V19.1892H73.7843V16.3777Z" fill="white"/>
<path d="M79.2432 16.3777H76.4316V19.1892H79.2432V16.3777Z" fill="white"/>
<path d="M84.7022 16.3777H81.8906V19.1892H84.7022V16.3777Z" fill="white"/>
<path d="M90.1612 16.3777H87.3496V19.1892H90.1612V16.3777Z" fill="white"/>
<path d="M24.6495 19.1072H21.8379V21.9188H24.6495V19.1072Z" fill="white"/>
<path d="M27.378 19.1072H24.5664V21.9188H27.378V19.1072Z" fill="white"/>
<path d="M30.1085 19.1072H27.2969V21.9188H30.1085V19.1072Z" fill="white"/>
<path d="M32.837 19.1072H30.0254V21.9188H32.837V19.1072Z" fill="white"/>
<path d="M35.5675 19.1072H32.7559V21.9188H35.5675V19.1072Z" fill="white"/>
<path d="M49.2179 19.1072H46.4062V21.9188H49.2179V19.1072Z" fill="white"/>
<path d="M51.9444 19.1084H49.1328V21.92H51.9444V19.1084Z" fill="white"/>
<path d="M60.1358 19.1072H57.3242V21.9188H60.1358V19.1072Z" fill="white"/>
<path d="M62.8663 19.1072H60.0547V21.9188H62.8663V19.1072Z" fill="white"/>
<path d="M65.5948 19.1072H62.7832V21.9188H65.5948V19.1072Z" fill="white"/>
<path d="M84.7022 19.1072H81.8906V21.9188H84.7022V19.1072Z" fill="white"/>
<path d="M87.4327 19.1072H84.6211V21.9188H87.4327V19.1072Z" fill="white"/>
<path d="M8.27059 21.8379H5.45898V24.6495H8.27059V21.8379Z" fill="white"/>
<path d="M11.0011 21.838H8.18945V24.6495H11.0011V21.838Z" fill="white"/>
<path d="M13.7296 21.8379H10.918V24.6495H13.7296V21.8379Z" fill="white"/>
<path d="M19.1905 21.838H16.3789V24.6495H19.1905V21.838Z" fill="white"/>
<path d="M24.6495 21.838H21.8379V24.6495H24.6495V21.838Z" fill="white"/>
<path d="M35.5675 21.8379H32.7559V24.6495H35.5675V21.8379Z" fill="white"/>
<path d="M49.2179 21.8379H46.4062V24.6495H49.2179V21.8379Z" fill="white"/>
<path d="M51.9444 21.8391H49.1328V24.6507H51.9444V21.8391Z" fill="white"/>
<path d="M54.6768 21.8379H51.8652V24.6495H54.6768V21.8379Z" fill="white"/>
<path d="M65.5948 21.838H62.7832V24.6495H65.5948V21.838Z" fill="white"/>
<path d="M68.3253 21.8379H65.5137V24.6495H68.3253V21.8379Z" fill="white"/>
<path d="M73.7843 21.838H70.9727V24.6495H73.7843V21.838Z" fill="white"/>
<path d="M81.9718 21.838H79.1602V24.6495H81.9718V21.838Z" fill="white"/>
<path d="M90.1612 21.8379H87.3496V24.6495H90.1612V21.8379Z" fill="white"/>
<path d="M92.8917 21.8379H90.0801V24.6495H92.8917V21.8379Z" fill="white"/>
<path d="M95.6222 21.8379H92.8105V24.6495H95.6222V21.8379Z" fill="white"/>
<path d="M98.3507 21.8379H95.5391V24.6495H98.3507V21.8379Z" fill="white"/>
<path d="M106.54 21.8379H103.729V24.6495H106.54V21.8379Z" fill="white"/>
<path d="M109.271 21.838H106.459V24.6495H109.271V21.838Z" fill="white"/>
<path d="M112.001 21.838H109.189V24.6495H112.001V21.838Z" fill="white"/>
<path d="M5.54012 24.5668H2.72852V27.3784H5.54012V24.5668Z" fill="white"/>
<path d="M8.27059 24.5668H5.45898V27.3784H8.27059V24.5668Z" fill="white"/>
<path d="M13.7296 24.5668H10.918V27.3784H13.7296V24.5668Z" fill="white"/>
<path d="M21.919 24.5668H19.1074V27.3784H21.919V24.5668Z" fill="white"/>
<path d="M24.6495 24.5668H21.8379V27.3784H24.6495V24.5668Z" fill="white"/>
<path d="M27.378 24.5668H24.5664V27.3784H27.378V24.5668Z" fill="white"/>
<path d="M32.837 24.5668H30.0254V27.3784H32.837V24.5668Z" fill="white"/>
<path d="M35.5675 24.5668H32.7559V27.3784H35.5675V24.5668Z" fill="white"/>
<path d="M43.7569 24.5668H40.9453V27.3784H43.7569V24.5668Z" fill="white"/>
<path d="M46.4854 24.5668H43.6738V27.3784H46.4854V24.5668Z" fill="white"/>
<path d="M49.2179 24.5668H46.4062V27.3784H49.2179V24.5668Z" fill="white"/>
<path d="M51.9444 24.5674H49.1328V27.379H51.9444V24.5674Z" fill="white"/>
<path d="M68.3253 24.5668H65.5137V27.3784H68.3253V24.5668Z" fill="white"/>
<path d="M71.0538 24.5668H68.2422V27.3784H71.0538V24.5668Z" fill="white"/>
<path d="M73.7843 24.5668H70.9727V27.3784H73.7843V24.5668Z" fill="white"/>
<path d="M81.9718 24.5668H79.1602V27.3784H81.9718V24.5668Z" fill="white"/>
<path d="M87.4327 24.5668H84.6211V27.3784H87.4327V24.5668Z" fill="white"/>
<path d="M98.3507 24.5668H95.5391V27.3784H98.3507V24.5668Z" fill="white"/>
<path d="M101.081 24.5668H98.2695V27.3784H101.081V24.5668Z" fill="white"/>
<path d="M106.54 24.5668H103.729V27.3784H106.54V24.5668Z" fill="white"/>
<path d="M109.271 24.5668H106.459V27.3784H109.271V24.5668Z" fill="white"/>
<path d="M2.8116 27.2971H0V30.1087H2.8116V27.2971Z" fill="white"/>
<path d="M11.0011 27.297H8.18945V30.1086H11.0011V27.297Z" fill="white"/>
<path d="M13.7296 27.2969H10.918V30.1085H13.7296V27.2969Z" fill="white"/>
<path d="M16.46 27.297H13.6484V30.1086H16.46V27.297Z" fill="white"/>
<path d="M19.1905 27.297H16.3789V30.1086H19.1905V27.297Z" fill="white"/>
<path d="M21.919 27.297H19.1074V30.1086H21.919V27.297Z" fill="white"/>
<path d="M24.6495 27.297H21.8379V30.1086H24.6495V27.297Z" fill="white"/>
<path d="M27.378 27.297H24.5664V30.1086H27.378V27.297Z" fill="white"/>
<path d="M32.837 27.297H30.0254V30.1086H32.837V27.297Z" fill="white"/>
<path d="M38.2979 27.2969H35.4863V30.1085H38.2979V27.2969Z" fill="white"/>
<path d="M41.0264 27.2969H38.2148V30.1085H41.0264V27.2969Z" fill="white"/>
<path d="M43.7569 27.2969H40.9453V30.1085H43.7569V27.2969Z" fill="white"/>
<path d="M46.4854 27.2969H43.6738V30.1085H46.4854V27.2969Z" fill="white"/>
<path d="M60.1358 27.2969H57.3242V30.1085H60.1358V27.2969Z" fill="white"/>
<path d="M65.5948 27.297H62.7832V30.1086H65.5948V27.297Z" fill="white"/>
<path d="M71.0538 27.297H68.2422V30.1086H71.0538V27.297Z" fill="white"/>
<path d="M73.7843 27.297H70.9727V30.1086H73.7843V27.297Z" fill="white"/>
<path d="M76.5128 27.297H73.7012V30.1086H76.5128V27.297Z" fill="white"/>
<path d="M79.2432 27.297H76.4316V30.1086H79.2432V27.297Z" fill="white"/>
<path d="M81.9718 27.297H79.1602V30.1086H81.9718V27.297Z" fill="white"/>
<path d="M84.7022 27.2969H81.8906V30.1085H84.7022V27.2969Z" fill="white"/>
<path d="M87.4327 27.2969H84.6211V30.1085H87.4327V27.2969Z" fill="white"/>
<path d="M90.1612 27.2969H87.3496V30.1085H90.1612V27.2969Z" fill="white"/>
<path d="M109.271 27.297H106.459V30.1086H109.271V27.297Z" fill="white"/>
<path d="M11.0011 30.0258H8.18945V32.8374H11.0011V30.0258Z" fill="white"/>
<path d="M21.919 30.0258H19.1074V32.8374H21.919V30.0258Z" fill="white"/>
<path d="M32.837 30.0258H30.0254V32.8374H32.837V30.0258Z" fill="white"/>
<path d="M46.4854 30.0258H43.6738V32.8374H46.4854V30.0258Z" fill="white"/>
<path d="M51.9444 30.0265H49.1328V32.8381H51.9444V30.0265Z" fill="white"/>
<path d="M60.1358 30.0258H57.3242V32.8374H60.1358V30.0258Z" fill="white"/>
<path d="M65.5948 30.0258H62.7832V32.8374H65.5948V30.0258Z" fill="white"/>
<path d="M81.9718 30.0258H79.1602V32.8374H81.9718V30.0258Z" fill="white"/>
<path d="M84.7022 30.0258H81.8906V32.8374H84.7022V30.0258Z" fill="white"/>
<path d="M90.1612 30.0258H87.3496V32.8374H90.1612V30.0258Z" fill="white"/>
<path d="M95.6222 30.0258H92.8105V32.8374H95.6222V30.0258Z" fill="white"/>
<path d="M103.812 30.0258H101V32.8374H103.812V30.0258Z" fill="white"/>
<path d="M2.8116 32.7569H0V35.5685H2.8116V32.7569Z" fill="white"/>
<path d="M5.54012 32.7572H2.72852V35.5688H5.54012V32.7572Z" fill="white"/>
<path d="M8.27059 32.7572H5.45898V35.5688H8.27059V32.7572Z" fill="white"/>
<path d="M13.7296 32.7572H10.918V35.5688H13.7296V32.7572Z" fill="white"/>
<path d="M16.46 32.7572H13.6484V35.5688H16.46V32.7572Z" fill="white"/>
<path d="M19.1905 32.7572H16.3789V35.5688H19.1905V32.7572Z" fill="white"/>
<path d="M35.5675 32.7572H32.7559V35.5688H35.5675V32.7572Z" fill="white"/>
<path d="M38.2979 32.7572H35.4863V35.5688H38.2979V32.7572Z" fill="white"/>
<path d="M43.7569 32.7572H40.9453V35.5688H43.7569V32.7572Z" fill="white"/>
<path d="M46.4854 32.7572H43.6738V35.5688H46.4854V32.7572Z" fill="white"/>
<path d="M51.9444 32.7553H49.1328V35.5669H51.9444V32.7553Z" fill="white"/>
<path d="M54.6768 32.7572H51.8652V35.5688H54.6768V32.7572Z" fill="white"/>
<path d="M76.5128 32.7572H73.7012V35.5688H76.5128V32.7572Z" fill="white"/>
<path d="M81.9718 32.7572H79.1602V35.5688H81.9718V32.7572Z" fill="white"/>
<path d="M84.7022 32.7572H81.8906V35.5688H84.7022V32.7572Z" fill="white"/>
<path d="M92.8917 32.7572H90.0801V35.5688H92.8917V32.7572Z" fill="white"/>
<path d="M98.3507 32.7572H95.5391V35.5688H98.3507V32.7572Z" fill="white"/>
<path d="M103.812 32.7572H101V35.5688H103.812V32.7572Z" fill="white"/>
<path d="M106.54 32.7572H103.729V35.5688H106.54V32.7572Z" fill="white"/>
<path d="M109.271 32.7572H106.459V35.5688H109.271V32.7572Z" fill="white"/>
<path d="M112.001 32.7572H109.189V35.5688H112.001V32.7572Z" fill="white"/>
<path d="M2.8116 35.4864H0V38.298H2.8116V35.4864Z" fill="white"/>
<path d="M21.919 35.4861H19.1074V38.2977H21.919V35.4861Z" fill="white"/>
<path d="M24.6495 35.4861H21.8379V38.2977H24.6495V35.4861Z" fill="white"/>
<path d="M27.378 35.4861H24.5664V38.2977H27.378V35.4861Z" fill="white"/>
<path d="M30.1085 35.4861H27.2969V38.2977H30.1085V35.4861Z" fill="white"/>
<path d="M35.5675 35.4861H32.7559V38.2977H35.5675V35.4861Z" fill="white"/>
<path d="M43.7569 35.4861H40.9453V38.2977H43.7569V35.4861Z" fill="white"/>
<path d="M51.9444 35.4861H49.1328V38.2977H51.9444V35.4861Z" fill="white"/>
<path d="M54.6768 35.4861H51.8652V38.2977H54.6768V35.4861Z" fill="white"/>
<path d="M57.4054 35.4861H54.5938V38.2977H57.4054V35.4861Z" fill="white"/>
<path d="M60.1358 35.4861H57.3242V38.2977H60.1358V35.4861Z" fill="white"/>
<path d="M62.8663 35.4861H60.0547V38.2977H62.8663V35.4861Z" fill="white"/>
<path d="M71.0538 35.4861H68.2422V38.2977H71.0538V35.4861Z" fill="white"/>
<path d="M76.5128 35.4861H73.7012V38.2977H76.5128V35.4861Z" fill="white"/>
<path d="M81.9718 35.4861H79.1602V38.2977H81.9718V35.4861Z" fill="white"/>
<path d="M84.7022 35.4861H81.8906V38.2977H84.7022V35.4861Z" fill="white"/>
<path d="M87.4327 35.4861H84.6211V38.2977H87.4327V35.4861Z" fill="white"/>
<path d="M101.081 35.4849H98.2695V38.2965H101.081V35.4849Z" fill="white"/>
<path d="M106.54 35.4861H103.729V38.2977H106.54V35.4861Z" fill="white"/>
<path d="M112.001 35.4861H109.189V38.2977H112.001V35.4861Z" fill="white"/>
<path d="M2.8116 38.2159H0V41.0275H2.8116V38.2159Z" fill="white"/>
<path d="M5.54012 38.2156H2.72852V41.0272H5.54012V38.2156Z" fill="white"/>
<path d="M13.7296 38.2156H10.918V41.0272H13.7296V38.2156Z" fill="white"/>
<path d="M19.1905 38.2156H16.3789V41.0272H19.1905V38.2156Z" fill="white"/>
<path d="M24.6495 38.2156H21.8379V41.0272H24.6495V38.2156Z" fill="white"/>
<path d="M27.378 38.2156H24.5664V41.0272H27.378V38.2156Z" fill="white"/>
<path d="M30.1085 38.2156H27.2969V41.0272H30.1085V38.2156Z" fill="white"/>
<path d="M32.837 38.2156H30.0254V41.0272H32.837V38.2156Z" fill="white"/>
<path d="M38.2979 38.2156H35.4863V41.0272H38.2979V38.2156Z" fill="white"/>
<path d="M41.0264 38.2156H38.2148V41.0272H41.0264V38.2156Z" fill="white"/>
<path d="M43.7569 38.2156H40.9453V41.0272H43.7569V38.2156Z" fill="white"/>
<path d="M54.6768 38.2156H51.8652V41.0272H54.6768V38.2156Z" fill="white"/>
<path d="M57.4054 38.2156H54.5938V41.0272H57.4054V38.2156Z" fill="white"/>
<path d="M62.8663 38.2156H60.0547V41.0272H62.8663V38.2156Z" fill="white"/>
<path d="M76.5128 38.2156H73.7012V41.0272H76.5128V38.2156Z" fill="white"/>
<path d="M81.9718 38.2156H79.1602V41.0272H81.9718V38.2156Z" fill="white"/>
<path d="M84.7022 38.2156H81.8906V41.0272H84.7022V38.2156Z" fill="white"/>
<path d="M92.8917 38.2156H90.0801V41.0272H92.8917V38.2156Z" fill="white"/>
<path d="M98.3507 38.2156H95.5391V41.0272H98.3507V38.2156Z" fill="white"/>
<path d="M103.812 38.2156H101V41.0272H103.812V38.2156Z" fill="white"/>
<path d="M109.271 38.2156H106.459V41.0272H109.271V38.2156Z" fill="white"/>
<path d="M8.27059 40.9451H5.45898V43.7567H8.27059V40.9451Z" fill="white"/>
<path d="M13.7296 40.9451H10.918V43.7567H13.7296V40.9451Z" fill="white"/>
<path d="M27.378 40.9451H24.5664V43.7567H27.378V40.9451Z" fill="white"/>
<path d="M32.837 40.9451H30.0254V43.7567H32.837V40.9451Z" fill="white"/>
<path d="M43.7569 40.9451H40.9453V43.7567H43.7569V40.9451Z" fill="white"/>
<path d="M49.2179 40.9451H46.4062V43.7567H49.2179V40.9451Z" fill="white"/>
<path d="M54.6768 40.9451H51.8652V43.7567H54.6768V40.9451Z" fill="white"/>
<path d="M57.4054 40.9451H54.5938V43.7567H57.4054V40.9451Z" fill="white"/>
<path d="M62.8663 40.9451H60.0547V43.7567H62.8663V40.9451Z" fill="white"/>
<path d="M68.3253 40.9451H65.5137V43.7567H68.3253V40.9451Z" fill="white"/>
<path d="M73.7843 40.9451H70.9727V43.7567H73.7843V40.9451Z" fill="white"/>
<path d="M76.5128 40.9451H73.7012V43.7567H76.5128V40.9451Z" fill="white"/>
<path d="M84.7022 40.9451H81.8906V43.7567H84.7022V40.9451Z" fill="white"/>
<path d="M92.8917 40.9451H90.0801V43.7567H92.8917V40.9451Z" fill="white"/>
<path d="M106.54 40.9451H103.729V43.7567H106.54V40.9451Z" fill="white"/>
<path d="M112.001 40.9451H109.189V43.7567H112.001V40.9451Z" fill="white"/>
<path d="M5.54012 43.6746H2.72852V46.4862H5.54012V43.6746Z" fill="white"/>
<path d="M19.1905 43.6746H16.3789V46.4862H19.1905V43.6746Z" fill="white"/>
<path d="M24.6495 43.6746H21.8379V46.4862H24.6495V43.6746Z" fill="white"/>
<path d="M27.378 43.6746H24.5664V46.4862H27.378V43.6746Z" fill="white"/>
<path d="M30.1085 43.6746H27.2969V46.4862H30.1085V43.6746Z" fill="white"/>
<path d="M32.837 43.6746H30.0254V46.4862H32.837V43.6746Z" fill="white"/>
<path d="M35.5675 43.6746H32.7559V46.4862H35.5675V43.6746Z" fill="white"/>
<path d="M43.7569 43.6746H40.9453V46.4862H43.7569V43.6746Z" fill="white"/>
<path d="M49.2179 43.6746H46.4062V46.4862H49.2179V43.6746Z" fill="white"/>
<path d="M54.6768 43.6746H51.8652V46.4862H54.6768V43.6746Z" fill="white"/>
<path d="M57.4054 43.6746H54.5938V46.4862H57.4054V43.6746Z" fill="white"/>
<path d="M60.1358 43.6746H57.3242V46.4862H60.1358V43.6746Z" fill="white"/>
<path d="M62.8663 43.6746H60.0547V46.4862H62.8663V43.6746Z" fill="white"/>
<path d="M68.3253 43.6746H65.5137V46.4862H68.3253V43.6746Z" fill="white"/>
<path d="M73.7843 43.6746H70.9727V46.4862H73.7843V43.6746Z" fill="white"/>
<path d="M76.5128 43.6746H73.7012V46.4862H76.5128V43.6746Z" fill="white"/>
<path d="M81.9718 43.6746H79.1602V46.4862H81.9718V43.6746Z" fill="white"/>
<path d="M90.1612 43.6746H87.3496V46.4862H90.1612V43.6746Z" fill="white"/>
<path d="M106.54 43.6746H103.729V46.4862H106.54V43.6746Z" fill="white"/>
<path d="M109.271 43.6746H106.459V46.4862H109.271V43.6746Z" fill="white"/>
<path d="M2.8116 46.4035H0V49.2151H2.8116V46.4035Z" fill="white"/>
<path d="M11.0011 46.4035H8.18945V49.2151H11.0011V46.4035Z" fill="white"/>
<path d="M21.919 46.4035H19.1074V49.2151H21.919V46.4035Z" fill="white"/>
<path d="M24.6495 46.4035H21.8379V49.2151H24.6495V46.4035Z" fill="white"/>
<path d="M30.1085 46.4035H27.2969V49.2151H30.1085V46.4035Z" fill="white"/>
<path d="M32.837 46.4035H30.0254V49.2151H32.837V46.4035Z" fill="white"/>
<path d="M35.5675 46.4035H32.7559V49.2151H35.5675V46.4035Z" fill="white"/>
<path d="M38.2979 46.4035H35.4863V49.2151H38.2979V46.4035Z" fill="white"/>
<path d="M43.7569 46.4035H40.9453V49.2151H43.7569V46.4035Z" fill="white"/>
<path d="M49.2179 46.4035H46.4062V49.2151H49.2179V46.4035Z" fill="white"/>
<path d="M51.9444 46.4053H49.1328V49.2169H51.9444V46.4053Z" fill="white"/>
<path d="M57.4054 46.4035H54.5938V49.2151H57.4054V46.4035Z" fill="white"/>
<path d="M60.1358 46.4035H57.3242V49.2151H60.1358V46.4035Z" fill="white"/>
<path d="M68.3253 46.4035H65.5137V49.2151H68.3253V46.4035Z" fill="white"/>
<path d="M79.2432 46.4035H76.4316V49.2151H79.2432V46.4035Z" fill="white"/>
<path d="M84.7022 46.4035H81.8906V49.2151H84.7022V46.4035Z" fill="white"/>
<path d="M87.4327 46.4035H84.6211V49.2151H87.4327V46.4035Z" fill="white"/>
<path d="M92.8917 46.4035H90.0801V49.2151H92.8917V46.4035Z" fill="white"/>
<path d="M101.081 46.4035H98.2695V49.2151H101.081V46.4035Z" fill="white"/>
<path d="M109.271 46.4035H106.459V49.2151H109.271V46.4035Z" fill="white"/>
<path d="M5.54012 49.1342H2.72852V51.9458H5.54012V49.1342Z" fill="white"/>
<path d="M11.0011 49.1343H8.18945V51.9459H11.0011V49.1343Z" fill="white"/>
<path d="M19.1905 49.1343H16.3789V51.9459H19.1905V49.1343Z" fill="white"/>
<path d="M21.919 49.1343H19.1074V51.9459H21.919V49.1343Z" fill="white"/>
<path d="M24.6495 49.1343H21.8379V51.9459H24.6495V49.1343Z" fill="white"/>
<path d="M35.5675 49.1342H32.7559V51.9458H35.5675V49.1342Z" fill="white"/>
<path d="M38.2979 49.1342H35.4863V51.9458H38.2979V49.1342Z" fill="white"/>
<path d="M46.4854 49.1342H43.6738V51.9458H46.4854V49.1342Z" fill="white"/>
<path d="M49.2179 49.1342H46.4062V51.9458H49.2179V49.1342Z" fill="white"/>
<path d="M51.9444 49.1355H49.1328V51.9471H51.9444V49.1355Z" fill="white"/>
<path d="M57.4054 49.1342H54.5938V51.9458H57.4054V49.1342Z" fill="white"/>
<path d="M60.1358 49.1342H57.3242V51.9458H60.1358V49.1342Z" fill="white"/>
<path d="M62.8663 49.1343H60.0547V51.9459H62.8663V49.1343Z" fill="white"/>
<path d="M65.5948 49.1343H62.7832V51.9459H65.5948V49.1343Z" fill="white"/>
<path d="M73.7843 49.1343H70.9727V51.9459H73.7843V49.1343Z" fill="white"/>
<path d="M76.5128 49.1343H73.7012V51.9459H76.5128V49.1343Z" fill="white"/>
<path d="M79.2432 49.1343H76.4316V51.9459H79.2432V49.1343Z" fill="white"/>
<path d="M81.9718 49.1343H79.1602V51.9459H81.9718V49.1343Z" fill="white"/>
<path d="M84.7022 49.1342H81.8906V51.9458H84.7022V49.1342Z" fill="white"/>
<path d="M87.4327 49.1342H84.6211V51.9458H87.4327V49.1342Z" fill="white"/>
<path d="M90.1612 49.1342H87.3496V51.9458H90.1612V49.1342Z" fill="white"/>
<path d="M92.8917 49.1342H90.0801V51.9458H92.8917V49.1342Z" fill="white"/>
<path d="M95.6222 49.1342H92.8105V51.9458H95.6222V49.1342Z" fill="white"/>
<path d="M101.081 49.1343H98.2695V51.9459H101.081V49.1343Z" fill="white"/>
<path d="M106.54 49.1342H103.729V51.9458H106.54V49.1342Z" fill="white"/>
<path d="M112.001 49.1343H109.189V51.9459H112.001V49.1343Z" fill="white"/>
<path d="M5.54012 51.8638H2.72852V54.6754H5.54012V51.8638Z" fill="white"/>
<path d="M11.0011 51.8638H8.18945V54.6754H11.0011V51.8638Z" fill="white"/>
<path d="M13.7296 51.8638H10.918V54.6754H13.7296V51.8638Z" fill="white"/>
<path d="M21.919 51.8638H19.1074V54.6754H21.919V51.8638Z" fill="white"/>
<path d="M35.5675 51.8638H32.7559V54.6754H35.5675V51.8638Z" fill="white"/>
<path d="M38.2979 51.8638H35.4863V54.6754H38.2979V51.8638Z" fill="white"/>
<path d="M43.7569 51.8638H40.9453V54.6754H43.7569V51.8638Z" fill="white"/>
<path d="M54.6768 51.8638H51.8652V54.6754H54.6768V51.8638Z" fill="white"/>
<path d="M60.1358 51.8638H57.3242V54.6754H60.1358V51.8638Z" fill="white"/>
<path d="M65.5948 51.8638H62.7832V54.6754H65.5948V51.8638Z" fill="white"/>
<path d="M68.3253 51.8638H65.5137V54.6754H68.3253V51.8638Z" fill="white"/>
<path d="M73.7843 51.8638H70.9727V54.6754H73.7843V51.8638Z" fill="white"/>
<path d="M95.6222 51.8638H92.8105V54.6754H95.6222V51.8638Z" fill="white"/>
<path d="M101.081 51.8638H98.2695V54.6754H101.081V51.8638Z" fill="white"/>
<path d="M103.812 51.8638H101V54.6754H103.812V51.8638Z" fill="white"/>
<path d="M106.54 51.8638H103.729V54.6754H106.54V51.8638Z" fill="white"/>
<path d="M112.001 51.8638H109.189V54.6754H112.001V51.8638Z" fill="white"/>
<path d="M2.8116 54.5936H0V57.4052H2.8116V54.5936Z" fill="white"/>
<path d="M5.54012 54.5933H2.72852V57.4049H5.54012V54.5933Z" fill="white"/>
<path d="M16.46 54.5933H13.6484V57.4049H16.46V54.5933Z" fill="white"/>
<path d="M19.1905 54.5933H16.3789V57.4049H19.1905V54.5933Z" fill="white"/>
<path d="M21.919 54.5933H19.1074V57.4049H21.919V54.5933Z" fill="white"/>
<path d="M24.6495 54.5933H21.8379V57.4049H24.6495V54.5933Z" fill="white"/>
<path d="M32.837 54.5933H30.0254V57.4049H32.837V54.5933Z" fill="white"/>
<path d="M46.4854 54.5933H43.6738V57.4049H46.4854V54.5933Z" fill="white"/>
<path d="M57.4054 54.5933H54.5938V57.4049H57.4054V54.5933Z" fill="white"/>
<path d="M60.1358 54.5933H57.3242V57.4049H60.1358V54.5933Z" fill="white"/>
<path d="M71.0538 54.5933H68.2422V57.4049H71.0538V54.5933Z" fill="white"/>
<path d="M76.5128 54.5933H73.7012V57.4049H76.5128V54.5933Z" fill="white"/>
<path d="M81.9718 54.5933H79.1602V57.4049H81.9718V54.5933Z" fill="white"/>
<path d="M87.4327 54.5933H84.6211V57.4049H87.4327V54.5933Z" fill="white"/>
<path d="M101.081 54.5933H98.2695V57.4049H101.081V54.5933Z" fill="white"/>
<path d="M103.812 54.5933H101V57.4049H103.812V54.5933Z" fill="white"/>
<path d="M109.271 54.5933H106.459V57.4049H109.271V54.5933Z" fill="white"/>
<path d="M112.001 54.5933H109.189V57.4049H112.001V54.5933Z" fill="white"/>
<path d="M5.54012 57.3228H2.72852V60.1344H5.54012V57.3228Z" fill="white"/>
<path d="M13.7296 57.3228H10.918V60.1344H13.7296V57.3228Z" fill="white"/>
<path d="M16.46 57.3228H13.6484V60.1343H16.46V57.3228Z" fill="white"/>
<path d="M21.919 57.3228H19.1074V60.1343H21.919V57.3228Z" fill="white"/>
<path d="M24.6495 57.3228H21.8379V60.1343H24.6495V57.3228Z" fill="white"/>
<path d="M32.837 57.3228H30.0254V60.1343H32.837V57.3228Z" fill="white"/>
<path d="M43.7569 57.3228H40.9453V60.1344H43.7569V57.3228Z" fill="white"/>
<path d="M46.4854 57.3228H43.6738V60.1344H46.4854V57.3228Z" fill="white"/>
<path d="M51.9444 57.3228H49.1328V60.1344H51.9444V57.3228Z" fill="white"/>
<path d="M54.6768 57.3228H51.8652V60.1344H54.6768V57.3228Z" fill="white"/>
<path d="M68.3253 57.3228H65.5137V60.1343H68.3253V57.3228Z" fill="white"/>
<path d="M71.0538 57.3228H68.2422V60.1343H71.0538V57.3228Z" fill="white"/>
<path d="M73.7843 57.3228H70.9727V60.1343H73.7843V57.3228Z" fill="white"/>
<path d="M81.9718 57.3228H79.1602V60.1343H81.9718V57.3228Z" fill="white"/>
<path d="M90.1612 57.3228H87.3496V60.1344H90.1612V57.3228Z" fill="white"/>
<path d="M101.081 57.3228H98.2695V60.1343H101.081V57.3228Z" fill="white"/>
<path d="M109.271 57.3228H106.459V60.1343H109.271V57.3228Z" fill="white"/>
<path d="M112.001 57.3228H109.189V60.1343H112.001V57.3228Z" fill="white"/>
<path d="M5.54012 60.0523H2.72852V62.8639H5.54012V60.0523Z" fill="white"/>
<path d="M11.0011 60.0523H8.18945V62.8639H11.0011V60.0523Z" fill="white"/>
<path d="M16.46 60.0523H13.6484V62.8639H16.46V60.0523Z" fill="white"/>
<path d="M19.1905 60.0523H16.3789V62.8639H19.1905V60.0523Z" fill="white"/>
<path d="M30.1085 60.0523H27.2969V62.8639H30.1085V60.0523Z" fill="white"/>
<path d="M35.5675 60.0523H32.7559V62.8639H35.5675V60.0523Z" fill="white"/>
<path d="M38.2979 60.0523H35.4863V62.8639H38.2979V60.0523Z" fill="white"/>
<path d="M43.7569 60.0523H40.9453V62.8639H43.7569V60.0523Z" fill="white"/>
<path d="M51.9444 60.0541H49.1328V62.8657H51.9444V60.0541Z" fill="white"/>
<path d="M57.4054 60.0523H54.5938V62.8639H57.4054V60.0523Z" fill="white"/>
<path d="M60.1358 60.0523H57.3242V62.8639H60.1358V60.0523Z" fill="white"/>
<path d="M62.8663 60.0523H60.0547V62.8639H62.8663V60.0523Z" fill="white"/>
<path d="M79.2432 60.0523H76.4316V62.8639H79.2432V60.0523Z" fill="white"/>
<path d="M87.4327 60.0523H84.6211V62.8639H87.4327V60.0523Z" fill="white"/>
<path d="M92.8917 60.0523H90.0801V62.8639H92.8917V60.0523Z" fill="white"/>
<path d="M101.081 60.0523H98.2695V62.8639H101.081V60.0523Z" fill="white"/>
<path d="M103.812 60.0523H101V62.8639H103.812V60.0523Z" fill="white"/>
<path d="M2.8116 62.7827H0V65.5943H2.8116V62.7827Z" fill="white"/>
<path d="M5.54012 62.7831H2.72852V65.5946H5.54012V62.7831Z" fill="white"/>
<path d="M11.0011 62.783H8.18945V65.5946H11.0011V62.783Z" fill="white"/>
<path d="M13.7296 62.7831H10.918V65.5946H13.7296V62.7831Z" fill="white"/>
<path d="M16.46 62.783H13.6484V65.5946H16.46V62.783Z" fill="white"/>
<path d="M24.6495 62.783H21.8379V65.5946H24.6495V62.783Z" fill="white"/>
<path d="M32.837 62.783H30.0254V65.5946H32.837V62.783Z" fill="white"/>
<path d="M41.0264 62.7831H38.2148V65.5946H41.0264V62.7831Z" fill="white"/>
<path d="M54.6768 62.7831H51.8652V65.5946H54.6768V62.7831Z" fill="white"/>
<path d="M60.1358 62.7831H57.3242V65.5946H60.1358V62.7831Z" fill="white"/>
<path d="M65.5948 62.783H62.7832V65.5946H65.5948V62.783Z" fill="white"/>
<path d="M71.0538 62.783H68.2422V65.5946H71.0538V62.783Z" fill="white"/>
<path d="M87.4327 62.7831H84.6211V65.5946H87.4327V62.7831Z" fill="white"/>
<path d="M95.6222 62.7831H92.8105V65.5946H95.6222V62.7831Z" fill="white"/>
<path d="M101.081 62.783H98.2695V65.5946H101.081V62.783Z" fill="white"/>
<path d="M103.812 62.783H101V65.5946H103.812V62.783Z" fill="white"/>
<path d="M106.54 62.7831H103.729V65.5946H106.54V62.7831Z" fill="white"/>
<path d="M109.271 62.783H106.459V65.5946H109.271V62.783Z" fill="white"/>
<path d="M2.8116 65.513H0V68.3246H2.8116V65.513Z" fill="white"/>
<path d="M5.54012 65.5132H2.72852V68.3247H5.54012V65.5132Z" fill="white"/>
<path d="M8.27059 65.5132H5.45898V68.3247H8.27059V65.5132Z" fill="white"/>
<path d="M11.0011 65.5132H8.18945V68.3248H11.0011V65.5132Z" fill="white"/>
<path d="M16.46 65.5132H13.6484V68.3248H16.46V65.5132Z" fill="white"/>
<path d="M19.1905 65.5132H16.3789V68.3248H19.1905V65.5132Z" fill="white"/>
<path d="M21.919 65.5132H19.1074V68.3248H21.919V65.5132Z" fill="white"/>
<path d="M24.6495 65.5132H21.8379V68.3248H24.6495V65.5132Z" fill="white"/>
<path d="M30.1085 65.5132H27.2969V68.3248H30.1085V65.5132Z" fill="white"/>
<path d="M35.5675 65.5132H32.7559V68.3247H35.5675V65.5132Z" fill="white"/>
<path d="M38.2979 65.5132H35.4863V68.3247H38.2979V65.5132Z" fill="white"/>
<path d="M41.0264 65.5132H38.2148V68.3247H41.0264V65.5132Z" fill="white"/>
<path d="M54.6768 65.5132H51.8652V68.3247H54.6768V65.5132Z" fill="white"/>
<path d="M57.4054 65.5132H54.5938V68.3247H57.4054V65.5132Z" fill="white"/>
<path d="M62.8663 65.5132H60.0547V68.3248H62.8663V65.5132Z" fill="white"/>
<path d="M65.5948 65.5132H62.7832V68.3248H65.5948V65.5132Z" fill="white"/>
<path d="M68.3253 65.5132H65.5137V68.3247H68.3253V65.5132Z" fill="white"/>
<path d="M73.7843 65.5132H70.9727V68.3248H73.7843V65.5132Z" fill="white"/>
<path d="M81.9718 65.5132H79.1602V68.3248H81.9718V65.5132Z" fill="white"/>
<path d="M84.7022 65.5132H81.8906V68.3247H84.7022V65.5132Z" fill="white"/>
<path d="M90.1612 65.5132H87.3496V68.3247H90.1612V65.5132Z" fill="white"/>
<path d="M92.8917 65.5132H90.0801V68.3247H92.8917V65.5132Z" fill="white"/>
<path d="M95.6222 65.5132H92.8105V68.3247H95.6222V65.5132Z" fill="white"/>
<path d="M98.3507 65.5132H95.5391V68.3247H98.3507V65.5132Z" fill="white"/>
<path d="M101.081 65.5132H98.2695V68.3248H101.081V65.5132Z" fill="white"/>
<path d="M103.812 65.5132H101V68.3248H103.812V65.5132Z" fill="white"/>
<path d="M106.54 65.5132H103.729V68.3247H106.54V65.5132Z" fill="white"/>
<path d="M2.8116 68.2425H0V71.0541H2.8116V68.2425Z" fill="white"/>
<path d="M5.54207 68.2427H2.73047V71.0543H5.54207V68.2427Z" fill="white"/>
<path d="M8.27059 68.2427H5.45898V71.0543H8.27059V68.2427Z" fill="white"/>
<path d="M11.0011 68.2427H8.18945V71.0543H11.0011V68.2427Z" fill="white"/>
<path d="M21.919 68.2427H19.1074V71.0543H21.919V68.2427Z" fill="white"/>
<path d="M24.6495 68.2427H21.8379V71.0543H24.6495V68.2427Z" fill="white"/>
<path d="M27.378 68.2427H24.5664V71.0543H27.378V68.2427Z" fill="white"/>
<path d="M38.2979 68.2427H35.4863V71.0543H38.2979V68.2427Z" fill="white"/>
<path d="M41.0264 68.2427H38.2148V71.0543H41.0264V68.2427Z" fill="white"/>
<path d="M51.9444 68.2415H49.1328V71.053H51.9444V68.2415Z" fill="white"/>
<path d="M60.1358 68.2427H57.3242V71.0543H60.1358V68.2427Z" fill="white"/>
<path d="M62.8663 68.2427H60.0547V71.0543H62.8663V68.2427Z" fill="white"/>
<path d="M65.5948 68.2427H62.7832V71.0543H65.5948V68.2427Z" fill="white"/>
<path d="M68.3253 68.2427H65.5137V71.0543H68.3253V68.2427Z" fill="white"/>
<path d="M76.5128 68.2427H73.7012V71.0543H76.5128V68.2427Z" fill="white"/>
<path d="M87.4327 68.2427H84.6211V71.0543H87.4327V68.2427Z" fill="white"/>
<path d="M90.1612 68.2427H87.3496V71.0543H90.1612V68.2427Z" fill="white"/>
<path d="M103.812 68.2427H101V71.0543H103.812V68.2427Z" fill="white"/>
<path d="M109.271 68.2427H106.459V71.0543H109.271V68.2427Z" fill="white"/>
<path d="M5.54012 70.9728H2.72852V73.7844H5.54012V70.9728Z" fill="white"/>
<path d="M8.27059 70.9728H5.45898V73.7844H8.27059V70.9728Z" fill="white"/>
<path d="M11.0011 70.9728H8.18945V73.7844H11.0011V70.9728Z" fill="white"/>
<path d="M13.7296 70.9728H10.918V73.7844H13.7296V70.9728Z" fill="white"/>
<path d="M16.46 70.9728H13.6484V73.7844H16.46V70.9728Z" fill="white"/>
<path d="M19.1905 70.9728H16.3789V73.7844H19.1905V70.9728Z" fill="white"/>
<path d="M27.378 70.9728H24.5664V73.7844H27.378V70.9728Z" fill="white"/>
<path d="M30.1085 70.9728H27.2969V73.7844H30.1085V70.9728Z" fill="white"/>
<path d="M32.837 70.9728H30.0254V73.7844H32.837V70.9728Z" fill="white"/>
<path d="M35.5675 70.9728H32.7559V73.7844H35.5675V70.9728Z" fill="white"/>
<path d="M38.2979 70.9728H35.4863V73.7844H38.2979V70.9728Z" fill="white"/>
<path d="M43.7569 70.9728H40.9453V73.7844H43.7569V70.9728Z" fill="white"/>
<path d="M46.4854 70.9728H43.6738V73.7844H46.4854V70.9728Z" fill="white"/>
<path d="M49.2179 70.9728H46.4062V73.7844H49.2179V70.9728Z" fill="white"/>
<path d="M62.8663 70.9728H60.0547V73.7844H62.8663V70.9728Z" fill="white"/>
<path d="M65.5948 70.9728H62.7832V73.7844H65.5948V70.9728Z" fill="white"/>
<path d="M68.3253 70.9728H65.5137V73.7844H68.3253V70.9728Z" fill="white"/>
<path d="M73.7843 70.9728H70.9727V73.7844H73.7843V70.9728Z" fill="white"/>
<path d="M76.5128 70.9728H73.7012V73.7844H76.5128V70.9728Z" fill="white"/>
<path d="M79.2432 70.9728H76.4316V73.7844H79.2432V70.9728Z" fill="white"/>
<path d="M81.9718 70.9728H79.1602V73.7844H81.9718V70.9728Z" fill="white"/>
<path d="M84.7022 70.9728H81.8906V73.7844H84.7022V70.9728Z" fill="white"/>
<path d="M87.4327 70.9728H84.6211V73.7844H87.4327V70.9728Z" fill="white"/>
<path d="M90.1612 70.9728H87.3496V73.7844H90.1612V70.9728Z" fill="white"/>
<path d="M95.6222 70.9728H92.8105V73.7844H95.6222V70.9728Z" fill="white"/>
<path d="M112.001 70.9728H109.189V73.7844H112.001V70.9728Z" fill="white"/>
<path d="M5.54012 73.7005H2.72852V76.5121H5.54012V73.7005Z" fill="white"/>
<path d="M11.0011 73.7004H8.18945V76.512H11.0011V73.7004Z" fill="white"/>
<path d="M13.7296 73.7005H10.918V76.5121H13.7296V73.7005Z" fill="white"/>
<path d="M30.1085 73.7004H27.2969V76.512H30.1085V73.7004Z" fill="white"/>
<path d="M46.4854 73.7005H43.6738V76.5121H46.4854V73.7005Z" fill="white"/>
<path d="M51.9444 73.7005H49.1328V76.5121H51.9444V73.7005Z" fill="white"/>
<path d="M57.4054 73.7005H54.5938V76.5121H57.4054V73.7005Z" fill="white"/>
<path d="M76.5128 73.7004H73.7012V76.512H76.5128V73.7004Z" fill="white"/>
<path d="M81.9718 73.7004H79.1602V76.512H81.9718V73.7004Z" fill="white"/>
<path d="M84.7022 73.7005H81.8906V76.5121H84.7022V73.7005Z" fill="white"/>
<path d="M87.4327 73.7005H84.6211V76.5121H87.4327V73.7005Z" fill="white"/>
<path d="M90.1612 73.7005H87.3496V76.5121H90.1612V73.7005Z" fill="white"/>
<path d="M95.6222 73.7005H92.8105V76.5121H95.6222V73.7005Z" fill="white"/>
<path d="M101.081 73.7004H98.2695V76.512H101.081V73.7004Z" fill="white"/>
<path d="M103.812 73.7004H101V76.512H103.812V73.7004Z" fill="white"/>
<path d="M112.001 73.7004H109.189V76.512H112.001V73.7004Z" fill="white"/>
<path d="M11.0011 76.4312H8.18945V79.2428H11.0011V76.4312Z" fill="white"/>
<path d="M13.7296 76.4312H10.918V79.2428H13.7296V76.4312Z" fill="white"/>
<path d="M16.46 76.4312H13.6484V79.2428H16.46V76.4312Z" fill="white"/>
<path d="M19.1905 76.4312H16.3789V79.2428H19.1905V76.4312Z" fill="white"/>
<path d="M24.6495 76.4312H21.8379V79.2428H24.6495V76.4312Z" fill="white"/>
<path d="M27.378 76.4312H24.5664V79.2428H27.378V76.4312Z" fill="white"/>
<path d="M30.1085 76.4312H27.2969V79.2428H30.1085V76.4312Z" fill="white"/>
<path d="M38.2979 76.4312H35.4863V79.2428H38.2979V76.4312Z" fill="white"/>
<path d="M43.7569 76.4312H40.9453V79.2428H43.7569V76.4312Z" fill="white"/>
<path d="M49.2159 76.4312H46.4043V79.2428H49.2159V76.4312Z" fill="white"/>
<path d="M65.5948 76.4312H62.7832V79.2428H65.5948V76.4312Z" fill="white"/>
<path d="M68.3253 76.4312H65.5137V79.2428H68.3253V76.4312Z" fill="white"/>
<path d="M71.0538 76.4312H68.2422V79.2428H71.0538V76.4312Z" fill="white"/>
<path d="M73.7843 76.4312H70.9727V79.2428H73.7843V76.4312Z" fill="white"/>
<path d="M76.5128 76.4312H73.7012V79.2428H76.5128V76.4312Z" fill="white"/>
<path d="M103.812 76.4312H101V79.2428H103.812V76.4312Z" fill="white"/>
<path d="M106.54 76.4312H103.729V79.2428H106.54V76.4312Z" fill="white"/>
<path d="M109.271 76.4312H106.459V79.2428H109.271V76.4312Z" fill="white"/>
<path d="M112.001 76.4312H109.189V79.2428H112.001V76.4312Z" fill="white"/>
<path d="M2.8116 79.1612H0V81.9728H2.8116V79.1612Z" fill="white"/>
<path d="M8.27059 79.1613H5.45898V81.9729H8.27059V79.1613Z" fill="white"/>
<path d="M11.0011 79.1613H8.18945V81.9729H11.0011V79.1613Z" fill="white"/>
<path d="M16.46 79.1613H13.6484V81.9729H16.46V79.1613Z" fill="white"/>
<path d="M24.6495 79.1613H21.8379V81.9729H24.6495V79.1613Z" fill="white"/>
<path d="M43.7569 79.1613H40.9453V81.9729H43.7569V79.1613Z" fill="white"/>
<path d="M49.2179 79.1613H46.4062V81.9729H49.2179V79.1613Z" fill="white"/>
<path d="M54.6768 79.1613H51.8652V81.9729H54.6768V79.1613Z" fill="white"/>
<path d="M71.0538 79.1613H68.2422V81.9729H71.0538V79.1613Z" fill="white"/>
<path d="M84.7022 79.1613H81.8906V81.9729H84.7022V79.1613Z" fill="white"/>
<path d="M87.4327 79.1613H84.6211V81.9729H87.4327V79.1613Z" fill="white"/>
<path d="M92.8917 79.1613H90.0801V81.9729H92.8917V79.1613Z" fill="white"/>
<path d="M95.6222 79.1613H92.8105V81.9729H95.6222V79.1613Z" fill="white"/>
<path d="M98.3507 79.1613H95.5391V81.9729H98.3507V79.1613Z" fill="white"/>
<path d="M101.081 79.1613H98.2695V81.9729H101.081V79.1613Z" fill="white"/>
<path d="M112.001 79.1613H109.189V81.9729H112.001V79.1613Z" fill="white"/>
<path d="M2.8116 81.8922H0V84.7038H2.8116V81.8922Z" fill="white"/>
<path d="M8.27059 81.8921H5.45898V84.7037H8.27059V81.8921Z" fill="white"/>
<path d="M19.1905 81.8921H16.3789V84.7037H19.1905V81.8921Z" fill="white"/>
<path d="M24.6495 81.8921H21.8379V84.7037H24.6495V81.8921Z" fill="white"/>
<path d="M30.1085 81.8921H27.2969V84.7037H30.1085V81.8921Z" fill="white"/>
<path d="M49.2179 81.8921H46.4062V84.7037H49.2179V81.8921Z" fill="white"/>
<path d="M54.6768 81.8921H51.8652V84.7037H54.6768V81.8921Z" fill="white"/>
<path d="M57.4054 81.8921H54.5938V84.7037H57.4054V81.8921Z" fill="white"/>
<path d="M60.1358 81.8909H57.3242V84.7025H60.1358V81.8909Z" fill="white"/>
<path d="M62.8663 81.8921H60.0547V84.7037H62.8663V81.8921Z" fill="white"/>
<path d="M71.0538 81.8921H68.2422V84.7037H71.0538V81.8921Z" fill="white"/>
<path d="M79.2432 81.8909H76.4316V84.7025H79.2432V81.8909Z" fill="white"/>
<path d="M84.7022 81.8921H81.8906V84.7037H84.7022V81.8921Z" fill="white"/>
<path d="M87.4327 81.8921H84.6211V84.7037H87.4327V81.8921Z" fill="white"/>
<path d="M103.812 81.8909H101V84.7025H103.812V81.8909Z" fill="white"/>
<path d="M106.54 81.8909H103.729V84.7025H106.54V81.8909Z" fill="white"/>
<path d="M109.271 81.8909H106.459V84.7025H109.271V81.8909Z" fill="white"/>
<path d="M2.8116 84.621H0V87.4326H2.8116V84.621Z" fill="white"/>
<path d="M8.27059 84.621H5.45898V87.4326H8.27059V84.621Z" fill="white"/>
<path d="M11.0011 84.621H8.18945V87.4326H11.0011V84.621Z" fill="white"/>
<path d="M21.919 84.621H19.1074V87.4326H21.919V84.621Z" fill="white"/>
<path d="M30.1085 84.621H27.2969V87.4326H30.1085V84.621Z" fill="white"/>
<path d="M41.0264 84.621H38.2148V87.4326H41.0264V84.621Z" fill="white"/>
<path d="M51.9444 84.6216H49.1328V87.4332H51.9444V84.6216Z" fill="white"/>
<path d="M57.4054 84.621H54.5938V87.4326H57.4054V84.621Z" fill="white"/>
<path d="M62.8663 84.621H60.0547V87.4326H62.8663V84.621Z" fill="white"/>
<path d="M65.5948 84.621H62.7832V87.4326H65.5948V84.621Z" fill="white"/>
<path d="M71.0538 84.621H68.2422V87.4326H71.0538V84.621Z" fill="white"/>
<path d="M73.7843 84.621H70.9727V87.4326H73.7843V84.621Z" fill="white"/>
<path d="M76.5128 84.621H73.7012V87.4326H76.5128V84.621Z" fill="white"/>
<path d="M81.9718 84.621H79.1602V87.4326H81.9718V84.621Z" fill="white"/>
<path d="M87.4327 84.621H84.6211V87.4326H87.4327V84.621Z" fill="white"/>
<path d="M95.6222 84.621H92.8105V87.4326H95.6222V84.621Z" fill="white"/>
<path d="M101.081 84.621H98.2695V87.4326H101.081V84.621Z" fill="white"/>
<path d="M106.54 84.621H103.729V87.4326H106.54V84.621Z" fill="white"/>
<path d="M112.001 84.621H109.189V87.4326H112.001V84.621Z" fill="white"/>
<path d="M2.8116 87.3505H0V90.1621H2.8116V87.3505Z" fill="white"/>
<path d="M8.27059 87.3505H5.45898V90.1621H8.27059V87.3505Z" fill="white"/>
<path d="M13.7296 87.3505H10.918V90.1621H13.7296V87.3505Z" fill="white"/>
<path d="M16.46 87.3505H13.6484V90.1621H16.46V87.3505Z" fill="white"/>
<path d="M19.1905 87.3505H16.3789V90.1621H19.1905V87.3505Z" fill="white"/>
<path d="M21.919 87.3505H19.1074V90.1621H21.919V87.3505Z" fill="white"/>
<path d="M24.6495 87.3505H21.8379V90.1621H24.6495V87.3505Z" fill="white"/>
<path d="M32.837 87.3505H30.0254V90.1621H32.837V87.3505Z" fill="white"/>
<path d="M35.5675 87.3505H32.7559V90.1621H35.5675V87.3505Z" fill="white"/>
<path d="M41.0264 87.3505H38.2148V90.1621H41.0264V87.3505Z" fill="white"/>
<path d="M43.7569 87.3505H40.9453V90.1621H43.7569V87.3505Z" fill="white"/>
<path d="M49.2179 87.3505H46.4062V90.1621H49.2179V87.3505Z" fill="white"/>
<path d="M51.9444 87.3505H49.1328V90.1621H51.9444V87.3505Z" fill="white"/>
<path d="M57.4054 87.3505H54.5938V90.1621H57.4054V87.3505Z" fill="white"/>
<path d="M60.1358 87.3505H57.3242V90.1621H60.1358V87.3505Z" fill="white"/>
<path d="M62.8663 87.3505H60.0547V90.1621H62.8663V87.3505Z" fill="white"/>
<path d="M73.7843 87.3505H70.9727V90.1621H73.7843V87.3505Z" fill="white"/>
<path d="M76.5128 87.3505H73.7012V90.1621H76.5128V87.3505Z" fill="white"/>
<path d="M90.1612 87.3505H87.3496V90.1621H90.1612V87.3505Z" fill="white"/>
<path d="M92.8917 87.3505H90.0801V90.1621H92.8917V87.3505Z" fill="white"/>
<path d="M95.6222 87.3505H92.8105V90.1621H95.6222V87.3505Z" fill="white"/>
<path d="M98.3507 87.3505H95.5391V90.1621H98.3507V87.3505Z" fill="white"/>
<path d="M101.081 87.3505H98.2695V90.1621H101.081V87.3505Z" fill="white"/>
<path d="M103.812 87.3505H101V90.1621H103.812V87.3505Z" fill="white"/>
<path d="M106.54 87.3505H103.729V90.1621H106.54V87.3505Z" fill="white"/>
<path d="M109.271 87.3505H106.459V90.1621H109.271V87.3505Z" fill="white"/>
<path d="M24.6495 90.08H21.8379V92.8915H24.6495V90.08Z" fill="white"/>
<path d="M27.378 90.08H24.5664V92.8915H27.378V90.08Z" fill="white"/>
<path d="M43.7569 90.08H40.9453V92.8916H43.7569V90.08Z" fill="white"/>
<path d="M49.2159 90.08H46.4043V92.8916H49.2159V90.08Z" fill="white"/>
<path d="M57.4054 90.08H54.5938V92.8916H57.4054V90.08Z" fill="white"/>
<path d="M62.8643 90.08H60.0527V92.8916H62.8643V90.08Z" fill="white"/>
<path d="M68.3253 90.08H65.5137V92.8915H68.3253V90.08Z" fill="white"/>
<path d="M79.2432 90.08H76.4316V92.8915H79.2432V90.08Z" fill="white"/>
<path d="M84.7022 90.08H81.8906V92.8916H84.7022V90.08Z" fill="white"/>
<path d="M87.4327 90.08H84.6211V92.8916H87.4327V90.08Z" fill="white"/>
<path d="M90.1612 90.08H87.3496V92.8916H90.1612V90.08Z" fill="white"/>
<path d="M101.081 90.08H98.2695V92.8915H101.081V90.08Z" fill="white"/>
<path d="M112.001 90.08H109.189V92.8915H112.001V90.08Z" fill="white"/>
<path d="M27.378 92.8095H24.5664V95.6211H27.378V92.8095Z" fill="white"/>
<path d="M30.1085 92.8095H27.2969V95.6211H30.1085V92.8095Z" fill="white"/>
<path d="M32.837 92.8095H30.0254V95.6211H32.837V92.8095Z" fill="white"/>
<path d="M35.5675 92.8095H32.7559V95.6211H35.5675V92.8095Z" fill="white"/>
<path d="M38.2979 92.8095H35.4863V95.6211H38.2979V92.8095Z" fill="white"/>
<path d="M41.0264 92.8095H38.2148V95.6211H41.0264V92.8095Z" fill="white"/>
<path d="M54.6768 92.8095H51.8652V95.6211H54.6768V92.8095Z" fill="white"/>
<path d="M57.4054 92.8095H54.5938V95.6211H57.4054V92.8095Z" fill="white"/>
<path d="M60.1358 92.8095H57.3242V95.6211H60.1358V92.8095Z" fill="white"/>
<path d="M68.3253 92.8095H65.5137V95.6211H68.3253V92.8095Z" fill="white"/>
<path d="M73.7843 92.8095H70.9727V95.6211H73.7843V92.8095Z" fill="white"/>
<path d="M76.5128 92.8095H73.7012V95.6211H76.5128V92.8095Z" fill="white"/>
<path d="M79.2432 92.8095H76.4316V95.6211H79.2432V92.8095Z" fill="white"/>
<path d="M81.9718 92.8095H79.1602V95.6211H81.9718V92.8095Z" fill="white"/>
<path d="M84.7022 92.8095H81.8906V95.6211H84.7022V92.8095Z" fill="white"/>
<path d="M87.4327 92.8095H84.6211V95.6211H87.4327V92.8095Z" fill="white"/>
<path d="M90.1612 92.8095H87.3496V95.6211H90.1612V92.8095Z" fill="white"/>
<path d="M95.6222 92.8095H92.8105V95.6211H95.6222V92.8095Z" fill="white"/>
<path d="M101.081 92.8095H98.2695V95.6211H101.081V92.8095Z" fill="white"/>
<path d="M103.812 92.8095H101V95.6211H103.812V92.8095Z" fill="white"/>
<path d="M106.54 92.8095H103.729V95.6211H106.54V92.8095Z" fill="white"/>
<path d="M109.271 92.8095H106.459V95.6211H109.271V92.8095Z" fill="white"/>
<path d="M30.1085 95.539H27.2969V98.3506H30.1085V95.539Z" fill="white"/>
<path d="M35.5675 95.539H32.7559V98.3506H35.5675V95.539Z" fill="white"/>
<path d="M38.2979 95.539H35.4863V98.3506H38.2979V95.539Z" fill="white"/>
<path d="M43.7569 95.539H40.9453V98.3506H43.7569V95.539Z" fill="white"/>
<path d="M54.6768 95.539H51.8652V98.3506H54.6768V95.539Z" fill="white"/>
<path d="M65.5948 95.539H62.7832V98.3506H65.5948V95.539Z" fill="white"/>
<path d="M71.0538 95.539H68.2422V98.3506H71.0538V95.539Z" fill="white"/>
<path d="M73.7843 95.539H70.9727V98.3506H73.7843V95.539Z" fill="white"/>
<path d="M81.9718 95.539H79.1602V98.3506H81.9718V95.539Z" fill="white"/>
<path d="M84.7022 95.539H81.8906V98.3506H84.7022V95.539Z" fill="white"/>
<path d="M87.4327 95.539H84.6211V98.3506H87.4327V95.539Z" fill="white"/>
<path d="M90.1612 95.539H87.3496V98.3506H90.1612V95.539Z" fill="white"/>
<path d="M101.081 95.539H98.2695V98.3506H101.081V95.539Z" fill="white"/>
<path d="M106.54 95.539H103.729V98.3506H106.54V95.539Z" fill="white"/>
<path d="M109.271 95.539H106.459V98.3506H109.271V95.539Z" fill="white"/>
<path d="M112.001 95.539H109.189V98.3506H112.001V95.539Z" fill="white"/>
<path d="M24.6495 98.2686H21.8379V101.08H24.6495V98.2686Z" fill="white"/>
<path d="M27.378 98.2686H24.5664V101.08H27.378V98.2686Z" fill="white"/>
<path d="M30.1085 98.2686H27.2969V101.08H30.1085V98.2686Z" fill="white"/>
<path d="M35.5675 98.2686H32.7559V101.08H35.5675V98.2686Z" fill="white"/>
<path d="M51.9444 98.2686H49.1328V101.08H51.9444V98.2686Z" fill="white"/>
<path d="M60.1358 98.2686H57.3242V101.08H60.1358V98.2686Z" fill="white"/>
<path d="M62.8663 98.2686H60.0547V101.08H62.8663V98.2686Z" fill="white"/>
<path d="M76.5128 98.2686H73.7012V101.08H76.5128V98.2686Z" fill="white"/>
<path d="M79.2432 98.2686H76.4316V101.08H79.2432V98.2686Z" fill="white"/>
<path d="M84.7022 98.2686H81.8906V101.08H84.7022V98.2686Z" fill="white"/>
<path d="M90.1612 98.2686H87.3496V101.08H90.1612V98.2686Z" fill="white"/>
<path d="M92.8917 98.2686H90.0801V101.08H92.8917V98.2686Z" fill="white"/>
<path d="M95.6222 98.2686H92.8105V101.08H95.6222V98.2686Z" fill="white"/>
<path d="M98.3507 98.2686H95.5391V101.08H98.3507V98.2686Z" fill="white"/>
<path d="M101.081 98.2686H98.2695V101.08H101.081V98.2686Z" fill="white"/>
<path d="M103.812 98.2686H101V101.08H103.812V98.2686Z" fill="white"/>
<path d="M109.271 98.2686H106.459V101.08H109.271V98.2686Z" fill="white"/>
<path d="M24.6495 100.999H21.8379V103.81H24.6495V100.999Z" fill="white"/>
<path d="M30.1085 100.999H27.2969V103.81H30.1085V100.999Z" fill="white"/>
<path d="M49.2179 100.999H46.4062V103.81H49.2179V100.999Z" fill="white"/>
<path d="M51.9444 100.999H49.1328V103.811H51.9444V100.999Z" fill="white"/>
<path d="M76.5128 100.999H73.7012V103.81H76.5128V100.999Z" fill="white"/>
<path d="M79.2432 100.999H76.4316V103.81H79.2432V100.999Z" fill="white"/>
<path d="M90.1612 100.999H87.3496V103.81H90.1612V100.999Z" fill="white"/>
<path d="M95.6222 100.999H92.8105V103.81H95.6222V100.999Z" fill="white"/>
<path d="M98.3507 100.999H95.5391V103.81H98.3507V100.999Z" fill="white"/>
<path d="M109.271 100.999H106.459V103.81H109.271V100.999Z" fill="white"/>
<path d="M24.6495 103.726H21.8379V106.538H24.6495V103.726Z" fill="white"/>
<path d="M27.378 103.726H24.5664V106.538H27.378V103.726Z" fill="white"/>
<path d="M38.2979 103.726H35.4863V106.538H38.2979V103.726Z" fill="white"/>
<path d="M46.4854 103.726H43.6738V106.538H46.4854V103.726Z" fill="white"/>
<path d="M54.6768 103.726H51.8652V106.538H54.6768V103.726Z" fill="white"/>
<path d="M57.4054 103.726H54.5938V106.538H57.4054V103.726Z" fill="white"/>
<path d="M62.8643 103.726H60.0527V106.538H62.8643V103.726Z" fill="white"/>
<path d="M65.5948 103.726H62.7832V106.538H65.5948V103.726Z" fill="white"/>
<path d="M71.0538 103.726H68.2422V106.538H71.0538V103.726Z" fill="white"/>
<path d="M73.7843 103.726H70.9727V106.538H73.7843V103.726Z" fill="white"/>
<path d="M76.5128 103.726H73.7012V106.538H76.5128V103.726Z" fill="white"/>
<path d="M79.2432 103.726H76.4316V106.538H79.2432V103.726Z" fill="white"/>
<path d="M90.1612 103.726H87.3496V106.538H90.1612V103.726Z" fill="white"/>
<path d="M92.8917 103.726H90.0801V106.538H92.8917V103.726Z" fill="white"/>
<path d="M95.6222 103.726H92.8105V106.538H95.6222V103.726Z" fill="white"/>
<path d="M98.3507 103.726H95.5391V106.538H98.3507V103.726Z" fill="white"/>
<path d="M101.081 103.726H98.2695V106.538H101.081V103.726Z" fill="white"/>
<path d="M106.54 103.726H103.729V106.538H106.54V103.726Z" fill="white"/>
<path d="M109.271 103.726H106.459V106.538H109.271V103.726Z" fill="white"/>
<path d="M27.378 106.458H24.5664V109.269H27.378V106.458Z" fill="white"/>
<path d="M30.1085 106.458H27.2969V109.269H30.1085V106.458Z" fill="white"/>
<path d="M32.837 106.458H30.0254V109.269H32.837V106.458Z" fill="white"/>
<path d="M38.2979 106.458H35.4863V109.269H38.2979V106.458Z" fill="white"/>
<path d="M41.0264 106.458H38.2148V109.269H41.0264V106.458Z" fill="white"/>
<path d="M43.7569 106.458H40.9453V109.269H43.7569V106.458Z" fill="white"/>
<path d="M46.4854 106.458H43.6738V109.269H46.4854V106.458Z" fill="white"/>
<path d="M49.2159 106.458H46.4043V109.269H49.2159V106.458Z" fill="white"/>
<path d="M54.6768 106.458H51.8652V109.269H54.6768V106.458Z" fill="white"/>
<path d="M60.1358 106.458H57.3242V109.269H60.1358V106.458Z" fill="white"/>
<path d="M62.8643 106.458H60.0527V109.269H62.8643V106.458Z" fill="white"/>
<path d="M68.3253 106.458H65.5137V109.269H68.3253V106.458Z" fill="white"/>
<path d="M71.0538 106.458H68.2422V109.269H71.0538V106.458Z" fill="white"/>
<path d="M92.8917 106.458H90.0801V109.269H92.8917V106.458Z" fill="white"/>
<path d="M101.081 106.458H98.2695V109.269H101.081V106.458Z" fill="white"/>
<path d="M103.812 106.458H101V109.269H103.812V106.458Z" fill="white"/>
<path d="M109.271 106.458H106.459V109.269H109.271V106.458Z" fill="white"/>
<path d="M27.378 109.188H24.5664V112H27.378V109.188Z" fill="white"/>
<path d="M30.1085 109.188H27.2969V112H30.1085V109.188Z" fill="white"/>
<path d="M35.5675 109.188H32.7559V112H35.5675V109.188Z" fill="white"/>
<path d="M43.7569 109.188H40.9453V112H43.7569V109.188Z" fill="white"/>
<path d="M54.6768 109.188H51.8652V112H54.6768V109.188Z" fill="white"/>
<path d="M57.4054 109.188H54.5938V112H57.4054V109.188Z" fill="white"/>
<path d="M60.1358 109.188H57.3242V112H60.1358V109.188Z" fill="white"/>
<path d="M68.3253 109.188H65.5137V112H68.3253V109.188Z" fill="white"/>
<path d="M73.7843 109.188H70.9727V112H73.7843V109.188Z" fill="white"/>
<path d="M76.5128 109.188H73.7012V112H76.5128V109.188Z" fill="white"/>
<path d="M81.9718 109.188H79.1602V112H81.9718V109.188Z" fill="white"/>
<path d="M84.7022 109.188H81.8906V112H84.7022V109.188Z" fill="white"/>
<path d="M90.1612 109.188H87.3496V112H90.1612V109.188Z" fill="white"/>
<path d="M92.8917 109.188H90.0801V112H92.8917V109.188Z" fill="white"/>
<path d="M95.6222 109.188H92.8105V112H95.6222V109.188Z" fill="white"/>
<path d="M98.3507 109.188H95.5391V112H98.3507V109.188Z" fill="white"/>
<path d="M101.081 109.188H98.2695V112H101.081V109.188Z" fill="white"/>
<path d="M103.812 109.188H101V112H103.812V109.188Z" fill="white"/>
<path d="M0 -3.05176e-05V19.1079H19.108V-3.05176e-05H0ZM16.3783 16.3782H2.72971V2.72967H16.3783V16.3782Z" fill="white"/>
<path d="M92.8105 -3.05176e-05V19.1079H111.919V-3.05176e-05H92.8105ZM109.189 16.3782H95.5403V2.72967H109.189V16.3782Z" fill="white"/>
<path d="M0 92.8094V111.917H19.108V92.8094H0ZM16.3783 109.188H2.72971V95.5391H16.3783V109.188Z" fill="white"/>
<path d="M13.6481 5.45898H5.45898V13.6481H13.6481V5.45898Z" fill="white"/>
<path d="M106.459 5.45908H98.2695V13.6482H106.459V5.45908Z" fill="white"/>
<path d="M13.6481 98.2686H5.45898V106.458H13.6481V98.2686Z" fill="white"/>
</svg>
