<svg width="40" height="41" viewBox="0 0 40 41" fill="none" xmlns="http://www.w3.org/2000/svg">
<circle cx="20" cy="20.5" r="20" fill="black"/>
<path d="M23 18.9999H17.5V12.8999C17.5 12.7059 17.5002 12.5905 17.5026 12.5035C17.504 12.4483 17.5062 12.4243 17.5066 12.4185C17.5416 12.2071 17.7072 12.0414 17.9186 12.0066C17.9244 12.006 17.9484 12.0039 18.0036 12.0024C18.0906 12 18.206 11.9999 18.4 11.9999H23C24.933 11.9999 26.5 13.5669 26.5 15.4999C26.5 17.4329 24.933 18.9999 23 18.9999Z" fill="white"/>
<path fill-rule="evenodd" clip-rule="evenodd" d="M40 20.5C40 31.5456 31.0456 40.5 20 40.5C8.9543 40.5 0 31.5456 0 20.5C0 9.4543 8.9543 0.5 20 0.5C31.0456 0.5 40 9.4543 40 20.5ZM12.5 24.5C12.5 23.6716 13.1716 23 14 23H14.5V22H14C13.1716 22 12.5 21.3284 12.5 20.5C12.5 19.6716 13.1716 19 14 19H14.5L14.4999 12.823C14.4996 12.532 14.4992 12.2294 14.5431 11.9525C14.7803 10.4549 15.9549 9.2803 17.4524 9.0431C17.7294 8.99922 18.032 8.99958 18.323 8.99994L23 9C26.5898 9 29.5 11.9101 29.5 15.5C29.5 19.0898 26.5898 22 23 22H17.5V23H20C20.8284 23 21.5 23.6716 21.5 24.5C21.5 25.3284 20.8284 26 20 26H17.5V30.5C17.5 31.3284 16.8284 32 16 32C15.1716 32 14.5 31.3284 14.5 30.5V26H14C13.1716 26 12.5 25.3284 12.5 24.5Z" fill="white"/>
</svg>
