<svg width="40" height="41" viewBox="0 0 40 41" fill="none" xmlns="http://www.w3.org/2000/svg">
<path d="M39.5 20.5C39.5 31.5457 30.2696 40.5 19.5 40.5C8.73045 40.5 0 31.5457 0 20.5C0 9.4543 10.2304 1 21 1C31.1875 1 39 9.5 39.5 20.5Z" fill="white"/>
<path d="M35.3514 8.27051C36.2889 9.49885 37.0826 10.8333 37.7163 12.2472L19.7395 25.6772L12.2266 20.9042V15.1622L19.7395 19.9351L35.3514 8.27051Z" fill="#21A038"/>
<path d="M4.55927 20.4991C4.55927 20.2414 4.56547 19.9855 4.57787 19.731L0.0247965 19.5049C0.00929951 19.8347 5.50666e-06 20.1677 5.50666e-06 20.5037C-0.00193249 23.1295 0.50769 25.7298 1.49964 28.1554C2.49159 30.5811 3.94634 32.7844 5.78045 34.6389L9.01005 31.3674C7.59822 29.9424 6.47822 28.2486 5.7144 26.3834C4.95058 24.5182 4.55802 22.5185 4.55927 20.4991Z" fill="url(#paint0_linear_195_3336)"/>
<path d="M19.7345 5.12042C19.9886 5.12042 20.2412 5.12985 20.4922 5.14241L20.7201 0.526502C20.3937 0.510796 20.0651 0.502945 19.7345 0.502945C17.1424 0.499741 14.5753 1.01547 12.1804 2.02053C9.78563 3.02559 7.61026 4.50017 5.7793 6.35962L9.00891 9.63268C10.4151 8.20139 12.0866 7.0659 13.9273 6.29152C15.768 5.51715 17.7415 5.11915 19.7345 5.12042Z" fill="url(#paint1_linear_195_3336)"/>
<path d="M19.7351 35.8798C19.481 35.8798 19.2284 35.8798 18.9758 35.8594L18.748 40.4737C19.0755 40.4904 19.4046 40.4989 19.7351 40.4989C22.3262 40.5016 24.8921 39.9855 27.2856 38.9802C29.6792 37.9748 31.8531 36.5 33.6827 34.6406L30.4593 31.3691C29.0528 32.7997 27.3815 33.9345 25.5412 34.7086C23.7009 35.4827 21.7277 35.8808 19.7351 35.8798Z" fill="url(#paint2_linear_195_3336)"/>
<path d="M28.2912 7.80319L32.1283 4.93689C28.6212 2.05876 24.2433 0.492011 19.7305 0.500031V5.11908C22.7864 5.11524 25.7713 6.05117 28.2912 7.80319Z" fill="url(#paint3_linear_195_3336)"/>
<path d="M39.4712 20.5001C39.4737 19.2985 39.37 18.0989 39.1612 16.916L34.9135 20.0886C34.9135 20.2253 34.9135 20.3619 34.9135 20.5001C34.9146 22.6491 34.4701 24.7743 33.6089 26.738C32.7476 28.7017 31.4888 30.4601 29.9141 31.8992L32.9779 35.331C35.0252 33.4579 36.6611 31.1698 37.7797 28.6149C38.8984 26.0599 39.4747 23.2952 39.4712 20.5001Z" fill="#21A038"/>
<path d="M19.7356 35.8802C17.6149 35.8809 15.5178 35.4303 13.5799 34.5575C11.6421 33.6847 9.9067 32.4091 8.48613 30.8135L5.10156 33.9169C6.94953 35.9921 9.20724 37.6503 11.7283 38.7843C14.2493 39.9181 16.9773 40.5024 19.7356 40.4991V35.8802Z" fill="url(#paint4_linear_195_3336)"/>
<path d="M9.5587 9.09967L6.49642 5.66797C4.44858 7.54068 2.81201 9.82871 1.69285 12.3837C0.5737 14.9386 -0.00305086 17.7034 1.21364e-05 20.4988H4.55928C4.55834 18.35 5.0029 16.2247 5.86412 14.261C6.72535 12.2973 7.98405 10.5389 9.5587 9.09967Z" fill="url(#paint5_linear_195_3336)"/>
<defs>
<linearGradient id="paint0_linear_195_3336" x1="6.70253" y1="34.0625" x2="1.60155" y2="19.5125" gradientUnits="userSpaceOnUse">
<stop offset="0.14" stop-color="#F1E813"/>
<stop offset="0.3" stop-color="#E6E418"/>
<stop offset="0.58" stop-color="#C9DA26"/>
<stop offset="0.89" stop-color="#A2CC39"/>
</linearGradient>
<linearGradient id="paint1_linear_195_3336" x1="7.08106" y1="7.17631" x2="19.9542" y2="2.33568" gradientUnits="userSpaceOnUse">
<stop offset="0.06" stop-color="#0FA7DF"/>
<stop offset="0.54" stop-color="#0098F8"/>
<stop offset="0.92" stop-color="#0290EA"/>
</linearGradient>
<linearGradient id="paint2_linear_195_3336" x1="18.4474" y1="37.7111" x2="32.9744" y2="34.4728" gradientUnits="userSpaceOnUse">
<stop offset="0.12" stop-color="#A2CC39"/>
<stop offset="0.28" stop-color="#86C239"/>
<stop offset="0.87" stop-color="#219F38"/>
</linearGradient>
<linearGradient id="paint3_linear_195_3336" x1="18.7821" y1="2.04704" x2="31.2145" y2="5.8327" gradientUnits="userSpaceOnUse">
<stop offset="0.06" stop-color="#0290EA"/>
<stop offset="0.79" stop-color="#0C89CA"/>
</linearGradient>
<linearGradient id="paint4_linear_195_3336" x1="6.24525" y1="33.3546" x2="19.7902" y2="38.3497" gradientUnits="userSpaceOnUse">
<stop offset="0.13" stop-color="#F1E813"/>
<stop offset="0.3" stop-color="#EAE616"/>
<stop offset="0.53" stop-color="#D8DF1F"/>
<stop offset="0.8" stop-color="#BAD52D"/>
<stop offset="0.98" stop-color="#A2CC39"/>
</linearGradient>
<linearGradient id="paint5_linear_195_3336" x1="1.6985" y1="21.058" x2="7.24536" y2="6.82019" gradientUnits="userSpaceOnUse">
<stop offset="0.07" stop-color="#A2CC39"/>
<stop offset="0.26" stop-color="#81C45E"/>
<stop offset="0.92" stop-color="#0FA7DF"/>
</linearGradient>
</defs>
</svg>
