<svg width="145" height="145" viewBox="0 0 145 145" fill="none" xmlns="http://www.w3.org/2000/svg">
<path d="M72.5003 98.3297C70.8573 98.3297 69.298 97.6027 68.242 96.3435L38.6022 61.0036C36.6299 58.6516 36.9373 55.1464 39.2893 53.1738C41.6409 51.2015 45.1464 51.5089 47.119 53.8609L72.493 84.1149L134.928 9.40664C136.897 7.05191 140.401 6.73756 142.757 8.70602C145.112 10.6745 145.426 14.1793 143.457 16.5344L76.7651 96.3359C75.7102 97.5982 74.1506 98.328 72.5055 98.3297C72.5034 98.3297 72.502 98.3297 72.5003 98.3297Z" fill="url(#paint0_linear_193_15117)"/>
<path d="M72.5 144.5C32.6614 144.5 0.25 112.089 0.25 72.25C0.25 32.4114 32.6614 0 72.5 0C87.561 0 102 4.59691 114.255 13.2937C116.758 15.07 117.347 18.5394 115.571 21.0425C113.795 23.5455 110.326 24.135 107.822 22.3586C97.4575 15.0033 85.2431 11.1154 72.5 11.1154C38.7902 11.1154 11.3654 38.5402 11.3654 72.25C11.3654 105.96 38.7902 133.385 72.5 133.385C106.21 133.385 133.635 105.96 133.635 72.25C133.635 65.8218 132.642 59.4941 130.685 53.4421C129.74 50.5215 131.342 47.3884 134.262 46.4436C137.184 45.4998 140.316 47.1011 141.26 50.021C143.576 57.18 144.75 64.6589 144.75 72.25C144.75 112.089 112.339 144.5 72.5 144.5Z" fill="url(#paint1_linear_193_15117)"/>
<defs>
<linearGradient id="paint0_linear_193_15117" x1="91.0267" y1="7.41284" x2="91.0267" y2="98.3297" gradientUnits="userSpaceOnUse">
<stop stop-color="#5F976E"/>
<stop offset="1" stop-color="#FFF1B1"/>
</linearGradient>
<linearGradient id="paint1_linear_193_15117" x1="72.5" y1="0" x2="72.5" y2="144.5" gradientUnits="userSpaceOnUse">
<stop stop-color="#5F976E"/>
<stop offset="1" stop-color="#FFF1B1"/>
</linearGradient>
</defs>
</svg>
