<svg width="12" height="12" viewBox="0 0 12 12" fill="none" xmlns="http://www.w3.org/2000/svg">
<path d="M8.44438 3.59327C8.45011 3.59218 8.45592 3.59163 8.46175 3.59163C8.54502 3.59163 8.62231 3.61753 8.68566 3.66215L8.68446 3.66136C8.73068 3.70159 8.76175 3.75817 8.76932 3.82191C8.76932 3.82271 8.76939 3.8235 8.76952 3.82428C8.77736 3.87261 8.78167 3.92795 8.78167 3.98446C8.78167 4.01036 8.78088 4.03586 8.77889 4.06136V4.05777C8.68924 5.00159 8.3004 7.29044 8.10279 8.34701C8.01912 8.79442 7.85458 8.94422 7.69522 8.95857C7.349 8.99084 7.08606 8.72988 6.7506 8.50996C6.2255 8.16534 5.92869 7.951 5.41912 7.61514C4.82988 7.22749 5.21195 7.01355 5.54741 6.66534C5.63546 6.57371 7.16175 5.18526 7.19163 5.05936C7.19323 5.05179 7.19402 5.04343 7.19402 5.03466C7.19402 5.03113 7.19387 5.02763 7.19358 5.02417C7.18923 4.97278 7.14162 4.93267 7.09004 4.93267C7.07211 4.93267 7.05498 4.93626 7.03904 4.94223C7.03916 4.94217 7.03936 4.94195 7.03924 4.94198C6.98119 4.95779 6.14261 5.51206 4.52351 6.60478C4.34622 6.74462 4.12231 6.83307 3.87849 6.84343H3.8761C3.53068 6.80159 3.21713 6.7247 2.91952 6.61514L2.949 6.6247C2.5753 6.50279 2.27849 6.43865 2.30398 6.23227C2.31753 6.12497 2.46547 6.01514 2.74781 5.90279C4.48699 5.14502 5.64675 4.64555 6.22709 4.40438C6.86733 4.06454 7.60956 3.78486 8.39004 3.60359L8.44438 3.59327ZM5.98606 0C2.67849 0.00796813 0 2.69124 0 6C0 9.31355 2.68606 12 6 12C9.31394 12 12 9.31394 12 6C12 2.69124 9.32151 0.00796813 6.01474 0H6.01395C6.00465 0 5.99535 0 5.98606 0Z" fill="#A2A2A2" fill-opacity="0.5"/>
</svg>
