<svg width="26" height="26" viewBox="0 0 26 26" fill="none" xmlns="http://www.w3.org/2000/svg">
<path fill-rule="evenodd" clip-rule="evenodd" d="M13 25.5C19.9036 25.5 25.5 19.9036 25.5 13C25.5 6.09644 19.9036 0.5 13 0.5C6.09644 0.5 0.5 6.09644 0.5 13C0.5 19.9036 6.09644 25.5 13 25.5ZM9.19181 8.89844C9.19181 10.7724 10.7163 12.2969 12.5903 12.2969C14.4642 12.2969 15.9887 10.7724 15.9887 8.89844C15.9887 7.02452 14.4642 5.5 12.5903 5.5C10.7163 5.5 9.19181 7.02452 9.19181 8.89844ZM13.9082 14.7875C13.9082 14.0351 14.1194 13.3312 14.4856 12.7318C13.9139 13.0158 13.2704 13.1762 12.5898 13.1762C11.7072 13.1762 10.8862 12.9074 10.2042 12.4474C9.36101 12.7743 8.58745 13.2763 7.92877 13.9349C6.68371 15.18 5.99805 16.8353 5.99805 18.5961V20.0609C5.99805 20.3036 6.1948 20.5004 6.4375 20.5004H18.7422C18.9849 20.5004 19.1816 20.3036 19.1816 20.0609V18.5961C19.1816 18.5791 19.1813 18.5622 19.181 18.5452L19.1806 18.5167C18.7683 18.6628 18.325 18.7426 17.8633 18.7426C15.6825 18.7426 13.9082 16.9683 13.9082 14.7875ZM14.7879 14.7871C14.7879 13.0909 16.1679 11.7109 17.8641 11.7109C19.5603 11.7109 20.9403 13.0909 20.9403 14.7871C20.9403 16.4833 19.5603 17.8633 17.8641 17.8633C16.1679 17.8633 14.7879 16.4833 14.7879 14.7871ZM18.3035 15.2266H18.743C18.9857 15.2266 19.1825 15.0298 19.1825 14.7871C19.1825 14.5444 18.9857 14.3477 18.743 14.3477H18.3035V13.9082C18.3035 13.6655 18.1068 13.4688 17.8641 13.4688C17.6214 13.4688 17.4246 13.6655 17.4246 13.9082V14.3477H16.9852C16.7425 14.3477 16.5457 14.5444 16.5457 14.7871C16.5457 15.0298 16.7425 15.2266 16.9852 15.2266H17.4246V15.666C17.4246 15.9087 17.6214 16.1055 17.8641 16.1055C18.1068 16.1055 18.3035 15.9087 18.3035 15.666V15.2266Z" fill="url(#paint0_linear_143_16145)"/>
<defs>
<linearGradient id="paint0_linear_143_16145" x1="6.45588" y1="0.499997" x2="21.4222" y2="1.39201" gradientUnits="userSpaceOnUse">
<stop stop-color="#DDC081"/>
<stop offset="1" stop-color="#5F976E"/>
</linearGradient>
</defs>
</svg>
