<svg width="28" height="26" viewBox="0 0 28 26" fill="none" xmlns="http://www.w3.org/2000/svg">
<path d="M14 25.5C21.2487 25.5 27.125 19.9036 27.125 13C27.125 6.09644 21.2487 0.5 14 0.5C6.75126 0.5 0.875 6.09644 0.875 13C0.875 19.9036 6.75126 25.5 14 25.5Z" fill="#26A17B"/>
<ellipse cx="13.9432" cy="13" rx="13.0682" ry="12.5" fill="#59B59F"/>
<path fill-rule="evenodd" clip-rule="evenodd" d="M15.5766 14.0805V14.0789C15.4864 14.0851 15.0213 14.1117 13.9836 14.1117C13.1551 14.1117 12.5718 14.0883 12.3668 14.0789V14.0812C9.17738 13.9476 6.79684 13.4187 6.79684 12.7859C6.79684 12.1539 9.17738 11.625 12.3668 11.4891V13.5547C12.5751 13.5687 13.1723 13.6023 13.9975 13.6023C14.9877 13.6023 15.4839 13.5633 15.5766 13.5555V11.4906C18.7595 11.6258 21.1343 12.1547 21.1343 12.7859C21.1343 13.4187 18.7595 13.9461 15.5766 14.0805ZM15.5766 11.2758V9.42733H20.0178V6.60858H7.92559V9.42733H12.3668V11.275C8.75738 11.4328 6.04297 12.1141 6.04297 12.9297C6.04297 13.7453 8.75738 14.4258 12.3668 14.5844V20.5078H15.5766V14.5828C19.1803 14.425 21.8881 13.7445 21.8881 12.9297C21.8881 12.1148 19.1803 11.4344 15.5766 11.2758Z" fill="white"/>
</svg>
