<svg width="14" height="15" viewBox="0 0 14 15" fill="none" xmlns="http://www.w3.org/2000/svg">
<path d="M8.92563 1.89489C8.66626 1.80012 8.37917 1.93355 8.2844 2.19292C8.18962 2.45229 8.32305 2.73938 8.58242 2.83415L8.92563 1.89489ZM5.31202 13.8386L5.42725 13.352L5.31202 13.8386ZM1.68357 11.2997L2.10117 11.0247L1.68357 11.2997ZM0.785068 6.9633L1.27755 7.0497L0.785068 6.9633ZM7.38198 2.03956L1.80313 0.553061L3.3052 6.12774L7.38198 2.03956ZM8.58242 2.83415C9.89987 3.31554 10.9836 4.28212 11.612 5.53614L12.506 5.08815C11.7634 3.60612 10.4826 2.46381 8.92563 1.89489L8.58242 2.83415ZM11.612 5.53614C12.2404 6.79016 12.3659 8.2369 11.9629 9.5804L12.9207 9.86773C13.397 8.27995 13.2487 6.57018 12.506 5.08815L11.612 5.53614ZM11.9629 9.5804C11.5598 10.9239 10.6587 12.0627 9.44385 12.7638L9.94368 13.6299C11.3794 12.8013 12.4444 11.4555 12.9207 9.86773L11.9629 9.5804ZM9.44385 12.7638C8.22898 13.4648 6.79214 13.6753 5.42725 13.352L5.19679 14.3251C6.80984 14.7071 8.50792 14.4584 9.94368 13.6299L9.44385 12.7638ZM5.42725 13.352C4.06236 13.0288 2.87253 12.1962 2.10117 11.0247L1.26596 11.5746C2.17758 12.9592 3.58373 13.9431 5.19679 14.3251L5.42725 13.352ZM2.10117 11.0247C1.32981 9.85321 1.03517 8.43125 1.27755 7.0497L0.29259 6.8769C0.00614738 8.50964 0.35435 10.1901 1.26596 11.5746L2.10117 11.0247ZM1.27755 7.0497C1.51992 5.66815 2.28099 4.43139 3.40506 3.59241L2.80693 2.79102C1.47847 3.78253 0.579031 5.24416 0.29259 6.8769L1.27755 7.0497Z" fill="white"/>
</svg>
