<svg width="42" height="41" viewBox="0 0 42 41" fill="none" xmlns="http://www.w3.org/2000/svg">
<path d="M41.8182 20.5C41.8182 31.5457 32.4569 40.5 20.9091 40.5C9.36132 40.5 0 31.5457 0 20.5C0 9.4543 9.36132 0.5 20.9091 0.5C32.4569 0.5 41.8182 9.4543 41.8182 20.5Z" fill="white"/>
<path fill-rule="evenodd" clip-rule="evenodd" d="M42 20.5C42 31.5457 32.598 40.5 21 40.5C9.40202 40.5 0 31.5457 0 20.5C0 9.4543 9.40202 0.5 21 0.5C32.598 0.5 42 9.4543 42 20.5ZM23.5226 22.2262V22.2287C28.6151 22.0137 32.4148 21.17 32.4148 20.1575C32.4148 19.1475 28.6151 18.3012 23.5226 18.085V21.3888C23.3743 21.4012 22.5803 21.4637 20.9961 21.4637C19.6757 21.4637 18.7202 21.41 18.3868 21.3875V18.0825C13.2838 18.3 9.47494 19.1462 9.47494 20.1575C9.47494 21.17 13.2838 22.0163 18.3868 22.23V22.2262C18.7149 22.2412 19.6481 22.2787 20.9738 22.2787C22.6341 22.2787 23.3783 22.2362 23.5226 22.2262ZM23.5226 14.7837V17.7412C29.2884 17.995 33.621 19.0837 33.621 20.3875C33.621 21.6912 29.2884 22.78 23.5226 23.0325V32.5125H18.3868V23.035C12.6118 22.7812 8.26875 21.6925 8.26875 20.3875C8.26875 19.0825 12.6118 17.9925 18.3868 17.74V14.7837H11.2809V10.2737H30.6285V14.7837H23.5226Z" fill="#4EB098"/>
</svg>
