<svg width="16" height="16" viewBox="0 0 16 16" fill="none" xmlns="http://www.w3.org/2000/svg">
<ellipse cx="7.95028" cy="8.18872" rx="7.84091" ry="7.5" fill="white"/>
<path fill-rule="evenodd" clip-rule="evenodd" d="M15.8594 8.18872C15.8594 12.3309 12.3336 15.6887 7.98438 15.6887C3.63513 15.6887 0.109375 12.3309 0.109375 8.18872C0.109375 4.04658 3.63513 0.688721 7.98438 0.688721C12.3336 0.688721 15.8594 4.04658 15.8594 8.18872ZM8.93036 8.83606V8.837C10.84 8.75638 12.2649 8.43997 12.2649 8.06028C12.2649 7.68153 10.84 7.36419 8.93036 7.2831V8.522C8.87474 8.52669 8.57697 8.55013 7.9829 8.55013C7.48776 8.55013 7.12945 8.52997 7.00443 8.52153V7.28216C5.0908 7.36372 3.66248 7.68106 3.66248 8.06028C3.66248 8.43997 5.0908 8.75731 7.00443 8.83747V8.83606C7.12748 8.84169 7.47742 8.85575 7.97453 8.85575C8.59715 8.85575 8.87622 8.83982 8.93036 8.83606ZM8.93036 6.04513V7.15419C11.0925 7.24935 12.7172 7.65763 12.7172 8.14653C12.7172 8.63544 11.0925 9.04372 8.93036 9.13841V12.6934H7.00443V9.13935C4.8388 9.04419 3.21016 8.63591 3.21016 8.14653C3.21016 7.65716 4.8388 7.24841 7.00443 7.15372V6.04513H4.33973V4.35388H11.5951V6.04513H8.93036Z" fill="#4EB098"/>
</svg>
