<svg width="21" height="20" viewBox="0 0 21 20" fill="none" xmlns="http://www.w3.org/2000/svg">
<path fill-rule="evenodd" clip-rule="evenodd" d="M10.5 20C16.0228 20 20.5 15.5228 20.5 10C20.5 4.47715 16.0228 0 10.5 0C4.97715 0 0.5 4.47715 0.5 10C0.5 15.5228 4.97715 20 10.5 20ZM10.453 10.6769C12.2467 10.6769 13.5937 8.76322 13.5937 6.53337C13.5937 4.30283 12.4351 2.99982 10.453 2.99982C8.47095 2.99982 7.31241 4.30353 7.31241 6.53268C7.31241 8.76322 8.65799 10.6769 10.453 10.6769ZM10.453 16.9582C6.36673 16.9582 5.20959 15.9811 4.94089 15.6614C4.91578 15.6308 4.89719 15.5961 4.88627 15.5581C4.87535 15.52 4.87232 15.4801 4.87738 15.4409C4.93949 14.8253 5.49364 12.0727 10.453 12.0727C15.4124 12.0727 15.9666 14.8253 16.028 15.4409C16.0331 15.4801 16.0302 15.5199 16.0194 15.558C16.0086 15.596 15.9902 15.6315 15.9652 15.6621C15.6958 15.9811 14.5393 16.9582 10.453 16.9582Z" fill="#9C9C9C" fill-opacity="0.5"/>
</svg>
