<svg width="27" height="25" viewBox="0 0 27 25" fill="none" xmlns="http://www.w3.org/2000/svg">
<ellipse cx="13.5682" cy="12.5" rx="13.0682" ry="12.5" fill="white"/>
<path fill-rule="evenodd" clip-rule="evenodd" d="M26.75 12.5C26.75 19.4036 20.8737 25 13.625 25C6.37626 25 0.5 19.4036 0.5 12.5C0.5 5.59644 6.37626 0 13.625 0C20.8737 0 26.75 5.59644 26.75 12.5ZM15.2016 13.5789V13.5805C18.3845 13.4461 20.7593 12.9187 20.7593 12.2859C20.7593 11.6547 18.3845 11.1258 15.2016 10.9906V13.0555C15.1089 13.0633 14.6127 13.1023 13.6225 13.1023C12.7973 13.1023 12.2001 13.0687 11.9918 13.0547V10.9891C8.80238 11.125 6.42184 11.6539 6.42184 12.2859C6.42184 12.9187 8.80238 13.4477 11.9918 13.5813V13.5789C12.1968 13.5883 12.7801 13.6117 13.6086 13.6117C14.6463 13.6117 15.1114 13.5852 15.2016 13.5789ZM15.2016 8.92734V10.7758C18.8053 10.9344 21.5131 11.6148 21.5131 12.4297C21.5131 13.2445 18.8053 13.925 15.2016 14.0828V20.0078H11.9918V14.0844C8.38238 13.9258 5.66797 13.2453 5.66797 12.4297C5.66797 11.6141 8.38238 10.9328 11.9918 10.775V8.92734H7.55059V6.10859H19.6428V8.92734H15.2016Z" fill="#4EB098"/>
</svg>
