<svg width="25" height="26" viewBox="0 0 25 26" fill="none" xmlns="http://www.w3.org/2000/svg">
<mask id="path-1-inside-1_281_3291" fill="white">
<path d="M24.9994 13.1466C24.9994 13.4105 24.9994 13.6646 24.9994 13.9285C24.9408 14.3096 24.9603 14.6908 24.9212 15.0622C24.8333 15.844 24.6184 16.5868 24.3546 17.3198C23.8954 18.5903 23.2409 19.7533 22.391 20.8088C21.414 22.0305 20.2612 23.0567 18.913 23.8581C17.6723 24.5911 16.3437 25.1091 14.9271 25.3729C14.507 25.4511 14.0772 25.4511 13.6473 25.4805C13.5594 25.4902 13.4714 25.4511 13.3835 25.5C12.7778 25.5 12.1819 25.5 11.5762 25.5C11.1952 25.4511 10.8239 25.4511 10.4429 25.4218C9.6516 25.3436 8.89935 25.1091 8.15687 24.8452C7.05292 24.4445 6.02713 23.8874 5.0795 23.1935C4.13186 22.4898 3.29169 21.6689 2.54921 20.7404C2.00212 20.0563 1.54296 19.3233 1.17172 18.5414C0.566014 17.2709 0.0970803 15.9515 0.0580025 14.5149C0.048233 14.3389 0.0677719 14.163 0.00915527 13.9871C0.00915527 13.4203 0.00915527 12.8436 0.00915527 12.2768C0.0580025 12.1986 0.0384636 12.0618 0.175236 12.0715C0.292469 12.0715 0.331547 12.1693 0.370625 12.267C0.429241 12.3941 0.497627 12.5113 0.614861 12.5895C0.732094 12.6677 0.81025 12.785 0.859097 12.9218C0.97633 13.2443 1.14241 13.5473 1.38665 13.7916C1.6895 14.1044 1.65042 14.466 1.5918 14.8374C1.57227 14.9644 1.47457 15.1013 1.50388 15.2088C1.57227 15.502 1.59181 15.7854 1.45503 16.0688C1.41596 16.1568 1.49411 16.2545 1.55273 16.3327C1.89466 16.7236 2.11935 17.183 2.27567 17.6716C2.40267 18.0625 2.66644 18.3655 2.94976 18.6489C3.30146 19.0008 3.51639 19.421 3.62385 19.8999C3.85832 20.9359 4.34679 21.8448 5.06973 22.6267C5.35304 22.9296 5.67543 23.2131 5.93921 23.3988C5.67543 23.2424 5.41166 22.9785 5.31396 22.568C5.23581 22.2455 5.31396 22.0109 5.59728 21.835C5.60705 21.8253 5.63635 21.8253 5.63635 21.8155C5.71451 21.5321 6.04667 21.4343 6.10529 21.1314C6.14437 20.9066 6.20298 20.6916 6.27137 20.4668C6.33976 20.2322 6.47653 20.0367 6.72076 19.9977C7.3167 19.9097 7.46324 19.4894 7.46324 19.0008C7.47301 18.3655 7.63909 17.7889 7.95171 17.2416C8.07872 17.0168 8.04941 16.9582 7.84425 16.792C7.74655 16.7138 7.63909 16.6552 7.53163 16.5966C7.39485 16.5281 7.27762 16.45 7.19947 16.3131C7.13108 16.1861 7.02362 16.1568 6.89661 16.1568C6.59376 16.1568 6.29091 16.1372 6.07598 15.8733C6.05644 15.8538 6.02713 15.8342 5.98805 15.8245C5.71451 15.7658 5.42143 15.7658 5.14788 15.7267C5.05996 15.717 4.96226 15.7756 4.91342 15.6681C4.86457 15.5606 4.91342 15.4726 4.99157 15.414C5.1088 15.3358 5.16742 15.2381 5.16742 15.0915C5.17719 14.6028 5.08927 14.4758 4.62033 14.3487C4.56172 14.3389 4.51287 14.3194 4.45425 14.3096C4.09278 14.251 3.80947 14.0653 3.60431 13.7525C3.34054 13.3421 2.90091 13.2248 2.46129 13.1368C2.31474 13.1075 2.19751 13.1955 2.09005 13.2932C1.94351 13.4398 1.75789 13.5278 1.55273 13.5473C1.35734 13.5571 1.22057 13.4789 1.16195 13.2834C1.12287 13.1759 1.08379 13.0684 1.08379 12.9511C1.07402 12.7068 1.04472 12.482 0.859097 12.3061C0.790711 12.2377 0.790711 12.1302 0.81025 12.0227C0.839558 11.8565 0.829789 11.6806 0.859097 11.5145C0.751633 11.5731 0.741864 11.6904 0.693016 11.7881C0.614861 11.9249 0.526936 12.0422 0.351086 11.9836C0.194775 11.9347 0.204544 11.7881 0.233852 11.6513C0.312008 11.1235 0.44878 10.6056 0.693016 10.1462C0.859097 9.83346 1.13264 9.57936 1.48434 9.48163C1.8165 9.39367 2.07051 9.25684 2.20728 8.93432C2.21705 8.905 2.23659 8.87568 2.2659 8.85614C2.49059 8.6509 2.66644 8.44566 2.62737 8.09382C2.60783 7.92768 2.77391 7.80063 2.93022 7.74199C3.34054 7.58561 3.62385 7.31196 3.80947 6.91126C3.87785 6.75489 4.00486 6.62783 4.14163 6.5301C4.33702 6.3835 4.48356 6.40305 4.64964 6.57897C4.76687 6.69625 5.05996 6.62783 5.1088 6.47146C5.11857 6.43237 5.11857 6.39328 5.08927 6.3835C4.94272 6.33464 4.88411 6.13917 4.67895 6.15872C4.5031 6.17826 4.42494 6.03167 4.51287 5.86552C4.60079 5.70915 4.74734 5.65051 4.92319 5.64074C4.96226 5.64074 5.01111 5.63096 5.04042 5.64074C5.61682 5.77756 5.93921 5.30844 6.35929 5.07389C6.43745 5.02502 6.40814 4.96638 6.33976 4.92729C6.19321 4.83933 6.10529 4.71228 6.07598 4.53636C6.05644 4.43862 6.00759 4.41908 5.91967 4.4484C5.72428 4.49726 5.54843 4.51681 5.45074 4.29203C5.41166 4.20407 5.31396 4.23339 5.26512 4.29203C5.05996 4.53636 4.77664 4.71228 4.57149 4.96638C4.43471 5.13253 4.2784 5.26935 4.13186 5.42572C4.01463 5.543 3.88762 5.67005 3.82901 5.82643C3.78993 5.92416 3.72154 6.02189 3.59454 6.00235C3.46754 5.9828 3.43823 5.87529 3.42846 5.76779C3.42846 5.67983 3.39915 5.62119 3.30146 5.59187C3.14515 5.543 3.01814 5.45504 3.00837 5.26935C2.9986 5.08366 3.13538 4.97615 3.28192 4.89797C3.75085 4.63409 4.20025 4.35067 4.61056 3.99883C4.65941 3.95973 4.77664 3.91087 4.7278 3.84246C4.65941 3.74472 4.57149 3.83268 4.49333 3.88155C4.18071 4.09656 3.89739 4.36044 3.58477 4.58522C3.47731 4.66341 3.3503 4.77092 3.24284 4.57545C3.24284 4.47772 3.31123 4.4093 3.36984 4.35067C4.03417 3.64699 4.7571 3.01173 5.57774 2.48397C6.49607 1.85848 7.47301 1.36982 8.51834 1.01798C9.50505 0.685692 10.5113 0.5 11.5469 0.519547C11.6055 0.519547 11.6641 0.539093 11.7129 0.5C12.2307 0.5 12.7583 0.5 13.2761 0.5C13.7255 0.548866 14.1748 0.548866 14.634 0.587959C15.269 0.656372 15.8747 0.832291 16.4804 1.01798C17.7309 1.41869 18.874 2.0344 19.9291 2.79672C20.5152 3.21697 21.0428 3.69586 21.5312 4.22361C21.5801 4.27248 21.6192 4.32135 21.6289 4.38976C21.6192 4.5559 21.5117 4.56568 21.3847 4.53636C21.2675 4.50704 21.1698 4.43862 21.0623 4.36044C20.6911 4.09656 20.2905 3.94996 19.8216 4.06724C19.4894 4.14543 19.4699 4.11611 19.4992 3.78382C19.509 3.69586 19.4894 3.61767 19.4113 3.57858C18.8642 3.30493 18.3464 2.97264 17.7016 3.00195C17.5258 3.01173 17.3597 3.0215 17.2034 3.08014C16.9103 3.18765 16.627 3.33425 16.3144 3.41243C16.2362 3.43198 16.1678 3.48084 16.0994 3.52971C16.0115 3.6079 15.9627 3.69586 16.0017 3.81314C16.0408 3.93041 16.1385 3.94019 16.2362 3.94996C16.3339 3.95973 16.4316 3.94996 16.5293 3.98905C16.6661 4.04769 16.7931 4.13565 16.8126 4.3018C16.8321 4.46794 16.7149 4.5559 16.5879 4.61454C16.3241 4.7416 16.0604 4.86865 15.7868 4.98593C15.4546 5.12275 15.1518 5.30844 14.8196 5.44527C14.6633 5.50391 14.6926 5.59187 14.7903 5.67983C14.9271 5.81665 15.0053 5.9828 15.0053 6.17827C14.9955 6.4226 14.8685 6.53988 14.634 6.50078C14.507 6.48124 14.38 6.43237 14.253 6.41282C13.8818 6.35418 13.5301 6.59852 13.5105 6.94058C13.491 7.30219 13.7645 7.56607 14.1553 7.57584C14.3605 7.58561 14.5559 7.49766 14.7512 7.46834C14.8392 7.44879 14.8685 7.3706 14.9173 7.30219C15.1323 6.92103 15.4449 6.63761 15.8161 6.43237C16.2167 6.20758 16.6172 6.22713 17.008 6.50078C17.2522 6.68647 17.4965 6.88194 17.7407 7.06763C17.8482 7.14582 17.9361 7.18491 18.0729 7.1165C18.2389 7.01877 18.405 7.09695 18.5027 7.23378C18.6297 7.42924 18.8544 7.3706 19.0107 7.47811C19.04 7.49765 19.0596 7.47811 19.0693 7.45856C19.1573 7.27287 19.3331 7.30219 19.4894 7.27287C19.7825 7.224 19.8704 7.06763 19.763 6.78421C19.6946 6.60829 19.6946 6.45192 19.8509 6.31509C19.9974 6.19781 20.2026 6.19781 20.3687 6.32486C20.4566 6.39328 20.5152 6.47146 20.6227 6.34441C20.7106 6.2369 20.8083 6.31509 20.8571 6.40305C21.033 6.72557 21.2284 7.03831 21.414 7.35106C21.5117 7.5172 21.3847 7.65403 21.16 7.61493C20.8181 7.55629 20.4957 7.62471 20.1733 7.69312C20.1147 7.70289 20.0267 7.71267 20.0267 7.79085C20.0267 7.86904 20.1049 7.88859 20.1635 7.91791C20.2905 7.97654 20.4371 7.957 20.5738 7.96677C20.8962 7.98632 21.0232 8.09382 21.0916 8.41634C21.1307 8.61181 21.1698 8.7975 21.1893 8.99296C21.2088 9.21775 21.1307 9.28616 20.9255 9.21775C20.6422 9.12979 20.3491 9.10047 20.0561 9.11024C19.7141 9.11024 19.3722 9.0516 19.0889 8.83659C18.9814 8.75841 18.9326 8.78773 18.9033 8.91478C18.8153 9.24707 18.7079 9.29593 18.3757 9.18843C18.151 9.11024 17.9556 8.96364 17.7993 8.78773C17.7114 8.68999 17.6235 8.63135 17.4867 8.62158C17.1741 8.61181 16.9689 8.42612 16.8712 8.15246C16.7833 7.92768 16.6661 7.85927 16.4316 7.88859C15.7184 7.96677 15.015 8.04496 14.3019 8.16224C13.8525 8.24042 13.491 8.44566 13.4031 8.96364C13.3835 9.0907 13.2858 9.17866 13.1784 9.24707C12.6997 9.55981 12.3284 9.97029 12.0451 10.4687C11.9083 10.7033 11.8693 10.9378 11.9767 11.1919C12.094 11.4558 12.0842 11.7295 11.9767 11.9738C11.7618 12.4625 11.8986 12.9023 12.1526 13.3127C12.4066 13.7232 12.7485 14.0653 13.11 14.378C13.3249 14.5637 13.5691 14.593 13.8427 14.5051C14.2237 14.378 14.5949 14.2412 14.9857 14.1728C15.2299 14.1337 15.484 14.0848 15.738 14.0848C15.8747 14.0848 15.992 14.1337 16.0506 14.2705C16.1092 14.4269 16.2264 14.466 16.3827 14.4758C16.9591 14.5149 17.1838 14.7983 17.1252 15.3749C17.1057 15.6192 17.1448 15.8831 17.3597 16.0688C17.7309 16.3913 17.8189 16.8018 17.7407 17.2611C17.6918 17.5543 17.5844 17.828 17.4671 18.0919C17.262 18.5708 17.2425 19.0399 17.4183 19.5383C17.6332 20.1638 17.8091 20.7991 18.0142 21.4246C18.1217 21.7471 18.2292 21.7862 18.532 21.5907C18.7567 21.4441 18.9228 21.2486 19.1182 21.0825C19.3331 20.8968 19.5676 20.7697 19.8314 20.6818C20.1928 20.5547 20.2026 20.5352 20.2026 20.1443C20.2026 20.027 20.2612 19.939 20.3491 19.8804C20.525 19.7631 20.6129 19.5872 20.6227 19.3819C20.6325 19.1767 20.6911 19.0008 20.8083 18.8346C21.2968 18.0919 21.6192 17.2709 21.9318 16.4597C22.2835 15.5606 22.6352 14.6615 22.9967 13.7623C23.0944 13.5082 23.0944 13.5082 22.8306 13.4496C22.5473 13.3812 22.3519 13.2052 22.2053 12.9707C22.0197 12.6873 21.8341 12.4136 21.6192 12.1595C21.4922 12.0129 21.4433 11.8272 21.4335 11.6415C21.414 11.2897 21.2577 11.0063 21.0916 10.7131C20.9646 10.498 20.8767 10.2733 20.8571 10.0289C20.8474 9.94097 20.8571 9.87256 20.8767 9.7846C20.906 9.67709 20.9451 9.57936 21.0721 9.55981C21.1893 9.55004 21.2479 9.638 21.2968 9.72596C21.7755 10.5469 22.2053 11.3972 22.6059 12.267C22.7133 12.4918 22.7036 12.4918 22.9087 12.3452C23.0162 12.2572 23.1432 12.2084 23.28 12.1595C23.6317 12.0227 23.8564 11.7197 23.8564 11.3874C23.8564 11.0649 23.6219 10.7619 23.2604 10.6349C23.1139 10.586 22.9673 10.5371 22.8403 10.4394C22.645 10.2928 22.5766 10.0973 22.6547 9.9312C22.7329 9.76505 22.9283 9.69664 23.1627 9.75528C23.2604 9.7846 23.3386 9.83346 23.4167 9.90188C23.534 10.0094 23.6512 10.0973 23.7978 10.1658C24.3253 10.4199 24.5988 10.8499 24.7552 11.3874C24.8724 11.9543 24.9115 12.5504 24.9994 13.1466Z"/>
</mask>
<path d="M24.9994 13.1466C24.9994 13.4105 24.9994 13.6646 24.9994 13.9285C24.9408 14.3096 24.9603 14.6908 24.9212 15.0622C24.8333 15.844 24.6184 16.5868 24.3546 17.3198C23.8954 18.5903 23.2409 19.7533 22.391 20.8088C21.414 22.0305 20.2612 23.0567 18.913 23.8581C17.6723 24.5911 16.3437 25.1091 14.9271 25.3729C14.507 25.4511 14.0772 25.4511 13.6473 25.4805C13.5594 25.4902 13.4714 25.4511 13.3835 25.5C12.7778 25.5 12.1819 25.5 11.5762 25.5C11.1952 25.4511 10.8239 25.4511 10.4429 25.4218C9.6516 25.3436 8.89935 25.1091 8.15687 24.8452C7.05292 24.4445 6.02713 23.8874 5.0795 23.1935C4.13186 22.4898 3.29169 21.6689 2.54921 20.7404C2.00212 20.0563 1.54296 19.3233 1.17172 18.5414C0.566014 17.2709 0.0970803 15.9515 0.0580025 14.5149C0.048233 14.3389 0.0677719 14.163 0.00915527 13.9871C0.00915527 13.4203 0.00915527 12.8436 0.00915527 12.2768C0.0580025 12.1986 0.0384636 12.0618 0.175236 12.0715C0.292469 12.0715 0.331547 12.1693 0.370625 12.267C0.429241 12.3941 0.497627 12.5113 0.614861 12.5895C0.732094 12.6677 0.81025 12.785 0.859097 12.9218C0.97633 13.2443 1.14241 13.5473 1.38665 13.7916C1.6895 14.1044 1.65042 14.466 1.5918 14.8374C1.57227 14.9644 1.47457 15.1013 1.50388 15.2088C1.57227 15.502 1.59181 15.7854 1.45503 16.0688C1.41596 16.1568 1.49411 16.2545 1.55273 16.3327C1.89466 16.7236 2.11935 17.183 2.27567 17.6716C2.40267 18.0625 2.66644 18.3655 2.94976 18.6489C3.30146 19.0008 3.51639 19.421 3.62385 19.8999C3.85832 20.9359 4.34679 21.8448 5.06973 22.6267C5.35304 22.9296 5.67543 23.2131 5.93921 23.3988C5.67543 23.2424 5.41166 22.9785 5.31396 22.568C5.23581 22.2455 5.31396 22.0109 5.59728 21.835C5.60705 21.8253 5.63635 21.8253 5.63635 21.8155C5.71451 21.5321 6.04667 21.4343 6.10529 21.1314C6.14437 20.9066 6.20298 20.6916 6.27137 20.4668C6.33976 20.2322 6.47653 20.0367 6.72076 19.9977C7.3167 19.9097 7.46324 19.4894 7.46324 19.0008C7.47301 18.3655 7.63909 17.7889 7.95171 17.2416C8.07872 17.0168 8.04941 16.9582 7.84425 16.792C7.74655 16.7138 7.63909 16.6552 7.53163 16.5966C7.39485 16.5281 7.27762 16.45 7.19947 16.3131C7.13108 16.1861 7.02362 16.1568 6.89661 16.1568C6.59376 16.1568 6.29091 16.1372 6.07598 15.8733C6.05644 15.8538 6.02713 15.8342 5.98805 15.8245C5.71451 15.7658 5.42143 15.7658 5.14788 15.7267C5.05996 15.717 4.96226 15.7756 4.91342 15.6681C4.86457 15.5606 4.91342 15.4726 4.99157 15.414C5.1088 15.3358 5.16742 15.2381 5.16742 15.0915C5.17719 14.6028 5.08927 14.4758 4.62033 14.3487C4.56172 14.3389 4.51287 14.3194 4.45425 14.3096C4.09278 14.251 3.80947 14.0653 3.60431 13.7525C3.34054 13.3421 2.90091 13.2248 2.46129 13.1368C2.31474 13.1075 2.19751 13.1955 2.09005 13.2932C1.94351 13.4398 1.75789 13.5278 1.55273 13.5473C1.35734 13.5571 1.22057 13.4789 1.16195 13.2834C1.12287 13.1759 1.08379 13.0684 1.08379 12.9511C1.07402 12.7068 1.04472 12.482 0.859097 12.3061C0.790711 12.2377 0.790711 12.1302 0.81025 12.0227C0.839558 11.8565 0.829789 11.6806 0.859097 11.5145C0.751633 11.5731 0.741864 11.6904 0.693016 11.7881C0.614861 11.9249 0.526936 12.0422 0.351086 11.9836C0.194775 11.9347 0.204544 11.7881 0.233852 11.6513C0.312008 11.1235 0.44878 10.6056 0.693016 10.1462C0.859097 9.83346 1.13264 9.57936 1.48434 9.48163C1.8165 9.39367 2.07051 9.25684 2.20728 8.93432C2.21705 8.905 2.23659 8.87568 2.2659 8.85614C2.49059 8.6509 2.66644 8.44566 2.62737 8.09382C2.60783 7.92768 2.77391 7.80063 2.93022 7.74199C3.34054 7.58561 3.62385 7.31196 3.80947 6.91126C3.87785 6.75489 4.00486 6.62783 4.14163 6.5301C4.33702 6.3835 4.48356 6.40305 4.64964 6.57897C4.76687 6.69625 5.05996 6.62783 5.1088 6.47146C5.11857 6.43237 5.11857 6.39328 5.08927 6.3835C4.94272 6.33464 4.88411 6.13917 4.67895 6.15872C4.5031 6.17826 4.42494 6.03167 4.51287 5.86552C4.60079 5.70915 4.74734 5.65051 4.92319 5.64074C4.96226 5.64074 5.01111 5.63096 5.04042 5.64074C5.61682 5.77756 5.93921 5.30844 6.35929 5.07389C6.43745 5.02502 6.40814 4.96638 6.33976 4.92729C6.19321 4.83933 6.10529 4.71228 6.07598 4.53636C6.05644 4.43862 6.00759 4.41908 5.91967 4.4484C5.72428 4.49726 5.54843 4.51681 5.45074 4.29203C5.41166 4.20407 5.31396 4.23339 5.26512 4.29203C5.05996 4.53636 4.77664 4.71228 4.57149 4.96638C4.43471 5.13253 4.2784 5.26935 4.13186 5.42572C4.01463 5.543 3.88762 5.67005 3.82901 5.82643C3.78993 5.92416 3.72154 6.02189 3.59454 6.00235C3.46754 5.9828 3.43823 5.87529 3.42846 5.76779C3.42846 5.67983 3.39915 5.62119 3.30146 5.59187C3.14515 5.543 3.01814 5.45504 3.00837 5.26935C2.9986 5.08366 3.13538 4.97615 3.28192 4.89797C3.75085 4.63409 4.20025 4.35067 4.61056 3.99883C4.65941 3.95973 4.77664 3.91087 4.7278 3.84246C4.65941 3.74472 4.57149 3.83268 4.49333 3.88155C4.18071 4.09656 3.89739 4.36044 3.58477 4.58522C3.47731 4.66341 3.3503 4.77092 3.24284 4.57545C3.24284 4.47772 3.31123 4.4093 3.36984 4.35067C4.03417 3.64699 4.7571 3.01173 5.57774 2.48397C6.49607 1.85848 7.47301 1.36982 8.51834 1.01798C9.50505 0.685692 10.5113 0.5 11.5469 0.519547C11.6055 0.519547 11.6641 0.539093 11.7129 0.5C12.2307 0.5 12.7583 0.5 13.2761 0.5C13.7255 0.548866 14.1748 0.548866 14.634 0.587959C15.269 0.656372 15.8747 0.832291 16.4804 1.01798C17.7309 1.41869 18.874 2.0344 19.9291 2.79672C20.5152 3.21697 21.0428 3.69586 21.5312 4.22361C21.5801 4.27248 21.6192 4.32135 21.6289 4.38976C21.6192 4.5559 21.5117 4.56568 21.3847 4.53636C21.2675 4.50704 21.1698 4.43862 21.0623 4.36044C20.6911 4.09656 20.2905 3.94996 19.8216 4.06724C19.4894 4.14543 19.4699 4.11611 19.4992 3.78382C19.509 3.69586 19.4894 3.61767 19.4113 3.57858C18.8642 3.30493 18.3464 2.97264 17.7016 3.00195C17.5258 3.01173 17.3597 3.0215 17.2034 3.08014C16.9103 3.18765 16.627 3.33425 16.3144 3.41243C16.2362 3.43198 16.1678 3.48084 16.0994 3.52971C16.0115 3.6079 15.9627 3.69586 16.0017 3.81314C16.0408 3.93041 16.1385 3.94019 16.2362 3.94996C16.3339 3.95973 16.4316 3.94996 16.5293 3.98905C16.6661 4.04769 16.7931 4.13565 16.8126 4.3018C16.8321 4.46794 16.7149 4.5559 16.5879 4.61454C16.3241 4.7416 16.0604 4.86865 15.7868 4.98593C15.4546 5.12275 15.1518 5.30844 14.8196 5.44527C14.6633 5.50391 14.6926 5.59187 14.7903 5.67983C14.9271 5.81665 15.0053 5.9828 15.0053 6.17827C14.9955 6.4226 14.8685 6.53988 14.634 6.50078C14.507 6.48124 14.38 6.43237 14.253 6.41282C13.8818 6.35418 13.5301 6.59852 13.5105 6.94058C13.491 7.30219 13.7645 7.56607 14.1553 7.57584C14.3605 7.58561 14.5559 7.49766 14.7512 7.46834C14.8392 7.44879 14.8685 7.3706 14.9173 7.30219C15.1323 6.92103 15.4449 6.63761 15.8161 6.43237C16.2167 6.20758 16.6172 6.22713 17.008 6.50078C17.2522 6.68647 17.4965 6.88194 17.7407 7.06763C17.8482 7.14582 17.9361 7.18491 18.0729 7.1165C18.2389 7.01877 18.405 7.09695 18.5027 7.23378C18.6297 7.42924 18.8544 7.3706 19.0107 7.47811C19.04 7.49765 19.0596 7.47811 19.0693 7.45856C19.1573 7.27287 19.3331 7.30219 19.4894 7.27287C19.7825 7.224 19.8704 7.06763 19.763 6.78421C19.6946 6.60829 19.6946 6.45192 19.8509 6.31509C19.9974 6.19781 20.2026 6.19781 20.3687 6.32486C20.4566 6.39328 20.5152 6.47146 20.6227 6.34441C20.7106 6.2369 20.8083 6.31509 20.8571 6.40305C21.033 6.72557 21.2284 7.03831 21.414 7.35106C21.5117 7.5172 21.3847 7.65403 21.16 7.61493C20.8181 7.55629 20.4957 7.62471 20.1733 7.69312C20.1147 7.70289 20.0267 7.71267 20.0267 7.79085C20.0267 7.86904 20.1049 7.88859 20.1635 7.91791C20.2905 7.97654 20.4371 7.957 20.5738 7.96677C20.8962 7.98632 21.0232 8.09382 21.0916 8.41634C21.1307 8.61181 21.1698 8.7975 21.1893 8.99296C21.2088 9.21775 21.1307 9.28616 20.9255 9.21775C20.6422 9.12979 20.3491 9.10047 20.0561 9.11024C19.7141 9.11024 19.3722 9.0516 19.0889 8.83659C18.9814 8.75841 18.9326 8.78773 18.9033 8.91478C18.8153 9.24707 18.7079 9.29593 18.3757 9.18843C18.151 9.11024 17.9556 8.96364 17.7993 8.78773C17.7114 8.68999 17.6235 8.63135 17.4867 8.62158C17.1741 8.61181 16.9689 8.42612 16.8712 8.15246C16.7833 7.92768 16.6661 7.85927 16.4316 7.88859C15.7184 7.96677 15.015 8.04496 14.3019 8.16224C13.8525 8.24042 13.491 8.44566 13.4031 8.96364C13.3835 9.0907 13.2858 9.17866 13.1784 9.24707C12.6997 9.55981 12.3284 9.97029 12.0451 10.4687C11.9083 10.7033 11.8693 10.9378 11.9767 11.1919C12.094 11.4558 12.0842 11.7295 11.9767 11.9738C11.7618 12.4625 11.8986 12.9023 12.1526 13.3127C12.4066 13.7232 12.7485 14.0653 13.11 14.378C13.3249 14.5637 13.5691 14.593 13.8427 14.5051C14.2237 14.378 14.5949 14.2412 14.9857 14.1728C15.2299 14.1337 15.484 14.0848 15.738 14.0848C15.8747 14.0848 15.992 14.1337 16.0506 14.2705C16.1092 14.4269 16.2264 14.466 16.3827 14.4758C16.9591 14.5149 17.1838 14.7983 17.1252 15.3749C17.1057 15.6192 17.1448 15.8831 17.3597 16.0688C17.7309 16.3913 17.8189 16.8018 17.7407 17.2611C17.6918 17.5543 17.5844 17.828 17.4671 18.0919C17.262 18.5708 17.2425 19.0399 17.4183 19.5383C17.6332 20.1638 17.8091 20.7991 18.0142 21.4246C18.1217 21.7471 18.2292 21.7862 18.532 21.5907C18.7567 21.4441 18.9228 21.2486 19.1182 21.0825C19.3331 20.8968 19.5676 20.7697 19.8314 20.6818C20.1928 20.5547 20.2026 20.5352 20.2026 20.1443C20.2026 20.027 20.2612 19.939 20.3491 19.8804C20.525 19.7631 20.6129 19.5872 20.6227 19.3819C20.6325 19.1767 20.6911 19.0008 20.8083 18.8346C21.2968 18.0919 21.6192 17.2709 21.9318 16.4597C22.2835 15.5606 22.6352 14.6615 22.9967 13.7623C23.0944 13.5082 23.0944 13.5082 22.8306 13.4496C22.5473 13.3812 22.3519 13.2052 22.2053 12.9707C22.0197 12.6873 21.8341 12.4136 21.6192 12.1595C21.4922 12.0129 21.4433 11.8272 21.4335 11.6415C21.414 11.2897 21.2577 11.0063 21.0916 10.7131C20.9646 10.498 20.8767 10.2733 20.8571 10.0289C20.8474 9.94097 20.8571 9.87256 20.8767 9.7846C20.906 9.67709 20.9451 9.57936 21.0721 9.55981C21.1893 9.55004 21.2479 9.638 21.2968 9.72596C21.7755 10.5469 22.2053 11.3972 22.6059 12.267C22.7133 12.4918 22.7036 12.4918 22.9087 12.3452C23.0162 12.2572 23.1432 12.2084 23.28 12.1595C23.6317 12.0227 23.8564 11.7197 23.8564 11.3874C23.8564 11.0649 23.6219 10.7619 23.2604 10.6349C23.1139 10.586 22.9673 10.5371 22.8403 10.4394C22.645 10.2928 22.5766 10.0973 22.6547 9.9312C22.7329 9.76505 22.9283 9.69664 23.1627 9.75528C23.2604 9.7846 23.3386 9.83346 23.4167 9.90188C23.534 10.0094 23.6512 10.0973 23.7978 10.1658C24.3253 10.4199 24.5988 10.8499 24.7552 11.3874C24.8724 11.9543 24.9115 12.5504 24.9994 13.1466Z" stroke="white" stroke-width="0.6" mask="url(#path-1-inside-1_281_3291)"/>
<mask id="path-2-inside-2_281_3291" fill="white">
<path d="M25.0005 13.1474C24.854 12.7369 24.8051 12.3069 24.7172 11.8866C24.6586 11.6325 24.6097 11.3784 24.512 11.1341C24.3655 10.7431 24.131 10.4402 23.7403 10.2643C23.5937 10.2056 23.4765 10.1079 23.3592 10.0004C23.3104 9.96128 23.2616 9.91242 23.2029 9.8831C23.0173 9.76582 22.7828 9.79514 22.6949 9.93196C22.607 10.0786 22.6949 10.274 22.9196 10.3815C23.0369 10.4402 23.1639 10.4695 23.2811 10.5184C23.6621 10.665 23.9063 10.9972 23.9063 11.3686C23.9063 11.7596 23.6621 12.1114 23.2811 12.2385C23.0271 12.3264 22.8122 12.4535 22.6461 12.7076C22.4702 12.3362 22.3041 11.9941 22.1381 11.6521C21.8352 11.0168 21.5031 10.3913 21.1514 9.77559C21.122 9.71695 21.1025 9.60945 21.0146 9.61922C20.9169 9.63876 20.9267 9.74627 20.9169 9.82446C20.8876 10.0492 20.9267 10.2643 21.0341 10.4597C21.2784 10.88 21.3956 11.3295 21.5421 11.7889C21.718 12.346 22.1381 12.8248 22.5777 13.2353C22.734 13.3819 22.9685 13.3819 23.1736 13.2842C23.242 13.3428 23.1834 13.3917 23.1736 13.4406C22.6168 14.8381 22.0599 16.2357 21.5031 17.6333C21.3174 18.0829 21.083 18.5129 20.8094 18.9234C20.7215 19.0602 20.6629 19.197 20.6726 19.3534C20.6824 19.6173 20.575 19.8323 20.3405 19.9593C20.233 20.018 20.2428 20.0571 20.2819 20.1646C20.3698 20.3991 20.3112 20.5946 20.0669 20.663C19.471 20.8194 19.0509 21.2201 18.6113 21.611C18.5625 21.6501 18.5038 21.6892 18.455 21.7283C18.1131 21.9238 17.9958 21.8847 17.8786 21.5133C17.6637 20.8585 17.4683 20.1939 17.2436 19.5391C17.0775 19.0504 17.0873 18.5813 17.2827 18.1122C17.3999 17.819 17.5269 17.5258 17.5757 17.213C17.6246 16.9003 17.5855 16.5973 17.3999 16.3237C17.3413 16.2259 17.2631 16.1282 17.1556 16.0891C17.0091 16.0305 16.9407 15.9621 17.0286 15.8057C17.0482 15.7666 17.0775 15.6786 17.0189 15.6786C16.7258 15.6689 16.9016 15.4832 16.931 15.3952C17.058 14.8675 16.8626 14.5938 16.3155 14.584C16.1005 14.584 15.9247 14.5352 15.8954 14.2811C15.8759 14.154 15.7879 14.1833 15.7098 14.1833C15.2311 14.1931 14.7524 14.2713 14.303 14.4374C14.1076 14.5058 13.922 14.5645 13.7266 14.6329C13.5214 14.7013 13.3065 14.6818 13.1404 14.5645C12.5152 14.1149 12.0072 13.5578 11.7531 12.8151C11.6555 12.5316 11.6848 12.2385 11.802 11.955C11.9095 11.6911 11.929 11.4273 11.7922 11.1536C11.675 10.9191 11.7238 10.6747 11.8508 10.4499C12.1537 9.90264 12.564 9.46285 13.0818 9.12078C13.1697 9.06214 13.2381 9.01328 13.2479 8.896C13.2869 8.52461 13.5214 8.29983 13.834 8.15323C14.176 7.99686 14.5472 7.97731 14.9087 7.93822C15.4265 7.8698 15.9442 7.83071 16.462 7.7623C16.6965 7.73298 16.8235 7.80139 16.8821 8.04572C16.9603 8.37801 17.185 8.53439 17.5171 8.53439C17.6344 8.53439 17.7027 8.56371 17.7711 8.67121C17.947 8.94486 18.2401 9.06214 18.5429 9.14033C18.6699 9.16965 18.6992 9.12078 18.6992 9.0035C18.6992 8.93509 18.709 8.8569 18.7285 8.78849C18.7969 8.55393 18.8458 8.54416 19.0216 8.7103C19.2854 8.95464 19.6176 8.99373 19.9497 9.0035C20.3112 9.01328 20.6629 9.0035 21.0341 9.20874C20.9755 8.88622 20.9364 8.59303 20.8778 8.31937C20.8387 8.11414 20.6629 8.10436 20.487 8.10436C20.233 8.11414 19.9986 8.07504 19.8032 7.89912C19.6762 7.78185 19.6664 7.71343 19.852 7.66457C20.321 7.52774 20.7997 7.45933 21.3565 7.56683C21.0634 7.15636 20.829 6.78497 20.6531 6.35495C20.5456 6.482 20.5847 6.63837 20.5066 6.74588C20.3991 6.68724 20.3796 6.56996 20.3112 6.49178C20.1842 6.35495 20.0279 6.29631 19.852 6.39404C19.6664 6.50155 19.7446 6.64815 19.8227 6.79475C19.9692 7.08794 19.7934 7.39091 19.4222 7.39091C19.1193 7.39091 19.0314 7.50819 19.0509 7.79162C18.9435 7.74275 18.9435 7.65479 18.9141 7.58638C18.8848 7.52774 18.8458 7.4691 18.7871 7.50819C18.582 7.66457 18.5038 7.4691 18.3964 7.37137C18.2596 7.23454 18.1424 7.03908 17.947 7.31273C17.8688 7.42023 17.7907 7.3225 17.7223 7.26386C17.4585 7.05862 17.2045 6.84361 16.9407 6.64815C16.5109 6.32563 16.1592 6.30608 15.7098 6.59928C15.3678 6.82407 15.0552 7.08794 14.9184 7.49842C14.8989 7.54729 14.8891 7.59615 14.8305 7.59615C14.5863 7.58638 14.3518 7.70366 14.1076 7.71343C13.7852 7.72321 13.5605 7.57661 13.414 7.30296C13.2967 7.07817 13.2967 6.84361 13.4628 6.63837C13.6484 6.38427 13.8927 6.24744 14.2248 6.32563C14.3518 6.35495 14.4788 6.39404 14.6058 6.42336C14.8403 6.47223 14.8989 6.41359 14.8696 6.16926C14.8403 5.96402 14.7426 5.7881 14.5765 5.68059C14.4007 5.55354 14.43 5.50468 14.6058 5.41672C15.2213 5.13329 15.827 4.84987 16.4425 4.55667C16.5402 4.5078 16.716 4.49803 16.6867 4.33188C16.6574 4.16574 16.5109 4.11687 16.3546 4.09733C16.2862 4.08755 16.2276 4.08755 16.1592 4.08755C16.0224 4.07778 15.8954 4.04846 15.8465 3.90186C15.7977 3.76504 15.827 3.62821 15.9345 3.5207C15.9638 3.49138 15.9931 3.45229 16.0224 3.44252C16.6379 3.23728 17.2045 2.83658 17.8981 2.91476C18.5136 2.98317 19.0314 3.29592 19.5687 3.56957C19.6371 3.59889 19.6273 3.65753 19.6175 3.71617C19.598 3.8139 19.5687 3.92141 19.5394 4.03869C19.6957 4.00937 19.852 3.9605 20.0083 3.95073C20.4089 3.91163 20.7606 4.04846 21.0732 4.28302C21.1807 4.37098 21.2979 4.44916 21.4347 4.48826C21.4933 4.5078 21.5519 4.5078 21.5617 4.42962C21.7375 4.37098 21.8157 4.5078 21.9036 4.60554C22.3628 5.14306 22.8024 5.69037 23.1736 6.29631C23.9552 7.55706 24.512 8.90577 24.8149 10.362C24.9126 10.8409 24.9224 11.3295 24.9517 11.8084C24.9517 11.8671 24.9321 11.9355 24.9712 11.9941C25.0005 12.3655 25.0005 12.7564 25.0005 13.1474Z"/>
</mask>
<path d="M25.0005 13.1474C24.854 12.7369 24.8051 12.3069 24.7172 11.8866C24.6586 11.6325 24.6097 11.3784 24.512 11.1341C24.3655 10.7431 24.131 10.4402 23.7403 10.2643C23.5937 10.2056 23.4765 10.1079 23.3592 10.0004C23.3104 9.96128 23.2616 9.91242 23.2029 9.8831C23.0173 9.76582 22.7828 9.79514 22.6949 9.93196C22.607 10.0786 22.6949 10.274 22.9196 10.3815C23.0369 10.4402 23.1639 10.4695 23.2811 10.5184C23.6621 10.665 23.9063 10.9972 23.9063 11.3686C23.9063 11.7596 23.6621 12.1114 23.2811 12.2385C23.0271 12.3264 22.8122 12.4535 22.6461 12.7076C22.4702 12.3362 22.3041 11.9941 22.1381 11.6521C21.8352 11.0168 21.5031 10.3913 21.1514 9.77559C21.122 9.71695 21.1025 9.60945 21.0146 9.61922C20.9169 9.63876 20.9267 9.74627 20.9169 9.82446C20.8876 10.0492 20.9267 10.2643 21.0341 10.4597C21.2784 10.88 21.3956 11.3295 21.5421 11.7889C21.718 12.346 22.1381 12.8248 22.5777 13.2353C22.734 13.3819 22.9685 13.3819 23.1736 13.2842C23.242 13.3428 23.1834 13.3917 23.1736 13.4406C22.6168 14.8381 22.0599 16.2357 21.5031 17.6333C21.3174 18.0829 21.083 18.5129 20.8094 18.9234C20.7215 19.0602 20.6629 19.197 20.6726 19.3534C20.6824 19.6173 20.575 19.8323 20.3405 19.9593C20.233 20.018 20.2428 20.0571 20.2819 20.1646C20.3698 20.3991 20.3112 20.5946 20.0669 20.663C19.471 20.8194 19.0509 21.2201 18.6113 21.611C18.5625 21.6501 18.5038 21.6892 18.455 21.7283C18.1131 21.9238 17.9958 21.8847 17.8786 21.5133C17.6637 20.8585 17.4683 20.1939 17.2436 19.5391C17.0775 19.0504 17.0873 18.5813 17.2827 18.1122C17.3999 17.819 17.5269 17.5258 17.5757 17.213C17.6246 16.9003 17.5855 16.5973 17.3999 16.3237C17.3413 16.2259 17.2631 16.1282 17.1556 16.0891C17.0091 16.0305 16.9407 15.9621 17.0286 15.8057C17.0482 15.7666 17.0775 15.6786 17.0189 15.6786C16.7258 15.6689 16.9016 15.4832 16.931 15.3952C17.058 14.8675 16.8626 14.5938 16.3155 14.584C16.1005 14.584 15.9247 14.5352 15.8954 14.2811C15.8759 14.154 15.7879 14.1833 15.7098 14.1833C15.2311 14.1931 14.7524 14.2713 14.303 14.4374C14.1076 14.5058 13.922 14.5645 13.7266 14.6329C13.5214 14.7013 13.3065 14.6818 13.1404 14.5645C12.5152 14.1149 12.0072 13.5578 11.7531 12.8151C11.6555 12.5316 11.6848 12.2385 11.802 11.955C11.9095 11.6911 11.929 11.4273 11.7922 11.1536C11.675 10.9191 11.7238 10.6747 11.8508 10.4499C12.1537 9.90264 12.564 9.46285 13.0818 9.12078C13.1697 9.06214 13.2381 9.01328 13.2479 8.896C13.2869 8.52461 13.5214 8.29983 13.834 8.15323C14.176 7.99686 14.5472 7.97731 14.9087 7.93822C15.4265 7.8698 15.9442 7.83071 16.462 7.7623C16.6965 7.73298 16.8235 7.80139 16.8821 8.04572C16.9603 8.37801 17.185 8.53439 17.5171 8.53439C17.6344 8.53439 17.7027 8.56371 17.7711 8.67121C17.947 8.94486 18.2401 9.06214 18.5429 9.14033C18.6699 9.16965 18.6992 9.12078 18.6992 9.0035C18.6992 8.93509 18.709 8.8569 18.7285 8.78849C18.7969 8.55393 18.8458 8.54416 19.0216 8.7103C19.2854 8.95464 19.6176 8.99373 19.9497 9.0035C20.3112 9.01328 20.6629 9.0035 21.0341 9.20874C20.9755 8.88622 20.9364 8.59303 20.8778 8.31937C20.8387 8.11414 20.6629 8.10436 20.487 8.10436C20.233 8.11414 19.9986 8.07504 19.8032 7.89912C19.6762 7.78185 19.6664 7.71343 19.852 7.66457C20.321 7.52774 20.7997 7.45933 21.3565 7.56683C21.0634 7.15636 20.829 6.78497 20.6531 6.35495C20.5456 6.482 20.5847 6.63837 20.5066 6.74588C20.3991 6.68724 20.3796 6.56996 20.3112 6.49178C20.1842 6.35495 20.0279 6.29631 19.852 6.39404C19.6664 6.50155 19.7446 6.64815 19.8227 6.79475C19.9692 7.08794 19.7934 7.39091 19.4222 7.39091C19.1193 7.39091 19.0314 7.50819 19.0509 7.79162C18.9435 7.74275 18.9435 7.65479 18.9141 7.58638C18.8848 7.52774 18.8458 7.4691 18.7871 7.50819C18.582 7.66457 18.5038 7.4691 18.3964 7.37137C18.2596 7.23454 18.1424 7.03908 17.947 7.31273C17.8688 7.42023 17.7907 7.3225 17.7223 7.26386C17.4585 7.05862 17.2045 6.84361 16.9407 6.64815C16.5109 6.32563 16.1592 6.30608 15.7098 6.59928C15.3678 6.82407 15.0552 7.08794 14.9184 7.49842C14.8989 7.54729 14.8891 7.59615 14.8305 7.59615C14.5863 7.58638 14.3518 7.70366 14.1076 7.71343C13.7852 7.72321 13.5605 7.57661 13.414 7.30296C13.2967 7.07817 13.2967 6.84361 13.4628 6.63837C13.6484 6.38427 13.8927 6.24744 14.2248 6.32563C14.3518 6.35495 14.4788 6.39404 14.6058 6.42336C14.8403 6.47223 14.8989 6.41359 14.8696 6.16926C14.8403 5.96402 14.7426 5.7881 14.5765 5.68059C14.4007 5.55354 14.43 5.50468 14.6058 5.41672C15.2213 5.13329 15.827 4.84987 16.4425 4.55667C16.5402 4.5078 16.716 4.49803 16.6867 4.33188C16.6574 4.16574 16.5109 4.11687 16.3546 4.09733C16.2862 4.08755 16.2276 4.08755 16.1592 4.08755C16.0224 4.07778 15.8954 4.04846 15.8465 3.90186C15.7977 3.76504 15.827 3.62821 15.9345 3.5207C15.9638 3.49138 15.9931 3.45229 16.0224 3.44252C16.6379 3.23728 17.2045 2.83658 17.8981 2.91476C18.5136 2.98317 19.0314 3.29592 19.5687 3.56957C19.6371 3.59889 19.6273 3.65753 19.6175 3.71617C19.598 3.8139 19.5687 3.92141 19.5394 4.03869C19.6957 4.00937 19.852 3.9605 20.0083 3.95073C20.4089 3.91163 20.7606 4.04846 21.0732 4.28302C21.1807 4.37098 21.2979 4.44916 21.4347 4.48826C21.4933 4.5078 21.5519 4.5078 21.5617 4.42962C21.7375 4.37098 21.8157 4.5078 21.9036 4.60554C22.3628 5.14306 22.8024 5.69037 23.1736 6.29631C23.9552 7.55706 24.512 8.90577 24.8149 10.362C24.9126 10.8409 24.9224 11.3295 24.9517 11.8084C24.9517 11.8671 24.9321 11.9355 24.9712 11.9941C25.0005 12.3655 25.0005 12.7564 25.0005 13.1474Z" stroke="white" stroke-width="0.6" mask="url(#path-2-inside-2_281_3291)"/>
<mask id="path-3-inside-3_281_3291" fill="white">
<path d="M3.26299 4.55024C3.36069 4.6382 3.40954 4.54046 3.46815 4.4916C3.77101 4.25704 4.07386 4.02248 4.37671 3.78792C4.43533 3.73906 4.49394 3.69996 4.56233 3.67064C4.67956 3.612 4.80657 3.59246 4.88472 3.71951C4.96288 3.84656 4.84564 3.91497 4.76749 3.97361C4.33763 4.32545 3.88824 4.6382 3.39977 4.91185C3.26299 4.99003 3.02853 5.02913 3.08714 5.25391C3.14576 5.48847 3.36069 5.45915 3.57562 5.4396C3.58539 5.56665 3.49746 5.67416 3.517 5.80121C3.52677 5.85008 3.52677 5.90872 3.58539 5.91849C3.63423 5.92827 3.66354 5.8794 3.67331 5.84031C3.76124 5.4787 4.11294 5.32232 4.29855 5.04867C4.51348 4.72615 4.87495 4.56001 5.08988 4.23749C5.12896 4.16908 5.20711 4.12021 5.2755 4.08112C5.41227 4.01271 5.54904 4.01271 5.55881 4.20817C5.56858 4.35477 5.63697 4.35477 5.7542 4.32545C5.91051 4.28636 6.06682 4.24726 6.23291 4.20817C6.14498 4.65774 6.21337 4.76525 6.63345 4.84343C6.63345 4.98026 6.52599 5.04867 6.42829 5.12686C6.2036 5.30278 5.96913 5.45915 5.70536 5.57643C5.67605 5.5862 5.6272 5.59597 5.61743 5.61552C5.55881 5.89895 5.37319 5.75235 5.23642 5.72303C5.08988 5.69371 4.95311 5.68393 4.80657 5.71325C4.64049 5.75235 4.55256 5.84031 4.56233 6.01622C4.63072 6.07486 4.67956 6.01622 4.71864 5.98691C4.83588 5.91849 4.94334 5.84031 4.95311 6.07486C4.95311 6.20192 5.06057 6.1726 5.12896 6.20192C5.36342 6.27033 5.38296 6.3192 5.21688 6.50489C5.11919 6.61239 4.99219 6.69058 4.84564 6.72967C4.6991 6.76877 4.55256 6.82741 4.54279 6.5733C4.54279 6.43648 4.42556 6.4658 4.33763 6.49511C4.14224 6.56353 4.00547 6.71013 3.91755 6.88605C3.71239 7.31607 3.42907 7.63859 2.96014 7.80473C2.75498 7.87314 2.63775 8.04906 2.71591 8.2934C2.77452 8.44977 2.71591 8.56705 2.5889 8.65501C2.41305 8.76251 2.29582 8.91888 2.20789 9.0948C2.09066 9.32936 1.90504 9.46619 1.64127 9.51505C1.39703 9.55415 1.14302 9.60301 1.10395 9.91576C1.10395 9.95485 1.06487 9.98417 1.03556 9.96462C0.820633 9.86689 0.820633 10.0721 0.771786 10.1796C0.537319 10.6781 0.390778 11.1961 0.312622 11.7434C0.302853 11.8118 0.254006 11.8997 0.361469 11.929C0.439625 11.9486 0.508011 11.8997 0.537319 11.8313C0.605705 11.6945 0.654553 11.5479 0.713169 11.4013C0.752247 11.3231 0.801094 11.2254 0.908558 11.2547C1.01602 11.284 0.967175 11.3915 0.967175 11.4697C0.957405 11.587 0.937867 11.6945 0.928097 11.8118C0.898789 12.0463 0.840172 12.2809 1.09418 12.447C1.17233 12.5057 1.17233 12.6229 1.17233 12.7207C1.1821 12.8673 1.19187 13.0139 1.22118 13.1605C1.28957 13.483 1.37749 13.5319 1.69988 13.4244C1.84642 13.3755 1.96366 13.2875 2.06135 13.18C2.19812 13.0334 2.35444 13.0041 2.54982 13.0432C3.05784 13.1703 3.52677 13.3559 3.80031 13.8446C3.90778 14.0401 4.12271 14.1085 4.32786 14.1671C4.40602 14.1867 4.48417 14.1964 4.56233 14.216C5.18757 14.3528 5.37319 14.646 5.26573 15.2715C5.24619 15.3595 5.21688 15.4181 5.11919 15.4376C5.00196 15.4572 4.94334 15.5354 4.93357 15.6918C5.12896 15.594 5.30481 15.4474 5.47089 15.6918C5.5002 15.7308 5.55881 15.682 5.60766 15.6624C5.86167 15.6038 6.07659 15.6527 6.23291 15.8774C6.28175 15.9556 6.34037 15.985 6.42829 15.9947C6.58461 16.0045 6.73115 16.024 6.88746 16.0338C7.06331 16.0338 7.21962 16.0436 7.288 16.2586C7.32708 16.3857 7.47362 16.4345 7.58109 16.5029C7.69832 16.5713 7.82532 16.6398 7.93279 16.7179C8.14772 16.8743 8.17702 17.0111 8.04025 17.2457C7.71786 17.793 7.54201 18.3696 7.54201 19.0049C7.54201 19.1515 7.5127 19.2981 7.48339 19.4349C7.41501 19.7477 7.23916 19.9724 6.91677 20.0311C6.5553 20.0897 6.36968 20.3047 6.30129 20.6566C6.26221 20.8618 6.19383 21.067 6.14498 21.2723C6.1059 21.458 6.06682 21.6437 5.77374 21.5362C5.88121 21.7512 5.91051 21.888 5.63697 21.9173C5.44158 21.9369 5.34389 22.1617 5.38296 22.406C5.45135 22.8653 5.71512 23.1878 6.12544 23.4029C6.2036 23.4419 6.28175 23.481 6.37945 23.5299C6.19383 23.6765 6.04729 23.5788 5.92028 23.4908C5.43181 23.1683 5.02149 22.7774 4.65026 22.318C4.0934 21.6143 3.72216 20.8129 3.50723 19.9431C3.39 19.4447 3.17507 18.9951 2.78429 18.6433C2.44236 18.3305 2.21766 17.9396 2.07112 17.4998C1.95389 17.1186 1.7585 16.7766 1.49472 16.4638C1.23095 16.1511 1.24072 16.0827 1.44588 15.7308C1.49472 15.6527 1.51426 15.5842 1.44588 15.5061C1.30911 15.3692 1.34818 15.2129 1.39703 15.0467C1.43611 14.9294 1.47519 14.8122 1.49472 14.6949C1.52403 14.3821 1.54357 14.0792 1.27003 13.8251C1.02579 13.61 0.889019 13.3071 0.771786 12.9943C0.7034 12.8282 0.625244 12.6718 0.439625 12.5936C0.302853 12.5448 0.322392 12.3884 0.263775 12.2907C0.234467 12.232 0.234467 12.1343 0.17585 12.1245C0.087925 12.105 0.0488472 12.2027 0 12.2711C0 12.1538 0 12.0463 0 11.929C0.0488472 11.5479 0.0390778 11.1667 0.0781555 10.7953C0.156311 10.1503 0.332161 9.52483 0.547089 8.90911C0.928097 7.82428 1.41657 6.78831 2.08089 5.84031C2.37397 5.42983 2.67683 5.02913 3.01876 4.65774C3.08714 4.5991 3.14576 4.50137 3.26299 4.55024Z"/>
</mask>
<path d="M3.26299 4.55024C3.36069 4.6382 3.40954 4.54046 3.46815 4.4916C3.77101 4.25704 4.07386 4.02248 4.37671 3.78792C4.43533 3.73906 4.49394 3.69996 4.56233 3.67064C4.67956 3.612 4.80657 3.59246 4.88472 3.71951C4.96288 3.84656 4.84564 3.91497 4.76749 3.97361C4.33763 4.32545 3.88824 4.6382 3.39977 4.91185C3.26299 4.99003 3.02853 5.02913 3.08714 5.25391C3.14576 5.48847 3.36069 5.45915 3.57562 5.4396C3.58539 5.56665 3.49746 5.67416 3.517 5.80121C3.52677 5.85008 3.52677 5.90872 3.58539 5.91849C3.63423 5.92827 3.66354 5.8794 3.67331 5.84031C3.76124 5.4787 4.11294 5.32232 4.29855 5.04867C4.51348 4.72615 4.87495 4.56001 5.08988 4.23749C5.12896 4.16908 5.20711 4.12021 5.2755 4.08112C5.41227 4.01271 5.54904 4.01271 5.55881 4.20817C5.56858 4.35477 5.63697 4.35477 5.7542 4.32545C5.91051 4.28636 6.06682 4.24726 6.23291 4.20817C6.14498 4.65774 6.21337 4.76525 6.63345 4.84343C6.63345 4.98026 6.52599 5.04867 6.42829 5.12686C6.2036 5.30278 5.96913 5.45915 5.70536 5.57643C5.67605 5.5862 5.6272 5.59597 5.61743 5.61552C5.55881 5.89895 5.37319 5.75235 5.23642 5.72303C5.08988 5.69371 4.95311 5.68393 4.80657 5.71325C4.64049 5.75235 4.55256 5.84031 4.56233 6.01622C4.63072 6.07486 4.67956 6.01622 4.71864 5.98691C4.83588 5.91849 4.94334 5.84031 4.95311 6.07486C4.95311 6.20192 5.06057 6.1726 5.12896 6.20192C5.36342 6.27033 5.38296 6.3192 5.21688 6.50489C5.11919 6.61239 4.99219 6.69058 4.84564 6.72967C4.6991 6.76877 4.55256 6.82741 4.54279 6.5733C4.54279 6.43648 4.42556 6.4658 4.33763 6.49511C4.14224 6.56353 4.00547 6.71013 3.91755 6.88605C3.71239 7.31607 3.42907 7.63859 2.96014 7.80473C2.75498 7.87314 2.63775 8.04906 2.71591 8.2934C2.77452 8.44977 2.71591 8.56705 2.5889 8.65501C2.41305 8.76251 2.29582 8.91888 2.20789 9.0948C2.09066 9.32936 1.90504 9.46619 1.64127 9.51505C1.39703 9.55415 1.14302 9.60301 1.10395 9.91576C1.10395 9.95485 1.06487 9.98417 1.03556 9.96462C0.820633 9.86689 0.820633 10.0721 0.771786 10.1796C0.537319 10.6781 0.390778 11.1961 0.312622 11.7434C0.302853 11.8118 0.254006 11.8997 0.361469 11.929C0.439625 11.9486 0.508011 11.8997 0.537319 11.8313C0.605705 11.6945 0.654553 11.5479 0.713169 11.4013C0.752247 11.3231 0.801094 11.2254 0.908558 11.2547C1.01602 11.284 0.967175 11.3915 0.967175 11.4697C0.957405 11.587 0.937867 11.6945 0.928097 11.8118C0.898789 12.0463 0.840172 12.2809 1.09418 12.447C1.17233 12.5057 1.17233 12.6229 1.17233 12.7207C1.1821 12.8673 1.19187 13.0139 1.22118 13.1605C1.28957 13.483 1.37749 13.5319 1.69988 13.4244C1.84642 13.3755 1.96366 13.2875 2.06135 13.18C2.19812 13.0334 2.35444 13.0041 2.54982 13.0432C3.05784 13.1703 3.52677 13.3559 3.80031 13.8446C3.90778 14.0401 4.12271 14.1085 4.32786 14.1671C4.40602 14.1867 4.48417 14.1964 4.56233 14.216C5.18757 14.3528 5.37319 14.646 5.26573 15.2715C5.24619 15.3595 5.21688 15.4181 5.11919 15.4376C5.00196 15.4572 4.94334 15.5354 4.93357 15.6918C5.12896 15.594 5.30481 15.4474 5.47089 15.6918C5.5002 15.7308 5.55881 15.682 5.60766 15.6624C5.86167 15.6038 6.07659 15.6527 6.23291 15.8774C6.28175 15.9556 6.34037 15.985 6.42829 15.9947C6.58461 16.0045 6.73115 16.024 6.88746 16.0338C7.06331 16.0338 7.21962 16.0436 7.288 16.2586C7.32708 16.3857 7.47362 16.4345 7.58109 16.5029C7.69832 16.5713 7.82532 16.6398 7.93279 16.7179C8.14772 16.8743 8.17702 17.0111 8.04025 17.2457C7.71786 17.793 7.54201 18.3696 7.54201 19.0049C7.54201 19.1515 7.5127 19.2981 7.48339 19.4349C7.41501 19.7477 7.23916 19.9724 6.91677 20.0311C6.5553 20.0897 6.36968 20.3047 6.30129 20.6566C6.26221 20.8618 6.19383 21.067 6.14498 21.2723C6.1059 21.458 6.06682 21.6437 5.77374 21.5362C5.88121 21.7512 5.91051 21.888 5.63697 21.9173C5.44158 21.9369 5.34389 22.1617 5.38296 22.406C5.45135 22.8653 5.71512 23.1878 6.12544 23.4029C6.2036 23.4419 6.28175 23.481 6.37945 23.5299C6.19383 23.6765 6.04729 23.5788 5.92028 23.4908C5.43181 23.1683 5.02149 22.7774 4.65026 22.318C4.0934 21.6143 3.72216 20.8129 3.50723 19.9431C3.39 19.4447 3.17507 18.9951 2.78429 18.6433C2.44236 18.3305 2.21766 17.9396 2.07112 17.4998C1.95389 17.1186 1.7585 16.7766 1.49472 16.4638C1.23095 16.1511 1.24072 16.0827 1.44588 15.7308C1.49472 15.6527 1.51426 15.5842 1.44588 15.5061C1.30911 15.3692 1.34818 15.2129 1.39703 15.0467C1.43611 14.9294 1.47519 14.8122 1.49472 14.6949C1.52403 14.3821 1.54357 14.0792 1.27003 13.8251C1.02579 13.61 0.889019 13.3071 0.771786 12.9943C0.7034 12.8282 0.625244 12.6718 0.439625 12.5936C0.302853 12.5448 0.322392 12.3884 0.263775 12.2907C0.234467 12.232 0.234467 12.1343 0.17585 12.1245C0.087925 12.105 0.0488472 12.2027 0 12.2711C0 12.1538 0 12.0463 0 11.929C0.0488472 11.5479 0.0390778 11.1667 0.0781555 10.7953C0.156311 10.1503 0.332161 9.52483 0.547089 8.90911C0.928097 7.82428 1.41657 6.78831 2.08089 5.84031C2.37397 5.42983 2.67683 5.02913 3.01876 4.65774C3.08714 4.5991 3.14576 4.50137 3.26299 4.55024Z" stroke="white" stroke-width="0.6" mask="url(#path-3-inside-3_281_3291)"/>
<path d="M8.46659 1.97169C8.88213 1.72433 9.3319 1.5915 9.82119 1.5779L9.82164 1.57789L9.93185 1.5745C11.0506 1.54005 12.1617 1.50584 13.2789 1.47854C13.2207 1.51283 13.164 1.54611 13.1091 1.57695C12.9159 1.68552 12.7288 1.77461 12.5212 1.81878L12.5212 1.81869L12.5188 1.81928C12.5176 1.81927 12.5117 1.81947 12.498 1.81848C12.4955 1.8183 12.4922 1.81802 12.4883 1.81769C12.4705 1.81618 12.4402 1.8136 12.414 1.81433C12.3797 1.81528 12.323 1.82147 12.2709 1.86007C12.2155 1.90107 12.1895 1.96006 12.18 2.0176C12.1605 2.12127 12.2004 2.20691 12.2444 2.26559C12.2615 2.2884 12.2807 2.30923 12.3002 2.32798C12.2659 2.33196 12.2298 2.33347 12.191 2.33347H12.1897H12.1884H12.187H12.1857H12.1844H12.1831H12.1818H12.1805H12.1791H12.1778H12.1765H12.1752H12.1739H12.1725H12.1712H12.1699H12.1686H12.1673H12.1659H12.1646H12.1633H12.162H12.1607H12.1593H12.158H12.1567H12.1554H12.154H12.1527H12.1514H12.1501H12.1488H12.1474H12.1461H12.1448H12.1435H12.1421H12.1408H12.1395H12.1382H12.1368H12.1355H12.1342H12.1329H12.1315H12.1302H12.1289H12.1276H12.1262H12.1249H12.1236H12.1223H12.1209H12.1196H12.1183H12.1169H12.1156H12.1143H12.113H12.1116H12.1103H12.109H12.1076H12.1063H12.105H12.1037H12.1023H12.101H12.0997H12.0983H12.097H12.0957H12.0943H12.093H12.0917H12.0904H12.089H12.0877H12.0864H12.085H12.0837H12.0824H12.081H12.0797H12.0784H12.077H12.0757H12.0744H12.073H12.0717H12.0704H12.069H12.0677H12.0664H12.065H12.0637H12.0624H12.061H12.0597H12.0584H12.057H12.0557H12.0544H12.053H12.0517H12.0504H12.049H12.0477H12.0463H12.045H12.0437H12.0423H12.041H12.0397H12.0383H12.037H12.0357H12.0343H12.033H12.0316H12.0303H12.029H12.0276H12.0263H12.025H12.0236H12.0223H12.0209H12.0196H12.0183H12.0169H12.0156H12.0143H12.0129H12.0116H12.0102H12.0089H12.0076H12.0062H12.0049H12.0035H12.0022H12.0009H11.9995H11.9982H11.9968H11.9955H11.9942H11.9928H11.9915H11.9901H11.9888H11.9875H11.9861H11.9848H11.9834H11.9821H11.9808H11.9794H11.9781H11.9767H11.9754H11.9741H11.9727H11.9714H11.97H11.9687H11.9673H11.966H11.9647H11.9633H11.962H11.9606H11.9593H11.9579H11.9566H11.9553H11.9539H11.9526H11.9512H11.9499H11.9486H11.9472H11.9459H11.9445H11.9432H11.9418H11.9405H11.9391H11.9378H11.9365H11.9351H11.9338H11.9324H11.9311H11.9297H11.9284H11.9271H11.9257H11.9244H11.923H11.9217H11.9203H11.919H11.9177H11.9163H11.915H11.9136H11.9123H11.9109H11.9096H11.9082H11.9069H11.9056H11.9042H11.9029H11.9015H11.9002H11.8988H11.8975H11.8961H11.8948H11.8935H11.8921H11.8908H11.8894H11.8881H11.8867H11.8854H11.884H11.8827H11.8813H11.88H11.8787H11.8773H11.876H11.8746H11.8733H11.8719H11.8706H11.8692H11.8679H11.8666H11.8652H11.8639H11.8625H11.8612H11.8598H11.8585H11.8571H11.8558H11.8544H11.8531H11.8518H11.8504H11.8491H11.8477H11.8464H11.845H11.8437H11.8423H11.841H11.8396H11.8383H11.837H11.8356H11.8343H11.8329H11.8316H11.8302H11.8289H11.8275H11.8262H11.8249H11.8235H11.8222H11.8208H11.8195H11.8181H11.8168H11.8154H11.8141H11.8127H11.8114H11.8101H11.8087H11.8074H11.806H11.8047H11.8033H11.802H11.8006H11.7993H11.798H11.7966H11.7953H11.7939H11.7926H11.7912H11.7899H11.7885H11.7872H11.7859H11.7845H11.7832H11.7818H11.7805H11.7791H11.7778H11.7764H11.7751H11.7738H11.7724H11.7711H11.7697H11.7684H11.767H11.7657H11.7644H11.763H11.7617H11.7603H11.759H11.7576H11.7563H11.755H11.7536H11.7523H11.7509H11.7496H11.7482H11.7469H11.7456H11.7442H11.7429H11.7415H11.7402H11.7388H11.7375H11.7362H11.7348H11.7335H11.7321H11.7308H11.7294H11.7281H11.7268H11.7254H11.7241H11.7227H11.7214H11.7201H11.7187H11.7174H11.716H11.7147H11.7133H11.712H11.7107H11.7093H11.708H11.7066H11.7053H11.704H11.7026H11.7013H11.6999H11.6986H11.6973H11.6959H11.6946H11.6932H11.6919H11.6906H11.6892H11.6879H11.6866H11.6852H11.6839H11.6825H11.6812H11.6799H11.6785H11.6772H11.6758H11.6745H11.6732H11.6718H11.6705H11.6692H11.6678H11.6665H11.6651H11.6638H11.6625H11.6611H11.6598H11.6585H11.6571H11.6558H11.6545H11.6531H11.6518H11.6504H11.6491H11.6478H11.6464H11.6451H11.6438H11.6424H11.6411H11.6398H11.6384H11.6371H11.6358H11.6344H11.6331H11.6318H11.6304H11.6291H11.6278H11.6264H11.6251H11.6238H11.6224H11.6211H11.6198H11.6184H11.6171H11.6158H11.6144H11.6131H11.6118H11.6104H11.6091H11.6078H11.6064H11.6051H11.6038H11.6025H11.6011H11.5998H11.5985H11.5971H11.5958H11.5945H11.5931H11.5918H11.5905H11.5892H11.5878H11.5865H11.5852H11.5838H11.5825H11.5812H11.5799H11.5785H11.5772H11.5759H11.5746H11.5732H11.5719H11.5706H11.5692H11.5679H11.5666H11.5653H11.5639H11.5626H11.5613H11.56H11.5586H11.5573H11.556H11.5547H11.5533H11.552H11.5507H11.5494H11.5481H11.5467H11.5454H11.5441H11.5428H11.5414H11.5401H11.5388H11.5375H11.5362H11.5348H11.5335H11.5322H11.5309H11.5295H11.5282H11.5269H11.5256H11.5243H11.5229H11.5216H11.5203H11.519H11.5177H11.5164H11.515H11.5137H11.5124H11.5111H11.5098H11.5085H11.5071C11.2071 2.33347 10.9204 2.40907 10.6657 2.59742L10.6657 2.59738L10.6624 2.59992C10.4614 2.75734 10.243 2.83905 9.99341 2.82249C9.81341 2.80973 9.67406 2.86964 9.56099 2.95259C9.48083 3.0114 9.40658 3.08854 9.34367 3.15391C9.32502 3.17329 9.30736 3.19163 9.29085 3.20816C9.10237 3.39671 8.94925 3.52342 8.73778 3.51613L8.73779 3.51604H8.73261C8.5483 3.51604 8.4263 3.40979 8.40177 3.2791C8.38817 3.19207 8.40707 3.14995 8.42986 3.12207C8.45935 3.08602 8.51438 3.05108 8.61018 3.01457L8.61019 3.01459L8.61249 3.01367C8.61927 3.01096 8.62746 3.00783 8.63671 3.00431C8.67729 2.98884 8.73817 2.96564 8.7889 2.93542C8.88064 2.88263 8.97471 2.79389 9.00605 2.65283C9.02744 2.5565 8.99297 2.46193 8.95724 2.39406C8.91872 2.32087 8.86328 2.2495 8.80328 2.18808C8.74315 2.12652 8.67331 2.06972 8.60219 2.02863C8.56367 2.00638 8.51708 1.98422 8.46659 1.97169Z" stroke="white" stroke-width="0.3"/>
<path d="M22.1624 18.3301L22.1624 18.3301L22.1614 18.3276C22.1603 18.3246 22.1598 18.3225 22.1595 18.3213C22.1601 18.3204 22.161 18.319 22.1626 18.317C22.1737 18.3037 22.2008 18.2844 22.2436 18.27C22.4172 18.2155 22.5706 18.1293 22.6789 17.9958C22.7623 17.8931 22.8123 17.7704 22.8295 17.6302C22.8344 17.6386 22.8394 17.647 22.8443 17.6553L22.8447 17.656C22.8691 17.6976 22.8925 17.7374 22.9158 17.7793C22.935 17.8148 22.9329 17.8303 22.9327 17.8314C22.9327 17.8314 22.9327 17.8314 22.9327 17.8314C22.9326 17.8317 22.9325 17.8326 22.9307 17.8351C22.9284 17.8382 22.9222 17.8451 22.9081 17.8541L22.908 17.8541L22.9065 17.8552C22.5901 18.0621 22.5266 18.3801 22.5163 18.6692L22.5162 18.6692V18.6746C22.5162 18.7297 22.5139 18.7877 22.5115 18.8494L22.5114 18.8509C22.509 18.9098 22.5065 18.972 22.5064 19.0325C22.4972 19.2155 22.4501 19.3232 22.3861 19.3864C22.3228 19.449 22.2184 19.4921 22.041 19.4921C22.0216 19.4921 22.0073 19.4924 21.9942 19.4926C21.9785 19.4929 21.9645 19.4932 21.9457 19.4929C21.9173 19.4925 21.8964 19.4907 21.8803 19.4871C21.865 19.4837 21.8572 19.4795 21.8528 19.4763C21.8491 19.4735 21.8424 19.4676 21.835 19.4517C21.8002 19.377 21.8174 19.2961 21.8931 19.2204C21.9982 19.1152 22.1045 18.9949 22.1641 18.8483C22.2266 18.6943 22.2328 18.5239 22.1624 18.3301Z" stroke="white" stroke-width="0.3"/>
<path d="M6.92012 3.19678C6.92134 3.20327 6.92271 3.2106 6.92425 3.2183C6.82995 3.21628 6.73374 3.23963 6.6673 3.32343C6.60737 3.39903 6.59724 3.49698 6.59249 3.56352L6.59246 3.56352L6.59231 3.56633C6.58908 3.62774 6.57018 3.65326 6.55518 3.66588C6.53729 3.68092 6.5005 3.69786 6.42948 3.69786C6.42085 3.69786 6.41043 3.69737 6.3985 3.69682C6.32225 3.69327 6.18446 3.68686 6.05836 3.786C6.05513 3.78267 6.05158 3.77877 6.04775 3.77422C6.03597 3.76025 6.02415 3.74338 6.01306 3.7252C5.99945 3.69844 6.00332 3.68245 6.00557 3.67689C6.00797 3.67096 6.01317 3.66436 6.02625 3.66108L6.02629 3.66124L6.03298 3.65924C6.14694 3.62503 6.24354 3.57514 6.32053 3.49462C6.39672 3.41493 6.44244 3.31695 6.47547 3.20682L6.4755 3.20682L6.47632 3.20386C6.48012 3.19019 6.50094 3.15585 6.58701 3.13263C6.66839 3.11068 6.77741 3.10931 6.88421 3.13397L6.88409 3.13449L6.89673 3.1363C6.90103 3.13692 6.9042 3.1376 6.90645 3.1382C6.90839 3.14312 6.91101 3.15159 6.91417 3.16635C6.91607 3.17517 6.91778 3.1843 6.91993 3.19577L6.92012 3.19678Z" stroke="white" stroke-width="0.3"/>
<path d="M5.90822 5.82278L5.9084 5.82297L5.91426 5.81637C5.95704 5.76824 5.99723 5.7441 6.0354 5.73114C6.07514 5.71764 6.12144 5.71333 6.18017 5.71738C6.21561 5.71982 6.25263 5.72502 6.29314 5.73194C6.16291 5.82092 6.04834 5.86439 5.90556 5.85083C5.89628 5.84979 5.88769 5.84871 5.87967 5.84753C5.88916 5.84033 5.89891 5.8321 5.90822 5.82278Z" stroke="white" stroke-width="0.3"/>
<mask id="path-8-inside-4_281_3291" fill="white">
<path d="M11.6241 3.26021C11.8488 3.14297 12.0442 2.98666 12.2982 2.94759C12.3764 2.93782 12.4839 2.92805 12.5132 3.01597C12.5522 3.12343 12.4545 3.18205 12.3764 3.21136C12.1322 3.31882 11.8879 3.3579 11.6241 3.26021Z"/>
</mask>
<path d="M11.6241 3.26021L11.4854 2.99423L10.8862 3.30682L11.52 3.54153L11.6241 3.26021ZM12.2982 2.94759L12.261 2.64978L12.2526 2.65107L12.2982 2.94759ZM12.5132 3.01597L12.2285 3.11087L12.2312 3.11849L12.5132 3.01597ZM12.3764 3.21136L12.2711 2.93046L12.2632 2.9334L12.2556 2.93677L12.3764 3.21136ZM11.7629 3.52618C11.8267 3.49289 11.8871 3.45753 11.9408 3.42586C11.9966 3.39302 12.0444 3.36463 12.0926 3.33863C12.1876 3.2874 12.2653 3.25618 12.3439 3.2441L12.2526 2.65107C12.0772 2.67807 11.9302 2.74454 11.8078 2.81054C11.7473 2.84316 11.6883 2.87827 11.6362 2.90893C11.5822 2.94076 11.5339 2.96891 11.4854 2.99423L11.7629 3.52618ZM12.3354 3.24527C12.3537 3.24299 12.3649 3.24188 12.3734 3.24151C12.3824 3.24113 12.38 3.24205 12.3704 3.2403C12.3607 3.23854 12.3326 3.23207 12.3009 3.20882C12.2653 3.18273 12.2405 3.1468 12.2286 3.11084L12.7978 2.9211C12.7373 2.73955 12.5856 2.66961 12.4777 2.64998C12.3859 2.63328 12.2957 2.64557 12.261 2.6499L12.3354 3.24527ZM12.2312 3.11849C12.2235 3.09726 12.2173 3.0618 12.227 3.01995C12.2363 2.97994 12.2557 2.95319 12.2683 2.93949C12.28 2.92686 12.2882 2.92264 12.2861 2.92386C12.2847 2.92468 12.2798 2.92718 12.2711 2.93046L12.4817 3.49226C12.5348 3.47234 12.6319 3.43022 12.7092 3.34646C12.7511 3.30101 12.7925 3.23762 12.8115 3.15548C12.831 3.0715 12.8224 2.98841 12.7951 2.91345L12.2312 3.11849ZM12.2556 2.93677C12.058 3.02368 11.8973 3.04145 11.7283 2.97888L11.52 3.54153C11.8786 3.67436 12.2063 3.61397 12.4972 3.48595L12.2556 2.93677Z" fill="white" mask="url(#path-8-inside-4_281_3291)"/>
<path d="M22.7875 7.90093C22.7808 7.90884 22.768 7.92168 22.7444 7.93891C22.7002 7.97022 22.6615 8.01433 22.6443 8.07384C22.6273 8.13285 22.6375 8.18652 22.6518 8.22568C22.6656 8.26372 22.6863 8.29655 22.703 8.32068C22.7152 8.33837 22.7296 8.35735 22.741 8.37228C22.7447 8.37713 22.748 8.38155 22.7509 8.38536L22.7506 8.38555L22.757 8.39298C22.7718 8.41027 22.7827 8.42302 22.7918 8.43526C22.7875 8.43436 22.7817 8.4328 22.7744 8.43015C22.7623 8.42574 22.7482 8.41918 22.7318 8.41025C22.5438 8.29317 22.4435 8.17299 22.4632 7.98884L22.4633 7.98778C22.4755 7.86568 22.4576 7.75155 22.4071 7.64892C22.4034 7.64127 22.3995 7.63373 22.3954 7.62631C22.4184 7.6371 22.4408 7.64725 22.4618 7.65673C22.4828 7.6662 22.5023 7.675 22.5194 7.68315C22.5916 7.71753 22.6437 7.74915 22.6825 7.79116L22.6824 7.79124L22.6867 7.79548C22.6999 7.80871 22.711 7.81951 22.7211 7.82927C22.7369 7.84447 22.75 7.85714 22.7642 7.87253C22.7759 7.88528 22.7831 7.89457 22.7875 7.90093ZM22.0569 7.24175C22.0562 7.24843 22.0558 7.25505 22.0556 7.2616C21.9874 7.16481 21.9495 7.0553 21.9372 6.93744C21.9468 6.84615 21.956 6.80758 21.9873 6.77177C21.9897 6.76903 21.9925 6.76627 21.9955 6.76355C22.0099 6.78994 22.0249 6.81446 22.0383 6.83622C22.0415 6.84132 22.0445 6.84628 22.0475 6.85112C22.0705 6.88822 22.0889 6.91805 22.1038 6.9482C22.1339 7.00927 22.1348 7.04138 22.115 7.07816C22.0849 7.12983 22.0626 7.18445 22.0569 7.24175Z" stroke="url(#paint0_linear_281_3291)" stroke-width="0.3"/>
<defs>
<linearGradient id="paint0_linear_281_3291" x1="22.3707" y1="6.59131" x2="22.3707" y2="8.58639" gradientUnits="userSpaceOnUse">
<stop stop-color="#A2A2A2"/>
<stop offset="1"/>
</linearGradient>
</defs>
</svg>
