<svg width="25" height="26" viewBox="0 0 25 26" fill="none" xmlns="http://www.w3.org/2000/svg">
<path fill-rule="evenodd" clip-rule="evenodd" d="M12.5 25.5C19.4036 25.5 25 19.9036 25 13C25 6.09644 19.4036 0.5 12.5 0.5C5.59644 0.5 0 6.09644 0 13C0 19.9036 5.59644 25.5 12.5 25.5ZM10.3393 20.3767L8.36942 21.391C8.16697 21.4963 7.92605 21.3485 7.92605 21.1217V16.4835C8.03157 16.5144 9.31112 16.7704 10.0938 16.927L10.0943 16.9271L10.0997 16.9282C10.2906 16.9664 10.4515 16.9986 10.5579 17.02V20.0163C10.5579 20.1682 10.4749 20.3079 10.3393 20.3767ZM5.37921 14.1432L5.96227 14.1391C6.39147 14.8275 7.04741 15.368 7.92605 15.6677C8.08802 15.7223 8.25808 15.7689 8.43623 15.8074C8.44726 15.8098 8.58114 15.8356 8.78209 15.8743L8.78327 15.8745L8.78341 15.8746C9.24692 15.9639 10.0656 16.1216 10.5579 16.2203C13.5805 16.8257 17.1133 17.6719 19.1378 19.2247C19.2148 19.2834 19.2998 19.3098 19.3848 19.3098C19.5954 19.3098 19.7918 19.1457 19.7918 18.9048V14.6675V11.9931V9.79451V5.08345C19.7918 4.84253 19.5954 4.67854 19.3848 4.67854C19.3018 4.67854 19.2148 4.70486 19.1378 4.76357C16.7743 6.57746 12.3538 7.42546 9.08959 8.05166L9.08958 8.05167L9.08932 8.05172C8.90344 8.08737 8.72132 8.12231 8.54353 8.15667C8.52422 8.15989 8.50491 8.16424 8.48591 8.16853C8.46904 8.17233 8.45241 8.17608 8.43623 8.17894C7.2944 8.41986 6.4684 9.03734 5.96024 9.84714L5.37516 9.84512C4.18879 9.84714 3.22917 10.7987 3.22917 11.9931H3.23119C3.23119 13.1876 4.19486 14.1412 5.37921 14.1432ZM20.5793 11.7502V9.76821C21.3527 10.2055 21.875 11.0356 21.875 11.9891V11.9952V12.0013C21.875 12.9528 21.3527 13.7828 20.5793 14.2201V12.2402V11.9932V11.7502Z" fill="#9C9C9C"/>
</svg>
