<svg width="15" height="15" viewBox="0 0 15 15" fill="none" xmlns="http://www.w3.org/2000/svg">
<path d="M14.0694 6.07969L12.8661 5.81297C12.7724 5.51297 12.6495 5.22609 12.5089 4.95L13.16 3.86578C13.4028 3.47719 13.5256 2.90625 13.16 2.53969L12.4967 1.87687C12.1311 1.51078 11.5133 1.57687 11.1402 1.83562L10.085 2.50781C9.81126 2.36578 9.52486 2.24391 9.22767 2.14781L8.95767 0.93C8.87705 0.483281 8.48658 0 7.96861 0H7.03111C6.51361 0 6.19626 0.490781 6.09361 0.9375L5.79267 2.14078C5.47486 2.24203 5.17017 2.37141 4.87955 2.52469L3.79767 1.83562C3.42501 1.57687 2.80673 1.51125 2.44111 1.87687L1.77783 2.53969C1.41173 2.90625 1.53455 3.47719 1.77783 3.86531L2.46267 5.00672C2.33423 5.26547 2.22033 5.53312 2.1322 5.81297L0.92939 6.07969C0.482671 6.15984 -0.000610352 6.55078 -0.000610352 7.06828V8.00578C-0.000610352 8.52375 0.490171 8.84109 0.93689 8.94328L2.1547 9.2475C2.23861 9.50578 2.34408 9.75375 2.46314 9.99422L1.77783 11.137C1.53501 11.5252 1.4122 12.0966 1.77783 12.4627L2.44111 13.1255C2.80673 13.492 3.42455 13.4255 3.79767 13.1672L4.88189 12.4762C5.17392 12.6305 5.48048 12.7612 5.80064 12.862L6.10064 14.0616C6.2033 14.5083 6.52064 14.9991 7.03814 14.9991H7.97564C8.49361 14.9991 8.88408 14.5153 8.9647 14.0686L9.23517 12.848C9.52955 12.7528 9.81173 12.6328 10.0827 12.4927L11.1402 13.1667C11.5133 13.4255 12.1311 13.4911 12.4972 13.125L13.1605 12.4622C13.5261 12.0956 13.4033 11.5247 13.1605 11.1366L12.5089 10.0505C12.6397 9.79312 12.7531 9.52547 12.8445 9.24703L14.0628 8.94281C14.5095 8.84016 15.0003 8.52328 15.0003 8.00531V7.06781C15.0003 6.55031 14.517 6.15937 14.0699 6.07875L14.0694 6.07969ZM14.0628 7.94016C14.023 7.96875 13.948 8.00812 13.8528 8.03016L12.1147 8.46422L11.9535 8.95687C11.8808 9.17906 11.7866 9.40406 11.6736 9.62625L11.4383 10.0884L12.3566 11.6198C12.4152 11.7136 12.4424 11.7975 12.4508 11.8472L11.8339 12.4631C11.7744 12.4444 11.7069 12.42 11.6741 12.3975L10.131 11.4136L9.65142 11.6616C9.42033 11.7816 9.18314 11.8809 8.94689 11.9573L8.43595 12.1223L8.0497 13.8675C8.03189 13.9608 7.98173 14.0362 7.94751 14.063H7.10376C7.07517 14.0231 7.0358 13.9481 7.01423 13.853L6.58251 12.1275L6.08283 11.9691C5.82548 11.888 5.56861 11.7797 5.31876 11.6484L4.83689 11.3939L3.2933 12.3778C3.23001 12.4205 3.16251 12.4448 3.10158 12.4448L2.48705 11.8467C2.49548 11.798 2.5208 11.7183 2.57189 11.6362L3.53048 10.0387L3.3022 9.57937C3.1958 9.36281 3.11142 9.15984 3.0458 8.95828L2.88501 8.46516L1.16423 8.03484C1.05595 8.01047 0.977671 7.96969 0.93689 7.94109V7.06922C0.93689 7.06922 0.937827 7.06969 0.939233 7.06969C0.955171 7.06969 1.03205 7.01484 1.09626 7.00312L2.86439 6.61172L3.02658 6.09469C3.09267 5.88422 3.18267 5.66484 3.3022 5.42437L3.53048 4.965L2.58173 3.38391C2.52314 3.28969 2.49548 3.20578 2.48751 3.15656L3.10392 2.54062C3.16392 2.55984 3.23095 2.58422 3.2633 2.60625L4.83548 3.60844L5.31689 3.35437C5.56392 3.22406 5.81986 3.11672 6.0772 3.03469L6.57548 2.87625L7.00298 1.16578C7.02783 1.0575 7.06767 0.979219 7.09673 0.938437H7.96814C7.96158 0.947812 8.02205 1.02984 8.0347 1.09734L8.42845 2.87578L8.93892 3.04078C9.17845 3.11812 9.41845 3.21891 9.65283 3.34031L10.1324 3.58969L11.6436 2.62734C11.7069 2.58422 11.7744 2.56031 11.8353 2.56031L12.4508 3.15844C12.4428 3.20719 12.417 3.28781 12.366 3.36937L11.4378 4.91437L11.6745 5.3775C11.8025 5.62734 11.8995 5.86172 11.9722 6.09422L12.1344 6.61172L13.8674 6.99609C13.9724 7.01531 14.0539 7.07625 14.0708 7.10906L14.0628 7.94016ZM7.50595 4.68281C5.94923 4.68281 4.68267 5.94703 4.68267 7.5C4.68267 9.05297 5.94923 10.3172 7.50595 10.3172C9.06267 10.3172 10.3292 9.05297 10.3292 7.50047C10.3292 5.9475 9.06267 4.68328 7.50595 4.68328V4.68281ZM7.49986 9.375C6.46626 9.375 5.62486 8.53406 5.62486 7.5C5.62486 6.46594 6.4658 5.625 7.49986 5.625C8.53392 5.625 9.37486 6.46594 9.37486 7.5C9.37486 8.53406 8.53392 9.375 7.49986 9.375Z" fill="white"/>
</svg>
