<svg width="25" height="26" viewBox="0 0 25 26" fill="none" xmlns="http://www.w3.org/2000/svg">
<path fill-rule="evenodd" clip-rule="evenodd" d="M12.5 25.5C19.4036 25.5 25 19.9036 25 13C25 6.09644 19.4036 0.5 12.5 0.5C5.59644 0.5 0 6.09644 0 13C0 19.9036 5.59644 25.5 12.5 25.5ZM8.97604 14.987C9.78047 16.053 11.1588 16.8583 12.5155 16.8583C13.8722 16.8583 15.1894 16.0417 15.9929 14.9625C20.3331 14.9625 20.0301 20.5004 20.0301 20.5004H5C5 20.5004 5.11667 14.987 8.97604 14.987ZM15.4423 11.793C14.9256 13.2743 13.8082 14.8685 12.5123 14.8685C11.2024 14.8685 10.0734 13.2342 9.56536 11.7377C9.64094 11.6612 9.68409 11.573 9.68409 11.4791V8.88801C9.68409 8.87889 9.68279 8.86997 9.68062 8.86118C10.2317 7.97622 11.2933 7.37646 12.5123 7.37646C13.7243 7.3771 14.7802 7.96901 15.3345 8.84397C15.3292 8.85543 15.3245 8.86699 15.3245 8.87954V11.5299C15.3245 11.6254 15.3672 11.7151 15.4423 11.793ZM15.4423 11.793C15.6017 11.9582 15.9067 12.07 16.2578 12.07C16.2635 12.07 16.2684 12.069 16.2733 12.0681C16.2783 12.0671 16.2832 12.0662 16.2889 12.0662V13.0343H15.3631V13.947H17.2006L17.1911 8.87954C17.1911 8.58223 16.7772 8.34231 16.2635 8.34043V7.72794L16.2635 7.72545C16.2638 7.60373 16.2691 5.5 12.5236 5.5C8.77997 5.5 8.78526 7.60372 8.78557 7.72545C8.78557 7.7264 8.78557 7.72723 8.78557 7.72794V8.36207C8.78074 8.36207 8.77641 8.36133 8.77219 8.3606C8.76819 8.35992 8.76429 8.35925 8.76017 8.35925C8.24929 8.35925 7.83813 8.5954 7.83813 8.88801V11.4791C7.83813 11.7698 8.25023 12.0069 8.76017 12.0069C9.1055 12.0069 9.40681 11.8982 9.56536 11.7377C9.38115 11.1952 9.27856 10.6707 9.27856 10.2489C9.27856 9.74574 9.42441 9.27263 9.68062 8.86118C9.6759 8.84205 9.667 8.82357 9.65815 8.80518C9.65302 8.79453 9.64791 8.78392 9.64363 8.77322V8.06664C9.64363 8.06402 9.64319 8.05888 9.64255 8.05143C9.62733 7.87418 9.49984 6.3891 12.5236 6.3891C15.5322 6.3891 15.3706 7.85851 15.3497 8.04851C15.3487 8.05755 15.348 8.06369 15.348 8.06664V8.81086C15.3457 8.82046 15.3414 8.8296 15.337 8.83871C15.3362 8.84046 15.3354 8.84222 15.3345 8.84397C15.5978 9.25945 15.7479 9.73876 15.7479 10.2489C15.7479 10.6852 15.6383 11.231 15.4423 11.793Z" fill="#9C9C9C"/>
</svg>
