<svg width="13" height="15" viewBox="0 0 13 15" fill="none" xmlns="http://www.w3.org/2000/svg">
<path d="M8.7308 1.89489C8.47143 1.80012 8.18434 1.93355 8.08957 2.19292C7.9948 2.45229 8.12823 2.73938 8.3876 2.83415L8.7308 1.89489ZM11.8642 5.31214L11.4172 5.53614L11.8642 5.31214ZM12.2469 9.72406L11.768 9.5804L11.768 9.5804L12.2469 9.72406ZM9.49894 13.1968L9.74885 13.6299L9.49894 13.1968ZM1.48874 11.2997L1.07114 11.5746L1.07114 11.5746L1.48874 11.2997ZM0.590244 6.9633L1.08272 7.0497L0.590244 6.9633ZM2.91117 3.19171L2.6121 2.79102L2.6121 2.79102L2.91117 3.19171ZM7.18716 2.03956L1.6083 0.553061L3.11038 6.12774L7.18716 2.03956ZM8.3876 2.83415C9.70505 3.31554 10.7888 4.28212 11.4172 5.53614L12.3112 5.08815C11.5686 3.60612 10.2878 2.46381 8.7308 1.89489L8.3876 2.83415ZM11.4172 5.53614C12.0456 6.79016 12.1711 8.2369 11.768 9.5804L12.7259 9.86773C13.2022 8.27996 13.0538 6.57018 12.3112 5.08815L11.4172 5.53614ZM11.768 9.5804C11.365 10.9239 10.4639 12.0627 9.24902 12.7638L9.74885 13.6299C11.1846 12.8013 12.2496 11.4555 12.7259 9.86773L11.768 9.5804ZM9.24902 12.7638C8.03416 13.4648 6.59731 13.6753 5.23243 13.352L5.00196 14.3251C6.61501 14.7071 8.3131 14.4584 9.74885 13.6299L9.24902 12.7638ZM5.23243 13.352C3.86754 13.0288 2.67771 12.1962 1.90635 11.0247L1.07114 11.5746C1.98275 12.9592 3.38891 13.9431 5.00196 14.3251L5.23243 13.352ZM1.90635 11.0247C1.13498 9.85321 0.840349 8.43125 1.08272 7.0497L0.0977653 6.8769C-0.188677 8.50964 0.159526 10.1901 1.07114 11.5746L1.90635 11.0247ZM1.08272 7.0497C1.3251 5.66815 2.08616 4.43139 3.21024 3.59241L2.6121 2.79102C1.28365 3.78254 0.384207 5.24416 0.0977653 6.8769L1.08272 7.0497Z" fill="white"/>
</svg>
