<svg width="346" height="186" viewBox="0 0 346 186" fill="none" xmlns="http://www.w3.org/2000/svg">
<path d="M-58.1848 -8.99456C-46.6124 29.089 -24.352 59.6633 2.66323 78.9848C29.6784 98.3063 60.6544 104.007 93.1428 88.6581C116.999 76.5338 216.749 42.5148 261.382 131.036C306.874 218.091 333.778 221.118 355.041 224.742" stroke="#DDC081" stroke-opacity="0.7" stroke-width="0.5"/>
<path d="M-58.3607 -7.16511C-46.2878 28.0904 -22.45 55.2827 5.57265 75.1376C33.5953 94.9925 64.2313 102.823 96.7987 92.06C120.449 82.6296 217.407 48.5412 261.451 132.577C307.581 214.506 333.405 217.41 356.004 222.388" stroke="#D8BE80" stroke-opacity="0.7" stroke-width="0.5"/>
<path d="M-58.5325 -5.37564C-45.9695 27.1114 -20.5877 50.993 8.42128 71.37C37.4302 91.7471 67.7334 101.663 100.378 95.3888C123.828 88.5955 218.053 54.4392 261.519 134.085C308.273 210.995 333.041 213.779 356.948 220.084" stroke="#D2BC7F" stroke-opacity="0.7" stroke-width="0.5"/>
<path d="M-58.7005 -3.62206C-45.658 26.1562 -18.7653 46.7984 11.2086 67.6863C41.1826 88.5743 71.1601 100.53 103.881 98.6485C127.134 94.4356 218.684 60.2128 261.586 135.563C308.951 207.562 332.685 210.229 357.871 217.831" stroke="#CDBA7E" stroke-opacity="0.7" stroke-width="0.5"/>
<path d="M-58.8661 -1.90834C-45.3548 25.2207 -16.9845 42.6948 13.9332 64.0824C44.8509 85.4701 74.5099 99.4206 107.304 101.835C130.366 100.146 219.3 65.8581 261.649 137.006C309.612 204.204 332.335 206.755 358.772 215.627" stroke="#C8B87D" stroke-opacity="0.7" stroke-width="0.5"/>
<path d="M-59.0256 -0.232545C-45.0559 24.307 -15.2414 38.6843 16.5989 60.5603C48.4391 82.4363 77.7868 98.3371 110.654 104.951C133.527 105.728 219.905 71.3769 261.714 138.419C310.261 200.922 331.995 203.361 359.655 213.473" stroke="#C3B67C" stroke-opacity="0.7" stroke-width="0.5"/>
<path d="M-59.1828 1.40341C-44.7653 23.413 -13.5397 34.7648 19.2018 57.118C51.9433 79.4712 80.9869 97.2773 113.924 107.993C136.615 111.181 220.495 76.7674 261.776 139.797C310.894 197.714 331.662 200.043 360.517 211.367" stroke="#BEB47C" stroke-opacity="0.7" stroke-width="0.5"/>
<path d="M-59.3363 3.00147C-44.4815 22.5408 -11.8781 30.9384 21.7434 53.7576C55.365 76.5767 84.1116 96.2431 117.118 110.965C139.629 116.505 221.07 82.0315 261.837 141.143C311.511 194.583 331.337 196.804 361.359 209.312" stroke="#B9B27B" stroke-opacity="0.7" stroke-width="0.5"/>
<path d="M-59.4855 4.56154C-44.2039 21.6902 -10.2561 27.205 24.2242 50.4788C58.7046 73.7526 87.1614 95.2345 120.235 113.866C142.572 121.702 221.633 87.1691 261.896 142.458C312.115 191.527 331.02 193.644 362.18 207.306" stroke="#B4B07A" stroke-opacity="0.7" stroke-width="0.5"/>
<path d="M-59.6324 6.08375C-43.9347 20.8613 -8.67557 23.5647 26.6423 47.2819C61.9602 70.9991 90.1344 94.2515 123.274 116.695C145.44 126.771 222.18 92.1804 261.953 143.741C312.702 188.548 330.71 190.563 362.98 205.352" stroke="#B0AF79" stroke-opacity="0.7" stroke-width="0.5"/>
<path d="M-59.7736 7.56612C-43.6703 20.0523 -7.13317 20.0154 29.001 44.1648C65.1352 68.3142 93.0339 93.2922 126.238 119.451C148.237 131.71 222.715 97.0633 262.011 144.99C313.276 185.644 330.409 187.559 363.762 203.445" stroke="#ABAD78" stroke-opacity="0.7" stroke-width="0.5"/>
<path d="M-59.9125 9.00855C-43.4142 19.263 -5.63229 16.5571 31.2969 41.1275C68.2262 65.6978 95.8566 92.3566 129.123 122.135C150.961 136.519 223.234 101.818 262.065 146.205C313.834 182.813 330.115 184.631 364.522 201.587" stroke="#A7AB78" stroke-opacity="0.7" stroke-width="0.5"/>
<path d="M-60.0471 10.4152C-43.1644 18.4974 -4.17097 13.194 33.5321 38.174C71.2351 63.1541 98.6044 91.4486 131.931 124.749C153.612 141.203 223.741 106.448 262.118 147.39C314.377 180.061 329.83 181.785 365.262 199.781" stroke="#A2AA77" stroke-opacity="0.7" stroke-width="0.5"/>
<path d="M-60.1795 11.7818C-42.9228 17.7516 -2.75118 9.92188 35.7044 35.3003C74.1601 60.6788 101.275 90.5643 134.661 127.29C156.188 145.757 224.232 110.95 262.169 148.542C314.904 177.383 329.55 179.015 365.98 198.023" stroke="#9EA876" stroke-opacity="0.7" stroke-width="0.5"/>
<path d="M-60.3057 13.1106C-42.6856 17.0275 -1.369 6.74279 37.8179 32.5084C77.0049 58.2741 103.873 89.7056 137.316 129.761C158.695 150.182 224.712 115.325 262.221 149.661C315.419 174.782 329.281 176.324 366.681 196.316" stroke="#9AA776" stroke-opacity="0.7" stroke-width="0.5"/>
<path d="M-60.43 14.3995C-42.4571 16.3231 -0.0288285 3.65472 39.8682 29.7963C79.7652 55.9379 106.394 88.8705 139.893 132.158C161.127 154.478 225.176 119.572 262.269 150.747C315.917 172.254 329.018 173.71 367.359 194.657" stroke="#96A575" stroke-opacity="0.7" stroke-width="0.5"/>
<path d="M-60.5506 15.6504C-42.2355 15.6404 1.27128 0.659699 41.8572 27.166C82.443 53.6723 108.84 88.0611 142.392 134.484C163.486 158.646 225.626 123.693 262.316 151.801C316.4 169.803 328.763 171.175 368.018 193.048" stroke="#93A474" stroke-opacity="0.7" stroke-width="0.5"/>
<path d="M-60.6665 16.8635C-42.0197 14.9795 2.5323 -2.24224 43.7858 24.6175C85.0393 51.4772 111.21 87.2774 144.816 136.739C165.773 162.686 226.063 127.687 262.363 152.824C316.869 167.428 328.517 168.719 368.656 191.49" stroke="#8FA274" stroke-opacity="0.7" stroke-width="0.5"/>
<path d="M-60.7786 18.0367C-41.8106 14.3384 3.75328 -5.05313 45.6531 22.1488C87.553 49.3508 113.506 86.5173 147.162 138.921C167.988 166.597 226.486 131.553 262.408 153.812C317.323 165.128 328.279 166.34 369.275 189.98" stroke="#8BA173" stroke-opacity="0.7" stroke-width="0.5"/>
<path d="M-60.8885 19.172C-41.6099 13.7189 4.93273 -7.77099 47.4577 19.7619C89.9826 47.2948 115.725 85.7828 149.43 141.032C170.129 170.379 226.894 135.292 262.45 154.769C317.761 162.904 328.047 164.039 369.872 188.52" stroke="#88A072" stroke-opacity="0.7" stroke-width="0.5"/>
<path d="M-60.9941 20.2694C-41.4154 13.1212 6.07262 -10.3958 49.2014 17.4568C92.3303 45.3094 117.869 85.0739 151.621 143.072C172.197 174.034 227.289 138.905 262.491 155.693C318.185 160.756 327.824 161.817 370.449 187.11" stroke="#859F72" stroke-opacity="0.7" stroke-width="0.5"/>
<path d="M-61.0954 21.3269C-41.2273 12.5433 7.17293 -12.9296 50.8844 15.2315C94.5958 43.3926 119.938 84.3888 153.735 145.039C174.193 177.558 227.67 142.39 262.531 156.584C318.594 158.682 327.609 159.673 371.006 185.749" stroke="#819D71" stroke-opacity="0.7" stroke-width="0.5"/>
<path d="M-61.193 22.3465C-41.0459 11.987 8.23319 -15.3704 52.506 13.0879C96.7789 41.5462 121.931 83.7292 155.773 146.934C176.116 180.955 228.038 145.748 262.57 157.443C318.989 156.685 327.401 157.607 371.543 184.438" stroke="#7E9C71" stroke-opacity="0.7" stroke-width="0.5"/>
<path d="M-60.9723 20.5367C-40.5568 8.66102 9.56789 -20.5095 54.3809 8.23476C99.1938 36.979 124.164 80.3038 158.048 145.968C178.282 181.433 228.706 146.188 262.922 155.479C319.682 151.972 327.517 152.828 372.375 180.386" stroke="#7B9B70" stroke-opacity="0.7" stroke-width="0.5"/>
<path d="M-60.6537 17.8371C-39.9804 4.5048 10.9567 -26.4076 56.2886 2.6114C101.62 31.6304 126.415 76.0521 160.34 144.078C180.468 180.93 229.455 145.65 263.367 152.631C320.456 146.484 327.734 147.277 373.28 175.532" stroke="#789A70" stroke-opacity="0.7" stroke-width="0.5"/>
<path d="M-60.346 15.2368C-39.4255 0.507629 12.2908 -32.0753 58.1203 -2.79287C103.95 26.4896 128.577 71.9633 162.541 142.254C182.567 180.438 230.175 145.123 263.796 149.889C321.2 141.209 327.944 141.941 374.15 170.866" stroke="#76996F" stroke-opacity="0.7" stroke-width="0.5"/>
<path d="M-60.0505 12.738C-38.8932 -3.32854 13.5689 -37.5108 59.8748 -7.97607C106.181 21.5586 130.647 68.0395 164.648 140.499C184.578 179.956 230.865 144.609 264.207 147.254C321.913 136.15 328.147 136.824 374.984 166.389" stroke="#73986F" stroke-opacity="0.7" stroke-width="0.5"/>
<path d="M-59.7668 10.3464C-38.3834 -6.99781 14.7913 -42.708 61.5524 -12.9323C108.314 16.8434 132.626 64.2865 166.663 138.818C186.5 179.492 231.526 144.113 264.602 144.732C322.595 131.312 328.342 131.93 375.783 162.108" stroke="#71976E" stroke-opacity="0.7" stroke-width="0.5"/>
<path d="M-59.4957 8.05737C-37.8967 -10.5049 15.9574 -47.6717 63.1525 -17.6663C110.347 12.3391 134.514 60.6995 168.585 137.206C188.333 179.041 232.156 143.632 264.978 142.319C323.246 126.691 328.528 127.256 376.544 158.017" stroke="#6E966E" stroke-opacity="0.7" stroke-width="0.5"/>
<path d="M-59.2382 5.8783C-37.4341 -13.8424 17.0661 -52.3945 64.6738 -22.1706C112.282 8.0533 136.308 57.2861 170.412 135.671C190.076 178.609 232.756 143.172 265.336 140.022C323.866 122.294 328.705 122.809 377.268 154.125" stroke="#6C956E" stroke-opacity="0.7" stroke-width="0.5"/>
<path d="M-58.9935 3.80612C-36.9949 -17.0134 18.1182 -56.8795 66.1173 -26.4484C114.117 3.98278 138.011 54.0431 172.146 134.21C191.73 178.195 233.325 142.731 265.676 137.838C324.453 118.118 328.874 118.586 377.956 150.428" stroke="#6A946D" stroke-opacity="0.7" stroke-width="0.5"/>
<path d="M-58.7616 1.84378C-36.5791 -20.0149 19.1135 -61.1237 67.4829 -30.4966C115.852 0.130577 139.622 50.9735 173.785 132.825C193.295 177.8 233.863 142.31 265.998 135.77C325.01 114.166 329.033 114.589 378.606 146.929" stroke="#68946D" stroke-opacity="0.7" stroke-width="0.5"/>
<path d="M-58.5417 -0.00796642C-36.1858 -22.8461 20.0531 -65.1264 68.7715 -34.3145C117.49 -3.50259 141.142 48.078 175.333 131.518C194.771 177.426 234.372 141.912 266.303 133.818C325.535 110.439 329.185 110.819 379.22 143.628" stroke="#66936C" stroke-opacity="0.7" stroke-width="0.5"/>
<path d="M-58.3368 -1.75055C-35.8181 -25.5086 20.9339 -68.8889 69.98 -37.9036C119.026 -6.91816 142.568 45.3552 176.784 130.287C196.156 177.071 234.849 141.535 266.587 131.982C326.027 106.935 329.326 107.275 379.796 140.525" stroke="#64926C" stroke-opacity="0.7" stroke-width="0.5"/>
<path d="M-58.1426 -3.38125C-35.4716 -27.9996 21.7603 -72.4087 71.1128 -41.261C120.465 -10.1134 143.903 42.8078 178.144 129.135C197.453 176.738 235.297 141.181 266.856 130.264C326.49 103.657 329.46 103.96 380.337 137.622" stroke="#62926C" stroke-opacity="0.7" stroke-width="0.5"/>
<path d="M-57.9629 -4.90189C-35.1502 -30.3209 22.5282 -75.6874 72.1659 -44.3888C121.804 -13.0901 145.146 40.434 179.408 128.059C198.66 176.425 235.713 140.848 267.105 128.661C326.92 100.604 329.584 100.872 380.839 134.917" stroke="#61916C" stroke-opacity="0.7" stroke-width="0.5"/>
<path d="M-57.7984 -6.30979C-34.8545 -32.4698 23.2371 -78.7225 73.1388 -47.2841C123.041 -15.8457 146.293 38.2365 180.577 127.063C199.774 176.135 236.096 140.54 267.334 127.178C327.316 97.7774 329.697 98.0128 381.302 132.413" stroke="#5F916B" stroke-opacity="0.7" stroke-width="0.5"/>
<path d="M-57.6447 -7.60484C-34.5802 -34.4462 23.8915 -81.5138 74.0359 -49.9468C124.18 -18.3799 147.351 36.2154 181.654 126.147C200.802 175.868 236.451 140.256 267.547 125.814C327.682 95.1778 329.804 95.3837 381.73 130.111" stroke="#5E906B" stroke-opacity="0.7" stroke-width="0.5"/>
<path d="M-57.5037 -8.78663C-34.3292 -36.2497 24.4893 -84.0608 74.8552 -52.3766C125.221 -20.6924 148.317 34.3711 182.637 125.311C201.74 175.624 236.775 139.997 267.741 124.568C328.017 92.8056 329.901 92.9845 382.121 128.009" stroke="#5D906B" stroke-opacity="0.7" stroke-width="0.5"/>
<path d="M-57.3775 -9.85689C-34.1035 -37.8821 25.0285 -86.3654 75.5947 -54.5752C126.161 -22.785 149.189 32.7019 183.525 124.553C202.587 175.402 237.067 139.761 267.916 123.441C328.319 90.6591 329.988 90.8136 382.474 126.108" stroke="#5C8F6B" stroke-opacity="0.7" stroke-width="0.5"/>
<g filter="url(#filter0_bf_911_2484)">
<rect width="233.506" height="98.378" rx="15" transform="matrix(-1 2.86043e-08 0 1 285.385 41.1024)" fill="#47967C" fill-opacity="0.1"/>
</g>
<defs>
<filter id="filter0_bf_911_2484" x="-20.4216" y="-31.1976" width="378.106" height="242.978" filterUnits="userSpaceOnUse" color-interpolation-filters="sRGB">
<feFlood flood-opacity="0" result="BackgroundImageFix"/>
<feGaussianBlur in="BackgroundImageFix" stdDeviation="6.75"/>
<feComposite in2="SourceAlpha" operator="in" result="effect1_backgroundBlur_911_2484"/>
<feBlend mode="normal" in="SourceGraphic" in2="effect1_backgroundBlur_911_2484" result="shape"/>
<feGaussianBlur stdDeviation="36.15" result="effect2_foregroundBlur_911_2484"/>
</filter>
</defs>
</svg>
