<svg width="229" height="61" viewBox="0 0 229 61" fill="none" xmlns="http://www.w3.org/2000/svg">
<path d="M1 44L9.79472 50.9389C11.3086 52.1333 13.4592 52.0777 14.9092 50.8065L20.6068 45.8117C21.8517 44.7203 23.6404 44.5087 25.1057 45.2794L31.8396 48.8213C33.2079 49.5411 34.8685 49.4078 36.1046 48.479L39.9012 45.6261C41.2084 44.6439 42.9817 44.5562 44.3795 45.4045L54.2297 51.3827C55.7965 52.3336 57.809 52.0981 59.1138 50.8112L64.6028 45.3978C65.4954 44.5174 66.7492 44.1065 67.9898 44.2878L77.4228 45.666C78.8372 45.8727 80.2543 45.3089 81.1402 44.1871L99.5512 20.8738C100.003 20.3021 100.602 19.8646 101.283 19.6084L106.302 17.7228C107.51 17.2691 108.424 16.261 108.759 15.0152L110.467 8.6523C111.363 5.31107 115.792 4.60679 117.681 7.50494L119.242 9.89927C120.613 12.0035 123.581 12.2959 125.337 10.5L126.234 9.58209C127.53 8.25716 129.719 8.47293 130.731 10.0253V10.0253C131.914 11.8405 134.599 11.7609 135.672 9.87865L139.413 3.31957C140.473 1.46223 142.805 0.766428 144.709 1.73995L154.995 7L165.2 13.2623C165.978 13.7397 166.569 14.4688 166.876 15.3285L169.301 22.1323C170.429 25.2966 174.719 25.7452 176.477 22.8828L178.628 19.3812C179.506 17.9509 181.184 17.2213 182.829 17.5541L193.524 19.7177C194.427 19.9003 195.365 19.7659 196.18 19.3373L198.191 18.2794C199.656 17.5087 201.445 17.7203 202.69 18.8117L207.467 23L215.993 32.3422C216.388 32.7754 216.683 33.2903 216.858 33.8503L217.281 35.2116C218.32 38.5511 222.842 39.043 224.575 36.0051L228 30" stroke="#5F976E"/>
<path d="M9.7682 51.7666L1 44.7333V56.999C1 59.2082 2.79086 61 5 61H224C226.209 61 228 59.2091 228 57V30.5L224.592 36.5756C222.869 39.6454 218.308 39.1547 217.278 35.789L216.851 34.3944C216.681 33.8382 216.392 33.3258 216.003 32.8929L207.467 23.3833L202.708 19.1415C201.456 18.0253 199.64 17.8092 198.16 18.6003L196.195 19.6513C195.371 20.092 194.418 20.2302 193.503 20.042L182.859 17.8527C181.199 17.5114 179.505 18.2523 178.629 19.7022L176.495 23.2343C174.746 26.1296 170.416 25.6815 169.297 22.4893L166.867 15.5596C166.566 14.7011 165.981 13.9709 165.21 13.4894L154.995 7.11667L144.744 1.78737C142.828 0.791167 140.467 1.49583 139.411 3.3793L135.671 10.0464C134.606 11.9434 131.904 12.023 130.73 10.1919C129.725 8.62353 127.518 8.40682 126.227 9.74961L125.337 10.675C123.591 12.4897 120.609 12.1969 119.25 10.0773L117.701 7.66111C115.822 4.7302 111.355 5.43278 110.466 8.79903L108.75 15.2997C108.421 16.545 107.513 17.5558 106.31 18.0154L101.286 19.9341C100.603 20.1952 100.004 20.639 99.5548 21.217L81.1427 44.9204C80.2567 46.061 78.8246 46.6354 77.396 46.4232L68.0155 45.0297C66.7605 44.8433 65.4915 45.2633 64.5956 46.1617L59.1313 51.6405C57.8207 52.9546 55.7782 53.1946 54.1987 52.22L44.4073 46.1784C42.9967 45.308 41.1956 45.3977 39.8785 46.4039L36.1255 49.271C34.8799 50.2226 33.1932 50.3589 31.811 49.6197L25.1361 46.0503C23.6567 45.2592 21.8409 45.4753 20.5885 46.5915L14.9325 51.6325C13.4746 52.9319 11.2916 52.9886 9.7682 51.7666Z" fill="url(#paint0_linear_601_5474)"/>
<defs>
<linearGradient id="paint0_linear_601_5474" x1="115.07" y1="3.05" x2="114.617" y2="61.0009" gradientUnits="userSpaceOnUse">
<stop stop-color="#5F976E"/>
<stop offset="1" stop-color="#5F976E" stop-opacity="0"/>
</linearGradient>
</defs>
</svg>
