<svg width="26" height="25" viewBox="0 0 26 25" fill="none" xmlns="http://www.w3.org/2000/svg">
<path fill-rule="evenodd" clip-rule="evenodd" d="M13 25C19.9036 25 25.5 19.4036 25.5 12.5C25.5 5.59644 19.9036 0 13 0C6.09644 0 0.5 5.59644 0.5 12.5C0.5 19.4036 6.09644 25 13 25ZM18.2094 20.6125C17.4607 20.7789 16.5647 20.8337 15.5204 20.8337H13.0004C12.0799 20.8337 11.3337 20.0876 11.3337 19.1671V12.5004C11.3337 11.5799 12.0799 10.8337 13.0004 10.8337H19.6671C20.5876 10.8337 21.3337 11.5799 21.3337 12.5004V15.0204C21.3337 16.0647 21.2789 16.9607 21.1125 17.7094C20.944 18.4677 20.6502 19.1249 20.1376 19.6376C19.6249 20.1502 18.9677 20.444 18.2094 20.6125ZM4.66625 15.0204C4.66625 16.0647 4.72111 16.9607 4.88751 17.7094C5.05601 18.4677 5.34975 19.1249 5.86244 19.6376C6.37512 20.1502 7.03235 20.444 7.79054 20.6125C7.86315 20.6286 7.93612 20.6437 8.0094 20.6579C8.91315 20.8325 9.66625 20.0676 9.66625 19.1471V12.5004C9.66625 11.5799 8.92005 10.8337 7.99958 10.8337H6.33291C5.41244 10.8337 4.66625 11.5799 4.66625 12.5004V15.0204ZM7.79154 4.38753C8.54026 4.22113 9.4363 4.16626 10.4806 4.16626H15.5206C16.5649 4.16626 17.4609 4.22113 18.2096 4.38753C18.9678 4.55603 19.625 4.84977 20.1377 5.36245C20.6504 5.87514 20.9441 6.53237 21.1127 7.29055C21.1288 7.36316 21.1439 7.43614 21.1581 7.50941C21.3327 8.41317 20.5678 9.16626 19.6473 9.16626H6.38252C5.44969 9.16626 4.67079 8.39349 4.84944 7.47791C4.86166 7.41527 4.87468 7.35281 4.88851 7.29055C5.05701 6.53237 5.35075 5.87514 5.86344 5.36245C6.37612 4.84977 7.03335 4.55603 7.79154 4.38753Z" fill="#4C8D6A"/>
</svg>
