<svg width="25" height="25" viewBox="0 0 25 25" fill="none" xmlns="http://www.w3.org/2000/svg">
<path fill-rule="evenodd" clip-rule="evenodd" d="M25 12.5C25 19.4036 19.4036 25 12.5 25C5.59644 25 0 19.4036 0 12.5C0 5.59644 5.59644 0 12.5 0C19.4036 0 25 5.59644 25 12.5ZM12.3169 7.28577L11.634 8.38127L15.5602 9.45921L12.3169 7.28577ZM12.1271 12.3856H12.8731C13.3198 12.3856 13.6919 12.7099 13.7671 13.1354L12.5181 13.6932L11.2354 13.1226C11.3157 12.7035 11.6849 12.3856 12.1271 12.3856ZM5.91968 10.7582L10.3114 12.7116C10.558 11.9441 11.2784 11.387 12.1268 11.387H12.8728C13.725 11.387 14.4483 11.9491 14.6917 12.722L19.0887 10.7582H5.91968ZM13.0474 3.99916L20.6907 9.72766C20.7041 9.73761 20.7167 9.74846 20.7289 9.75971H17.7924C17.7741 9.7429 17.7547 9.72683 17.7333 9.71251L12.814 6.41601C12.6035 6.27493 12.3514 6.22651 12.1038 6.27966C11.8538 6.33331 11.6411 6.48334 11.5048 6.70203L10.6304 8.10502L9.48531 7.79064C9.24446 7.72455 8.99239 7.75766 8.77533 7.88383C8.55355 8.01269 8.39613 8.22173 8.33216 8.4722L8.00278 9.75974H4.271C4.28688 9.7452 4.30328 9.73129 4.32089 9.7189L12.4607 3.99037C12.6375 3.86593 12.8743 3.86949 13.0474 3.99916ZM12.7214 14.6957C12.6567 14.7247 12.5873 14.7391 12.5179 14.7391C12.4487 14.7391 12.3796 14.7248 12.315 14.696L3.97949 10.9885V18.6521C3.97949 19.1787 4.40059 19.607 4.91821 19.607H20.0806C20.5982 19.607 21.0193 19.1787 21.0193 18.6521V10.9897L12.7214 14.6957ZM10.7279 9.16758L10.7326 9.16887L12.886 9.76007H9.0332L9.28601 8.77173L10.7279 9.16758Z" fill="#4C8D6A"/>
</svg>
