<svg width="26" height="25" viewBox="0 0 26 25" fill="none" xmlns="http://www.w3.org/2000/svg">
<path fill-rule="evenodd" clip-rule="evenodd" d="M13 25C19.9036 25 25.5 19.4036 25.5 12.5C25.5 5.59644 19.9036 0 13 0C6.09644 0 0.5 5.59644 0.5 12.5C0.5 19.4036 6.09644 25 13 25ZM10.5552 15.8585C11.6274 15.6839 12.1914 15.9841 12.5968 16.95V16.9512C12.6095 16.9512 12.6208 16.9518 12.631 16.9524C12.65 16.9534 12.6653 16.9543 12.6795 16.9506C13.2918 16.798 13.8225 16.9355 14.2668 17.3908C14.3038 17.4291 14.3495 17.4624 14.3965 17.4888C14.5401 17.5686 14.6832 17.6492 14.8263 17.7299L14.8263 17.7299L14.8264 17.7299L14.8265 17.73L14.8265 17.73L14.8266 17.7301L14.8269 17.7302C15.242 17.9641 15.6569 18.198 16.0822 18.4113C16.2414 18.4911 16.4651 18.5068 16.6431 18.471C16.9532 18.4082 17.1381 18.1815 17.1763 17.8606C17.2164 17.5239 17.083 17.2614 16.7897 17.0931C16.3694 16.852 15.9475 16.6142 15.5256 16.3764L15.5239 16.3755L15.523 16.3749C15.3129 16.2565 15.1027 16.1381 14.8928 16.0192C14.8361 15.987 14.7788 15.9554 14.7215 15.9239C14.5802 15.846 14.4386 15.768 14.3044 15.6795C14.1384 15.5696 14.0751 15.4057 14.149 15.2085C14.2179 15.0257 14.3602 14.9303 14.5488 14.9466C14.6495 14.9552 14.7509 15.0121 14.8434 15.0641L14.849 15.0672C15.3187 15.3285 15.7878 15.591 16.2568 15.8535C16.7695 16.1404 17.282 16.4273 17.7955 16.7126C18.2103 16.9424 18.6634 16.8256 18.8714 16.4463C19.0757 16.0745 18.9403 15.6355 18.5418 15.4019C18.3238 15.2743 18.1034 15.1504 17.8831 15.0266L17.883 15.0266L17.883 15.0266L17.883 15.0266L17.8829 15.0266L17.8829 15.0265L17.8828 15.0265C17.7694 14.9628 17.656 14.8991 17.5429 14.8348C17.4076 14.7582 17.2721 14.6818 17.1365 14.6055C16.8024 14.4174 16.4681 14.2293 16.1374 14.0354C15.8303 13.8558 15.8165 13.4721 16.1041 13.3144C16.2758 13.2202 16.4319 13.273 16.5904 13.3628C17.4934 13.8765 18.3983 14.3877 19.3038 14.897C19.7098 15.125 20.1761 15.0132 20.3854 14.6452C20.5965 14.2734 20.4574 13.82 20.0457 13.5838C19.8237 13.4564 19.6017 13.3288 19.3797 13.2012C18.2944 12.5772 17.2089 11.9532 16.1123 11.35C15.8729 11.2188 15.5633 11.1685 15.2851 11.166C15.0119 11.1635 14.7274 11.2407 14.4648 11.3324C14.1265 11.4502 13.7917 11.579 13.457 11.7078L13.457 11.7078C13.1725 11.8173 12.888 11.9268 12.6012 12.0295C12.0153 12.2393 11.4106 12.363 10.7846 12.2807C9.89723 12.1645 9.25555 11.6527 8.73042 10.9638C8.49229 10.6523 8.53804 10.4382 8.8664 10.229C8.99423 10.1475 9.12344 10.0677 9.25267 9.98785L9.25269 9.98785C9.61632 9.76319 9.98014 9.53843 10.3139 9.27571C10.8096 8.88565 11.286 8.47093 11.7624 8.05619L11.7624 8.05616C11.9618 7.88264 12.1611 7.70911 12.3618 7.53739L12.3355 7.44884C12.2578 7.43014 12.1803 7.40961 12.1028 7.38908C11.9279 7.34272 11.753 7.29636 11.5754 7.27112C11.0262 7.19364 10.4964 7.31859 9.96785 7.44326L9.96777 7.44327L9.9677 7.44329L9.96762 7.44331L9.96754 7.44333L9.96746 7.44335C9.91773 7.45508 9.868 7.4668 9.81827 7.47836L9.74253 7.49595C9.22428 7.61656 8.69807 7.73902 8.17584 7.58512C7.83904 7.48538 7.51605 7.33645 7.19397 7.18793L7.19396 7.18793L7.19387 7.18789C7.10429 7.14658 7.01478 7.10531 6.92506 7.06513C6.54363 6.89445 6.16503 6.71779 5.78125 6.53872L5.78112 6.53866L5.78111 6.53865L5.7811 6.53865L5.78079 6.5385L5.78027 6.53826C5.62214 6.46447 5.46313 6.39028 5.30268 6.31592L4.01585 9.06013L2.86816 11.5076C3.08827 11.6053 3.30561 11.7028 3.52124 11.7995L3.52142 11.7996C4.05284 12.038 4.57386 12.2717 5.10027 12.4924C5.52388 12.6695 5.7877 12.9646 5.90989 13.3998C5.92993 13.4718 5.95019 13.5435 5.97139 13.6186L6.01893 13.7873C6.51398 13.3483 7.05728 13.2039 7.66575 13.4174C8.27485 13.6316 8.59005 14.1007 8.70347 14.7136C9.63153 14.62 10.245 15.0019 10.5552 15.8585ZM23.1321 12.3446L22.8485 12.4661L22.8481 12.4662C22.2361 12.7286 21.6401 12.984 21.0422 13.2338C20.9946 13.2533 20.9119 13.2307 20.8643 13.1993C20.7778 13.1421 20.6941 13.0805 20.6103 13.0188C20.487 12.928 20.3637 12.8372 20.232 12.7609C19.8326 12.5297 19.4303 12.3033 19.0281 12.0769L19.0281 12.0769L19.028 12.0769L19.0279 12.0768L19.0279 12.0768L19.0276 12.0766C18.2865 11.6596 17.5456 11.2426 16.823 10.7953C15.9927 10.2816 15.1568 10.2263 14.2701 10.5422C13.9526 10.6553 13.6379 10.7767 13.3233 10.8981L13.3232 10.8981L13.3232 10.8981C13.0194 11.0154 12.7155 11.1326 12.409 11.2424C11.8769 11.4333 11.333 11.5746 10.7584 11.4515C10.2984 11.3529 9.93184 11.1049 9.60034 10.7413L9.72217 10.6624L9.7222 10.6624C9.81775 10.6005 9.90847 10.5417 10.0001 10.4844C11.0072 9.85577 11.8826 9.06637 12.7386 8.24996C12.9855 8.01446 13.2731 7.81663 13.5607 7.63074C14.4637 7.0467 15.4212 6.96569 16.4257 7.34375L16.5962 7.40787L16.5962 7.40787C17.0865 7.59245 17.5774 7.77727 18.0788 7.92528C18.562 8.06784 19.037 7.97552 19.4813 7.73123C19.7943 7.55932 20.1093 7.39127 20.4244 7.22317L20.4244 7.22314L20.4244 7.22312L20.4245 7.2231C20.5502 7.15602 20.676 7.08892 20.8016 7.02158C20.8454 6.99821 20.8902 6.97671 20.9414 6.95219C20.9686 6.93916 20.9975 6.92527 21.0291 6.90979L21.8923 9.14037L23.1321 12.3439V12.3446ZM9.76572 16.3988C9.77242 16.3738 9.77818 16.3523 9.78358 16.3361L9.78359 16.3367V16.336L9.78358 16.3361C9.77961 15.9263 9.55972 15.627 9.2522 15.5422C8.91005 15.4474 8.54346 15.59 8.36925 15.9077C8.03901 16.5106 7.71754 17.1185 7.39796 17.7271C7.18176 18.1384 7.29769 18.5768 7.66804 18.784C8.05092 18.9981 8.49396 18.8606 8.72017 18.4442C9.0454 17.847 9.36499 17.2473 9.67894 16.6444C9.72244 16.5604 9.74754 16.4667 9.76572 16.3988ZM11.8478 17.3639C11.8338 17.4056 11.8215 17.4483 11.8092 17.4909C11.7828 17.5824 11.7564 17.6739 11.7137 17.757C11.4706 18.2292 11.2186 18.6971 10.9655 19.1637C10.7368 19.5857 10.3075 19.7352 9.92149 19.5336C9.53234 19.3308 9.41328 18.8761 9.64075 18.444L9.71727 18.2989C9.94669 17.8636 10.1761 17.4284 10.4147 16.9977C10.5958 16.6705 10.9498 16.5324 11.2945 16.6322C11.6065 16.7227 11.8221 17.0172 11.8478 17.3639ZM7.87204 15.0257L7.87204 15.0257C7.88371 14.9851 7.89537 14.9446 7.90865 14.9049H7.90928C7.88484 14.5406 7.67679 14.2568 7.3453 14.1607C7.02069 14.0665 6.65724 14.2097 6.48366 14.5205C6.23676 14.9639 5.99989 15.4129 5.76553 15.8632C5.54683 16.2827 5.67341 16.7336 6.05754 16.9327C6.43478 17.1286 6.86654 16.9836 7.089 16.5779C7.32524 16.1464 7.55773 15.7125 7.78269 15.2754C7.82268 15.1974 7.84737 15.1115 7.87204 15.0257ZM14.0998 19.9806L14.4342 19.267L14.7428 18.6084C14.8034 18.6427 14.8683 18.6775 14.9355 18.7135L14.9355 18.7135L14.9356 18.7135C15.096 18.7996 15.2698 18.8928 15.4314 19.0034C15.7498 19.2207 15.8306 19.6572 15.6401 19.9856C15.449 20.3153 15.0373 20.4541 14.6845 20.2933C14.5502 20.2318 14.4208 20.1592 14.2886 20.0851C14.2266 20.0503 14.1639 20.0151 14.0998 19.9806ZM11.8455 19.2349C11.5165 19.851 11.6293 20.2202 12.2396 20.5261L12.2403 20.5267H12.6156C12.6661 20.4808 12.7206 20.4374 12.7751 20.394C12.8958 20.2978 13.0165 20.2016 13.0938 20.0783C13.292 19.7615 13.4633 19.4273 13.6343 19.0936C13.6769 19.0106 13.7194 18.9276 13.7624 18.8449C13.9704 18.443 13.8451 17.9895 13.4791 17.7898C13.1 17.5826 12.6551 17.7296 12.4301 18.1415C12.2945 18.3889 12.1625 18.638 12.0303 18.8872C11.9688 19.0031 11.9073 19.1191 11.8455 19.2349Z" fill="#4C8D6A"/>
</svg>
