<svg width="27" height="25" viewBox="0 0 27 25" fill="none" xmlns="http://www.w3.org/2000/svg">
<ellipse cx="13.0682" cy="12.5" rx="13.0682" ry="12.5" fill="white"/>
<path fill-rule="evenodd" clip-rule="evenodd" d="M26.25 12.5C26.25 19.4036 20.3737 25 13.125 25C5.87626 25 0 19.4036 0 12.5C0 5.59644 5.87626 0 13.125 0C20.3737 0 26.25 5.59644 26.25 12.5ZM14.7016 13.5789V13.5805C17.8845 13.4461 20.2593 12.9187 20.2593 12.2859C20.2593 11.6547 17.8845 11.1258 14.7016 10.9906V13.0555C14.6089 13.0633 14.1127 13.1023 13.1225 13.1023C12.2973 13.1023 11.7001 13.0687 11.4918 13.0547V10.9891C8.30238 11.125 5.92184 11.6539 5.92184 12.2859C5.92184 12.9187 8.30238 13.4477 11.4918 13.5813V13.5789C11.6968 13.5883 12.2801 13.6117 13.1086 13.6117C14.1463 13.6117 14.6114 13.5852 14.7016 13.5789ZM14.7016 8.92734V10.7758C18.3053 10.9344 21.0131 11.6148 21.0131 12.4297C21.0131 13.2445 18.3053 13.925 14.7016 14.0828V20.0078H11.4918V14.0844C7.88238 13.9258 5.16797 13.2453 5.16797 12.4297C5.16797 11.6141 7.88238 10.9328 11.4918 10.775V8.92734H7.05059V6.10859H19.1428V8.92734H14.7016Z" fill="#4EB098"/>
</svg>
