<svg width="26" height="25" viewBox="0 0 26 25" fill="none" xmlns="http://www.w3.org/2000/svg">
<path fill-rule="evenodd" clip-rule="evenodd" d="M13 25C19.9036 25 25.5 19.4036 25.5 12.5C25.5 5.59644 19.9036 0 13 0C6.09644 0 0.5 5.59644 0.5 12.5C0.5 19.4036 6.09644 25 13 25ZM13.7195 5.30339H20.1967C20.5942 5.30339 20.9164 5.62563 20.9164 6.02307V17.538C20.9164 17.9355 20.5942 18.2577 20.1967 18.2577H17.043L17.9616 20.095C18.1394 20.4506 17.9953 20.8828 17.6398 21.0606C17.5365 21.1122 17.4267 21.1367 17.3185 21.1367C17.0545 21.1367 16.8004 20.9909 16.6743 20.7387L15.4338 18.2577H10.5659L9.32538 20.7387C9.1477 21.0942 8.71544 21.2384 8.35987 21.0606C8.00436 20.8828 7.86027 20.4506 8.03803 20.095L8.95665 18.2577H5.80296C5.40549 18.2577 5.08328 17.9355 5.08328 17.538V6.02307C5.08328 5.62563 5.40549 5.30339 5.80296 5.30339H12.2802V4.5837C12.2802 4.18626 12.6024 3.86401 12.9999 3.86401C13.3973 3.86401 13.7195 4.18626 13.7195 4.5837V5.30339ZM14.5265 13.3073L17.9192 9.91467C18.2002 9.63358 18.2002 9.17791 17.9192 8.89682C17.6382 8.6158 17.1825 8.6158 16.9014 8.89682L14.0177 11.7806L12.491 10.2538C12.3561 10.1188 12.173 10.043 11.9821 10.043C11.7912 10.043 11.6082 10.1188 11.4732 10.2538L8.08057 13.6465C7.79945 13.9275 7.79945 14.3832 8.0806 14.6642C8.22108 14.8048 8.40527 14.8751 8.58947 14.8751C8.77363 14.8751 8.9578 14.8048 9.09834 14.6642L11.9821 11.7805L13.5087 13.3072C13.6437 13.4422 13.8267 13.5181 14.0176 13.5181C14.2084 13.5181 14.3915 13.4423 14.5265 13.3073Z" fill="#4C8D6A"/>
</svg>
